<?xml version="1.0" encoding="UTF-8" standalone="no"?>
<!DOCTYPE svg PUBLIC "-//W3C//DTD SVG 1.1//EN"
 "http://www.w3.org/Graphics/SVG/1.1/DTD/svg11.dtd">
<!-- Generated by graphviz version 2.38.0 (20140413.2041)
 -->
<!-- Title: Modules/Example/include/Example/BenchmarkTask.h Pages: 1 -->
<!--zoomable 319 -->
<svg id="main" version="1.1" xmlns="http://www.w3.org/2000/svg" xmlns:xlink="http://www.w3.org/1999/xlink" xml:space="preserve" onload="init(evt)">
<style type="text/css"><![CDATA[
.edge:hover path { stroke: red; }
.edge:hover polygon { stroke: red; fill: red; }
]]></style>
<script type="text/javascript"><![CDATA[
var edges = document.getElementsByTagName('g');
if (edges && edges.length) {
  for (var i=0;i<edges.length;i++) {
    if (edges[i].id.substr(0,4)=='edge') {
      edges[i].setAttribute('class','edge');
    }
  }
}
]]></script>
        <defs>
                <circle id="rim" cx="0" cy="0" r="7"/>
                <circle id="rim2" cx="0" cy="0" r="3.5"/>
                <g id="zoomPlus">
                        <use xlink:href="#rim" fill="#404040">
                                <set attributeName="fill" to="#808080" begin="zoomplus.mouseover" end="zoomplus.mouseout"/>
                        </use>
                        <path d="M-4,0h8M0,-4v8" fill="none" stroke="white" stroke-width="1.5" pointer-events="none"/>
                </g>
                <g id="zoomMin">
                        <use xlink:href="#rim" fill="#404040">
                                <set attributeName="fill" to="#808080" begin="zoomminus.mouseover" end="zoomminus.mouseout"/>
                        </use>
                        <path d="M-4,0h8" fill="none" stroke="white" stroke-width="1.5" pointer-events="none"/>
                </g>
                <g id="dirArrow">
                        <path fill="none" stroke="white" stroke-width="1.5" d="M0,-3.0v7 M-2.5,-0.5L0,-3.0L2.5,-0.5"/>
                </g>
               <g id="resetDef">
                       <use xlink:href="#rim2" fill="#404040">
                               <set attributeName="fill" to="#808080" begin="reset.mouseover" end="reset.mouseout"/>
                       </use>
               </g>
        </defs>

<script type="text/javascript">
var viewWidth = 1007;
var viewHeight = 319;
var sectionId = 'dynsection-0';
</script>
<script xlink:href="svgpan.js"/>
<svg id="graph" class="graph">
<g id="viewport">
<title>Modules/Example/include/Example/BenchmarkTask.h</title>
<!-- Node1 -->
<g id="node1" class="node"><title>Node1</title>
<polygon fill="#bfbfbf" stroke="black" points="837.5,-280.5 837.5,-310.5 977.5,-310.5 977.5,-280.5 837.5,-280.5"/>
<text text-anchor="start" x="845.5" y="-298.5" font-family="Helvetica,sans-Serif" font-size="10.00">Modules/Example/include</text>
<text text-anchor="middle" x="907.5" y="-287.5" font-family="Helvetica,sans-Serif" font-size="10.00">/Example/BenchmarkTask.h</text>
</g>
<!-- Node2 -->
<g id="node2" class="node"><title>Node2</title>
<g id="a_node2"><a xlink:href="TaskInterface_8h.html" target="_top" xlink:title="QualityControl/TaskInterface.h">
<polygon fill="none" stroke="black" points="555.5,-224.5 555.5,-243.5 705.5,-243.5 705.5,-224.5 555.5,-224.5"/>
<text text-anchor="middle" x="630.5" y="-231.5" font-family="Helvetica,sans-Serif" font-size="10.00">QualityControl/TaskInterface.h</text>
</a>
</g>
</g>
<!-- Node1&#45;&gt;Node2 -->
<g id="edge1" class="edge"><title>Node1&#45;&gt;Node2</title>
<path fill="none" stroke="midnightblue" d="M842.206,-280.475C792.539,-269.806 725.248,-255.352 679.977,-245.628"/>
<polygon fill="midnightblue" stroke="midnightblue" points="680.613,-242.185 670.101,-243.506 679.143,-249.029 680.613,-242.185"/>
</g>
<!-- Node4 -->
<g id="node4" class="node"><title>Node4</title>
<polygon fill="none" stroke="#bfbfbf" points="696.5,-112.5 696.5,-131.5 748.5,-131.5 748.5,-112.5 696.5,-112.5"/>
<text text-anchor="middle" x="722.5" y="-119.5" font-family="Helvetica,sans-Serif" font-size="10.00">memory</text>
</g>
<!-- Node1&#45;&gt;Node4 -->
<g id="edge26" class="edge"><title>Node1&#45;&gt;Node4</title>
<path fill="none" stroke="midnightblue" d="M907.369,-280.181C906.339,-254.185 900.389,-199.052 869.5,-168 840.116,-138.462 791.908,-128.215 758.759,-124.715"/>
<polygon fill="midnightblue" stroke="midnightblue" points="758.841,-121.209 748.568,-123.8 758.215,-128.181 758.841,-121.209"/>
</g>
<!-- Node5 -->
<g id="node5" class="node"><title>Node5</title>
<polygon fill="none" stroke="#bfbfbf" points="489,-0.5 489,-19.5 530,-19.5 530,-0.5 489,-0.5"/>
<text text-anchor="middle" x="509.5" y="-7.5" font-family="Helvetica,sans-Serif" font-size="10.00">string</text>
</g>
<!-- Node1&#45;&gt;Node5 -->
<g id="edge27" class="edge"><title>Node1&#45;&gt;Node5</title>
<path fill="none" stroke="midnightblue" d="M911.345,-280.398C916.897,-258.76 926.5,-215.985 926.5,-179 926.5,-179 926.5,-179 926.5,-121 926.5,-41.0751 636.473,-17.9545 540.168,-12.4802"/>
<polygon fill="midnightblue" stroke="midnightblue" points="540.354,-8.98533 530.179,-11.9369 539.974,-15.975 540.354,-8.98533"/>
</g>
<!-- Node17 -->
<g id="node17" class="node"><title>Node17</title>
<polygon fill="none" stroke="#bfbfbf" points="954.5,-224.5 954.5,-243.5 998.5,-243.5 998.5,-224.5 954.5,-224.5"/>
<text text-anchor="middle" x="976.5" y="-231.5" font-family="Helvetica,sans-Serif" font-size="10.00">vector</text>
</g>
<!-- Node1&#45;&gt;Node17 -->
<g id="edge25" class="edge"><title>Node1&#45;&gt;Node17</title>
<path fill="none" stroke="midnightblue" d="M923.852,-280.399C934.395,-271.308 948.1,-259.49 958.884,-250.191"/>
<polygon fill="midnightblue" stroke="midnightblue" points="961.172,-252.839 966.46,-243.658 956.601,-247.538 961.172,-252.839"/>
</g>
<!-- Node3 -->
<g id="node3" class="node"><title>Node3</title>
<polygon fill="none" stroke="#bfbfbf" points="0,-56.5 0,-75.5 35,-75.5 35,-56.5 0,-56.5"/>
<text text-anchor="middle" x="17.5" y="-63.5" font-family="Helvetica,sans-Serif" font-size="10.00">map</text>
</g>
<!-- Node2&#45;&gt;Node3 -->
<g id="edge2" class="edge"><title>Node2&#45;&gt;Node3</title>
<path fill="none" stroke="midnightblue" d="M555.072,-233.708C430.21,-233.69 186.932,-228.269 112.5,-188 69.3832,-164.673 39.2577,-112.593 25.6596,-84.9831"/>
<polygon fill="midnightblue" stroke="midnightblue" points="28.7105,-83.2479 21.2647,-75.7106 22.385,-86.246 28.7105,-83.2479"/>
</g>
<!-- Node2&#45;&gt;Node4 -->
<g id="edge3" class="edge"><title>Node2&#45;&gt;Node4</title>
<path fill="none" stroke="midnightblue" d="M642.583,-224.261C653.766,-215.796 670.437,-202.19 682.5,-188 694.947,-173.358 706.129,-154.445 713.484,-140.798"/>
<polygon fill="midnightblue" stroke="midnightblue" points="716.789,-142.031 718.321,-131.548 710.586,-138.788 716.789,-142.031"/>
</g>
<!-- Node2&#45;&gt;Node5 -->
<g id="edge4" class="edge"><title>Node2&#45;&gt;Node5</title>
<path fill="none" stroke="midnightblue" d="M635.128,-224.2C649.04,-196.406 687.199,-109.205 648.5,-56 623.902,-22.1819 573.338,-13.2584 540.454,-11.1908"/>
<polygon fill="midnightblue" stroke="midnightblue" points="540.189,-7.67559 530.043,-10.7264 539.877,-14.6686 540.189,-7.67559"/>
</g>
<!-- Node6 -->
<g id="node6" class="node"><title>Node6</title>
<polygon fill="none" stroke="#bfbfbf" points="557,-56.5 557,-75.5 640,-75.5 640,-56.5 557,-56.5"/>
<text text-anchor="middle" x="598.5" y="-63.5" font-family="Helvetica,sans-Serif" font-size="10.00">unordered_map</text>
</g>
<!-- Node2&#45;&gt;Node6 -->
<g id="edge5" class="edge"><title>Node2&#45;&gt;Node6</title>
<path fill="none" stroke="midnightblue" d="M629.529,-224.422C627.194,-204.522 620.765,-153.725 611.5,-112 609.515,-103.058 606.759,-93.2728 604.296,-85.1177"/>
<polygon fill="midnightblue" stroke="midnightblue" points="607.63,-84.0518 601.316,-75.5441 600.947,-86.1325 607.63,-84.0518"/>
</g>
<!-- Node7 -->
<g id="node7" class="node"><title>Node7</title>
<polygon fill="none" stroke="#bfbfbf" points="735,-168.5 735,-187.5 860,-187.5 860,-168.5 735,-168.5"/>
<text text-anchor="middle" x="797.5" y="-175.5" font-family="Helvetica,sans-Serif" font-size="10.00">Framework/InitContext.h</text>
</g>
<!-- Node2&#45;&gt;Node7 -->
<g id="edge6" class="edge"><title>Node2&#45;&gt;Node7</title>
<path fill="none" stroke="midnightblue" d="M656.962,-224.444C685.178,-215.32 730.04,-200.813 761.468,-190.651"/>
<polygon fill="midnightblue" stroke="midnightblue" points="762.724,-193.923 771.162,-187.516 760.57,-187.263 762.724,-193.923"/>
</g>
<!-- Node8 -->
<g id="node8" class="node"><title>Node8</title>
<polygon fill="none" stroke="#bfbfbf" points="121.5,-168.5 121.5,-187.5 281.5,-187.5 281.5,-168.5 121.5,-168.5"/>
<text text-anchor="middle" x="201.5" y="-175.5" font-family="Helvetica,sans-Serif" font-size="10.00">Framework/ProcessingContext.h</text>
</g>
<!-- Node2&#45;&gt;Node8 -->
<g id="edge7" class="edge"><title>Node2&#45;&gt;Node8</title>
<path fill="none" stroke="midnightblue" d="M562.524,-224.444C485.489,-214.747 360.158,-198.971 279.284,-188.791"/>
<polygon fill="midnightblue" stroke="midnightblue" points="279.517,-185.293 269.158,-187.516 278.643,-192.238 279.517,-185.293"/>
</g>
<!-- Node9 -->
<g id="node9" class="node"><title>Node9</title>
<g id="a_node9"><a xlink:href="Activity_8h.html" target="_top" xlink:title="QualityControl/Activity.h">
<polygon fill="none" stroke="black" points="300,-168.5 300,-187.5 423,-187.5 423,-168.5 300,-168.5"/>
<text text-anchor="middle" x="361.5" y="-175.5" font-family="Helvetica,sans-Serif" font-size="10.00">QualityControl/Activity.h</text>
</a>
</g>
</g>
<!-- Node2&#45;&gt;Node9 -->
<g id="edge8" class="edge"><title>Node2&#45;&gt;Node9</title>
<path fill="none" stroke="midnightblue" d="M587.876,-224.444C540.753,-214.984 464.808,-199.738 414.041,-189.547"/>
<polygon fill="midnightblue" stroke="midnightblue" points="414.418,-186.053 403.924,-187.516 413.04,-192.916 414.418,-186.053"/>
</g>
<!-- Node10 -->
<g id="node10" class="node"><title>Node10</title>
<g id="a_node10"><a xlink:href="ObjectsManager_8h.html" target="_top" xlink:title="QualityControl/ObjectsManager.h">
<polygon fill="none" stroke="black" points="441,-168.5 441,-187.5 602,-187.5 602,-168.5 441,-168.5"/>
<text text-anchor="middle" x="521.5" y="-175.5" font-family="Helvetica,sans-Serif" font-size="10.00">QualityControl/ObjectsManager.h</text>
</a>
</g>
</g>
<!-- Node2&#45;&gt;Node10 -->
<g id="edge9" class="edge"><title>Node2&#45;&gt;Node10</title>
<path fill="none" stroke="midnightblue" d="M612.987,-224.324C595.428,-215.625 568.169,-202.12 547.969,-192.113"/>
<polygon fill="midnightblue" stroke="midnightblue" points="549.484,-188.958 538.969,-187.655 546.376,-195.23 549.484,-188.958"/>
</g>
<!-- Node10&#45;&gt;Node4 -->
<g id="edge24" class="edge"><title>Node10&#45;&gt;Node4</title>
<path fill="none" stroke="midnightblue" d="M553.349,-168.444C589.472,-158.739 648.26,-142.945 686.148,-132.766"/>
<polygon fill="midnightblue" stroke="midnightblue" points="687.495,-136.028 696.245,-130.054 685.679,-129.268 687.495,-136.028"/>
</g>
<!-- Node10&#45;&gt;Node5 -->
<g id="edge23" class="edge"><title>Node10&#45;&gt;Node5</title>
<path fill="none" stroke="midnightblue" d="M498.046,-168.408C482.339,-161.28 462.881,-149.458 453.5,-132 449.292,-124.17 451.274,-120.606 453.5,-112 455.814,-103.054 483.838,-54.612 499.342,-28.2002"/>
<polygon fill="midnightblue" stroke="midnightblue" points="502.359,-29.9735 504.416,-19.5803 496.327,-26.4223 502.359,-29.9735"/>
</g>
<!-- Node11 -->
<g id="node11" class="node"><title>Node11</title>
<g id="a_node11"><a xlink:href="MonitorObject_8h.html" target="_top" xlink:title="QualityControl/MonitorObject.h">
<polygon fill="none" stroke="black" points="213,-112.5 213,-131.5 364,-131.5 364,-112.5 213,-112.5"/>
<text text-anchor="middle" x="288.5" y="-119.5" font-family="Helvetica,sans-Serif" font-size="10.00">QualityControl/MonitorObject.h</text>
</a>
</g>
</g>
<!-- Node10&#45;&gt;Node11 -->
<g id="edge10" class="edge"><title>Node10&#45;&gt;Node11</title>
<path fill="none" stroke="midnightblue" d="M484.58,-168.444C444.105,-159.063 379.079,-143.993 335.116,-133.804"/>
<polygon fill="midnightblue" stroke="midnightblue" points="335.779,-130.365 325.247,-131.516 334.198,-137.184 335.779,-130.365"/>
</g>
<!-- Node15 -->
<g id="node15" class="node"><title>Node15</title>
<g id="a_node15"><a xlink:href="Quality_8h.html" target="_top" xlink:title="QualityControl/Quality.h">
<polygon fill="none" stroke="black" points="53,-56.5 53,-75.5 174,-75.5 174,-56.5 53,-56.5"/>
<text text-anchor="middle" x="113.5" y="-63.5" font-family="Helvetica,sans-Serif" font-size="10.00">QualityControl/Quality.h</text>
</a>
</g>
</g>
<!-- Node10&#45;&gt;Node15 -->
<g id="edge19" class="edge"><title>Node10&#45;&gt;Node15</title>
<path fill="none" stroke="midnightblue" d="M448.059,-168.494C361.25,-158.144 225.706,-140.948 203.5,-132 174.924,-120.486 146.946,-98.0093 129.959,-82.7489"/>
<polygon fill="midnightblue" stroke="midnightblue" points="132.273,-80.122 122.549,-75.9167 127.528,-85.2684 132.273,-80.122"/>
</g>
<!-- Node16 -->
<g id="node16" class="node"><title>Node16</title>
<g id="a_node16"><a xlink:href="TaskConfig_8h.html" target="_top" xlink:title="QualityControl/TaskConfig.h">
<polygon fill="none" stroke="black" points="462.5,-112.5 462.5,-131.5 602.5,-131.5 602.5,-112.5 462.5,-112.5"/>
<text text-anchor="middle" x="532.5" y="-119.5" font-family="Helvetica,sans-Serif" font-size="10.00">QualityControl/TaskConfig.h</text>
</a>
</g>
</g>
<!-- Node10&#45;&gt;Node16 -->
<g id="edge20" class="edge"><title>Node10&#45;&gt;Node16</title>
<path fill="none" stroke="midnightblue" d="M523.316,-168.083C524.774,-160.927 526.871,-150.635 528.693,-141.691"/>
<polygon fill="midnightblue" stroke="midnightblue" points="532.151,-142.248 530.717,-131.751 525.292,-140.851 532.151,-142.248"/>
</g>
<!-- Node11&#45;&gt;Node3 -->
<g id="edge12" class="edge"><title>Node11&#45;&gt;Node3</title>
<path fill="none" stroke="midnightblue" d="M227.778,-112.47C180.194,-105.191 112.234,-93.4858 44.9332,-76.0756"/>
<polygon fill="midnightblue" stroke="midnightblue" points="45.5724,-72.6247 35.0109,-73.4653 43.7914,-79.3944 45.5724,-72.6247"/>
</g>
<!-- Node11&#45;&gt;Node5 -->
<g id="edge11" class="edge"><title>Node11&#45;&gt;Node5</title>
<path fill="none" stroke="midnightblue" d="M300.678,-112.426C319.817,-99.1925 358.382,-73.4946 393.5,-56 421.753,-41.9252 455.547,-29.2566 479.351,-20.9746"/>
<polygon fill="midnightblue" stroke="midnightblue" points="480.571,-24.2563 488.895,-17.7025 478.301,-17.6346 480.571,-24.2563"/>
</g>
<!-- Node12 -->
<g id="node12" class="node"><title>Node12</title>
<polygon fill="none" stroke="#bfbfbf" points="129.5,-0.5 129.5,-19.5 185.5,-19.5 185.5,-0.5 129.5,-0.5"/>
<text text-anchor="middle" x="157.5" y="-7.5" font-family="Helvetica,sans-Serif" font-size="10.00">Rtypes.h</text>
</g>
<!-- Node11&#45;&gt;Node12 -->
<g id="edge13" class="edge"><title>Node11&#45;&gt;Node12</title>
<path fill="none" stroke="midnightblue" d="M274.054,-112.478C260.07,-103.961 238.542,-90.1315 221.5,-76 203.126,-60.7644 184.204,-40.9382 171.747,-27.2078"/>
<polygon fill="midnightblue" stroke="midnightblue" points="174.165,-24.6615 164.89,-19.5419 168.948,-29.3286 174.165,-24.6615"/>
</g>
<!-- Node13 -->
<g id="node13" class="node"><title>Node13</title>
<polygon fill="none" stroke="#bfbfbf" points="403,-56.5 403,-75.5 462,-75.5 462,-56.5 403,-56.5"/>
<text text-anchor="middle" x="432.5" y="-63.5" font-family="Helvetica,sans-Serif" font-size="10.00">TObject.h</text>
</g>
<!-- Node11&#45;&gt;Node13 -->
<g id="edge14" class="edge"><title>Node11&#45;&gt;Node13</title>
<path fill="none" stroke="midnightblue" d="M311.317,-112.444C335.332,-103.438 373.329,-89.1891 400.369,-79.049"/>
<polygon fill="midnightblue" stroke="midnightblue" points="401.655,-82.3049 409.79,-75.5164 399.197,-75.7506 401.655,-82.3049"/>
</g>
<!-- Node14 -->
<g id="node14" class="node"><title>Node14</title>
<polygon fill="none" stroke="#bfbfbf" points="230.5,-56.5 230.5,-75.5 346.5,-75.5 346.5,-56.5 230.5,-56.5"/>
<text text-anchor="middle" x="288.5" y="-63.5" font-family="Helvetica,sans-Serif" font-size="10.00">Common/Exceptions.h</text>
</g>
<!-- Node11&#45;&gt;Node14 -->
<g id="edge15" class="edge"><title>Node11&#45;&gt;Node14</title>
<path fill="none" stroke="midnightblue" d="M288.5,-112.083C288.5,-105.006 288.5,-94.8611 288.5,-85.9865"/>
<polygon fill="midnightblue" stroke="midnightblue" points="292,-85.751 288.5,-75.7511 285,-85.7511 292,-85.751"/>
</g>
<!-- Node11&#45;&gt;Node15 -->
<g id="edge16" class="edge"><title>Node11&#45;&gt;Node15</title>
<path fill="none" stroke="midnightblue" d="M260.771,-112.444C231.074,-103.28 183.784,-88.6876 150.831,-78.5192"/>
<polygon fill="midnightblue" stroke="midnightblue" points="151.687,-75.1206 141.1,-75.5164 149.623,-81.8094 151.687,-75.1206"/>
</g>
<!-- Node15&#45;&gt;Node5 -->
<g id="edge18" class="edge"><title>Node15&#45;&gt;Node5</title>
<path fill="none" stroke="midnightblue" d="M174.075,-56.7398C259.864,-45.0413 413.572,-24.0811 478.84,-15.1809"/>
<polygon fill="midnightblue" stroke="midnightblue" points="479.456,-18.6294 488.891,-13.8103 478.51,-11.6936 479.456,-18.6294"/>
</g>
<!-- Node15&#45;&gt;Node12 -->
<g id="edge17" class="edge"><title>Node15&#45;&gt;Node12</title>
<path fill="none" stroke="midnightblue" d="M120.766,-56.083C127.045,-48.3768 136.288,-37.0333 143.931,-27.6531"/>
<polygon fill="midnightblue" stroke="midnightblue" points="146.766,-29.7143 150.369,-19.7511 141.339,-25.2926 146.766,-29.7143"/>
</g>
<!-- Node16&#45;&gt;Node5 -->
<g id="edge21" class="edge"><title>Node16&#45;&gt;Node5</title>
<path fill="none" stroke="midnightblue" d="M530.695,-112.368C526.984,-94.617 518.421,-53.6664 513.389,-29.5974"/>
<polygon fill="midnightblue" stroke="midnightblue" points="516.769,-28.6634 511.296,-19.5914 509.917,-30.0961 516.769,-28.6634"/>
</g>
<!-- Node16&#45;&gt;Node6 -->
<g id="edge22" class="edge"><title>Node16&#45;&gt;Node6</title>
<path fill="none" stroke="midnightblue" d="M543.104,-112.324C552.956,-104.263 567.851,-92.0765 579.715,-82.3695"/>
<polygon fill="midnightblue" stroke="midnightblue" points="582.18,-84.8752 587.703,-75.8339 577.747,-79.4575 582.18,-84.8752"/>
</g>
</g>
</svg>
        <g id="navigator" transform="translate(0 0)" fill="#404254">
                <rect fill="#f2f5e9" fill-opacity="0.5" stroke="#606060" stroke-width=".5" x="0" y="0" width="60" height="60"/>
                <use id="zoomplus" xlink:href="#zoomPlus" x="17" y="9" onmousedown="handleZoom(evt,'in')"/>
                <use id="zoomminus" xlink:href="#zoomMin" x="42" y="9" onmousedown="handleZoom(evt,'out')"/>
                <use id="reset" xlink:href="#resetDef" x="30" y="36" onmousedown="handleReset()"/>
                <g id="arrowUp" xlink:href="#dirArrow" transform="translate(30 24)" onmousedown="handlePan(0,-1)">
                  <use xlink:href="#rim" fill="#404040">
                        <set attributeName="fill" to="#808080" begin="arrowUp.mouseover" end="arrowUp.mouseout"/>
                  </use>
                  <path fill="none" stroke="white" stroke-width="1.5" d="M0,-3.0v7 M-2.5,-0.5L0,-3.0L2.5,-0.5"/>
                </g>
                <g id="arrowRight" xlink:href="#dirArrow" transform="rotate(90) translate(36 -43)" onmousedown="handlePan(1,0)">
                  <use xlink:href="#rim" fill="#404040">
                        <set attributeName="fill" to="#808080" begin="arrowRight.mouseover" end="arrowRight.mouseout"/>
                  </use>
                  <path fill="none" stroke="white" stroke-width="1.5" d="M0,-3.0v7 M-2.5,-0.5L0,-3.0L2.5,-0.5"/>
                </g>
                <g id="arrowDown" xlink:href="#dirArrow" transform="rotate(180) translate(-30 -48)" onmousedown="handlePan(0,1)">
                  <use xlink:href="#rim" fill="#404040">
                        <set attributeName="fill" to="#808080" begin="arrowDown.mouseover" end="arrowDown.mouseout"/>
                  </use>
                  <path fill="none" stroke="white" stroke-width="1.5" d="M0,-3.0v7 M-2.5,-0.5L0,-3.0L2.5,-0.5"/>
                </g>
                <g id="arrowLeft" xlink:href="#dirArrow" transform="rotate(270) translate(-36 17)" onmousedown="handlePan(-1,0)">
                  <use xlink:href="#rim" fill="#404040">
                        <set attributeName="fill" to="#808080" begin="arrowLeft.mouseover" end="arrowLeft.mouseout"/>
                  </use>
                  <path fill="none" stroke="white" stroke-width="1.5" d="M0,-3.0v7 M-2.5,-0.5L0,-3.0L2.5,-0.5"/>
                </g>
        </g>
        <svg viewBox="0 0 15 15" width="100%" height="30px" preserveAspectRatio="xMaxYMin meet">
         <g id="arrow_out" transform="scale(0.3 0.3)">
          <a xlink:href="BenchmarkTask_8h__incl_org.svg" target="_base">
           <rect id="button" ry="5" rx="5" y="6" x="6" height="38" width="38"
                fill="#f2f5e9" fill-opacity="0.5" stroke="#606060" stroke-width="1.0"/>
           <path id="arrow"
             d="M 11.500037,31.436501 C 11.940474,20.09759 22.043105,11.32322 32.158766,21.979434 L 37.068811,17.246167 C 37.068811,17.246167 37.088388,32 37.088388,32 L 22.160133,31.978069 C 22.160133,31.978069 26.997745,27.140456 26.997745,27.140456 C 18.528582,18.264221 13.291696,25.230495 11.500037,31.436501 z"
             style="fill:#404040;"/>
          </a>
         </g>
        </svg>
</svg>
