<?xml version="1.0" encoding="UTF-8" standalone="no"?>
<!DOCTYPE svg PUBLIC "-//W3C//DTD SVG 1.1//EN"
 "http://www.w3.org/Graphics/SVG/1.1/DTD/svg11.dtd">
<!-- Generated by graphviz version 2.38.0 (20140413.2041)
 -->
<!-- Title: Modules/Example/src/BenchmarkTask.cxx Pages: 1 -->
<svg width="1247pt" height="386pt"
 viewBox="0.00 0.00 1246.50 386.00" xmlns="http://www.w3.org/2000/svg" xmlns:xlink="http://www.w3.org/1999/xlink">
<g id="graph0" class="graph" transform="scale(1 1) rotate(0) translate(4 382)">
<title>Modules/Example/src/BenchmarkTask.cxx</title>
<!-- Node1 -->
<g id="node1" class="node"><title>Node1</title>
<polygon fill="#bfbfbf" stroke="black" points="488.5,-347.5 488.5,-377.5 599.5,-377.5 599.5,-347.5 488.5,-347.5"/>
<text text-anchor="start" x="496.5" y="-365.5" font-family="Helvetica,sans-Serif" font-size="10.00">Modules/Example/src</text>
<text text-anchor="middle" x="544" y="-354.5" font-family="Helvetica,sans-Serif" font-size="10.00">/BenchmarkTask.cxx</text>
</g>
<!-- Node2 -->
<g id="node2" class="node"><title>Node2</title>
<g id="a_node2"><a xlink:href="BenchmarkTask_8h.html" target="_top" xlink:title="Example/BenchmarkTask.h">
<polygon fill="none" stroke="black" points="31.5,-286 31.5,-305 168.5,-305 168.5,-286 31.5,-286"/>
<text text-anchor="middle" x="100" y="-293" font-family="Helvetica,sans-Serif" font-size="10.00">Example/BenchmarkTask.h</text>
</a>
</g>
</g>
<!-- Node1&#45;&gt;Node2 -->
<g id="edge1" class="edge"><title>Node1&#45;&gt;Node2</title>
<path fill="none" stroke="midnightblue" d="M488.217,-353.334C407.003,-341.444 256.347,-319.389 168.503,-306.529"/>
<polygon fill="midnightblue" stroke="midnightblue" points="168.774,-303.031 158.373,-305.046 167.76,-309.957 168.774,-303.031"/>
</g>
<!-- Node19 -->
<g id="node19" class="node"><title>Node19</title>
<polygon fill="none" stroke="#bfbfbf" points="254.5,-280.5 254.5,-310.5 389.5,-310.5 389.5,-280.5 254.5,-280.5"/>
<text text-anchor="start" x="262.5" y="-298.5" font-family="Helvetica,sans-Serif" font-size="10.00">Configuration/Configuration</text>
<text text-anchor="middle" x="322" y="-287.5" font-family="Helvetica,sans-Serif" font-size="10.00">Factory.h</text>
</g>
<!-- Node1&#45;&gt;Node19 -->
<g id="edge29" class="edge"><title>Node1&#45;&gt;Node19</title>
<path fill="none" stroke="midnightblue" d="M496.103,-347.476C462.082,-337.515 416.218,-324.086 380.104,-313.512"/>
<polygon fill="midnightblue" stroke="midnightblue" points="380.775,-310.062 370.194,-310.611 378.808,-316.78 380.775,-310.062"/>
</g>
<!-- Node20 -->
<g id="node20" class="node"><title>Node20</title>
<g id="a_node20"><a xlink:href="QcInfoLogger_8h.html" target="_top" xlink:title="QualityControl/QcInfoLogger.h">
<polygon fill="none" stroke="black" points="407.5,-286 407.5,-305 556.5,-305 556.5,-286 407.5,-286"/>
<text text-anchor="middle" x="482" y="-293" font-family="Helvetica,sans-Serif" font-size="10.00">QualityControl/QcInfoLogger.h</text>
</a>
</g>
</g>
<!-- Node1&#45;&gt;Node20 -->
<g id="edge30" class="edge"><title>Node1&#45;&gt;Node20</title>
<path fill="none" stroke="midnightblue" d="M530.547,-347.396C520.784,-337.161 507.559,-323.296 497.378,-312.622"/>
<polygon fill="midnightblue" stroke="midnightblue" points="499.728,-310.015 490.293,-305.195 494.663,-314.846 499.728,-310.015"/>
</g>
<!-- Node22 -->
<g id="node22" class="node"><title>Node22</title>
<polygon fill="none" stroke="#bfbfbf" points="574.5,-286 574.5,-305 639.5,-305 639.5,-286 574.5,-286"/>
<text text-anchor="middle" x="607" y="-293" font-family="Helvetica,sans-Serif" font-size="10.00">TCanvas.h</text>
</g>
<!-- Node1&#45;&gt;Node22 -->
<g id="edge33" class="edge"><title>Node1&#45;&gt;Node22</title>
<path fill="none" stroke="midnightblue" d="M557.67,-347.396C567.59,-337.161 581.029,-323.296 591.374,-312.622"/>
<polygon fill="midnightblue" stroke="midnightblue" points="594.126,-314.811 598.573,-305.195 589.1,-309.939 594.126,-314.811"/>
</g>
<!-- Node23 -->
<g id="node23" class="node"><title>Node23</title>
<polygon fill="none" stroke="#bfbfbf" points="658,-286 658,-305 702,-305 702,-286 658,-286"/>
<text text-anchor="middle" x="680" y="-293" font-family="Helvetica,sans-Serif" font-size="10.00">TH1.h</text>
</g>
<!-- Node1&#45;&gt;Node23 -->
<g id="edge34" class="edge"><title>Node1&#45;&gt;Node23</title>
<path fill="none" stroke="midnightblue" d="M573.51,-347.396C597.162,-336.092 630.076,-320.361 653.03,-309.39"/>
<polygon fill="midnightblue" stroke="midnightblue" points="654.688,-312.477 662.201,-305.007 651.669,-306.161 654.688,-312.477"/>
</g>
<!-- Node24 -->
<g id="node24" class="node"><title>Node24</title>
<polygon fill="none" stroke="#bfbfbf" points="720,-286 720,-305 764,-305 764,-286 720,-286"/>
<text text-anchor="middle" x="742" y="-293" font-family="Helvetica,sans-Serif" font-size="10.00">thread</text>
</g>
<!-- Node1&#45;&gt;Node24 -->
<g id="edge35" class="edge"><title>Node1&#45;&gt;Node24</title>
<path fill="none" stroke="midnightblue" d="M597.305,-347.494C630.427,-338.273 673.66,-325.293 711,-311 712.422,-310.456 713.87,-309.875 715.324,-309.271"/>
<polygon fill="midnightblue" stroke="midnightblue" points="717.08,-312.321 724.81,-305.076 714.249,-305.919 717.08,-312.321"/>
</g>
<!-- Node3 -->
<g id="node3" class="node"><title>Node3</title>
<g id="a_node3"><a xlink:href="TaskInterface_8h.html" target="_top" xlink:title="QualityControl/TaskInterface.h">
<polygon fill="none" stroke="black" points="407,-224.5 407,-243.5 557,-243.5 557,-224.5 407,-224.5"/>
<text text-anchor="middle" x="482" y="-231.5" font-family="Helvetica,sans-Serif" font-size="10.00">QualityControl/TaskInterface.h</text>
</a>
</g>
</g>
<!-- Node2&#45;&gt;Node3 -->
<g id="edge2" class="edge"><title>Node2&#45;&gt;Node3</title>
<path fill="none" stroke="midnightblue" d="M154.731,-285.975C224.087,-275.172 343.463,-256.578 417.268,-245.083"/>
<polygon fill="midnightblue" stroke="midnightblue" points="418.028,-248.507 427.37,-243.509 416.951,-241.59 418.028,-248.507"/>
</g>
<!-- Node5 -->
<g id="node5" class="node"><title>Node5</title>
<polygon fill="none" stroke="#bfbfbf" points="591,-112.5 591,-131.5 643,-131.5 643,-112.5 591,-112.5"/>
<text text-anchor="middle" x="617" y="-119.5" font-family="Helvetica,sans-Serif" font-size="10.00">memory</text>
</g>
<!-- Node2&#45;&gt;Node5 -->
<g id="edge27" class="edge"><title>Node2&#45;&gt;Node5</title>
<path fill="none" stroke="midnightblue" d="M100.967,-285.907C104.106,-262.465 116.294,-197.213 157,-168 191.158,-143.486 477.698,-128.95 580.485,-124.484"/>
<polygon fill="midnightblue" stroke="midnightblue" points="580.846,-127.972 590.687,-124.048 580.547,-120.978 580.846,-127.972"/>
</g>
<!-- Node6 -->
<g id="node6" class="node"><title>Node6</title>
<polygon fill="none" stroke="#bfbfbf" points="707.5,-0.5 707.5,-19.5 748.5,-19.5 748.5,-0.5 707.5,-0.5"/>
<text text-anchor="middle" x="728" y="-7.5" font-family="Helvetica,sans-Serif" font-size="10.00">string</text>
</g>
<!-- Node2&#45;&gt;Node6 -->
<g id="edge28" class="edge"><title>Node2&#45;&gt;Node6</title>
<path fill="none" stroke="midnightblue" d="M77.5643,-285.883C59.2481,-277.74 34.0206,-263.806 19,-244 0.81289,-220.019 0,-209.098 0,-179 0,-179 0,-179 0,-121 0,-49.3616 558.266,-18.8372 697.052,-12.3556"/>
<polygon fill="midnightblue" stroke="midnightblue" points="697.556,-15.8363 707.385,-11.8816 697.235,-8.84363 697.556,-15.8363"/>
</g>
<!-- Node18 -->
<g id="node18" class="node"><title>Node18</title>
<polygon fill="none" stroke="#bfbfbf" points="28,-224.5 28,-243.5 72,-243.5 72,-224.5 28,-224.5"/>
<text text-anchor="middle" x="50" y="-231.5" font-family="Helvetica,sans-Serif" font-size="10.00">vector</text>
</g>
<!-- Node2&#45;&gt;Node18 -->
<g id="edge26" class="edge"><title>Node2&#45;&gt;Node18</title>
<path fill="none" stroke="midnightblue" d="M92.8362,-285.975C85.2619,-276.962 73.1299,-262.525 63.7074,-251.312"/>
<polygon fill="midnightblue" stroke="midnightblue" points="66.2635,-248.913 57.1505,-243.509 60.9044,-253.417 66.2635,-248.913"/>
</g>
<!-- Node4 -->
<g id="node4" class="node"><title>Node4</title>
<polygon fill="none" stroke="#bfbfbf" points="1203.5,-56.5 1203.5,-75.5 1238.5,-75.5 1238.5,-56.5 1203.5,-56.5"/>
<text text-anchor="middle" x="1221" y="-63.5" font-family="Helvetica,sans-Serif" font-size="10.00">map</text>
</g>
<!-- Node3&#45;&gt;Node4 -->
<g id="edge3" class="edge"><title>Node3&#45;&gt;Node4</title>
<path fill="none" stroke="midnightblue" d="M557.343,-224.84C673.005,-212.291 881.916,-189.535 890,-188 983.213,-170.301 1007.63,-166.528 1096,-132 1133.01,-117.541 1173.38,-95.2606 1197.94,-80.9064"/>
<polygon fill="midnightblue" stroke="midnightblue" points="1200.02,-83.7464 1206.85,-75.6459 1196.46,-77.7199 1200.02,-83.7464"/>
</g>
<!-- Node3&#45;&gt;Node5 -->
<g id="edge4" class="edge"><title>Node3&#45;&gt;Node5</title>
<path fill="none" stroke="midnightblue" d="M557.152,-225.861C581.146,-219.609 605.273,-208.293 620,-188 629.729,-174.594 627.329,-155.222 623.503,-141.115"/>
<polygon fill="midnightblue" stroke="midnightblue" points="626.827,-140.02 620.476,-131.541 620.153,-142.13 626.827,-140.02"/>
</g>
<!-- Node3&#45;&gt;Node6 -->
<g id="edge5" class="edge"><title>Node3&#45;&gt;Node6</title>
<path fill="none" stroke="midnightblue" d="M406.999,-233.532C321.295,-232.35 188.755,-224.455 157,-188 151.162,-181.297 151.612,-175.07 157,-168 224.701,-79.172 588.766,-28.0356 697.388,-14.5945"/>
<polygon fill="midnightblue" stroke="midnightblue" points="697.867,-18.0622 707.369,-13.3771 697.019,-11.1137 697.867,-18.0622"/>
</g>
<!-- Node7 -->
<g id="node7" class="node"><title>Node7</title>
<polygon fill="none" stroke="#bfbfbf" points="597.5,-56.5 597.5,-75.5 680.5,-75.5 680.5,-56.5 597.5,-56.5"/>
<text text-anchor="middle" x="639" y="-63.5" font-family="Helvetica,sans-Serif" font-size="10.00">unordered_map</text>
</g>
<!-- Node3&#45;&gt;Node7 -->
<g id="edge6" class="edge"><title>Node3&#45;&gt;Node7</title>
<path fill="none" stroke="midnightblue" d="M530.561,-224.466C570.575,-216.476 623.077,-203.468 638,-188 664.28,-160.76 654.063,-111.926 645.705,-85.3879"/>
<polygon fill="midnightblue" stroke="midnightblue" points="648.982,-84.1506 642.457,-75.8032 642.352,-86.3975 648.982,-84.1506"/>
</g>
<!-- Node8 -->
<g id="node8" class="node"><title>Node8</title>
<polygon fill="none" stroke="#bfbfbf" points="166.5,-168.5 166.5,-187.5 291.5,-187.5 291.5,-168.5 166.5,-168.5"/>
<text text-anchor="middle" x="229" y="-175.5" font-family="Helvetica,sans-Serif" font-size="10.00">Framework/InitContext.h</text>
</g>
<!-- Node3&#45;&gt;Node8 -->
<g id="edge7" class="edge"><title>Node3&#45;&gt;Node8</title>
<path fill="none" stroke="midnightblue" d="M441.911,-224.444C397.684,-215.004 326.461,-199.802 278.715,-189.611"/>
<polygon fill="midnightblue" stroke="midnightblue" points="279.411,-186.181 268.901,-187.516 277.95,-193.027 279.411,-186.181"/>
</g>
<!-- Node9 -->
<g id="node9" class="node"><title>Node9</title>
<polygon fill="none" stroke="#bfbfbf" points="310,-168.5 310,-187.5 470,-187.5 470,-168.5 310,-168.5"/>
<text text-anchor="middle" x="390" y="-175.5" font-family="Helvetica,sans-Serif" font-size="10.00">Framework/ProcessingContext.h</text>
</g>
<!-- Node3&#45;&gt;Node9 -->
<g id="edge8" class="edge"><title>Node3&#45;&gt;Node9</title>
<path fill="none" stroke="midnightblue" d="M467.219,-224.324C452.733,-215.822 430.427,-202.729 413.507,-192.797"/>
<polygon fill="midnightblue" stroke="midnightblue" points="415.141,-189.698 404.745,-187.655 411.597,-195.735 415.141,-189.698"/>
</g>
<!-- Node10 -->
<g id="node10" class="node"><title>Node10</title>
<g id="a_node10"><a xlink:href="Activity_8h.html" target="_top" xlink:title="QualityControl/Activity.h">
<polygon fill="none" stroke="black" points="488.5,-168.5 488.5,-187.5 611.5,-187.5 611.5,-168.5 488.5,-168.5"/>
<text text-anchor="middle" x="550" y="-175.5" font-family="Helvetica,sans-Serif" font-size="10.00">QualityControl/Activity.h</text>
</a>
</g>
</g>
<!-- Node3&#45;&gt;Node10 -->
<g id="edge9" class="edge"><title>Node3&#45;&gt;Node10</title>
<path fill="none" stroke="midnightblue" d="M492.925,-224.324C503.175,-216.185 518.721,-203.839 531.001,-194.087"/>
<polygon fill="midnightblue" stroke="midnightblue" points="533.221,-196.794 538.876,-187.834 528.868,-191.312 533.221,-196.794"/>
</g>
<!-- Node11 -->
<g id="node11" class="node"><title>Node11</title>
<g id="a_node11"><a xlink:href="ObjectsManager_8h.html" target="_top" xlink:title="QualityControl/ObjectsManager.h">
<polygon fill="none" stroke="black" points="719.5,-168.5 719.5,-187.5 880.5,-187.5 880.5,-168.5 719.5,-168.5"/>
<text text-anchor="middle" x="800" y="-175.5" font-family="Helvetica,sans-Serif" font-size="10.00">QualityControl/ObjectsManager.h</text>
</a>
</g>
</g>
<!-- Node3&#45;&gt;Node11 -->
<g id="edge10" class="edge"><title>Node3&#45;&gt;Node11</title>
<path fill="none" stroke="midnightblue" d="M532.388,-224.444C588.676,-214.885 679.752,-199.419 739.758,-189.23"/>
<polygon fill="midnightblue" stroke="midnightblue" points="740.575,-192.641 749.848,-187.516 739.403,-185.74 740.575,-192.641"/>
</g>
<!-- Node11&#45;&gt;Node5 -->
<g id="edge25" class="edge"><title>Node11&#45;&gt;Node5</title>
<path fill="none" stroke="midnightblue" d="M771.003,-168.444C738.99,-158.997 687.424,-143.781 652.887,-133.59"/>
<polygon fill="midnightblue" stroke="midnightblue" points="653.775,-130.202 643.193,-130.729 651.793,-136.916 653.775,-130.202"/>
</g>
<!-- Node11&#45;&gt;Node6 -->
<g id="edge24" class="edge"><title>Node11&#45;&gt;Node6</title>
<path fill="none" stroke="midnightblue" d="M774.496,-168.472C758.013,-161.478 737.861,-149.792 728,-132 710.073,-99.6553 716.801,-54.5777 722.753,-29.5734"/>
<polygon fill="midnightblue" stroke="midnightblue" points="726.213,-30.1743 725.342,-19.6154 719.438,-28.4131 726.213,-30.1743"/>
</g>
<!-- Node12 -->
<g id="node12" class="node"><title>Node12</title>
<g id="a_node12"><a xlink:href="MonitorObject_8h.html" target="_top" xlink:title="QualityControl/MonitorObject.h">
<polygon fill="none" stroke="black" points="935.5,-112.5 935.5,-131.5 1086.5,-131.5 1086.5,-112.5 935.5,-112.5"/>
<text text-anchor="middle" x="1011" y="-119.5" font-family="Helvetica,sans-Serif" font-size="10.00">QualityControl/MonitorObject.h</text>
</a>
</g>
</g>
<!-- Node11&#45;&gt;Node12 -->
<g id="edge11" class="edge"><title>Node11&#45;&gt;Node12</title>
<path fill="none" stroke="midnightblue" d="M833.434,-168.444C869.856,-159.122 928.23,-144.183 968.029,-133.997"/>
<polygon fill="midnightblue" stroke="midnightblue" points="968.903,-137.387 977.723,-131.516 967.167,-130.605 968.903,-137.387"/>
</g>
<!-- Node16 -->
<g id="node16" class="node"><title>Node16</title>
<g id="a_node16"><a xlink:href="Quality_8h.html" target="_top" xlink:title="QualityControl/Quality.h">
<polygon fill="none" stroke="black" points="775.5,-56.5 775.5,-75.5 896.5,-75.5 896.5,-56.5 775.5,-56.5"/>
<text text-anchor="middle" x="836" y="-63.5" font-family="Helvetica,sans-Serif" font-size="10.00">QualityControl/Quality.h</text>
</a>
</g>
</g>
<!-- Node11&#45;&gt;Node16 -->
<g id="edge20" class="edge"><title>Node11&#45;&gt;Node16</title>
<path fill="none" stroke="midnightblue" d="M834.184,-168.493C852.993,-161.877 874.743,-150.596 886,-132 897.215,-113.474 877.45,-94.0155 859.561,-81.2731"/>
<polygon fill="midnightblue" stroke="midnightblue" points="861.331,-78.2458 851.074,-75.5908 857.436,-84.0625 861.331,-78.2458"/>
</g>
<!-- Node17 -->
<g id="node17" class="node"><title>Node17</title>
<g id="a_node17"><a xlink:href="TaskConfig_8h.html" target="_top" xlink:title="QualityControl/TaskConfig.h">
<polygon fill="none" stroke="black" points="737,-112.5 737,-131.5 877,-131.5 877,-112.5 737,-112.5"/>
<text text-anchor="middle" x="807" y="-119.5" font-family="Helvetica,sans-Serif" font-size="10.00">QualityControl/TaskConfig.h</text>
</a>
</g>
</g>
<!-- Node11&#45;&gt;Node17 -->
<g id="edge21" class="edge"><title>Node11&#45;&gt;Node17</title>
<path fill="none" stroke="midnightblue" d="M801.156,-168.083C802.084,-160.927 803.418,-150.635 804.577,-141.691"/>
<polygon fill="midnightblue" stroke="midnightblue" points="808.051,-142.118 805.866,-131.751 801.109,-141.218 808.051,-142.118"/>
</g>
<!-- Node12&#45;&gt;Node4 -->
<g id="edge13" class="edge"><title>Node12&#45;&gt;Node4</title>
<path fill="none" stroke="midnightblue" d="M1045.86,-112.477C1081.8,-103.623 1139.42,-89.2374 1189,-76 1190.46,-75.6092 1191.96,-75.204 1193.48,-74.7913"/>
<polygon fill="midnightblue" stroke="midnightblue" points="1194.72,-78.0798 1203.42,-72.0355 1192.85,-71.3342 1194.72,-78.0798"/>
</g>
<!-- Node12&#45;&gt;Node6 -->
<g id="edge12" class="edge"><title>Node12&#45;&gt;Node6</title>
<path fill="none" stroke="midnightblue" d="M998.147,-112.35C974.537,-96.5791 924.949,-64.0332 906,-56 856.453,-34.9953 794.838,-22.1234 758.623,-15.793"/>
<polygon fill="midnightblue" stroke="midnightblue" points="759.122,-12.3276 748.677,-14.108 757.952,-19.2292 759.122,-12.3276"/>
</g>
<!-- Node13 -->
<g id="node13" class="node"><title>Node13</title>
<polygon fill="none" stroke="#bfbfbf" points="977,-0.5 977,-19.5 1033,-19.5 1033,-0.5 977,-0.5"/>
<text text-anchor="middle" x="1005" y="-7.5" font-family="Helvetica,sans-Serif" font-size="10.00">Rtypes.h</text>
</g>
<!-- Node12&#45;&gt;Node13 -->
<g id="edge14" class="edge"><title>Node12&#45;&gt;Node13</title>
<path fill="none" stroke="midnightblue" d="M1085.58,-112.495C1132.24,-103.971 1179.41,-87.4076 1156,-56 1130.18,-21.3675 1078.76,-12.3383 1043.15,-10.5035"/>
<polygon fill="midnightblue" stroke="midnightblue" points="1043.22,-7.00399 1033.1,-10.1528 1042.97,-13.9997 1043.22,-7.00399"/>
</g>
<!-- Node14 -->
<g id="node14" class="node"><title>Node14</title>
<polygon fill="none" stroke="#bfbfbf" points="1087.5,-56.5 1087.5,-75.5 1146.5,-75.5 1146.5,-56.5 1087.5,-56.5"/>
<text text-anchor="middle" x="1117" y="-63.5" font-family="Helvetica,sans-Serif" font-size="10.00">TObject.h</text>
</g>
<!-- Node12&#45;&gt;Node14 -->
<g id="edge15" class="edge"><title>Node12&#45;&gt;Node14</title>
<path fill="none" stroke="midnightblue" d="M1028.03,-112.324C1045.03,-103.664 1071.38,-90.2424 1090.99,-80.249"/>
<polygon fill="midnightblue" stroke="midnightblue" points="1092.69,-83.3125 1100.01,-75.6545 1089.51,-77.0752 1092.69,-83.3125"/>
</g>
<!-- Node15 -->
<g id="node15" class="node"><title>Node15</title>
<polygon fill="none" stroke="#bfbfbf" points="953,-56.5 953,-75.5 1069,-75.5 1069,-56.5 953,-56.5"/>
<text text-anchor="middle" x="1011" y="-63.5" font-family="Helvetica,sans-Serif" font-size="10.00">Common/Exceptions.h</text>
</g>
<!-- Node12&#45;&gt;Node15 -->
<g id="edge16" class="edge"><title>Node12&#45;&gt;Node15</title>
<path fill="none" stroke="midnightblue" d="M1011,-112.083C1011,-105.006 1011,-94.8611 1011,-85.9865"/>
<polygon fill="midnightblue" stroke="midnightblue" points="1014.5,-85.751 1011,-75.7511 1007.5,-85.7511 1014.5,-85.751"/>
</g>
<!-- Node12&#45;&gt;Node16 -->
<g id="edge17" class="edge"><title>Node12&#45;&gt;Node16</title>
<path fill="none" stroke="midnightblue" d="M983.271,-112.444C953.574,-103.28 906.284,-88.6876 873.331,-78.5192"/>
<polygon fill="midnightblue" stroke="midnightblue" points="874.187,-75.1206 863.6,-75.5164 872.123,-81.8094 874.187,-75.1206"/>
</g>
<!-- Node16&#45;&gt;Node6 -->
<g id="edge19" class="edge"><title>Node16&#45;&gt;Node6</title>
<path fill="none" stroke="midnightblue" d="M818.648,-56.324C801.328,-47.6641 774.485,-34.2424 754.498,-24.249"/>
<polygon fill="midnightblue" stroke="midnightblue" points="755.819,-20.9962 745.309,-19.6545 752.688,-27.2572 755.819,-20.9962"/>
</g>
<!-- Node16&#45;&gt;Node13 -->
<g id="edge18" class="edge"><title>Node16&#45;&gt;Node13</title>
<path fill="none" stroke="midnightblue" d="M862.779,-56.4435C891.333,-47.3196 936.733,-32.8133 968.537,-22.6509"/>
<polygon fill="midnightblue" stroke="midnightblue" points="969.886,-25.8941 978.347,-19.5164 967.756,-19.2262 969.886,-25.8941"/>
</g>
<!-- Node17&#45;&gt;Node6 -->
<g id="edge22" class="edge"><title>Node17&#45;&gt;Node6</title>
<path fill="none" stroke="midnightblue" d="M798.521,-112.448C790.051,-103.687 776.901,-89.4789 767,-76 755.825,-60.7866 744.929,-42.2154 737.508,-28.8252"/>
<polygon fill="midnightblue" stroke="midnightblue" points="740.417,-26.8482 732.563,-19.737 734.268,-30.1937 740.417,-26.8482"/>
</g>
<!-- Node17&#45;&gt;Node7 -->
<g id="edge23" class="edge"><title>Node17&#45;&gt;Node7</title>
<path fill="none" stroke="midnightblue" d="M780.38,-112.444C751.994,-103.32 706.863,-88.8133 675.247,-78.6509"/>
<polygon fill="midnightblue" stroke="midnightblue" points="676.087,-75.2445 665.496,-75.5164 673.945,-81.9087 676.087,-75.2445"/>
</g>
<!-- Node20&#45;&gt;Node3 -->
<g id="edge32" class="edge"><title>Node20&#45;&gt;Node3</title>
<path fill="none" stroke="midnightblue" d="M482,-285.975C482,-277.58 482,-264.481 482,-253.663"/>
<polygon fill="midnightblue" stroke="midnightblue" points="485.5,-253.509 482,-243.509 478.5,-253.509 485.5,-253.509"/>
</g>
<!-- Node21 -->
<g id="node21" class="node"><title>Node21</title>
<polygon fill="none" stroke="#bfbfbf" points="575,-224.5 575,-243.5 705,-243.5 705,-224.5 575,-224.5"/>
<text text-anchor="middle" x="640" y="-231.5" font-family="Helvetica,sans-Serif" font-size="10.00">InfoLogger/InfoLogger.hxx</text>
</g>
<!-- Node20&#45;&gt;Node21 -->
<g id="edge31" class="edge"><title>Node20&#45;&gt;Node21</title>
<path fill="none" stroke="midnightblue" d="M504.638,-285.975C531.74,-275.769 577.31,-258.608 608.004,-247.049"/>
<polygon fill="midnightblue" stroke="midnightblue" points="609.28,-250.309 617.404,-243.509 606.813,-243.758 609.28,-250.309"/>
</g>
</g>
</svg>
