<?xml version="1.0" encoding="UTF-8" standalone="no"?>
<!DOCTYPE svg PUBLIC "-//W3C//DTD SVG 1.1//EN"
 "http://www.w3.org/Graphics/SVG/1.1/DTD/svg11.dtd">
<!-- Generated by graphviz version 2.38.0 (20140413.2041)
 -->
<!-- Title: Framework/src/CcdbDatabase.cxx Pages: 1 -->
<!--zoomable 308 -->
<svg id="main" version="1.1" xmlns="http://www.w3.org/2000/svg" xmlns:xlink="http://www.w3.org/1999/xlink" xml:space="preserve" onload="init(evt)">
<style type="text/css"><![CDATA[
.edge:hover path { stroke: red; }
.edge:hover polygon { stroke: red; fill: red; }
]]></style>
<script type="text/javascript"><![CDATA[
var edges = document.getElementsByTagName('g');
if (edges && edges.length) {
  for (var i=0;i<edges.length;i++) {
    if (edges[i].id.substr(0,4)=='edge') {
      edges[i].setAttribute('class','edge');
    }
  }
}
]]></script>
        <defs>
                <circle id="rim" cx="0" cy="0" r="7"/>
                <circle id="rim2" cx="0" cy="0" r="3.5"/>
                <g id="zoomPlus">
                        <use xlink:href="#rim" fill="#404040">
                                <set attributeName="fill" to="#808080" begin="zoomplus.mouseover" end="zoomplus.mouseout"/>
                        </use>
                        <path d="M-4,0h8M0,-4v8" fill="none" stroke="white" stroke-width="1.5" pointer-events="none"/>
                </g>
                <g id="zoomMin">
                        <use xlink:href="#rim" fill="#404040">
                                <set attributeName="fill" to="#808080" begin="zoomminus.mouseover" end="zoomminus.mouseout"/>
                        </use>
                        <path d="M-4,0h8" fill="none" stroke="white" stroke-width="1.5" pointer-events="none"/>
                </g>
                <g id="dirArrow">
                        <path fill="none" stroke="white" stroke-width="1.5" d="M0,-3.0v7 M-2.5,-0.5L0,-3.0L2.5,-0.5"/>
                </g>
               <g id="resetDef">
                       <use xlink:href="#rim2" fill="#404040">
                               <set attributeName="fill" to="#808080" begin="reset.mouseover" end="reset.mouseout"/>
                       </use>
               </g>
        </defs>

<script type="text/javascript">
var viewWidth = 1379;
var viewHeight = 308;
var sectionId = 'dynsection-0';
</script>
<script xlink:href="svgpan.js"/>
<svg id="graph" class="graph">
<g id="viewport">
<title>Framework/src/CcdbDatabase.cxx</title>
<!-- Node1 -->
<g id="node1" class="node"><title>Node1</title>
<polygon fill="#bfbfbf" stroke="black" points="716,-280.5 716,-299.5 885,-299.5 885,-280.5 716,-280.5"/>
<text text-anchor="middle" x="800.5" y="-287.5" font-family="Helvetica,sans-Serif" font-size="10.00">Framework/src/CcdbDatabase.cxx</text>
</g>
<!-- Node2 -->
<g id="node2" class="node"><title>Node2</title>
<g id="a_node2"><a xlink:href="CcdbDatabase_8h.html" target="_top" xlink:title="QualityControl/CcdbDatabase.h">
<polygon fill="none" stroke="black" points="121,-224.5 121,-243.5 276,-243.5 276,-224.5 121,-224.5"/>
<text text-anchor="middle" x="198.5" y="-231.5" font-family="Helvetica,sans-Serif" font-size="10.00">QualityControl/CcdbDatabase.h</text>
</a>
</g>
</g>
<!-- Node1&#45;&gt;Node2 -->
<g id="edge1" class="edge"><title>Node1&#45;&gt;Node2</title>
<path fill="none" stroke="midnightblue" d="M715.843,-281.406C602.359,-271.227 401.876,-253.243 286.642,-242.906"/>
<polygon fill="midnightblue" stroke="midnightblue" points="286.719,-239.399 276.446,-241.992 286.093,-246.371 286.719,-239.399"/>
</g>
<!-- Node9 -->
<g id="node9" class="node"><title>Node9</title>
<g id="a_node9"><a xlink:href="MonitorObject_8h.html" target="_top" xlink:title="QualityControl/MonitorObject.h">
<polygon fill="none" stroke="black" points="299,-112.5 299,-131.5 450,-131.5 450,-112.5 299,-112.5"/>
<text text-anchor="middle" x="374.5" y="-119.5" font-family="Helvetica,sans-Serif" font-size="10.00">QualityControl/MonitorObject.h</text>
</a>
</g>
</g>
<!-- Node1&#45;&gt;Node9 -->
<g id="edge17" class="edge"><title>Node1&#45;&gt;Node9</title>
<path fill="none" stroke="midnightblue" d="M715.66,-285.111C630.365,-279.892 505.769,-268.302 464.5,-244 423.091,-219.615 394.795,-167.994 382.095,-140.729"/>
<polygon fill="midnightblue" stroke="midnightblue" points="385.279,-139.275 377.997,-131.579 378.891,-142.137 385.279,-139.275"/>
</g>
<!-- Node13 -->
<g id="node13" class="node"><title>Node13</title>
<polygon fill="none" stroke="#bfbfbf" points="486.5,-56.5 486.5,-75.5 602.5,-75.5 602.5,-56.5 486.5,-56.5"/>
<text text-anchor="middle" x="544.5" y="-63.5" font-family="Helvetica,sans-Serif" font-size="10.00">Common/Exceptions.h</text>
</g>
<!-- Node1&#45;&gt;Node13 -->
<g id="edge18" class="edge"><title>Node1&#45;&gt;Node13</title>
<path fill="none" stroke="midnightblue" d="M715.978,-288.341C636.351,-285.712 525.243,-276.167 497.5,-244 456.708,-196.703 506.197,-117.768 531.43,-83.6014"/>
<polygon fill="midnightblue" stroke="midnightblue" points="534.27,-85.6491 537.532,-75.5689 528.695,-81.4147 534.27,-85.6491"/>
</g>
<!-- Node15 -->
<g id="node15" class="node"><title>Node15</title>
<polygon fill="none" stroke="#bfbfbf" points="506.5,-224.5 506.5,-243.5 590.5,-243.5 590.5,-224.5 506.5,-224.5"/>
<text text-anchor="middle" x="548.5" y="-231.5" font-family="Helvetica,sans-Serif" font-size="10.00">TBufferJSON.h</text>
</g>
<!-- Node1&#45;&gt;Node15 -->
<g id="edge19" class="edge"><title>Node1&#45;&gt;Node15</title>
<path fill="none" stroke="midnightblue" d="M760.57,-280.444C716.609,-271.023 645.873,-255.866 598.317,-245.675"/>
<polygon fill="midnightblue" stroke="midnightblue" points="598.755,-242.189 588.243,-243.516 597.288,-249.034 598.755,-242.189"/>
</g>
<!-- Node16 -->
<g id="node16" class="node"><title>Node16</title>
<polygon fill="none" stroke="#bfbfbf" points="608.5,-224.5 608.5,-243.5 658.5,-243.5 658.5,-224.5 608.5,-224.5"/>
<text text-anchor="middle" x="633.5" y="-231.5" font-family="Helvetica,sans-Serif" font-size="10.00">TH1F.h</text>
</g>
<!-- Node1&#45;&gt;Node16 -->
<g id="edge20" class="edge"><title>Node1&#45;&gt;Node16</title>
<path fill="none" stroke="midnightblue" d="M774.038,-280.444C745.49,-271.212 699.902,-256.471 668.428,-246.294"/>
<polygon fill="midnightblue" stroke="midnightblue" points="669.336,-242.909 658.745,-243.163 667.183,-249.57 669.336,-242.909"/>
</g>
<!-- Node17 -->
<g id="node17" class="node"><title>Node17</title>
<polygon fill="none" stroke="#bfbfbf" points="677,-224.5 677,-243.5 724,-243.5 724,-224.5 677,-224.5"/>
<text text-anchor="middle" x="700.5" y="-231.5" font-family="Helvetica,sans-Serif" font-size="10.00">TFile.h</text>
</g>
<!-- Node1&#45;&gt;Node17 -->
<g id="edge21" class="edge"><title>Node1&#45;&gt;Node17</title>
<path fill="none" stroke="midnightblue" d="M784.433,-280.324C768.542,-271.743 743.993,-258.486 725.542,-248.522"/>
<polygon fill="midnightblue" stroke="midnightblue" points="726.989,-245.326 716.527,-243.655 723.663,-251.486 726.989,-245.326"/>
</g>
<!-- Node18 -->
<g id="node18" class="node"><title>Node18</title>
<polygon fill="none" stroke="#bfbfbf" points="742,-224.5 742,-243.5 789,-243.5 789,-224.5 742,-224.5"/>
<text text-anchor="middle" x="765.5" y="-231.5" font-family="Helvetica,sans-Serif" font-size="10.00">TList.h</text>
</g>
<!-- Node1&#45;&gt;Node18 -->
<g id="edge22" class="edge"><title>Node1&#45;&gt;Node18</title>
<path fill="none" stroke="midnightblue" d="M794.72,-280.083C789.828,-272.534 782.673,-261.495 776.667,-252.23"/>
<polygon fill="midnightblue" stroke="midnightblue" points="779.548,-250.239 771.172,-243.751 773.674,-254.046 779.548,-250.239"/>
</g>
<!-- Node19 -->
<g id="node19" class="node"><title>Node19</title>
<polygon fill="none" stroke="#bfbfbf" points="807,-224.5 807,-243.5 866,-243.5 866,-224.5 807,-224.5"/>
<text text-anchor="middle" x="836.5" y="-231.5" font-family="Helvetica,sans-Serif" font-size="10.00">TROOT.h</text>
</g>
<!-- Node1&#45;&gt;Node19 -->
<g id="edge23" class="edge"><title>Node1&#45;&gt;Node19</title>
<path fill="none" stroke="midnightblue" d="M806.445,-280.083C811.477,-272.534 818.837,-261.495 825.013,-252.23"/>
<polygon fill="midnightblue" stroke="midnightblue" points="828.031,-254.013 830.666,-243.751 822.207,-250.13 828.031,-254.013"/>
</g>
<!-- Node20 -->
<g id="node20" class="node"><title>Node20</title>
<polygon fill="none" stroke="#bfbfbf" points="884.5,-224.5 884.5,-243.5 932.5,-243.5 932.5,-224.5 884.5,-224.5"/>
<text text-anchor="middle" x="908.5" y="-231.5" font-family="Helvetica,sans-Serif" font-size="10.00">TKey.h</text>
</g>
<!-- Node1&#45;&gt;Node20 -->
<g id="edge24" class="edge"><title>Node1&#45;&gt;Node20</title>
<path fill="none" stroke="midnightblue" d="M817.852,-280.324C835.172,-271.664 862.015,-258.242 882.002,-248.249"/>
<polygon fill="midnightblue" stroke="midnightblue" points="883.812,-251.257 891.191,-243.655 880.681,-244.996 883.812,-251.257"/>
</g>
<!-- Node21 -->
<g id="node21" class="node"><title>Node21</title>
<polygon fill="none" stroke="#bfbfbf" points="951,-224.5 951,-243.5 1038,-243.5 1038,-224.5 951,-224.5"/>
<text text-anchor="middle" x="994.5" y="-231.5" font-family="Helvetica,sans-Serif" font-size="10.00">TStreamerInfo.h</text>
</g>
<!-- Node1&#45;&gt;Node21 -->
<g id="edge25" class="edge"><title>Node1&#45;&gt;Node21</title>
<path fill="none" stroke="midnightblue" d="M831.24,-280.444C864.444,-271.201 917.491,-256.436 954.057,-246.257"/>
<polygon fill="midnightblue" stroke="midnightblue" points="955.209,-249.57 963.904,-243.516 953.332,-242.826 955.209,-249.57"/>
</g>
<!-- Node22 -->
<g id="node22" class="node"><title>Node22</title>
<polygon fill="none" stroke="#bfbfbf" points="1056,-224.5 1056,-243.5 1121,-243.5 1121,-224.5 1056,-224.5"/>
<text text-anchor="middle" x="1088.5" y="-231.5" font-family="Helvetica,sans-Serif" font-size="10.00">TSystem.h</text>
</g>
<!-- Node1&#45;&gt;Node22 -->
<g id="edge26" class="edge"><title>Node1&#45;&gt;Node22</title>
<path fill="none" stroke="midnightblue" d="M850.275,-280.472C898.083,-272.159 972.593,-258.888 1045.97,-244.257"/>
<polygon fill="midnightblue" stroke="midnightblue" points="1046.73,-247.675 1055.85,-242.278 1045.36,-240.811 1046.73,-247.675"/>
</g>
<!-- Node23 -->
<g id="node23" class="node"><title>Node23</title>
<polygon fill="none" stroke="#bfbfbf" points="1139.5,-224.5 1139.5,-243.5 1185.5,-243.5 1185.5,-224.5 1139.5,-224.5"/>
<text text-anchor="middle" x="1162.5" y="-231.5" font-family="Helvetica,sans-Serif" font-size="10.00">chrono</text>
</g>
<!-- Node1&#45;&gt;Node23 -->
<g id="edge27" class="edge"><title>Node1&#45;&gt;Node23</title>
<path fill="none" stroke="midnightblue" d="M885.143,-280.727C949.713,-273.659 1040.97,-262.049 1129.26,-244.019"/>
<polygon fill="midnightblue" stroke="midnightblue" points="1130.09,-247.42 1139.17,-241.964 1128.67,-240.566 1130.09,-247.42"/>
</g>
<!-- Node24 -->
<g id="node24" class="node"><title>Node24</title>
<polygon fill="none" stroke="#bfbfbf" points="1203.5,-224.5 1203.5,-243.5 1255.5,-243.5 1255.5,-224.5 1203.5,-224.5"/>
<text text-anchor="middle" x="1229.5" y="-231.5" font-family="Helvetica,sans-Serif" font-size="10.00">sstream</text>
</g>
<!-- Node1&#45;&gt;Node24 -->
<g id="edge28" class="edge"><title>Node1&#45;&gt;Node24</title>
<path fill="none" stroke="midnightblue" d="M885.159,-282.73C962.939,-276.193 1081.52,-264.27 1193.13,-244.03"/>
<polygon fill="midnightblue" stroke="midnightblue" points="1194.01,-247.426 1203.21,-242.174 1192.75,-240.541 1194.01,-247.426"/>
</g>
<!-- Node25 -->
<g id="node25" class="node"><title>Node25</title>
<polygon fill="none" stroke="#bfbfbf" points="1274,-224.5 1274,-243.5 1371,-243.5 1371,-224.5 1274,-224.5"/>
<text text-anchor="middle" x="1322.5" y="-231.5" font-family="Helvetica,sans-Serif" font-size="10.00">fairlogger/Logger.h</text>
</g>
<!-- Node1&#45;&gt;Node25 -->
<g id="edge29" class="edge"><title>Node1&#45;&gt;Node25</title>
<path fill="none" stroke="midnightblue" d="M885.331,-282.24C976.303,-274.658 1125.23,-261.285 1263.83,-244.015"/>
<polygon fill="midnightblue" stroke="midnightblue" points="1264.31,-247.483 1273.79,-242.765 1263.44,-240.537 1264.31,-247.483"/>
</g>
<!-- Node3 -->
<g id="node3" class="node"><title>Node3</title>
<polygon fill="none" stroke="#bfbfbf" points="0,-168.5 0,-187.5 95,-187.5 95,-168.5 0,-168.5"/>
<text text-anchor="middle" x="47.5" y="-175.5" font-family="Helvetica,sans-Serif" font-size="10.00">CCDB/CcdbApi.h</text>
</g>
<!-- Node2&#45;&gt;Node3 -->
<g id="edge2" class="edge"><title>Node2&#45;&gt;Node3</title>
<path fill="none" stroke="midnightblue" d="M174.574,-224.444C149.281,-215.399 109.198,-201.064 80.8202,-190.916"/>
<polygon fill="midnightblue" stroke="midnightblue" points="81.9091,-187.588 71.3145,-187.516 79.5519,-194.179 81.9091,-187.588"/>
</g>
<!-- Node4 -->
<g id="node4" class="node"><title>Node4</title>
<g id="a_node4"><a xlink:href="DatabaseInterface_8h.html" target="_top" xlink:title="QualityControl/DatabaseInterface.h">
<polygon fill="none" stroke="black" points="113.5,-168.5 113.5,-187.5 283.5,-187.5 283.5,-168.5 113.5,-168.5"/>
<text text-anchor="middle" x="198.5" y="-175.5" font-family="Helvetica,sans-Serif" font-size="10.00">QualityControl/DatabaseInterface.h</text>
</a>
</g>
</g>
<!-- Node2&#45;&gt;Node4 -->
<g id="edge3" class="edge"><title>Node2&#45;&gt;Node4</title>
<path fill="none" stroke="midnightblue" d="M198.5,-224.083C198.5,-217.006 198.5,-206.861 198.5,-197.986"/>
<polygon fill="midnightblue" stroke="midnightblue" points="202,-197.751 198.5,-187.751 195,-197.751 202,-197.751"/>
</g>
<!-- Node5 -->
<g id="node5" class="node"><title>Node5</title>
<polygon fill="none" stroke="#bfbfbf" points="207,-0.5 207,-19.5 248,-19.5 248,-0.5 207,-0.5"/>
<text text-anchor="middle" x="227.5" y="-7.5" font-family="Helvetica,sans-Serif" font-size="10.00">string</text>
</g>
<!-- Node4&#45;&gt;Node5 -->
<g id="edge4" class="edge"><title>Node4&#45;&gt;Node5</title>
<path fill="none" stroke="midnightblue" d="M172.996,-168.472C156.513,-161.478 136.361,-149.792 126.5,-132 118.834,-118.169 114.948,-78.5441 130.5,-56 145.697,-33.9696 174.541,-22.4808 196.841,-16.6473"/>
<polygon fill="midnightblue" stroke="midnightblue" points="197.935,-19.9854 206.863,-14.2818 196.327,-13.1725 197.935,-19.9854"/>
</g>
<!-- Node6 -->
<g id="node6" class="node"><title>Node6</title>
<polygon fill="none" stroke="#bfbfbf" points="27.5,-112.5 27.5,-131.5 79.5,-131.5 79.5,-112.5 27.5,-112.5"/>
<text text-anchor="middle" x="53.5" y="-119.5" font-family="Helvetica,sans-Serif" font-size="10.00">memory</text>
</g>
<!-- Node4&#45;&gt;Node6 -->
<g id="edge5" class="edge"><title>Node4&#45;&gt;Node6</title>
<path fill="none" stroke="midnightblue" d="M175.524,-168.444C151.343,-159.438 113.082,-145.189 85.8539,-135.049"/>
<polygon fill="midnightblue" stroke="midnightblue" points="86.9609,-131.727 76.3682,-131.516 84.5179,-138.286 86.9609,-131.727"/>
</g>
<!-- Node7 -->
<g id="node7" class="node"><title>Node7</title>
<polygon fill="none" stroke="#bfbfbf" points="135.5,-112.5 135.5,-131.5 179.5,-131.5 179.5,-112.5 135.5,-112.5"/>
<text text-anchor="middle" x="157.5" y="-119.5" font-family="Helvetica,sans-Serif" font-size="10.00">vector</text>
</g>
<!-- Node4&#45;&gt;Node7 -->
<g id="edge6" class="edge"><title>Node4&#45;&gt;Node7</title>
<path fill="none" stroke="midnightblue" d="M191.73,-168.083C185.938,-160.455 177.442,-149.264 170.362,-139.941"/>
<polygon fill="midnightblue" stroke="midnightblue" points="172.979,-137.599 164.144,-131.751 167.404,-141.832 172.979,-137.599"/>
</g>
<!-- Node8 -->
<g id="node8" class="node"><title>Node8</title>
<polygon fill="none" stroke="#bfbfbf" points="198,-112.5 198,-131.5 281,-131.5 281,-112.5 198,-112.5"/>
<text text-anchor="middle" x="239.5" y="-119.5" font-family="Helvetica,sans-Serif" font-size="10.00">unordered_map</text>
</g>
<!-- Node4&#45;&gt;Node8 -->
<g id="edge7" class="edge"><title>Node4&#45;&gt;Node8</title>
<path fill="none" stroke="midnightblue" d="M205.27,-168.083C211.062,-160.455 219.558,-149.264 226.638,-139.941"/>
<polygon fill="midnightblue" stroke="midnightblue" points="229.596,-141.832 232.856,-131.751 224.021,-137.599 229.596,-141.832"/>
</g>
<!-- Node4&#45;&gt;Node9 -->
<g id="edge8" class="edge"><title>Node4&#45;&gt;Node9</title>
<path fill="none" stroke="midnightblue" d="M226.388,-168.444C256.254,-159.28 303.815,-144.688 336.956,-134.519"/>
<polygon fill="midnightblue" stroke="midnightblue" points="338.209,-137.796 346.743,-131.516 336.156,-131.104 338.209,-137.796"/>
</g>
<!-- Node9&#45;&gt;Node5 -->
<g id="edge9" class="edge"><title>Node9&#45;&gt;Node5</title>
<path fill="none" stroke="midnightblue" d="M315.789,-112.48C291.416,-106.156 264.648,-95.149 246.5,-76 234.758,-63.6104 230.224,-44.367 228.498,-30.029"/>
<polygon fill="midnightblue" stroke="midnightblue" points="231.964,-29.4755 227.632,-19.8066 224.989,-30.0663 231.964,-29.4755"/>
</g>
<!-- Node10 -->
<g id="node10" class="node"><title>Node10</title>
<polygon fill="none" stroke="#bfbfbf" points="256,-56.5 256,-75.5 291,-75.5 291,-56.5 256,-56.5"/>
<text text-anchor="middle" x="273.5" y="-63.5" font-family="Helvetica,sans-Serif" font-size="10.00">map</text>
</g>
<!-- Node9&#45;&gt;Node10 -->
<g id="edge10" class="edge"><title>Node9&#45;&gt;Node10</title>
<path fill="none" stroke="midnightblue" d="M358.273,-112.324C342.149,-103.703 317.2,-90.3643 298.536,-80.3855"/>
<polygon fill="midnightblue" stroke="midnightblue" points="300.156,-77.283 289.687,-75.6545 296.856,-83.456 300.156,-77.283"/>
</g>
<!-- Node11 -->
<g id="node11" class="node"><title>Node11</title>
<polygon fill="none" stroke="#bfbfbf" points="385.5,-0.5 385.5,-19.5 441.5,-19.5 441.5,-0.5 385.5,-0.5"/>
<text text-anchor="middle" x="413.5" y="-7.5" font-family="Helvetica,sans-Serif" font-size="10.00">Rtypes.h</text>
</g>
<!-- Node9&#45;&gt;Node11 -->
<g id="edge11" class="edge"><title>Node9&#45;&gt;Node11</title>
<path fill="none" stroke="midnightblue" d="M395.983,-112.36C410.892,-105.09 429.611,-93.117 438.5,-76 446.65,-60.3074 437.328,-41.3307 427.838,-27.9439"/>
<polygon fill="midnightblue" stroke="midnightblue" points="430.337,-25.4528 421.454,-19.6781 424.797,-29.7318 430.337,-25.4528"/>
</g>
<!-- Node12 -->
<g id="node12" class="node"><title>Node12</title>
<polygon fill="none" stroke="#bfbfbf" points="140,-56.5 140,-75.5 199,-75.5 199,-56.5 140,-56.5"/>
<text text-anchor="middle" x="169.5" y="-63.5" font-family="Helvetica,sans-Serif" font-size="10.00">TObject.h</text>
</g>
<!-- Node9&#45;&gt;Node12 -->
<g id="edge12" class="edge"><title>Node9&#45;&gt;Node12</title>
<path fill="none" stroke="midnightblue" d="M342.017,-112.444C305.951,-102.943 247.731,-87.6072 209.043,-77.4161"/>
<polygon fill="midnightblue" stroke="midnightblue" points="209.73,-73.9779 199.168,-74.8151 207.947,-80.747 209.73,-73.9779"/>
</g>
<!-- Node9&#45;&gt;Node13 -->
<g id="edge13" class="edge"><title>Node9&#45;&gt;Node13</title>
<path fill="none" stroke="midnightblue" d="M401.437,-112.444C430.16,-103.32 475.829,-88.8133 507.821,-78.6509"/>
<polygon fill="midnightblue" stroke="midnightblue" points="509.218,-81.8797 517.689,-75.5164 507.099,-75.2081 509.218,-81.8797"/>
</g>
<!-- Node14 -->
<g id="node14" class="node"><title>Node14</title>
<g id="a_node14"><a xlink:href="Quality_8h.html" target="_top" xlink:title="QualityControl/Quality.h">
<polygon fill="none" stroke="black" points="309,-56.5 309,-75.5 430,-75.5 430,-56.5 309,-56.5"/>
<text text-anchor="middle" x="369.5" y="-63.5" font-family="Helvetica,sans-Serif" font-size="10.00">QualityControl/Quality.h</text>
</a>
</g>
</g>
<!-- Node9&#45;&gt;Node14 -->
<g id="edge14" class="edge"><title>Node9&#45;&gt;Node14</title>
<path fill="none" stroke="midnightblue" d="M373.674,-112.083C373.019,-105.006 372.08,-94.8611 371.258,-85.9865"/>
<polygon fill="midnightblue" stroke="midnightblue" points="374.717,-85.3858 370.31,-75.7511 367.747,-86.0312 374.717,-85.3858"/>
</g>
<!-- Node14&#45;&gt;Node5 -->
<g id="edge16" class="edge"><title>Node14&#45;&gt;Node5</title>
<path fill="none" stroke="midnightblue" d="M347,-56.4435C322.868,-47.2666 284.417,-32.6446 257.673,-22.4744"/>
<polygon fill="midnightblue" stroke="midnightblue" points="258.642,-19.0982 248.051,-18.8151 256.154,-25.6411 258.642,-19.0982"/>
</g>
<!-- Node14&#45;&gt;Node11 -->
<g id="edge15" class="edge"><title>Node14&#45;&gt;Node11</title>
<path fill="none" stroke="midnightblue" d="M376.766,-56.083C383.045,-48.3768 392.288,-37.0333 399.931,-27.6531"/>
<polygon fill="midnightblue" stroke="midnightblue" points="402.766,-29.7143 406.369,-19.7511 397.339,-25.2926 402.766,-29.7143"/>
</g>
</g>
</svg>
        <g id="navigator" transform="translate(0 0)" fill="#404254">
                <rect fill="#f2f5e9" fill-opacity="0.5" stroke="#606060" stroke-width=".5" x="0" y="0" width="60" height="60"/>
                <use id="zoomplus" xlink:href="#zoomPlus" x="17" y="9" onmousedown="handleZoom(evt,'in')"/>
                <use id="zoomminus" xlink:href="#zoomMin" x="42" y="9" onmousedown="handleZoom(evt,'out')"/>
                <use id="reset" xlink:href="#resetDef" x="30" y="36" onmousedown="handleReset()"/>
                <g id="arrowUp" xlink:href="#dirArrow" transform="translate(30 24)" onmousedown="handlePan(0,-1)">
                  <use xlink:href="#rim" fill="#404040">
                        <set attributeName="fill" to="#808080" begin="arrowUp.mouseover" end="arrowUp.mouseout"/>
                  </use>
                  <path fill="none" stroke="white" stroke-width="1.5" d="M0,-3.0v7 M-2.5,-0.5L0,-3.0L2.5,-0.5"/>
                </g>
                <g id="arrowRight" xlink:href="#dirArrow" transform="rotate(90) translate(36 -43)" onmousedown="handlePan(1,0)">
                  <use xlink:href="#rim" fill="#404040">
                        <set attributeName="fill" to="#808080" begin="arrowRight.mouseover" end="arrowRight.mouseout"/>
                  </use>
                  <path fill="none" stroke="white" stroke-width="1.5" d="M0,-3.0v7 M-2.5,-0.5L0,-3.0L2.5,-0.5"/>
                </g>
                <g id="arrowDown" xlink:href="#dirArrow" transform="rotate(180) translate(-30 -48)" onmousedown="handlePan(0,1)">
                  <use xlink:href="#rim" fill="#404040">
                        <set attributeName="fill" to="#808080" begin="arrowDown.mouseover" end="arrowDown.mouseout"/>
                  </use>
                  <path fill="none" stroke="white" stroke-width="1.5" d="M0,-3.0v7 M-2.5,-0.5L0,-3.0L2.5,-0.5"/>
                </g>
                <g id="arrowLeft" xlink:href="#dirArrow" transform="rotate(270) translate(-36 17)" onmousedown="handlePan(-1,0)">
                  <use xlink:href="#rim" fill="#404040">
                        <set attributeName="fill" to="#808080" begin="arrowLeft.mouseover" end="arrowLeft.mouseout"/>
                  </use>
                  <path fill="none" stroke="white" stroke-width="1.5" d="M0,-3.0v7 M-2.5,-0.5L0,-3.0L2.5,-0.5"/>
                </g>
        </g>
        <svg viewBox="0 0 15 15" width="100%" height="30px" preserveAspectRatio="xMaxYMin meet">
         <g id="arrow_out" transform="scale(0.3 0.3)">
          <a xlink:href="CcdbDatabase_8cxx__incl_org.svg" target="_base">
           <rect id="button" ry="5" rx="5" y="6" x="6" height="38" width="38"
                fill="#f2f5e9" fill-opacity="0.5" stroke="#606060" stroke-width="1.0"/>
           <path id="arrow"
             d="M 11.500037,31.436501 C 11.940474,20.09759 22.043105,11.32322 32.158766,21.979434 L 37.068811,17.246167 C 37.068811,17.246167 37.088388,32 37.088388,32 L 22.160133,31.978069 C 22.160133,31.978069 26.997745,27.140456 26.997745,27.140456 C 18.528582,18.264221 13.291696,25.230495 11.500037,31.436501 z"
             style="fill:#404040;"/>
          </a>
         </g>
        </svg>
</svg>
