<?xml version="1.0" encoding="UTF-8" standalone="no"?>
<!DOCTYPE svg PUBLIC "-//W3C//DTD SVG 1.1//EN"
 "http://www.w3.org/Graphics/SVG/1.1/DTD/svg11.dtd">
<!-- Generated by graphviz version 2.38.0 (20140413.2041)
 -->
<!-- Title: Framework/src/CheckerFactory.cxx Pages: 1 -->
<!--zoomable 420 -->
<svg id="main" version="1.1" xmlns="http://www.w3.org/2000/svg" xmlns:xlink="http://www.w3.org/1999/xlink" xml:space="preserve" onload="init(evt)">
<style type="text/css"><![CDATA[
.edge:hover path { stroke: red; }
.edge:hover polygon { stroke: red; fill: red; }
]]></style>
<script type="text/javascript"><![CDATA[
var edges = document.getElementsByTagName('g');
if (edges && edges.length) {
  for (var i=0;i<edges.length;i++) {
    if (edges[i].id.substr(0,4)=='edge') {
      edges[i].setAttribute('class','edge');
    }
  }
}
]]></script>
        <defs>
                <circle id="rim" cx="0" cy="0" r="7"/>
                <circle id="rim2" cx="0" cy="0" r="3.5"/>
                <g id="zoomPlus">
                        <use xlink:href="#rim" fill="#404040">
                                <set attributeName="fill" to="#808080" begin="zoomplus.mouseover" end="zoomplus.mouseout"/>
                        </use>
                        <path d="M-4,0h8M0,-4v8" fill="none" stroke="white" stroke-width="1.5" pointer-events="none"/>
                </g>
                <g id="zoomMin">
                        <use xlink:href="#rim" fill="#404040">
                                <set attributeName="fill" to="#808080" begin="zoomminus.mouseover" end="zoomminus.mouseout"/>
                        </use>
                        <path d="M-4,0h8" fill="none" stroke="white" stroke-width="1.5" pointer-events="none"/>
                </g>
                <g id="dirArrow">
                        <path fill="none" stroke="white" stroke-width="1.5" d="M0,-3.0v7 M-2.5,-0.5L0,-3.0L2.5,-0.5"/>
                </g>
               <g id="resetDef">
                       <use xlink:href="#rim2" fill="#404040">
                               <set attributeName="fill" to="#808080" begin="reset.mouseover" end="reset.mouseout"/>
                       </use>
               </g>
        </defs>

<script type="text/javascript">
var viewWidth = 1673;
var viewHeight = 420;
var sectionId = 'dynsection-0';
</script>
<script xlink:href="svgpan.js"/>
<svg id="graph" class="graph">
<g id="viewport">
<title>Framework/src/CheckerFactory.cxx</title>
<!-- Node1 -->
<g id="node1" class="node"><title>Node1</title>
<polygon fill="#bfbfbf" stroke="black" points="256.5,-392.5 256.5,-411.5 429.5,-411.5 429.5,-392.5 256.5,-392.5"/>
<text text-anchor="middle" x="343" y="-399.5" font-family="Helvetica,sans-Serif" font-size="10.00">Framework/src/CheckerFactory.cxx</text>
</g>
<!-- Node2 -->
<g id="node2" class="node"><title>Node2</title>
<g id="a_node2"><a xlink:href="CheckerFactory_8h.html" target="_top" xlink:title="QualityControl/CheckerFactory.h">
<polygon fill="none" stroke="black" points="0,-224.5 0,-243.5 160,-243.5 160,-224.5 0,-224.5"/>
<text text-anchor="middle" x="80" y="-231.5" font-family="Helvetica,sans-Serif" font-size="10.00">QualityControl/CheckerFactory.h</text>
</a>
</g>
</g>
<!-- Node1&#45;&gt;Node2 -->
<g id="edge1" class="edge"><title>Node1&#45;&gt;Node2</title>
<path fill="none" stroke="midnightblue" d="M323.371,-392.357C304.625,-383.858 275.788,-370.135 252,-356 194.009,-321.541 130.133,-273.795 99.0727,-249.89"/>
<polygon fill="midnightblue" stroke="midnightblue" points="100.922,-246.895 90.8713,-243.543 96.638,-252.431 100.922,-246.895"/>
</g>
<!-- Node4 -->
<g id="node4" class="node"><title>Node4</title>
<polygon fill="none" stroke="#bfbfbf" points="261,-336.5 261,-355.5 425,-355.5 425,-336.5 261,-336.5"/>
<text text-anchor="middle" x="343" y="-343.5" font-family="Helvetica,sans-Serif" font-size="10.00">Framework/DataProcessorSpec.h</text>
</g>
<!-- Node1&#45;&gt;Node4 -->
<g id="edge3" class="edge"><title>Node1&#45;&gt;Node4</title>
<path fill="none" stroke="midnightblue" d="M343,-392.083C343,-385.006 343,-374.861 343,-365.986"/>
<polygon fill="midnightblue" stroke="midnightblue" points="346.5,-365.751 343,-355.751 339.5,-365.751 346.5,-365.751"/>
</g>
<!-- Node5 -->
<g id="node5" class="node"><title>Node5</title>
<g id="a_node5"><a xlink:href="Checker_8h.html" target="_top" xlink:title="QualityControl/Checker.h">
<polygon fill="none" stroke="black" points="562.5,-336.5 562.5,-355.5 689.5,-355.5 689.5,-336.5 562.5,-336.5"/>
<text text-anchor="middle" x="626" y="-343.5" font-family="Helvetica,sans-Serif" font-size="10.00">QualityControl/Checker.h</text>
</a>
</g>
</g>
<!-- Node1&#45;&gt;Node5 -->
<g id="edge4" class="edge"><title>Node1&#45;&gt;Node5</title>
<path fill="none" stroke="midnightblue" d="M387.842,-392.444C437.625,-382.944 517.983,-367.611 571.392,-357.42"/>
<polygon fill="midnightblue" stroke="midnightblue" points="572.201,-360.829 581.368,-355.516 570.889,-353.953 572.201,-360.829"/>
</g>
<!-- Node3 -->
<g id="node3" class="node"><title>Node3</title>
<polygon fill="none" stroke="#bfbfbf" points="1061.5,-0.5 1061.5,-19.5 1102.5,-19.5 1102.5,-0.5 1061.5,-0.5"/>
<text text-anchor="middle" x="1082" y="-7.5" font-family="Helvetica,sans-Serif" font-size="10.00">string</text>
</g>
<!-- Node2&#45;&gt;Node3 -->
<g id="edge2" class="edge"><title>Node2&#45;&gt;Node3</title>
<path fill="none" stroke="midnightblue" d="M81.5217,-224.339C87.2576,-194.604 110.568,-96.3062 174,-56 249.296,-8.15489 899.827,-9.72103 1050.8,-10.74"/>
<polygon fill="midnightblue" stroke="midnightblue" points="1051.15,-14.2425 1061.18,-10.8147 1051.2,-7.24272 1051.15,-14.2425"/>
</g>
<!-- Node5&#45;&gt;Node3 -->
<g id="edge7" class="edge"><title>Node5&#45;&gt;Node3</title>
<path fill="none" stroke="midnightblue" d="M562.454,-340.76C457.714,-333.331 257.6,-317.118 230,-300 200.77,-281.872 188,-269.395 188,-235 188,-235 188,-235 188,-121 188,-32.1397 892.753,-14.3577 1050.8,-11.4872"/>
<polygon fill="midnightblue" stroke="midnightblue" points="1051.28,-14.9795 1061.22,-11.3055 1051.16,-7.98053 1051.28,-14.9795"/>
</g>
<!-- Node6 -->
<g id="node6" class="node"><title>Node6</title>
<polygon fill="none" stroke="#bfbfbf" points="1507,-280.5 1507,-299.5 1553,-299.5 1553,-280.5 1507,-280.5"/>
<text text-anchor="middle" x="1530" y="-287.5" font-family="Helvetica,sans-Serif" font-size="10.00">chrono</text>
</g>
<!-- Node5&#45;&gt;Node6 -->
<g id="edge5" class="edge"><title>Node5&#45;&gt;Node6</title>
<path fill="none" stroke="midnightblue" d="M689.763,-345.746C833.782,-346.549 1194.91,-343.599 1493,-300 1494.25,-299.817 1495.52,-299.611 1496.8,-299.387"/>
<polygon fill="midnightblue" stroke="midnightblue" points="1497.54,-302.808 1506.64,-297.38 1496.14,-295.949 1497.54,-302.808"/>
</g>
<!-- Node7 -->
<g id="node7" class="node"><title>Node7</title>
<polygon fill="none" stroke="#bfbfbf" points="637,-112.5 637,-131.5 689,-131.5 689,-112.5 637,-112.5"/>
<text text-anchor="middle" x="663" y="-119.5" font-family="Helvetica,sans-Serif" font-size="10.00">memory</text>
</g>
<!-- Node5&#45;&gt;Node7 -->
<g id="edge6" class="edge"><title>Node5&#45;&gt;Node7</title>
<path fill="none" stroke="midnightblue" d="M633.81,-336.469C641.067,-327.945 651.421,-314.111 656,-300 673.915,-244.788 669.218,-174.774 665.514,-141.798"/>
<polygon fill="midnightblue" stroke="midnightblue" points="668.975,-141.263 664.284,-131.763 662.027,-142.115 668.975,-141.263"/>
</g>
<!-- Node8 -->
<g id="node8" class="node"><title>Node8</title>
<polygon fill="none" stroke="#bfbfbf" points="685.5,-56.5 685.5,-75.5 720.5,-75.5 720.5,-56.5 685.5,-56.5"/>
<text text-anchor="middle" x="703" y="-63.5" font-family="Helvetica,sans-Serif" font-size="10.00">map</text>
</g>
<!-- Node5&#45;&gt;Node8 -->
<g id="edge8" class="edge"><title>Node5&#45;&gt;Node8</title>
<path fill="none" stroke="midnightblue" d="M625.397,-336.467C624.043,-323.059 619.709,-296.853 606,-280 552.527,-214.262 483.399,-260.177 439,-188 421.296,-159.22 415.191,-137.809 437,-112 467.301,-76.1428 613.254,-68.849 675.154,-67.372"/>
<polygon fill="midnightblue" stroke="midnightblue" points="675.425,-70.8673 685.351,-67.1639 675.282,-63.8687 675.425,-70.8673"/>
</g>
<!-- Node9 -->
<g id="node9" class="node"><title>Node9</title>
<polygon fill="none" stroke="#bfbfbf" points="446,-112.5 446,-131.5 490,-131.5 490,-112.5 446,-112.5"/>
<text text-anchor="middle" x="468" y="-119.5" font-family="Helvetica,sans-Serif" font-size="10.00">vector</text>
</g>
<!-- Node5&#45;&gt;Node9 -->
<g id="edge9" class="edge"><title>Node5&#45;&gt;Node9</title>
<path fill="none" stroke="midnightblue" d="M562.393,-342.027C459.447,-336.557 265.686,-323.273 245,-300 177.905,-224.514 359.974,-156.77 436.209,-132.497"/>
<polygon fill="midnightblue" stroke="midnightblue" points="437.307,-135.821 445.806,-129.494 435.217,-129.14 437.307,-135.821"/>
</g>
<!-- Node10 -->
<g id="node10" class="node"><title>Node10</title>
<polygon fill="none" stroke="#bfbfbf" points="254,-280.5 254,-299.5 346,-299.5 346,-280.5 254,-280.5"/>
<text text-anchor="middle" x="300" y="-287.5" font-family="Helvetica,sans-Serif" font-size="10.00">Common/Timer.h</text>
</g>
<!-- Node5&#45;&gt;Node10 -->
<g id="edge10" class="edge"><title>Node5&#45;&gt;Node10</title>
<path fill="none" stroke="midnightblue" d="M574.344,-336.444C514.82,-326.584 417.348,-310.438 356.034,-300.282"/>
<polygon fill="midnightblue" stroke="midnightblue" points="356.581,-296.825 346.143,-298.643 355.437,-303.731 356.581,-296.825"/>
</g>
<!-- Node11 -->
<g id="node11" class="node"><title>Node11</title>
<polygon fill="none" stroke="#bfbfbf" points="364,-280.5 364,-299.5 462,-299.5 462,-280.5 364,-280.5"/>
<text text-anchor="middle" x="413" y="-287.5" font-family="Helvetica,sans-Serif" font-size="10.00">Framework/Task.h</text>
</g>
<!-- Node5&#45;&gt;Node11 -->
<g id="edge11" class="edge"><title>Node5&#45;&gt;Node11</title>
<path fill="none" stroke="midnightblue" d="M592.25,-336.444C555.482,-327.122 496.554,-312.183 456.378,-301.997"/>
<polygon fill="midnightblue" stroke="midnightblue" points="457.146,-298.581 446.593,-299.516 455.426,-305.367 457.146,-298.581"/>
</g>
<!-- Node12 -->
<g id="node12" class="node"><title>Node12</title>
<polygon fill="none" stroke="#bfbfbf" points="480.5,-280.5 480.5,-299.5 597.5,-299.5 597.5,-280.5 480.5,-280.5"/>
<text text-anchor="middle" x="539" y="-287.5" font-family="Helvetica,sans-Serif" font-size="10.00">Headers/DataHeader.h</text>
</g>
<!-- Node5&#45;&gt;Node12 -->
<g id="edge12" class="edge"><title>Node5&#45;&gt;Node12</title>
<path fill="none" stroke="midnightblue" d="M612.022,-336.324C598.45,-327.9 577.62,-314.971 561.675,-305.074"/>
<polygon fill="midnightblue" stroke="midnightblue" points="563.286,-301.954 552.943,-299.655 559.594,-307.902 563.286,-301.954"/>
</g>
<!-- Node13 -->
<g id="node13" class="node"><title>Node13</title>
<g id="a_node13"><a xlink:href="CheckInterface_8h.html" target="_top" xlink:title="QualityControl/CheckInterface.h">
<polygon fill="none" stroke="black" points="1507.5,-168.5 1507.5,-187.5 1664.5,-187.5 1664.5,-168.5 1507.5,-168.5"/>
<text text-anchor="middle" x="1586" y="-175.5" font-family="Helvetica,sans-Serif" font-size="10.00">QualityControl/CheckInterface.h</text>
</a>
</g>
</g>
<!-- Node5&#45;&gt;Node13 -->
<g id="edge13" class="edge"><title>Node5&#45;&gt;Node13</title>
<path fill="none" stroke="midnightblue" d="M689.572,-344.076C894.9,-340.813 1528.98,-328.467 1562,-300 1591.24,-274.793 1591.2,-225.096 1588.62,-197.892"/>
<polygon fill="midnightblue" stroke="midnightblue" points="1592.07,-197.274 1587.43,-187.748 1585.12,-198.086 1592.07,-197.274"/>
</g>
<!-- Node15 -->
<g id="node15" class="node"><title>Node15</title>
<g id="a_node15"><a xlink:href="MonitorObject_8h.html" target="_top" xlink:title="QualityControl/MonitorObject.h">
<polygon fill="none" stroke="black" points="1267.5,-112.5 1267.5,-131.5 1418.5,-131.5 1418.5,-112.5 1267.5,-112.5"/>
<text text-anchor="middle" x="1343" y="-119.5" font-family="Helvetica,sans-Serif" font-size="10.00">QualityControl/MonitorObject.h</text>
</a>
</g>
</g>
<!-- Node5&#45;&gt;Node15 -->
<g id="edge32" class="edge"><title>Node5&#45;&gt;Node15</title>
<path fill="none" stroke="midnightblue" d="M689.709,-342.762C864.224,-335.156 1343.28,-303.907 1438,-188 1457.34,-164.339 1419.68,-145.754 1386.22,-134.622"/>
<polygon fill="midnightblue" stroke="midnightblue" points="1387.08,-131.224 1376.49,-131.546 1384.97,-137.898 1387.08,-131.224"/>
</g>
<!-- Node19 -->
<g id="node19" class="node"><title>Node19</title>
<g id="a_node19"><a xlink:href="DatabaseInterface_8h.html" target="_top" xlink:title="QualityControl/DatabaseInterface.h">
<polygon fill="none" stroke="black" points="448,-168.5 448,-187.5 618,-187.5 618,-168.5 448,-168.5"/>
<text text-anchor="middle" x="533" y="-175.5" font-family="Helvetica,sans-Serif" font-size="10.00">QualityControl/DatabaseInterface.h</text>
</a>
</g>
</g>
<!-- Node5&#45;&gt;Node19 -->
<g id="edge26" class="edge"><title>Node5&#45;&gt;Node19</title>
<path fill="none" stroke="midnightblue" d="M631.144,-336.26C637.964,-323.464 648.227,-299.08 640,-280 623.17,-240.971 583.019,-210.011 556.97,-193.117"/>
<polygon fill="midnightblue" stroke="midnightblue" points="558.735,-190.093 548.405,-187.739 555.012,-196.021 558.735,-190.093"/>
</g>
<!-- Node21 -->
<g id="node21" class="node"><title>Node21</title>
<g id="a_node21"><a xlink:href="QcInfoLogger_8h.html" target="_top" xlink:title="QualityControl/QcInfoLogger.h">
<polygon fill="none" stroke="black" points="729.5,-280.5 729.5,-299.5 878.5,-299.5 878.5,-280.5 729.5,-280.5"/>
<text text-anchor="middle" x="804" y="-287.5" font-family="Helvetica,sans-Serif" font-size="10.00">QualityControl/QcInfoLogger.h</text>
</a>
</g>
</g>
<!-- Node5&#45;&gt;Node21 -->
<g id="edge33" class="edge"><title>Node5&#45;&gt;Node21</title>
<path fill="none" stroke="midnightblue" d="M654.205,-336.444C684.41,-327.28 732.511,-312.688 766.029,-302.519"/>
<polygon fill="midnightblue" stroke="midnightblue" points="767.374,-305.769 775.927,-299.516 765.342,-299.07 767.374,-305.769"/>
</g>
<!-- Node13&#45;&gt;Node3 -->
<g id="edge14" class="edge"><title>Node13&#45;&gt;Node3</title>
<path fill="none" stroke="midnightblue" d="M1587.76,-168.387C1591.78,-146.061 1598.94,-85.9799 1567,-56 1533.87,-24.9039 1214.54,-14.3036 1112.9,-11.7022"/>
<polygon fill="midnightblue" stroke="midnightblue" points="1112.77,-8.1979 1102.68,-11.4491 1112.59,-15.1958 1112.77,-8.1979"/>
</g>
<!-- Node14 -->
<g id="node14" class="node"><title>Node14</title>
<polygon fill="none" stroke="#bfbfbf" points="1469,-0.5 1469,-19.5 1525,-19.5 1525,-0.5 1469,-0.5"/>
<text text-anchor="middle" x="1497" y="-7.5" font-family="Helvetica,sans-Serif" font-size="10.00">Rtypes.h</text>
</g>
<!-- Node13&#45;&gt;Node14 -->
<g id="edge15" class="edge"><title>Node13&#45;&gt;Node14</title>
<path fill="none" stroke="midnightblue" d="M1590.57,-168.208C1600.93,-146.958 1623.51,-91.9211 1600,-56 1585.67,-34.0953 1558.07,-22.7908 1535.05,-16.9919"/>
<polygon fill="midnightblue" stroke="midnightblue" points="1535.71,-13.5537 1525.19,-14.7628 1534.17,-20.3814 1535.71,-13.5537"/>
</g>
<!-- Node13&#45;&gt;Node15 -->
<g id="edge16" class="edge"><title>Node13&#45;&gt;Node15</title>
<path fill="none" stroke="midnightblue" d="M1547.5,-168.444C1505.19,-159.043 1437.18,-143.929 1391.33,-133.739"/>
<polygon fill="midnightblue" stroke="midnightblue" points="1391.85,-130.269 1381.32,-131.516 1390.33,-137.102 1391.85,-130.269"/>
</g>
<!-- Node18 -->
<g id="node18" class="node"><title>Node18</title>
<g id="a_node18"><a xlink:href="Quality_8h.html" target="_top" xlink:title="QualityControl/Quality.h">
<polygon fill="none" stroke="black" points="1436.5,-56.5 1436.5,-75.5 1557.5,-75.5 1557.5,-56.5 1436.5,-56.5"/>
<text text-anchor="middle" x="1497" y="-63.5" font-family="Helvetica,sans-Serif" font-size="10.00">QualityControl/Quality.h</text>
</a>
</g>
</g>
<!-- Node13&#45;&gt;Node18 -->
<g id="edge25" class="edge"><title>Node13&#45;&gt;Node18</title>
<path fill="none" stroke="midnightblue" d="M1579.02,-168.368C1564.26,-150.135 1529.71,-107.426 1510.49,-83.6752"/>
<polygon fill="midnightblue" stroke="midnightblue" points="1512.96,-81.164 1503.95,-75.5914 1507.52,-85.567 1512.96,-81.164"/>
</g>
<!-- Node15&#45;&gt;Node3 -->
<g id="edge17" class="edge"><title>Node15&#45;&gt;Node3</title>
<path fill="none" stroke="midnightblue" d="M1347.75,-112.256C1354.47,-98.5605 1364.52,-71.9669 1351,-56 1320.78,-20.3005 1176.98,-12.9013 1112.92,-11.3834"/>
<polygon fill="midnightblue" stroke="midnightblue" points="1112.71,-7.87849 1102.64,-11.1747 1112.57,-14.877 1112.71,-7.87849"/>
</g>
<!-- Node15&#45;&gt;Node8 -->
<g id="edge18" class="edge"><title>Node15&#45;&gt;Node8</title>
<path fill="none" stroke="midnightblue" d="M1267.28,-117.911C1130.67,-111.943 847.076,-97.645 730.794,-75.817"/>
<polygon fill="midnightblue" stroke="midnightblue" points="731.221,-72.3336 720.731,-73.82 729.859,-79.1997 731.221,-72.3336"/>
</g>
<!-- Node15&#45;&gt;Node14 -->
<g id="edge19" class="edge"><title>Node15&#45;&gt;Node14</title>
<path fill="none" stroke="midnightblue" d="M1353.81,-112.319C1369.77,-99.5962 1400.7,-75.3031 1428,-56 1443.28,-45.2004 1460.96,-33.6879 1474.6,-25.0109"/>
<polygon fill="midnightblue" stroke="midnightblue" points="1476.73,-27.8021 1483.31,-19.5003 1472.99,-21.8851 1476.73,-27.8021"/>
</g>
<!-- Node16 -->
<g id="node16" class="node"><title>Node16</title>
<polygon fill="none" stroke="#bfbfbf" points="1148.5,-56.5 1148.5,-75.5 1207.5,-75.5 1207.5,-56.5 1148.5,-56.5"/>
<text text-anchor="middle" x="1178" y="-63.5" font-family="Helvetica,sans-Serif" font-size="10.00">TObject.h</text>
</g>
<!-- Node15&#45;&gt;Node16 -->
<g id="edge20" class="edge"><title>Node15&#45;&gt;Node16</title>
<path fill="none" stroke="midnightblue" d="M1316.86,-112.444C1288.98,-103.32 1244.65,-88.8133 1213.6,-78.6509"/>
<polygon fill="midnightblue" stroke="midnightblue" points="1214.62,-75.3005 1204.02,-75.5164 1212.44,-81.9533 1214.62,-75.3005"/>
</g>
<!-- Node17 -->
<g id="node17" class="node"><title>Node17</title>
<polygon fill="none" stroke="#bfbfbf" points="1226,-56.5 1226,-75.5 1342,-75.5 1342,-56.5 1226,-56.5"/>
<text text-anchor="middle" x="1284" y="-63.5" font-family="Helvetica,sans-Serif" font-size="10.00">Common/Exceptions.h</text>
</g>
<!-- Node15&#45;&gt;Node17 -->
<g id="edge21" class="edge"><title>Node15&#45;&gt;Node17</title>
<path fill="none" stroke="midnightblue" d="M1333.52,-112.324C1324.8,-104.341 1311.66,-92.3128 1301.1,-82.6529"/>
<polygon fill="midnightblue" stroke="midnightblue" points="1303.39,-80.0036 1293.65,-75.8339 1298.67,-85.1674 1303.39,-80.0036"/>
</g>
<!-- Node15&#45;&gt;Node18 -->
<g id="edge22" class="edge"><title>Node15&#45;&gt;Node18</title>
<path fill="none" stroke="midnightblue" d="M1367.4,-112.444C1393.2,-103.399 1434.08,-89.064 1463.02,-78.9158"/>
<polygon fill="midnightblue" stroke="midnightblue" points="1464.43,-82.1283 1472.71,-75.5164 1462.12,-75.5226 1464.43,-82.1283"/>
</g>
<!-- Node18&#45;&gt;Node3 -->
<g id="edge24" class="edge"><title>Node18&#45;&gt;Node3</title>
<path fill="none" stroke="midnightblue" d="M1436.21,-57.0901C1346.24,-45.3832 1180.93,-23.8731 1112.7,-14.9946"/>
<polygon fill="midnightblue" stroke="midnightblue" points="1112.98,-11.5012 1102.61,-13.6815 1112.07,-18.4427 1112.98,-11.5012"/>
</g>
<!-- Node18&#45;&gt;Node14 -->
<g id="edge23" class="edge"><title>Node18&#45;&gt;Node14</title>
<path fill="none" stroke="midnightblue" d="M1497,-56.083C1497,-49.0059 1497,-38.8611 1497,-29.9865"/>
<polygon fill="midnightblue" stroke="midnightblue" points="1500.5,-29.751 1497,-19.7511 1493.5,-29.7511 1500.5,-29.751"/>
</g>
<!-- Node19&#45;&gt;Node3 -->
<g id="edge27" class="edge"><title>Node19&#45;&gt;Node3</title>
<path fill="none" stroke="midnightblue" d="M539.486,-168.256C557.738,-144.493 612.375,-78.9707 676,-56 745.175,-31.0257 968.762,-16.9809 1051.15,-12.549"/>
<polygon fill="midnightblue" stroke="midnightblue" points="1051.34,-16.0438 1061.14,-12.0215 1050.97,-9.05348 1051.34,-16.0438"/>
</g>
<!-- Node19&#45;&gt;Node7 -->
<g id="edge28" class="edge"><title>Node19&#45;&gt;Node7</title>
<path fill="none" stroke="midnightblue" d="M553.599,-168.444C574.993,-159.557 608.681,-145.563 633.024,-135.451"/>
<polygon fill="midnightblue" stroke="midnightblue" points="634.605,-138.585 642.497,-131.516 631.92,-132.12 634.605,-138.585"/>
</g>
<!-- Node19&#45;&gt;Node9 -->
<g id="edge29" class="edge"><title>Node19&#45;&gt;Node9</title>
<path fill="none" stroke="midnightblue" d="M522.557,-168.324C512.854,-160.263 498.185,-148.077 486.5,-138.369"/>
<polygon fill="midnightblue" stroke="midnightblue" points="488.562,-135.532 478.633,-131.834 484.089,-140.916 488.562,-135.532"/>
</g>
<!-- Node19&#45;&gt;Node15 -->
<g id="edge31" class="edge"><title>Node19&#45;&gt;Node15</title>
<path fill="none" stroke="midnightblue" d="M618.153,-171.323C773.558,-160.963 1101.46,-139.102 1257.28,-128.714"/>
<polygon fill="midnightblue" stroke="midnightblue" points="1257.55,-132.205 1267.29,-128.047 1257.08,-125.22 1257.55,-132.205"/>
</g>
<!-- Node20 -->
<g id="node20" class="node"><title>Node20</title>
<polygon fill="none" stroke="#bfbfbf" points="738.5,-56.5 738.5,-75.5 821.5,-75.5 821.5,-56.5 738.5,-56.5"/>
<text text-anchor="middle" x="780" y="-63.5" font-family="Helvetica,sans-Serif" font-size="10.00">unordered_map</text>
</g>
<!-- Node19&#45;&gt;Node20 -->
<g id="edge30" class="edge"><title>Node19&#45;&gt;Node20</title>
<path fill="none" stroke="midnightblue" d="M543.164,-168.438C559.869,-154.753 594.613,-127.879 628,-112 660.154,-96.7074 698.629,-85.3787 728.825,-77.9131"/>
<polygon fill="midnightblue" stroke="midnightblue" points="729.823,-81.2728 738.726,-75.5293 728.185,-74.4672 729.823,-81.2728"/>
</g>
<!-- Node22 -->
<g id="node22" class="node"><title>Node22</title>
<polygon fill="none" stroke="#bfbfbf" points="734,-224.5 734,-243.5 864,-243.5 864,-224.5 734,-224.5"/>
<text text-anchor="middle" x="799" y="-231.5" font-family="Helvetica,sans-Serif" font-size="10.00">InfoLogger/InfoLogger.hxx</text>
</g>
<!-- Node21&#45;&gt;Node22 -->
<g id="edge34" class="edge"><title>Node21&#45;&gt;Node22</title>
<path fill="none" stroke="midnightblue" d="M803.174,-280.083C802.519,-273.006 801.58,-262.861 800.758,-253.986"/>
<polygon fill="midnightblue" stroke="midnightblue" points="804.217,-253.386 799.81,-243.751 797.247,-254.031 804.217,-253.386"/>
</g>
<!-- Node23 -->
<g id="node23" class="node"><title>Node23</title>
<g id="a_node23"><a xlink:href="TaskInterface_8h.html" target="_top" xlink:title="QualityControl/TaskInterface.h">
<polygon fill="none" stroke="black" points="882,-224.5 882,-243.5 1032,-243.5 1032,-224.5 882,-224.5"/>
<text text-anchor="middle" x="957" y="-231.5" font-family="Helvetica,sans-Serif" font-size="10.00">QualityControl/TaskInterface.h</text>
</a>
</g>
</g>
<!-- Node21&#45;&gt;Node23 -->
<g id="edge35" class="edge"><title>Node21&#45;&gt;Node23</title>
<path fill="none" stroke="midnightblue" d="M828.243,-280.444C853.871,-271.399 894.485,-257.064 923.238,-246.916"/>
<polygon fill="midnightblue" stroke="midnightblue" points="924.605,-250.145 932.87,-243.516 922.275,-243.544 924.605,-250.145"/>
</g>
<!-- Node23&#45;&gt;Node3 -->
<g id="edge38" class="edge"><title>Node23&#45;&gt;Node3</title>
<path fill="none" stroke="midnightblue" d="M1032.07,-231.151C1156.97,-227.292 1396.34,-216.261 1422,-188 1427.98,-181.419 1427.57,-174.927 1422,-168 1375.23,-109.85 1328.65,-156.038 1258,-132 1202.66,-113.172 1185.7,-111.158 1139,-76 1120.9,-62.3737 1104.33,-42.2197 1093.78,-27.9724"/>
<polygon fill="midnightblue" stroke="midnightblue" points="1096.43,-25.6699 1087.75,-19.5908 1090.75,-29.7543 1096.43,-25.6699"/>
</g>
<!-- Node23&#45;&gt;Node7 -->
<g id="edge37" class="edge"><title>Node23&#45;&gt;Node7</title>
<path fill="none" stroke="midnightblue" d="M895.984,-224.466C827.429,-214.489 723.629,-198.062 708,-188 690.56,-176.772 678.029,-156.148 670.688,-141.135"/>
<polygon fill="midnightblue" stroke="midnightblue" points="673.774,-139.467 666.439,-131.822 667.406,-142.373 673.774,-139.467"/>
</g>
<!-- Node23&#45;&gt;Node8 -->
<g id="edge36" class="edge"><title>Node23&#45;&gt;Node8</title>
<path fill="none" stroke="midnightblue" d="M897.21,-224.469C849.106,-216.61 786.303,-203.792 766,-188 732.303,-161.79 714.826,-112.502 707.433,-85.6286"/>
<polygon fill="midnightblue" stroke="midnightblue" points="710.739,-84.4327 704.864,-75.6163 703.959,-86.1724 710.739,-84.4327"/>
</g>
<!-- Node23&#45;&gt;Node20 -->
<g id="edge39" class="edge"><title>Node23&#45;&gt;Node20</title>
<path fill="none" stroke="midnightblue" d="M888.923,-224.499C844.658,-217.413 792.708,-205.605 779,-188 755.962,-158.413 765.537,-111.258 773.446,-85.4192"/>
<polygon fill="midnightblue" stroke="midnightblue" points="776.823,-86.3568 776.634,-75.7637 770.175,-84.1623 776.823,-86.3568"/>
</g>
<!-- Node24 -->
<g id="node24" class="node"><title>Node24</title>
<polygon fill="none" stroke="#bfbfbf" points="788.5,-168.5 788.5,-187.5 913.5,-187.5 913.5,-168.5 788.5,-168.5"/>
<text text-anchor="middle" x="851" y="-175.5" font-family="Helvetica,sans-Serif" font-size="10.00">Framework/InitContext.h</text>
</g>
<!-- Node23&#45;&gt;Node24 -->
<g id="edge40" class="edge"><title>Node23&#45;&gt;Node24</title>
<path fill="none" stroke="midnightblue" d="M939.969,-224.324C922.97,-215.664 896.624,-202.242 877.007,-192.249"/>
<polygon fill="midnightblue" stroke="midnightblue" points="878.488,-189.075 867.988,-187.655 875.31,-195.312 878.488,-189.075"/>
</g>
<!-- Node25 -->
<g id="node25" class="node"><title>Node25</title>
<polygon fill="none" stroke="#bfbfbf" points="932,-168.5 932,-187.5 1092,-187.5 1092,-168.5 932,-168.5"/>
<text text-anchor="middle" x="1012" y="-175.5" font-family="Helvetica,sans-Serif" font-size="10.00">Framework/ProcessingContext.h</text>
</g>
<!-- Node23&#45;&gt;Node25 -->
<g id="edge41" class="edge"><title>Node23&#45;&gt;Node25</title>
<path fill="none" stroke="midnightblue" d="M966.082,-224.083C974.171,-216.141 986.195,-204.335 995.91,-194.797"/>
<polygon fill="midnightblue" stroke="midnightblue" points="998.403,-197.254 1003.09,-187.751 993.499,-192.26 998.403,-197.254"/>
</g>
<!-- Node26 -->
<g id="node26" class="node"><title>Node26</title>
<g id="a_node26"><a xlink:href="Activity_8h.html" target="_top" xlink:title="QualityControl/Activity.h">
<polygon fill="none" stroke="black" points="1110.5,-168.5 1110.5,-187.5 1233.5,-187.5 1233.5,-168.5 1110.5,-168.5"/>
<text text-anchor="middle" x="1172" y="-175.5" font-family="Helvetica,sans-Serif" font-size="10.00">QualityControl/Activity.h</text>
</a>
</g>
</g>
<!-- Node23&#45;&gt;Node26 -->
<g id="edge42" class="edge"><title>Node23&#45;&gt;Node26</title>
<path fill="none" stroke="midnightblue" d="M991.067,-224.444C1028.18,-215.122 1087.66,-200.183 1128.21,-189.997"/>
<polygon fill="midnightblue" stroke="midnightblue" points="1129.25,-193.347 1138.09,-187.516 1127.54,-186.558 1129.25,-193.347"/>
</g>
<!-- Node27 -->
<g id="node27" class="node"><title>Node27</title>
<g id="a_node27"><a xlink:href="ObjectsManager_8h.html" target="_top" xlink:title="QualityControl/ObjectsManager.h">
<polygon fill="none" stroke="black" points="1251.5,-168.5 1251.5,-187.5 1412.5,-187.5 1412.5,-168.5 1251.5,-168.5"/>
<text text-anchor="middle" x="1332" y="-175.5" font-family="Helvetica,sans-Serif" font-size="10.00">QualityControl/ObjectsManager.h</text>
</a>
</g>
</g>
<!-- Node23&#45;&gt;Node27 -->
<g id="edge43" class="edge"><title>Node23&#45;&gt;Node27</title>
<path fill="none" stroke="midnightblue" d="M1016.42,-224.444C1083.35,-214.806 1191.98,-199.163 1262.71,-188.978"/>
<polygon fill="midnightblue" stroke="midnightblue" points="1263.46,-192.406 1272.86,-187.516 1262.46,-185.478 1263.46,-192.406"/>
</g>
<!-- Node27&#45;&gt;Node3 -->
<g id="edge49" class="edge"><title>Node27&#45;&gt;Node3</title>
<path fill="none" stroke="midnightblue" d="M1279.78,-168.442C1247.15,-161.663 1205.02,-150.229 1171,-132 1137.39,-113.992 1127.74,-107.327 1106,-76 1096.15,-61.8075 1089.8,-43.0832 1086.12,-29.3779"/>
<polygon fill="midnightblue" stroke="midnightblue" points="1089.51,-28.5202 1083.73,-19.645 1082.72,-30.1915 1089.51,-28.5202"/>
</g>
<!-- Node27&#45;&gt;Node7 -->
<g id="edge50" class="edge"><title>Node27&#45;&gt;Node7</title>
<path fill="none" stroke="midnightblue" d="M1251.05,-168.82C1248,-168.538 1244.97,-168.264 1242,-168 1036.96,-149.782 790.698,-132.001 699.381,-125.547"/>
<polygon fill="midnightblue" stroke="midnightblue" points="699.496,-122.046 689.275,-124.834 699.004,-129.029 699.496,-122.046"/>
</g>
<!-- Node27&#45;&gt;Node15 -->
<g id="edge44" class="edge"><title>Node27&#45;&gt;Node15</title>
<path fill="none" stroke="midnightblue" d="M1333.82,-168.083C1335.27,-160.927 1337.37,-150.635 1339.19,-141.691"/>
<polygon fill="midnightblue" stroke="midnightblue" points="1342.65,-142.248 1341.22,-131.751 1335.79,-140.851 1342.65,-142.248"/>
</g>
<!-- Node27&#45;&gt;Node18 -->
<g id="edge45" class="edge"><title>Node27&#45;&gt;Node18</title>
<path fill="none" stroke="midnightblue" d="M1355.6,-168.384C1375.74,-160.473 1405.01,-147.624 1428,-132 1448.71,-117.925 1469.17,-97.6224 1482.37,-83.4651"/>
<polygon fill="midnightblue" stroke="midnightblue" points="1485.09,-85.678 1489.25,-75.9332 1479.92,-80.9581 1485.09,-85.678"/>
</g>
<!-- Node28 -->
<g id="node28" class="node"><title>Node28</title>
<g id="a_node28"><a xlink:href="TaskConfig_8h.html" target="_top" xlink:title="QualityControl/TaskConfig.h">
<polygon fill="none" stroke="black" points="914,-112.5 914,-131.5 1054,-131.5 1054,-112.5 914,-112.5"/>
<text text-anchor="middle" x="984" y="-119.5" font-family="Helvetica,sans-Serif" font-size="10.00">QualityControl/TaskConfig.h</text>
</a>
</g>
</g>
<!-- Node27&#45;&gt;Node28 -->
<g id="edge46" class="edge"><title>Node27&#45;&gt;Node28</title>
<path fill="none" stroke="midnightblue" d="M1276.86,-168.444C1215.01,-158.846 1114.77,-143.292 1049.11,-133.104"/>
<polygon fill="midnightblue" stroke="midnightblue" points="1049.3,-129.591 1038.88,-131.516 1048.23,-136.508 1049.3,-129.591"/>
</g>
<!-- Node28&#45;&gt;Node3 -->
<g id="edge47" class="edge"><title>Node28&#45;&gt;Node3</title>
<path fill="none" stroke="midnightblue" d="M991.69,-112.368C1008.01,-94.0547 1046.32,-51.0489 1067.42,-27.3624"/>
<polygon fill="midnightblue" stroke="midnightblue" points="1070.31,-29.3863 1074.35,-19.5914 1065.08,-24.7298 1070.31,-29.3863"/>
</g>
<!-- Node28&#45;&gt;Node20 -->
<g id="edge48" class="edge"><title>Node28&#45;&gt;Node20</title>
<path fill="none" stroke="midnightblue" d="M951.676,-112.444C916.611,-103.162 860.502,-88.3093 822.035,-78.127"/>
<polygon fill="midnightblue" stroke="midnightblue" points="822.736,-74.692 812.173,-75.5164 820.945,-81.4589 822.736,-74.692"/>
</g>
</g>
</svg>
        <g id="navigator" transform="translate(0 0)" fill="#404254">
                <rect fill="#f2f5e9" fill-opacity="0.5" stroke="#606060" stroke-width=".5" x="0" y="0" width="60" height="60"/>
                <use id="zoomplus" xlink:href="#zoomPlus" x="17" y="9" onmousedown="handleZoom(evt,'in')"/>
                <use id="zoomminus" xlink:href="#zoomMin" x="42" y="9" onmousedown="handleZoom(evt,'out')"/>
                <use id="reset" xlink:href="#resetDef" x="30" y="36" onmousedown="handleReset()"/>
                <g id="arrowUp" xlink:href="#dirArrow" transform="translate(30 24)" onmousedown="handlePan(0,-1)">
                  <use xlink:href="#rim" fill="#404040">
                        <set attributeName="fill" to="#808080" begin="arrowUp.mouseover" end="arrowUp.mouseout"/>
                  </use>
                  <path fill="none" stroke="white" stroke-width="1.5" d="M0,-3.0v7 M-2.5,-0.5L0,-3.0L2.5,-0.5"/>
                </g>
                <g id="arrowRight" xlink:href="#dirArrow" transform="rotate(90) translate(36 -43)" onmousedown="handlePan(1,0)">
                  <use xlink:href="#rim" fill="#404040">
                        <set attributeName="fill" to="#808080" begin="arrowRight.mouseover" end="arrowRight.mouseout"/>
                  </use>
                  <path fill="none" stroke="white" stroke-width="1.5" d="M0,-3.0v7 M-2.5,-0.5L0,-3.0L2.5,-0.5"/>
                </g>
                <g id="arrowDown" xlink:href="#dirArrow" transform="rotate(180) translate(-30 -48)" onmousedown="handlePan(0,1)">
                  <use xlink:href="#rim" fill="#404040">
                        <set attributeName="fill" to="#808080" begin="arrowDown.mouseover" end="arrowDown.mouseout"/>
                  </use>
                  <path fill="none" stroke="white" stroke-width="1.5" d="M0,-3.0v7 M-2.5,-0.5L0,-3.0L2.5,-0.5"/>
                </g>
                <g id="arrowLeft" xlink:href="#dirArrow" transform="rotate(270) translate(-36 17)" onmousedown="handlePan(-1,0)">
                  <use xlink:href="#rim" fill="#404040">
                        <set attributeName="fill" to="#808080" begin="arrowLeft.mouseover" end="arrowLeft.mouseout"/>
                  </use>
                  <path fill="none" stroke="white" stroke-width="1.5" d="M0,-3.0v7 M-2.5,-0.5L0,-3.0L2.5,-0.5"/>
                </g>
        </g>
        <svg viewBox="0 0 15 15" width="100%" height="30px" preserveAspectRatio="xMaxYMin meet">
         <g id="arrow_out" transform="scale(0.3 0.3)">
          <a xlink:href="CheckerFactory_8cxx__incl_org.svg" target="_base">
           <rect id="button" ry="5" rx="5" y="6" x="6" height="38" width="38"
                fill="#f2f5e9" fill-opacity="0.5" stroke="#606060" stroke-width="1.0"/>
           <path id="arrow"
             d="M 11.500037,31.436501 C 11.940474,20.09759 22.043105,11.32322 32.158766,21.979434 L 37.068811,17.246167 C 37.068811,17.246167 37.088388,32 37.088388,32 L 22.160133,31.978069 C 22.160133,31.978069 26.997745,27.140456 26.997745,27.140456 C 18.528582,18.264221 13.291696,25.230495 11.500037,31.436501 z"
             style="fill:#404040;"/>
          </a>
         </g>
        </svg>
</svg>
