<?xml version="1.0" encoding="UTF-8" standalone="no"?>
<!DOCTYPE svg PUBLIC "-//W3C//DTD SVG 1.1//EN"
 "http://www.w3.org/Graphics/SVG/1.1/DTD/svg11.dtd">
<!-- Generated by graphviz version 2.38.0 (20140413.2041)
 -->
<!-- Title: Framework/include/QualityControl/Checker.h Pages: 1 -->
<!--zoomable 375 -->
<svg id="main" version="1.1" xmlns="http://www.w3.org/2000/svg" xmlns:xlink="http://www.w3.org/1999/xlink" xml:space="preserve" onload="init(evt)">
<style type="text/css"><![CDATA[
.edge:hover path { stroke: red; }
.edge:hover polygon { stroke: red; fill: red; }
]]></style>
<script type="text/javascript"><![CDATA[
var edges = document.getElementsByTagName('g');
if (edges && edges.length) {
  for (var i=0;i<edges.length;i++) {
    if (edges[i].id.substr(0,4)=='edge') {
      edges[i].setAttribute('class','edge');
    }
  }
}
]]></script>
        <defs>
                <circle id="rim" cx="0" cy="0" r="7"/>
                <circle id="rim2" cx="0" cy="0" r="3.5"/>
                <g id="zoomPlus">
                        <use xlink:href="#rim" fill="#404040">
                                <set attributeName="fill" to="#808080" begin="zoomplus.mouseover" end="zoomplus.mouseout"/>
                        </use>
                        <path d="M-4,0h8M0,-4v8" fill="none" stroke="white" stroke-width="1.5" pointer-events="none"/>
                </g>
                <g id="zoomMin">
                        <use xlink:href="#rim" fill="#404040">
                                <set attributeName="fill" to="#808080" begin="zoomminus.mouseover" end="zoomminus.mouseout"/>
                        </use>
                        <path d="M-4,0h8" fill="none" stroke="white" stroke-width="1.5" pointer-events="none"/>
                </g>
                <g id="dirArrow">
                        <path fill="none" stroke="white" stroke-width="1.5" d="M0,-3.0v7 M-2.5,-0.5L0,-3.0L2.5,-0.5"/>
                </g>
               <g id="resetDef">
                       <use xlink:href="#rim2" fill="#404040">
                               <set attributeName="fill" to="#808080" begin="reset.mouseover" end="reset.mouseout"/>
                       </use>
               </g>
        </defs>

<script type="text/javascript">
var viewWidth = 1549;
var viewHeight = 375;
var sectionId = 'dynsection-0';
</script>
<script xlink:href="svgpan.js"/>
<svg id="graph" class="graph">
<g id="viewport">
<title>Framework/include/QualityControl/Checker.h</title>
<!-- Node1 -->
<g id="node1" class="node"><title>Node1</title>
<polygon fill="#bfbfbf" stroke="black" points="325,-336.5 325,-366.5 458,-366.5 458,-336.5 325,-336.5"/>
<text text-anchor="start" x="333" y="-354.5" font-family="Helvetica,sans-Serif" font-size="10.00">Framework/include/Quality</text>
<text text-anchor="middle" x="391.5" y="-343.5" font-family="Helvetica,sans-Serif" font-size="10.00">Control/Checker.h</text>
</g>
<!-- Node2 -->
<g id="node2" class="node"><title>Node2</title>
<polygon fill="none" stroke="#bfbfbf" points="73.5,-280.5 73.5,-299.5 119.5,-299.5 119.5,-280.5 73.5,-280.5"/>
<text text-anchor="middle" x="96.5" y="-287.5" font-family="Helvetica,sans-Serif" font-size="10.00">chrono</text>
</g>
<!-- Node1&#45;&gt;Node2 -->
<g id="edge1" class="edge"><title>Node1&#45;&gt;Node2</title>
<path fill="none" stroke="midnightblue" d="M324.777,-338.299C272.584,-328.548 198.255,-314.205 133.5,-300 132.229,-299.721 130.934,-299.432 129.627,-299.136"/>
<polygon fill="midnightblue" stroke="midnightblue" points="130.09,-295.649 119.555,-296.779 128.495,-302.465 130.09,-295.649"/>
</g>
<!-- Node3 -->
<g id="node3" class="node"><title>Node3</title>
<polygon fill="none" stroke="#bfbfbf" points="732.5,-112.5 732.5,-131.5 784.5,-131.5 784.5,-112.5 732.5,-112.5"/>
<text text-anchor="middle" x="758.5" y="-119.5" font-family="Helvetica,sans-Serif" font-size="10.00">memory</text>
</g>
<!-- Node1&#45;&gt;Node3 -->
<g id="edge2" class="edge"><title>Node1&#45;&gt;Node3</title>
<path fill="none" stroke="midnightblue" d="M458.042,-347.066C535.878,-341.76 658.563,-328.968 693.5,-300 742.389,-259.463 754.509,-178.715 757.512,-141.982"/>
<polygon fill="midnightblue" stroke="midnightblue" points="761.024,-141.921 758.201,-131.709 754.039,-141.452 761.024,-141.921"/>
</g>
<!-- Node4 -->
<g id="node4" class="node"><title>Node4</title>
<polygon fill="none" stroke="#bfbfbf" points="600,-0.5 600,-19.5 641,-19.5 641,-0.5 600,-0.5"/>
<text text-anchor="middle" x="620.5" y="-7.5" font-family="Helvetica,sans-Serif" font-size="10.00">string</text>
</g>
<!-- Node1&#45;&gt;Node4 -->
<g id="edge3" class="edge"><title>Node1&#45;&gt;Node4</title>
<path fill="none" stroke="midnightblue" d="M324.902,-341.34C264.716,-328.868 185.5,-300.09 185.5,-235 185.5,-235 185.5,-235 185.5,-121 185.5,-90.9022 181.423,-75.3223 204.5,-56 233.937,-31.3522 498.449,-16.725 589.708,-12.377"/>
<polygon fill="midnightblue" stroke="midnightblue" points="590.126,-15.8614 599.951,-11.8977 589.799,-8.869 590.126,-15.8614"/>
</g>
<!-- Node5 -->
<g id="node5" class="node"><title>Node5</title>
<polygon fill="none" stroke="#bfbfbf" points="603,-56.5 603,-75.5 638,-75.5 638,-56.5 603,-56.5"/>
<text text-anchor="middle" x="620.5" y="-63.5" font-family="Helvetica,sans-Serif" font-size="10.00">map</text>
</g>
<!-- Node1&#45;&gt;Node5 -->
<g id="edge4" class="edge"><title>Node1&#45;&gt;Node5</title>
<path fill="none" stroke="midnightblue" d="M458.027,-346.42C524.359,-340.798 619.584,-327.986 642.5,-300 648.132,-293.123 646.316,-288.028 642.5,-280 614.696,-221.51 557.304,-246.49 529.5,-188 521.221,-170.584 528.432,-126.28 538.5,-112 551.606,-93.4113 574.917,-81.6928 593.343,-74.8912"/>
<polygon fill="midnightblue" stroke="midnightblue" points="594.645,-78.1451 602.981,-71.606 592.387,-71.5195 594.645,-78.1451"/>
</g>
<!-- Node6 -->
<g id="node6" class="node"><title>Node6</title>
<polygon fill="none" stroke="#bfbfbf" points="547.5,-112.5 547.5,-131.5 591.5,-131.5 591.5,-112.5 547.5,-112.5"/>
<text text-anchor="middle" x="569.5" y="-119.5" font-family="Helvetica,sans-Serif" font-size="10.00">vector</text>
</g>
<!-- Node1&#45;&gt;Node6 -->
<g id="edge5" class="edge"><title>Node1&#45;&gt;Node6</title>
<path fill="none" stroke="midnightblue" d="M331.48,-336.387C297.426,-325.181 264.512,-306.881 280.5,-280 337.203,-184.666 474.264,-143.612 537.076,-129.355"/>
<polygon fill="midnightblue" stroke="midnightblue" points="538.178,-132.697 547.201,-127.145 536.685,-125.858 538.178,-132.697"/>
</g>
<!-- Node7 -->
<g id="node7" class="node"><title>Node7</title>
<polygon fill="none" stroke="#bfbfbf" points="289.5,-280.5 289.5,-299.5 381.5,-299.5 381.5,-280.5 289.5,-280.5"/>
<text text-anchor="middle" x="335.5" y="-287.5" font-family="Helvetica,sans-Serif" font-size="10.00">Common/Timer.h</text>
</g>
<!-- Node1&#45;&gt;Node7 -->
<g id="edge6" class="edge"><title>Node1&#45;&gt;Node7</title>
<path fill="none" stroke="midnightblue" d="M378.229,-336.399C369.924,-327.575 359.201,-316.183 350.576,-307.018"/>
<polygon fill="midnightblue" stroke="midnightblue" points="353.051,-304.541 343.648,-299.658 347.953,-309.339 353.051,-304.541"/>
</g>
<!-- Node8 -->
<g id="node8" class="node"><title>Node8</title>
<polygon fill="none" stroke="#bfbfbf" points="399.5,-280.5 399.5,-299.5 497.5,-299.5 497.5,-280.5 399.5,-280.5"/>
<text text-anchor="middle" x="448.5" y="-287.5" font-family="Helvetica,sans-Serif" font-size="10.00">Framework/Task.h</text>
</g>
<!-- Node1&#45;&gt;Node8 -->
<g id="edge7" class="edge"><title>Node1&#45;&gt;Node8</title>
<path fill="none" stroke="midnightblue" d="M405.008,-336.399C413.462,-327.575 424.375,-316.183 433.155,-307.018"/>
<polygon fill="midnightblue" stroke="midnightblue" points="435.816,-309.3 440.206,-299.658 430.761,-304.458 435.816,-309.3"/>
</g>
<!-- Node9 -->
<g id="node9" class="node"><title>Node9</title>
<polygon fill="none" stroke="#bfbfbf" points="516,-280.5 516,-299.5 633,-299.5 633,-280.5 516,-280.5"/>
<text text-anchor="middle" x="574.5" y="-287.5" font-family="Helvetica,sans-Serif" font-size="10.00">Headers/DataHeader.h</text>
</g>
<!-- Node1&#45;&gt;Node9 -->
<g id="edge8" class="edge"><title>Node1&#45;&gt;Node9</title>
<path fill="none" stroke="midnightblue" d="M434.868,-336.399C466.49,-326.118 508.833,-312.351 538.571,-302.682"/>
<polygon fill="midnightblue" stroke="midnightblue" points="539.711,-305.992 548.139,-299.571 537.547,-299.335 539.711,-305.992"/>
</g>
<!-- Node10 -->
<g id="node10" class="node"><title>Node10</title>
<g id="a_node10"><a xlink:href="CheckInterface_8h.html" target="_top" xlink:title="QualityControl/CheckInterface.h">
<polygon fill="none" stroke="black" points="0,-168.5 0,-187.5 157,-187.5 157,-168.5 0,-168.5"/>
<text text-anchor="middle" x="78.5" y="-175.5" font-family="Helvetica,sans-Serif" font-size="10.00">QualityControl/CheckInterface.h</text>
</a>
</g>
</g>
<!-- Node1&#45;&gt;Node10 -->
<g id="edge9" class="edge"><title>Node1&#45;&gt;Node10</title>
<path fill="none" stroke="midnightblue" d="M324.868,-346.988C278.701,-341.869 217.507,-329.526 171.5,-300 130.77,-273.86 100.815,-223.419 86.9958,-196.665"/>
<polygon fill="midnightblue" stroke="midnightblue" points="90.102,-195.051 82.5005,-187.671 83.8405,-198.18 90.102,-195.051"/>
</g>
<!-- Node12 -->
<g id="node12" class="node"><title>Node12</title>
<g id="a_node12"><a xlink:href="MonitorObject_8h.html" target="_top" xlink:title="QualityControl/MonitorObject.h">
<polygon fill="none" stroke="black" points="284,-112.5 284,-131.5 435,-131.5 435,-112.5 284,-112.5"/>
<text text-anchor="middle" x="359.5" y="-119.5" font-family="Helvetica,sans-Serif" font-size="10.00">QualityControl/MonitorObject.h</text>
</a>
</g>
</g>
<!-- Node1&#45;&gt;Node12 -->
<g id="edge28" class="edge"><title>Node1&#45;&gt;Node12</title>
<path fill="none" stroke="midnightblue" d="M324.979,-344.119C296.239,-337.679 265.198,-324.962 247.5,-300 206.068,-241.564 294.715,-168.256 337.785,-137.564"/>
<polygon fill="midnightblue" stroke="midnightblue" points="340.02,-140.273 346.221,-131.683 336.016,-134.531 340.02,-140.273"/>
</g>
<!-- Node16 -->
<g id="node16" class="node"><title>Node16</title>
<g id="a_node16"><a xlink:href="DatabaseInterface_8h.html" target="_top" xlink:title="QualityControl/DatabaseInterface.h">
<polygon fill="none" stroke="black" points="538.5,-168.5 538.5,-187.5 708.5,-187.5 708.5,-168.5 538.5,-168.5"/>
<text text-anchor="middle" x="623.5" y="-175.5" font-family="Helvetica,sans-Serif" font-size="10.00">QualityControl/DatabaseInterface.h</text>
</a>
</g>
</g>
<!-- Node1&#45;&gt;Node16 -->
<g id="edge22" class="edge"><title>Node1&#45;&gt;Node16</title>
<path fill="none" stroke="midnightblue" d="M458.19,-348.205C533.259,-344.055 648.323,-332.436 675.5,-300 702.531,-267.739 663.802,-219.311 639.908,-194.646"/>
<polygon fill="midnightblue" stroke="midnightblue" points="642.323,-192.112 632.773,-187.524 637.377,-197.066 642.323,-192.112"/>
</g>
<!-- Node18 -->
<g id="node18" class="node"><title>Node18</title>
<g id="a_node18"><a xlink:href="QcInfoLogger_8h.html" target="_top" xlink:title="QualityControl/QcInfoLogger.h">
<polygon fill="none" stroke="black" points="1006,-280.5 1006,-299.5 1155,-299.5 1155,-280.5 1006,-280.5"/>
<text text-anchor="middle" x="1080.5" y="-287.5" font-family="Helvetica,sans-Serif" font-size="10.00">QualityControl/QcInfoLogger.h</text>
</a>
</g>
</g>
<!-- Node1&#45;&gt;Node18 -->
<g id="edge29" class="edge"><title>Node1&#45;&gt;Node18</title>
<path fill="none" stroke="midnightblue" d="M458.19,-344.741C584.214,-333.858 857.106,-310.292 995.838,-298.311"/>
<polygon fill="midnightblue" stroke="midnightblue" points="996.335,-301.781 1006,-297.434 995.733,-294.807 996.335,-301.781"/>
</g>
<!-- Node10&#45;&gt;Node4 -->
<g id="edge10" class="edge"><title>Node10&#45;&gt;Node4</title>
<path fill="none" stroke="midnightblue" d="M82.1496,-168.329C92.3474,-145.32 123.573,-82.6634 171.5,-56 243.536,-15.9238 500.558,-11.3274 589.75,-10.9606"/>
<polygon fill="midnightblue" stroke="midnightblue" points="589.78,-14.4606 599.771,-10.9347 589.762,-7.46067 589.78,-14.4606"/>
</g>
<!-- Node11 -->
<g id="node11" class="node"><title>Node11</title>
<polygon fill="none" stroke="#bfbfbf" points="119.5,-0.5 119.5,-19.5 175.5,-19.5 175.5,-0.5 119.5,-0.5"/>
<text text-anchor="middle" x="147.5" y="-7.5" font-family="Helvetica,sans-Serif" font-size="10.00">Rtypes.h</text>
</g>
<!-- Node10&#45;&gt;Node11 -->
<g id="edge11" class="edge"><title>Node10&#45;&gt;Node11</title>
<path fill="none" stroke="midnightblue" d="M77.7368,-168.452C76.2852,-147.745 74.9109,-93.822 95.5,-56 102.189,-43.7119 113.651,-33.2443 124.114,-25.5053"/>
<polygon fill="midnightblue" stroke="midnightblue" points="126.315,-28.2385 132.541,-19.6664 122.328,-22.4847 126.315,-28.2385"/>
</g>
<!-- Node10&#45;&gt;Node12 -->
<g id="edge12" class="edge"><title>Node10&#45;&gt;Node12</title>
<path fill="none" stroke="midnightblue" d="M123.025,-168.444C172.456,-158.944 252.246,-143.611 305.278,-133.42"/>
<polygon fill="midnightblue" stroke="midnightblue" points="306.023,-136.841 315.183,-131.516 304.702,-129.967 306.023,-136.841"/>
</g>
<!-- Node15 -->
<g id="node15" class="node"><title>Node15</title>
<g id="a_node15"><a xlink:href="Quality_8h.html" target="_top" xlink:title="QualityControl/Quality.h">
<polygon fill="none" stroke="black" points="291,-56.5 291,-75.5 412,-75.5 412,-56.5 291,-56.5"/>
<text text-anchor="middle" x="351.5" y="-63.5" font-family="Helvetica,sans-Serif" font-size="10.00">QualityControl/Quality.h</text>
</a>
</g>
</g>
<!-- Node10&#45;&gt;Node15 -->
<g id="edge21" class="edge"><title>Node10&#45;&gt;Node15</title>
<path fill="none" stroke="midnightblue" d="M99.9219,-168.368C148.065,-148.97 264.96,-101.87 320.807,-79.3673"/>
<polygon fill="midnightblue" stroke="midnightblue" points="322.21,-82.5752 330.178,-75.5914 319.594,-76.0824 322.21,-82.5752"/>
</g>
<!-- Node12&#45;&gt;Node4 -->
<g id="edge13" class="edge"><title>Node12&#45;&gt;Node4</title>
<path fill="none" stroke="midnightblue" d="M435.168,-113.648C473.109,-107.538 518.692,-96.3738 555.5,-76 577.007,-64.0955 596.165,-42.9849 608.014,-28.0563"/>
<polygon fill="midnightblue" stroke="midnightblue" points="611.111,-29.768 614.403,-19.6976 605.55,-25.5169 611.111,-29.768"/>
</g>
<!-- Node12&#45;&gt;Node5 -->
<g id="edge14" class="edge"><title>Node12&#45;&gt;Node5</title>
<path fill="none" stroke="midnightblue" d="M408.884,-112.477C455.43,-104.165 527.017,-90.662 588.5,-76 589.974,-75.6486 591.481,-75.2746 593.001,-74.8864"/>
<polygon fill="midnightblue" stroke="midnightblue" points="594.214,-78.1846 602.961,-72.206 592.395,-71.4251 594.214,-78.1846"/>
</g>
<!-- Node12&#45;&gt;Node11 -->
<g id="edge15" class="edge"><title>Node12&#45;&gt;Node11</title>
<path fill="none" stroke="midnightblue" d="M302.49,-112.481C271.698,-105.974 234.05,-94.8043 204.5,-76 185.18,-63.7055 168.641,-42.9766 158.432,-28.2345"/>
<polygon fill="midnightblue" stroke="midnightblue" points="161.12,-25.9543 152.672,-19.5602 155.288,-29.8269 161.12,-25.9543"/>
</g>
<!-- Node13 -->
<g id="node13" class="node"><title>Node13</title>
<polygon fill="none" stroke="#bfbfbf" points="214,-56.5 214,-75.5 273,-75.5 273,-56.5 214,-56.5"/>
<text text-anchor="middle" x="243.5" y="-63.5" font-family="Helvetica,sans-Serif" font-size="10.00">TObject.h</text>
</g>
<!-- Node12&#45;&gt;Node13 -->
<g id="edge16" class="edge"><title>Node12&#45;&gt;Node13</title>
<path fill="none" stroke="midnightblue" d="M341.119,-112.444C322.284,-103.675 292.769,-89.9355 271.121,-79.8579"/>
<polygon fill="midnightblue" stroke="midnightblue" points="272.338,-76.5637 261.795,-75.5164 269.383,-82.9098 272.338,-76.5637"/>
</g>
<!-- Node14 -->
<g id="node14" class="node"><title>Node14</title>
<polygon fill="none" stroke="#bfbfbf" points="430.5,-56.5 430.5,-75.5 546.5,-75.5 546.5,-56.5 430.5,-56.5"/>
<text text-anchor="middle" x="488.5" y="-63.5" font-family="Helvetica,sans-Serif" font-size="10.00">Common/Exceptions.h</text>
</g>
<!-- Node12&#45;&gt;Node14 -->
<g id="edge17" class="edge"><title>Node12&#45;&gt;Node14</title>
<path fill="none" stroke="midnightblue" d="M379.94,-112.444C401.17,-103.557 434.599,-89.5632 458.755,-79.4514"/>
<polygon fill="midnightblue" stroke="midnightblue" points="460.282,-82.6064 468.155,-75.5164 457.579,-76.1493 460.282,-82.6064"/>
</g>
<!-- Node12&#45;&gt;Node15 -->
<g id="edge18" class="edge"><title>Node12&#45;&gt;Node15</title>
<path fill="none" stroke="midnightblue" d="M358.179,-112.083C357.119,-104.927 355.594,-94.6353 354.269,-85.6911"/>
<polygon fill="midnightblue" stroke="midnightblue" points="357.724,-85.1302 352.796,-75.7511 350.8,-86.1561 357.724,-85.1302"/>
</g>
<!-- Node15&#45;&gt;Node4 -->
<g id="edge20" class="edge"><title>Node15&#45;&gt;Node4</title>
<path fill="none" stroke="midnightblue" d="M394.124,-56.4435C448.665,-45.4948 541.815,-26.7954 589.851,-17.1526"/>
<polygon fill="midnightblue" stroke="midnightblue" points="590.824,-20.5272 599.939,-15.1274 589.446,-13.6641 590.824,-20.5272"/>
</g>
<!-- Node15&#45;&gt;Node11 -->
<g id="edge19" class="edge"><title>Node15&#45;&gt;Node11</title>
<path fill="none" stroke="midnightblue" d="M319.176,-56.4435C282.873,-46.834 224.015,-31.2539 185.53,-21.0667"/>
<polygon fill="midnightblue" stroke="midnightblue" points="186.294,-17.6485 175.731,-18.473 184.503,-24.4155 186.294,-17.6485"/>
</g>
<!-- Node16&#45;&gt;Node3 -->
<g id="edge24" class="edge"><title>Node16&#45;&gt;Node3</title>
<path fill="none" stroke="midnightblue" d="M644.891,-168.444C667.207,-159.517 702.403,-145.439 727.708,-135.317"/>
<polygon fill="midnightblue" stroke="midnightblue" points="729.224,-138.48 737.209,-131.516 726.624,-131.981 729.224,-138.48"/>
</g>
<!-- Node16&#45;&gt;Node4 -->
<g id="edge23" class="edge"><title>Node16&#45;&gt;Node4</title>
<path fill="none" stroke="midnightblue" d="M627.939,-168.389C637.642,-148.418 658.991,-97.4846 647.5,-56 644.708,-45.9205 638.991,-35.832 633.533,-27.7694"/>
<polygon fill="midnightblue" stroke="midnightblue" points="636.347,-25.6881 627.651,-19.6357 630.675,-29.7899 636.347,-25.6881"/>
</g>
<!-- Node16&#45;&gt;Node6 -->
<g id="edge25" class="edge"><title>Node16&#45;&gt;Node6</title>
<path fill="none" stroke="midnightblue" d="M614.583,-168.083C606.72,-160.22 595.069,-148.569 585.581,-139.081"/>
<polygon fill="midnightblue" stroke="midnightblue" points="587.797,-136.347 578.251,-131.751 582.847,-141.297 587.797,-136.347"/>
</g>
<!-- Node16&#45;&gt;Node12 -->
<g id="edge27" class="edge"><title>Node16&#45;&gt;Node12</title>
<path fill="none" stroke="midnightblue" d="M581.668,-168.444C535.421,-158.984 460.888,-143.738 411.064,-133.547"/>
<polygon fill="midnightblue" stroke="midnightblue" points="411.634,-130.091 401.136,-131.516 410.232,-136.949 411.634,-130.091"/>
</g>
<!-- Node17 -->
<g id="node17" class="node"><title>Node17</title>
<polygon fill="none" stroke="#bfbfbf" points="1150,-56.5 1150,-75.5 1233,-75.5 1233,-56.5 1150,-56.5"/>
<text text-anchor="middle" x="1191.5" y="-63.5" font-family="Helvetica,sans-Serif" font-size="10.00">unordered_map</text>
</g>
<!-- Node16&#45;&gt;Node17 -->
<g id="edge26" class="edge"><title>Node16&#45;&gt;Node17</title>
<path fill="none" stroke="midnightblue" d="M633.14,-168.396C650.046,-153.876 686.75,-124.839 723.5,-112 799.193,-85.555 1034.33,-73.1969 1139.61,-68.8789"/>
<polygon fill="midnightblue" stroke="midnightblue" points="1139.83,-72.3728 1149.68,-68.474 1139.55,-65.3785 1139.83,-72.3728"/>
</g>
<!-- Node19 -->
<g id="node19" class="node"><title>Node19</title>
<polygon fill="none" stroke="#bfbfbf" points="1173.5,-224.5 1173.5,-243.5 1303.5,-243.5 1303.5,-224.5 1173.5,-224.5"/>
<text text-anchor="middle" x="1238.5" y="-231.5" font-family="Helvetica,sans-Serif" font-size="10.00">InfoLogger/InfoLogger.hxx</text>
</g>
<!-- Node18&#45;&gt;Node19 -->
<g id="edge30" class="edge"><title>Node18&#45;&gt;Node19</title>
<path fill="none" stroke="midnightblue" d="M1105.54,-280.444C1132.12,-271.359 1174.31,-256.939 1204.02,-246.783"/>
<polygon fill="midnightblue" stroke="midnightblue" points="1205.25,-250.062 1213.58,-243.516 1202.99,-243.439 1205.25,-250.062"/>
</g>
<!-- Node20 -->
<g id="node20" class="node"><title>Node20</title>
<g id="a_node20"><a xlink:href="TaskInterface_8h.html" target="_top" xlink:title="QualityControl/TaskInterface.h">
<polygon fill="none" stroke="black" points="1005.5,-224.5 1005.5,-243.5 1155.5,-243.5 1155.5,-224.5 1005.5,-224.5"/>
<text text-anchor="middle" x="1080.5" y="-231.5" font-family="Helvetica,sans-Serif" font-size="10.00">QualityControl/TaskInterface.h</text>
</a>
</g>
</g>
<!-- Node18&#45;&gt;Node20 -->
<g id="edge31" class="edge"><title>Node18&#45;&gt;Node20</title>
<path fill="none" stroke="midnightblue" d="M1080.5,-280.083C1080.5,-273.006 1080.5,-262.861 1080.5,-253.986"/>
<polygon fill="midnightblue" stroke="midnightblue" points="1084,-253.751 1080.5,-243.751 1077,-253.751 1084,-253.751"/>
</g>
<!-- Node20&#45;&gt;Node3 -->
<g id="edge33" class="edge"><title>Node20&#45;&gt;Node3</title>
<path fill="none" stroke="midnightblue" d="M1005.19,-228.053C933.396,-222.096 831.486,-210.023 798.5,-188 782.006,-176.988 771.126,-156.634 764.933,-141.626"/>
<polygon fill="midnightblue" stroke="midnightblue" points="768.049,-139.969 761.239,-131.852 761.501,-142.444 768.049,-139.969"/>
</g>
<!-- Node20&#45;&gt;Node4 -->
<g id="edge34" class="edge"><title>Node20&#45;&gt;Node4</title>
<path fill="none" stroke="midnightblue" d="M1152.76,-224.474C1226.3,-215.214 1331.57,-200.123 1346.5,-188 1373.8,-165.833 1386.35,-142.3 1368.5,-112 1342.45,-67.7736 1316.72,-70.5712 1267.5,-56 1149.95,-21.1978 764.275,-13.0428 651.645,-11.3828"/>
<polygon fill="midnightblue" stroke="midnightblue" points="651.37,-7.87868 641.321,-11.2378 651.271,-14.878 651.37,-7.87868"/>
</g>
<!-- Node20&#45;&gt;Node5 -->
<g id="edge32" class="edge"><title>Node20&#45;&gt;Node5</title>
<path fill="none" stroke="midnightblue" d="M1005.38,-226.825C942.357,-220.327 858.439,-208.182 831.5,-188 801.276,-165.357 822.845,-135.77 793.5,-112 751.029,-77.5982 685.117,-69.2325 648.117,-67.3613"/>
<polygon fill="midnightblue" stroke="midnightblue" points="648.182,-63.8613 638.056,-66.9782 647.915,-70.8562 648.182,-63.8613"/>
</g>
<!-- Node20&#45;&gt;Node17 -->
<g id="edge35" class="edge"><title>Node20&#45;&gt;Node17</title>
<path fill="none" stroke="midnightblue" d="M1154.83,-224.471C1224.36,-215.728 1319.19,-201.533 1330.5,-188 1336.2,-181.181 1335.81,-175.131 1330.5,-168 1297.26,-123.327 1249.73,-171.512 1210.5,-132 1198.47,-119.887 1193.98,-100.607 1192.34,-86.1847"/>
<polygon fill="midnightblue" stroke="midnightblue" points="1195.8,-85.5923 1191.55,-75.8899 1188.82,-86.1287 1195.8,-85.5923"/>
</g>
<!-- Node21 -->
<g id="node21" class="node"><title>Node21</title>
<polygon fill="none" stroke="#bfbfbf" points="1416,-168.5 1416,-187.5 1541,-187.5 1541,-168.5 1416,-168.5"/>
<text text-anchor="middle" x="1478.5" y="-175.5" font-family="Helvetica,sans-Serif" font-size="10.00">Framework/InitContext.h</text>
</g>
<!-- Node20&#45;&gt;Node21 -->
<g id="edge36" class="edge"><title>Node20&#45;&gt;Node21</title>
<path fill="none" stroke="midnightblue" d="M1143.56,-224.444C1214.74,-214.786 1330.36,-199.099 1405.42,-188.916"/>
<polygon fill="midnightblue" stroke="midnightblue" points="1406.29,-192.329 1415.73,-187.516 1405.35,-185.393 1406.29,-192.329"/>
</g>
<!-- Node22 -->
<g id="node22" class="node"><title>Node22</title>
<polygon fill="none" stroke="#bfbfbf" points="840.5,-168.5 840.5,-187.5 1000.5,-187.5 1000.5,-168.5 840.5,-168.5"/>
<text text-anchor="middle" x="920.5" y="-175.5" font-family="Helvetica,sans-Serif" font-size="10.00">Framework/ProcessingContext.h</text>
</g>
<!-- Node20&#45;&gt;Node22 -->
<g id="edge37" class="edge"><title>Node20&#45;&gt;Node22</title>
<path fill="none" stroke="midnightblue" d="M1055.15,-224.444C1028.23,-215.359 985.504,-200.939 955.413,-190.783"/>
<polygon fill="midnightblue" stroke="midnightblue" points="956.328,-187.398 945.734,-187.516 954.09,-194.031 956.328,-187.398"/>
</g>
<!-- Node23 -->
<g id="node23" class="node"><title>Node23</title>
<g id="a_node23"><a xlink:href="Activity_8h.html" target="_top" xlink:title="QualityControl/Activity.h">
<polygon fill="none" stroke="black" points="1019,-168.5 1019,-187.5 1142,-187.5 1142,-168.5 1019,-168.5"/>
<text text-anchor="middle" x="1080.5" y="-175.5" font-family="Helvetica,sans-Serif" font-size="10.00">QualityControl/Activity.h</text>
</a>
</g>
</g>
<!-- Node20&#45;&gt;Node23 -->
<g id="edge38" class="edge"><title>Node20&#45;&gt;Node23</title>
<path fill="none" stroke="midnightblue" d="M1080.5,-224.083C1080.5,-217.006 1080.5,-206.861 1080.5,-197.986"/>
<polygon fill="midnightblue" stroke="midnightblue" points="1084,-197.751 1080.5,-187.751 1077,-197.751 1084,-197.751"/>
</g>
<!-- Node24 -->
<g id="node24" class="node"><title>Node24</title>
<g id="a_node24"><a xlink:href="ObjectsManager_8h.html" target="_top" xlink:title="QualityControl/ObjectsManager.h">
<polygon fill="none" stroke="black" points="1160,-168.5 1160,-187.5 1321,-187.5 1321,-168.5 1160,-168.5"/>
<text text-anchor="middle" x="1240.5" y="-175.5" font-family="Helvetica,sans-Serif" font-size="10.00">QualityControl/ObjectsManager.h</text>
</a>
</g>
</g>
<!-- Node20&#45;&gt;Node24 -->
<g id="edge39" class="edge"><title>Node20&#45;&gt;Node24</title>
<path fill="none" stroke="midnightblue" d="M1105.85,-224.444C1132.77,-215.359 1175.5,-200.939 1205.59,-190.783"/>
<polygon fill="midnightblue" stroke="midnightblue" points="1206.91,-194.031 1215.27,-187.516 1204.67,-187.398 1206.91,-194.031"/>
</g>
<!-- Node24&#45;&gt;Node3 -->
<g id="edge46" class="edge"><title>Node24&#45;&gt;Node3</title>
<path fill="none" stroke="midnightblue" d="M1164.39,-168.473C1059.12,-156.679 873.201,-135.85 794.89,-127.077"/>
<polygon fill="midnightblue" stroke="midnightblue" points="794.902,-123.556 784.574,-125.921 794.122,-130.513 794.902,-123.556"/>
</g>
<!-- Node24&#45;&gt;Node4 -->
<g id="edge45" class="edge"><title>Node24&#45;&gt;Node4</title>
<path fill="none" stroke="midnightblue" d="M1208.47,-168.425C1101.31,-139.733 756.158,-47.3214 651.117,-19.1975"/>
<polygon fill="midnightblue" stroke="midnightblue" points="651.729,-15.738 641.164,-16.5326 649.918,-22.4999 651.729,-15.738"/>
</g>
<!-- Node24&#45;&gt;Node12 -->
<g id="edge40" class="edge"><title>Node24&#45;&gt;Node12</title>
<path fill="none" stroke="midnightblue" d="M1159.98,-168.698C1157.12,-168.453 1154.29,-168.22 1151.5,-168 1016.47,-157.341 621.339,-136.494 445.549,-127.409"/>
<polygon fill="midnightblue" stroke="midnightblue" points="445.475,-123.9 435.308,-126.88 445.114,-130.891 445.475,-123.9"/>
</g>
<!-- Node24&#45;&gt;Node15 -->
<g id="edge41" class="edge"><title>Node24&#45;&gt;Node15</title>
<path fill="none" stroke="midnightblue" d="M1187.63,-168.473C1104.08,-155.19 936.359,-129.289 793.5,-112 631.818,-92.4327 588.251,-94.5023 422.26,-76.0493"/>
<polygon fill="midnightblue" stroke="midnightblue" points="422.52,-72.5566 412.192,-74.9217 421.741,-79.5131 422.52,-72.5566"/>
</g>
<!-- Node25 -->
<g id="node25" class="node"><title>Node25</title>
<g id="a_node25"><a xlink:href="TaskConfig_8h.html" target="_top" xlink:title="QualityControl/TaskConfig.h">
<polygon fill="none" stroke="black" points="1219.5,-112.5 1219.5,-131.5 1359.5,-131.5 1359.5,-112.5 1219.5,-112.5"/>
<text text-anchor="middle" x="1289.5" y="-119.5" font-family="Helvetica,sans-Serif" font-size="10.00">QualityControl/TaskConfig.h</text>
</a>
</g>
</g>
<!-- Node24&#45;&gt;Node25 -->
<g id="edge42" class="edge"><title>Node24&#45;&gt;Node25</title>
<path fill="none" stroke="midnightblue" d="M1248.59,-168.083C1255.66,-160.298 1266.09,-148.801 1274.65,-139.367"/>
<polygon fill="midnightblue" stroke="midnightblue" points="1277.43,-141.509 1281.56,-131.751 1272.25,-136.805 1277.43,-141.509"/>
</g>
<!-- Node25&#45;&gt;Node4 -->
<g id="edge43" class="edge"><title>Node25&#45;&gt;Node4</title>
<path fill="none" stroke="midnightblue" d="M1286.15,-112.376C1280,-97.8263 1265.37,-68.746 1242.5,-56 1190.57,-27.056 769.877,-14.6529 651.431,-11.7137"/>
<polygon fill="midnightblue" stroke="midnightblue" points="651.324,-8.21018 641.242,-11.4659 651.154,-15.2081 651.324,-8.21018"/>
</g>
<!-- Node25&#45;&gt;Node17 -->
<g id="edge44" class="edge"><title>Node25&#45;&gt;Node17</title>
<path fill="none" stroke="midnightblue" d="M1273.75,-112.324C1258.18,-103.743 1234.12,-90.486 1216.04,-80.5224"/>
<polygon fill="midnightblue" stroke="midnightblue" points="1217.65,-77.4152 1207.21,-75.6545 1214.28,-83.546 1217.65,-77.4152"/>
</g>
</g>
</svg>
        <g id="navigator" transform="translate(0 0)" fill="#404254">
                <rect fill="#f2f5e9" fill-opacity="0.5" stroke="#606060" stroke-width=".5" x="0" y="0" width="60" height="60"/>
                <use id="zoomplus" xlink:href="#zoomPlus" x="17" y="9" onmousedown="handleZoom(evt,'in')"/>
                <use id="zoomminus" xlink:href="#zoomMin" x="42" y="9" onmousedown="handleZoom(evt,'out')"/>
                <use id="reset" xlink:href="#resetDef" x="30" y="36" onmousedown="handleReset()"/>
                <g id="arrowUp" xlink:href="#dirArrow" transform="translate(30 24)" onmousedown="handlePan(0,-1)">
                  <use xlink:href="#rim" fill="#404040">
                        <set attributeName="fill" to="#808080" begin="arrowUp.mouseover" end="arrowUp.mouseout"/>
                  </use>
                  <path fill="none" stroke="white" stroke-width="1.5" d="M0,-3.0v7 M-2.5,-0.5L0,-3.0L2.5,-0.5"/>
                </g>
                <g id="arrowRight" xlink:href="#dirArrow" transform="rotate(90) translate(36 -43)" onmousedown="handlePan(1,0)">
                  <use xlink:href="#rim" fill="#404040">
                        <set attributeName="fill" to="#808080" begin="arrowRight.mouseover" end="arrowRight.mouseout"/>
                  </use>
                  <path fill="none" stroke="white" stroke-width="1.5" d="M0,-3.0v7 M-2.5,-0.5L0,-3.0L2.5,-0.5"/>
                </g>
                <g id="arrowDown" xlink:href="#dirArrow" transform="rotate(180) translate(-30 -48)" onmousedown="handlePan(0,1)">
                  <use xlink:href="#rim" fill="#404040">
                        <set attributeName="fill" to="#808080" begin="arrowDown.mouseover" end="arrowDown.mouseout"/>
                  </use>
                  <path fill="none" stroke="white" stroke-width="1.5" d="M0,-3.0v7 M-2.5,-0.5L0,-3.0L2.5,-0.5"/>
                </g>
                <g id="arrowLeft" xlink:href="#dirArrow" transform="rotate(270) translate(-36 17)" onmousedown="handlePan(-1,0)">
                  <use xlink:href="#rim" fill="#404040">
                        <set attributeName="fill" to="#808080" begin="arrowLeft.mouseover" end="arrowLeft.mouseout"/>
                  </use>
                  <path fill="none" stroke="white" stroke-width="1.5" d="M0,-3.0v7 M-2.5,-0.5L0,-3.0L2.5,-0.5"/>
                </g>
        </g>
        <svg viewBox="0 0 15 15" width="100%" height="30px" preserveAspectRatio="xMaxYMin meet">
         <g id="arrow_out" transform="scale(0.3 0.3)">
          <a xlink:href="Checker_8h__incl_org.svg" target="_base">
           <rect id="button" ry="5" rx="5" y="6" x="6" height="38" width="38"
                fill="#f2f5e9" fill-opacity="0.5" stroke="#606060" stroke-width="1.0"/>
           <path id="arrow"
             d="M 11.500037,31.436501 C 11.940474,20.09759 22.043105,11.32322 32.158766,21.979434 L 37.068811,17.246167 C 37.068811,17.246167 37.088388,32 37.088388,32 L 22.160133,31.978069 C 22.160133,31.978069 26.997745,27.140456 26.997745,27.140456 C 18.528582,18.264221 13.291696,25.230495 11.500037,31.436501 z"
             style="fill:#404040;"/>
          </a>
         </g>
        </svg>
</svg>
