<?xml version="1.0" encoding="UTF-8" standalone="no"?>
<!DOCTYPE svg PUBLIC "-//W3C//DTD SVG 1.1//EN"
 "http://www.w3.org/Graphics/SVG/1.1/DTD/svg11.dtd">
<!-- Generated by graphviz version 2.38.0 (20140413.2041)
 -->
<!-- Title: Framework/include/QualityControl/CheckInterface.h Pages: 1 -->
<svg width="493pt" height="207pt"
 viewBox="0.00 0.00 493.36 207.00" xmlns="http://www.w3.org/2000/svg" xmlns:xlink="http://www.w3.org/1999/xlink">
<g id="graph0" class="graph" transform="scale(1 1) rotate(0) translate(4 203)">
<title>Framework/include/QualityControl/CheckInterface.h</title>
<!-- Node1 -->
<g id="node1" class="node"><title>Node1</title>
<polygon fill="#bfbfbf" stroke="black" points="271,-168.5 271,-198.5 404,-198.5 404,-168.5 271,-168.5"/>
<text text-anchor="start" x="279" y="-186.5" font-family="Helvetica,sans-Serif" font-size="10.00">Framework/include/Quality</text>
<text text-anchor="middle" x="337.5" y="-175.5" font-family="Helvetica,sans-Serif" font-size="10.00">Control/CheckInterface.h</text>
</g>
<!-- Node2 -->
<g id="node2" class="node"><title>Node2</title>
<polygon fill="none" stroke="#bfbfbf" points="0,-0.5 0,-19.5 41,-19.5 41,-0.5 0,-0.5"/>
<text text-anchor="middle" x="20.5" y="-7.5" font-family="Helvetica,sans-Serif" font-size="10.00">string</text>
</g>
<!-- Node1&#45;&gt;Node2 -->
<g id="edge1" class="edge"><title>Node1&#45;&gt;Node2</title>
<path fill="none" stroke="midnightblue" d="M270.988,-180.689C197.307,-174.736 81.2914,-152.821 23.5,-76 13.64,-62.8932 13.999,-43.7462 16.1573,-29.6259"/>
<polygon fill="midnightblue" stroke="midnightblue" points="19.6354,-30.0758 18.1131,-19.5909 12.7647,-28.7366 19.6354,-30.0758"/>
</g>
<!-- Node3 -->
<g id="node3" class="node"><title>Node3</title>
<polygon fill="none" stroke="#bfbfbf" points="385.5,-0.5 385.5,-19.5 441.5,-19.5 441.5,-0.5 385.5,-0.5"/>
<text text-anchor="middle" x="413.5" y="-7.5" font-family="Helvetica,sans-Serif" font-size="10.00">Rtypes.h</text>
</g>
<!-- Node1&#45;&gt;Node3 -->
<g id="edge2" class="edge"><title>Node1&#45;&gt;Node3</title>
<path fill="none" stroke="midnightblue" d="M372.224,-168.379C407.329,-151.99 459.575,-121.283 482.5,-76 493.607,-54.0616 468.244,-35.5899 445.199,-24.0114"/>
<polygon fill="midnightblue" stroke="midnightblue" points="446.445,-20.7291 435.907,-19.6271 443.458,-27.0598 446.445,-20.7291"/>
</g>
<!-- Node4 -->
<g id="node4" class="node"><title>Node4</title>
<g id="a_node4"><a xlink:href="MonitorObject_8h.html" target="_top" xlink:title="QualityControl/MonitorObject.h">
<polygon fill="none" stroke="black" points="203,-112.5 203,-131.5 354,-131.5 354,-112.5 203,-112.5"/>
<text text-anchor="middle" x="278.5" y="-119.5" font-family="Helvetica,sans-Serif" font-size="10.00">QualityControl/MonitorObject.h</text>
</a>
</g>
</g>
<!-- Node1&#45;&gt;Node4 -->
<g id="edge3" class="edge"><title>Node1&#45;&gt;Node4</title>
<path fill="none" stroke="midnightblue" d="M323.518,-168.399C314.768,-159.575 303.471,-148.183 294.383,-139.018"/>
<polygon fill="midnightblue" stroke="midnightblue" points="296.612,-136.294 287.085,-131.658 291.641,-141.223 296.612,-136.294"/>
</g>
<!-- Node8 -->
<g id="node8" class="node"><title>Node8</title>
<g id="a_node8"><a xlink:href="Quality_8h.html" target="_top" xlink:title="QualityControl/Quality.h">
<polygon fill="none" stroke="black" points="353,-56.5 353,-75.5 474,-75.5 474,-56.5 353,-56.5"/>
<text text-anchor="middle" x="413.5" y="-63.5" font-family="Helvetica,sans-Serif" font-size="10.00">QualityControl/Quality.h</text>
</a>
</g>
</g>
<!-- Node1&#45;&gt;Node8 -->
<g id="edge12" class="edge"><title>Node1&#45;&gt;Node8</title>
<path fill="none" stroke="midnightblue" d="M346.819,-168.337C360.824,-147.054 387.254,-106.887 402.291,-84.0346"/>
<polygon fill="midnightblue" stroke="midnightblue" points="405.222,-85.9471 407.795,-75.6695 399.375,-82.0993 405.222,-85.9471"/>
</g>
<!-- Node4&#45;&gt;Node2 -->
<g id="edge4" class="edge"><title>Node4&#45;&gt;Node2</title>
<path fill="none" stroke="midnightblue" d="M202.783,-115.303C142.028,-109.216 63.1209,-97.4065 39.5,-76 26.5876,-64.2981 22.2581,-44.3574 20.9013,-29.6408"/>
<polygon fill="midnightblue" stroke="midnightblue" points="24.3946,-29.4207 20.3503,-19.6282 17.4052,-29.8054 24.3946,-29.4207"/>
</g>
<!-- Node4&#45;&gt;Node3 -->
<g id="edge6" class="edge"><title>Node4&#45;&gt;Node3</title>
<path fill="none" stroke="midnightblue" d="M285.985,-112.415C297.573,-99.3904 320.885,-74.2267 343.5,-56 357.849,-44.4351 375.279,-33.2224 389.156,-24.8823"/>
<polygon fill="midnightblue" stroke="midnightblue" points="391.279,-27.6935 398.114,-19.5984 387.723,-21.6642 391.279,-27.6935"/>
</g>
<!-- Node5 -->
<g id="node5" class="node"><title>Node5</title>
<polygon fill="none" stroke="#bfbfbf" points="261,-56.5 261,-75.5 296,-75.5 296,-56.5 261,-56.5"/>
<text text-anchor="middle" x="278.5" y="-63.5" font-family="Helvetica,sans-Serif" font-size="10.00">map</text>
</g>
<!-- Node4&#45;&gt;Node5 -->
<g id="edge5" class="edge"><title>Node4&#45;&gt;Node5</title>
<path fill="none" stroke="midnightblue" d="M278.5,-112.083C278.5,-105.006 278.5,-94.8611 278.5,-85.9865"/>
<polygon fill="midnightblue" stroke="midnightblue" points="282,-85.751 278.5,-75.7511 275,-85.7511 282,-85.751"/>
</g>
<!-- Node6 -->
<g id="node6" class="node"><title>Node6</title>
<polygon fill="none" stroke="#bfbfbf" points="49,-56.5 49,-75.5 108,-75.5 108,-56.5 49,-56.5"/>
<text text-anchor="middle" x="78.5" y="-63.5" font-family="Helvetica,sans-Serif" font-size="10.00">TObject.h</text>
</g>
<!-- Node4&#45;&gt;Node6 -->
<g id="edge7" class="edge"><title>Node4&#45;&gt;Node6</title>
<path fill="none" stroke="midnightblue" d="M246.809,-112.444C211.974,-103.038 155.954,-87.9127 118.214,-77.7227"/>
<polygon fill="midnightblue" stroke="midnightblue" points="118.653,-74.216 108.086,-74.9883 116.828,-80.974 118.653,-74.216"/>
</g>
<!-- Node7 -->
<g id="node7" class="node"><title>Node7</title>
<polygon fill="none" stroke="#bfbfbf" points="126.5,-56.5 126.5,-75.5 242.5,-75.5 242.5,-56.5 126.5,-56.5"/>
<text text-anchor="middle" x="184.5" y="-63.5" font-family="Helvetica,sans-Serif" font-size="10.00">Common/Exceptions.h</text>
</g>
<!-- Node4&#45;&gt;Node7 -->
<g id="edge8" class="edge"><title>Node4&#45;&gt;Node7</title>
<path fill="none" stroke="midnightblue" d="M263.397,-112.324C248.597,-103.822 225.806,-90.7288 208.518,-80.7975"/>
<polygon fill="midnightblue" stroke="midnightblue" points="209.98,-77.6009 199.565,-75.6545 206.493,-83.6707 209.98,-77.6009"/>
</g>
<!-- Node4&#45;&gt;Node8 -->
<g id="edge9" class="edge"><title>Node4&#45;&gt;Node8</title>
<path fill="none" stroke="midnightblue" d="M299.891,-112.444C322.207,-103.517 357.403,-89.4387 382.708,-79.3168"/>
<polygon fill="midnightblue" stroke="midnightblue" points="384.224,-82.4801 392.209,-75.5164 381.624,-75.9807 384.224,-82.4801"/>
</g>
<!-- Node8&#45;&gt;Node2 -->
<g id="edge11" class="edge"><title>Node8&#45;&gt;Node2</title>
<path fill="none" stroke="midnightblue" d="M352.955,-56.6808C267.905,-44.9945 116.205,-24.1502 51.3192,-15.2347"/>
<polygon fill="midnightblue" stroke="midnightblue" points="51.6996,-11.7542 41.3163,-13.8602 50.7467,-18.689 51.6996,-11.7542"/>
</g>
<!-- Node8&#45;&gt;Node3 -->
<g id="edge10" class="edge"><title>Node8&#45;&gt;Node3</title>
<path fill="none" stroke="midnightblue" d="M413.5,-56.083C413.5,-49.0059 413.5,-38.8611 413.5,-29.9865"/>
<polygon fill="midnightblue" stroke="midnightblue" points="417,-29.751 413.5,-19.7511 410,-29.7511 417,-29.751"/>
</g>
</g>
</svg>
