<?xml version="1.0" encoding="UTF-8" standalone="no"?>
<!DOCTYPE svg PUBLIC "-//W3C//DTD SVG 1.1//EN"
 "http://www.w3.org/Graphics/SVG/1.1/DTD/svg11.dtd">
<!-- Generated by graphviz version 2.38.0 (20140413.2041)
 -->
<!-- Title: Framework/src/Checker.cxx Pages: 1 -->
<!--zoomable 431 -->
<svg id="main" version="1.1" xmlns="http://www.w3.org/2000/svg" xmlns:xlink="http://www.w3.org/1999/xlink" xml:space="preserve" onload="init(evt)">
<style type="text/css"><![CDATA[
.edge:hover path { stroke: red; }
.edge:hover polygon { stroke: red; fill: red; }
]]></style>
<script type="text/javascript"><![CDATA[
var edges = document.getElementsByTagName('g');
if (edges && edges.length) {
  for (var i=0;i<edges.length;i++) {
    if (edges[i].id.substr(0,4)=='edge') {
      edges[i].setAttribute('class','edge');
    }
  }
}
]]></script>
        <defs>
                <circle id="rim" cx="0" cy="0" r="7"/>
                <circle id="rim2" cx="0" cy="0" r="3.5"/>
                <g id="zoomPlus">
                        <use xlink:href="#rim" fill="#404040">
                                <set attributeName="fill" to="#808080" begin="zoomplus.mouseover" end="zoomplus.mouseout"/>
                        </use>
                        <path d="M-4,0h8M0,-4v8" fill="none" stroke="white" stroke-width="1.5" pointer-events="none"/>
                </g>
                <g id="zoomMin">
                        <use xlink:href="#rim" fill="#404040">
                                <set attributeName="fill" to="#808080" begin="zoomminus.mouseover" end="zoomminus.mouseout"/>
                        </use>
                        <path d="M-4,0h8" fill="none" stroke="white" stroke-width="1.5" pointer-events="none"/>
                </g>
                <g id="dirArrow">
                        <path fill="none" stroke="white" stroke-width="1.5" d="M0,-3.0v7 M-2.5,-0.5L0,-3.0L2.5,-0.5"/>
                </g>
               <g id="resetDef">
                       <use xlink:href="#rim2" fill="#404040">
                               <set attributeName="fill" to="#808080" begin="reset.mouseover" end="reset.mouseout"/>
                       </use>
               </g>
        </defs>

<script type="text/javascript">
var viewWidth = 2569;
var viewHeight = 431;
var sectionId = 'dynsection-0';
</script>
<script xlink:href="svgpan.js"/>
<svg id="graph" class="graph">
<g id="viewport">
<title>Framework/src/Checker.cxx</title>
<!-- Node1 -->
<g id="node1" class="node"><title>Node1</title>
<polygon fill="#bfbfbf" stroke="black" points="1688.5,-403.5 1688.5,-422.5 1828.5,-422.5 1828.5,-403.5 1688.5,-403.5"/>
<text text-anchor="middle" x="1758.5" y="-410.5" font-family="Helvetica,sans-Serif" font-size="10.00">Framework/src/Checker.cxx</text>
</g>
<!-- Node2 -->
<g id="node2" class="node"><title>Node2</title>
<g id="a_node2"><a xlink:href="Checker_8h.html" target="_top" xlink:title="QualityControl/Checker.h">
<polygon fill="none" stroke="black" points="513,-342 513,-361 640,-361 640,-342 513,-342"/>
<text text-anchor="middle" x="576.5" y="-349" font-family="Helvetica,sans-Serif" font-size="10.00">QualityControl/Checker.h</text>
</a>
</g>
</g>
<!-- Node1&#45;&gt;Node2 -->
<g id="edge1" class="edge"><title>Node1&#45;&gt;Node2</title>
<path fill="none" stroke="midnightblue" d="M1688.1,-408.456C1479.18,-397.939 864.005,-366.973 650.497,-356.225"/>
<polygon fill="midnightblue" stroke="midnightblue" points="650.498,-352.721 640.334,-355.713 650.146,-359.712 650.498,-352.721"/>
</g>
<!-- Node15 -->
<g id="node15" class="node"><title>Node15</title>
<polygon fill="none" stroke="#bfbfbf" points="981.5,-56.5 981.5,-75.5 1097.5,-75.5 1097.5,-56.5 981.5,-56.5"/>
<text text-anchor="middle" x="1039.5" y="-63.5" font-family="Helvetica,sans-Serif" font-size="10.00">Common/Exceptions.h</text>
</g>
<!-- Node1&#45;&gt;Node15 -->
<g id="edge50" class="edge"><title>Node1&#45;&gt;Node15</title>
<path fill="none" stroke="midnightblue" d="M1708.12,-403.451C1685.11,-397.075 1659.29,-386.034 1642.5,-367 1619.47,-340.89 1623.5,-325.817 1623.5,-291 1623.5,-291 1623.5,-291 1623.5,-233 1623.5,-155.679 1568.67,-144.474 1498.5,-112 1463.95,-96.0092 1227.35,-78.9388 1108.02,-71.2206"/>
<polygon fill="midnightblue" stroke="midnightblue" points="1108.1,-67.7184 1097.9,-70.5698 1107.65,-74.7039 1108.1,-67.7184"/>
</g>
<!-- Node27 -->
<g id="node27" class="node"><title>Node27</title>
<polygon fill="none" stroke="#bfbfbf" points="1651.5,-342 1651.5,-361 1707.5,-361 1707.5,-342 1651.5,-342"/>
<text text-anchor="middle" x="1679.5" y="-349" font-family="Helvetica,sans-Serif" font-size="10.00">TClass.h</text>
</g>
<!-- Node1&#45;&gt;Node27 -->
<g id="edge48" class="edge"><title>Node1&#45;&gt;Node27</title>
<path fill="none" stroke="midnightblue" d="M1747.18,-403.475C1734.63,-394.02 1714.15,-378.596 1699,-367.187"/>
<polygon fill="midnightblue" stroke="midnightblue" points="1700.89,-364.23 1690.8,-361.009 1696.68,-369.821 1700.89,-364.23"/>
</g>
<!-- Node28 -->
<g id="node28" class="node"><title>Node28</title>
<polygon fill="none" stroke="#bfbfbf" points="1726,-342 1726,-361 1791,-361 1791,-342 1726,-342"/>
<text text-anchor="middle" x="1758.5" y="-349" font-family="Helvetica,sans-Serif" font-size="10.00">TSystem.h</text>
</g>
<!-- Node1&#45;&gt;Node28 -->
<g id="edge49" class="edge"><title>Node1&#45;&gt;Node28</title>
<path fill="none" stroke="midnightblue" d="M1758.5,-403.475C1758.5,-395.08 1758.5,-381.981 1758.5,-371.163"/>
<polygon fill="midnightblue" stroke="midnightblue" points="1762,-371.009 1758.5,-361.009 1755,-371.009 1762,-371.009"/>
</g>
<!-- Node29 -->
<g id="node29" class="node"><title>Node29</title>
<polygon fill="none" stroke="#bfbfbf" points="1809,-336.5 1809,-366.5 1944,-366.5 1944,-336.5 1809,-336.5"/>
<text text-anchor="start" x="1817" y="-354.5" font-family="Helvetica,sans-Serif" font-size="10.00">Configuration/Configuration</text>
<text text-anchor="middle" x="1876.5" y="-343.5" font-family="Helvetica,sans-Serif" font-size="10.00">Factory.h</text>
</g>
<!-- Node1&#45;&gt;Node29 -->
<g id="edge51" class="edge"><title>Node1&#45;&gt;Node29</title>
<path fill="none" stroke="midnightblue" d="M1775.41,-403.475C1792.06,-395.078 1818.05,-381.973 1839.51,-371.153"/>
<polygon fill="midnightblue" stroke="midnightblue" points="1841.34,-374.151 1848.69,-366.523 1838.18,-367.9 1841.34,-374.151"/>
</g>
<!-- Node30 -->
<g id="node30" class="node"><title>Node30</title>
<polygon fill="none" stroke="#bfbfbf" points="1962.5,-342 1962.5,-361 2096.5,-361 2096.5,-342 1962.5,-342"/>
<text text-anchor="middle" x="2029.5" y="-349" font-family="Helvetica,sans-Serif" font-size="10.00">Framework/DataRefUtils.h</text>
</g>
<!-- Node1&#45;&gt;Node30 -->
<g id="edge52" class="edge"><title>Node1&#45;&gt;Node30</title>
<path fill="none" stroke="midnightblue" d="M1797.33,-403.475C1845.62,-392.871 1928.11,-374.76 1980.65,-363.224"/>
<polygon fill="midnightblue" stroke="midnightblue" points="1981.73,-366.572 1990.74,-361.009 1980.23,-359.735 1981.73,-366.572"/>
</g>
<!-- Node31 -->
<g id="node31" class="node"><title>Node31</title>
<polygon fill="none" stroke="#bfbfbf" points="2114.5,-342 2114.5,-361 2254.5,-361 2254.5,-342 2114.5,-342"/>
<text text-anchor="middle" x="2184.5" y="-349" font-family="Helvetica,sans-Serif" font-size="10.00">Framework/DataSpecUtils.h</text>
</g>
<!-- Node1&#45;&gt;Node31 -->
<g id="edge53" class="edge"><title>Node1&#45;&gt;Node31</title>
<path fill="none" stroke="midnightblue" d="M1828.77,-403.985C1898.98,-395.72 2009.92,-381.958 2105.5,-367 2113.53,-365.743 2122,-364.307 2130.29,-362.838"/>
<polygon fill="midnightblue" stroke="midnightblue" points="2131.06,-366.256 2140.28,-361.04 2129.82,-359.367 2131.06,-366.256"/>
</g>
<!-- Node32 -->
<g id="node32" class="node"><title>Node32</title>
<polygon fill="none" stroke="#bfbfbf" points="2273,-342 2273,-361 2424,-361 2424,-342 2273,-342"/>
<text text-anchor="middle" x="2348.5" y="-349" font-family="Helvetica,sans-Serif" font-size="10.00">Monitoring/MonitoringFactory.h</text>
</g>
<!-- Node1&#45;&gt;Node32 -->
<g id="edge54" class="edge"><title>Node1&#45;&gt;Node32</title>
<path fill="none" stroke="midnightblue" d="M1828.54,-407.539C1926.22,-400.913 2108.78,-387.058 2263.5,-367 2272.98,-365.772 2283.01,-364.254 2292.74,-362.669"/>
<polygon fill="midnightblue" stroke="midnightblue" points="2293.44,-366.1 2302.72,-361.001 2292.28,-359.196 2293.44,-366.1"/>
</g>
<!-- Node33 -->
<g id="node33" class="node"><title>Node33</title>
<polygon fill="none" stroke="#bfbfbf" points="2442.5,-342 2442.5,-361 2560.5,-361 2560.5,-342 2442.5,-342"/>
<text text-anchor="middle" x="2501.5" y="-349" font-family="Helvetica,sans-Serif" font-size="10.00">Monitoring/Monitoring.h</text>
</g>
<!-- Node1&#45;&gt;Node33 -->
<g id="edge55" class="edge"><title>Node1&#45;&gt;Node33</title>
<path fill="none" stroke="midnightblue" d="M1828.8,-410.631C1951.9,-407.496 2214.23,-397.527 2433.5,-367 2440.82,-365.982 2448.52,-364.622 2456.01,-363.142"/>
<polygon fill="midnightblue" stroke="midnightblue" points="2456.94,-366.522 2466.03,-361.07 2455.52,-359.667 2456.94,-366.522"/>
</g>
<!-- Node34 -->
<g id="node34" class="node"><title>Node34</title>
<g id="a_node34"><a xlink:href="DatabaseFactory_8h.html" target="_top" xlink:title="QualityControl/DatabaseFactory.h">
<polygon fill="none" stroke="black" points="256,-224.5 256,-243.5 421,-243.5 421,-224.5 256,-224.5"/>
<text text-anchor="middle" x="338.5" y="-231.5" font-family="Helvetica,sans-Serif" font-size="10.00">QualityControl/DatabaseFactory.h</text>
</a>
</g>
</g>
<!-- Node1&#45;&gt;Node34 -->
<g id="edge56" class="edge"><title>Node1&#45;&gt;Node34</title>
<path fill="none" stroke="midnightblue" d="M1688.14,-412.05C1439.98,-411.874 614.454,-408.168 503.5,-367 437.763,-342.609 378.21,-281.059 352.251,-251.432"/>
<polygon fill="midnightblue" stroke="midnightblue" points="354.743,-248.962 345.572,-243.658 349.434,-253.524 354.743,-248.962"/>
</g>
<!-- Node35 -->
<g id="node35" class="node"><title>Node35</title>
<g id="a_node35"><a xlink:href="TaskRunner_8h.html" target="_top" xlink:title="QualityControl/TaskRunner.h">
<polygon fill="none" stroke="black" points="1177,-342 1177,-361 1320,-361 1320,-342 1177,-342"/>
<text text-anchor="middle" x="1248.5" y="-349" font-family="Helvetica,sans-Serif" font-size="10.00">QualityControl/TaskRunner.h</text>
</a>
</g>
</g>
<!-- Node1&#45;&gt;Node35 -->
<g id="edge59" class="edge"><title>Node1&#45;&gt;Node35</title>
<path fill="none" stroke="midnightblue" d="M1688.39,-403.82C1594.81,-392.903 1429.41,-373.606 1330.27,-362.039"/>
<polygon fill="midnightblue" stroke="midnightblue" points="1330.63,-358.558 1320.29,-360.876 1329.82,-365.511 1330.63,-358.558"/>
</g>
<!-- Node3 -->
<g id="node3" class="node"><title>Node3</title>
<polygon fill="none" stroke="#bfbfbf" points="553.5,-280.5 553.5,-299.5 599.5,-299.5 599.5,-280.5 553.5,-280.5"/>
<text text-anchor="middle" x="576.5" y="-287.5" font-family="Helvetica,sans-Serif" font-size="10.00">chrono</text>
</g>
<!-- Node2&#45;&gt;Node3 -->
<g id="edge2" class="edge"><title>Node2&#45;&gt;Node3</title>
<path fill="none" stroke="midnightblue" d="M576.5,-341.975C576.5,-333.58 576.5,-320.481 576.5,-309.663"/>
<polygon fill="midnightblue" stroke="midnightblue" points="580,-309.509 576.5,-299.509 573,-309.509 580,-309.509"/>
</g>
<!-- Node4 -->
<g id="node4" class="node"><title>Node4</title>
<polygon fill="none" stroke="#bfbfbf" points="515.5,-112.5 515.5,-131.5 567.5,-131.5 567.5,-112.5 515.5,-112.5"/>
<text text-anchor="middle" x="541.5" y="-119.5" font-family="Helvetica,sans-Serif" font-size="10.00">memory</text>
</g>
<!-- Node2&#45;&gt;Node4 -->
<g id="edge3" class="edge"><title>Node2&#45;&gt;Node4</title>
<path fill="none" stroke="midnightblue" d="M568.963,-341.94C561.142,-332.446 549.382,-316.307 544.5,-300 527.864,-244.428 534.128,-174.585 538.568,-141.723"/>
<polygon fill="midnightblue" stroke="midnightblue" points="542.046,-142.126 540.022,-131.726 535.119,-141.118 542.046,-142.126"/>
</g>
<!-- Node5 -->
<g id="node5" class="node"><title>Node5</title>
<polygon fill="none" stroke="#bfbfbf" points="431,-0.5 431,-19.5 472,-19.5 472,-0.5 431,-0.5"/>
<text text-anchor="middle" x="451.5" y="-7.5" font-family="Helvetica,sans-Serif" font-size="10.00">string</text>
</g>
<!-- Node2&#45;&gt;Node5 -->
<g id="edge4" class="edge"><title>Node2&#45;&gt;Node5</title>
<path fill="none" stroke="midnightblue" d="M562.983,-341.835C538.085,-324.694 487.5,-283.857 487.5,-235 487.5,-235 487.5,-235 487.5,-121 487.5,-86.9816 471.756,-49.8497 461.091,-28.6"/>
<polygon fill="midnightblue" stroke="midnightblue" points="464.085,-26.7725 456.355,-19.5273 457.88,-30.0118 464.085,-26.7725"/>
</g>
<!-- Node6 -->
<g id="node6" class="node"><title>Node6</title>
<polygon fill="none" stroke="#bfbfbf" points="764,-56.5 764,-75.5 799,-75.5 799,-56.5 764,-56.5"/>
<text text-anchor="middle" x="781.5" y="-63.5" font-family="Helvetica,sans-Serif" font-size="10.00">map</text>
</g>
<!-- Node2&#45;&gt;Node6 -->
<g id="edge5" class="edge"><title>Node2&#45;&gt;Node6</title>
<path fill="none" stroke="midnightblue" d="M581.964,-341.94C588.358,-331.91 599.247,-314.78 608.5,-300 629.574,-266.337 624.424,-248.73 655.5,-224 694.431,-193.019 729.311,-225.938 761.5,-188 786.099,-159.008 786.111,-111.586 783.869,-85.5535"/>
<polygon fill="midnightblue" stroke="midnightblue" points="787.34,-85.1019 782.797,-75.5306 780.38,-85.846 787.34,-85.1019"/>
</g>
<!-- Node7 -->
<g id="node7" class="node"><title>Node7</title>
<polygon fill="none" stroke="#bfbfbf" points="415.5,-112.5 415.5,-131.5 459.5,-131.5 459.5,-112.5 415.5,-112.5"/>
<text text-anchor="middle" x="437.5" y="-119.5" font-family="Helvetica,sans-Serif" font-size="10.00">vector</text>
</g>
<!-- Node2&#45;&gt;Node7 -->
<g id="edge6" class="edge"><title>Node2&#45;&gt;Node7</title>
<path fill="none" stroke="midnightblue" d="M541.236,-341.905C518.507,-334.536 490.181,-321.591 473.5,-300 436.812,-252.512 434.858,-177.114 436.21,-142.069"/>
<polygon fill="midnightblue" stroke="midnightblue" points="439.718,-142 436.749,-131.83 432.728,-141.632 439.718,-142"/>
</g>
<!-- Node8 -->
<g id="node8" class="node"><title>Node8</title>
<polygon fill="none" stroke="#bfbfbf" points="957.5,-280.5 957.5,-299.5 1049.5,-299.5 1049.5,-280.5 957.5,-280.5"/>
<text text-anchor="middle" x="1003.5" y="-287.5" font-family="Helvetica,sans-Serif" font-size="10.00">Common/Timer.h</text>
</g>
<!-- Node2&#45;&gt;Node8 -->
<g id="edge7" class="edge"><title>Node2&#45;&gt;Node8</title>
<path fill="none" stroke="midnightblue" d="M640.245,-342.297C712.113,-332.942 832.726,-316.922 947.362,-299.987"/>
<polygon fill="midnightblue" stroke="midnightblue" points="947.99,-303.432 957.369,-298.504 946.964,-296.508 947.99,-303.432"/>
</g>
<!-- Node9 -->
<g id="node9" class="node"><title>Node9</title>
<polygon fill="none" stroke="#bfbfbf" points="1067.5,-280.5 1067.5,-299.5 1165.5,-299.5 1165.5,-280.5 1067.5,-280.5"/>
<text text-anchor="middle" x="1116.5" y="-287.5" font-family="Helvetica,sans-Serif" font-size="10.00">Framework/Task.h</text>
</g>
<!-- Node2&#45;&gt;Node9 -->
<g id="edge8" class="edge"><title>Node2&#45;&gt;Node9</title>
<path fill="none" stroke="midnightblue" d="M640.164,-344.843C730.525,-336.589 901.396,-320.152 1057.23,-300.107"/>
<polygon fill="midnightblue" stroke="midnightblue" points="1058.01,-303.536 1067.48,-298.782 1057.11,-296.594 1058.01,-303.536"/>
</g>
<!-- Node10 -->
<g id="node10" class="node"><title>Node10</title>
<polygon fill="none" stroke="#bfbfbf" points="822,-280.5 822,-299.5 939,-299.5 939,-280.5 822,-280.5"/>
<text text-anchor="middle" x="880.5" y="-287.5" font-family="Helvetica,sans-Serif" font-size="10.00">Headers/DataHeader.h</text>
</g>
<!-- Node2&#45;&gt;Node10 -->
<g id="edge9" class="edge"><title>Node2&#45;&gt;Node10</title>
<path fill="none" stroke="midnightblue" d="M620.056,-341.975C674.686,-331.283 768.312,-312.958 827.173,-301.437"/>
<polygon fill="midnightblue" stroke="midnightblue" points="827.884,-304.865 837.025,-299.509 826.539,-297.995 827.884,-304.865"/>
</g>
<!-- Node11 -->
<g id="node11" class="node"><title>Node11</title>
<g id="a_node11"><a xlink:href="CheckInterface_8h.html" target="_top" xlink:title="QualityControl/CheckInterface.h">
<polygon fill="none" stroke="black" points="0,-168.5 0,-187.5 157,-187.5 157,-168.5 0,-168.5"/>
<text text-anchor="middle" x="78.5" y="-175.5" font-family="Helvetica,sans-Serif" font-size="10.00">QualityControl/CheckInterface.h</text>
</a>
</g>
</g>
<!-- Node2&#45;&gt;Node11 -->
<g id="edge10" class="edge"><title>Node2&#45;&gt;Node11</title>
<path fill="none" stroke="midnightblue" d="M512.646,-348.48C413.553,-344.366 228.233,-332.466 171.5,-300 129.291,-275.845 99.7997,-224.124 86.4879,-196.784"/>
<polygon fill="midnightblue" stroke="midnightblue" points="89.5997,-195.176 82.1854,-187.608 83.2618,-198.148 89.5997,-195.176"/>
</g>
<!-- Node13 -->
<g id="node13" class="node"><title>Node13</title>
<g id="a_node13"><a xlink:href="MonitorObject_8h.html" target="_top" xlink:title="QualityControl/MonitorObject.h">
<polygon fill="none" stroke="black" points="170,-112.5 170,-131.5 321,-131.5 321,-112.5 170,-112.5"/>
<text text-anchor="middle" x="245.5" y="-119.5" font-family="Helvetica,sans-Serif" font-size="10.00">QualityControl/MonitorObject.h</text>
</a>
</g>
</g>
<!-- Node2&#45;&gt;Node13 -->
<g id="edge29" class="edge"><title>Node2&#45;&gt;Node13</title>
<path fill="none" stroke="midnightblue" d="M512.926,-345.302C437.627,-338.188 317.594,-323.546 279.5,-300 228.541,-268.502 220.642,-245.692 204.5,-188 202.105,-179.44 201.29,-176.289 204.5,-168 208.954,-156.498 217.868,-146.131 226.249,-138.255"/>
<polygon fill="midnightblue" stroke="midnightblue" points="228.737,-140.729 233.959,-131.51 224.128,-135.46 228.737,-140.729"/>
</g>
<!-- Node17 -->
<g id="node17" class="node"><title>Node17</title>
<g id="a_node17"><a xlink:href="DatabaseInterface_8h.html" target="_top" xlink:title="QualityControl/DatabaseInterface.h">
<polygon fill="none" stroke="black" points="213.5,-168.5 213.5,-187.5 383.5,-187.5 383.5,-168.5 213.5,-168.5"/>
<text text-anchor="middle" x="298.5" y="-175.5" font-family="Helvetica,sans-Serif" font-size="10.00">QualityControl/DatabaseInterface.h</text>
</a>
</g>
</g>
<!-- Node2&#45;&gt;Node17 -->
<g id="edge23" class="edge"><title>Node2&#45;&gt;Node17</title>
<path fill="none" stroke="midnightblue" d="M512.913,-350.664C435.463,-347.011 307.446,-327.71 246.5,-244 233.37,-225.966 254.98,-206.048 274.209,-193.074"/>
<polygon fill="midnightblue" stroke="midnightblue" points="276.192,-195.961 282.743,-187.634 272.429,-190.058 276.192,-195.961"/>
</g>
<!-- Node19 -->
<g id="node19" class="node"><title>Node19</title>
<g id="a_node19"><a xlink:href="QcInfoLogger_8h.html" target="_top" xlink:title="QualityControl/QcInfoLogger.h">
<polygon fill="none" stroke="black" points="655,-280.5 655,-299.5 804,-299.5 804,-280.5 655,-280.5"/>
<text text-anchor="middle" x="729.5" y="-287.5" font-family="Helvetica,sans-Serif" font-size="10.00">QualityControl/QcInfoLogger.h</text>
</a>
</g>
</g>
<!-- Node2&#45;&gt;Node19 -->
<g id="edge30" class="edge"><title>Node2&#45;&gt;Node19</title>
<path fill="none" stroke="midnightblue" d="M598.421,-341.975C624.552,-331.813 668.412,-314.756 698.13,-303.2"/>
<polygon fill="midnightblue" stroke="midnightblue" points="699.568,-306.396 707.619,-299.509 697.031,-299.872 699.568,-306.396"/>
</g>
<!-- Node11&#45;&gt;Node5 -->
<g id="edge11" class="edge"><title>Node11&#45;&gt;Node5</title>
<path fill="none" stroke="midnightblue" d="M80.2928,-168.186C85.4334,-145.375 102.499,-84.2227 142.5,-56 186.964,-24.6279 351.723,-14.786 420.757,-11.9994"/>
<polygon fill="midnightblue" stroke="midnightblue" points="421.122,-15.4881 430.982,-11.6105 420.856,-8.49318 421.122,-15.4881"/>
</g>
<!-- Node12 -->
<g id="node12" class="node"><title>Node12</title>
<polygon fill="none" stroke="#bfbfbf" points="95.5,-0.5 95.5,-19.5 151.5,-19.5 151.5,-0.5 95.5,-0.5"/>
<text text-anchor="middle" x="123.5" y="-7.5" font-family="Helvetica,sans-Serif" font-size="10.00">Rtypes.h</text>
</g>
<!-- Node11&#45;&gt;Node12 -->
<g id="edge12" class="edge"><title>Node11&#45;&gt;Node12</title>
<path fill="none" stroke="midnightblue" d="M75.3384,-168.28C68.404,-147.646 53.8304,-94.6582 71.5,-56 77.2773,-43.3602 88.5523,-32.911 99.1306,-25.2737"/>
<polygon fill="midnightblue" stroke="midnightblue" points="101.349,-28.0009 107.717,-19.5333 97.4582,-22.1817 101.349,-28.0009"/>
</g>
<!-- Node11&#45;&gt;Node13 -->
<g id="edge13" class="edge"><title>Node11&#45;&gt;Node13</title>
<path fill="none" stroke="midnightblue" d="M104.962,-168.444C133.178,-159.32 178.04,-144.813 209.468,-134.651"/>
<polygon fill="midnightblue" stroke="midnightblue" points="210.724,-137.923 219.162,-131.516 208.57,-131.263 210.724,-137.923"/>
</g>
<!-- Node16 -->
<g id="node16" class="node"><title>Node16</title>
<g id="a_node16"><a xlink:href="Quality_8h.html" target="_top" xlink:title="QualityControl/Quality.h">
<polygon fill="none" stroke="black" points="229,-56.5 229,-75.5 350,-75.5 350,-56.5 229,-56.5"/>
<text text-anchor="middle" x="289.5" y="-63.5" font-family="Helvetica,sans-Serif" font-size="10.00">QualityControl/Quality.h</text>
</a>
</g>
</g>
<!-- Node11&#45;&gt;Node16 -->
<g id="edge22" class="edge"><title>Node11&#45;&gt;Node16</title>
<path fill="none" stroke="midnightblue" d="M87.3606,-168.291C101.665,-154.642 131.213,-128.112 160.5,-112 187.286,-97.2639 219.8,-85.9593 245.484,-78.3663"/>
<polygon fill="midnightblue" stroke="midnightblue" points="246.677,-81.6652 255.322,-75.5395 244.744,-74.9374 246.677,-81.6652"/>
</g>
<!-- Node13&#45;&gt;Node5 -->
<g id="edge14" class="edge"><title>Node13&#45;&gt;Node5</title>
<path fill="none" stroke="midnightblue" d="M271.847,-112.454C295.254,-104.412 330.062,-91.3329 358.5,-76 385.768,-61.2978 414.631,-40.1291 432.838,-25.9873"/>
<polygon fill="midnightblue" stroke="midnightblue" points="435.173,-28.6036 440.867,-19.6685 430.844,-23.1029 435.173,-28.6036"/>
</g>
<!-- Node13&#45;&gt;Node6 -->
<g id="edge15" class="edge"><title>Node13&#45;&gt;Node6</title>
<path fill="none" stroke="midnightblue" d="M321.159,-113.378C442.151,-101.188 673.688,-77.8616 753.581,-69.8128"/>
<polygon fill="midnightblue" stroke="midnightblue" points="754.221,-73.266 763.82,-68.7812 753.52,-66.3013 754.221,-73.266"/>
</g>
<!-- Node13&#45;&gt;Node12 -->
<g id="edge16" class="edge"><title>Node13&#45;&gt;Node12</title>
<path fill="none" stroke="midnightblue" d="M206.122,-112.487C184.55,-105.914 158.936,-94.6783 142.5,-76 131.224,-63.1854 126.626,-43.9991 124.759,-29.7902"/>
<polygon fill="midnightblue" stroke="midnightblue" points="128.227,-29.2912 123.772,-19.6788 121.261,-29.9716 128.227,-29.2912"/>
</g>
<!-- Node14 -->
<g id="node14" class="node"><title>Node14</title>
<polygon fill="none" stroke="#bfbfbf" points="152,-56.5 152,-75.5 211,-75.5 211,-56.5 152,-56.5"/>
<text text-anchor="middle" x="181.5" y="-63.5" font-family="Helvetica,sans-Serif" font-size="10.00">TObject.h</text>
</g>
<!-- Node13&#45;&gt;Node14 -->
<g id="edge17" class="edge"><title>Node13&#45;&gt;Node14</title>
<path fill="none" stroke="midnightblue" d="M235.217,-112.324C225.664,-104.263 211.22,-92.0765 199.716,-82.3695"/>
<polygon fill="midnightblue" stroke="midnightblue" points="201.87,-79.6076 191.97,-75.8339 197.356,-84.9577 201.87,-79.6076"/>
</g>
<!-- Node13&#45;&gt;Node15 -->
<g id="edge18" class="edge"><title>Node13&#45;&gt;Node15</title>
<path fill="none" stroke="midnightblue" d="M321.303,-115.636C338.466,-114.431 356.61,-113.164 373.5,-112 591.72,-96.9559 850.198,-79.6333 970.943,-71.5703"/>
<polygon fill="midnightblue" stroke="midnightblue" points="971.4,-75.0476 981.145,-70.8891 970.934,-68.0631 971.4,-75.0476"/>
</g>
<!-- Node13&#45;&gt;Node16 -->
<g id="edge19" class="edge"><title>Node13&#45;&gt;Node16</title>
<path fill="none" stroke="midnightblue" d="M252.766,-112.083C259.045,-104.377 268.288,-93.0333 275.931,-83.6531"/>
<polygon fill="midnightblue" stroke="midnightblue" points="278.766,-85.7143 282.369,-75.7511 273.339,-81.2926 278.766,-85.7143"/>
</g>
<!-- Node16&#45;&gt;Node5 -->
<g id="edge21" class="edge"><title>Node16&#45;&gt;Node5</title>
<path fill="none" stroke="midnightblue" d="M315.169,-56.4435C343.866,-46.8782 390.309,-31.3969 420.878,-21.2075"/>
<polygon fill="midnightblue" stroke="midnightblue" points="422.207,-24.4537 430.587,-17.971 419.993,-17.8129 422.207,-24.4537"/>
</g>
<!-- Node16&#45;&gt;Node12 -->
<g id="edge20" class="edge"><title>Node16&#45;&gt;Node12</title>
<path fill="none" stroke="midnightblue" d="M263.197,-56.4435C235.149,-47.3196 190.556,-32.8133 159.316,-22.6509"/>
<polygon fill="midnightblue" stroke="midnightblue" points="160.272,-19.2816 149.68,-19.5164 158.107,-25.9383 160.272,-19.2816"/>
</g>
<!-- Node17&#45;&gt;Node4 -->
<g id="edge25" class="edge"><title>Node17&#45;&gt;Node4</title>
<path fill="none" stroke="midnightblue" d="M337.004,-168.444C383.19,-158.18 460.025,-141.105 505.207,-131.065"/>
<polygon fill="midnightblue" stroke="midnightblue" points="506.156,-134.44 515.159,-128.854 504.638,-127.606 506.156,-134.44"/>
</g>
<!-- Node17&#45;&gt;Node5 -->
<g id="edge24" class="edge"><title>Node17&#45;&gt;Node5</title>
<path fill="none" stroke="midnightblue" d="M306.726,-168.075C331.331,-141.38 404.618,-61.865 436.456,-27.3218"/>
<polygon fill="midnightblue" stroke="midnightblue" points="439.399,-29.2933 443.603,-19.5681 434.252,-24.5492 439.399,-29.2933"/>
</g>
<!-- Node17&#45;&gt;Node7 -->
<g id="edge26" class="edge"><title>Node17&#45;&gt;Node7</title>
<path fill="none" stroke="midnightblue" d="M320.525,-168.444C343.604,-159.478 380.062,-145.314 406.141,-135.183"/>
<polygon fill="midnightblue" stroke="midnightblue" points="407.524,-138.4 415.578,-131.516 404.989,-131.875 407.524,-138.4"/>
</g>
<!-- Node17&#45;&gt;Node13 -->
<g id="edge28" class="edge"><title>Node17&#45;&gt;Node13</title>
<path fill="none" stroke="midnightblue" d="M289.748,-168.083C282.03,-160.22 270.595,-148.569 261.283,-139.081"/>
<polygon fill="midnightblue" stroke="midnightblue" points="263.592,-136.436 254.089,-131.751 258.596,-141.34 263.592,-136.436"/>
</g>
<!-- Node18 -->
<g id="node18" class="node"><title>Node18</title>
<polygon fill="none" stroke="#bfbfbf" points="1280,-56.5 1280,-75.5 1363,-75.5 1363,-56.5 1280,-56.5"/>
<text text-anchor="middle" x="1321.5" y="-63.5" font-family="Helvetica,sans-Serif" font-size="10.00">unordered_map</text>
</g>
<!-- Node17&#45;&gt;Node18 -->
<g id="edge27" class="edge"><title>Node17&#45;&gt;Node18</title>
<path fill="none" stroke="midnightblue" d="M310.862,-168.497C334.641,-152.322 386.192,-118.181 406.5,-112 427.288,-105.673 1079.77,-77.3385 1269.96,-69.1953"/>
<polygon fill="midnightblue" stroke="midnightblue" points="1270.14,-72.6908 1279.98,-68.7665 1269.84,-65.6972 1270.14,-72.6908"/>
</g>
<!-- Node20 -->
<g id="node20" class="node"><title>Node20</title>
<polygon fill="none" stroke="#bfbfbf" points="664.5,-224.5 664.5,-243.5 794.5,-243.5 794.5,-224.5 664.5,-224.5"/>
<text text-anchor="middle" x="729.5" y="-231.5" font-family="Helvetica,sans-Serif" font-size="10.00">InfoLogger/InfoLogger.hxx</text>
</g>
<!-- Node19&#45;&gt;Node20 -->
<g id="edge31" class="edge"><title>Node19&#45;&gt;Node20</title>
<path fill="none" stroke="midnightblue" d="M729.5,-280.083C729.5,-273.006 729.5,-262.861 729.5,-253.986"/>
<polygon fill="midnightblue" stroke="midnightblue" points="733,-253.751 729.5,-243.751 726,-253.751 733,-253.751"/>
</g>
<!-- Node21 -->
<g id="node21" class="node"><title>Node21</title>
<g id="a_node21"><a xlink:href="TaskInterface_8h.html" target="_top" xlink:title="QualityControl/TaskInterface.h">
<polygon fill="none" stroke="black" points="1038.5,-224.5 1038.5,-243.5 1188.5,-243.5 1188.5,-224.5 1038.5,-224.5"/>
<text text-anchor="middle" x="1113.5" y="-231.5" font-family="Helvetica,sans-Serif" font-size="10.00">QualityControl/TaskInterface.h</text>
</a>
</g>
</g>
<!-- Node19&#45;&gt;Node21 -->
<g id="edge32" class="edge"><title>Node19&#45;&gt;Node21</title>
<path fill="none" stroke="midnightblue" d="M790.346,-280.444C859.019,-270.786 970.571,-255.099 1042.99,-244.916"/>
<polygon fill="midnightblue" stroke="midnightblue" points="1043.52,-248.375 1052.94,-243.516 1042.55,-241.443 1043.52,-248.375"/>
</g>
<!-- Node21&#45;&gt;Node4 -->
<g id="edge34" class="edge"><title>Node21&#45;&gt;Node4</title>
<path fill="none" stroke="midnightblue" d="M1038.45,-230.326C901.254,-224.902 620.519,-211.117 582.5,-188 565.086,-177.412 553.856,-156.318 547.63,-141.024"/>
<polygon fill="midnightblue" stroke="midnightblue" points="550.877,-139.712 544.105,-131.564 544.317,-142.156 550.877,-139.712"/>
</g>
<!-- Node21&#45;&gt;Node5 -->
<g id="edge35" class="edge"><title>Node21&#45;&gt;Node5</title>
<path fill="none" stroke="midnightblue" d="M1183.83,-224.441C1303.9,-208.188 1532.4,-169.282 1498.5,-112 1472.16,-67.4931 1446.28,-70.0353 1396.5,-56 1306.86,-30.725 634.296,-14.9136 482.068,-11.6361"/>
<polygon fill="midnightblue" stroke="midnightblue" points="482.094,-8.13593 472.021,-11.4218 481.944,-15.1343 482.094,-8.13593"/>
</g>
<!-- Node21&#45;&gt;Node6 -->
<g id="edge33" class="edge"><title>Node21&#45;&gt;Node6</title>
<path fill="none" stroke="midnightblue" d="M1188.54,-224.91C1238.05,-216.498 1289.4,-199.89 1263.5,-168 1205.36,-96.4204 902.981,-73.7589 809.24,-68.3988"/>
<polygon fill="midnightblue" stroke="midnightblue" points="809.291,-64.8964 799.114,-67.8415 808.907,-71.8858 809.291,-64.8964"/>
</g>
<!-- Node21&#45;&gt;Node18 -->
<g id="edge36" class="edge"><title>Node21&#45;&gt;Node18</title>
<path fill="none" stroke="midnightblue" d="M1179.42,-224.444C1225.35,-217.123 1281.19,-205.048 1297.5,-188 1323.94,-160.369 1325.17,-112.409 1323.5,-85.927"/>
<polygon fill="midnightblue" stroke="midnightblue" points="1326.96,-85.3868 1322.64,-75.7166 1319.99,-85.9755 1326.96,-85.3868"/>
</g>
<!-- Node22 -->
<g id="node22" class="node"><title>Node22</title>
<polygon fill="none" stroke="#bfbfbf" points="810,-168.5 810,-187.5 935,-187.5 935,-168.5 810,-168.5"/>
<text text-anchor="middle" x="872.5" y="-175.5" font-family="Helvetica,sans-Serif" font-size="10.00">Framework/InitContext.h</text>
</g>
<!-- Node21&#45;&gt;Node22 -->
<g id="edge37" class="edge"><title>Node21&#45;&gt;Node22</title>
<path fill="none" stroke="midnightblue" d="M1075.31,-224.444C1033.36,-215.043 965.906,-199.929 920.429,-189.739"/>
<polygon fill="midnightblue" stroke="midnightblue" points="921.032,-186.288 910.509,-187.516 919.501,-193.118 921.032,-186.288"/>
</g>
<!-- Node23 -->
<g id="node23" class="node"><title>Node23</title>
<polygon fill="none" stroke="#bfbfbf" points="953.5,-168.5 953.5,-187.5 1113.5,-187.5 1113.5,-168.5 953.5,-168.5"/>
<text text-anchor="middle" x="1033.5" y="-175.5" font-family="Helvetica,sans-Serif" font-size="10.00">Framework/ProcessingContext.h</text>
</g>
<!-- Node21&#45;&gt;Node23 -->
<g id="edge38" class="edge"><title>Node21&#45;&gt;Node23</title>
<path fill="none" stroke="midnightblue" d="M1100.65,-224.324C1088.28,-215.979 1069.37,-203.212 1054.76,-193.352"/>
<polygon fill="midnightblue" stroke="midnightblue" points="1056.57,-190.348 1046.32,-187.655 1052.65,-196.15 1056.57,-190.348"/>
</g>
<!-- Node24 -->
<g id="node24" class="node"><title>Node24</title>
<g id="a_node24"><a xlink:href="Activity_8h.html" target="_top" xlink:title="QualityControl/Activity.h">
<polygon fill="none" stroke="black" points="1132,-168.5 1132,-187.5 1255,-187.5 1255,-168.5 1132,-168.5"/>
<text text-anchor="middle" x="1193.5" y="-175.5" font-family="Helvetica,sans-Serif" font-size="10.00">QualityControl/Activity.h</text>
</a>
</g>
</g>
<!-- Node21&#45;&gt;Node24 -->
<g id="edge39" class="edge"><title>Node21&#45;&gt;Node24</title>
<path fill="none" stroke="midnightblue" d="M1126.35,-224.324C1138.72,-215.979 1157.63,-203.212 1172.24,-193.352"/>
<polygon fill="midnightblue" stroke="midnightblue" points="1174.35,-196.15 1180.68,-187.655 1170.43,-190.348 1174.35,-196.15"/>
</g>
<!-- Node25 -->
<g id="node25" class="node"><title>Node25</title>
<g id="a_node25"><a xlink:href="ObjectsManager_8h.html" target="_top" xlink:title="QualityControl/ObjectsManager.h">
<polygon fill="none" stroke="black" points="592,-168.5 592,-187.5 753,-187.5 753,-168.5 592,-168.5"/>
<text text-anchor="middle" x="672.5" y="-175.5" font-family="Helvetica,sans-Serif" font-size="10.00">QualityControl/ObjectsManager.h</text>
</a>
</g>
</g>
<!-- Node21&#45;&gt;Node25 -->
<g id="edge40" class="edge"><title>Node21&#45;&gt;Node25</title>
<path fill="none" stroke="midnightblue" d="M1043.62,-224.444C964.352,-214.737 835.333,-198.939 752.206,-188.76"/>
<polygon fill="midnightblue" stroke="midnightblue" points="752.402,-185.258 742.051,-187.516 751.551,-192.206 752.402,-185.258"/>
</g>
<!-- Node25&#45;&gt;Node4 -->
<g id="edge47" class="edge"><title>Node25&#45;&gt;Node4</title>
<path fill="none" stroke="midnightblue" d="M651.743,-168.444C630.184,-159.557 596.237,-145.563 571.706,-135.451"/>
<polygon fill="midnightblue" stroke="midnightblue" points="572.739,-132.092 562.16,-131.516 570.072,-138.563 572.739,-132.092"/>
</g>
<!-- Node25&#45;&gt;Node5 -->
<g id="edge46" class="edge"><title>Node25&#45;&gt;Node5</title>
<path fill="none" stroke="midnightblue" d="M665.304,-168.382C654.149,-155.313 631.652,-130.093 609.5,-112 565.668,-76.198 508.507,-42.4459 476.332,-24.4689"/>
<polygon fill="midnightblue" stroke="midnightblue" points="478.015,-21.4002 467.571,-19.6196 474.625,-27.5246 478.015,-21.4002"/>
</g>
<!-- Node25&#45;&gt;Node13 -->
<g id="edge41" class="edge"><title>Node25&#45;&gt;Node13</title>
<path fill="none" stroke="midnightblue" d="M604.841,-168.444C528.165,-158.747 403.418,-142.971 322.921,-132.791"/>
<polygon fill="midnightblue" stroke="midnightblue" points="323.203,-129.299 312.843,-131.516 322.325,-136.244 323.203,-129.299"/>
</g>
<!-- Node25&#45;&gt;Node16 -->
<g id="edge42" class="edge"><title>Node25&#45;&gt;Node16</title>
<path fill="none" stroke="midnightblue" d="M662.969,-168.387C646.601,-154.121 611.518,-125.798 576.5,-112 506.082,-84.2529 419.599,-73.5732 360.084,-69.4857"/>
<polygon fill="midnightblue" stroke="midnightblue" points="360.238,-65.9885 350.035,-68.8405 359.79,-72.9741 360.238,-65.9885"/>
</g>
<!-- Node26 -->
<g id="node26" class="node"><title>Node26</title>
<g id="a_node26"><a xlink:href="TaskConfig_8h.html" target="_top" xlink:title="QualityControl/TaskConfig.h">
<polygon fill="none" stroke="black" points="1349.5,-112.5 1349.5,-131.5 1489.5,-131.5 1489.5,-112.5 1349.5,-112.5"/>
<text text-anchor="middle" x="1419.5" y="-119.5" font-family="Helvetica,sans-Serif" font-size="10.00">QualityControl/TaskConfig.h</text>
</a>
</g>
</g>
<!-- Node25&#45;&gt;Node26 -->
<g id="edge43" class="edge"><title>Node25&#45;&gt;Node26</title>
<path fill="none" stroke="midnightblue" d="M753.152,-171.17C896.927,-160.776 1195.85,-139.167 1339.3,-128.797"/>
<polygon fill="midnightblue" stroke="midnightblue" points="1339.64,-132.283 1349.36,-128.071 1339.13,-125.301 1339.64,-132.283"/>
</g>
<!-- Node26&#45;&gt;Node5 -->
<g id="edge44" class="edge"><title>Node26&#45;&gt;Node5</title>
<path fill="none" stroke="midnightblue" d="M1416.06,-112.314C1409.74,-97.6709 1394.75,-68.4536 1371.5,-56 1291.74,-13.2719 633.873,-10.9223 482.483,-10.9515"/>
<polygon fill="midnightblue" stroke="midnightblue" points="482.084,-7.45162 472.086,-10.9576 482.088,-14.4516 482.084,-7.45162"/>
</g>
<!-- Node26&#45;&gt;Node18 -->
<g id="edge45" class="edge"><title>Node26&#45;&gt;Node18</title>
<path fill="none" stroke="midnightblue" d="M1403.75,-112.324C1388.18,-103.743 1364.12,-90.486 1346.04,-80.5224"/>
<polygon fill="midnightblue" stroke="midnightblue" points="1347.65,-77.4152 1337.21,-75.6545 1344.28,-83.546 1347.65,-77.4152"/>
</g>
<!-- Node34&#45;&gt;Node4 -->
<g id="edge57" class="edge"><title>Node34&#45;&gt;Node4</title>
<path fill="none" stroke="midnightblue" d="M354.429,-224.368C389.709,-205.251 474.641,-159.229 516.843,-136.361"/>
<polygon fill="midnightblue" stroke="midnightblue" points="518.52,-139.433 525.645,-131.591 515.185,-133.278 518.52,-139.433"/>
</g>
<!-- Node34&#45;&gt;Node17 -->
<g id="edge58" class="edge"><title>Node34&#45;&gt;Node17</title>
<path fill="none" stroke="midnightblue" d="M331.895,-224.083C326.245,-216.455 317.955,-205.264 311.049,-195.941"/>
<polygon fill="midnightblue" stroke="midnightblue" points="313.747,-193.703 304.982,-187.751 308.122,-197.87 313.747,-193.703"/>
</g>
<!-- Node35&#45;&gt;Node8 -->
<g id="edge60" class="edge"><title>Node35&#45;&gt;Node8</title>
<path fill="none" stroke="midnightblue" d="M1213.4,-341.975C1170.01,-331.437 1096.09,-313.486 1048.55,-301.941"/>
<polygon fill="midnightblue" stroke="midnightblue" points="1049.08,-298.468 1038.54,-299.509 1047.43,-305.27 1049.08,-298.468"/>
</g>
<!-- Node35&#45;&gt;Node9 -->
<g id="edge61" class="edge"><title>Node35&#45;&gt;Node9</title>
<path fill="none" stroke="midnightblue" d="M1229.59,-341.975C1207.34,-331.945 1170.19,-315.2 1144.57,-303.655"/>
<polygon fill="midnightblue" stroke="midnightblue" points="1145.93,-300.428 1135.38,-299.509 1143.06,-306.809 1145.93,-300.428"/>
</g>
<!-- Node35&#45;&gt;Node10 -->
<g id="edge64" class="edge"><title>Node35&#45;&gt;Node10</title>
<path fill="none" stroke="midnightblue" d="M1195.77,-341.975C1129.1,-331.194 1014.43,-312.654 943.296,-301.153"/>
<polygon fill="midnightblue" stroke="midnightblue" points="943.558,-297.65 933.128,-299.509 942.441,-304.56 943.558,-297.65"/>
</g>
<!-- Node35&#45;&gt;Node21 -->
<g id="edge66" class="edge"><title>Node35&#45;&gt;Node21</title>
<path fill="none" stroke="midnightblue" d="M1240.17,-341.889C1226.79,-328.229 1199.51,-300.993 1174.5,-280 1161.65,-269.211 1146.47,-258.007 1134.47,-249.477"/>
<polygon fill="midnightblue" stroke="midnightblue" points="1136.19,-246.412 1126,-243.527 1132.17,-252.14 1136.19,-246.412"/>
</g>
<!-- Node35&#45;&gt;Node26 -->
<g id="edge65" class="edge"><title>Node35&#45;&gt;Node26</title>
<path fill="none" stroke="midnightblue" d="M1320.13,-349.517C1404.01,-346.671 1535.47,-336.35 1566.5,-300 1618.13,-239.53 1500.6,-166.088 1445.75,-136.404"/>
<polygon fill="midnightblue" stroke="midnightblue" points="1447.08,-133.143 1436.6,-131.543 1443.79,-139.325 1447.08,-133.143"/>
</g>
<!-- Node36 -->
<g id="node36" class="node"><title>Node36</title>
<polygon fill="none" stroke="#bfbfbf" points="1221.5,-280.5 1221.5,-299.5 1385.5,-299.5 1385.5,-280.5 1221.5,-280.5"/>
<text text-anchor="middle" x="1303.5" y="-287.5" font-family="Helvetica,sans-Serif" font-size="10.00">Framework/DataProcessorSpec.h</text>
</g>
<!-- Node35&#45;&gt;Node36 -->
<g id="edge62" class="edge"><title>Node35&#45;&gt;Node36</title>
<path fill="none" stroke="midnightblue" d="M1256.38,-341.975C1264.79,-332.873 1278.32,-318.241 1288.73,-306.983"/>
<polygon fill="midnightblue" stroke="midnightblue" points="1291.42,-309.228 1295.63,-299.509 1286.28,-304.477 1291.42,-309.228"/>
</g>
<!-- Node37 -->
<g id="node37" class="node"><title>Node37</title>
<polygon fill="none" stroke="#bfbfbf" points="1404,-280.5 1404,-299.5 1557,-299.5 1557,-280.5 1404,-280.5"/>
<text text-anchor="middle" x="1480.5" y="-287.5" font-family="Helvetica,sans-Serif" font-size="10.00">Framework/CompletionPolicy.h</text>
</g>
<!-- Node35&#45;&gt;Node37 -->
<g id="edge63" class="edge"><title>Node35&#45;&gt;Node37</title>
<path fill="none" stroke="midnightblue" d="M1281.74,-341.975C1322.74,-331.459 1392.53,-313.562 1437.55,-302.014"/>
<polygon fill="midnightblue" stroke="midnightblue" points="1438.5,-305.384 1447.32,-299.509 1436.77,-298.603 1438.5,-305.384"/>
</g>
</g>
</svg>
        <g id="navigator" transform="translate(0 0)" fill="#404254">
                <rect fill="#f2f5e9" fill-opacity="0.5" stroke="#606060" stroke-width=".5" x="0" y="0" width="60" height="60"/>
                <use id="zoomplus" xlink:href="#zoomPlus" x="17" y="9" onmousedown="handleZoom(evt,'in')"/>
                <use id="zoomminus" xlink:href="#zoomMin" x="42" y="9" onmousedown="handleZoom(evt,'out')"/>
                <use id="reset" xlink:href="#resetDef" x="30" y="36" onmousedown="handleReset()"/>
                <g id="arrowUp" xlink:href="#dirArrow" transform="translate(30 24)" onmousedown="handlePan(0,-1)">
                  <use xlink:href="#rim" fill="#404040">
                        <set attributeName="fill" to="#808080" begin="arrowUp.mouseover" end="arrowUp.mouseout"/>
                  </use>
                  <path fill="none" stroke="white" stroke-width="1.5" d="M0,-3.0v7 M-2.5,-0.5L0,-3.0L2.5,-0.5"/>
                </g>
                <g id="arrowRight" xlink:href="#dirArrow" transform="rotate(90) translate(36 -43)" onmousedown="handlePan(1,0)">
                  <use xlink:href="#rim" fill="#404040">
                        <set attributeName="fill" to="#808080" begin="arrowRight.mouseover" end="arrowRight.mouseout"/>
                  </use>
                  <path fill="none" stroke="white" stroke-width="1.5" d="M0,-3.0v7 M-2.5,-0.5L0,-3.0L2.5,-0.5"/>
                </g>
                <g id="arrowDown" xlink:href="#dirArrow" transform="rotate(180) translate(-30 -48)" onmousedown="handlePan(0,1)">
                  <use xlink:href="#rim" fill="#404040">
                        <set attributeName="fill" to="#808080" begin="arrowDown.mouseover" end="arrowDown.mouseout"/>
                  </use>
                  <path fill="none" stroke="white" stroke-width="1.5" d="M0,-3.0v7 M-2.5,-0.5L0,-3.0L2.5,-0.5"/>
                </g>
                <g id="arrowLeft" xlink:href="#dirArrow" transform="rotate(270) translate(-36 17)" onmousedown="handlePan(-1,0)">
                  <use xlink:href="#rim" fill="#404040">
                        <set attributeName="fill" to="#808080" begin="arrowLeft.mouseover" end="arrowLeft.mouseout"/>
                  </use>
                  <path fill="none" stroke="white" stroke-width="1.5" d="M0,-3.0v7 M-2.5,-0.5L0,-3.0L2.5,-0.5"/>
                </g>
        </g>
        <svg viewBox="0 0 15 15" width="100%" height="30px" preserveAspectRatio="xMaxYMin meet">
         <g id="arrow_out" transform="scale(0.3 0.3)">
          <a xlink:href="Checker_8cxx__incl_org.svg" target="_base">
           <rect id="button" ry="5" rx="5" y="6" x="6" height="38" width="38"
                fill="#f2f5e9" fill-opacity="0.5" stroke="#606060" stroke-width="1.0"/>
           <path id="arrow"
             d="M 11.500037,31.436501 C 11.940474,20.09759 22.043105,11.32322 32.158766,21.979434 L 37.068811,17.246167 C 37.068811,17.246167 37.088388,32 37.088388,32 L 22.160133,31.978069 C 22.160133,31.978069 26.997745,27.140456 26.997745,27.140456 C 18.528582,18.264221 13.291696,25.230495 11.500037,31.436501 z"
             style="fill:#404040;"/>
          </a>
         </g>
        </svg>
</svg>
