<?xml version="1.0" encoding="UTF-8" standalone="no"?>
<!DOCTYPE svg PUBLIC "-//W3C//DTD SVG 1.1//EN"
 "http://www.w3.org/Graphics/SVG/1.1/DTD/svg11.dtd">
<!-- Generated by graphviz version 2.38.0 (20140413.2041)
 -->
<!-- Title: Framework/include/QualityControl/CheckInterface.h Pages: 1 -->
<!--zoomable 173 -->
<svg id="main" version="1.1" xmlns="http://www.w3.org/2000/svg" xmlns:xlink="http://www.w3.org/1999/xlink" xml:space="preserve" onload="init(evt)">
<style type="text/css"><![CDATA[
.edge:hover path { stroke: red; }
.edge:hover polygon { stroke: red; fill: red; }
]]></style>
<script type="text/javascript"><![CDATA[
var edges = document.getElementsByTagName('g');
if (edges && edges.length) {
  for (var i=0;i<edges.length;i++) {
    if (edges[i].id.substr(0,4)=='edge') {
      edges[i].setAttribute('class','edge');
    }
  }
}
]]></script>
        <defs>
                <circle id="rim" cx="0" cy="0" r="7"/>
                <circle id="rim2" cx="0" cy="0" r="3.5"/>
                <g id="zoomPlus">
                        <use xlink:href="#rim" fill="#404040">
                                <set attributeName="fill" to="#808080" begin="zoomplus.mouseover" end="zoomplus.mouseout"/>
                        </use>
                        <path d="M-4,0h8M0,-4v8" fill="none" stroke="white" stroke-width="1.5" pointer-events="none"/>
                </g>
                <g id="zoomMin">
                        <use xlink:href="#rim" fill="#404040">
                                <set attributeName="fill" to="#808080" begin="zoomminus.mouseover" end="zoomminus.mouseout"/>
                        </use>
                        <path d="M-4,0h8" fill="none" stroke="white" stroke-width="1.5" pointer-events="none"/>
                </g>
                <g id="dirArrow">
                        <path fill="none" stroke="white" stroke-width="1.5" d="M0,-3.0v7 M-2.5,-0.5L0,-3.0L2.5,-0.5"/>
                </g>
               <g id="resetDef">
                       <use xlink:href="#rim2" fill="#404040">
                               <set attributeName="fill" to="#808080" begin="reset.mouseover" end="reset.mouseout"/>
                       </use>
               </g>
        </defs>

<script type="text/javascript">
var viewWidth = 2722;
var viewHeight = 173;
var sectionId = 'dynsection-1';
</script>
<script xlink:href="svgpan.js"/>
<svg id="graph" class="graph">
<g id="viewport">
<title>Framework/include/QualityControl/CheckInterface.h</title>
<!-- Node1 -->
<g id="node1" class="node"><title>Node1</title>
<polygon fill="#bfbfbf" stroke="black" points="1788.5,-134.5 1788.5,-164.5 1921.5,-164.5 1921.5,-134.5 1788.5,-134.5"/>
<text text-anchor="start" x="1796.5" y="-152.5" font-family="Helvetica,sans-Serif" font-size="10.00">Framework/include/Quality</text>
<text text-anchor="middle" x="1855" y="-141.5" font-family="Helvetica,sans-Serif" font-size="10.00">Control/CheckInterface.h</text>
</g>
<!-- Node2 -->
<g id="node2" class="node"><title>Node2</title>
<g id="a_node2"><a xlink:href="Checker_8h.html" target="_top" xlink:title="Framework/include/Quality\lControl/Checker.h">
<polygon fill="none" stroke="black" points="613.5,-67.5 613.5,-97.5 746.5,-97.5 746.5,-67.5 613.5,-67.5"/>
<text text-anchor="start" x="621.5" y="-85.5" font-family="Helvetica,sans-Serif" font-size="10.00">Framework/include/Quality</text>
<text text-anchor="middle" x="680" y="-74.5" font-family="Helvetica,sans-Serif" font-size="10.00">Control/Checker.h</text>
</a>
</g>
</g>
<!-- Node1&#45;&gt;Node2 -->
<g id="edge1" class="edge"><title>Node1&#45;&gt;Node2</title>
<path fill="none" stroke="midnightblue" d="M1778.47,-144.266C1562.34,-132.31 949.874,-98.4292 746.536,-87.1807"/>
<polygon fill="midnightblue" stroke="midnightblue" points="1778.28,-147.761 1788.46,-144.819 1778.67,-140.772 1778.28,-147.761"/>
</g>
<!-- Node10 -->
<g id="node10" class="node"><title>Node10</title>
<g id="a_node10"><a xlink:href="CheckInterface_8cxx.html" target="_top" xlink:title="Framework/src/CheckInterface.cxx">
<polygon fill="none" stroke="black" points="1148,-73 1148,-92 1318,-92 1318,-73 1148,-73"/>
<text text-anchor="middle" x="1233" y="-80" font-family="Helvetica,sans-Serif" font-size="10.00">Framework/src/CheckInterface.cxx</text>
</a>
</g>
</g>
<!-- Node1&#45;&gt;Node10 -->
<g id="edge9" class="edge"><title>Node1&#45;&gt;Node10</title>
<path fill="none" stroke="midnightblue" d="M1778.19,-142.552C1675.28,-134.263 1487.06,-117.983 1327,-98 1313.24,-96.2817 1298.38,-94.1299 1284.64,-92.014"/>
<polygon fill="midnightblue" stroke="midnightblue" points="1777.94,-146.042 1788.18,-143.353 1778.5,-139.065 1777.94,-146.042"/>
</g>
<!-- Node11 -->
<g id="node11" class="node"><title>Node11</title>
<g id="a_node11"><a xlink:href="testCheckInterface_8cxx.html" target="_top" xlink:title="Framework/test/testCheck\lInterface.cxx">
<polygon fill="none" stroke="black" points="1336.5,-67.5 1336.5,-97.5 1469.5,-97.5 1469.5,-67.5 1336.5,-67.5"/>
<text text-anchor="start" x="1344.5" y="-85.5" font-family="Helvetica,sans-Serif" font-size="10.00">Framework/test/testCheck</text>
<text text-anchor="middle" x="1403" y="-74.5" font-family="Helvetica,sans-Serif" font-size="10.00">Interface.cxx</text>
</a>
</g>
</g>
<!-- Node1&#45;&gt;Node11 -->
<g id="edge10" class="edge"><title>Node1&#45;&gt;Node11</title>
<path fill="none" stroke="midnightblue" d="M1778.42,-139.559C1702.12,-130.34 1581.69,-114.954 1478,-98 1475.25,-97.5506 1472.45,-97.0774 1469.62,-96.5872"/>
<polygon fill="midnightblue" stroke="midnightblue" points="1778.08,-143.043 1788.43,-140.763 1778.92,-136.094 1778.08,-143.043"/>
</g>
<!-- Node12 -->
<g id="node12" class="node"><title>Node12</title>
<g id="a_node12"><a xlink:href="MeanIsAbove_8h.html" target="_top" xlink:title="Modules/Common/include\l/Common/MeanIsAbove.h">
<polygon fill="none" stroke="black" points="1487.5,-67.5 1487.5,-97.5 1618.5,-97.5 1618.5,-67.5 1487.5,-67.5"/>
<text text-anchor="start" x="1495.5" y="-85.5" font-family="Helvetica,sans-Serif" font-size="10.00">Modules/Common/include</text>
<text text-anchor="middle" x="1553" y="-74.5" font-family="Helvetica,sans-Serif" font-size="10.00">/Common/MeanIsAbove.h</text>
</a>
</g>
</g>
<!-- Node1&#45;&gt;Node12 -->
<g id="edge11" class="edge"><title>Node1&#45;&gt;Node12</title>
<path fill="none" stroke="midnightblue" d="M1779.8,-132.316C1730.17,-121.633 1665.78,-107.775 1618.3,-97.5549"/>
<polygon fill="midnightblue" stroke="midnightblue" points="1779.33,-135.793 1789.84,-134.476 1780.8,-128.95 1779.33,-135.793"/>
</g>
<!-- Node15 -->
<g id="node15" class="node"><title>Node15</title>
<g id="a_node15"><a xlink:href="NonEmpty_8h.html" target="_top" xlink:title="Modules/Common/include\l/Common/NonEmpty.h">
<polygon fill="none" stroke="black" points="1637,-67.5 1637,-97.5 1767,-97.5 1767,-67.5 1637,-67.5"/>
<text text-anchor="start" x="1645" y="-85.5" font-family="Helvetica,sans-Serif" font-size="10.00">Modules/Common/include</text>
<text text-anchor="middle" x="1702" y="-74.5" font-family="Helvetica,sans-Serif" font-size="10.00">/Common/NonEmpty.h</text>
</a>
</g>
</g>
<!-- Node1&#45;&gt;Node15 -->
<g id="edge14" class="edge"><title>Node1&#45;&gt;Node15</title>
<path fill="none" stroke="midnightblue" d="M1812.41,-130.407C1787.98,-120.029 1757.78,-107.195 1735.13,-97.5765"/>
<polygon fill="midnightblue" stroke="midnightblue" points="1811.23,-133.707 1821.8,-134.396 1813.97,-127.264 1811.23,-133.707"/>
</g>
<!-- Node18 -->
<g id="node18" class="node"><title>Node18</title>
<g id="a_node18"><a xlink:href="EverIncreasingGraph_8h.html" target="_top" xlink:title="Modules/Daq/include\l/Daq/EverIncreasingGraph.h">
<polygon fill="none" stroke="black" points="1785,-67.5 1785,-97.5 1925,-97.5 1925,-67.5 1785,-67.5"/>
<text text-anchor="start" x="1793" y="-85.5" font-family="Helvetica,sans-Serif" font-size="10.00">Modules/Daq/include</text>
<text text-anchor="middle" x="1855" y="-74.5" font-family="Helvetica,sans-Serif" font-size="10.00">/Daq/EverIncreasingGraph.h</text>
</a>
</g>
</g>
<!-- Node1&#45;&gt;Node18 -->
<g id="edge17" class="edge"><title>Node1&#45;&gt;Node18</title>
<path fill="none" stroke="midnightblue" d="M1855,-124.108C1855,-115.154 1855,-105.323 1855,-97.5765"/>
<polygon fill="midnightblue" stroke="midnightblue" points="1851.5,-124.396 1855,-134.396 1858.5,-124.396 1851.5,-124.396"/>
</g>
<!-- Node20 -->
<g id="node20" class="node"><title>Node20</title>
<g id="a_node20"><a xlink:href="FakeCheck_8h.html" target="_top" xlink:title="Modules/Example/include\l/Example/FakeCheck.h">
<polygon fill="none" stroke="black" points="1943,-67.5 1943,-97.5 2071,-97.5 2071,-67.5 1943,-67.5"/>
<text text-anchor="start" x="1951" y="-85.5" font-family="Helvetica,sans-Serif" font-size="10.00">Modules/Example/include</text>
<text text-anchor="middle" x="2007" y="-74.5" font-family="Helvetica,sans-Serif" font-size="10.00">/Example/FakeCheck.h</text>
</a>
</g>
</g>
<!-- Node1&#45;&gt;Node20 -->
<g id="edge19" class="edge"><title>Node1&#45;&gt;Node20</title>
<path fill="none" stroke="midnightblue" d="M1897.31,-130.407C1921.58,-120.029 1951.59,-107.195 1974.08,-97.5765"/>
<polygon fill="midnightblue" stroke="midnightblue" points="1895.8,-127.246 1887.98,-134.396 1898.55,-133.682 1895.8,-127.246"/>
</g>
<!-- Node22 -->
<g id="node22" class="node"><title>Node22</title>
<g id="a_node22"><a xlink:href="SkeletonCheck_8h.html" target="_top" xlink:title="Modules/Skeleton/include\l/Skeleton/SkeletonCheck.h">
<polygon fill="none" stroke="black" points="2089,-67.5 2089,-97.5 2225,-97.5 2225,-67.5 2089,-67.5"/>
<text text-anchor="start" x="2097" y="-85.5" font-family="Helvetica,sans-Serif" font-size="10.00">Modules/Skeleton/include</text>
<text text-anchor="middle" x="2157" y="-74.5" font-family="Helvetica,sans-Serif" font-size="10.00">/Skeleton/SkeletonCheck.h</text>
</a>
</g>
</g>
<!-- Node1&#45;&gt;Node22 -->
<g id="edge21" class="edge"><title>Node1&#45;&gt;Node22</title>
<path fill="none" stroke="midnightblue" d="M1930.2,-132.316C1979.83,-121.633 2044.22,-107.775 2091.7,-97.5549"/>
<polygon fill="midnightblue" stroke="midnightblue" points="1929.2,-128.95 1920.16,-134.476 1930.67,-135.793 1929.2,-128.95"/>
</g>
<!-- Node24 -->
<g id="node24" class="node"><title>Node24</title>
<g id="a_node24"><a xlink:href="TOFCheckRawsMulti_8h.html" target="_top" xlink:title="Modules/TOF/include\l/TOF/TOFCheckRawsMulti.h">
<polygon fill="none" stroke="black" points="2243.5,-67.5 2243.5,-97.5 2388.5,-97.5 2388.5,-67.5 2243.5,-67.5"/>
<text text-anchor="start" x="2251.5" y="-85.5" font-family="Helvetica,sans-Serif" font-size="10.00">Modules/TOF/include</text>
<text text-anchor="middle" x="2316" y="-74.5" font-family="Helvetica,sans-Serif" font-size="10.00">/TOF/TOFCheckRawsMulti.h</text>
</a>
</g>
</g>
<!-- Node1&#45;&gt;Node24 -->
<g id="edge23" class="edge"><title>Node1&#45;&gt;Node24</title>
<path fill="none" stroke="midnightblue" d="M1931.58,-139.267C2008.23,-129.797 2129.47,-114.198 2234,-98 2237,-97.5351 2240.06,-97.0489 2243.15,-96.548"/>
<polygon fill="midnightblue" stroke="midnightblue" points="1931.03,-135.808 1921.53,-140.505 1931.89,-142.756 1931.03,-135.808"/>
</g>
<!-- Node26 -->
<g id="node26" class="node"><title>Node26</title>
<g id="a_node26"><a xlink:href="TOFCheckRawsTime_8h.html" target="_top" xlink:title="Modules/TOF/include\l/TOF/TOFCheckRawsTime.h">
<polygon fill="none" stroke="black" points="2407,-67.5 2407,-97.5 2553,-97.5 2553,-67.5 2407,-67.5"/>
<text text-anchor="start" x="2415" y="-85.5" font-family="Helvetica,sans-Serif" font-size="10.00">Modules/TOF/include</text>
<text text-anchor="middle" x="2480" y="-74.5" font-family="Helvetica,sans-Serif" font-size="10.00">/TOF/TOFCheckRawsTime.h</text>
</a>
</g>
</g>
<!-- Node1&#45;&gt;Node26 -->
<g id="edge25" class="edge"><title>Node1&#45;&gt;Node26</title>
<path fill="none" stroke="midnightblue" d="M1931.73,-143.294C2036.95,-135.714 2231.79,-120.092 2397,-98 2400.19,-97.5735 2403.44,-97.1132 2406.73,-96.628"/>
<polygon fill="midnightblue" stroke="midnightblue" points="1931.25,-139.82 1921.52,-144.025 1931.75,-146.802 1931.25,-139.82"/>
</g>
<!-- Node28 -->
<g id="node28" class="node"><title>Node28</title>
<g id="a_node28"><a xlink:href="TOFCheckRawsToT_8h.html" target="_top" xlink:title="Modules/TOF/include\l/TOF/TOFCheckRawsToT.h">
<polygon fill="none" stroke="black" points="2571.5,-67.5 2571.5,-97.5 2712.5,-97.5 2712.5,-67.5 2571.5,-67.5"/>
<text text-anchor="start" x="2579.5" y="-85.5" font-family="Helvetica,sans-Serif" font-size="10.00">Modules/TOF/include</text>
<text text-anchor="middle" x="2642" y="-74.5" font-family="Helvetica,sans-Serif" font-size="10.00">/TOF/TOFCheckRawsToT.h</text>
</a>
</g>
</g>
<!-- Node1&#45;&gt;Node28 -->
<g id="edge27" class="edge"><title>Node1&#45;&gt;Node28</title>
<path fill="none" stroke="midnightblue" d="M1931.77,-145.734C2061.86,-140.44 2333.77,-126.75 2562,-98 2565.08,-97.6119 2568.22,-97.1834 2571.39,-96.7244"/>
<polygon fill="midnightblue" stroke="midnightblue" points="1931.37,-142.247 1921.52,-146.146 1931.65,-149.242 1931.37,-142.247"/>
</g>
<!-- Node3 -->
<g id="node3" class="node"><title>Node3</title>
<g id="a_node3"><a xlink:href="Checker_8cxx.html" target="_top" xlink:title="Framework/src/Checker.cxx">
<polygon fill="none" stroke="black" points="0,-6 0,-25 140,-25 140,-6 0,-6"/>
<text text-anchor="middle" x="70" y="-13" font-family="Helvetica,sans-Serif" font-size="10.00">Framework/src/Checker.cxx</text>
</a>
</g>
</g>
<!-- Node2&#45;&gt;Node3 -->
<g id="edge2" class="edge"><title>Node2&#45;&gt;Node3</title>
<path fill="none" stroke="midnightblue" d="M603.094,-76.2884C499.595,-68.7952 309.887,-53.3724 149,-31 137.122,-29.3483 124.309,-27.1699 112.53,-25.0052"/>
<polygon fill="midnightblue" stroke="midnightblue" points="602.917,-79.7846 613.142,-77.0105 603.419,-72.8026 602.917,-79.7846"/>
</g>
<!-- Node4 -->
<g id="node4" class="node"><title>Node4</title>
<g id="a_node4"><a xlink:href="CheckerFactory_8cxx.html" target="_top" xlink:title="Framework/src/CheckerFactory.cxx">
<polygon fill="none" stroke="black" points="158.5,-6 158.5,-25 331.5,-25 331.5,-6 158.5,-6"/>
<text text-anchor="middle" x="245" y="-13" font-family="Helvetica,sans-Serif" font-size="10.00">Framework/src/CheckerFactory.cxx</text>
</a>
</g>
</g>
<!-- Node2&#45;&gt;Node4 -->
<g id="edge3" class="edge"><title>Node2&#45;&gt;Node4</title>
<path fill="none" stroke="midnightblue" d="M603.117,-70.0923C534.403,-59.8859 430.975,-44.4966 341,-31 328.165,-29.0746 314.366,-26.9957 301.344,-25.0298"/>
<polygon fill="midnightblue" stroke="midnightblue" points="603.013,-73.6151 613.418,-71.6222 604.041,-66.6911 603.013,-73.6151"/>
</g>
<!-- Node5 -->
<g id="node5" class="node"><title>Node5</title>
<g id="a_node5"><a xlink:href="runBasic_8cxx.html" target="_top" xlink:title="This is an executable showing QC Task&#39;s usage in Data Processing Layer. ">
<polygon fill="none" stroke="black" points="350,-6 350,-25 492,-25 492,-6 350,-6"/>
<text text-anchor="middle" x="421" y="-13" font-family="Helvetica,sans-Serif" font-size="10.00">Framework/src/runBasic.cxx</text>
</a>
</g>
</g>
<!-- Node2&#45;&gt;Node5 -->
<g id="edge4" class="edge"><title>Node2&#45;&gt;Node5</title>
<path fill="none" stroke="midnightblue" d="M614.214,-64.9899C563.456,-52.2516 495.307,-35.1484 454.983,-25.0287"/>
<polygon fill="midnightblue" stroke="midnightblue" points="613.569,-68.4365 624.12,-67.476 615.272,-61.647 613.569,-68.4365"/>
</g>
<!-- Node6 -->
<g id="node6" class="node"><title>Node6</title>
<g id="a_node6"><a xlink:href="testChecker_8cxx.html" target="_top" xlink:title="Framework/test/testChecker.cxx">
<polygon fill="none" stroke="black" points="510,-6 510,-25 670,-25 670,-6 510,-6"/>
<text text-anchor="middle" x="590" y="-13" font-family="Helvetica,sans-Serif" font-size="10.00">Framework/test/testChecker.cxx</text>
</a>
</g>
</g>
<!-- Node2&#45;&gt;Node6 -->
<g id="edge5" class="edge"><title>Node2&#45;&gt;Node6</title>
<path fill="none" stroke="midnightblue" d="M652.039,-61.3056C635.138,-49.0999 614.476,-34.1772 601.779,-25.007"/>
<polygon fill="midnightblue" stroke="midnightblue" points="650.315,-64.3784 660.471,-67.396 654.414,-58.7036 650.315,-64.3784"/>
</g>
<!-- Node7 -->
<g id="node7" class="node"><title>Node7</title>
<g id="a_node7"><a xlink:href="testWorkflow_8cxx.html" target="_top" xlink:title="Framework/test/testWorkflow.cxx">
<polygon fill="none" stroke="black" points="688,-6 688,-25 852,-25 852,-6 688,-6"/>
<text text-anchor="middle" x="770" y="-13" font-family="Helvetica,sans-Serif" font-size="10.00">Framework/test/testWorkflow.cxx</text>
</a>
</g>
</g>
<!-- Node2&#45;&gt;Node7 -->
<g id="edge6" class="edge"><title>Node2&#45;&gt;Node7</title>
<path fill="none" stroke="midnightblue" d="M707.961,-61.3056C724.862,-49.0999 745.524,-34.1772 758.221,-25.007"/>
<polygon fill="midnightblue" stroke="midnightblue" points="705.586,-58.7036 699.529,-67.396 709.685,-64.3784 705.586,-58.7036"/>
</g>
<!-- Node8 -->
<g id="node8" class="node"><title>Node8</title>
<polygon fill="none" stroke="#bfbfbf" points="870,-6 870,-25 1088,-25 1088,-6 870,-6"/>
<text text-anchor="middle" x="979" y="-13" font-family="Helvetica,sans-Serif" font-size="10.00">Modules/EMCAL/src/runQCEMCALDigits.cxx</text>
</g>
<!-- Node2&#45;&gt;Node8 -->
<g id="edge7" class="edge"><title>Node2&#45;&gt;Node8</title>
<path fill="none" stroke="midnightblue" d="M754.486,-65.3074C813.229,-52.5371 892.83,-35.2327 939.768,-25.0287"/>
<polygon fill="midnightblue" stroke="midnightblue" points="753.539,-61.9315 744.51,-67.476 755.026,-68.7717 753.539,-61.9315"/>
</g>
<!-- Node9 -->
<g id="node9" class="node"><title>Node9</title>
<g id="a_node9"><a xlink:href="runTOF_8cxx.html" target="_top" xlink:title="This is an executable showing QC Task&#39;s usage in Data Processing Layer. ">
<polygon fill="none" stroke="black" points="1106.5,-6 1106.5,-25 1253.5,-25 1253.5,-6 1106.5,-6"/>
<text text-anchor="middle" x="1180" y="-13" font-family="Helvetica,sans-Serif" font-size="10.00">Modules/TOF/src/runTOF.cxx</text>
</a>
</g>
</g>
<!-- Node2&#45;&gt;Node9 -->
<g id="edge8" class="edge"><title>Node2&#45;&gt;Node9</title>
<path fill="none" stroke="midnightblue" d="M756.784,-73.422C840.569,-64.3229 978.578,-48.5024 1097,-31 1108.87,-29.2462 1121.65,-27.1283 1133.54,-25.0594"/>
<polygon fill="midnightblue" stroke="midnightblue" points="756.154,-69.9696 746.588,-74.5251 756.907,-76.929 756.154,-69.9696"/>
</g>
<!-- Node13 -->
<g id="node13" class="node"><title>Node13</title>
<g id="a_node13"><a xlink:href="MeanIsAbove_8cxx.html" target="_top" xlink:title="Modules/Common/src\l/MeanIsAbove.cxx">
<polygon fill="none" stroke="black" points="1271.5,-0.5 1271.5,-30.5 1384.5,-30.5 1384.5,-0.5 1271.5,-0.5"/>
<text text-anchor="start" x="1279.5" y="-18.5" font-family="Helvetica,sans-Serif" font-size="10.00">Modules/Common/src</text>
<text text-anchor="middle" x="1328" y="-7.5" font-family="Helvetica,sans-Serif" font-size="10.00">/MeanIsAbove.cxx</text>
</a>
</g>
</g>
<!-- Node12&#45;&gt;Node13 -->
<g id="edge12" class="edge"><title>Node12&#45;&gt;Node13</title>
<path fill="none" stroke="midnightblue" d="M1494.43,-64.5797C1457.89,-54.0225 1411.4,-40.5921 1376.85,-30.6109"/>
<polygon fill="midnightblue" stroke="midnightblue" points="1493.88,-68.063 1504.46,-67.476 1495.82,-61.338 1493.88,-68.063"/>
</g>
<!-- Node14 -->
<g id="node14" class="node"><title>Node14</title>
<polygon fill="none" stroke="#bfbfbf" points="1403,-0.5 1403,-30.5 1519,-30.5 1519,-0.5 1403,-0.5"/>
<text text-anchor="start" x="1411" y="-18.5" font-family="Helvetica,sans-Serif" font-size="10.00">Modules/Common/test</text>
<text text-anchor="middle" x="1461" y="-7.5" font-family="Helvetica,sans-Serif" font-size="10.00">/testMeanIsAbove.cxx</text>
</g>
<!-- Node12&#45;&gt;Node14 -->
<g id="edge13" class="edge"><title>Node12&#45;&gt;Node14</title>
<path fill="none" stroke="midnightblue" d="M1524.62,-61.4511C1510.47,-51.4517 1493.69,-39.5995 1480.92,-30.5765"/>
<polygon fill="midnightblue" stroke="midnightblue" points="1522.85,-64.4841 1533.04,-67.396 1526.89,-58.7671 1522.85,-64.4841"/>
</g>
<!-- Node16 -->
<g id="node16" class="node"><title>Node16</title>
<g id="a_node16"><a xlink:href="NonEmpty_8cxx.html" target="_top" xlink:title="Modules/Common/src\l/NonEmpty.cxx">
<polygon fill="none" stroke="black" points="1537.5,-0.5 1537.5,-30.5 1650.5,-30.5 1650.5,-0.5 1537.5,-0.5"/>
<text text-anchor="start" x="1545.5" y="-18.5" font-family="Helvetica,sans-Serif" font-size="10.00">Modules/Common/src</text>
<text text-anchor="middle" x="1594" y="-7.5" font-family="Helvetica,sans-Serif" font-size="10.00">/NonEmpty.cxx</text>
</a>
</g>
</g>
<!-- Node15&#45;&gt;Node16 -->
<g id="edge15" class="edge"><title>Node15&#45;&gt;Node16</title>
<path fill="none" stroke="midnightblue" d="M1669.63,-62.0151C1652.82,-51.8999 1632.66,-39.7698 1617.39,-30.5765"/>
<polygon fill="midnightblue" stroke="midnightblue" points="1668.19,-65.2381 1678.57,-67.396 1671.8,-59.2405 1668.19,-65.2381"/>
</g>
<!-- Node17 -->
<g id="node17" class="node"><title>Node17</title>
<g id="a_node17"><a xlink:href="testNonEmpty_8cxx.html" target="_top" xlink:title="Modules/Common/test\l/testNonEmpty.cxx">
<polygon fill="none" stroke="black" points="1669,-0.5 1669,-30.5 1785,-30.5 1785,-0.5 1669,-0.5"/>
<text text-anchor="start" x="1677" y="-18.5" font-family="Helvetica,sans-Serif" font-size="10.00">Modules/Common/test</text>
<text text-anchor="middle" x="1727" y="-7.5" font-family="Helvetica,sans-Serif" font-size="10.00">/testNonEmpty.cxx</text>
</a>
</g>
</g>
<!-- Node15&#45;&gt;Node17 -->
<g id="edge16" class="edge"><title>Node15&#45;&gt;Node17</title>
<path fill="none" stroke="midnightblue" d="M1711.04,-57.9907C1714.58,-48.8044 1718.51,-38.5781 1721.59,-30.5765"/>
<polygon fill="midnightblue" stroke="midnightblue" points="1707.75,-56.8061 1707.42,-67.396 1714.28,-59.319 1707.75,-56.8061"/>
</g>
<!-- Node19 -->
<g id="node19" class="node"><title>Node19</title>
<g id="a_node19"><a xlink:href="EverIncreasingGraph_8cxx.html" target="_top" xlink:title="Modules/Daq/src/EverIncreasing\lGraph.cxx">
<polygon fill="none" stroke="black" points="1802.5,-0.5 1802.5,-30.5 1961.5,-30.5 1961.5,-0.5 1802.5,-0.5"/>
<text text-anchor="start" x="1810.5" y="-18.5" font-family="Helvetica,sans-Serif" font-size="10.00">Modules/Daq/src/EverIncreasing</text>
<text text-anchor="middle" x="1882" y="-7.5" font-family="Helvetica,sans-Serif" font-size="10.00">Graph.cxx</text>
</a>
</g>
</g>
<!-- Node18&#45;&gt;Node19 -->
<g id="edge18" class="edge"><title>Node18&#45;&gt;Node19</title>
<path fill="none" stroke="midnightblue" d="M1864.77,-57.9907C1868.58,-48.8044 1872.83,-38.5781 1876.15,-30.5765"/>
<polygon fill="midnightblue" stroke="midnightblue" points="1861.46,-56.8184 1860.86,-67.396 1867.93,-59.5036 1861.46,-56.8184"/>
</g>
<!-- Node21 -->
<g id="node21" class="node"><title>Node21</title>
<g id="a_node21"><a xlink:href="FakeCheck_8cxx.html" target="_top" xlink:title="Modules/Example/src\l/FakeCheck.cxx">
<polygon fill="none" stroke="black" points="1979.5,-0.5 1979.5,-30.5 2090.5,-30.5 2090.5,-0.5 1979.5,-0.5"/>
<text text-anchor="start" x="1987.5" y="-18.5" font-family="Helvetica,sans-Serif" font-size="10.00">Modules/Example/src</text>
<text text-anchor="middle" x="2035" y="-7.5" font-family="Helvetica,sans-Serif" font-size="10.00">/FakeCheck.cxx</text>
</a>
</g>
</g>
<!-- Node20&#45;&gt;Node21 -->
<g id="edge20" class="edge"><title>Node20&#45;&gt;Node21</title>
<path fill="none" stroke="midnightblue" d="M2017.13,-57.9907C2021.08,-48.8044 2025.49,-38.5781 2028.94,-30.5765"/>
<polygon fill="midnightblue" stroke="midnightblue" points="2013.82,-56.8271 2013.08,-67.396 2020.25,-59.5965 2013.82,-56.8271"/>
</g>
<!-- Node23 -->
<g id="node23" class="node"><title>Node23</title>
<g id="a_node23"><a xlink:href="SkeletonCheck_8cxx.html" target="_top" xlink:title="Modules/Skeleton/src\l/SkeletonCheck.cxx">
<polygon fill="none" stroke="black" points="2108.5,-0.5 2108.5,-30.5 2219.5,-30.5 2219.5,-0.5 2108.5,-0.5"/>
<text text-anchor="start" x="2116.5" y="-18.5" font-family="Helvetica,sans-Serif" font-size="10.00">Modules/Skeleton/src</text>
<text text-anchor="middle" x="2164" y="-7.5" font-family="Helvetica,sans-Serif" font-size="10.00">/SkeletonCheck.cxx</text>
</a>
</g>
</g>
<!-- Node22&#45;&gt;Node23 -->
<g id="edge22" class="edge"><title>Node22&#45;&gt;Node23</title>
<path fill="none" stroke="midnightblue" d="M2159.6,-57.4029C2160.57,-48.3703 2161.64,-38.4078 2162.48,-30.5765"/>
<polygon fill="midnightblue" stroke="midnightblue" points="2156.11,-57.0787 2158.52,-67.396 2163.07,-57.8282 2156.11,-57.0787"/>
</g>
<!-- Node25 -->
<g id="node25" class="node"><title>Node25</title>
<g id="a_node25"><a xlink:href="TOFCheckRawsMulti_8cxx.html" target="_top" xlink:title="Modules/TOF/src/TOFCheck\lRawsMulti.cxx">
<polygon fill="none" stroke="black" points="2244.5,-0.5 2244.5,-30.5 2387.5,-30.5 2387.5,-0.5 2244.5,-0.5"/>
<text text-anchor="start" x="2252.5" y="-18.5" font-family="Helvetica,sans-Serif" font-size="10.00">Modules/TOF/src/TOFCheck</text>
<text text-anchor="middle" x="2316" y="-7.5" font-family="Helvetica,sans-Serif" font-size="10.00">RawsMulti.cxx</text>
</a>
</g>
</g>
<!-- Node24&#45;&gt;Node25 -->
<g id="edge24" class="edge"><title>Node24&#45;&gt;Node25</title>
<path fill="none" stroke="midnightblue" d="M2316,-57.1081C2316,-48.1539 2316,-38.3227 2316,-30.5765"/>
<polygon fill="midnightblue" stroke="midnightblue" points="2312.5,-57.3959 2316,-67.396 2319.5,-57.396 2312.5,-57.3959"/>
</g>
<!-- Node27 -->
<g id="node27" class="node"><title>Node27</title>
<g id="a_node27"><a xlink:href="TOFCheckRawsTime_8cxx.html" target="_top" xlink:title="Modules/TOF/src/TOFCheck\lRawsTime.cxx">
<polygon fill="none" stroke="black" points="2408.5,-0.5 2408.5,-30.5 2551.5,-30.5 2551.5,-0.5 2408.5,-0.5"/>
<text text-anchor="start" x="2416.5" y="-18.5" font-family="Helvetica,sans-Serif" font-size="10.00">Modules/TOF/src/TOFCheck</text>
<text text-anchor="middle" x="2480" y="-7.5" font-family="Helvetica,sans-Serif" font-size="10.00">RawsTime.cxx</text>
</a>
</g>
</g>
<!-- Node26&#45;&gt;Node27 -->
<g id="edge26" class="edge"><title>Node26&#45;&gt;Node27</title>
<path fill="none" stroke="midnightblue" d="M2480,-57.1081C2480,-48.1539 2480,-38.3227 2480,-30.5765"/>
<polygon fill="midnightblue" stroke="midnightblue" points="2476.5,-57.3959 2480,-67.396 2483.5,-57.396 2476.5,-57.3959"/>
</g>
<!-- Node29 -->
<g id="node29" class="node"><title>Node29</title>
<g id="a_node29"><a xlink:href="TOFCheckRawsToT_8cxx.html" target="_top" xlink:title="Modules/TOF/src/TOFCheck\lRawsToT.cxx">
<polygon fill="none" stroke="black" points="2570.5,-0.5 2570.5,-30.5 2713.5,-30.5 2713.5,-0.5 2570.5,-0.5"/>
<text text-anchor="start" x="2578.5" y="-18.5" font-family="Helvetica,sans-Serif" font-size="10.00">Modules/TOF/src/TOFCheck</text>
<text text-anchor="middle" x="2642" y="-7.5" font-family="Helvetica,sans-Serif" font-size="10.00">RawsToT.cxx</text>
</a>
</g>
</g>
<!-- Node28&#45;&gt;Node29 -->
<g id="edge28" class="edge"><title>Node28&#45;&gt;Node29</title>
<path fill="none" stroke="midnightblue" d="M2642,-57.1081C2642,-48.1539 2642,-38.3227 2642,-30.5765"/>
<polygon fill="midnightblue" stroke="midnightblue" points="2638.5,-57.3959 2642,-67.396 2645.5,-57.396 2638.5,-57.3959"/>
</g>
</g>
</svg>
        <g id="navigator" transform="translate(0 0)" fill="#404254">
                <rect fill="#f2f5e9" fill-opacity="0.5" stroke="#606060" stroke-width=".5" x="0" y="0" width="60" height="60"/>
                <use id="zoomplus" xlink:href="#zoomPlus" x="17" y="9" onmousedown="handleZoom(evt,'in')"/>
                <use id="zoomminus" xlink:href="#zoomMin" x="42" y="9" onmousedown="handleZoom(evt,'out')"/>
                <use id="reset" xlink:href="#resetDef" x="30" y="36" onmousedown="handleReset()"/>
                <g id="arrowUp" xlink:href="#dirArrow" transform="translate(30 24)" onmousedown="handlePan(0,-1)">
                  <use xlink:href="#rim" fill="#404040">
                        <set attributeName="fill" to="#808080" begin="arrowUp.mouseover" end="arrowUp.mouseout"/>
                  </use>
                  <path fill="none" stroke="white" stroke-width="1.5" d="M0,-3.0v7 M-2.5,-0.5L0,-3.0L2.5,-0.5"/>
                </g>
                <g id="arrowRight" xlink:href="#dirArrow" transform="rotate(90) translate(36 -43)" onmousedown="handlePan(1,0)">
                  <use xlink:href="#rim" fill="#404040">
                        <set attributeName="fill" to="#808080" begin="arrowRight.mouseover" end="arrowRight.mouseout"/>
                  </use>
                  <path fill="none" stroke="white" stroke-width="1.5" d="M0,-3.0v7 M-2.5,-0.5L0,-3.0L2.5,-0.5"/>
                </g>
                <g id="arrowDown" xlink:href="#dirArrow" transform="rotate(180) translate(-30 -48)" onmousedown="handlePan(0,1)">
                  <use xlink:href="#rim" fill="#404040">
                        <set attributeName="fill" to="#808080" begin="arrowDown.mouseover" end="arrowDown.mouseout"/>
                  </use>
                  <path fill="none" stroke="white" stroke-width="1.5" d="M0,-3.0v7 M-2.5,-0.5L0,-3.0L2.5,-0.5"/>
                </g>
                <g id="arrowLeft" xlink:href="#dirArrow" transform="rotate(270) translate(-36 17)" onmousedown="handlePan(-1,0)">
                  <use xlink:href="#rim" fill="#404040">
                        <set attributeName="fill" to="#808080" begin="arrowLeft.mouseover" end="arrowLeft.mouseout"/>
                  </use>
                  <path fill="none" stroke="white" stroke-width="1.5" d="M0,-3.0v7 M-2.5,-0.5L0,-3.0L2.5,-0.5"/>
                </g>
        </g>
        <svg viewBox="0 0 15 15" width="100%" height="30px" preserveAspectRatio="xMaxYMin meet">
         <g id="arrow_out" transform="scale(0.3 0.3)">
          <a xlink:href="CheckInterface_8h__dep__incl_org.svg" target="_base">
           <rect id="button" ry="5" rx="5" y="6" x="6" height="38" width="38"
                fill="#f2f5e9" fill-opacity="0.5" stroke="#606060" stroke-width="1.0"/>
           <path id="arrow"
             d="M 11.500037,31.436501 C 11.940474,20.09759 22.043105,11.32322 32.158766,21.979434 L 37.068811,17.246167 C 37.068811,17.246167 37.088388,32 37.088388,32 L 22.160133,31.978069 C 22.160133,31.978069 26.997745,27.140456 26.997745,27.140456 C 18.528582,18.264221 13.291696,25.230495 11.500037,31.436501 z"
             style="fill:#404040;"/>
          </a>
         </g>
        </svg>
</svg>
