<?xml version="1.0" encoding="UTF-8" standalone="no"?>
<!DOCTYPE svg PUBLIC "-//W3C//DTD SVG 1.1//EN"
 "http://www.w3.org/Graphics/SVG/1.1/DTD/svg11.dtd">
<!-- Generated by graphviz version 2.38.0 (20140413.2041)
 -->
<!-- Title: o2::quality_control::core::DataDumpGui Pages: 1 -->
<svg width="387pt" height="491pt"
 viewBox="0.00 0.00 386.50 491.00" xmlns="http://www.w3.org/2000/svg" xmlns:xlink="http://www.w3.org/1999/xlink">
<g id="graph0" class="graph" transform="scale(1 1) rotate(0) translate(4 487)">
<title>o2::quality_control::core::DataDumpGui</title>
<!-- Node1 -->
<g id="node1" class="node"><title>Node1</title>
<polygon fill="#bfbfbf" stroke="black" points="109.5,-0.5 109.5,-112.5 219.5,-112.5 219.5,-0.5 109.5,-0.5"/>
<text text-anchor="start" x="117.5" y="-100.5" font-family="Helvetica,sans-Serif" font-size="10.00">o2::quality_control</text>
<text text-anchor="middle" x="164.5" y="-89.5" font-family="Helvetica,sans-Serif" font-size="10.00">::core::DataDumpGui</text>
<polyline fill="none" stroke="black" points="109.5,-82.5 219.5,-82.5 "/>
<text text-anchor="middle" x="164.5" y="-70.5" font-family="Helvetica,sans-Serif" font-size="10.00"> </text>
<polyline fill="none" stroke="black" points="109.5,-63.5 219.5,-63.5 "/>
<text text-anchor="start" x="117.5" y="-51.5" font-family="Helvetica,sans-Serif" font-size="10.00">+ DataDumpGui()</text>
<text text-anchor="start" x="117.5" y="-40.5" font-family="Helvetica,sans-Serif" font-size="10.00">+ ~DataDumpGui()</text>
<text text-anchor="start" x="117.5" y="-29.5" font-family="Helvetica,sans-Serif" font-size="10.00"># InitTask()</text>
<text text-anchor="start" x="117.5" y="-18.5" font-family="Helvetica,sans-Serif" font-size="10.00"># ConditionalRun()</text>
<text text-anchor="start" x="117.5" y="-7.5" font-family="Helvetica,sans-Serif" font-size="10.00"># handleParts()</text>
</g>
<!-- Node2 -->
<g id="node2" class="node"><title>Node2</title>
<g id="a_node2"><a xlink:href="classFairMQDevice.html" target="_top" xlink:title="{FairMQDevice\n||}">
<polygon fill="none" stroke="black" points="18.5,-166 18.5,-223 98.5,-223 98.5,-166 18.5,-166"/>
<text text-anchor="middle" x="58.5" y="-211" font-family="Helvetica,sans-Serif" font-size="10.00">FairMQDevice</text>
<polyline fill="none" stroke="black" points="18.5,-204 98.5,-204 "/>
<text text-anchor="middle" x="58.5" y="-192" font-family="Helvetica,sans-Serif" font-size="10.00"> </text>
<polyline fill="none" stroke="black" points="18.5,-185 98.5,-185 "/>
<text text-anchor="middle" x="58.5" y="-173" font-family="Helvetica,sans-Serif" font-size="10.00"> </text>
</a>
</g>
</g>
<!-- Node2&#45;&gt;Node1 -->
<g id="edge1" class="edge"><title>Node2&#45;&gt;Node1</title>
<path fill="none" stroke="midnightblue" d="M86.0996,-158.089C96.9405,-144.18 109.638,-127.888 121.62,-112.516"/>
<polygon fill="none" stroke="midnightblue" points="83.3376,-155.939 79.9507,-165.978 88.8587,-160.243 83.3376,-155.939"/>
</g>
<!-- Node3 -->
<g id="node3" class="node"><title>Node3</title>
<g id="a_node3"><a xlink:href="structo2_1_1quality__control_1_1core_1_1GUIState.html" target="_top" xlink:title="{o2::quality_control\l::core::GUIState\n||+ GUIState()\l}">
<polygon fill="none" stroke="black" points="116.5,-160.5 116.5,-228.5 212.5,-228.5 212.5,-160.5 116.5,-160.5"/>
<text text-anchor="start" x="124.5" y="-216.5" font-family="Helvetica,sans-Serif" font-size="10.00">o2::quality_control</text>
<text text-anchor="middle" x="164.5" y="-205.5" font-family="Helvetica,sans-Serif" font-size="10.00">::core::GUIState</text>
<polyline fill="none" stroke="black" points="116.5,-198.5 212.5,-198.5 "/>
<text text-anchor="middle" x="164.5" y="-186.5" font-family="Helvetica,sans-Serif" font-size="10.00"> </text>
<polyline fill="none" stroke="black" points="116.5,-179.5 212.5,-179.5 "/>
<text text-anchor="start" x="124.5" y="-167.5" font-family="Helvetica,sans-Serif" font-size="10.00">+ GUIState()</text>
</a>
</g>
</g>
<!-- Node3&#45;&gt;Node1 -->
<g id="edge2" class="edge"><title>Node3&#45;&gt;Node1</title>
<path fill="none" stroke="#404040" d="M164.5,-160.231C164.5,-149.497 164.5,-137.184 164.5,-124.898"/>
<polygon fill="none" stroke="#404040" points="164.5,-124.68 160.5,-118.68 164.5,-112.68 168.5,-118.68 164.5,-124.68"/>
<text text-anchor="middle" x="187.5" y="-134" font-family="Helvetica,sans-Serif" font-size="10.00"> +guiState</text>
</g>
<!-- Node4 -->
<g id="node4" class="node"><title>Node4</title>
<g id="a_node4"><a xlink:href="structo2_1_1quality__control_1_1core_1_1Chunk.html" target="_top" xlink:title="{o2::quality_control\l::core::Chunk\n||+ Chunk()\l}">
<polygon fill="none" stroke="black" points="14.5,-309.5 14.5,-377.5 110.5,-377.5 110.5,-309.5 14.5,-309.5"/>
<text text-anchor="start" x="22.5" y="-365.5" font-family="Helvetica,sans-Serif" font-size="10.00">o2::quality_control</text>
<text text-anchor="middle" x="62.5" y="-354.5" font-family="Helvetica,sans-Serif" font-size="10.00">::core::Chunk</text>
<polyline fill="none" stroke="black" points="14.5,-347.5 110.5,-347.5 "/>
<text text-anchor="middle" x="62.5" y="-335.5" font-family="Helvetica,sans-Serif" font-size="10.00"> </text>
<polyline fill="none" stroke="black" points="14.5,-328.5 110.5,-328.5 "/>
<text text-anchor="start" x="22.5" y="-316.5" font-family="Helvetica,sans-Serif" font-size="10.00">+ Chunk()</text>
</a>
</g>
</g>
<!-- Node4&#45;&gt;Node3 -->
<g id="edge3" class="edge"><title>Node4&#45;&gt;Node3</title>
<path fill="none" stroke="#404040" d="M62.6451,-309.448C64.2082,-289.784 68.8878,-265.203 81.5,-247 82.5679,-245.459 92.8067,-238.834 105.751,-230.823"/>
<polygon fill="none" stroke="#404040" points="105.844,-230.767 108.865,-224.219 116.071,-224.488 113.05,-231.036 105.844,-230.767"/>
<text text-anchor="middle" x="121" y="-283" font-family="Helvetica,sans-Serif" font-size="10.00"> +current_payload</text>
<text text-anchor="middle" x="121" y="-272" font-family="Helvetica,sans-Serif" font-size="10.00">+next_header</text>
<text text-anchor="middle" x="121" y="-261" font-family="Helvetica,sans-Serif" font-size="10.00">+current_header</text>
<text text-anchor="middle" x="121" y="-250" font-family="Helvetica,sans-Serif" font-size="10.00">+next_payload</text>
</g>
<!-- Node5 -->
<g id="node5" class="node"><title>Node5</title>
<polygon fill="none" stroke="#bfbfbf" points="0,-425.5 0,-482.5 43,-482.5 43,-425.5 0,-425.5"/>
<text text-anchor="middle" x="21.5" y="-470.5" font-family="Helvetica,sans-Serif" font-size="10.00">size_t</text>
<polyline fill="none" stroke="#bfbfbf" points="0,-463.5 43,-463.5 "/>
<text text-anchor="middle" x="21.5" y="-451.5" font-family="Helvetica,sans-Serif" font-size="10.00"> </text>
<polyline fill="none" stroke="#bfbfbf" points="0,-444.5 43,-444.5 "/>
<text text-anchor="middle" x="21.5" y="-432.5" font-family="Helvetica,sans-Serif" font-size="10.00"> </text>
</g>
<!-- Node5&#45;&gt;Node4 -->
<g id="edge4" class="edge"><title>Node5&#45;&gt;Node4</title>
<path fill="none" stroke="#404040" d="M31.9521,-425.34C36.1233,-414.302 41.0318,-401.312 45.6795,-389.013"/>
<polygon fill="none" stroke="#404040" points="45.7811,-388.744 44.1602,-381.717 50.0229,-377.519 51.6438,-384.545 45.7811,-388.744"/>
<text text-anchor="middle" x="56.5" y="-399" font-family="Helvetica,sans-Serif" font-size="10.00"> +size</text>
</g>
<!-- Node6 -->
<g id="node6" class="node"><title>Node6</title>
<polygon fill="none" stroke="#bfbfbf" points="61.5,-425.5 61.5,-482.5 145.5,-482.5 145.5,-425.5 61.5,-425.5"/>
<text text-anchor="middle" x="103.5" y="-470.5" font-family="Helvetica,sans-Serif" font-size="10.00">unsigned char *</text>
<polyline fill="none" stroke="#bfbfbf" points="61.5,-463.5 145.5,-463.5 "/>
<text text-anchor="middle" x="103.5" y="-451.5" font-family="Helvetica,sans-Serif" font-size="10.00"> </text>
<polyline fill="none" stroke="#bfbfbf" points="61.5,-444.5 145.5,-444.5 "/>
<text text-anchor="middle" x="103.5" y="-432.5" font-family="Helvetica,sans-Serif" font-size="10.00"> </text>
</g>
<!-- Node6&#45;&gt;Node4 -->
<g id="edge5" class="edge"><title>Node6&#45;&gt;Node4</title>
<path fill="none" stroke="#404040" d="M93.0479,-425.34C88.8767,-414.302 83.9682,-401.312 79.3205,-389.013"/>
<polygon fill="none" stroke="#404040" points="79.2189,-388.744 73.3562,-384.545 74.9771,-377.519 80.8398,-381.717 79.2189,-388.744"/>
<text text-anchor="middle" x="99.5" y="-399" font-family="Helvetica,sans-Serif" font-size="10.00"> +data</text>
</g>
<!-- Node7 -->
<g id="node7" class="node"><title>Node7</title>
<polygon fill="none" stroke="#bfbfbf" points="144,-315 144,-372 185,-372 185,-315 144,-315"/>
<text text-anchor="middle" x="164.5" y="-360" font-family="Helvetica,sans-Serif" font-size="10.00">string</text>
<polyline fill="none" stroke="#bfbfbf" points="144,-353 185,-353 "/>
<text text-anchor="middle" x="164.5" y="-341" font-family="Helvetica,sans-Serif" font-size="10.00"> </text>
<polyline fill="none" stroke="#bfbfbf" points="144,-334 185,-334 "/>
<text text-anchor="middle" x="164.5" y="-322" font-family="Helvetica,sans-Serif" font-size="10.00"> </text>
</g>
<!-- Node7&#45;&gt;Node3 -->
<g id="edge6" class="edge"><title>Node7&#45;&gt;Node3</title>
<path fill="none" stroke="#404040" d="M164.5,-314.85C164.5,-294.028 164.5,-265.032 164.5,-240.835"/>
<polygon fill="none" stroke="#404040" points="164.5,-240.687 160.5,-234.687 164.5,-228.687 168.5,-234.687 164.5,-240.687"/>
<text text-anchor="middle" x="217" y="-272" font-family="Helvetica,sans-Serif" font-size="10.00"> +actionMessage</text>
<text text-anchor="middle" x="217" y="-261" font-family="Helvetica,sans-Serif" font-size="10.00">+dataAvailableMessage</text>
</g>
<!-- Node8 -->
<g id="node8" class="node"><title>Node8</title>
<polygon fill="none" stroke="#bfbfbf" points="275,-315 275,-372 310,-372 310,-315 275,-315"/>
<text text-anchor="middle" x="292.5" y="-360" font-family="Helvetica,sans-Serif" font-size="10.00">bool</text>
<polyline fill="none" stroke="#bfbfbf" points="275,-353 310,-353 "/>
<text text-anchor="middle" x="292.5" y="-341" font-family="Helvetica,sans-Serif" font-size="10.00"> </text>
<polyline fill="none" stroke="#bfbfbf" points="275,-334 310,-334 "/>
<text text-anchor="middle" x="292.5" y="-322" font-family="Helvetica,sans-Serif" font-size="10.00"> </text>
</g>
<!-- Node8&#45;&gt;Node3 -->
<g id="edge7" class="edge"><title>Node8&#45;&gt;Node3</title>
<path fill="none" stroke="#404040" d="M292.88,-314.644C291.706,-293.685 286.815,-265.505 270.5,-247 257.255,-231.976 245.992,-236.869 223.997,-229.286"/>
<polygon fill="none" stroke="#404040" points="223.781,-229.197 216.708,-230.604 212.689,-224.616 219.762,-223.209 223.781,-229.197"/>
<text text-anchor="middle" x="334.5" y="-266.5" font-family="Helvetica,sans-Serif" font-size="10.00"> +newDataAvailable</text>
</g>
<!-- Node9 -->
<g id="node9" class="node"><title>Node9</title>
<polygon fill="none" stroke="#bfbfbf" points="230.5,-166 230.5,-223 298.5,-223 298.5,-166 230.5,-166"/>
<text text-anchor="middle" x="264.5" y="-211" font-family="Helvetica,sans-Serif" font-size="10.00">static void *</text>
<polyline fill="none" stroke="#bfbfbf" points="230.5,-204 298.5,-204 "/>
<text text-anchor="middle" x="264.5" y="-192" font-family="Helvetica,sans-Serif" font-size="10.00"> </text>
<polyline fill="none" stroke="#bfbfbf" points="230.5,-185 298.5,-185 "/>
<text text-anchor="middle" x="264.5" y="-173" font-family="Helvetica,sans-Serif" font-size="10.00"> </text>
</g>
<!-- Node9&#45;&gt;Node1 -->
<g id="edge8" class="edge"><title>Node9&#45;&gt;Node1</title>
<path fill="none" stroke="#404040" d="M244.264,-165.978C234.994,-153.372 223.579,-137.847 212.312,-122.524"/>
<polygon fill="none" stroke="#404040" points="212.062,-122.184 205.285,-119.72 204.953,-112.516 211.73,-114.981 212.062,-122.184"/>
<text text-anchor="middle" x="248" y="-134" font-family="Helvetica,sans-Serif" font-size="10.00"> +window</text>
</g>
</g>
</svg>
