<?xml version="1.0" encoding="UTF-8" standalone="no"?>
<!DOCTYPE svg PUBLIC "-//W3C//DTD SVG 1.1//EN"
 "http://www.w3.org/Graphics/SVG/1.1/DTD/svg11.dtd">
<!-- Generated by graphviz version 2.38.0 (20140413.2041)
 -->
<!-- Title: o2::quality_control::core::QcInfoLogger Pages: 1 -->
<svg width="114pt" height="182pt"
 viewBox="0.00 0.00 114.00 182.00" xmlns="http://www.w3.org/2000/svg" xmlns:xlink="http://www.w3.org/1999/xlink">
<g id="graph0" class="graph" transform="scale(1 1) rotate(0) translate(4 178)">
<title>o2::quality_control::core::QcInfoLogger</title>
<!-- Node1 -->
<g id="node1" class="node"><title>Node1</title>
<polygon fill="#bfbfbf" stroke="black" points="-7.10543e-15,-0.5 -7.10543e-15,-68.5 106,-68.5 106,-0.5 -7.10543e-15,-0.5"/>
<text text-anchor="start" x="8" y="-56.5" font-family="Helvetica,sans-Serif" font-size="10.00">o2::quality_control</text>
<text text-anchor="middle" x="53" y="-45.5" font-family="Helvetica,sans-Serif" font-size="10.00">::core::QcInfoLogger</text>
<polyline fill="none" stroke="black" points="-7.10543e-15,-38.5 106,-38.5 "/>
<text text-anchor="middle" x="53" y="-26.5" font-family="Helvetica,sans-Serif" font-size="10.00"> </text>
<polyline fill="none" stroke="black" points="-7.10543e-15,-19.5 106,-19.5 "/>
<text text-anchor="start" x="8" y="-7.5" font-family="Helvetica,sans-Serif" font-size="10.00">+ GetInstance()</text>
</g>
<!-- Node2 -->
<g id="node2" class="node"><title>Node2</title>
<polygon fill="none" stroke="#bfbfbf" points="1.5,-105.5 1.5,-173.5 104.5,-173.5 104.5,-105.5 1.5,-105.5"/>
<text text-anchor="start" x="9.5" y="-161.5" font-family="Helvetica,sans-Serif" font-size="10.00">AliceO2::InfoLogger</text>
<text text-anchor="middle" x="53" y="-150.5" font-family="Helvetica,sans-Serif" font-size="10.00">::InfoLogger</text>
<polyline fill="none" stroke="#bfbfbf" points="1.5,-143.5 104.5,-143.5 "/>
<text text-anchor="middle" x="53" y="-131.5" font-family="Helvetica,sans-Serif" font-size="10.00"> </text>
<polyline fill="none" stroke="#bfbfbf" points="1.5,-124.5 104.5,-124.5 "/>
<text text-anchor="middle" x="53" y="-112.5" font-family="Helvetica,sans-Serif" font-size="10.00"> </text>
</g>
<!-- Node2&#45;&gt;Node1 -->
<g id="edge1" class="edge"><title>Node2&#45;&gt;Node1</title>
<path fill="none" stroke="midnightblue" d="M53,-95.1362C53,-86.256 53,-77.0447 53,-68.5947"/>
<polygon fill="none" stroke="midnightblue" points="49.5001,-95.3432 53,-105.343 56.5001,-95.3432 49.5001,-95.3432"/>
</g>
</g>
</svg>
