<?xml version="1.0" encoding="UTF-8" standalone="no"?>
<!DOCTYPE svg PUBLIC "-//W3C//DTD SVG 1.1//EN"
 "http://www.w3.org/Graphics/SVG/1.1/DTD/svg11.dtd">
<!-- Generated by graphviz version 2.38.0 (20140413.2041)
 -->
<!-- Title: FairMQDevice Pages: 1 -->
<svg width="586pt" height="237pt"
 viewBox="0.00 0.00 586.00 237.00" xmlns="http://www.w3.org/2000/svg" xmlns:xlink="http://www.w3.org/1999/xlink">
<g id="graph0" class="graph" transform="scale(1 1) rotate(0) translate(4 233)">
<title>FairMQDevice</title>
<!-- Node1 -->
<g id="node1" class="node"><title>Node1</title>
<polygon fill="#bfbfbf" stroke="black" points="248,-171.5 248,-228.5 328,-228.5 328,-171.5 248,-171.5"/>
<text text-anchor="middle" x="288" y="-216.5" font-family="Helvetica,sans-Serif" font-size="10.00">FairMQDevice</text>
<polyline fill="none" stroke="black" points="248,-209.5 328,-209.5 "/>
<text text-anchor="middle" x="288" y="-197.5" font-family="Helvetica,sans-Serif" font-size="10.00"> </text>
<polyline fill="none" stroke="black" points="248,-190.5 328,-190.5 "/>
<text text-anchor="middle" x="288" y="-178.5" font-family="Helvetica,sans-Serif" font-size="10.00"> </text>
</g>
<!-- Node2 -->
<g id="node2" class="node"><title>Node2</title>
<g id="a_node2"><a xlink:href="classInformationService.html" target="_top" xlink:title="Collect the list of objects published by all the tasks and make it available to clients. ">
<polygon fill="none" stroke="black" points="0,-17 0,-118 124,-118 124,-17 0,-17"/>
<text text-anchor="middle" x="62" y="-106" font-family="Helvetica,sans-Serif" font-size="10.00">InformationService</text>
<polyline fill="none" stroke="black" points="0,-99 124,-99 "/>
<text text-anchor="middle" x="62" y="-87" font-family="Helvetica,sans-Serif" font-size="10.00"> </text>
<polyline fill="none" stroke="black" points="0,-80 124,-80 "/>
<text text-anchor="start" x="8" y="-68" font-family="Helvetica,sans-Serif" font-size="10.00">+ InformationService()</text>
<text text-anchor="start" x="8" y="-57" font-family="Helvetica,sans-Serif" font-size="10.00">+ ~InformationService()</text>
<text text-anchor="start" x="8" y="-46" font-family="Helvetica,sans-Serif" font-size="10.00"># handleTaskInputData()</text>
<text text-anchor="start" x="8" y="-35" font-family="Helvetica,sans-Serif" font-size="10.00"># handleRequestData()</text>
<text text-anchor="start" x="8" y="-24" font-family="Helvetica,sans-Serif" font-size="10.00"># Init()</text>
</a>
</g>
</g>
<!-- Node1&#45;&gt;Node2 -->
<g id="edge1" class="edge"><title>Node1&#45;&gt;Node2</title>
<path fill="none" stroke="midnightblue" d="M238.381,-183.67C206.806,-172.698 165.83,-156.142 133,-135 125.332,-130.062 117.74,-124.249 110.533,-118.149"/>
<polygon fill="none" stroke="midnightblue" points="237.264,-186.987 247.859,-186.895 239.519,-180.36 237.264,-186.987"/>
</g>
<!-- Node3 -->
<g id="node3" class="node"><title>Node3</title>
<g id="a_node3"><a xlink:href="classInformationServiceDump.html" target="_top" xlink:title="Dump the publications received from the InformationService. ">
<polygon fill="none" stroke="black" points="142,-28 142,-107 288,-107 288,-28 142,-28"/>
<text text-anchor="middle" x="215" y="-95" font-family="Helvetica,sans-Serif" font-size="10.00">InformationServiceDump</text>
<polyline fill="none" stroke="black" points="142,-88 288,-88 "/>
<text text-anchor="middle" x="215" y="-76" font-family="Helvetica,sans-Serif" font-size="10.00"> </text>
<polyline fill="none" stroke="black" points="142,-69 288,-69 "/>
<text text-anchor="start" x="150" y="-57" font-family="Helvetica,sans-Serif" font-size="10.00">+ InformationServiceDump()</text>
<text text-anchor="start" x="150" y="-46" font-family="Helvetica,sans-Serif" font-size="10.00">+ ~InformationServiceDump()</text>
<text text-anchor="start" x="150" y="-35" font-family="Helvetica,sans-Serif" font-size="10.00"># HandleData()</text>
</a>
</g>
</g>
<!-- Node1&#45;&gt;Node3 -->
<g id="edge2" class="edge"><title>Node1&#45;&gt;Node3</title>
<path fill="none" stroke="midnightblue" d="M267.38,-162.139C257.752,-144.927 246.293,-124.441 236.551,-107.026"/>
<polygon fill="none" stroke="midnightblue" points="264.582,-164.306 272.519,-171.324 270.691,-160.888 264.582,-164.306"/>
</g>
<!-- Node4 -->
<g id="node4" class="node"><title>Node4</title>
<g id="a_node4"><a xlink:href="classo2_1_1quality__control_1_1core_1_1DataDumpGui.html" target="_top" xlink:title="{o2::quality_control\l::core::DataDumpGui\n|+ guiState\l+ window\l|+ DataDumpGui()\l+ ~DataDumpGui()\l# InitTask()\l# ConditionalRun()\l# handleParts()\l}">
<polygon fill="none" stroke="black" points="306,-6 306,-129 416,-129 416,-6 306,-6"/>
<text text-anchor="start" x="314" y="-117" font-family="Helvetica,sans-Serif" font-size="10.00">o2::quality_control</text>
<text text-anchor="middle" x="361" y="-106" font-family="Helvetica,sans-Serif" font-size="10.00">::core::DataDumpGui</text>
<polyline fill="none" stroke="black" points="306,-99 416,-99 "/>
<text text-anchor="start" x="314" y="-87" font-family="Helvetica,sans-Serif" font-size="10.00">+ guiState</text>
<text text-anchor="start" x="314" y="-76" font-family="Helvetica,sans-Serif" font-size="10.00">+ window</text>
<polyline fill="none" stroke="black" points="306,-69 416,-69 "/>
<text text-anchor="start" x="314" y="-57" font-family="Helvetica,sans-Serif" font-size="10.00">+ DataDumpGui()</text>
<text text-anchor="start" x="314" y="-46" font-family="Helvetica,sans-Serif" font-size="10.00">+ ~DataDumpGui()</text>
<text text-anchor="start" x="314" y="-35" font-family="Helvetica,sans-Serif" font-size="10.00"># InitTask()</text>
<text text-anchor="start" x="314" y="-24" font-family="Helvetica,sans-Serif" font-size="10.00"># ConditionalRun()</text>
<text text-anchor="start" x="314" y="-13" font-family="Helvetica,sans-Serif" font-size="10.00"># handleParts()</text>
</a>
</g>
</g>
<!-- Node1&#45;&gt;Node4 -->
<g id="edge3" class="edge"><title>Node1&#45;&gt;Node4</title>
<path fill="none" stroke="midnightblue" d="M308.39,-162.55C314.197,-152.168 320.685,-140.57 327.068,-129.16"/>
<polygon fill="none" stroke="midnightblue" points="305.309,-160.888 303.481,-171.324 311.418,-164.306 305.309,-160.888"/>
</g>
<!-- Node5 -->
<g id="node5" class="node"><title>Node5</title>
<g id="a_node5"><a xlink:href="classo2_1_1quality__control_1_1core_1_1RepositoryBenchmark.html" target="_top" xlink:title="{o2::quality_control\l::core::RepositoryBenchmark\n||+ RepositoryBenchmark()\l+ ~RepositoryBenchmark()\l# InitTask()\l# ConditionalRun()\l# emptyDatabase()\l# checkTimedOut()\l# createHisto()\l}">
<polygon fill="none" stroke="black" points="434,-0.5 434,-134.5 578,-134.5 578,-0.5 434,-0.5"/>
<text text-anchor="start" x="442" y="-122.5" font-family="Helvetica,sans-Serif" font-size="10.00">o2::quality_control</text>
<text text-anchor="middle" x="506" y="-111.5" font-family="Helvetica,sans-Serif" font-size="10.00">::core::RepositoryBenchmark</text>
<polyline fill="none" stroke="black" points="434,-104.5 578,-104.5 "/>
<text text-anchor="middle" x="506" y="-92.5" font-family="Helvetica,sans-Serif" font-size="10.00"> </text>
<polyline fill="none" stroke="black" points="434,-85.5 578,-85.5 "/>
<text text-anchor="start" x="442" y="-73.5" font-family="Helvetica,sans-Serif" font-size="10.00">+ RepositoryBenchmark()</text>
<text text-anchor="start" x="442" y="-62.5" font-family="Helvetica,sans-Serif" font-size="10.00">+ ~RepositoryBenchmark()</text>
<text text-anchor="start" x="442" y="-51.5" font-family="Helvetica,sans-Serif" font-size="10.00"># InitTask()</text>
<text text-anchor="start" x="442" y="-40.5" font-family="Helvetica,sans-Serif" font-size="10.00"># ConditionalRun()</text>
<text text-anchor="start" x="442" y="-29.5" font-family="Helvetica,sans-Serif" font-size="10.00"># emptyDatabase()</text>
<text text-anchor="start" x="442" y="-18.5" font-family="Helvetica,sans-Serif" font-size="10.00"># checkTimedOut()</text>
<text text-anchor="start" x="442" y="-7.5" font-family="Helvetica,sans-Serif" font-size="10.00"># createHisto()</text>
</a>
</g>
</g>
<!-- Node1&#45;&gt;Node5 -->
<g id="edge4" class="edge"><title>Node1&#45;&gt;Node5</title>
<path fill="none" stroke="midnightblue" d="M337.586,-179.408C364.326,-167.971 397.404,-152.386 425,-135 427.925,-133.157 430.862,-131.222 433.793,-129.217"/>
<polygon fill="none" stroke="midnightblue" points="335.899,-176.321 328.043,-183.429 338.617,-182.771 335.899,-176.321"/>
</g>
</g>
</svg>
