<?xml version="1.0" encoding="UTF-8" standalone="no"?>
<!DOCTYPE svg PUBLIC "-//W3C//DTD SVG 1.1//EN"
 "http://www.w3.org/Graphics/SVG/1.1/DTD/svg11.dtd">
<!-- Generated by graphviz version 2.38.0 (20140413.2041)
 -->
<!-- Title: o2::quality_control_modules::tof::TOFTask Pages: 1 -->
<!--zoomable 661 -->
<svg id="main" version="1.1" xmlns="http://www.w3.org/2000/svg" xmlns:xlink="http://www.w3.org/1999/xlink" xml:space="preserve" onload="init(evt)">
<style type="text/css"><![CDATA[
.edge:hover path { stroke: red; }
.edge:hover polygon { stroke: red; fill: red; }
]]></style>
<script type="text/javascript"><![CDATA[
var edges = document.getElementsByTagName('g');
if (edges && edges.length) {
  for (var i=0;i<edges.length;i++) {
    if (edges[i].id.substr(0,4)=='edge') {
      edges[i].setAttribute('class','edge');
    }
  }
}
]]></script>
        <defs>
                <circle id="rim" cx="0" cy="0" r="7"/>
                <circle id="rim2" cx="0" cy="0" r="3.5"/>
                <g id="zoomPlus">
                        <use xlink:href="#rim" fill="#404040">
                                <set attributeName="fill" to="#808080" begin="zoomplus.mouseover" end="zoomplus.mouseout"/>
                        </use>
                        <path d="M-4,0h8M0,-4v8" fill="none" stroke="white" stroke-width="1.5" pointer-events="none"/>
                </g>
                <g id="zoomMin">
                        <use xlink:href="#rim" fill="#404040">
                                <set attributeName="fill" to="#808080" begin="zoomminus.mouseover" end="zoomminus.mouseout"/>
                        </use>
                        <path d="M-4,0h8" fill="none" stroke="white" stroke-width="1.5" pointer-events="none"/>
                </g>
                <g id="dirArrow">
                        <path fill="none" stroke="white" stroke-width="1.5" d="M0,-3.0v7 M-2.5,-0.5L0,-3.0L2.5,-0.5"/>
                </g>
               <g id="resetDef">
                       <use xlink:href="#rim2" fill="#404040">
                               <set attributeName="fill" to="#808080" begin="reset.mouseover" end="reset.mouseout"/>
                       </use>
               </g>
        </defs>

<script type="text/javascript">
var viewWidth = 549;
var viewHeight = 661;
var sectionId = 'dynsection-1';
</script>
<script xlink:href="svgpan.js"/>
<svg id="graph" class="graph">
<g id="viewport">
<title>o2::quality_control_modules::tof::TOFTask</title>
<!-- Node1 -->
<g id="node1" class="node"><title>Node1</title>
<polygon fill="#bfbfbf" stroke="black" points="169.5,-0.5 169.5,-156.5 292.5,-156.5 292.5,-0.5 169.5,-0.5"/>
<text text-anchor="start" x="177.5" y="-144.5" font-family="Helvetica,sans-Serif" font-size="10.00">o2::quality_control</text>
<text text-anchor="middle" x="231" y="-133.5" font-family="Helvetica,sans-Serif" font-size="10.00">_modules::tof::TOFTask</text>
<polyline fill="none" stroke="black" points="169.5,-126.5 292.5,-126.5 "/>
<text text-anchor="middle" x="231" y="-114.5" font-family="Helvetica,sans-Serif" font-size="10.00"> </text>
<polyline fill="none" stroke="black" points="169.5,-107.5 292.5,-107.5 "/>
<text text-anchor="start" x="177.5" y="-95.5" font-family="Helvetica,sans-Serif" font-size="10.00">+ TOFTask()</text>
<text text-anchor="start" x="177.5" y="-84.5" font-family="Helvetica,sans-Serif" font-size="10.00">+ ~TOFTask()</text>
<text text-anchor="start" x="177.5" y="-73.5" font-family="Helvetica,sans-Serif" font-size="10.00">+ initialize()</text>
<text text-anchor="start" x="177.5" y="-62.5" font-family="Helvetica,sans-Serif" font-size="10.00">+ startOfActivity()</text>
<text text-anchor="start" x="177.5" y="-51.5" font-family="Helvetica,sans-Serif" font-size="10.00">+ startOfCycle()</text>
<text text-anchor="start" x="177.5" y="-40.5" font-family="Helvetica,sans-Serif" font-size="10.00">+ monitorData()</text>
<text text-anchor="start" x="177.5" y="-29.5" font-family="Helvetica,sans-Serif" font-size="10.00">+ endOfCycle()</text>
<text text-anchor="start" x="177.5" y="-18.5" font-family="Helvetica,sans-Serif" font-size="10.00">+ endOfActivity()</text>
<text text-anchor="start" x="177.5" y="-7.5" font-family="Helvetica,sans-Serif" font-size="10.00">+ reset()</text>
</g>
<!-- Node2 -->
<g id="node2" class="node"><title>Node2</title>
<g id="a_node2"><a xlink:href="classo2_1_1quality__control_1_1core_1_1TaskInterface.html" target="_top" xlink:title="Skeleton of a QC task. ">
<polygon fill="none" stroke="black" points="0,-248.5 0,-536.5 130,-536.5 130,-248.5 0,-248.5"/>
<text text-anchor="start" x="8" y="-524.5" font-family="Helvetica,sans-Serif" font-size="10.00">o2::quality_control</text>
<text text-anchor="middle" x="65" y="-513.5" font-family="Helvetica,sans-Serif" font-size="10.00">::core::TaskInterface</text>
<polyline fill="none" stroke="black" points="0,-506.5 130,-506.5 "/>
<text text-anchor="middle" x="65" y="-494.5" font-family="Helvetica,sans-Serif" font-size="10.00"> </text>
<polyline fill="none" stroke="black" points="0,-487.5 130,-487.5 "/>
<text text-anchor="start" x="8" y="-475.5" font-family="Helvetica,sans-Serif" font-size="10.00">+ TaskInterface()</text>
<text text-anchor="start" x="8" y="-464.5" font-family="Helvetica,sans-Serif" font-size="10.00">+ TaskInterface()</text>
<text text-anchor="start" x="8" y="-453.5" font-family="Helvetica,sans-Serif" font-size="10.00">+ ~TaskInterface()</text>
<text text-anchor="start" x="8" y="-442.5" font-family="Helvetica,sans-Serif" font-size="10.00">+ TaskInterface()</text>
<text text-anchor="start" x="8" y="-431.5" font-family="Helvetica,sans-Serif" font-size="10.00">+ TaskInterface()</text>
<text text-anchor="start" x="8" y="-420.5" font-family="Helvetica,sans-Serif" font-size="10.00">+ operator=()</text>
<text text-anchor="start" x="8" y="-409.5" font-family="Helvetica,sans-Serif" font-size="10.00">+ operator=()</text>
<text text-anchor="start" x="8" y="-398.5" font-family="Helvetica,sans-Serif" font-size="10.00">+ loadCcdb()</text>
<text text-anchor="start" x="8" y="-387.5" font-family="Helvetica,sans-Serif" font-size="10.00">+ initialize()</text>
<text text-anchor="start" x="8" y="-376.5" font-family="Helvetica,sans-Serif" font-size="10.00">+ startOfActivity()</text>
<text text-anchor="start" x="8" y="-365.5" font-family="Helvetica,sans-Serif" font-size="10.00">+ startOfCycle()</text>
<text text-anchor="start" x="8" y="-354.5" font-family="Helvetica,sans-Serif" font-size="10.00">+ monitorData()</text>
<text text-anchor="start" x="8" y="-343.5" font-family="Helvetica,sans-Serif" font-size="10.00">+ endOfCycle()</text>
<text text-anchor="start" x="8" y="-332.5" font-family="Helvetica,sans-Serif" font-size="10.00">+ endOfActivity()</text>
<text text-anchor="start" x="8" y="-321.5" font-family="Helvetica,sans-Serif" font-size="10.00">+ reset()</text>
<text text-anchor="start" x="8" y="-310.5" font-family="Helvetica,sans-Serif" font-size="10.00">+ setObjectsManager()</text>
<text text-anchor="start" x="8" y="-299.5" font-family="Helvetica,sans-Serif" font-size="10.00">+ setName()</text>
<text text-anchor="start" x="8" y="-288.5" font-family="Helvetica,sans-Serif" font-size="10.00">+ setCustomParameters()</text>
<text text-anchor="start" x="8" y="-277.5" font-family="Helvetica,sans-Serif" font-size="10.00">+ getName()</text>
<text text-anchor="start" x="8" y="-266.5" font-family="Helvetica,sans-Serif" font-size="10.00"># getObjectsManager()</text>
<text text-anchor="start" x="8" y="-255.5" font-family="Helvetica,sans-Serif" font-size="10.00"># retrieveCondition()</text>
</a>
</g>
</g>
<!-- Node2&#45;&gt;Node1 -->
<g id="edge1" class="edge"><title>Node2&#45;&gt;Node1</title>
<path fill="none" stroke="midnightblue" d="M126.589,-239.239C136.964,-217.282 148.219,-195.275 160,-175 163.529,-168.927 167.373,-162.782 171.387,-156.692"/>
<polygon fill="none" stroke="midnightblue" points="123.414,-237.766 122.351,-248.307 129.756,-240.73 123.414,-237.766"/>
</g>
<!-- Node3 -->
<g id="node3" class="node"><title>Node3</title>
<polygon fill="none" stroke="#bfbfbf" points="12,-584.5 12,-652.5 118,-652.5 118,-584.5 12,-584.5"/>
<text text-anchor="start" x="20" y="-640.5" font-family="Helvetica,sans-Serif" font-size="10.00">unordered_map&lt; std</text>
<text text-anchor="middle" x="65" y="-629.5" font-family="Helvetica,sans-Serif" font-size="10.00">::string, std::string &gt;</text>
<polyline fill="none" stroke="#bfbfbf" points="12,-622.5 118,-622.5 "/>
<text text-anchor="middle" x="65" y="-610.5" font-family="Helvetica,sans-Serif" font-size="10.00"> </text>
<polyline fill="none" stroke="#bfbfbf" points="12,-603.5 118,-603.5 "/>
<text text-anchor="middle" x="65" y="-591.5" font-family="Helvetica,sans-Serif" font-size="10.00"> </text>
</g>
<!-- Node3&#45;&gt;Node2 -->
<g id="edge2" class="edge"><title>Node3&#45;&gt;Node2</title>
<path fill="none" stroke="#404040" d="M65,-584.448C65,-574.106 65,-561.936 65,-548.83"/>
<polygon fill="none" stroke="#404040" points="65.0001,-548.557 61,-542.557 65,-536.557 69,-542.557 65.0001,-548.557"/>
<text text-anchor="middle" x="116" y="-558" font-family="Helvetica,sans-Serif" font-size="10.00"> #mCustomParameters</text>
</g>
<!-- Node4 -->
<g id="node4" class="node"><title>Node4</title>
<polygon fill="none" stroke="#bfbfbf" points="148.5,-364 148.5,-421 195.5,-421 195.5,-364 148.5,-364"/>
<text text-anchor="middle" x="172" y="-409" font-family="Helvetica,sans-Serif" font-size="10.00">Float_t</text>
<polyline fill="none" stroke="#bfbfbf" points="148.5,-402 195.5,-402 "/>
<text text-anchor="middle" x="172" y="-390" font-family="Helvetica,sans-Serif" font-size="10.00"> </text>
<polyline fill="none" stroke="#bfbfbf" points="148.5,-383 195.5,-383 "/>
<text text-anchor="middle" x="172" y="-371" font-family="Helvetica,sans-Serif" font-size="10.00"> </text>
</g>
<!-- Node4&#45;&gt;Node1 -->
<g id="edge3" class="edge"><title>Node4&#45;&gt;Node1</title>
<path fill="none" stroke="#404040" d="M167.495,-363.846C161.707,-322.038 154.461,-240.654 173,-175 173.652,-172.69 174.377,-170.38 175.166,-168.075"/>
<polygon fill="none" stroke="#404040" points="175.267,-167.814 173.705,-160.774 179.603,-156.625 181.165,-163.665 175.267,-167.814"/>
<text text-anchor="middle" x="221" y="-211" font-family="Helvetica,sans-Serif" font-size="10.00"> +fgkNbinsWidthTime</text>
<text text-anchor="middle" x="221" y="-200" font-family="Helvetica,sans-Serif" font-size="10.00">+fgRangeMinTime</text>
<text text-anchor="middle" x="221" y="-189" font-family="Helvetica,sans-Serif" font-size="10.00">+fgRangeMaxTime</text>
</g>
<!-- Node5 -->
<g id="node5" class="node"><title>Node5</title>
<polygon fill="none" stroke="#bfbfbf" points="246,-364 246,-421 336,-421 336,-364 246,-364"/>
<text text-anchor="middle" x="291" y="-409" font-family="Helvetica,sans-Serif" font-size="10.00">static const Int_t</text>
<polyline fill="none" stroke="#bfbfbf" points="246,-402 336,-402 "/>
<text text-anchor="middle" x="291" y="-390" font-family="Helvetica,sans-Serif" font-size="10.00"> </text>
<polyline fill="none" stroke="#bfbfbf" points="246,-383 336,-383 "/>
<text text-anchor="middle" x="291" y="-371" font-family="Helvetica,sans-Serif" font-size="10.00"> </text>
</g>
<!-- Node5&#45;&gt;Node1 -->
<g id="edge4" class="edge"><title>Node5&#45;&gt;Node1</title>
<path fill="none" stroke="#404040" d="M290.627,-363.744C289.521,-322.146 285.254,-241.423 269,-175 268.443,-172.725 267.844,-170.432 267.207,-168.13"/>
<polygon fill="none" stroke="#404040" points="267.188,-168.065 261.634,-163.465 263.744,-156.57 269.298,-161.169 267.188,-168.065"/>
<text text-anchor="middle" x="334.5" y="-200" font-family="Helvetica,sans-Serif" font-size="10.00"> +fgkFiredMacropadLimit</text>
</g>
<!-- Node6 -->
<g id="node6" class="node"><title>Node6</title>
<polygon fill="none" stroke="#bfbfbf" points="391.5,-364 391.5,-421 454.5,-421 454.5,-364 391.5,-364"/>
<text text-anchor="middle" x="423" y="-409" font-family="Helvetica,sans-Serif" font-size="10.00">static Int_t</text>
<polyline fill="none" stroke="#bfbfbf" points="391.5,-402 454.5,-402 "/>
<text text-anchor="middle" x="423" y="-390" font-family="Helvetica,sans-Serif" font-size="10.00"> </text>
<polyline fill="none" stroke="#bfbfbf" points="391.5,-383 454.5,-383 "/>
<text text-anchor="middle" x="423" y="-371" font-family="Helvetica,sans-Serif" font-size="10.00"> </text>
</g>
<!-- Node6&#45;&gt;Node1 -->
<g id="edge5" class="edge"><title>Node6&#45;&gt;Node1</title>
<path fill="none" stroke="#404040" d="M426.373,-363.901C430.272,-319.994 431.829,-233.256 393,-175 371.862,-143.287 336.316,-120.638 303.898,-105.381"/>
<polygon fill="none" stroke="#404040" points="303.532,-105.217 296.419,-106.401 292.59,-100.29 299.703,-99.1062 303.532,-105.217"/>
<text text-anchor="middle" x="479" y="-222" font-family="Helvetica,sans-Serif" font-size="10.00"> +fgCutNmaxFiredMacropad</text>
<text text-anchor="middle" x="479" y="-211" font-family="Helvetica,sans-Serif" font-size="10.00">+fgRangeMaxMultiplicity</text>
<text text-anchor="middle" x="479" y="-200" font-family="Helvetica,sans-Serif" font-size="10.00">+fgRangeMinMultiplicity</text>
<text text-anchor="middle" x="479" y="-189" font-family="Helvetica,sans-Serif" font-size="10.00">+fgNbinsTime</text>
<text text-anchor="middle" x="479" y="-178" font-family="Helvetica,sans-Serif" font-size="10.00">+fgNbinsMultiplicity</text>
</g>
</g>
</svg>
        <g id="navigator" transform="translate(0 0)" fill="#404254">
                <rect fill="#f2f5e9" fill-opacity="0.5" stroke="#606060" stroke-width=".5" x="0" y="0" width="60" height="60"/>
                <use id="zoomplus" xlink:href="#zoomPlus" x="17" y="9" onmousedown="handleZoom(evt,'in')"/>
                <use id="zoomminus" xlink:href="#zoomMin" x="42" y="9" onmousedown="handleZoom(evt,'out')"/>
                <use id="reset" xlink:href="#resetDef" x="30" y="36" onmousedown="handleReset()"/>
                <g id="arrowUp" xlink:href="#dirArrow" transform="translate(30 24)" onmousedown="handlePan(0,-1)">
                  <use xlink:href="#rim" fill="#404040">
                        <set attributeName="fill" to="#808080" begin="arrowUp.mouseover" end="arrowUp.mouseout"/>
                  </use>
                  <path fill="none" stroke="white" stroke-width="1.5" d="M0,-3.0v7 M-2.5,-0.5L0,-3.0L2.5,-0.5"/>
                </g>
                <g id="arrowRight" xlink:href="#dirArrow" transform="rotate(90) translate(36 -43)" onmousedown="handlePan(1,0)">
                  <use xlink:href="#rim" fill="#404040">
                        <set attributeName="fill" to="#808080" begin="arrowRight.mouseover" end="arrowRight.mouseout"/>
                  </use>
                  <path fill="none" stroke="white" stroke-width="1.5" d="M0,-3.0v7 M-2.5,-0.5L0,-3.0L2.5,-0.5"/>
                </g>
                <g id="arrowDown" xlink:href="#dirArrow" transform="rotate(180) translate(-30 -48)" onmousedown="handlePan(0,1)">
                  <use xlink:href="#rim" fill="#404040">
                        <set attributeName="fill" to="#808080" begin="arrowDown.mouseover" end="arrowDown.mouseout"/>
                  </use>
                  <path fill="none" stroke="white" stroke-width="1.5" d="M0,-3.0v7 M-2.5,-0.5L0,-3.0L2.5,-0.5"/>
                </g>
                <g id="arrowLeft" xlink:href="#dirArrow" transform="rotate(270) translate(-36 17)" onmousedown="handlePan(-1,0)">
                  <use xlink:href="#rim" fill="#404040">
                        <set attributeName="fill" to="#808080" begin="arrowLeft.mouseover" end="arrowLeft.mouseout"/>
                  </use>
                  <path fill="none" stroke="white" stroke-width="1.5" d="M0,-3.0v7 M-2.5,-0.5L0,-3.0L2.5,-0.5"/>
                </g>
        </g>
        <svg viewBox="0 0 15 15" width="100%" height="30px" preserveAspectRatio="xMaxYMin meet">
         <g id="arrow_out" transform="scale(0.3 0.3)">
          <a xlink:href="classo2_1_1quality__control__modules_1_1tof_1_1TOFTask__coll__graph_org.svg" target="_base">
           <rect id="button" ry="5" rx="5" y="6" x="6" height="38" width="38"
                fill="#f2f5e9" fill-opacity="0.5" stroke="#606060" stroke-width="1.0"/>
           <path id="arrow"
             d="M 11.500037,31.436501 C 11.940474,20.09759 22.043105,11.32322 32.158766,21.979434 L 37.068811,17.246167 C 37.068811,17.246167 37.088388,32 37.088388,32 L 22.160133,31.978069 C 22.160133,31.978069 26.997745,27.140456 26.997745,27.140456 C 18.528582,18.264221 13.291696,25.230495 11.500037,31.436501 z"
             style="fill:#404040;"/>
          </a>
         </g>
        </svg>
</svg>
