<?xml version="1.0" encoding="UTF-8" standalone="no"?>
<!DOCTYPE svg PUBLIC "-//W3C//DTD SVG 1.1//EN"
 "http://www.w3.org/Graphics/SVG/1.1/DTD/svg11.dtd">
<!-- Generated by graphviz version 2.38.0 (20140413.2041)
 -->
<!-- Title: o2::quality_control::core::Quality Pages: 1 -->
<svg width="180pt" height="237pt"
 viewBox="0.00 0.00 179.50 237.00" xmlns="http://www.w3.org/2000/svg" xmlns:xlink="http://www.w3.org/1999/xlink">
<g id="graph0" class="graph" transform="scale(1 1) rotate(0) translate(4 233)">
<title>o2::quality_control::core::Quality</title>
<!-- Node1 -->
<g id="node1" class="node"><title>Node1</title>
<polygon fill="#bfbfbf" stroke="black" points="13.5,-0.5 13.5,-123.5 109.5,-123.5 109.5,-0.5 13.5,-0.5"/>
<text text-anchor="start" x="21.5" y="-111.5" font-family="Helvetica,sans-Serif" font-size="10.00">o2::quality_control</text>
<text text-anchor="middle" x="61.5" y="-100.5" font-family="Helvetica,sans-Serif" font-size="10.00">::core::Quality</text>
<polyline fill="none" stroke="black" points="13.5,-93.5 109.5,-93.5 "/>
<text text-anchor="middle" x="61.5" y="-81.5" font-family="Helvetica,sans-Serif" font-size="10.00"> </text>
<polyline fill="none" stroke="black" points="13.5,-74.5 109.5,-74.5 "/>
<text text-anchor="start" x="21.5" y="-62.5" font-family="Helvetica,sans-Serif" font-size="10.00">+ Quality()</text>
<text text-anchor="start" x="21.5" y="-51.5" font-family="Helvetica,sans-Serif" font-size="10.00">+ ~Quality()</text>
<text text-anchor="start" x="21.5" y="-40.5" font-family="Helvetica,sans-Serif" font-size="10.00">+ getLevel()</text>
<text text-anchor="start" x="21.5" y="-29.5" font-family="Helvetica,sans-Serif" font-size="10.00">+ getName()</text>
<text text-anchor="start" x="21.5" y="-18.5" font-family="Helvetica,sans-Serif" font-size="10.00">+ isWorstThan()</text>
<text text-anchor="start" x="21.5" y="-7.5" font-family="Helvetica,sans-Serif" font-size="10.00">+ isBetterThan()</text>
</g>
<!-- Node1&#45;&gt;Node1 -->
<g id="edge2" class="edge"><title>Node1&#45;&gt;Node1</title>
<path fill="none" stroke="#404040" d="M109.554,-77.2847C119.956,-75.7902 127.5,-70.6953 127.5,-62 127.5,-57.1089 125.113,-53.357 121.173,-50.7442"/>
<polygon fill="none" stroke="#404040" points="120.892,-50.6468 113.913,-52.4603 109.554,-46.7153 116.534,-44.9018 120.892,-50.6468"/>
<text text-anchor="middle" x="149.5" y="-76" font-family="Helvetica,sans-Serif" font-size="10.00"> +Medium</text>
<text text-anchor="middle" x="149.5" y="-65" font-family="Helvetica,sans-Serif" font-size="10.00">+Good</text>
<text text-anchor="middle" x="149.5" y="-54" font-family="Helvetica,sans-Serif" font-size="10.00">+Bad</text>
<text text-anchor="middle" x="149.5" y="-43" font-family="Helvetica,sans-Serif" font-size="10.00">+Null</text>
</g>
<!-- Node2 -->
<g id="node2" class="node"><title>Node2</title>
<polygon fill="none" stroke="#bfbfbf" points="0,-171.5 0,-228.5 123,-228.5 123,-171.5 0,-171.5"/>
<text text-anchor="middle" x="61.5" y="-216.5" font-family="Helvetica,sans-Serif" font-size="10.00">static const unsigned int</text>
<polyline fill="none" stroke="#bfbfbf" points="0,-209.5 123,-209.5 "/>
<text text-anchor="middle" x="61.5" y="-197.5" font-family="Helvetica,sans-Serif" font-size="10.00"> </text>
<polyline fill="none" stroke="#bfbfbf" points="0,-190.5 123,-190.5 "/>
<text text-anchor="middle" x="61.5" y="-178.5" font-family="Helvetica,sans-Serif" font-size="10.00"> </text>
</g>
<!-- Node2&#45;&gt;Node1 -->
<g id="edge1" class="edge"><title>Node2&#45;&gt;Node1</title>
<path fill="none" stroke="#404040" d="M61.5,-171.478C61.5,-161.009 61.5,-148.526 61.5,-135.818"/>
<polygon fill="none" stroke="#404040" points="61.5001,-135.623 57.5,-129.623 61.5,-123.623 65.5,-129.623 61.5001,-135.623"/>
<text text-anchor="middle" x="86.5" y="-145" font-family="Helvetica,sans-Serif" font-size="10.00"> +NullLevel</text>
</g>
</g>
</svg>
