<?xml version="1.0" encoding="UTF-8" standalone="no"?>
<!DOCTYPE svg PUBLIC "-//W3C//DTD SVG 1.1//EN"
 "http://www.w3.org/Graphics/SVG/1.1/DTD/svg11.dtd">
<!-- Generated by graphviz version 2.38.0 (20140413.2041)
 -->
<!-- Title: o2::quality_control::checker::CheckInterface Pages: 1 -->
<svg width="1510pt" height="325pt"
 viewBox="0.00 0.00 1509.50 325.00" xmlns="http://www.w3.org/2000/svg" xmlns:xlink="http://www.w3.org/1999/xlink">
<g id="graph0" class="graph" transform="scale(1 1) rotate(0) translate(4 321)">
<title>o2::quality_control::checker::CheckInterface</title>
<!-- Node1 -->
<g id="node1" class="node"><title>Node1</title>
<polygon fill="#bfbfbf" stroke="black" points="670,-182.5 670,-316.5 800,-316.5 800,-182.5 670,-182.5"/>
<text text-anchor="start" x="678" y="-304.5" font-family="Helvetica,sans-Serif" font-size="10.00">o2::quality_control</text>
<text text-anchor="middle" x="735" y="-293.5" font-family="Helvetica,sans-Serif" font-size="10.00">::checker::CheckInterface</text>
<polyline fill="none" stroke="black" points="670,-286.5 800,-286.5 "/>
<text text-anchor="middle" x="735" y="-274.5" font-family="Helvetica,sans-Serif" font-size="10.00"> </text>
<polyline fill="none" stroke="black" points="670,-267.5 800,-267.5 "/>
<text text-anchor="start" x="678" y="-255.5" font-family="Helvetica,sans-Serif" font-size="10.00">+ CheckInterface()</text>
<text text-anchor="start" x="678" y="-244.5" font-family="Helvetica,sans-Serif" font-size="10.00">+ ~CheckInterface()</text>
<text text-anchor="start" x="678" y="-233.5" font-family="Helvetica,sans-Serif" font-size="10.00">+ configure()</text>
<text text-anchor="start" x="678" y="-222.5" font-family="Helvetica,sans-Serif" font-size="10.00">+ check()</text>
<text text-anchor="start" x="678" y="-211.5" font-family="Helvetica,sans-Serif" font-size="10.00">+ beautify()</text>
<text text-anchor="start" x="678" y="-200.5" font-family="Helvetica,sans-Serif" font-size="10.00">+ getAcceptedType()</text>
<text text-anchor="start" x="678" y="-189.5" font-family="Helvetica,sans-Serif" font-size="10.00">+ isObjectCheckable()</text>
</g>
<!-- Node2 -->
<g id="node2" class="node"><title>Node2</title>
<g id="a_node2"><a xlink:href="classo2_1_1quality__control_1_1test_1_1TestCheck.html" target="_top" xlink:title="{o2::quality_control\l::test::TestCheck\n|+ mValidString\l|+ TestCheck()\l+ ~TestCheck()\l+ configure()\l+ check()\l+ beautify()\l+ getAcceptedType()\l}">
<polygon fill="none" stroke="black" points="0,-11.5 0,-134.5 108,-134.5 108,-11.5 0,-11.5"/>
<text text-anchor="start" x="8" y="-122.5" font-family="Helvetica,sans-Serif" font-size="10.00">o2::quality_control</text>
<text text-anchor="middle" x="54" y="-111.5" font-family="Helvetica,sans-Serif" font-size="10.00">::test::TestCheck</text>
<polyline fill="none" stroke="black" points="0,-104.5 108,-104.5 "/>
<text text-anchor="start" x="8" y="-92.5" font-family="Helvetica,sans-Serif" font-size="10.00">+ mValidString</text>
<polyline fill="none" stroke="black" points="0,-85.5 108,-85.5 "/>
<text text-anchor="start" x="8" y="-73.5" font-family="Helvetica,sans-Serif" font-size="10.00">+ TestCheck()</text>
<text text-anchor="start" x="8" y="-62.5" font-family="Helvetica,sans-Serif" font-size="10.00">+ ~TestCheck()</text>
<text text-anchor="start" x="8" y="-51.5" font-family="Helvetica,sans-Serif" font-size="10.00">+ configure()</text>
<text text-anchor="start" x="8" y="-40.5" font-family="Helvetica,sans-Serif" font-size="10.00">+ check()</text>
<text text-anchor="start" x="8" y="-29.5" font-family="Helvetica,sans-Serif" font-size="10.00">+ beautify()</text>
<text text-anchor="start" x="8" y="-18.5" font-family="Helvetica,sans-Serif" font-size="10.00">+ getAcceptedType()</text>
</a>
</g>
</g>
<!-- Node1&#45;&gt;Node2 -->
<g id="edge1" class="edge"><title>Node1&#45;&gt;Node2</title>
<path fill="none" stroke="midnightblue" d="M659.691,-242.378C516.064,-229.676 209.092,-197.291 117,-146 111.341,-142.848 105.944,-138.986 100.86,-134.702"/>
<polygon fill="none" stroke="midnightblue" points="659.478,-245.873 669.745,-243.259 660.088,-238.9 659.478,-245.873"/>
</g>
<!-- Node3 -->
<g id="node3" class="node"><title>Node3</title>
<g id="a_node3"><a xlink:href="classo2_1_1quality__control__modules_1_1common_1_1MeanIsAbove.html" target="_top" xlink:title="Check whether the mean of the plot is above a certain limit. ">
<polygon fill="none" stroke="black" points="126,-11.5 126,-134.5 294,-134.5 294,-11.5 126,-11.5"/>
<text text-anchor="start" x="134" y="-122.5" font-family="Helvetica,sans-Serif" font-size="10.00">o2::quality_control</text>
<text text-anchor="middle" x="210" y="-111.5" font-family="Helvetica,sans-Serif" font-size="10.00">_modules::common::MeanIsAbove</text>
<polyline fill="none" stroke="black" points="126,-104.5 294,-104.5 "/>
<text text-anchor="middle" x="210" y="-92.5" font-family="Helvetica,sans-Serif" font-size="10.00"> </text>
<polyline fill="none" stroke="black" points="126,-85.5 294,-85.5 "/>
<text text-anchor="start" x="134" y="-73.5" font-family="Helvetica,sans-Serif" font-size="10.00">+ MeanIsAbove()</text>
<text text-anchor="start" x="134" y="-62.5" font-family="Helvetica,sans-Serif" font-size="10.00">+ ~MeanIsAbove()</text>
<text text-anchor="start" x="134" y="-51.5" font-family="Helvetica,sans-Serif" font-size="10.00">+ configure()</text>
<text text-anchor="start" x="134" y="-40.5" font-family="Helvetica,sans-Serif" font-size="10.00">+ check()</text>
<text text-anchor="start" x="134" y="-29.5" font-family="Helvetica,sans-Serif" font-size="10.00">+ beautify()</text>
<text text-anchor="start" x="134" y="-18.5" font-family="Helvetica,sans-Serif" font-size="10.00">+ getAcceptedType()</text>
</a>
</g>
</g>
<!-- Node1&#45;&gt;Node3 -->
<g id="edge2" class="edge"><title>Node1&#45;&gt;Node3</title>
<path fill="none" stroke="midnightblue" d="M659.935,-240.494C571.131,-228.85 420.524,-202.175 303,-146 296.091,-142.698 289.211,-138.818 282.5,-134.601"/>
<polygon fill="none" stroke="midnightblue" points="659.557,-243.974 669.921,-241.774 660.447,-237.031 659.557,-243.974"/>
</g>
<!-- Node4 -->
<g id="node4" class="node"><title>Node4</title>
<g id="a_node4"><a xlink:href="classo2_1_1quality__control__modules_1_1common_1_1NonEmpty.html" target="_top" xlink:title="Check whether a plot is empty or not. ">
<polygon fill="none" stroke="black" points="312.5,-6 312.5,-140 467.5,-140 467.5,-6 312.5,-6"/>
<text text-anchor="start" x="320.5" y="-128" font-family="Helvetica,sans-Serif" font-size="10.00">o2::quality_control</text>
<text text-anchor="middle" x="390" y="-117" font-family="Helvetica,sans-Serif" font-size="10.00">_modules::common::NonEmpty</text>
<polyline fill="none" stroke="black" points="312.5,-110 467.5,-110 "/>
<text text-anchor="middle" x="390" y="-98" font-family="Helvetica,sans-Serif" font-size="10.00"> </text>
<polyline fill="none" stroke="black" points="312.5,-91 467.5,-91 "/>
<text text-anchor="start" x="320.5" y="-79" font-family="Helvetica,sans-Serif" font-size="10.00">+ NonEmpty()</text>
<text text-anchor="start" x="320.5" y="-68" font-family="Helvetica,sans-Serif" font-size="10.00">+ ~NonEmpty()</text>
<text text-anchor="start" x="320.5" y="-57" font-family="Helvetica,sans-Serif" font-size="10.00">+ configure()</text>
<text text-anchor="start" x="320.5" y="-46" font-family="Helvetica,sans-Serif" font-size="10.00">+ check()</text>
<text text-anchor="start" x="320.5" y="-35" font-family="Helvetica,sans-Serif" font-size="10.00">+ beautify()</text>
<text text-anchor="start" x="320.5" y="-24" font-family="Helvetica,sans-Serif" font-size="10.00">+ getAcceptedType()</text>
<text text-anchor="start" x="320.5" y="-13" font-family="Helvetica,sans-Serif" font-size="10.00">+ ClassDefOverride()</text>
</a>
</g>
</g>
<!-- Node1&#45;&gt;Node4 -->
<g id="edge3" class="edge"><title>Node1&#45;&gt;Node4</title>
<path fill="none" stroke="midnightblue" d="M660.154,-225.72C607.05,-207.924 535.168,-180.454 477,-146 473.879,-144.152 470.755,-142.194 467.645,-140.153"/>
<polygon fill="none" stroke="midnightblue" points="659.251,-229.108 669.844,-228.93 661.452,-222.463 659.251,-229.108"/>
</g>
<!-- Node5 -->
<g id="node5" class="node"><title>Node5</title>
<g id="a_node5"><a xlink:href="classo2_1_1quality__control__modules_1_1daq_1_1EverIncreasingGraph.html" target="_top" xlink:title="Check whether a plot is empty or not. ">
<polygon fill="none" stroke="black" points="486,-6 486,-140 638,-140 638,-6 486,-6"/>
<text text-anchor="start" x="494" y="-128" font-family="Helvetica,sans-Serif" font-size="10.00">o2::quality_control</text>
<text text-anchor="start" x="494" y="-117" font-family="Helvetica,sans-Serif" font-size="10.00">_modules::daq::EverIncreasing</text>
<text text-anchor="middle" x="562" y="-106" font-family="Helvetica,sans-Serif" font-size="10.00">Graph</text>
<polyline fill="none" stroke="black" points="486,-99 638,-99 "/>
<text text-anchor="middle" x="562" y="-87" font-family="Helvetica,sans-Serif" font-size="10.00"> </text>
<polyline fill="none" stroke="black" points="486,-80 638,-80 "/>
<text text-anchor="start" x="494" y="-68" font-family="Helvetica,sans-Serif" font-size="10.00">+ EverIncreasingGraph()</text>
<text text-anchor="start" x="494" y="-57" font-family="Helvetica,sans-Serif" font-size="10.00">+ ~EverIncreasingGraph()</text>
<text text-anchor="start" x="494" y="-46" font-family="Helvetica,sans-Serif" font-size="10.00">+ configure()</text>
<text text-anchor="start" x="494" y="-35" font-family="Helvetica,sans-Serif" font-size="10.00">+ check()</text>
<text text-anchor="start" x="494" y="-24" font-family="Helvetica,sans-Serif" font-size="10.00">+ beautify()</text>
<text text-anchor="start" x="494" y="-13" font-family="Helvetica,sans-Serif" font-size="10.00">+ getAcceptedType()</text>
</a>
</g>
</g>
<!-- Node1&#45;&gt;Node5 -->
<g id="edge4" class="edge"><title>Node1&#45;&gt;Node5</title>
<path fill="none" stroke="midnightblue" d="M662.432,-175.303C650.842,-163.612 638.91,-151.576 627.496,-140.064"/>
<polygon fill="none" stroke="midnightblue" points="660.07,-177.892 669.596,-182.529 665.041,-172.963 660.07,-177.892"/>
</g>
<!-- Node6 -->
<g id="node6" class="node"><title>Node6</title>
<g id="a_node6"><a xlink:href="classo2_1_1quality__control__modules_1_1example_1_1FakeCheck.html" target="_top" xlink:title="Check whether a plot is empty or not. ">
<polygon fill="none" stroke="black" points="656,-6 656,-140 814,-140 814,-6 656,-6"/>
<text text-anchor="start" x="664" y="-128" font-family="Helvetica,sans-Serif" font-size="10.00">o2::quality_control</text>
<text text-anchor="middle" x="735" y="-117" font-family="Helvetica,sans-Serif" font-size="10.00">_modules::example::FakeCheck</text>
<polyline fill="none" stroke="black" points="656,-110 814,-110 "/>
<text text-anchor="middle" x="735" y="-98" font-family="Helvetica,sans-Serif" font-size="10.00"> </text>
<polyline fill="none" stroke="black" points="656,-91 814,-91 "/>
<text text-anchor="start" x="664" y="-79" font-family="Helvetica,sans-Serif" font-size="10.00">+ FakeCheck()</text>
<text text-anchor="start" x="664" y="-68" font-family="Helvetica,sans-Serif" font-size="10.00">+ ~FakeCheck()</text>
<text text-anchor="start" x="664" y="-57" font-family="Helvetica,sans-Serif" font-size="10.00">+ configure()</text>
<text text-anchor="start" x="664" y="-46" font-family="Helvetica,sans-Serif" font-size="10.00">+ check()</text>
<text text-anchor="start" x="664" y="-35" font-family="Helvetica,sans-Serif" font-size="10.00">+ beautify()</text>
<text text-anchor="start" x="664" y="-24" font-family="Helvetica,sans-Serif" font-size="10.00">+ getAcceptedType()</text>
<text text-anchor="start" x="664" y="-13" font-family="Helvetica,sans-Serif" font-size="10.00">+ ClassDefOverride()</text>
</a>
</g>
</g>
<!-- Node1&#45;&gt;Node6 -->
<g id="edge5" class="edge"><title>Node1&#45;&gt;Node6</title>
<path fill="none" stroke="midnightblue" d="M735,-171.988C735,-161.422 735,-150.643 735,-140.284"/>
<polygon fill="none" stroke="midnightblue" points="731.5,-172.031 735,-182.031 738.5,-172.031 731.5,-172.031"/>
</g>
<!-- Node7 -->
<g id="node7" class="node"><title>Node7</title>
<g id="a_node7"><a xlink:href="classo2_1_1quality__control__modules_1_1skeleton_1_1SkeletonCheck.html" target="_top" xlink:title="Check whether a plot is empty or not. ">
<polygon fill="none" stroke="black" points="832,-0.5 832,-145.5 942,-145.5 942,-0.5 832,-0.5"/>
<text text-anchor="start" x="840" y="-133.5" font-family="Helvetica,sans-Serif" font-size="10.00">o2::quality_control</text>
<text text-anchor="start" x="840" y="-122.5" font-family="Helvetica,sans-Serif" font-size="10.00">_modules::skeleton::</text>
<text text-anchor="middle" x="887" y="-111.5" font-family="Helvetica,sans-Serif" font-size="10.00">SkeletonCheck</text>
<polyline fill="none" stroke="black" points="832,-104.5 942,-104.5 "/>
<text text-anchor="middle" x="887" y="-92.5" font-family="Helvetica,sans-Serif" font-size="10.00"> </text>
<polyline fill="none" stroke="black" points="832,-85.5 942,-85.5 "/>
<text text-anchor="start" x="840" y="-73.5" font-family="Helvetica,sans-Serif" font-size="10.00">+ SkeletonCheck()</text>
<text text-anchor="start" x="840" y="-62.5" font-family="Helvetica,sans-Serif" font-size="10.00">+ ~SkeletonCheck()</text>
<text text-anchor="start" x="840" y="-51.5" font-family="Helvetica,sans-Serif" font-size="10.00">+ configure()</text>
<text text-anchor="start" x="840" y="-40.5" font-family="Helvetica,sans-Serif" font-size="10.00">+ check()</text>
<text text-anchor="start" x="840" y="-29.5" font-family="Helvetica,sans-Serif" font-size="10.00">+ beautify()</text>
<text text-anchor="start" x="840" y="-18.5" font-family="Helvetica,sans-Serif" font-size="10.00">+ getAcceptedType()</text>
<text text-anchor="start" x="840" y="-7.5" font-family="Helvetica,sans-Serif" font-size="10.00">+ ClassDefOverride()</text>
</a>
</g>
</g>
<!-- Node1&#45;&gt;Node7 -->
<g id="edge6" class="edge"><title>Node1&#45;&gt;Node7</title>
<path fill="none" stroke="midnightblue" d="M799.53,-174.418C810.258,-162.102 821.298,-149.428 831.768,-137.407"/>
<polygon fill="none" stroke="midnightblue" points="796.827,-172.192 792.898,-182.031 802.106,-176.79 796.827,-172.192"/>
</g>
<!-- Node8 -->
<g id="node8" class="node"><title>Node8</title>
<g id="a_node8"><a xlink:href="classo2_1_1quality__control__modules_1_1tof_1_1TOFCheckRawsMulti.html" target="_top" xlink:title="Check whether a plot is empty or not. ">
<polygon fill="none" stroke="black" points="960.5,-0.5 960.5,-145.5 1115.5,-145.5 1115.5,-0.5 960.5,-0.5"/>
<text text-anchor="start" x="968.5" y="-133.5" font-family="Helvetica,sans-Serif" font-size="10.00">o2::quality_control</text>
<text text-anchor="start" x="968.5" y="-122.5" font-family="Helvetica,sans-Serif" font-size="10.00">_modules::tof::TOFCheckRaws</text>
<text text-anchor="middle" x="1038" y="-111.5" font-family="Helvetica,sans-Serif" font-size="10.00">Multi</text>
<polyline fill="none" stroke="black" points="960.5,-104.5 1115.5,-104.5 "/>
<text text-anchor="start" x="968.5" y="-92.5" font-family="Helvetica,sans-Serif" font-size="10.00">+ minTOFrawhits</text>
<text text-anchor="start" x="968.5" y="-81.5" font-family="Helvetica,sans-Serif" font-size="10.00">+ maxTOFrawhits</text>
<polyline fill="none" stroke="black" points="960.5,-74.5 1115.5,-74.5 "/>
<text text-anchor="start" x="968.5" y="-62.5" font-family="Helvetica,sans-Serif" font-size="10.00">+ TOFCheckRawsMulti()</text>
<text text-anchor="start" x="968.5" y="-51.5" font-family="Helvetica,sans-Serif" font-size="10.00">+ ~TOFCheckRawsMulti()</text>
<text text-anchor="start" x="968.5" y="-40.5" font-family="Helvetica,sans-Serif" font-size="10.00">+ configure()</text>
<text text-anchor="start" x="968.5" y="-29.5" font-family="Helvetica,sans-Serif" font-size="10.00">+ check()</text>
<text text-anchor="start" x="968.5" y="-18.5" font-family="Helvetica,sans-Serif" font-size="10.00">+ beautify()</text>
<text text-anchor="start" x="968.5" y="-7.5" font-family="Helvetica,sans-Serif" font-size="10.00">+ getAcceptedType()</text>
</a>
</g>
</g>
<!-- Node1&#45;&gt;Node8 -->
<g id="edge7" class="edge"><title>Node1&#45;&gt;Node8</title>
<path fill="none" stroke="midnightblue" d="M809.291,-218.703C852.105,-200.211 906.154,-174.568 951,-146 954.142,-143.999 957.296,-141.898 960.445,-139.723"/>
<polygon fill="none" stroke="midnightblue" points="807.872,-215.503 800.057,-222.656 810.627,-221.938 807.872,-215.503"/>
</g>
<!-- Node9 -->
<g id="node9" class="node"><title>Node9</title>
<g id="a_node9"><a xlink:href="classo2_1_1quality__control__modules_1_1tof_1_1TOFCheckRawsTime.html" target="_top" xlink:title="Check whether a plot is empty or not. ">
<polygon fill="none" stroke="black" points="1133.5,-6 1133.5,-140 1310.5,-140 1310.5,-6 1133.5,-6"/>
<text text-anchor="start" x="1141.5" y="-128" font-family="Helvetica,sans-Serif" font-size="10.00">o2::quality_control</text>
<text text-anchor="middle" x="1222" y="-117" font-family="Helvetica,sans-Serif" font-size="10.00">_modules::tof::TOFCheckRawsTime</text>
<polyline fill="none" stroke="black" points="1133.5,-110 1310.5,-110 "/>
<text text-anchor="start" x="1141.5" y="-98" font-family="Helvetica,sans-Serif" font-size="10.00">+ minTOFrawTime</text>
<text text-anchor="start" x="1141.5" y="-87" font-family="Helvetica,sans-Serif" font-size="10.00">+ maxTOFrawTime</text>
<polyline fill="none" stroke="black" points="1133.5,-80 1310.5,-80 "/>
<text text-anchor="start" x="1141.5" y="-68" font-family="Helvetica,sans-Serif" font-size="10.00">+ TOFCheckRawsTime()</text>
<text text-anchor="start" x="1141.5" y="-57" font-family="Helvetica,sans-Serif" font-size="10.00">+ ~TOFCheckRawsTime()</text>
<text text-anchor="start" x="1141.5" y="-46" font-family="Helvetica,sans-Serif" font-size="10.00">+ configure()</text>
<text text-anchor="start" x="1141.5" y="-35" font-family="Helvetica,sans-Serif" font-size="10.00">+ check()</text>
<text text-anchor="start" x="1141.5" y="-24" font-family="Helvetica,sans-Serif" font-size="10.00">+ beautify()</text>
<text text-anchor="start" x="1141.5" y="-13" font-family="Helvetica,sans-Serif" font-size="10.00">+ getAcceptedType()</text>
</a>
</g>
</g>
<!-- Node1&#45;&gt;Node9 -->
<g id="edge8" class="edge"><title>Node1&#45;&gt;Node9</title>
<path fill="none" stroke="midnightblue" d="M810.179,-237.497C890.962,-223.708 1021.67,-195.632 1125,-146 1128.78,-144.184 1132.56,-142.212 1136.32,-140.12"/>
<polygon fill="none" stroke="midnightblue" points="809.377,-234.082 800.094,-239.188 810.535,-240.986 809.377,-234.082"/>
</g>
<!-- Node10 -->
<g id="node10" class="node"><title>Node10</title>
<g id="a_node10"><a xlink:href="classo2_1_1quality__control__modules_1_1tof_1_1TOFCheckRawsToT.html" target="_top" xlink:title="Check whether a plot is empty or not. ">
<polygon fill="none" stroke="black" points="1328.5,-0.5 1328.5,-145.5 1501.5,-145.5 1501.5,-0.5 1328.5,-0.5"/>
<text text-anchor="start" x="1336.5" y="-133.5" font-family="Helvetica,sans-Serif" font-size="10.00">o2::quality_control</text>
<text text-anchor="middle" x="1415" y="-122.5" font-family="Helvetica,sans-Serif" font-size="10.00">_modules::tof::TOFCheckRawsToT</text>
<polyline fill="none" stroke="black" points="1328.5,-115.5 1501.5,-115.5 "/>
<text text-anchor="start" x="1336.5" y="-103.5" font-family="Helvetica,sans-Serif" font-size="10.00">+ minTOFrawTot</text>
<text text-anchor="start" x="1336.5" y="-92.5" font-family="Helvetica,sans-Serif" font-size="10.00">+ maxTOFrawTot</text>
<polyline fill="none" stroke="black" points="1328.5,-85.5 1501.5,-85.5 "/>
<text text-anchor="start" x="1336.5" y="-73.5" font-family="Helvetica,sans-Serif" font-size="10.00">+ TOFCheckRawsToT()</text>
<text text-anchor="start" x="1336.5" y="-62.5" font-family="Helvetica,sans-Serif" font-size="10.00">+ ~TOFCheckRawsToT()</text>
<text text-anchor="start" x="1336.5" y="-51.5" font-family="Helvetica,sans-Serif" font-size="10.00">+ configure()</text>
<text text-anchor="start" x="1336.5" y="-40.5" font-family="Helvetica,sans-Serif" font-size="10.00">+ check()</text>
<text text-anchor="start" x="1336.5" y="-29.5" font-family="Helvetica,sans-Serif" font-size="10.00">+ beautify()</text>
<text text-anchor="start" x="1336.5" y="-18.5" font-family="Helvetica,sans-Serif" font-size="10.00">+ getAcceptedType()</text>
<text text-anchor="start" x="1336.5" y="-7.5" font-family="Helvetica,sans-Serif" font-size="10.00">+ ClassDefOverride()</text>
</a>
</g>
</g>
<!-- Node1&#45;&gt;Node10 -->
<g id="edge9" class="edge"><title>Node1&#45;&gt;Node10</title>
<path fill="none" stroke="midnightblue" d="M810.247,-246.552C924.849,-241.153 1147.96,-220.977 1320,-146 1322.75,-144.801 1325.49,-143.507 1328.22,-142.133"/>
<polygon fill="none" stroke="midnightblue" points="810.005,-243.059 800.171,-247.002 810.318,-250.052 810.005,-243.059"/>
</g>
</g>
</svg>
