<?xml version="1.0" encoding="UTF-8" standalone="no"?>
<!DOCTYPE svg PUBLIC "-//W3C//DTD SVG 1.1//EN"
 "http://www.w3.org/Graphics/SVG/1.1/DTD/svg11.dtd">
<!-- Generated by graphviz version 2.38.0 (20140413.2041)
 -->
<!-- Title: o2::quality_control_modules::tof::TOFCheckRawsTime Pages: 1 -->
<svg width="240pt" height="325pt"
 viewBox="0.00 0.00 240.00 325.00" xmlns="http://www.w3.org/2000/svg" xmlns:xlink="http://www.w3.org/1999/xlink">
<g id="graph0" class="graph" transform="scale(1 1) rotate(0) translate(4 321)">
<title>o2::quality_control_modules::tof::TOFCheckRawsTime</title>
<!-- Node1 -->
<g id="node1" class="node"><title>Node1</title>
<polygon fill="#bfbfbf" stroke="black" points="29.5,-0.5 29.5,-123.5 206.5,-123.5 206.5,-0.5 29.5,-0.5"/>
<text text-anchor="start" x="37.5" y="-111.5" font-family="Helvetica,sans-Serif" font-size="10.00">o2::quality_control</text>
<text text-anchor="middle" x="118" y="-100.5" font-family="Helvetica,sans-Serif" font-size="10.00">_modules::tof::TOFCheckRawsTime</text>
<polyline fill="none" stroke="black" points="29.5,-93.5 206.5,-93.5 "/>
<text text-anchor="middle" x="118" y="-81.5" font-family="Helvetica,sans-Serif" font-size="10.00"> </text>
<polyline fill="none" stroke="black" points="29.5,-74.5 206.5,-74.5 "/>
<text text-anchor="start" x="37.5" y="-62.5" font-family="Helvetica,sans-Serif" font-size="10.00">+ TOFCheckRawsTime()</text>
<text text-anchor="start" x="37.5" y="-51.5" font-family="Helvetica,sans-Serif" font-size="10.00">+ ~TOFCheckRawsTime()</text>
<text text-anchor="start" x="37.5" y="-40.5" font-family="Helvetica,sans-Serif" font-size="10.00">+ configure()</text>
<text text-anchor="start" x="37.5" y="-29.5" font-family="Helvetica,sans-Serif" font-size="10.00">+ check()</text>
<text text-anchor="start" x="37.5" y="-18.5" font-family="Helvetica,sans-Serif" font-size="10.00">+ beautify()</text>
<text text-anchor="start" x="37.5" y="-7.5" font-family="Helvetica,sans-Serif" font-size="10.00">+ getAcceptedType()</text>
</g>
<!-- Node2 -->
<g id="node2" class="node"><title>Node2</title>
<g id="a_node2"><a xlink:href="classo2_1_1quality__control_1_1checker_1_1CheckInterface.html" target="_top" xlink:title="Skeleton of a check. ">
<polygon fill="none" stroke="black" points="0,-182.5 0,-316.5 130,-316.5 130,-182.5 0,-182.5"/>
<text text-anchor="start" x="8" y="-304.5" font-family="Helvetica,sans-Serif" font-size="10.00">o2::quality_control</text>
<text text-anchor="middle" x="65" y="-293.5" font-family="Helvetica,sans-Serif" font-size="10.00">::checker::CheckInterface</text>
<polyline fill="none" stroke="black" points="0,-286.5 130,-286.5 "/>
<text text-anchor="middle" x="65" y="-274.5" font-family="Helvetica,sans-Serif" font-size="10.00"> </text>
<polyline fill="none" stroke="black" points="0,-267.5 130,-267.5 "/>
<text text-anchor="start" x="8" y="-255.5" font-family="Helvetica,sans-Serif" font-size="10.00">+ CheckInterface()</text>
<text text-anchor="start" x="8" y="-244.5" font-family="Helvetica,sans-Serif" font-size="10.00">+ ~CheckInterface()</text>
<text text-anchor="start" x="8" y="-233.5" font-family="Helvetica,sans-Serif" font-size="10.00">+ configure()</text>
<text text-anchor="start" x="8" y="-222.5" font-family="Helvetica,sans-Serif" font-size="10.00">+ check()</text>
<text text-anchor="start" x="8" y="-211.5" font-family="Helvetica,sans-Serif" font-size="10.00">+ beautify()</text>
<text text-anchor="start" x="8" y="-200.5" font-family="Helvetica,sans-Serif" font-size="10.00">+ getAcceptedType()</text>
<text text-anchor="start" x="8" y="-189.5" font-family="Helvetica,sans-Serif" font-size="10.00">+ isObjectCheckable()</text>
</a>
</g>
</g>
<!-- Node2&#45;&gt;Node1 -->
<g id="edge1" class="edge"><title>Node2&#45;&gt;Node1</title>
<path fill="none" stroke="midnightblue" d="M86.7667,-172.317C91.4051,-156.082 96.2434,-139.148 100.688,-123.591"/>
<polygon fill="none" stroke="midnightblue" points="83.2917,-171.739 83.9098,-182.316 90.0224,-173.662 83.2917,-171.739"/>
</g>
<!-- Node3 -->
<g id="node3" class="node"><title>Node3</title>
<polygon fill="none" stroke="#bfbfbf" points="148.5,-221 148.5,-278 195.5,-278 195.5,-221 148.5,-221"/>
<text text-anchor="middle" x="172" y="-266" font-family="Helvetica,sans-Serif" font-size="10.00">Float_t</text>
<polyline fill="none" stroke="#bfbfbf" points="148.5,-259 195.5,-259 "/>
<text text-anchor="middle" x="172" y="-247" font-family="Helvetica,sans-Serif" font-size="10.00"> </text>
<polyline fill="none" stroke="#bfbfbf" points="148.5,-240 195.5,-240 "/>
<text text-anchor="middle" x="172" y="-228" font-family="Helvetica,sans-Serif" font-size="10.00"> </text>
</g>
<!-- Node3&#45;&gt;Node1 -->
<g id="edge2" class="edge"><title>Node3&#45;&gt;Node1</title>
<path fill="none" stroke="#404040" d="M163.916,-220.729C157.344,-198.154 147.768,-165.26 139.06,-135.345"/>
<polygon fill="none" stroke="#404040" points="139.001,-135.142 133.483,-130.499 135.647,-123.62 141.165,-128.263 139.001,-135.142"/>
<text text-anchor="middle" x="189.5" y="-156" font-family="Helvetica,sans-Serif" font-size="10.00"> +maxTOFrawTime</text>
<text text-anchor="middle" x="189.5" y="-145" font-family="Helvetica,sans-Serif" font-size="10.00">+minTOFrawTime</text>
</g>
</g>
</svg>
