<?xml version="1.0" encoding="UTF-8" standalone="no"?>
<!DOCTYPE svg PUBLIC "-//W3C//DTD SVG 1.1//EN"
 "http://www.w3.org/Graphics/SVG/1.1/DTD/svg11.dtd">
<!-- Generated by graphviz version 2.38.0 (20140413.2041)
 -->
<!-- Title: Modules/Daq/src/DaqTask.cxx Pages: 1 -->
<!--zoomable 364 -->
<svg id="main" version="1.1" xmlns="http://www.w3.org/2000/svg" xmlns:xlink="http://www.w3.org/1999/xlink" xml:space="preserve" onload="init(evt)">
<style type="text/css"><![CDATA[
.edge:hover path { stroke: red; }
.edge:hover polygon { stroke: red; fill: red; }
]]></style>
<script type="text/javascript"><![CDATA[
var edges = document.getElementsByTagName('g');
if (edges && edges.length) {
  for (var i=0;i<edges.length;i++) {
    if (edges[i].id.substr(0,4)=='edge') {
      edges[i].setAttribute('class','edge');
    }
  }
}
]]></script>
        <defs>
                <circle id="rim" cx="0" cy="0" r="7"/>
                <circle id="rim2" cx="0" cy="0" r="3.5"/>
                <g id="zoomPlus">
                        <use xlink:href="#rim" fill="#404040">
                                <set attributeName="fill" to="#808080" begin="zoomplus.mouseover" end="zoomplus.mouseout"/>
                        </use>
                        <path d="M-4,0h8M0,-4v8" fill="none" stroke="white" stroke-width="1.5" pointer-events="none"/>
                </g>
                <g id="zoomMin">
                        <use xlink:href="#rim" fill="#404040">
                                <set attributeName="fill" to="#808080" begin="zoomminus.mouseover" end="zoomminus.mouseout"/>
                        </use>
                        <path d="M-4,0h8" fill="none" stroke="white" stroke-width="1.5" pointer-events="none"/>
                </g>
                <g id="dirArrow">
                        <path fill="none" stroke="white" stroke-width="1.5" d="M0,-3.0v7 M-2.5,-0.5L0,-3.0L2.5,-0.5"/>
                </g>
               <g id="resetDef">
                       <use xlink:href="#rim2" fill="#404040">
                               <set attributeName="fill" to="#808080" begin="reset.mouseover" end="reset.mouseout"/>
                       </use>
               </g>
        </defs>

<script type="text/javascript">
var viewWidth = 1161;
var viewHeight = 364;
var sectionId = 'dynsection-0';
</script>
<script xlink:href="svgpan.js"/>
<svg id="graph" class="graph">
<g id="viewport">
<title>Modules/Daq/src/DaqTask.cxx</title>
<!-- Node1 -->
<g id="node1" class="node"><title>Node1</title>
<polygon fill="#bfbfbf" stroke="black" points="816.962,-336.5 816.962,-355.5 968.962,-355.5 968.962,-336.5 816.962,-336.5"/>
<text text-anchor="middle" x="892.962" y="-343.5" font-family="Helvetica,sans-Serif" font-size="10.00">Modules/Daq/src/DaqTask.cxx</text>
</g>
<!-- Node2 -->
<g id="node2" class="node"><title>Node2</title>
<g id="a_node2"><a xlink:href="DaqTask_8h.html" target="_top" xlink:title="Daq/DaqTask.h">
<polygon fill="none" stroke="black" points="506.962,-280.5 506.962,-299.5 592.962,-299.5 592.962,-280.5 506.962,-280.5"/>
<text text-anchor="middle" x="549.962" y="-287.5" font-family="Helvetica,sans-Serif" font-size="10.00">Daq/DaqTask.h</text>
</a>
</g>
</g>
<!-- Node1&#45;&gt;Node2 -->
<g id="edge1" class="edge"><title>Node1&#45;&gt;Node2</title>
<path fill="none" stroke="midnightblue" d="M835.765,-336.465C779.228,-327.959 689.985,-314.344 603.114,-300.166"/>
<polygon fill="midnightblue" stroke="midnightblue" points="603.516,-296.685 593.082,-298.524 602.386,-303.593 603.516,-296.685"/>
</g>
<!-- Node18 -->
<g id="node18" class="node"><title>Node18</title>
<g id="a_node18"><a xlink:href="QcInfoLogger_8h.html" target="_top" xlink:title="QualityControl/QcInfoLogger.h">
<polygon fill="none" stroke="black" points="611.462,-280.5 611.462,-299.5 760.462,-299.5 760.462,-280.5 611.462,-280.5"/>
<text text-anchor="middle" x="685.962" y="-287.5" font-family="Helvetica,sans-Serif" font-size="10.00">QualityControl/QcInfoLogger.h</text>
</a>
</g>
</g>
<!-- Node1&#45;&gt;Node18 -->
<g id="edge26" class="edge"><title>Node1&#45;&gt;Node18</title>
<path fill="none" stroke="midnightblue" d="M860.162,-336.444C824.581,-327.162 767.647,-312.309 728.615,-302.127"/>
<polygon fill="midnightblue" stroke="midnightblue" points="729.168,-298.654 718.608,-299.516 727.401,-305.427 729.168,-298.654"/>
</g>
<!-- Node20 -->
<g id="node20" class="node"><title>Node20</title>
<polygon fill="none" stroke="#bfbfbf" points="778.462,-280.5 778.462,-299.5 843.462,-299.5 843.462,-280.5 778.462,-280.5"/>
<text text-anchor="middle" x="810.962" y="-287.5" font-family="Helvetica,sans-Serif" font-size="10.00">TCanvas.h</text>
</g>
<!-- Node1&#45;&gt;Node20 -->
<g id="edge29" class="edge"><title>Node1&#45;&gt;Node20</title>
<path fill="none" stroke="midnightblue" d="M879.787,-336.324C867.115,-327.979 847.729,-315.212 832.756,-305.352"/>
<polygon fill="midnightblue" stroke="midnightblue" points="834.381,-302.231 824.104,-299.655 830.531,-308.078 834.381,-302.231"/>
</g>
<!-- Node21 -->
<g id="node21" class="node"><title>Node21</title>
<polygon fill="none" stroke="#bfbfbf" points="861.962,-280.5 861.962,-299.5 923.962,-299.5 923.962,-280.5 861.962,-280.5"/>
<text text-anchor="middle" x="892.962" y="-287.5" font-family="Helvetica,sans-Serif" font-size="10.00">TDatime.h</text>
</g>
<!-- Node1&#45;&gt;Node21 -->
<g id="edge30" class="edge"><title>Node1&#45;&gt;Node21</title>
<path fill="none" stroke="midnightblue" d="M892.962,-336.083C892.962,-329.006 892.962,-318.861 892.962,-309.986"/>
<polygon fill="midnightblue" stroke="midnightblue" points="896.462,-309.751 892.962,-299.751 889.462,-309.751 896.462,-309.751"/>
</g>
<!-- Node22 -->
<g id="node22" class="node"><title>Node22</title>
<polygon fill="none" stroke="#bfbfbf" points="942.462,-280.5 942.462,-299.5 999.462,-299.5 999.462,-280.5 942.462,-280.5"/>
<text text-anchor="middle" x="970.962" y="-287.5" font-family="Helvetica,sans-Serif" font-size="10.00">TGraph.h</text>
</g>
<!-- Node1&#45;&gt;Node22 -->
<g id="edge31" class="edge"><title>Node1&#45;&gt;Node22</title>
<path fill="none" stroke="midnightblue" d="M905.494,-336.324C917.548,-327.979 935.989,-315.212 950.231,-305.352"/>
<polygon fill="midnightblue" stroke="midnightblue" points="952.231,-308.224 958.461,-299.655 948.247,-302.469 952.231,-308.224"/>
</g>
<!-- Node23 -->
<g id="node23" class="node"><title>Node23</title>
<polygon fill="none" stroke="#bfbfbf" points="1017.96,-280.5 1017.96,-299.5 1061.96,-299.5 1061.96,-280.5 1017.96,-280.5"/>
<text text-anchor="middle" x="1039.96" y="-287.5" font-family="Helvetica,sans-Serif" font-size="10.00">TH1.h</text>
</g>
<!-- Node1&#45;&gt;Node23 -->
<g id="edge32" class="edge"><title>Node1&#45;&gt;Node23</title>
<path fill="none" stroke="midnightblue" d="M916.255,-336.444C941.058,-327.332 980.473,-312.853 1008.13,-302.693"/>
<polygon fill="midnightblue" stroke="midnightblue" points="1009.56,-305.897 1017.74,-299.163 1007.15,-299.326 1009.56,-305.897"/>
</g>
<!-- Node24 -->
<g id="node24" class="node"><title>Node24</title>
<polygon fill="none" stroke="#bfbfbf" points="1080.46,-280.5 1080.46,-299.5 1153.46,-299.5 1153.46,-280.5 1080.46,-280.5"/>
<text text-anchor="middle" x="1116.96" y="-287.5" font-family="Helvetica,sans-Serif" font-size="10.00">TPaveText.h</text>
</g>
<!-- Node1&#45;&gt;Node24 -->
<g id="edge33" class="edge"><title>Node1&#45;&gt;Node24</title>
<path fill="none" stroke="midnightblue" d="M928.455,-336.444C967.286,-327.083 1029.62,-312.056 1071.88,-301.868"/>
<polygon fill="midnightblue" stroke="midnightblue" points="1072.73,-305.263 1081.63,-299.516 1071.09,-298.458 1072.73,-305.263"/>
</g>
<!-- Node3 -->
<g id="node3" class="node"><title>Node3</title>
<g id="a_node3"><a xlink:href="TaskInterface_8h.html" target="_top" xlink:title="QualityControl/TaskInterface.h">
<polygon fill="none" stroke="black" points="474.962,-224.5 474.962,-243.5 624.962,-243.5 624.962,-224.5 474.962,-224.5"/>
<text text-anchor="middle" x="549.962" y="-231.5" font-family="Helvetica,sans-Serif" font-size="10.00">QualityControl/TaskInterface.h</text>
</a>
</g>
</g>
<!-- Node2&#45;&gt;Node3 -->
<g id="edge2" class="edge"><title>Node2&#45;&gt;Node3</title>
<path fill="none" stroke="midnightblue" d="M549.962,-280.083C549.962,-273.006 549.962,-262.861 549.962,-253.986"/>
<polygon fill="midnightblue" stroke="midnightblue" points="553.462,-253.751 549.962,-243.751 546.462,-253.751 553.462,-253.751"/>
</g>
<!-- Node4 -->
<g id="node4" class="node"><title>Node4</title>
<polygon fill="none" stroke="#bfbfbf" points="20.462,-56.5 20.462,-75.5 55.462,-75.5 55.462,-56.5 20.462,-56.5"/>
<text text-anchor="middle" x="37.962" y="-63.5" font-family="Helvetica,sans-Serif" font-size="10.00">map</text>
</g>
<!-- Node3&#45;&gt;Node4 -->
<g id="edge3" class="edge"><title>Node3&#45;&gt;Node4</title>
<path fill="none" stroke="midnightblue" d="M474.853,-227.094C386.627,-217.537 238.088,-193.103 125.962,-132 99.8298,-117.759 72.7202,-96.6007 55.6192,-82.3275"/>
<polygon fill="midnightblue" stroke="midnightblue" points="57.5368,-79.3645 47.647,-75.5642 53.0084,-84.7024 57.5368,-79.3645"/>
</g>
<!-- Node5 -->
<g id="node5" class="node"><title>Node5</title>
<polygon fill="none" stroke="#bfbfbf" points="500.962,-112.5 500.962,-131.5 552.962,-131.5 552.962,-112.5 500.962,-112.5"/>
<text text-anchor="middle" x="526.962" y="-119.5" font-family="Helvetica,sans-Serif" font-size="10.00">memory</text>
</g>
<!-- Node3&#45;&gt;Node5 -->
<g id="edge4" class="edge"><title>Node3&#45;&gt;Node5</title>
<path fill="none" stroke="midnightblue" d="M548.157,-224.368C544.446,-206.617 535.883,-165.666 530.851,-141.597"/>
<polygon fill="midnightblue" stroke="midnightblue" points="534.231,-140.663 528.758,-131.591 527.379,-142.096 534.231,-140.663"/>
</g>
<!-- Node6 -->
<g id="node6" class="node"><title>Node6</title>
<polygon fill="none" stroke="#bfbfbf" points="274.462,-0.5 274.462,-19.5 315.462,-19.5 315.462,-0.5 274.462,-0.5"/>
<text text-anchor="middle" x="294.962" y="-7.5" font-family="Helvetica,sans-Serif" font-size="10.00">string</text>
</g>
<!-- Node3&#45;&gt;Node6 -->
<g id="edge5" class="edge"><title>Node3&#45;&gt;Node6</title>
<path fill="none" stroke="midnightblue" d="M474.815,-229.985C404.549,-225.567 297.333,-214.698 207.962,-188 153.108,-171.613 141.975,-159.86 91.962,-132 51.4629,-109.44 26.2702,-116.638 3.96196,-76 -0.315453,-68.2079 -1.82325,-62.7486 3.96196,-56 37.281,-17.1325 196.584,-11.5378 264.346,-10.9436"/>
<polygon fill="midnightblue" stroke="midnightblue" points="264.422,-14.4434 274.402,-10.8869 264.382,-7.44348 264.422,-14.4434"/>
</g>
<!-- Node7 -->
<g id="node7" class="node"><title>Node7</title>
<polygon fill="none" stroke="#bfbfbf" points="539.462,-56.5 539.462,-75.5 622.462,-75.5 622.462,-56.5 539.462,-56.5"/>
<text text-anchor="middle" x="580.962" y="-63.5" font-family="Helvetica,sans-Serif" font-size="10.00">unordered_map</text>
</g>
<!-- Node3&#45;&gt;Node7 -->
<g id="edge6" class="edge"><title>Node3&#45;&gt;Node7</title>
<path fill="none" stroke="midnightblue" d="M551.629,-224.075C556.508,-197.945 570.838,-121.211 577.493,-85.577"/>
<polygon fill="midnightblue" stroke="midnightblue" points="580.967,-86.0407 579.362,-75.5681 574.086,-84.7556 580.967,-86.0407"/>
</g>
<!-- Node8 -->
<g id="node8" class="node"><title>Node8</title>
<polygon fill="none" stroke="#bfbfbf" points="605.462,-168.5 605.462,-187.5 730.462,-187.5 730.462,-168.5 605.462,-168.5"/>
<text text-anchor="middle" x="667.962" y="-175.5" font-family="Helvetica,sans-Serif" font-size="10.00">Framework/InitContext.h</text>
</g>
<!-- Node3&#45;&gt;Node8 -->
<g id="edge7" class="edge"><title>Node3&#45;&gt;Node8</title>
<path fill="none" stroke="midnightblue" d="M568.659,-224.444C587.906,-215.636 618.114,-201.812 640.162,-191.722"/>
<polygon fill="midnightblue" stroke="midnightblue" points="641.715,-194.86 649.352,-187.516 638.802,-188.495 641.715,-194.86"/>
</g>
<!-- Node9 -->
<g id="node9" class="node"><title>Node9</title>
<polygon fill="none" stroke="#bfbfbf" points="748.962,-168.5 748.962,-187.5 908.962,-187.5 908.962,-168.5 748.962,-168.5"/>
<text text-anchor="middle" x="828.962" y="-175.5" font-family="Helvetica,sans-Serif" font-size="10.00">Framework/ProcessingContext.h</text>
</g>
<!-- Node3&#45;&gt;Node9 -->
<g id="edge8" class="edge"><title>Node3&#45;&gt;Node9</title>
<path fill="none" stroke="midnightblue" d="M594.17,-224.444C643.249,-214.944 722.472,-199.611 775.126,-189.42"/>
<polygon fill="midnightblue" stroke="midnightblue" points="775.808,-192.853 784.96,-187.516 774.478,-185.98 775.808,-192.853"/>
</g>
<!-- Node10 -->
<g id="node10" class="node"><title>Node10</title>
<g id="a_node10"><a xlink:href="Activity_8h.html" target="_top" xlink:title="QualityControl/Activity.h">
<polygon fill="none" stroke="black" points="927.462,-168.5 927.462,-187.5 1050.46,-187.5 1050.46,-168.5 927.462,-168.5"/>
<text text-anchor="middle" x="988.962" y="-175.5" font-family="Helvetica,sans-Serif" font-size="10.00">QualityControl/Activity.h</text>
</a>
</g>
</g>
<!-- Node3&#45;&gt;Node10 -->
<g id="edge9" class="edge"><title>Node3&#45;&gt;Node10</title>
<path fill="none" stroke="midnightblue" d="M620.521,-224.465C692.438,-215.745 807.505,-201.735 917.451,-188.059"/>
<polygon fill="midnightblue" stroke="midnightblue" points="917.899,-191.53 927.39,-186.822 917.035,-184.584 917.899,-191.53"/>
</g>
<!-- Node11 -->
<g id="node11" class="node"><title>Node11</title>
<g id="a_node11"><a xlink:href="ObjectsManager_8h.html" target="_top" xlink:title="QualityControl/ObjectsManager.h">
<polygon fill="none" stroke="black" points="283.462,-168.5 283.462,-187.5 444.462,-187.5 444.462,-168.5 283.462,-168.5"/>
<text text-anchor="middle" x="363.962" y="-175.5" font-family="Helvetica,sans-Serif" font-size="10.00">QualityControl/ObjectsManager.h</text>
</a>
</g>
</g>
<!-- Node3&#45;&gt;Node11 -->
<g id="edge10" class="edge"><title>Node3&#45;&gt;Node11</title>
<path fill="none" stroke="midnightblue" d="M520.49,-224.444C488.791,-215.241 438.23,-200.562 403.187,-190.388"/>
<polygon fill="midnightblue" stroke="midnightblue" points="403.876,-186.943 393.296,-187.516 401.924,-193.666 403.876,-186.943"/>
</g>
<!-- Node11&#45;&gt;Node5 -->
<g id="edge25" class="edge"><title>Node11&#45;&gt;Node5</title>
<path fill="none" stroke="midnightblue" d="M389.79,-168.444C417.211,-159.359 460.739,-144.939 491.394,-134.783"/>
<polygon fill="midnightblue" stroke="midnightblue" points="492.863,-137.984 501.255,-131.516 490.662,-131.339 492.863,-137.984"/>
</g>
<!-- Node11&#45;&gt;Node6 -->
<g id="edge24" class="edge"><title>Node11&#45;&gt;Node6</title>
<path fill="none" stroke="midnightblue" d="M297.532,-168.498C203.99,-154.898 41.4207,-124.71 10.962,-76 6.24921,-68.4633 5.18931,-62.7594 10.962,-56 43.2075,-18.2429 196.823,-11.9928 263.716,-11.0827"/>
<polygon fill="midnightblue" stroke="midnightblue" points="264.082,-14.5792 274.046,-10.9758 264.01,-7.57955 264.082,-14.5792"/>
</g>
<!-- Node12 -->
<g id="node12" class="node"><title>Node12</title>
<g id="a_node12"><a xlink:href="MonitorObject_8h.html" target="_top" xlink:title="QualityControl/MonitorObject.h">
<polygon fill="none" stroke="black" points="135.462,-112.5 135.462,-131.5 286.462,-131.5 286.462,-112.5 135.462,-112.5"/>
<text text-anchor="middle" x="210.962" y="-119.5" font-family="Helvetica,sans-Serif" font-size="10.00">QualityControl/MonitorObject.h</text>
</a>
</g>
</g>
<!-- Node11&#45;&gt;Node12 -->
<g id="edge11" class="edge"><title>Node11&#45;&gt;Node12</title>
<path fill="none" stroke="midnightblue" d="M339.719,-168.444C314.091,-159.399 273.477,-145.064 244.724,-134.916"/>
<polygon fill="midnightblue" stroke="midnightblue" points="245.687,-131.544 235.092,-131.516 243.357,-138.145 245.687,-131.544"/>
</g>
<!-- Node16 -->
<g id="node16" class="node"><title>Node16</title>
<g id="a_node16"><a xlink:href="Quality_8h.html" target="_top" xlink:title="QualityControl/Quality.h">
<polygon fill="none" stroke="black" points="323.462,-56.5 323.462,-75.5 444.462,-75.5 444.462,-56.5 323.462,-56.5"/>
<text text-anchor="middle" x="383.962" y="-63.5" font-family="Helvetica,sans-Serif" font-size="10.00">QualityControl/Quality.h</text>
</a>
</g>
</g>
<!-- Node11&#45;&gt;Node16 -->
<g id="edge20" class="edge"><title>Node11&#45;&gt;Node16</title>
<path fill="none" stroke="midnightblue" d="M354.797,-168.203C342.981,-155.74 324.961,-132.209 333.962,-112 339.53,-99.4981 350.478,-89.0124 360.713,-81.3167"/>
<polygon fill="midnightblue" stroke="midnightblue" points="362.813,-84.1193 369.009,-75.5256 358.806,-78.3794 362.813,-84.1193"/>
</g>
<!-- Node17 -->
<g id="node17" class="node"><title>Node17</title>
<g id="a_node17"><a xlink:href="TaskConfig_8h.html" target="_top" xlink:title="QualityControl/TaskConfig.h">
<polygon fill="none" stroke="black" points="342.962,-112.5 342.962,-131.5 482.962,-131.5 482.962,-112.5 342.962,-112.5"/>
<text text-anchor="middle" x="412.962" y="-119.5" font-family="Helvetica,sans-Serif" font-size="10.00">QualityControl/TaskConfig.h</text>
</a>
</g>
</g>
<!-- Node11&#45;&gt;Node17 -->
<g id="edge21" class="edge"><title>Node11&#45;&gt;Node17</title>
<path fill="none" stroke="midnightblue" d="M372.053,-168.083C379.117,-160.298 389.55,-148.801 398.111,-139.367"/>
<polygon fill="midnightblue" stroke="midnightblue" points="400.893,-141.509 405.021,-131.751 395.709,-136.805 400.893,-141.509"/>
</g>
<!-- Node12&#45;&gt;Node4 -->
<g id="edge13" class="edge"><title>Node12&#45;&gt;Node4</title>
<path fill="none" stroke="midnightblue" d="M181.857,-112.429C154.104,-104.181 110.912,-91.1552 65.3164,-76.3676"/>
<polygon fill="midnightblue" stroke="midnightblue" points="66.1474,-72.9572 55.555,-73.1864 63.9783,-79.6127 66.1474,-72.9572"/>
</g>
<!-- Node12&#45;&gt;Node6 -->
<g id="edge12" class="edge"><title>Node12&#45;&gt;Node6</title>
<path fill="none" stroke="midnightblue" d="M229.86,-112.373C244.48,-104.773 264.16,-92.3641 275.962,-76 285.741,-62.4414 290.518,-43.8923 292.833,-30.0791"/>
<polygon fill="midnightblue" stroke="midnightblue" points="296.351,-30.1886 294.255,-19.8033 289.417,-29.2294 296.351,-30.1886"/>
</g>
<!-- Node13 -->
<g id="node13" class="node"><title>Node13</title>
<polygon fill="none" stroke="#bfbfbf" points="418.962,-0.5 418.962,-19.5 474.962,-19.5 474.962,-0.5 418.962,-0.5"/>
<text text-anchor="middle" x="446.962" y="-7.5" font-family="Helvetica,sans-Serif" font-size="10.00">Rtypes.h</text>
</g>
<!-- Node12&#45;&gt;Node13 -->
<g id="edge14" class="edge"><title>Node12&#45;&gt;Node13</title>
<path fill="none" stroke="midnightblue" d="M281.663,-112.473C349.085,-103.616 441.967,-89.2277 452.962,-76 463.688,-63.0961 459.999,-43.3754 454.983,-29.0397"/>
<polygon fill="midnightblue" stroke="midnightblue" points="458.228,-27.7277 451.282,-19.7272 451.722,-30.3129 458.228,-27.7277"/>
</g>
<!-- Node14 -->
<g id="node14" class="node"><title>Node14</title>
<polygon fill="none" stroke="#bfbfbf" points="73.462,-56.5 73.462,-75.5 132.462,-75.5 132.462,-56.5 73.462,-56.5"/>
<text text-anchor="middle" x="102.962" y="-63.5" font-family="Helvetica,sans-Serif" font-size="10.00">TObject.h</text>
</g>
<!-- Node12&#45;&gt;Node14 -->
<g id="edge15" class="edge"><title>Node12&#45;&gt;Node14</title>
<path fill="none" stroke="midnightblue" d="M193.61,-112.324C176.29,-103.664 149.447,-90.2424 129.46,-80.249"/>
<polygon fill="midnightblue" stroke="midnightblue" points="130.781,-76.9962 120.271,-75.6545 127.65,-83.2572 130.781,-76.9962"/>
</g>
<!-- Node15 -->
<g id="node15" class="node"><title>Node15</title>
<polygon fill="none" stroke="#bfbfbf" points="150.962,-56.5 150.962,-75.5 266.962,-75.5 266.962,-56.5 150.962,-56.5"/>
<text text-anchor="middle" x="208.962" y="-63.5" font-family="Helvetica,sans-Serif" font-size="10.00">Common/Exceptions.h</text>
</g>
<!-- Node12&#45;&gt;Node15 -->
<g id="edge16" class="edge"><title>Node12&#45;&gt;Node15</title>
<path fill="none" stroke="midnightblue" d="M210.632,-112.083C210.37,-105.006 209.994,-94.8611 209.665,-85.9865"/>
<polygon fill="midnightblue" stroke="midnightblue" points="213.154,-85.6147 209.286,-75.7511 206.159,-85.8738 213.154,-85.6147"/>
</g>
<!-- Node12&#45;&gt;Node16 -->
<g id="edge17" class="edge"><title>Node12&#45;&gt;Node16</title>
<path fill="none" stroke="midnightblue" d="M238.374,-112.444C267.731,-103.28 314.481,-88.6876 347.058,-78.5192"/>
<polygon fill="midnightblue" stroke="midnightblue" points="348.175,-81.8371 356.678,-75.5164 346.089,-75.1551 348.175,-81.8371"/>
</g>
<!-- Node16&#45;&gt;Node6 -->
<g id="edge19" class="edge"><title>Node16&#45;&gt;Node6</title>
<path fill="none" stroke="midnightblue" d="M369.663,-56.324C355.779,-47.9002 334.47,-34.9709 318.158,-25.0741"/>
<polygon fill="midnightblue" stroke="midnightblue" points="319.591,-21.8495 309.226,-19.6545 315.96,-27.8341 319.591,-21.8495"/>
</g>
<!-- Node16&#45;&gt;Node13 -->
<g id="edge18" class="edge"><title>Node16&#45;&gt;Node13</title>
<path fill="none" stroke="midnightblue" d="M394.084,-56.324C403.488,-48.2631 417.706,-36.0765 429.031,-26.3695"/>
<polygon fill="midnightblue" stroke="midnightblue" points="431.341,-28.9993 436.656,-19.8339 426.785,-23.6844 431.341,-28.9993"/>
</g>
<!-- Node17&#45;&gt;Node6 -->
<g id="edge22" class="edge"><title>Node17&#45;&gt;Node6</title>
<path fill="none" stroke="midnightblue" d="M424.971,-112.461C441.433,-99.7084 467.412,-75.1408 452.962,-56 437.667,-35.7405 367.251,-21.8983 325.764,-15.3442"/>
<polygon fill="midnightblue" stroke="midnightblue" points="326.057,-11.8484 315.643,-13.7989 325,-18.7682 326.057,-11.8484"/>
</g>
<!-- Node17&#45;&gt;Node7 -->
<g id="edge23" class="edge"><title>Node17&#45;&gt;Node7</title>
<path fill="none" stroke="midnightblue" d="M439.582,-112.444C467.968,-103.32 513.098,-88.8133 544.715,-78.6509"/>
<polygon fill="midnightblue" stroke="midnightblue" points="546.017,-81.9087 554.466,-75.5164 543.875,-75.2445 546.017,-81.9087"/>
</g>
<!-- Node18&#45;&gt;Node3 -->
<g id="edge28" class="edge"><title>Node18&#45;&gt;Node3</title>
<path fill="none" stroke="midnightblue" d="M664.412,-280.444C641.931,-271.517 606.474,-257.439 580.982,-247.317"/>
<polygon fill="midnightblue" stroke="midnightblue" points="581.997,-243.954 571.411,-243.516 579.413,-250.46 581.997,-243.954"/>
</g>
<!-- Node19 -->
<g id="node19" class="node"><title>Node19</title>
<polygon fill="none" stroke="#bfbfbf" points="642.962,-224.5 642.962,-243.5 772.962,-243.5 772.962,-224.5 642.962,-224.5"/>
<text text-anchor="middle" x="707.962" y="-231.5" font-family="Helvetica,sans-Serif" font-size="10.00">InfoLogger/InfoLogger.hxx</text>
</g>
<!-- Node18&#45;&gt;Node19 -->
<g id="edge27" class="edge"><title>Node18&#45;&gt;Node19</title>
<path fill="none" stroke="midnightblue" d="M689.595,-280.083C692.574,-272.77 696.888,-262.181 700.587,-253.103"/>
<polygon fill="midnightblue" stroke="midnightblue" points="703.865,-254.333 704.397,-243.751 697.382,-251.691 703.865,-254.333"/>
</g>
</g>
</svg>
        <g id="navigator" transform="translate(0 0)" fill="#404254">
                <rect fill="#f2f5e9" fill-opacity="0.5" stroke="#606060" stroke-width=".5" x="0" y="0" width="60" height="60"/>
                <use id="zoomplus" xlink:href="#zoomPlus" x="17" y="9" onmousedown="handleZoom(evt,'in')"/>
                <use id="zoomminus" xlink:href="#zoomMin" x="42" y="9" onmousedown="handleZoom(evt,'out')"/>
                <use id="reset" xlink:href="#resetDef" x="30" y="36" onmousedown="handleReset()"/>
                <g id="arrowUp" xlink:href="#dirArrow" transform="translate(30 24)" onmousedown="handlePan(0,-1)">
                  <use xlink:href="#rim" fill="#404040">
                        <set attributeName="fill" to="#808080" begin="arrowUp.mouseover" end="arrowUp.mouseout"/>
                  </use>
                  <path fill="none" stroke="white" stroke-width="1.5" d="M0,-3.0v7 M-2.5,-0.5L0,-3.0L2.5,-0.5"/>
                </g>
                <g id="arrowRight" xlink:href="#dirArrow" transform="rotate(90) translate(36 -43)" onmousedown="handlePan(1,0)">
                  <use xlink:href="#rim" fill="#404040">
                        <set attributeName="fill" to="#808080" begin="arrowRight.mouseover" end="arrowRight.mouseout"/>
                  </use>
                  <path fill="none" stroke="white" stroke-width="1.5" d="M0,-3.0v7 M-2.5,-0.5L0,-3.0L2.5,-0.5"/>
                </g>
                <g id="arrowDown" xlink:href="#dirArrow" transform="rotate(180) translate(-30 -48)" onmousedown="handlePan(0,1)">
                  <use xlink:href="#rim" fill="#404040">
                        <set attributeName="fill" to="#808080" begin="arrowDown.mouseover" end="arrowDown.mouseout"/>
                  </use>
                  <path fill="none" stroke="white" stroke-width="1.5" d="M0,-3.0v7 M-2.5,-0.5L0,-3.0L2.5,-0.5"/>
                </g>
                <g id="arrowLeft" xlink:href="#dirArrow" transform="rotate(270) translate(-36 17)" onmousedown="handlePan(-1,0)">
                  <use xlink:href="#rim" fill="#404040">
                        <set attributeName="fill" to="#808080" begin="arrowLeft.mouseover" end="arrowLeft.mouseout"/>
                  </use>
                  <path fill="none" stroke="white" stroke-width="1.5" d="M0,-3.0v7 M-2.5,-0.5L0,-3.0L2.5,-0.5"/>
                </g>
        </g>
        <svg viewBox="0 0 15 15" width="100%" height="30px" preserveAspectRatio="xMaxYMin meet">
         <g id="arrow_out" transform="scale(0.3 0.3)">
          <a xlink:href="DaqTask_8cxx__incl_org.svg" target="_base">
           <rect id="button" ry="5" rx="5" y="6" x="6" height="38" width="38"
                fill="#f2f5e9" fill-opacity="0.5" stroke="#606060" stroke-width="1.0"/>
           <path id="arrow"
             d="M 11.500037,31.436501 C 11.940474,20.09759 22.043105,11.32322 32.158766,21.979434 L 37.068811,17.246167 C 37.068811,17.246167 37.088388,32 37.088388,32 L 22.160133,31.978069 C 22.160133,31.978069 26.997745,27.140456 26.997745,27.140456 C 18.528582,18.264221 13.291696,25.230495 11.500037,31.436501 z"
             style="fill:#404040;"/>
          </a>
         </g>
        </svg>
</svg>
