<?xml version="1.0" encoding="UTF-8" standalone="no"?>
<!DOCTYPE svg PUBLIC "-//W3C//DTD SVG 1.1//EN"
 "http://www.w3.org/Graphics/SVG/1.1/DTD/svg11.dtd">
<!-- Generated by graphviz version 2.38.0 (20140413.2041)
 -->
<!-- Title: Framework/src/DataDumpGui.cxx Pages: 1 -->
<!--zoomable 162 -->
<svg id="main" version="1.1" xmlns="http://www.w3.org/2000/svg" xmlns:xlink="http://www.w3.org/1999/xlink" xml:space="preserve" onload="init(evt)">
<style type="text/css"><![CDATA[
.edge:hover path { stroke: red; }
.edge:hover polygon { stroke: red; fill: red; }
]]></style>
<script type="text/javascript"><![CDATA[
var edges = document.getElementsByTagName('g');
if (edges && edges.length) {
  for (var i=0;i<edges.length;i++) {
    if (edges[i].id.substr(0,4)=='edge') {
      edges[i].setAttribute('class','edge');
    }
  }
}
]]></script>
        <defs>
                <circle id="rim" cx="0" cy="0" r="7"/>
                <circle id="rim2" cx="0" cy="0" r="3.5"/>
                <g id="zoomPlus">
                        <use xlink:href="#rim" fill="#404040">
                                <set attributeName="fill" to="#808080" begin="zoomplus.mouseover" end="zoomplus.mouseout"/>
                        </use>
                        <path d="M-4,0h8M0,-4v8" fill="none" stroke="white" stroke-width="1.5" pointer-events="none"/>
                </g>
                <g id="zoomMin">
                        <use xlink:href="#rim" fill="#404040">
                                <set attributeName="fill" to="#808080" begin="zoomminus.mouseover" end="zoomminus.mouseout"/>
                        </use>
                        <path d="M-4,0h8" fill="none" stroke="white" stroke-width="1.5" pointer-events="none"/>
                </g>
                <g id="dirArrow">
                        <path fill="none" stroke="white" stroke-width="1.5" d="M0,-3.0v7 M-2.5,-0.5L0,-3.0L2.5,-0.5"/>
                </g>
               <g id="resetDef">
                       <use xlink:href="#rim2" fill="#404040">
                               <set attributeName="fill" to="#808080" begin="reset.mouseover" end="reset.mouseout"/>
                       </use>
               </g>
        </defs>

<script type="text/javascript">
var viewWidth = 1158;
var viewHeight = 162;
var sectionId = 'dynsection-0';
</script>
<script xlink:href="svgpan.js"/>
<svg id="graph" class="graph">
<g id="viewport">
<title>Framework/src/DataDumpGui.cxx</title>
<!-- Node1 -->
<g id="node1" class="node"><title>Node1</title>
<polygon fill="#bfbfbf" stroke="black" points="596,-134.5 596,-153.5 762,-153.5 762,-134.5 596,-134.5"/>
<text text-anchor="middle" x="679" y="-141.5" font-family="Helvetica,sans-Serif" font-size="10.00">Framework/src/DataDumpGui.cxx</text>
</g>
<!-- Node2 -->
<g id="node2" class="node"><title>Node2</title>
<g id="a_node2"><a xlink:href="DataDumpGui_8h.html" target="_top" xlink:title="QualityControl/DataDumpGui.h">
<polygon fill="none" stroke="black" points="0,-67.5 0,-86.5 152,-86.5 152,-67.5 0,-67.5"/>
<text text-anchor="middle" x="76" y="-74.5" font-family="Helvetica,sans-Serif" font-size="10.00">QualityControl/DataDumpGui.h</text>
</a>
</g>
</g>
<!-- Node1&#45;&gt;Node2 -->
<g id="edge1" class="edge"><title>Node1&#45;&gt;Node2</title>
<path fill="none" stroke="midnightblue" d="M595.732,-139.388C493.191,-134.106 313.931,-122.154 162,-98 147.503,-95.6953 131.819,-92.3165 117.864,-88.9895"/>
<polygon fill="midnightblue" stroke="midnightblue" points="118.594,-85.5652 108.049,-86.5922 116.933,-92.3652 118.594,-85.5652"/>
</g>
<!-- Node5 -->
<g id="node5" class="node"><title>Node5</title>
<polygon fill="none" stroke="#bfbfbf" points="170.5,-67.5 170.5,-86.5 259.5,-86.5 259.5,-67.5 170.5,-67.5"/>
<text text-anchor="middle" x="215" y="-74.5" font-family="Helvetica,sans-Serif" font-size="10.00">imgui/BaseGui.h</text>
</g>
<!-- Node1&#45;&gt;Node5 -->
<g id="edge4" class="edge"><title>Node1&#45;&gt;Node5</title>
<path fill="none" stroke="midnightblue" d="M595.922,-139.854C512.37,-135.302 380.329,-124.303 269,-98 260.791,-96.0604 252.127,-93.2268 244.2,-90.2991"/>
<polygon fill="midnightblue" stroke="midnightblue" points="245.232,-86.9456 234.643,-86.6007 242.706,-93.4739 245.232,-86.9456"/>
</g>
<!-- Node6 -->
<g id="node6" class="node"><title>Node6</title>
<polygon fill="none" stroke="#bfbfbf" points="277.5,-67.5 277.5,-86.5 336.5,-86.5 336.5,-67.5 277.5,-67.5"/>
<text text-anchor="middle" x="307" y="-74.5" font-family="Helvetica,sans-Serif" font-size="10.00">functional</text>
</g>
<!-- Node1&#45;&gt;Node6 -->
<g id="edge5" class="edge"><title>Node1&#45;&gt;Node6</title>
<path fill="none" stroke="midnightblue" d="M595.883,-139.581C527.471,-134.927 428.657,-123.939 346,-98 340.691,-96.3339 335.233,-93.9878 330.144,-91.4861"/>
<polygon fill="midnightblue" stroke="midnightblue" points="331.425,-88.2044 320.949,-86.6214 328.152,-94.3917 331.425,-88.2044"/>
</g>
<!-- Node7 -->
<g id="node7" class="node"><title>Node7</title>
<polygon fill="none" stroke="#bfbfbf" points="355,-67.5 355,-86.5 429,-86.5 429,-67.5 355,-67.5"/>
<text text-anchor="middle" x="392" y="-74.5" font-family="Helvetica,sans-Serif" font-size="10.00">imgui/imgui.h</text>
</g>
<!-- Node1&#45;&gt;Node7 -->
<g id="edge6" class="edge"><title>Node1&#45;&gt;Node7</title>
<path fill="none" stroke="midnightblue" d="M612.371,-134.473C563.683,-127.289 496.415,-115.373 439,-98 432.427,-96.0112 425.53,-93.3955 419.107,-90.7143"/>
<polygon fill="midnightblue" stroke="midnightblue" points="420.082,-87.3211 409.517,-86.5275 417.281,-93.7363 420.082,-87.3211"/>
</g>
<!-- Node8 -->
<g id="node8" class="node"><title>Node8</title>
<polygon fill="none" stroke="#bfbfbf" points="447.5,-56.5 447.5,-97.5 606.5,-97.5 606.5,-56.5 447.5,-56.5"/>
<text text-anchor="start" x="455.5" y="-85.5" font-family="Helvetica,sans-Serif" font-size="10.00">/home/travis/build</text>
<text text-anchor="start" x="455.5" y="-74.5" font-family="Helvetica,sans-Serif" font-size="10.00">/AliceO2Group/QualityControl</text>
<text text-anchor="middle" x="527" y="-63.5" font-family="Helvetica,sans-Serif" font-size="10.00">/Framework/src/imgui/imconfig.h</text>
</g>
<!-- Node1&#45;&gt;Node8 -->
<g id="edge7" class="edge"><title>Node1&#45;&gt;Node8</title>
<path fill="none" stroke="midnightblue" d="M658.816,-134.369C639.311,-126.028 608.876,-113.013 582.163,-101.589"/>
<polygon fill="midnightblue" stroke="midnightblue" points="583.464,-98.3393 572.893,-97.6254 580.712,-104.775 583.464,-98.3393"/>
</g>
<!-- Node9 -->
<g id="node9" class="node"><title>Node9</title>
<polygon fill="none" stroke="#bfbfbf" points="624,-67.5 624,-86.5 668,-86.5 668,-67.5 624,-67.5"/>
<text text-anchor="middle" x="646" y="-74.5" font-family="Helvetica,sans-Serif" font-size="10.00">float.h</text>
</g>
<!-- Node1&#45;&gt;Node9 -->
<g id="edge8" class="edge"><title>Node1&#45;&gt;Node9</title>
<path fill="none" stroke="midnightblue" d="M674.549,-134.234C669.552,-124.39 661.312,-108.16 654.966,-95.6594"/>
<polygon fill="midnightblue" stroke="midnightblue" points="658.028,-93.9595 650.38,-86.6273 651.786,-97.1284 658.028,-93.9595"/>
</g>
<!-- Node10 -->
<g id="node10" class="node"><title>Node10</title>
<polygon fill="none" stroke="#bfbfbf" points="686,-67.5 686,-86.5 738,-86.5 738,-67.5 686,-67.5"/>
<text text-anchor="middle" x="712" y="-74.5" font-family="Helvetica,sans-Serif" font-size="10.00">stdarg.h</text>
</g>
<!-- Node1&#45;&gt;Node10 -->
<g id="edge9" class="edge"><title>Node1&#45;&gt;Node10</title>
<path fill="none" stroke="midnightblue" d="M683.451,-134.234C688.448,-124.39 696.688,-108.16 703.034,-95.6594"/>
<polygon fill="midnightblue" stroke="midnightblue" points="706.214,-97.1284 707.62,-86.6273 699.972,-93.9595 706.214,-97.1284"/>
</g>
<!-- Node11 -->
<g id="node11" class="node"><title>Node11</title>
<polygon fill="none" stroke="#bfbfbf" points="756,-67.5 756,-86.5 808,-86.5 808,-67.5 756,-67.5"/>
<text text-anchor="middle" x="782" y="-74.5" font-family="Helvetica,sans-Serif" font-size="10.00">stddef.h</text>
</g>
<!-- Node1&#45;&gt;Node11 -->
<g id="edge10" class="edge"><title>Node1&#45;&gt;Node11</title>
<path fill="none" stroke="midnightblue" d="M692.891,-134.234C710.034,-123.416 739.4,-104.883 759.711,-92.0659"/>
<polygon fill="midnightblue" stroke="midnightblue" points="761.74,-94.9241 768.329,-86.6273 758.004,-89.0043 761.74,-94.9241"/>
</g>
<!-- Node12 -->
<g id="node12" class="node"><title>Node12</title>
<polygon fill="none" stroke="#bfbfbf" points="826.5,-67.5 826.5,-86.5 875.5,-86.5 875.5,-67.5 826.5,-67.5"/>
<text text-anchor="middle" x="851" y="-74.5" font-family="Helvetica,sans-Serif" font-size="10.00">string.h</text>
</g>
<!-- Node1&#45;&gt;Node12 -->
<g id="edge11" class="edge"><title>Node1&#45;&gt;Node12</title>
<path fill="none" stroke="midnightblue" d="M711.813,-134.469C740.254,-126.568 782.194,-113.688 817,-98 821.004,-96.1954 825.135,-94.04 829.078,-91.8228"/>
<polygon fill="midnightblue" stroke="midnightblue" points="830.964,-94.7741 837.792,-86.6729 827.402,-88.748 830.964,-94.7741"/>
</g>
<!-- Node13 -->
<g id="node13" class="node"><title>Node13</title>
<polygon fill="none" stroke="#bfbfbf" points="894,-67.5 894,-86.5 946,-86.5 946,-67.5 894,-67.5"/>
<text text-anchor="middle" x="920" y="-74.5" font-family="Helvetica,sans-Serif" font-size="10.00">assert.h</text>
</g>
<!-- Node1&#45;&gt;Node13 -->
<g id="edge12" class="edge"><title>Node1&#45;&gt;Node13</title>
<path fill="none" stroke="midnightblue" d="M741.267,-134.462C782.891,-127.537 838.361,-115.935 885,-98 889.456,-96.2864 894.023,-94.0659 898.325,-91.7303"/>
<polygon fill="midnightblue" stroke="midnightblue" points="900.287,-94.6378 907.173,-86.5856 896.769,-88.5863 900.287,-94.6378"/>
</g>
<!-- Node14 -->
<g id="node14" class="node"><title>Node14</title>
<polygon fill="none" stroke="#bfbfbf" points="964.5,-67.5 964.5,-86.5 1081.5,-86.5 1081.5,-67.5 964.5,-67.5"/>
<text text-anchor="middle" x="1023" y="-74.5" font-family="Helvetica,sans-Serif" font-size="10.00">Headers/DataHeader.h</text>
</g>
<!-- Node1&#45;&gt;Node14 -->
<g id="edge13" class="edge"><title>Node1&#45;&gt;Node14</title>
<path fill="none" stroke="midnightblue" d="M745.813,-134.481C801.99,-126.752 884.229,-114.111 955,-98 965.439,-95.6236 976.636,-92.5525 986.871,-89.5334"/>
<polygon fill="midnightblue" stroke="midnightblue" points="988.159,-92.8005 996.721,-86.5593 986.136,-86.0993 988.159,-92.8005"/>
</g>
<!-- Node15 -->
<g id="node15" class="node"><title>Node15</title>
<polygon fill="none" stroke="#bfbfbf" points="1100,-67.5 1100,-86.5 1150,-86.5 1150,-67.5 1100,-67.5"/>
<text text-anchor="middle" x="1125" y="-74.5" font-family="Helvetica,sans-Serif" font-size="10.00">iomanip</text>
</g>
<!-- Node1&#45;&gt;Node15 -->
<g id="edge14" class="edge"><title>Node1&#45;&gt;Node15</title>
<path fill="none" stroke="midnightblue" d="M762.213,-138.055C864.541,-131.256 1031.93,-117.594 1091,-98 1095.58,-96.4794 1100.22,-94.2785 1104.54,-91.8877"/>
<polygon fill="midnightblue" stroke="midnightblue" points="1106.6,-94.7299 1113.32,-86.5407 1102.96,-88.7506 1106.6,-94.7299"/>
</g>
<!-- Node3 -->
<g id="node3" class="node"><title>Node3</title>
<polygon fill="none" stroke="#bfbfbf" points="6.5,-0.5 6.5,-19.5 47.5,-19.5 47.5,-0.5 6.5,-0.5"/>
<text text-anchor="middle" x="27" y="-7.5" font-family="Helvetica,sans-Serif" font-size="10.00">string</text>
</g>
<!-- Node2&#45;&gt;Node3 -->
<g id="edge2" class="edge"><title>Node2&#45;&gt;Node3</title>
<path fill="none" stroke="midnightblue" d="M69.3916,-67.2338C61.8242,-57.1953 49.2494,-40.5145 39.756,-27.9213"/>
<polygon fill="midnightblue" stroke="midnightblue" points="42.3182,-25.5057 33.5037,-19.6273 36.7285,-29.7194 42.3182,-25.5057"/>
</g>
<!-- Node4 -->
<g id="node4" class="node"><title>Node4</title>
<polygon fill="none" stroke="#bfbfbf" points="66,-0.5 66,-19.5 184,-19.5 184,-0.5 66,-0.5"/>
<text text-anchor="middle" x="125" y="-7.5" font-family="Helvetica,sans-Serif" font-size="10.00">fairmq/FairMQDevice.h</text>
</g>
<!-- Node2&#45;&gt;Node4 -->
<g id="edge3" class="edge"><title>Node2&#45;&gt;Node4</title>
<path fill="none" stroke="midnightblue" d="M82.6084,-67.2338C90.1758,-57.1953 102.751,-40.5145 112.244,-27.9213"/>
<polygon fill="midnightblue" stroke="midnightblue" points="115.272,-29.7194 118.496,-19.6273 109.682,-25.5057 115.272,-29.7194"/>
</g>
</g>
</svg>
        <g id="navigator" transform="translate(0 0)" fill="#404254">
                <rect fill="#f2f5e9" fill-opacity="0.5" stroke="#606060" stroke-width=".5" x="0" y="0" width="60" height="60"/>
                <use id="zoomplus" xlink:href="#zoomPlus" x="17" y="9" onmousedown="handleZoom(evt,'in')"/>
                <use id="zoomminus" xlink:href="#zoomMin" x="42" y="9" onmousedown="handleZoom(evt,'out')"/>
                <use id="reset" xlink:href="#resetDef" x="30" y="36" onmousedown="handleReset()"/>
                <g id="arrowUp" xlink:href="#dirArrow" transform="translate(30 24)" onmousedown="handlePan(0,-1)">
                  <use xlink:href="#rim" fill="#404040">
                        <set attributeName="fill" to="#808080" begin="arrowUp.mouseover" end="arrowUp.mouseout"/>
                  </use>
                  <path fill="none" stroke="white" stroke-width="1.5" d="M0,-3.0v7 M-2.5,-0.5L0,-3.0L2.5,-0.5"/>
                </g>
                <g id="arrowRight" xlink:href="#dirArrow" transform="rotate(90) translate(36 -43)" onmousedown="handlePan(1,0)">
                  <use xlink:href="#rim" fill="#404040">
                        <set attributeName="fill" to="#808080" begin="arrowRight.mouseover" end="arrowRight.mouseout"/>
                  </use>
                  <path fill="none" stroke="white" stroke-width="1.5" d="M0,-3.0v7 M-2.5,-0.5L0,-3.0L2.5,-0.5"/>
                </g>
                <g id="arrowDown" xlink:href="#dirArrow" transform="rotate(180) translate(-30 -48)" onmousedown="handlePan(0,1)">
                  <use xlink:href="#rim" fill="#404040">
                        <set attributeName="fill" to="#808080" begin="arrowDown.mouseover" end="arrowDown.mouseout"/>
                  </use>
                  <path fill="none" stroke="white" stroke-width="1.5" d="M0,-3.0v7 M-2.5,-0.5L0,-3.0L2.5,-0.5"/>
                </g>
                <g id="arrowLeft" xlink:href="#dirArrow" transform="rotate(270) translate(-36 17)" onmousedown="handlePan(-1,0)">
                  <use xlink:href="#rim" fill="#404040">
                        <set attributeName="fill" to="#808080" begin="arrowLeft.mouseover" end="arrowLeft.mouseout"/>
                  </use>
                  <path fill="none" stroke="white" stroke-width="1.5" d="M0,-3.0v7 M-2.5,-0.5L0,-3.0L2.5,-0.5"/>
                </g>
        </g>
        <svg viewBox="0 0 15 15" width="100%" height="30px" preserveAspectRatio="xMaxYMin meet">
         <g id="arrow_out" transform="scale(0.3 0.3)">
          <a xlink:href="DataDumpGui_8cxx__incl_org.svg" target="_base">
           <rect id="button" ry="5" rx="5" y="6" x="6" height="38" width="38"
                fill="#f2f5e9" fill-opacity="0.5" stroke="#606060" stroke-width="1.0"/>
           <path id="arrow"
             d="M 11.500037,31.436501 C 11.940474,20.09759 22.043105,11.32322 32.158766,21.979434 L 37.068811,17.246167 C 37.068811,17.246167 37.088388,32 37.088388,32 L 22.160133,31.978069 C 22.160133,31.978069 26.997745,27.140456 26.997745,27.140456 C 18.528582,18.264221 13.291696,25.230495 11.500037,31.436501 z"
             style="fill:#404040;"/>
          </a>
         </g>
        </svg>
</svg>
