<?xml version="1.0" encoding="UTF-8" standalone="no"?>
<!DOCTYPE svg PUBLIC "-//W3C//DTD SVG 1.1//EN"
 "http://www.w3.org/Graphics/SVG/1.1/DTD/svg11.dtd">
<!-- Generated by graphviz version 2.38.0 (20140413.2041)
 -->
<!-- Title: Framework/src/DatabaseFactory.cxx Pages: 1 -->
<!--zoomable 364 -->
<svg id="main" version="1.1" xmlns="http://www.w3.org/2000/svg" xmlns:xlink="http://www.w3.org/1999/xlink" xml:space="preserve" onload="init(evt)">
<style type="text/css"><![CDATA[
.edge:hover path { stroke: red; }
.edge:hover polygon { stroke: red; fill: red; }
]]></style>
<script type="text/javascript"><![CDATA[
var edges = document.getElementsByTagName('g');
if (edges && edges.length) {
  for (var i=0;i<edges.length;i++) {
    if (edges[i].id.substr(0,4)=='edge') {
      edges[i].setAttribute('class','edge');
    }
  }
}
]]></script>
        <defs>
                <circle id="rim" cx="0" cy="0" r="7"/>
                <circle id="rim2" cx="0" cy="0" r="3.5"/>
                <g id="zoomPlus">
                        <use xlink:href="#rim" fill="#404040">
                                <set attributeName="fill" to="#808080" begin="zoomplus.mouseover" end="zoomplus.mouseout"/>
                        </use>
                        <path d="M-4,0h8M0,-4v8" fill="none" stroke="white" stroke-width="1.5" pointer-events="none"/>
                </g>
                <g id="zoomMin">
                        <use xlink:href="#rim" fill="#404040">
                                <set attributeName="fill" to="#808080" begin="zoomminus.mouseover" end="zoomminus.mouseout"/>
                        </use>
                        <path d="M-4,0h8" fill="none" stroke="white" stroke-width="1.5" pointer-events="none"/>
                </g>
                <g id="dirArrow">
                        <path fill="none" stroke="white" stroke-width="1.5" d="M0,-3.0v7 M-2.5,-0.5L0,-3.0L2.5,-0.5"/>
                </g>
               <g id="resetDef">
                       <use xlink:href="#rim2" fill="#404040">
                               <set attributeName="fill" to="#808080" begin="reset.mouseover" end="reset.mouseout"/>
                       </use>
               </g>
        </defs>

<script type="text/javascript">
var viewWidth = 1248;
var viewHeight = 364;
var sectionId = 'dynsection-0';
</script>
<script xlink:href="svgpan.js"/>
<svg id="graph" class="graph">
<g id="viewport">
<title>Framework/src/DatabaseFactory.cxx</title>
<!-- Node1 -->
<g id="node1" class="node"><title>Node1</title>
<polygon fill="#bfbfbf" stroke="black" points="158.5,-336.5 158.5,-355.5 337.5,-355.5 337.5,-336.5 158.5,-336.5"/>
<text text-anchor="middle" x="248" y="-343.5" font-family="Helvetica,sans-Serif" font-size="10.00">Framework/src/DatabaseFactory.cxx</text>
</g>
<!-- Node2 -->
<g id="node2" class="node"><title>Node2</title>
<g id="a_node2"><a xlink:href="CcdbDatabase_8h.html" target="_top" xlink:title="QualityControl/CcdbDatabase.h">
<polygon fill="none" stroke="black" points="99.5,-224.5 99.5,-243.5 254.5,-243.5 254.5,-224.5 99.5,-224.5"/>
<text text-anchor="middle" x="177" y="-231.5" font-family="Helvetica,sans-Serif" font-size="10.00">QualityControl/CcdbDatabase.h</text>
</a>
</g>
</g>
<!-- Node1&#45;&gt;Node2 -->
<g id="edge1" class="edge"><title>Node1&#45;&gt;Node2</title>
<path fill="none" stroke="midnightblue" d="M242.429,-336.368C230.764,-318.296 203.577,-276.176 188.171,-252.307"/>
<polygon fill="midnightblue" stroke="midnightblue" points="190.909,-250.095 182.545,-243.591 185.028,-253.891 190.909,-250.095"/>
</g>
<!-- Node13 -->
<g id="node13" class="node"><title>Node13</title>
<polygon fill="none" stroke="#bfbfbf" points="0,-56.5 0,-75.5 116,-75.5 116,-56.5 0,-56.5"/>
<text text-anchor="middle" x="58" y="-63.5" font-family="Helvetica,sans-Serif" font-size="10.00">Common/Exceptions.h</text>
</g>
<!-- Node1&#45;&gt;Node13 -->
<g id="edge17" class="edge"><title>Node1&#45;&gt;Node13</title>
<path fill="none" stroke="midnightblue" d="M178.024,-336.491C118.637,-324.899 43,-297.807 43,-235 43,-235 43,-235 43,-177 43,-144.502 49.5069,-107.095 53.9494,-85.343"/>
<polygon fill="midnightblue" stroke="midnightblue" points="57.3852,-86.0128 56.039,-75.5039 50.5379,-84.5586 57.3852,-86.0128"/>
</g>
<!-- Node15 -->
<g id="node15" class="node"><title>Node15</title>
<g id="a_node15"><a xlink:href="DatabaseFactory_8h.html" target="_top" xlink:title="QualityControl/DatabaseFactory.h">
<polygon fill="none" stroke="black" points="272.5,-224.5 272.5,-243.5 437.5,-243.5 437.5,-224.5 272.5,-224.5"/>
<text text-anchor="middle" x="355" y="-231.5" font-family="Helvetica,sans-Serif" font-size="10.00">QualityControl/DatabaseFactory.h</text>
</a>
</g>
</g>
<!-- Node1&#45;&gt;Node15 -->
<g id="edge18" class="edge"><title>Node1&#45;&gt;Node15</title>
<path fill="none" stroke="midnightblue" d="M256.396,-336.368C274.289,-317.974 316.411,-274.671 339.386,-251.052"/>
<polygon fill="midnightblue" stroke="midnightblue" points="342.179,-253.2 346.643,-243.591 337.161,-248.319 342.179,-253.2"/>
</g>
<!-- Node16 -->
<g id="node16" class="node"><title>Node16</title>
<g id="a_node16"><a xlink:href="QcInfoLogger_8h.html" target="_top" xlink:title="QualityControl/QcInfoLogger.h">
<polygon fill="none" stroke="black" points="475.5,-280.5 475.5,-299.5 624.5,-299.5 624.5,-280.5 475.5,-280.5"/>
<text text-anchor="middle" x="550" y="-287.5" font-family="Helvetica,sans-Serif" font-size="10.00">QualityControl/QcInfoLogger.h</text>
</a>
</g>
</g>
<!-- Node1&#45;&gt;Node16 -->
<g id="edge21" class="edge"><title>Node1&#45;&gt;Node16</title>
<path fill="none" stroke="midnightblue" d="M295.853,-336.444C349.199,-326.905 435.445,-311.483 492.436,-301.293"/>
<polygon fill="midnightblue" stroke="midnightblue" points="493.143,-304.722 502.371,-299.516 491.911,-297.831 493.143,-304.722"/>
</g>
<!-- Node3 -->
<g id="node3" class="node"><title>Node3</title>
<polygon fill="none" stroke="#bfbfbf" points="71.5,-168.5 71.5,-187.5 166.5,-187.5 166.5,-168.5 71.5,-168.5"/>
<text text-anchor="middle" x="119" y="-175.5" font-family="Helvetica,sans-Serif" font-size="10.00">CCDB/CcdbApi.h</text>
</g>
<!-- Node2&#45;&gt;Node3 -->
<g id="edge2" class="edge"><title>Node2&#45;&gt;Node3</title>
<path fill="none" stroke="midnightblue" d="M167.681,-224.324C159.107,-216.341 146.188,-204.313 135.812,-194.653"/>
<polygon fill="midnightblue" stroke="midnightblue" points="138.192,-192.086 128.488,-187.834 133.422,-197.21 138.192,-192.086"/>
</g>
<!-- Node4 -->
<g id="node4" class="node"><title>Node4</title>
<g id="a_node4"><a xlink:href="DatabaseInterface_8h.html" target="_top" xlink:title="QualityControl/DatabaseInterface.h">
<polygon fill="none" stroke="black" points="185,-168.5 185,-187.5 355,-187.5 355,-168.5 185,-168.5"/>
<text text-anchor="middle" x="270" y="-175.5" font-family="Helvetica,sans-Serif" font-size="10.00">QualityControl/DatabaseInterface.h</text>
</a>
</g>
</g>
<!-- Node2&#45;&gt;Node4 -->
<g id="edge3" class="edge"><title>Node2&#45;&gt;Node4</title>
<path fill="none" stroke="midnightblue" d="M191.942,-224.324C206.585,-215.822 229.134,-202.729 246.238,-192.797"/>
<polygon fill="midnightblue" stroke="midnightblue" points="248.205,-195.703 255.095,-187.655 244.69,-189.649 248.205,-195.703"/>
</g>
<!-- Node5 -->
<g id="node5" class="node"><title>Node5</title>
<polygon fill="none" stroke="#bfbfbf" points="469.5,-0.5 469.5,-19.5 510.5,-19.5 510.5,-0.5 469.5,-0.5"/>
<text text-anchor="middle" x="490" y="-7.5" font-family="Helvetica,sans-Serif" font-size="10.00">string</text>
</g>
<!-- Node4&#45;&gt;Node5 -->
<g id="edge4" class="edge"><title>Node4&#45;&gt;Node5</title>
<path fill="none" stroke="midnightblue" d="M235.882,-168.46C203.92,-158.573 163.128,-139.974 178,-112 198.889,-72.7075 219.906,-73.0742 261,-56 328.373,-28.0071 414.264,-17.13 459.291,-13.1403"/>
<polygon fill="midnightblue" stroke="midnightblue" points="459.626,-16.6246 469.301,-12.3082 459.046,-9.64863 459.626,-16.6246"/>
</g>
<!-- Node6 -->
<g id="node6" class="node"><title>Node6</title>
<polygon fill="none" stroke="#bfbfbf" points="395,-112.5 395,-131.5 447,-131.5 447,-112.5 395,-112.5"/>
<text text-anchor="middle" x="421" y="-119.5" font-family="Helvetica,sans-Serif" font-size="10.00">memory</text>
</g>
<!-- Node4&#45;&gt;Node6 -->
<g id="edge5" class="edge"><title>Node4&#45;&gt;Node6</title>
<path fill="none" stroke="midnightblue" d="M293.926,-168.444C319.219,-159.399 359.302,-145.064 387.68,-134.916"/>
<polygon fill="midnightblue" stroke="midnightblue" points="388.948,-138.179 397.186,-131.516 386.591,-131.588 388.948,-138.179"/>
</g>
<!-- Node7 -->
<g id="node7" class="node"><title>Node7</title>
<polygon fill="none" stroke="#bfbfbf" points="87,-112.5 87,-131.5 131,-131.5 131,-112.5 87,-112.5"/>
<text text-anchor="middle" x="109" y="-119.5" font-family="Helvetica,sans-Serif" font-size="10.00">vector</text>
</g>
<!-- Node4&#45;&gt;Node7 -->
<g id="edge6" class="edge"><title>Node4&#45;&gt;Node7</title>
<path fill="none" stroke="midnightblue" d="M244.489,-168.444C216.448,-159.038 171.355,-143.914 140.974,-133.724"/>
<polygon fill="midnightblue" stroke="midnightblue" points="141.875,-130.335 131.281,-130.473 139.649,-136.971 141.875,-130.335"/>
</g>
<!-- Node8 -->
<g id="node8" class="node"><title>Node8</title>
<polygon fill="none" stroke="#bfbfbf" points="593.5,-56.5 593.5,-75.5 676.5,-75.5 676.5,-56.5 593.5,-56.5"/>
<text text-anchor="middle" x="635" y="-63.5" font-family="Helvetica,sans-Serif" font-size="10.00">unordered_map</text>
</g>
<!-- Node4&#45;&gt;Node8 -->
<g id="edge7" class="edge"><title>Node4&#45;&gt;Node8</title>
<path fill="none" stroke="midnightblue" d="M284.816,-168.335C313.647,-151.527 375.408,-115.804 386,-112 421.492,-99.2541 521.378,-83.3638 583.318,-74.28"/>
<polygon fill="midnightblue" stroke="midnightblue" points="583.901,-77.7321 593.293,-72.8279 582.893,-70.8051 583.901,-77.7321"/>
</g>
<!-- Node9 -->
<g id="node9" class="node"><title>Node9</title>
<g id="a_node9"><a xlink:href="MonitorObject_8h.html" target="_top" xlink:title="QualityControl/MonitorObject.h">
<polygon fill="none" stroke="black" points="187.5,-112.5 187.5,-131.5 338.5,-131.5 338.5,-112.5 187.5,-112.5"/>
<text text-anchor="middle" x="263" y="-119.5" font-family="Helvetica,sans-Serif" font-size="10.00">QualityControl/MonitorObject.h</text>
</a>
</g>
</g>
<!-- Node4&#45;&gt;Node9 -->
<g id="edge8" class="edge"><title>Node4&#45;&gt;Node9</title>
<path fill="none" stroke="midnightblue" d="M268.844,-168.083C267.916,-160.927 266.582,-150.635 265.423,-141.691"/>
<polygon fill="midnightblue" stroke="midnightblue" points="268.891,-141.218 264.134,-131.751 261.949,-142.118 268.891,-141.218"/>
</g>
<!-- Node9&#45;&gt;Node5 -->
<g id="edge9" class="edge"><title>Node9&#45;&gt;Node5</title>
<path fill="none" stroke="midnightblue" d="M262.006,-112.49C260.901,-98.6312 260.939,-71.2103 276,-56 301.303,-30.4457 406.353,-18.0693 459.262,-13.3614"/>
<polygon fill="midnightblue" stroke="midnightblue" points="459.745,-16.8329 469.411,-12.4957 459.15,-9.85826 459.745,-16.8329"/>
</g>
<!-- Node10 -->
<g id="node10" class="node"><title>Node10</title>
<polygon fill="none" stroke="#bfbfbf" points="501.5,-56.5 501.5,-75.5 536.5,-75.5 536.5,-56.5 501.5,-56.5"/>
<text text-anchor="middle" x="519" y="-63.5" font-family="Helvetica,sans-Serif" font-size="10.00">map</text>
</g>
<!-- Node9&#45;&gt;Node10 -->
<g id="edge10" class="edge"><title>Node9&#45;&gt;Node10</title>
<path fill="none" stroke="midnightblue" d="M316.652,-112.453C361.062,-104.928 425.932,-92.902 491.309,-75.8919"/>
<polygon fill="midnightblue" stroke="midnightblue" points="492.604,-79.17 501.379,-73.2328 490.816,-72.402 492.604,-79.17"/>
</g>
<!-- Node11 -->
<g id="node11" class="node"><title>Node11</title>
<polygon fill="none" stroke="#bfbfbf" points="327,-0.5 327,-19.5 383,-19.5 383,-0.5 327,-0.5"/>
<text text-anchor="middle" x="355" y="-7.5" font-family="Helvetica,sans-Serif" font-size="10.00">Rtypes.h</text>
</g>
<!-- Node9&#45;&gt;Node11 -->
<g id="edge11" class="edge"><title>Node9&#45;&gt;Node11</title>
<path fill="none" stroke="midnightblue" d="M255.936,-112.309C246.152,-99.1455 230.967,-73.8031 243,-56 259.399,-31.7382 291.269,-20.5551 316.832,-15.4016"/>
<polygon fill="midnightblue" stroke="midnightblue" points="317.75,-18.7934 326.982,-13.5964 316.524,-11.9016 317.75,-18.7934"/>
</g>
<!-- Node12 -->
<g id="node12" class="node"><title>Node12</title>
<polygon fill="none" stroke="#bfbfbf" points="285.5,-56.5 285.5,-75.5 344.5,-75.5 344.5,-56.5 285.5,-56.5"/>
<text text-anchor="middle" x="315" y="-63.5" font-family="Helvetica,sans-Serif" font-size="10.00">TObject.h</text>
</g>
<!-- Node9&#45;&gt;Node12 -->
<g id="edge12" class="edge"><title>Node9&#45;&gt;Node12</title>
<path fill="none" stroke="midnightblue" d="M271.587,-112.083C279.159,-104.22 290.378,-92.5688 299.514,-83.0813"/>
<polygon fill="midnightblue" stroke="midnightblue" points="302.158,-85.3821 306.573,-75.7511 297.115,-80.5266 302.158,-85.3821"/>
</g>
<!-- Node9&#45;&gt;Node13 -->
<g id="edge13" class="edge"><title>Node9&#45;&gt;Node13</title>
<path fill="none" stroke="midnightblue" d="M230.517,-112.444C195.28,-103.162 138.896,-88.3093 100.241,-78.127"/>
<polygon fill="midnightblue" stroke="midnightblue" points="100.893,-74.6792 90.3309,-75.5164 99.1095,-81.4483 100.893,-74.6792"/>
</g>
<!-- Node14 -->
<g id="node14" class="node"><title>Node14</title>
<g id="a_node14"><a xlink:href="Quality_8h.html" target="_top" xlink:title="QualityControl/Quality.h">
<polygon fill="none" stroke="black" points="362.5,-56.5 362.5,-75.5 483.5,-75.5 483.5,-56.5 362.5,-56.5"/>
<text text-anchor="middle" x="423" y="-63.5" font-family="Helvetica,sans-Serif" font-size="10.00">QualityControl/Quality.h</text>
</a>
</g>
</g>
<!-- Node9&#45;&gt;Node14 -->
<g id="edge14" class="edge"><title>Node9&#45;&gt;Node14</title>
<path fill="none" stroke="midnightblue" d="M288.352,-112.444C315.269,-103.359 357.996,-88.9388 388.087,-78.7831"/>
<polygon fill="midnightblue" stroke="midnightblue" points="389.41,-82.0305 397.766,-75.5164 387.172,-75.3981 389.41,-82.0305"/>
</g>
<!-- Node14&#45;&gt;Node5 -->
<g id="edge16" class="edge"><title>Node14&#45;&gt;Node5</title>
<path fill="none" stroke="midnightblue" d="M433.765,-56.324C443.766,-48.2631 458.887,-36.0765 470.93,-26.3695"/>
<polygon fill="midnightblue" stroke="midnightblue" points="473.45,-28.8343 479.039,-19.8339 469.057,-23.3841 473.45,-28.8343"/>
</g>
<!-- Node14&#45;&gt;Node11 -->
<g id="edge15" class="edge"><title>Node14&#45;&gt;Node11</title>
<path fill="none" stroke="midnightblue" d="M412.075,-56.324C401.825,-48.1849 386.279,-35.8395 373.999,-26.0874"/>
<polygon fill="midnightblue" stroke="midnightblue" points="376.132,-23.3119 366.124,-19.8339 371.779,-28.7937 376.132,-23.3119"/>
</g>
<!-- Node15&#45;&gt;Node4 -->
<g id="edge20" class="edge"><title>Node15&#45;&gt;Node4</title>
<path fill="none" stroke="midnightblue" d="M341.343,-224.324C328.084,-215.9 307.732,-202.971 292.154,-193.074"/>
<polygon fill="midnightblue" stroke="midnightblue" points="293.94,-190.063 283.623,-187.655 290.187,-195.971 293.94,-190.063"/>
</g>
<!-- Node15&#45;&gt;Node6 -->
<g id="edge19" class="edge"><title>Node15&#45;&gt;Node6</title>
<path fill="none" stroke="midnightblue" d="M360.179,-224.368C371.023,-206.296 396.294,-164.176 410.616,-140.307"/>
<polygon fill="midnightblue" stroke="midnightblue" points="413.701,-141.967 415.845,-131.591 407.699,-138.366 413.701,-141.967"/>
</g>
<!-- Node17 -->
<g id="node17" class="node"><title>Node17</title>
<polygon fill="none" stroke="#bfbfbf" points="485,-224.5 485,-243.5 615,-243.5 615,-224.5 485,-224.5"/>
<text text-anchor="middle" x="550" y="-231.5" font-family="Helvetica,sans-Serif" font-size="10.00">InfoLogger/InfoLogger.hxx</text>
</g>
<!-- Node16&#45;&gt;Node17 -->
<g id="edge22" class="edge"><title>Node16&#45;&gt;Node17</title>
<path fill="none" stroke="midnightblue" d="M550,-280.083C550,-273.006 550,-262.861 550,-253.986"/>
<polygon fill="midnightblue" stroke="midnightblue" points="553.5,-253.751 550,-243.751 546.5,-253.751 553.5,-253.751"/>
</g>
<!-- Node18 -->
<g id="node18" class="node"><title>Node18</title>
<g id="a_node18"><a xlink:href="TaskInterface_8h.html" target="_top" xlink:title="QualityControl/TaskInterface.h">
<polygon fill="none" stroke="black" points="634,-224.5 634,-243.5 784,-243.5 784,-224.5 634,-224.5"/>
<text text-anchor="middle" x="709" y="-231.5" font-family="Helvetica,sans-Serif" font-size="10.00">QualityControl/TaskInterface.h</text>
</a>
</g>
</g>
<!-- Node16&#45;&gt;Node18 -->
<g id="edge23" class="edge"><title>Node16&#45;&gt;Node18</title>
<path fill="none" stroke="midnightblue" d="M575.194,-280.444C601.943,-271.359 644.403,-256.939 674.305,-246.783"/>
<polygon fill="midnightblue" stroke="midnightblue" points="675.581,-250.046 683.924,-243.516 673.329,-243.418 675.581,-250.046"/>
</g>
<!-- Node18&#45;&gt;Node5 -->
<g id="edge26" class="edge"><title>Node18&#45;&gt;Node5</title>
<path fill="none" stroke="midnightblue" d="M712.379,-224.114C722.694,-195.302 750.406,-103.591 705,-56 680.064,-29.8642 574.291,-17.7669 520.981,-13.2435"/>
<polygon fill="midnightblue" stroke="midnightblue" points="521.003,-9.7339 510.753,-12.4143 520.437,-16.711 521.003,-9.7339"/>
</g>
<!-- Node18&#45;&gt;Node6 -->
<g id="edge25" class="edge"><title>Node18&#45;&gt;Node6</title>
<path fill="none" stroke="midnightblue" d="M633.661,-224.529C559.217,-215.506 454.407,-200.791 440,-188 426.969,-176.43 422.658,-156.469 421.338,-141.711"/>
<polygon fill="midnightblue" stroke="midnightblue" points="424.831,-141.47 420.817,-131.665 417.84,-141.833 424.831,-141.47"/>
</g>
<!-- Node18&#45;&gt;Node8 -->
<g id="edge27" class="edge"><title>Node18&#45;&gt;Node8</title>
<path fill="none" stroke="midnightblue" d="M709.654,-224.404C710.835,-203.592 711.464,-149.452 690,-112 682.788,-99.4151 670.599,-88.8984 659.527,-81.2045"/>
<polygon fill="midnightblue" stroke="midnightblue" points="661.293,-78.1776 651.003,-75.6537 657.473,-84.0435 661.293,-78.1776"/>
</g>
<!-- Node18&#45;&gt;Node10 -->
<g id="edge24" class="edge"><title>Node18&#45;&gt;Node10</title>
<path fill="none" stroke="midnightblue" d="M698.733,-224.35C682.557,-211.016 649.802,-185.185 619,-168 582.457,-147.611 558.57,-164.329 532,-132 521.391,-119.092 518.634,-99.9179 518.235,-85.7374"/>
<polygon fill="midnightblue" stroke="midnightblue" points="521.736,-85.6782 518.316,-75.6506 514.736,-85.6222 521.736,-85.6782"/>
</g>
<!-- Node19 -->
<g id="node19" class="node"><title>Node19</title>
<polygon fill="none" stroke="#bfbfbf" points="794.5,-168.5 794.5,-187.5 919.5,-187.5 919.5,-168.5 794.5,-168.5"/>
<text text-anchor="middle" x="857" y="-175.5" font-family="Helvetica,sans-Serif" font-size="10.00">Framework/InitContext.h</text>
</g>
<!-- Node18&#45;&gt;Node19 -->
<g id="edge28" class="edge"><title>Node18&#45;&gt;Node19</title>
<path fill="none" stroke="midnightblue" d="M732.451,-224.444C757.133,-215.438 796.185,-201.189 823.977,-191.049"/>
<polygon fill="midnightblue" stroke="midnightblue" points="825.464,-194.232 833.659,-187.516 823.065,-187.656 825.464,-194.232"/>
</g>
<!-- Node20 -->
<g id="node20" class="node"><title>Node20</title>
<polygon fill="none" stroke="#bfbfbf" points="938,-168.5 938,-187.5 1098,-187.5 1098,-168.5 938,-168.5"/>
<text text-anchor="middle" x="1018" y="-175.5" font-family="Helvetica,sans-Serif" font-size="10.00">Framework/ProcessingContext.h</text>
</g>
<!-- Node18&#45;&gt;Node20 -->
<g id="edge29" class="edge"><title>Node18&#45;&gt;Node20</title>
<path fill="none" stroke="midnightblue" d="M757.962,-224.444C812.544,-214.905 900.79,-199.483 959.101,-189.293"/>
<polygon fill="midnightblue" stroke="midnightblue" points="960.019,-192.686 969.267,-187.516 958.814,-185.79 960.019,-192.686"/>
</g>
<!-- Node21 -->
<g id="node21" class="node"><title>Node21</title>
<g id="a_node21"><a xlink:href="Activity_8h.html" target="_top" xlink:title="QualityControl/Activity.h">
<polygon fill="none" stroke="black" points="1116.5,-168.5 1116.5,-187.5 1239.5,-187.5 1239.5,-168.5 1116.5,-168.5"/>
<text text-anchor="middle" x="1178" y="-175.5" font-family="Helvetica,sans-Serif" font-size="10.00">QualityControl/Activity.h</text>
</a>
</g>
</g>
<!-- Node18&#45;&gt;Node21 -->
<g id="edge30" class="edge"><title>Node18&#45;&gt;Node21</title>
<path fill="none" stroke="midnightblue" d="M784.225,-224.801C862.091,-216.244 987.542,-202.264 1106.42,-188.055"/>
<polygon fill="midnightblue" stroke="midnightblue" points="1106.92,-191.52 1116.43,-186.856 1106.09,-184.57 1106.92,-191.52"/>
</g>
<!-- Node22 -->
<g id="node22" class="node"><title>Node22</title>
<g id="a_node22"><a xlink:href="ObjectsManager_8h.html" target="_top" xlink:title="QualityControl/ObjectsManager.h">
<polygon fill="none" stroke="black" points="449.5,-168.5 449.5,-187.5 610.5,-187.5 610.5,-168.5 449.5,-168.5"/>
<text text-anchor="middle" x="530" y="-175.5" font-family="Helvetica,sans-Serif" font-size="10.00">QualityControl/ObjectsManager.h</text>
</a>
</g>
</g>
<!-- Node18&#45;&gt;Node22 -->
<g id="edge31" class="edge"><title>Node18&#45;&gt;Node22</title>
<path fill="none" stroke="midnightblue" d="M680.637,-224.444C650.262,-215.28 601.89,-200.688 568.184,-190.519"/>
<polygon fill="midnightblue" stroke="midnightblue" points="568.815,-187.054 558.23,-187.516 566.793,-193.756 568.815,-187.054"/>
</g>
<!-- Node22&#45;&gt;Node5 -->
<g id="edge37" class="edge"><title>Node22&#45;&gt;Node5</title>
<path fill="none" stroke="midnightblue" d="M586.611,-168.438C627.372,-160.982 677.324,-148.733 690,-132 700.125,-118.635 706.004,-80.1171 685,-56 663.741,-31.5909 570.126,-18.8748 520.745,-13.7612"/>
<polygon fill="midnightblue" stroke="midnightblue" points="520.932,-10.2627 510.635,-12.7567 520.24,-17.2284 520.932,-10.2627"/>
</g>
<!-- Node22&#45;&gt;Node6 -->
<g id="edge38" class="edge"><title>Node22&#45;&gt;Node6</title>
<path fill="none" stroke="midnightblue" d="M512.487,-168.324C494.928,-159.625 467.669,-146.12 447.469,-136.113"/>
<polygon fill="midnightblue" stroke="midnightblue" points="448.984,-132.958 438.469,-131.655 445.876,-139.23 448.984,-132.958"/>
</g>
<!-- Node22&#45;&gt;Node9 -->
<g id="edge32" class="edge"><title>Node22&#45;&gt;Node9</title>
<path fill="none" stroke="midnightblue" d="M487.693,-168.444C440.92,-158.984 365.54,-143.738 315.15,-133.547"/>
<polygon fill="midnightblue" stroke="midnightblue" points="315.604,-130.068 305.109,-131.516 314.217,-136.929 315.604,-130.068"/>
</g>
<!-- Node22&#45;&gt;Node14 -->
<g id="edge33" class="edge"><title>Node22&#45;&gt;Node14</title>
<path fill="none" stroke="midnightblue" d="M521.604,-168.368C503.711,-149.974 461.589,-106.671 438.614,-83.0519"/>
<polygon fill="midnightblue" stroke="midnightblue" points="440.839,-80.3192 431.357,-75.5914 435.821,-85.2 440.839,-80.3192"/>
</g>
<!-- Node23 -->
<g id="node23" class="node"><title>Node23</title>
<g id="a_node23"><a xlink:href="TaskConfig_8h.html" target="_top" xlink:title="QualityControl/TaskConfig.h">
<polygon fill="none" stroke="black" points="541,-112.5 541,-131.5 681,-131.5 681,-112.5 541,-112.5"/>
<text text-anchor="middle" x="611" y="-119.5" font-family="Helvetica,sans-Serif" font-size="10.00">QualityControl/TaskConfig.h</text>
</a>
</g>
</g>
<!-- Node22&#45;&gt;Node23 -->
<g id="edge34" class="edge"><title>Node22&#45;&gt;Node23</title>
<path fill="none" stroke="midnightblue" d="M543.014,-168.324C555.532,-159.979 574.682,-147.212 589.471,-137.352"/>
<polygon fill="midnightblue" stroke="midnightblue" points="591.639,-140.114 598.018,-131.655 587.756,-134.289 591.639,-140.114"/>
</g>
<!-- Node23&#45;&gt;Node5 -->
<g id="edge35" class="edge"><title>Node23&#45;&gt;Node5</title>
<path fill="none" stroke="midnightblue" d="M602.698,-112.329C590.417,-99.6195 566.538,-75.3422 545,-56 533.411,-45.5926 519.876,-34.5058 509.133,-25.941"/>
<polygon fill="midnightblue" stroke="midnightblue" points="511.222,-23.1304 501.206,-19.6739 506.88,-28.6215 511.222,-23.1304"/>
</g>
<!-- Node23&#45;&gt;Node8 -->
<g id="edge36" class="edge"><title>Node23&#45;&gt;Node8</title>
<path fill="none" stroke="midnightblue" d="M614.963,-112.083C618.213,-104.77 622.919,-94.1814 626.954,-85.1034"/>
<polygon fill="midnightblue" stroke="midnightblue" points="630.248,-86.3107 631.111,-75.7511 623.851,-83.4677 630.248,-86.3107"/>
</g>
</g>
</svg>
        <g id="navigator" transform="translate(0 0)" fill="#404254">
                <rect fill="#f2f5e9" fill-opacity="0.5" stroke="#606060" stroke-width=".5" x="0" y="0" width="60" height="60"/>
                <use id="zoomplus" xlink:href="#zoomPlus" x="17" y="9" onmousedown="handleZoom(evt,'in')"/>
                <use id="zoomminus" xlink:href="#zoomMin" x="42" y="9" onmousedown="handleZoom(evt,'out')"/>
                <use id="reset" xlink:href="#resetDef" x="30" y="36" onmousedown="handleReset()"/>
                <g id="arrowUp" xlink:href="#dirArrow" transform="translate(30 24)" onmousedown="handlePan(0,-1)">
                  <use xlink:href="#rim" fill="#404040">
                        <set attributeName="fill" to="#808080" begin="arrowUp.mouseover" end="arrowUp.mouseout"/>
                  </use>
                  <path fill="none" stroke="white" stroke-width="1.5" d="M0,-3.0v7 M-2.5,-0.5L0,-3.0L2.5,-0.5"/>
                </g>
                <g id="arrowRight" xlink:href="#dirArrow" transform="rotate(90) translate(36 -43)" onmousedown="handlePan(1,0)">
                  <use xlink:href="#rim" fill="#404040">
                        <set attributeName="fill" to="#808080" begin="arrowRight.mouseover" end="arrowRight.mouseout"/>
                  </use>
                  <path fill="none" stroke="white" stroke-width="1.5" d="M0,-3.0v7 M-2.5,-0.5L0,-3.0L2.5,-0.5"/>
                </g>
                <g id="arrowDown" xlink:href="#dirArrow" transform="rotate(180) translate(-30 -48)" onmousedown="handlePan(0,1)">
                  <use xlink:href="#rim" fill="#404040">
                        <set attributeName="fill" to="#808080" begin="arrowDown.mouseover" end="arrowDown.mouseout"/>
                  </use>
                  <path fill="none" stroke="white" stroke-width="1.5" d="M0,-3.0v7 M-2.5,-0.5L0,-3.0L2.5,-0.5"/>
                </g>
                <g id="arrowLeft" xlink:href="#dirArrow" transform="rotate(270) translate(-36 17)" onmousedown="handlePan(-1,0)">
                  <use xlink:href="#rim" fill="#404040">
                        <set attributeName="fill" to="#808080" begin="arrowLeft.mouseover" end="arrowLeft.mouseout"/>
                  </use>
                  <path fill="none" stroke="white" stroke-width="1.5" d="M0,-3.0v7 M-2.5,-0.5L0,-3.0L2.5,-0.5"/>
                </g>
        </g>
        <svg viewBox="0 0 15 15" width="100%" height="30px" preserveAspectRatio="xMaxYMin meet">
         <g id="arrow_out" transform="scale(0.3 0.3)">
          <a xlink:href="DatabaseFactory_8cxx__incl_org.svg" target="_base">
           <rect id="button" ry="5" rx="5" y="6" x="6" height="38" width="38"
                fill="#f2f5e9" fill-opacity="0.5" stroke="#606060" stroke-width="1.0"/>
           <path id="arrow"
             d="M 11.500037,31.436501 C 11.940474,20.09759 22.043105,11.32322 32.158766,21.979434 L 37.068811,17.246167 C 37.068811,17.246167 37.088388,32 37.088388,32 L 22.160133,31.978069 C 22.160133,31.978069 26.997745,27.140456 26.997745,27.140456 C 18.528582,18.264221 13.291696,25.230495 11.500037,31.436501 z"
             style="fill:#404040;"/>
          </a>
         </g>
        </svg>
</svg>
