<?xml version="1.0" encoding="UTF-8" standalone="no"?>
<!DOCTYPE svg PUBLIC "-//W3C//DTD SVG 1.1//EN"
 "http://www.w3.org/Graphics/SVG/1.1/DTD/svg11.dtd">
<!-- Generated by graphviz version 2.38.0 (20140413.2041)
 -->
<!-- Title: Framework/include/QualityControl/DatabaseInterface.h Pages: 1 -->
<!--zoomable 173 -->
<svg id="main" version="1.1" xmlns="http://www.w3.org/2000/svg" xmlns:xlink="http://www.w3.org/1999/xlink" xml:space="preserve" onload="init(evt)">
<style type="text/css"><![CDATA[
.edge:hover path { stroke: red; }
.edge:hover polygon { stroke: red; fill: red; }
]]></style>
<script type="text/javascript"><![CDATA[
var edges = document.getElementsByTagName('g');
if (edges && edges.length) {
  for (var i=0;i<edges.length;i++) {
    if (edges[i].id.substr(0,4)=='edge') {
      edges[i].setAttribute('class','edge');
    }
  }
}
]]></script>
        <defs>
                <circle id="rim" cx="0" cy="0" r="7"/>
                <circle id="rim2" cx="0" cy="0" r="3.5"/>
                <g id="zoomPlus">
                        <use xlink:href="#rim" fill="#404040">
                                <set attributeName="fill" to="#808080" begin="zoomplus.mouseover" end="zoomplus.mouseout"/>
                        </use>
                        <path d="M-4,0h8M0,-4v8" fill="none" stroke="white" stroke-width="1.5" pointer-events="none"/>
                </g>
                <g id="zoomMin">
                        <use xlink:href="#rim" fill="#404040">
                                <set attributeName="fill" to="#808080" begin="zoomminus.mouseover" end="zoomminus.mouseout"/>
                        </use>
                        <path d="M-4,0h8" fill="none" stroke="white" stroke-width="1.5" pointer-events="none"/>
                </g>
                <g id="dirArrow">
                        <path fill="none" stroke="white" stroke-width="1.5" d="M0,-3.0v7 M-2.5,-0.5L0,-3.0L2.5,-0.5"/>
                </g>
               <g id="resetDef">
                       <use xlink:href="#rim2" fill="#404040">
                               <set attributeName="fill" to="#808080" begin="reset.mouseover" end="reset.mouseout"/>
                       </use>
               </g>
        </defs>

<script type="text/javascript">
var viewWidth = 2733;
var viewHeight = 173;
var sectionId = 'dynsection-1';
</script>
<script xlink:href="svgpan.js"/>
<svg id="graph" class="graph">
<g id="viewport">
<title>Framework/include/QualityControl/DatabaseInterface.h</title>
<!-- Node1 -->
<g id="node1" class="node"><title>Node1</title>
<polygon fill="#bfbfbf" stroke="black" points="1522.5,-134.5 1522.5,-164.5 1662.5,-164.5 1662.5,-134.5 1522.5,-134.5"/>
<text text-anchor="start" x="1530.5" y="-152.5" font-family="Helvetica,sans-Serif" font-size="10.00">Framework/include/Quality</text>
<text text-anchor="middle" x="1592.5" y="-141.5" font-family="Helvetica,sans-Serif" font-size="10.00">Control/DatabaseInterface.h</text>
</g>
<!-- Node2 -->
<g id="node2" class="node"><title>Node2</title>
<g id="a_node2"><a xlink:href="CcdbDatabase_8h.html" target="_top" xlink:title="Framework/include/Quality\lControl/CcdbDatabase.h">
<polygon fill="none" stroke="black" points="498,-67.5 498,-97.5 631,-97.5 631,-67.5 498,-67.5"/>
<text text-anchor="start" x="506" y="-85.5" font-family="Helvetica,sans-Serif" font-size="10.00">Framework/include/Quality</text>
<text text-anchor="middle" x="564.5" y="-74.5" font-family="Helvetica,sans-Serif" font-size="10.00">Control/CcdbDatabase.h</text>
</a>
</g>
</g>
<!-- Node1&#45;&gt;Node2 -->
<g id="edge1" class="edge"><title>Node1&#45;&gt;Node2</title>
<path fill="none" stroke="midnightblue" d="M1512.28,-143.545C1367.36,-134.576 1052.26,-115.005 786.5,-98 734.272,-94.6582 675.137,-90.7917 631.04,-87.8923"/>
<polygon fill="midnightblue" stroke="midnightblue" points="1512.22,-147.047 1522.42,-144.172 1512.65,-140.061 1512.22,-147.047"/>
</g>
<!-- Node8 -->
<g id="node8" class="node"><title>Node8</title>
<g id="a_node8"><a xlink:href="Checker_8h.html" target="_top" xlink:title="Framework/include/Quality\lControl/Checker.h">
<polygon fill="none" stroke="black" points="1526,-67.5 1526,-97.5 1659,-97.5 1659,-67.5 1526,-67.5"/>
<text text-anchor="start" x="1534" y="-85.5" font-family="Helvetica,sans-Serif" font-size="10.00">Framework/include/Quality</text>
<text text-anchor="middle" x="1592.5" y="-74.5" font-family="Helvetica,sans-Serif" font-size="10.00">Control/Checker.h</text>
</a>
</g>
</g>
<!-- Node1&#45;&gt;Node8 -->
<g id="edge7" class="edge"><title>Node1&#45;&gt;Node8</title>
<path fill="none" stroke="midnightblue" d="M1592.5,-124.108C1592.5,-115.154 1592.5,-105.323 1592.5,-97.5765"/>
<polygon fill="midnightblue" stroke="midnightblue" points="1589,-124.396 1592.5,-134.396 1596,-124.396 1589,-124.396"/>
</g>
<!-- Node16 -->
<g id="node16" class="node"><title>Node16</title>
<g id="a_node16"><a xlink:href="DatabaseFactory_8h.html" target="_top" xlink:title="Framework/include/Quality\lControl/DatabaseFactory.h">
<polygon fill="none" stroke="black" points="795.5,-67.5 795.5,-97.5 929.5,-97.5 929.5,-67.5 795.5,-67.5"/>
<text text-anchor="start" x="803.5" y="-85.5" font-family="Helvetica,sans-Serif" font-size="10.00">Framework/include/Quality</text>
<text text-anchor="middle" x="862.5" y="-74.5" font-family="Helvetica,sans-Serif" font-size="10.00">Control/DatabaseFactory.h</text>
</a>
</g>
</g>
<!-- Node1&#45;&gt;Node16 -->
<g id="edge15" class="edge"><title>Node1&#45;&gt;Node16</title>
<path fill="none" stroke="midnightblue" d="M1512,-141.333C1366.93,-128.415 1064.2,-101.46 929.556,-89.4708"/>
<polygon fill="midnightblue" stroke="midnightblue" points="1511.9,-144.837 1522.17,-142.238 1512.52,-137.865 1511.9,-144.837"/>
</g>
<!-- Node18 -->
<g id="node18" class="node"><title>Node18</title>
<g id="a_node18"><a xlink:href="MySqlDatabase_8h.html" target="_top" xlink:title="Framework/include/Quality\lControl/MySqlDatabase.h">
<polygon fill="none" stroke="black" points="2304,-67.5 2304,-97.5 2437,-97.5 2437,-67.5 2304,-67.5"/>
<text text-anchor="start" x="2312" y="-85.5" font-family="Helvetica,sans-Serif" font-size="10.00">Framework/include/Quality</text>
<text text-anchor="middle" x="2370.5" y="-74.5" font-family="Helvetica,sans-Serif" font-size="10.00">Control/MySqlDatabase.h</text>
</a>
</g>
</g>
<!-- Node1&#45;&gt;Node18 -->
<g id="edge22" class="edge"><title>Node1&#45;&gt;Node18</title>
<path fill="none" stroke="midnightblue" d="M1672.9,-141.783C1826.96,-128.911 2161.12,-100.993 2303.78,-89.0747"/>
<polygon fill="midnightblue" stroke="midnightblue" points="1672.24,-138.325 1662.57,-142.646 1672.83,-145.301 1672.24,-138.325"/>
</g>
<!-- Node20 -->
<g id="node20" class="node"><title>Node20</title>
<g id="a_node20"><a xlink:href="RepositoryBenchmark_8h.html" target="_top" xlink:title="Framework/src/Repository\lBenchmark.h">
<polygon fill="none" stroke="black" points="1885.5,-67.5 1885.5,-97.5 2017.5,-97.5 2017.5,-67.5 1885.5,-67.5"/>
<text text-anchor="start" x="1893.5" y="-85.5" font-family="Helvetica,sans-Serif" font-size="10.00">Framework/src/Repository</text>
<text text-anchor="middle" x="1951.5" y="-74.5" font-family="Helvetica,sans-Serif" font-size="10.00">Benchmark.h</text>
</a>
</g>
</g>
<!-- Node1&#45;&gt;Node20 -->
<g id="edge24" class="edge"><title>Node1&#45;&gt;Node20</title>
<path fill="none" stroke="midnightblue" d="M1672.62,-133.993C1736.61,-122.407 1825.21,-106.366 1885.24,-95.4966"/>
<polygon fill="midnightblue" stroke="midnightblue" points="1671.79,-130.587 1662.57,-135.813 1673.03,-137.475 1671.79,-130.587"/>
</g>
<!-- Node3 -->
<g id="node3" class="node"><title>Node3</title>
<g id="a_node3"><a xlink:href="CcdbDatabase_8cxx.html" target="_top" xlink:title="Framework/src/CcdbDatabase.cxx">
<polygon fill="none" stroke="black" points="0,-6 0,-25 169,-25 169,-6 0,-6"/>
<text text-anchor="middle" x="84.5" y="-13" font-family="Helvetica,sans-Serif" font-size="10.00">Framework/src/CcdbDatabase.cxx</text>
</a>
</g>
</g>
<!-- Node2&#45;&gt;Node3 -->
<g id="edge2" class="edge"><title>Node2&#45;&gt;Node3</title>
<path fill="none" stroke="midnightblue" d="M487.418,-72.0155C409.258,-62.2634 284.86,-46.3717 177.5,-31 164.559,-29.1471 150.624,-27.0363 137.581,-25.0097"/>
<polygon fill="midnightblue" stroke="midnightblue" points="487.304,-75.5283 497.66,-73.2913 488.17,-68.5819 487.304,-75.5283"/>
</g>
<!-- Node4 -->
<g id="node4" class="node"><title>Node4</title>
<g id="a_node4"><a xlink:href="DatabaseFactory_8cxx.html" target="_top" xlink:title="Framework/src/DatabaseFactory.cxx">
<polygon fill="none" stroke="black" points="374,-6 374,-25 553,-25 553,-6 374,-6"/>
<text text-anchor="middle" x="463.5" y="-13" font-family="Helvetica,sans-Serif" font-size="10.00">Framework/src/DatabaseFactory.cxx</text>
</a>
</g>
</g>
<!-- Node2&#45;&gt;Node4 -->
<g id="edge3" class="edge"><title>Node2&#45;&gt;Node4</title>
<path fill="none" stroke="midnightblue" d="M534.161,-61.9747C515.009,-49.6494 491.229,-34.3455 476.719,-25.007"/>
<polygon fill="midnightblue" stroke="midnightblue" points="532.281,-64.9273 542.585,-67.396 536.07,-59.041 532.281,-64.9273"/>
</g>
<!-- Node5 -->
<g id="node5" class="node"><title>Node5</title>
<g id="a_node5"><a xlink:href="testCcdbDatabase_8cxx.html" target="_top" xlink:title="Framework/test/testCcdbDatabase.cxx">
<polygon fill="none" stroke="black" points="571.5,-6 571.5,-25 759.5,-25 759.5,-6 571.5,-6"/>
<text text-anchor="middle" x="665.5" y="-13" font-family="Helvetica,sans-Serif" font-size="10.00">Framework/test/testCcdbDatabase.cxx</text>
</a>
</g>
</g>
<!-- Node2&#45;&gt;Node5 -->
<g id="edge4" class="edge"><title>Node2&#45;&gt;Node5</title>
<path fill="none" stroke="midnightblue" d="M594.839,-61.9747C613.991,-49.6494 637.771,-34.3455 652.281,-25.007"/>
<polygon fill="midnightblue" stroke="midnightblue" points="592.93,-59.041 586.415,-67.396 596.719,-64.9273 592.93,-59.041"/>
</g>
<!-- Node6 -->
<g id="node6" class="node"><title>Node6</title>
<polygon fill="none" stroke="#bfbfbf" points="777.5,-0.5 777.5,-30.5 947.5,-30.5 947.5,-0.5 777.5,-0.5"/>
<text text-anchor="start" x="785.5" y="-18.5" font-family="Helvetica,sans-Serif" font-size="10.00">Framework/test/testCcdbDatabase</text>
<text text-anchor="middle" x="862.5" y="-7.5" font-family="Helvetica,sans-Serif" font-size="10.00">Extra.cxx</text>
</g>
<!-- Node2&#45;&gt;Node6 -->
<g id="edge5" class="edge"><title>Node2&#45;&gt;Node6</title>
<path fill="none" stroke="midnightblue" d="M638.699,-65.3156C687.675,-54.633 751.209,-40.7749 798.064,-30.5549"/>
<polygon fill="midnightblue" stroke="midnightblue" points="637.819,-61.9252 628.795,-67.476 639.311,-68.7644 637.819,-61.9252"/>
</g>
<!-- Node7 -->
<g id="node7" class="node"><title>Node7</title>
<g id="a_node7"><a xlink:href="testDbFactory_8cxx.html" target="_top" xlink:title="Framework/test/testDbFactory.cxx">
<polygon fill="none" stroke="black" points="187,-6 187,-25 356,-25 356,-6 187,-6"/>
<text text-anchor="middle" x="271.5" y="-13" font-family="Helvetica,sans-Serif" font-size="10.00">Framework/test/testDbFactory.cxx</text>
</a>
</g>
</g>
<!-- Node2&#45;&gt;Node7 -->
<g id="edge6" class="edge"><title>Node2&#45;&gt;Node7</title>
<path fill="none" stroke="midnightblue" d="M491.509,-65.3074C433.944,-52.5371 355.941,-35.2327 309.945,-25.0287"/>
<polygon fill="midnightblue" stroke="midnightblue" points="490.763,-68.7271 501.284,-67.476 492.279,-61.8932 490.763,-68.7271"/>
</g>
<!-- Node9 -->
<g id="node9" class="node"><title>Node9</title>
<g id="a_node9"><a xlink:href="Checker_8cxx.html" target="_top" xlink:title="Framework/src/Checker.cxx">
<polygon fill="none" stroke="black" points="965.5,-6 965.5,-25 1105.5,-25 1105.5,-6 965.5,-6"/>
<text text-anchor="middle" x="1035.5" y="-13" font-family="Helvetica,sans-Serif" font-size="10.00">Framework/src/Checker.cxx</text>
</a>
</g>
</g>
<!-- Node8&#45;&gt;Node9 -->
<g id="edge8" class="edge"><title>Node8&#45;&gt;Node9</title>
<path fill="none" stroke="midnightblue" d="M1515.74,-75.2072C1421.13,-67.0324 1255.55,-51.3647 1114.5,-31 1102.91,-29.3262 1090.42,-27.1896 1078.87,-25.0743"/>
<polygon fill="midnightblue" stroke="midnightblue" points="1515.54,-78.7021 1525.8,-76.0708 1516.13,-71.7278 1515.54,-78.7021"/>
</g>
<!-- Node10 -->
<g id="node10" class="node"><title>Node10</title>
<g id="a_node10"><a xlink:href="CheckerFactory_8cxx.html" target="_top" xlink:title="Framework/src/CheckerFactory.cxx">
<polygon fill="none" stroke="black" points="2036,-6 2036,-25 2209,-25 2209,-6 2036,-6"/>
<text text-anchor="middle" x="2122.5" y="-13" font-family="Helvetica,sans-Serif" font-size="10.00">Framework/src/CheckerFactory.cxx</text>
</a>
</g>
</g>
<!-- Node8&#45;&gt;Node10 -->
<g id="edge9" class="edge"><title>Node8&#45;&gt;Node10</title>
<path fill="none" stroke="midnightblue" d="M1669.16,-73.3783C1755.96,-63.997 1901.56,-47.6994 2026.5,-31 2040.03,-29.1912 2054.61,-27.0754 2068.22,-25.0279"/>
<polygon fill="midnightblue" stroke="midnightblue" points="1668.7,-69.9077 1659.13,-74.4597 1669.45,-76.8674 1668.7,-69.9077"/>
</g>
<!-- Node11 -->
<g id="node11" class="node"><title>Node11</title>
<g id="a_node11"><a xlink:href="runBasic_8cxx.html" target="_top" xlink:title="This is an executable showing QC Task&#39;s usage in Data Processing Layer. ">
<polygon fill="none" stroke="black" points="2227.5,-6 2227.5,-25 2369.5,-25 2369.5,-6 2227.5,-6"/>
<text text-anchor="middle" x="2298.5" y="-13" font-family="Helvetica,sans-Serif" font-size="10.00">Framework/src/runBasic.cxx</text>
</a>
</g>
</g>
<!-- Node8&#45;&gt;Node11 -->
<g id="edge10" class="edge"><title>Node8&#45;&gt;Node11</title>
<path fill="none" stroke="midnightblue" d="M1669.36,-77.6837C1787.53,-71.2765 2020.81,-56.4905 2217.5,-31 2229.83,-29.4026 2243.13,-27.2163 2255.32,-25.0258"/>
<polygon fill="midnightblue" stroke="midnightblue" points="1669.12,-74.1913 1659.32,-78.2227 1669.49,-81.1813 1669.12,-74.1913"/>
</g>
<!-- Node12 -->
<g id="node12" class="node"><title>Node12</title>
<g id="a_node12"><a xlink:href="testChecker_8cxx.html" target="_top" xlink:title="Framework/test/testChecker.cxx">
<polygon fill="none" stroke="black" points="1123.5,-6 1123.5,-25 1283.5,-25 1283.5,-6 1123.5,-6"/>
<text text-anchor="middle" x="1203.5" y="-13" font-family="Helvetica,sans-Serif" font-size="10.00">Framework/test/testChecker.cxx</text>
</a>
</g>
</g>
<!-- Node8&#45;&gt;Node12 -->
<g id="edge11" class="edge"><title>Node8&#45;&gt;Node12</title>
<path fill="none" stroke="midnightblue" d="M1515.46,-68.627C1438.13,-55.7051 1321.19,-36.1651 1254.63,-25.043"/>
<polygon fill="midnightblue" stroke="midnightblue" points="1515.19,-72.1301 1525.63,-70.3261 1516.34,-65.2258 1515.19,-72.1301"/>
</g>
<!-- Node13 -->
<g id="node13" class="node"><title>Node13</title>
<g id="a_node13"><a xlink:href="testWorkflow_8cxx.html" target="_top" xlink:title="Framework/test/testWorkflow.cxx">
<polygon fill="none" stroke="black" points="1301.5,-6 1301.5,-25 1465.5,-25 1465.5,-6 1301.5,-6"/>
<text text-anchor="middle" x="1383.5" y="-13" font-family="Helvetica,sans-Serif" font-size="10.00">Framework/test/testWorkflow.cxx</text>
</a>
</g>
</g>
<!-- Node8&#45;&gt;Node13 -->
<g id="edge12" class="edge"><title>Node8&#45;&gt;Node13</title>
<path fill="none" stroke="midnightblue" d="M1537.61,-64.4298C1496.86,-51.7542 1442.99,-35.0008 1410.92,-25.0287"/>
<polygon fill="midnightblue" stroke="midnightblue" points="1536.82,-67.8483 1547.41,-67.476 1538.9,-61.1641 1536.82,-67.8483"/>
</g>
<!-- Node14 -->
<g id="node14" class="node"><title>Node14</title>
<polygon fill="none" stroke="#bfbfbf" points="1483.5,-6 1483.5,-25 1701.5,-25 1701.5,-6 1483.5,-6"/>
<text text-anchor="middle" x="1592.5" y="-13" font-family="Helvetica,sans-Serif" font-size="10.00">Modules/EMCAL/src/runQCEMCALDigits.cxx</text>
</g>
<!-- Node8&#45;&gt;Node14 -->
<g id="edge13" class="edge"><title>Node8&#45;&gt;Node14</title>
<path fill="none" stroke="midnightblue" d="M1592.5,-57.2495C1592.5,-46.017 1592.5,-33.3767 1592.5,-25.1945"/>
<polygon fill="midnightblue" stroke="midnightblue" points="1589,-57.3959 1592.5,-67.396 1596,-57.396 1589,-57.3959"/>
</g>
<!-- Node15 -->
<g id="node15" class="node"><title>Node15</title>
<g id="a_node15"><a xlink:href="runTOF_8cxx.html" target="_top" xlink:title="This is an executable showing QC Task&#39;s usage in Data Processing Layer. ">
<polygon fill="none" stroke="black" points="1720,-6 1720,-25 1867,-25 1867,-6 1720,-6"/>
<text text-anchor="middle" x="1793.5" y="-13" font-family="Helvetica,sans-Serif" font-size="10.00">Modules/TOF/src/runTOF.cxx</text>
</a>
</g>
</g>
<!-- Node8&#45;&gt;Node15 -->
<g id="edge14" class="edge"><title>Node8&#45;&gt;Node15</title>
<path fill="none" stroke="midnightblue" d="M1645.78,-64.2688C1684.95,-51.6034 1736.5,-34.9344 1767.19,-25.007"/>
<polygon fill="midnightblue" stroke="midnightblue" points="1644.55,-60.9888 1636.11,-67.396 1646.71,-67.6492 1644.55,-60.9888"/>
</g>
<!-- Node16&#45;&gt;Node4 -->
<g id="edge17" class="edge"><title>Node16&#45;&gt;Node4</title>
<path fill="none" stroke="midnightblue" d="M785.319,-68.9267C705.937,-55.9947 584.477,-36.208 515.714,-25.0061"/>
<polygon fill="midnightblue" stroke="midnightblue" points="784.834,-72.3936 795.266,-70.5471 785.959,-65.4847 784.834,-72.3936"/>
</g>
<!-- Node16&#45;&gt;Node5 -->
<g id="edge19" class="edge"><title>Node16&#45;&gt;Node5</title>
<path fill="none" stroke="midnightblue" d="M809.787,-64.1075C771.462,-51.4622 721.243,-34.8923 691.283,-25.007"/>
<polygon fill="midnightblue" stroke="midnightblue" points="809.161,-67.5863 819.754,-67.396 811.354,-60.9388 809.161,-67.5863"/>
</g>
<!-- Node16&#45;&gt;Node6 -->
<g id="edge20" class="edge"><title>Node16&#45;&gt;Node6</title>
<path fill="none" stroke="midnightblue" d="M862.5,-57.1081C862.5,-48.1539 862.5,-38.3227 862.5,-30.5765"/>
<polygon fill="midnightblue" stroke="midnightblue" points="859,-57.3959 862.5,-67.396 866,-57.396 859,-57.3959"/>
</g>
<!-- Node16&#45;&gt;Node7 -->
<g id="edge21" class="edge"><title>Node16&#45;&gt;Node7</title>
<path fill="none" stroke="midnightblue" d="M784.988,-74.9367C686.913,-66.3344 512.886,-50.0774 364.5,-31 351.048,-29.2705 336.543,-27.1383 323.081,-25.0462"/>
<polygon fill="midnightblue" stroke="midnightblue" points="784.843,-78.4373 795.11,-75.821 785.453,-71.4639 784.843,-78.4373"/>
</g>
<!-- Node16&#45;&gt;Node9 -->
<g id="edge16" class="edge"><title>Node16&#45;&gt;Node9</title>
<path fill="none" stroke="midnightblue" d="M909.652,-63.7838C943.196,-51.1807 986.772,-34.8082 1012.86,-25.007"/>
<polygon fill="midnightblue" stroke="midnightblue" points="908.168,-60.6024 900.038,-67.396 910.631,-67.1551 908.168,-60.6024"/>
</g>
<!-- Node17 -->
<g id="node17" class="node"><title>Node17</title>
<g id="a_node17"><a xlink:href="RepositoryBenchmark_8cxx.html" target="_top" xlink:title="Framework/src/Repository\lBenchmark.cxx">
<polygon fill="none" stroke="black" points="1885.5,-0.5 1885.5,-30.5 2017.5,-30.5 2017.5,-0.5 1885.5,-0.5"/>
<text text-anchor="start" x="1893.5" y="-18.5" font-family="Helvetica,sans-Serif" font-size="10.00">Framework/src/Repository</text>
<text text-anchor="middle" x="1951.5" y="-7.5" font-family="Helvetica,sans-Serif" font-size="10.00">Benchmark.cxx</text>
</a>
</g>
</g>
<!-- Node16&#45;&gt;Node17 -->
<g id="edge18" class="edge"><title>Node16&#45;&gt;Node17</title>
<path fill="none" stroke="midnightblue" d="M939.842,-81.2942C1109.75,-80.0434 1528.11,-72.5942 1875.5,-31 1878.7,-30.6167 1881.97,-30.1779 1885.27,-29.6973"/>
<polygon fill="midnightblue" stroke="midnightblue" points="939.719,-77.7948 929.743,-81.3633 939.767,-84.7947 939.719,-77.7948"/>
</g>
<!-- Node19 -->
<g id="node19" class="node"><title>Node19</title>
<g id="a_node19"><a xlink:href="MySqlDatabase_8cxx.html" target="_top" xlink:title="Framework/src/MySqlDatabase.cxx">
<polygon fill="none" stroke="black" points="2552,-6 2552,-25 2725,-25 2725,-6 2552,-6"/>
<text text-anchor="middle" x="2638.5" y="-13" font-family="Helvetica,sans-Serif" font-size="10.00">Framework/src/MySqlDatabase.cxx</text>
</a>
</g>
</g>
<!-- Node18&#45;&gt;Node19 -->
<g id="edge23" class="edge"><title>Node18&#45;&gt;Node19</title>
<path fill="none" stroke="midnightblue" d="M2438.24,-65.0694C2490.8,-52.3228 2561.52,-35.1694 2603.34,-25.0287"/>
<polygon fill="midnightblue" stroke="midnightblue" points="2437.22,-61.7175 2428.32,-67.476 2438.87,-68.5203 2437.22,-61.7175"/>
</g>
<!-- Node20&#45;&gt;Node17 -->
<g id="edge25" class="edge"><title>Node20&#45;&gt;Node17</title>
<path fill="none" stroke="midnightblue" d="M1951.5,-57.1081C1951.5,-48.1539 1951.5,-38.3227 1951.5,-30.5765"/>
<polygon fill="midnightblue" stroke="midnightblue" points="1948,-57.3959 1951.5,-67.396 1955,-57.396 1948,-57.3959"/>
</g>
<!-- Node21 -->
<g id="node21" class="node"><title>Node21</title>
<g id="a_node21"><a xlink:href="runRepositoryBenchmark_8cxx.html" target="_top" xlink:title="Framework/src/runRepository\lBenchmark.cxx">
<polygon fill="none" stroke="black" points="2387.5,-0.5 2387.5,-30.5 2533.5,-30.5 2533.5,-0.5 2387.5,-0.5"/>
<text text-anchor="start" x="2395.5" y="-18.5" font-family="Helvetica,sans-Serif" font-size="10.00">Framework/src/runRepository</text>
<text text-anchor="middle" x="2460.5" y="-7.5" font-family="Helvetica,sans-Serif" font-size="10.00">Benchmark.cxx</text>
</a>
</g>
</g>
<!-- Node20&#45;&gt;Node21 -->
<g id="edge26" class="edge"><title>Node20&#45;&gt;Node21</title>
<path fill="none" stroke="midnightblue" d="M2028,-73.7877C2113.59,-64.8499 2256.26,-49.0209 2378.5,-31 2381.36,-30.5783 2384.27,-30.134 2387.22,-29.6732"/>
<polygon fill="midnightblue" stroke="midnightblue" points="2027.44,-70.3275 2017.86,-74.8432 2028.16,-77.2899 2027.44,-70.3275"/>
</g>
</g>
</svg>
        <g id="navigator" transform="translate(0 0)" fill="#404254">
                <rect fill="#f2f5e9" fill-opacity="0.5" stroke="#606060" stroke-width=".5" x="0" y="0" width="60" height="60"/>
                <use id="zoomplus" xlink:href="#zoomPlus" x="17" y="9" onmousedown="handleZoom(evt,'in')"/>
                <use id="zoomminus" xlink:href="#zoomMin" x="42" y="9" onmousedown="handleZoom(evt,'out')"/>
                <use id="reset" xlink:href="#resetDef" x="30" y="36" onmousedown="handleReset()"/>
                <g id="arrowUp" xlink:href="#dirArrow" transform="translate(30 24)" onmousedown="handlePan(0,-1)">
                  <use xlink:href="#rim" fill="#404040">
                        <set attributeName="fill" to="#808080" begin="arrowUp.mouseover" end="arrowUp.mouseout"/>
                  </use>
                  <path fill="none" stroke="white" stroke-width="1.5" d="M0,-3.0v7 M-2.5,-0.5L0,-3.0L2.5,-0.5"/>
                </g>
                <g id="arrowRight" xlink:href="#dirArrow" transform="rotate(90) translate(36 -43)" onmousedown="handlePan(1,0)">
                  <use xlink:href="#rim" fill="#404040">
                        <set attributeName="fill" to="#808080" begin="arrowRight.mouseover" end="arrowRight.mouseout"/>
                  </use>
                  <path fill="none" stroke="white" stroke-width="1.5" d="M0,-3.0v7 M-2.5,-0.5L0,-3.0L2.5,-0.5"/>
                </g>
                <g id="arrowDown" xlink:href="#dirArrow" transform="rotate(180) translate(-30 -48)" onmousedown="handlePan(0,1)">
                  <use xlink:href="#rim" fill="#404040">
                        <set attributeName="fill" to="#808080" begin="arrowDown.mouseover" end="arrowDown.mouseout"/>
                  </use>
                  <path fill="none" stroke="white" stroke-width="1.5" d="M0,-3.0v7 M-2.5,-0.5L0,-3.0L2.5,-0.5"/>
                </g>
                <g id="arrowLeft" xlink:href="#dirArrow" transform="rotate(270) translate(-36 17)" onmousedown="handlePan(-1,0)">
                  <use xlink:href="#rim" fill="#404040">
                        <set attributeName="fill" to="#808080" begin="arrowLeft.mouseover" end="arrowLeft.mouseout"/>
                  </use>
                  <path fill="none" stroke="white" stroke-width="1.5" d="M0,-3.0v7 M-2.5,-0.5L0,-3.0L2.5,-0.5"/>
                </g>
        </g>
        <svg viewBox="0 0 15 15" width="100%" height="30px" preserveAspectRatio="xMaxYMin meet">
         <g id="arrow_out" transform="scale(0.3 0.3)">
          <a xlink:href="DatabaseInterface_8h__dep__incl_org.svg" target="_base">
           <rect id="button" ry="5" rx="5" y="6" x="6" height="38" width="38"
                fill="#f2f5e9" fill-opacity="0.5" stroke="#606060" stroke-width="1.0"/>
           <path id="arrow"
             d="M 11.500037,31.436501 C 11.940474,20.09759 22.043105,11.32322 32.158766,21.979434 L 37.068811,17.246167 C 37.068811,17.246167 37.088388,32 37.088388,32 L 22.160133,31.978069 C 22.160133,31.978069 26.997745,27.140456 26.997745,27.140456 C 18.528582,18.264221 13.291696,25.230495 11.500037,31.436501 z"
             style="fill:#404040;"/>
          </a>
         </g>
        </svg>
</svg>
