<?xml version="1.0" encoding="UTF-8" standalone="no"?>
<!DOCTYPE svg PUBLIC "-//W3C//DTD SVG 1.1//EN"
 "http://www.w3.org/Graphics/SVG/1.1/DTD/svg11.dtd">
<!-- Generated by graphviz version 2.38.0 (20140413.2041)
 -->
<!-- Title: Framework/include/QualityControl/DatabaseInterface.h Pages: 1 -->
<svg width="465pt" height="207pt"
 viewBox="0.00 0.00 464.91 207.00" xmlns="http://www.w3.org/2000/svg" xmlns:xlink="http://www.w3.org/1999/xlink">
<g id="graph0" class="graph" transform="scale(1 1) rotate(0) translate(4 203)">
<title>Framework/include/QualityControl/DatabaseInterface.h</title>
<!-- Node1 -->
<g id="node1" class="node"><title>Node1</title>
<polygon fill="#bfbfbf" stroke="black" points="243.245,-168.5 243.245,-198.5 383.245,-198.5 383.245,-168.5 243.245,-168.5"/>
<text text-anchor="start" x="251.245" y="-186.5" font-family="Helvetica,sans-Serif" font-size="10.00">Framework/include/Quality</text>
<text text-anchor="middle" x="313.245" y="-175.5" font-family="Helvetica,sans-Serif" font-size="10.00">Control/DatabaseInterface.h</text>
</g>
<!-- Node2 -->
<g id="node2" class="node"><title>Node2</title>
<polygon fill="none" stroke="#bfbfbf" points="406.745,-0.5 406.745,-19.5 447.745,-19.5 447.745,-0.5 406.745,-0.5"/>
<text text-anchor="middle" x="427.245" y="-7.5" font-family="Helvetica,sans-Serif" font-size="10.00">string</text>
</g>
<!-- Node1&#45;&gt;Node2 -->
<g id="edge1" class="edge"><title>Node1&#45;&gt;Node2</title>
<path fill="none" stroke="midnightblue" d="M383.498,-172.385C407.446,-165.204 431.798,-152.939 446.245,-132 467.897,-100.618 449.9,-53.8407 437.171,-28.6267"/>
<polygon fill="midnightblue" stroke="midnightblue" points="440.117,-26.7115 432.328,-19.5295 433.938,-30.0013 440.117,-26.7115"/>
</g>
<!-- Node3 -->
<g id="node3" class="node"><title>Node3</title>
<polygon fill="none" stroke="#bfbfbf" points="221.245,-112.5 221.245,-131.5 273.245,-131.5 273.245,-112.5 221.245,-112.5"/>
<text text-anchor="middle" x="247.245" y="-119.5" font-family="Helvetica,sans-Serif" font-size="10.00">memory</text>
</g>
<!-- Node1&#45;&gt;Node3 -->
<g id="edge2" class="edge"><title>Node1&#45;&gt;Node3</title>
<path fill="none" stroke="midnightblue" d="M297.604,-168.399C287.618,-159.397 274.667,-147.721 264.4,-138.465"/>
<polygon fill="midnightblue" stroke="midnightblue" points="266.62,-135.754 256.849,-131.658 261.932,-140.953 266.62,-135.754"/>
</g>
<!-- Node4 -->
<g id="node4" class="node"><title>Node4</title>
<polygon fill="none" stroke="#bfbfbf" points="291.245,-112.5 291.245,-131.5 335.245,-131.5 335.245,-112.5 291.245,-112.5"/>
<text text-anchor="middle" x="313.245" y="-119.5" font-family="Helvetica,sans-Serif" font-size="10.00">vector</text>
</g>
<!-- Node1&#45;&gt;Node4 -->
<g id="edge3" class="edge"><title>Node1&#45;&gt;Node4</title>
<path fill="none" stroke="midnightblue" d="M313.245,-168.399C313.245,-160.466 313.245,-150.458 313.245,-141.858"/>
<polygon fill="midnightblue" stroke="midnightblue" points="316.745,-141.658 313.245,-131.658 309.745,-141.658 316.745,-141.658"/>
</g>
<!-- Node5 -->
<g id="node5" class="node"><title>Node5</title>
<polygon fill="none" stroke="#bfbfbf" points="353.745,-112.5 353.745,-131.5 436.745,-131.5 436.745,-112.5 353.745,-112.5"/>
<text text-anchor="middle" x="395.245" y="-119.5" font-family="Helvetica,sans-Serif" font-size="10.00">unordered_map</text>
</g>
<!-- Node1&#45;&gt;Node5 -->
<g id="edge4" class="edge"><title>Node1&#45;&gt;Node5</title>
<path fill="none" stroke="midnightblue" d="M332.678,-168.399C345.453,-159.129 362.134,-147.025 375.059,-137.647"/>
<polygon fill="midnightblue" stroke="midnightblue" points="377.275,-140.364 383.313,-131.658 373.164,-134.698 377.275,-140.364"/>
</g>
<!-- Node6 -->
<g id="node6" class="node"><title>Node6</title>
<g id="a_node6"><a xlink:href="MonitorObject_8h.html" target="_top" xlink:title="QualityControl/MonitorObject.h">
<polygon fill="none" stroke="black" points="51.745,-112.5 51.745,-131.5 202.745,-131.5 202.745,-112.5 51.745,-112.5"/>
<text text-anchor="middle" x="127.245" y="-119.5" font-family="Helvetica,sans-Serif" font-size="10.00">QualityControl/MonitorObject.h</text>
</a>
</g>
</g>
<!-- Node1&#45;&gt;Node6 -->
<g id="edge5" class="edge"><title>Node1&#45;&gt;Node6</title>
<path fill="none" stroke="midnightblue" d="M269.166,-168.399C237.026,-158.118 193.988,-144.351 163.763,-134.682"/>
<polygon fill="midnightblue" stroke="midnightblue" points="164.629,-131.284 154.038,-131.571 162.496,-137.951 164.629,-131.284"/>
</g>
<!-- Node6&#45;&gt;Node2 -->
<g id="edge6" class="edge"><title>Node6&#45;&gt;Node2</title>
<path fill="none" stroke="midnightblue" d="M191.403,-112.482C271.804,-101.552 400.138,-83.1475 408.245,-76 421.316,-64.4755 425.621,-44.5068 426.928,-29.7351"/>
<polygon fill="midnightblue" stroke="midnightblue" points="430.427,-29.8429 427.439,-19.6781 423.436,-29.4874 430.427,-29.8429"/>
</g>
<!-- Node7 -->
<g id="node7" class="node"><title>Node7</title>
<polygon fill="none" stroke="#bfbfbf" points="13.745,-56.5 13.745,-75.5 48.745,-75.5 48.745,-56.5 13.745,-56.5"/>
<text text-anchor="middle" x="31.245" y="-63.5" font-family="Helvetica,sans-Serif" font-size="10.00">map</text>
</g>
<!-- Node6&#45;&gt;Node7 -->
<g id="edge7" class="edge"><title>Node6&#45;&gt;Node7</title>
<path fill="none" stroke="midnightblue" d="M111.821,-112.324C96.7055,-103.822 73.4297,-90.7288 55.7739,-80.7975"/>
<polygon fill="midnightblue" stroke="midnightblue" points="57.0625,-77.5066 46.6308,-75.6545 53.6307,-83.6077 57.0625,-77.5066"/>
</g>
<!-- Node8 -->
<g id="node8" class="node"><title>Node8</title>
<polygon fill="none" stroke="#bfbfbf" points="28.245,-0.5 28.245,-19.5 84.245,-19.5 84.245,-0.5 28.245,-0.5"/>
<text text-anchor="middle" x="56.245" y="-7.5" font-family="Helvetica,sans-Serif" font-size="10.00">Rtypes.h</text>
</g>
<!-- Node6&#45;&gt;Node8 -->
<g id="edge8" class="edge"><title>Node6&#45;&gt;Node8</title>
<path fill="none" stroke="midnightblue" d="M62.0121,-112.47C39.976,-106.123 17.5974,-95.103 4.24504,-76 -8.53467,-57.7164 13.0026,-37.8496 32.1193,-24.9562"/>
<polygon fill="midnightblue" stroke="midnightblue" points="34.0466,-27.8784 40.6003,-19.5537 30.2857,-21.9745 34.0466,-27.8784"/>
</g>
<!-- Node9 -->
<g id="node9" class="node"><title>Node9</title>
<polygon fill="none" stroke="#bfbfbf" points="205.745,-56.5 205.745,-75.5 264.745,-75.5 264.745,-56.5 205.745,-56.5"/>
<text text-anchor="middle" x="235.245" y="-63.5" font-family="Helvetica,sans-Serif" font-size="10.00">TObject.h</text>
</g>
<!-- Node6&#45;&gt;Node9 -->
<g id="edge9" class="edge"><title>Node6&#45;&gt;Node9</title>
<path fill="none" stroke="midnightblue" d="M144.597,-112.324C161.917,-103.664 188.76,-90.2424 208.747,-80.249"/>
<polygon fill="midnightblue" stroke="midnightblue" points="210.557,-83.2572 217.936,-75.6545 207.426,-76.9962 210.557,-83.2572"/>
</g>
<!-- Node10 -->
<g id="node10" class="node"><title>Node10</title>
<polygon fill="none" stroke="#bfbfbf" points="283.245,-56.5 283.245,-75.5 399.245,-75.5 399.245,-56.5 283.245,-56.5"/>
<text text-anchor="middle" x="341.245" y="-63.5" font-family="Helvetica,sans-Serif" font-size="10.00">Common/Exceptions.h</text>
</g>
<!-- Node6&#45;&gt;Node10 -->
<g id="edge10" class="edge"><title>Node6&#45;&gt;Node10</title>
<path fill="none" stroke="midnightblue" d="M161.154,-112.444C198.094,-103.122 257.299,-88.1828 297.663,-77.9972"/>
<polygon fill="midnightblue" stroke="midnightblue" points="298.655,-81.3568 307.495,-75.5164 296.942,-74.5695 298.655,-81.3568"/>
</g>
<!-- Node11 -->
<g id="node11" class="node"><title>Node11</title>
<g id="a_node11"><a xlink:href="Quality_8h.html" target="_top" xlink:title="QualityControl/Quality.h">
<polygon fill="none" stroke="black" points="66.745,-56.5 66.745,-75.5 187.745,-75.5 187.745,-56.5 66.745,-56.5"/>
<text text-anchor="middle" x="127.245" y="-63.5" font-family="Helvetica,sans-Serif" font-size="10.00">QualityControl/Quality.h</text>
</a>
</g>
</g>
<!-- Node6&#45;&gt;Node11 -->
<g id="edge11" class="edge"><title>Node6&#45;&gt;Node11</title>
<path fill="none" stroke="midnightblue" d="M127.245,-112.083C127.245,-105.006 127.245,-94.8611 127.245,-85.9865"/>
<polygon fill="midnightblue" stroke="midnightblue" points="130.745,-85.751 127.245,-75.7511 123.745,-85.7511 130.745,-85.751"/>
</g>
<!-- Node11&#45;&gt;Node2 -->
<g id="edge13" class="edge"><title>Node11&#45;&gt;Node2</title>
<path fill="none" stroke="midnightblue" d="M174.781,-56.4435C236.918,-45.2589 343.99,-25.9859 396.456,-16.542"/>
<polygon fill="midnightblue" stroke="midnightblue" points="397.268,-19.9522 406.49,-14.7359 396.028,-13.0629 397.268,-19.9522"/>
</g>
<!-- Node11&#45;&gt;Node8 -->
<g id="edge12" class="edge"><title>Node11&#45;&gt;Node8</title>
<path fill="none" stroke="midnightblue" d="M115.838,-56.324C105.136,-48.1849 88.9044,-35.8395 76.0822,-26.0874"/>
<polygon fill="midnightblue" stroke="midnightblue" points="77.9383,-23.1018 67.86,-19.8339 73.7007,-28.6734 77.9383,-23.1018"/>
</g>
</g>
</svg>
