<?xml version="1.0" encoding="UTF-8" standalone="no"?>
<!DOCTYPE svg PUBLIC "-//W3C//DTD SVG 1.1//EN"
 "http://www.w3.org/Graphics/SVG/1.1/DTD/svg11.dtd">
<!-- Generated by graphviz version 2.38.0 (20140413.2041)
 -->
<!-- Title: Framework/include/QualityControl/DatabaseFactory.h Pages: 1 -->
<svg width="530pt" height="263pt"
 viewBox="0.00 0.00 529.50 263.00" xmlns="http://www.w3.org/2000/svg" xmlns:xlink="http://www.w3.org/1999/xlink">
<g id="graph0" class="graph" transform="scale(1 1) rotate(0) translate(4 259)">
<title>Framework/include/QualityControl/DatabaseFactory.h</title>
<!-- Node1 -->
<g id="node1" class="node"><title>Node1</title>
<polygon fill="#bfbfbf" stroke="black" points="37,-224.5 37,-254.5 171,-254.5 171,-224.5 37,-224.5"/>
<text text-anchor="start" x="45" y="-242.5" font-family="Helvetica,sans-Serif" font-size="10.00">Framework/include/Quality</text>
<text text-anchor="middle" x="104" y="-231.5" font-family="Helvetica,sans-Serif" font-size="10.00">Control/DatabaseFactory.h</text>
</g>
<!-- Node2 -->
<g id="node2" class="node"><title>Node2</title>
<polygon fill="none" stroke="#bfbfbf" points="0,-112.5 0,-131.5 52,-131.5 52,-112.5 0,-112.5"/>
<text text-anchor="middle" x="26" y="-119.5" font-family="Helvetica,sans-Serif" font-size="10.00">memory</text>
</g>
<!-- Node1&#45;&gt;Node2 -->
<g id="edge1" class="edge"><title>Node1&#45;&gt;Node2</title>
<path fill="none" stroke="midnightblue" d="M94.4357,-224.337C80.0625,-203.054 52.9369,-162.887 37.5039,-140.035"/>
<polygon fill="midnightblue" stroke="midnightblue" points="40.3519,-137.998 31.8547,-131.669 34.5508,-141.916 40.3519,-137.998"/>
</g>
<!-- Node3 -->
<g id="node3" class="node"><title>Node3</title>
<g id="a_node3"><a xlink:href="DatabaseInterface_8h.html" target="_top" xlink:title="QualityControl/DatabaseInterface.h">
<polygon fill="none" stroke="black" points="80,-168.5 80,-187.5 250,-187.5 250,-168.5 80,-168.5"/>
<text text-anchor="middle" x="165" y="-175.5" font-family="Helvetica,sans-Serif" font-size="10.00">QualityControl/DatabaseInterface.h</text>
</a>
</g>
</g>
<!-- Node1&#45;&gt;Node3 -->
<g id="edge2" class="edge"><title>Node1&#45;&gt;Node3</title>
<path fill="none" stroke="midnightblue" d="M118.456,-224.399C127.594,-215.486 139.419,-203.952 148.862,-194.741"/>
<polygon fill="midnightblue" stroke="midnightblue" points="151.409,-197.146 156.124,-187.658 146.522,-192.135 151.409,-197.146"/>
</g>
<!-- Node3&#45;&gt;Node2 -->
<g id="edge4" class="edge"><title>Node3&#45;&gt;Node2</title>
<path fill="none" stroke="midnightblue" d="M142.975,-168.444C119.896,-159.478 83.438,-145.314 57.3591,-135.183"/>
<polygon fill="midnightblue" stroke="midnightblue" points="58.5107,-131.875 47.9219,-131.516 55.9758,-138.4 58.5107,-131.875"/>
</g>
<!-- Node4 -->
<g id="node4" class="node"><title>Node4</title>
<polygon fill="none" stroke="#bfbfbf" points="480.5,-0.5 480.5,-19.5 521.5,-19.5 521.5,-0.5 480.5,-0.5"/>
<text text-anchor="middle" x="501" y="-7.5" font-family="Helvetica,sans-Serif" font-size="10.00">string</text>
</g>
<!-- Node3&#45;&gt;Node4 -->
<g id="edge3" class="edge"><title>Node3&#45;&gt;Node4</title>
<path fill="none" stroke="midnightblue" d="M234.164,-168.489C280.065,-161.6 341.174,-150.026 393,-132 444.441,-114.108 473.621,-122.486 502,-76 510.445,-62.1664 509.101,-43.3984 506.292,-29.5854"/>
<polygon fill="midnightblue" stroke="midnightblue" points="509.664,-28.6391 503.885,-19.759 502.865,-30.3046 509.664,-28.6391"/>
</g>
<!-- Node5 -->
<g id="node5" class="node"><title>Node5</title>
<polygon fill="none" stroke="#bfbfbf" points="70,-112.5 70,-131.5 114,-131.5 114,-112.5 70,-112.5"/>
<text text-anchor="middle" x="92" y="-119.5" font-family="Helvetica,sans-Serif" font-size="10.00">vector</text>
</g>
<!-- Node3&#45;&gt;Node5 -->
<g id="edge5" class="edge"><title>Node3&#45;&gt;Node5</title>
<path fill="none" stroke="midnightblue" d="M153.271,-168.324C142.163,-160.107 125.258,-147.602 112.017,-137.807"/>
<polygon fill="midnightblue" stroke="midnightblue" points="114.063,-134.967 103.942,-131.834 109.9,-140.595 114.063,-134.967"/>
</g>
<!-- Node6 -->
<g id="node6" class="node"><title>Node6</title>
<polygon fill="none" stroke="#bfbfbf" points="132.5,-112.5 132.5,-131.5 215.5,-131.5 215.5,-112.5 132.5,-112.5"/>
<text text-anchor="middle" x="174" y="-119.5" font-family="Helvetica,sans-Serif" font-size="10.00">unordered_map</text>
</g>
<!-- Node3&#45;&gt;Node6 -->
<g id="edge6" class="edge"><title>Node3&#45;&gt;Node6</title>
<path fill="none" stroke="midnightblue" d="M166.486,-168.083C167.679,-160.927 169.394,-150.635 170.885,-141.691"/>
<polygon fill="midnightblue" stroke="midnightblue" points="174.35,-142.19 172.541,-131.751 167.445,-141.04 174.35,-142.19"/>
</g>
<!-- Node7 -->
<g id="node7" class="node"><title>Node7</title>
<g id="a_node7"><a xlink:href="MonitorObject_8h.html" target="_top" xlink:title="QualityControl/MonitorObject.h">
<polygon fill="none" stroke="black" points="233.5,-112.5 233.5,-131.5 384.5,-131.5 384.5,-112.5 233.5,-112.5"/>
<text text-anchor="middle" x="309" y="-119.5" font-family="Helvetica,sans-Serif" font-size="10.00">QualityControl/MonitorObject.h</text>
</a>
</g>
</g>
<!-- Node3&#45;&gt;Node7 -->
<g id="edge7" class="edge"><title>Node3&#45;&gt;Node7</title>
<path fill="none" stroke="midnightblue" d="M187.817,-168.444C211.832,-159.438 249.829,-145.189 276.869,-135.049"/>
<polygon fill="midnightblue" stroke="midnightblue" points="278.155,-138.305 286.29,-131.516 275.697,-131.751 278.155,-138.305"/>
</g>
<!-- Node7&#45;&gt;Node4 -->
<g id="edge8" class="edge"><title>Node7&#45;&gt;Node4</title>
<path fill="none" stroke="midnightblue" d="M384.887,-117.773C418.551,-112.562 456.278,-100.964 482,-76 494.382,-63.9826 498.812,-44.3804 500.338,-29.8401"/>
<polygon fill="midnightblue" stroke="midnightblue" points="503.854,-29.7189 501.035,-19.5058 496.869,-29.2474 503.854,-29.7189"/>
</g>
<!-- Node8 -->
<g id="node8" class="node"><title>Node8</title>
<polygon fill="none" stroke="#bfbfbf" points="87.5,-56.5 87.5,-75.5 122.5,-75.5 122.5,-56.5 87.5,-56.5"/>
<text text-anchor="middle" x="105" y="-63.5" font-family="Helvetica,sans-Serif" font-size="10.00">map</text>
</g>
<!-- Node7&#45;&gt;Node8 -->
<g id="edge9" class="edge"><title>Node7&#45;&gt;Node8</title>
<path fill="none" stroke="midnightblue" d="M271.241,-112.445C237.155,-104.503 185.452,-91.9158 132.461,-76.2632"/>
<polygon fill="midnightblue" stroke="midnightblue" points="133.139,-72.813 122.556,-73.3053 131.136,-79.5203 133.139,-72.813"/>
</g>
<!-- Node9 -->
<g id="node9" class="node"><title>Node9</title>
<polygon fill="none" stroke="#bfbfbf" points="102,-0.5 102,-19.5 158,-19.5 158,-0.5 102,-0.5"/>
<text text-anchor="middle" x="130" y="-7.5" font-family="Helvetica,sans-Serif" font-size="10.00">Rtypes.h</text>
</g>
<!-- Node7&#45;&gt;Node9 -->
<g id="edge10" class="edge"><title>Node7&#45;&gt;Node9</title>
<path fill="none" stroke="midnightblue" d="M242.992,-112.461C178.509,-103.444 88.5391,-88.7903 78,-76 63.6704,-58.6096 86.0879,-38.2897 105.804,-25.0604"/>
<polygon fill="midnightblue" stroke="midnightblue" points="107.694,-28.0067 114.252,-19.6857 103.936,-22.1007 107.694,-28.0067"/>
</g>
<!-- Node10 -->
<g id="node10" class="node"><title>Node10</title>
<polygon fill="none" stroke="#bfbfbf" points="279.5,-56.5 279.5,-75.5 338.5,-75.5 338.5,-56.5 279.5,-56.5"/>
<text text-anchor="middle" x="309" y="-63.5" font-family="Helvetica,sans-Serif" font-size="10.00">TObject.h</text>
</g>
<!-- Node7&#45;&gt;Node10 -->
<g id="edge11" class="edge"><title>Node7&#45;&gt;Node10</title>
<path fill="none" stroke="midnightblue" d="M309,-112.083C309,-105.006 309,-94.8611 309,-85.9865"/>
<polygon fill="midnightblue" stroke="midnightblue" points="312.5,-85.751 309,-75.7511 305.5,-85.7511 312.5,-85.751"/>
</g>
<!-- Node11 -->
<g id="node11" class="node"><title>Node11</title>
<polygon fill="none" stroke="#bfbfbf" points="357,-56.5 357,-75.5 473,-75.5 473,-56.5 357,-56.5"/>
<text text-anchor="middle" x="415" y="-63.5" font-family="Helvetica,sans-Serif" font-size="10.00">Common/Exceptions.h</text>
</g>
<!-- Node7&#45;&gt;Node11 -->
<g id="edge12" class="edge"><title>Node7&#45;&gt;Node11</title>
<path fill="none" stroke="midnightblue" d="M326.031,-112.324C343.03,-103.664 369.376,-90.2424 388.993,-80.249"/>
<polygon fill="midnightblue" stroke="midnightblue" points="390.69,-83.3125 398.012,-75.6545 387.512,-77.0752 390.69,-83.3125"/>
</g>
<!-- Node12 -->
<g id="node12" class="node"><title>Node12</title>
<g id="a_node12"><a xlink:href="Quality_8h.html" target="_top" xlink:title="QualityControl/Quality.h">
<polygon fill="none" stroke="black" points="140.5,-56.5 140.5,-75.5 261.5,-75.5 261.5,-56.5 140.5,-56.5"/>
<text text-anchor="middle" x="201" y="-63.5" font-family="Helvetica,sans-Serif" font-size="10.00">QualityControl/Quality.h</text>
</a>
</g>
</g>
<!-- Node7&#45;&gt;Node12 -->
<g id="edge13" class="edge"><title>Node7&#45;&gt;Node12</title>
<path fill="none" stroke="midnightblue" d="M291.648,-112.324C274.328,-103.664 247.485,-90.2424 227.498,-80.249"/>
<polygon fill="midnightblue" stroke="midnightblue" points="228.819,-76.9962 218.309,-75.6545 225.688,-83.2572 228.819,-76.9962"/>
</g>
<!-- Node12&#45;&gt;Node4 -->
<g id="edge15" class="edge"><title>Node12&#45;&gt;Node4</title>
<path fill="none" stroke="midnightblue" d="M248.536,-56.4435C310.673,-45.2589 417.745,-25.9859 470.211,-16.542"/>
<polygon fill="midnightblue" stroke="midnightblue" points="471.023,-19.9522 480.245,-14.7359 469.783,-13.0629 471.023,-19.9522"/>
</g>
<!-- Node12&#45;&gt;Node9 -->
<g id="edge14" class="edge"><title>Node12&#45;&gt;Node9</title>
<path fill="none" stroke="midnightblue" d="M189.593,-56.324C178.891,-48.1849 162.659,-35.8395 149.837,-26.0874"/>
<polygon fill="midnightblue" stroke="midnightblue" points="151.693,-23.1018 141.615,-19.8339 147.456,-28.6734 151.693,-23.1018"/>
</g>
</g>
</svg>
