<?xml version="1.0" encoding="UTF-8" standalone="no"?>
<!DOCTYPE svg PUBLIC "-//W3C//DTD SVG 1.1//EN"
 "http://www.w3.org/Graphics/SVG/1.1/DTD/svg11.dtd">
<!-- Generated by graphviz version 2.38.0 (20140413.2041)
 -->
<!-- Title: Modules/EMCAL/src/DigitsQcTask.cxx Pages: 1 -->
<!--zoomable 386 -->
<svg id="main" version="1.1" xmlns="http://www.w3.org/2000/svg" xmlns:xlink="http://www.w3.org/1999/xlink" xml:space="preserve" onload="init(evt)">
<style type="text/css"><![CDATA[
.edge:hover path { stroke: red; }
.edge:hover polygon { stroke: red; fill: red; }
]]></style>
<script type="text/javascript"><![CDATA[
var edges = document.getElementsByTagName('g');
if (edges && edges.length) {
  for (var i=0;i<edges.length;i++) {
    if (edges[i].id.substr(0,4)=='edge') {
      edges[i].setAttribute('class','edge');
    }
  }
}
]]></script>
        <defs>
                <circle id="rim" cx="0" cy="0" r="7"/>
                <circle id="rim2" cx="0" cy="0" r="3.5"/>
                <g id="zoomPlus">
                        <use xlink:href="#rim" fill="#404040">
                                <set attributeName="fill" to="#808080" begin="zoomplus.mouseover" end="zoomplus.mouseout"/>
                        </use>
                        <path d="M-4,0h8M0,-4v8" fill="none" stroke="white" stroke-width="1.5" pointer-events="none"/>
                </g>
                <g id="zoomMin">
                        <use xlink:href="#rim" fill="#404040">
                                <set attributeName="fill" to="#808080" begin="zoomminus.mouseover" end="zoomminus.mouseout"/>
                        </use>
                        <path d="M-4,0h8" fill="none" stroke="white" stroke-width="1.5" pointer-events="none"/>
                </g>
                <g id="dirArrow">
                        <path fill="none" stroke="white" stroke-width="1.5" d="M0,-3.0v7 M-2.5,-0.5L0,-3.0L2.5,-0.5"/>
                </g>
               <g id="resetDef">
                       <use xlink:href="#rim2" fill="#404040">
                               <set attributeName="fill" to="#808080" begin="reset.mouseover" end="reset.mouseout"/>
                       </use>
               </g>
        </defs>

<script type="text/javascript">
var viewWidth = 1225;
var viewHeight = 386;
var sectionId = 'dynsection-0';
</script>
<script xlink:href="svgpan.js"/>
<svg id="graph" class="graph">
<g id="viewport">
<title>Modules/EMCAL/src/DigitsQcTask.cxx</title>
<!-- Node1 -->
<g id="node1" class="node"><title>Node1</title>
<polygon fill="#bfbfbf" stroke="black" points="248.5,-347.5 248.5,-377.5 384.5,-377.5 384.5,-347.5 248.5,-347.5"/>
<text text-anchor="start" x="256.5" y="-365.5" font-family="Helvetica,sans-Serif" font-size="10.00">Modules/EMCAL/src/Digits</text>
<text text-anchor="middle" x="316.5" y="-354.5" font-family="Helvetica,sans-Serif" font-size="10.00">QcTask.cxx</text>
</g>
<!-- Node2 -->
<g id="node2" class="node"><title>Node2</title>
<polygon fill="none" stroke="#bfbfbf" points="0,-286 0,-305 65,-305 65,-286 0,-286"/>
<text text-anchor="middle" x="32.5" y="-293" font-family="Helvetica,sans-Serif" font-size="10.00">TCanvas.h</text>
</g>
<!-- Node1&#45;&gt;Node2 -->
<g id="edge1" class="edge"><title>Node1&#45;&gt;Node2</title>
<path fill="none" stroke="midnightblue" d="M248.406,-349.678C199.609,-340.628 132.528,-327.002 74.5,-311 71.4743,-310.166 68.3495,-309.23 65.2334,-308.247"/>
<polygon fill="midnightblue" stroke="midnightblue" points="66.0355,-304.826 55.4422,-305.008 63.8371,-311.472 66.0355,-304.826"/>
</g>
<!-- Node3 -->
<g id="node3" class="node"><title>Node3</title>
<polygon fill="none" stroke="#bfbfbf" points="83.5,-286 83.5,-305 127.5,-305 127.5,-286 83.5,-286"/>
<text text-anchor="middle" x="105.5" y="-293" font-family="Helvetica,sans-Serif" font-size="10.00">TH2.h</text>
</g>
<!-- Node1&#45;&gt;Node3 -->
<g id="edge2" class="edge"><title>Node1&#45;&gt;Node3</title>
<path fill="none" stroke="midnightblue" d="M256.946,-347.411C221.502,-338.381 175.903,-325.63 136.5,-311 135.073,-310.47 133.62,-309.901 132.163,-309.306"/>
<polygon fill="midnightblue" stroke="midnightblue" points="133.229,-305.952 122.666,-305.14 130.417,-312.362 133.229,-305.952"/>
</g>
<!-- Node4 -->
<g id="node4" class="node"><title>Node4</title>
<polygon fill="none" stroke="#bfbfbf" points="145.5,-280.5 145.5,-310.5 315.5,-310.5 315.5,-280.5 145.5,-280.5"/>
<text text-anchor="start" x="153.5" y="-298.5" font-family="Helvetica,sans-Serif" font-size="10.00">DataFormatsEMCAL/EMCALBlock</text>
<text text-anchor="middle" x="230.5" y="-287.5" font-family="Helvetica,sans-Serif" font-size="10.00">Header.h</text>
</g>
<!-- Node1&#45;&gt;Node4 -->
<g id="edge3" class="edge"><title>Node1&#45;&gt;Node4</title>
<path fill="none" stroke="midnightblue" d="M297.839,-347.396C286.006,-338.452 270.506,-326.737 257.361,-316.802"/>
<polygon fill="midnightblue" stroke="midnightblue" points="259.212,-313.814 249.124,-310.577 254.992,-319.398 259.212,-313.814"/>
</g>
<!-- Node5 -->
<g id="node5" class="node"><title>Node5</title>
<polygon fill="none" stroke="#bfbfbf" points="333.5,-286 333.5,-305 473.5,-305 473.5,-286 333.5,-286"/>
<text text-anchor="middle" x="403.5" y="-293" font-family="Helvetica,sans-Serif" font-size="10.00">DataFormatsEMCAL/Digit.h</text>
</g>
<!-- Node1&#45;&gt;Node5 -->
<g id="edge4" class="edge"><title>Node1&#45;&gt;Node5</title>
<path fill="none" stroke="midnightblue" d="M335.378,-347.396C349.614,-336.759 369.098,-322.203 383.582,-311.381"/>
<polygon fill="midnightblue" stroke="midnightblue" points="385.946,-313.984 391.863,-305.195 381.757,-308.376 385.946,-313.984"/>
</g>
<!-- Node6 -->
<g id="node6" class="node"><title>Node6</title>
<g id="a_node6"><a xlink:href="QcInfoLogger_8h.html" target="_top" xlink:title="QualityControl/QcInfoLogger.h">
<polygon fill="none" stroke="black" points="492,-286 492,-305 641,-305 641,-286 492,-286"/>
<text text-anchor="middle" x="566.5" y="-293" font-family="Helvetica,sans-Serif" font-size="10.00">QualityControl/QcInfoLogger.h</text>
</a>
</g>
</g>
<!-- Node1&#45;&gt;Node6 -->
<g id="edge5" class="edge"><title>Node1&#45;&gt;Node6</title>
<path fill="none" stroke="midnightblue" d="M370.438,-347.476C416.418,-335.521 481.605,-318.573 523.97,-307.558"/>
<polygon fill="midnightblue" stroke="midnightblue" points="524.9,-310.932 533.697,-305.029 523.138,-304.158 524.9,-310.932"/>
</g>
<!-- Node23 -->
<g id="node23" class="node"><title>Node23</title>
<g id="a_node23"><a xlink:href="DigitsQcTask_8h.html" target="_top" xlink:title="EMCAL/DigitsQcTask.h">
<polygon fill="none" stroke="black" points="659.5,-286 659.5,-305 781.5,-305 781.5,-286 659.5,-286"/>
<text text-anchor="middle" x="720.5" y="-293" font-family="Helvetica,sans-Serif" font-size="10.00">EMCAL/DigitsQcTask.h</text>
</a>
</g>
</g>
<!-- Node1&#45;&gt;Node23 -->
<g id="edge31" class="edge"><title>Node1&#45;&gt;Node23</title>
<path fill="none" stroke="midnightblue" d="M384.804,-352.277C452.435,-342.885 558.858,-327.407 650.5,-311 657.231,-309.795 664.306,-308.437 671.267,-307.048"/>
<polygon fill="midnightblue" stroke="midnightblue" points="672.225,-310.425 681.329,-305.004 670.832,-303.565 672.225,-310.425"/>
</g>
<!-- Node7 -->
<g id="node7" class="node"><title>Node7</title>
<polygon fill="none" stroke="#bfbfbf" points="497.5,-224.5 497.5,-243.5 627.5,-243.5 627.5,-224.5 497.5,-224.5"/>
<text text-anchor="middle" x="562.5" y="-231.5" font-family="Helvetica,sans-Serif" font-size="10.00">InfoLogger/InfoLogger.hxx</text>
</g>
<!-- Node6&#45;&gt;Node7 -->
<g id="edge6" class="edge"><title>Node6&#45;&gt;Node7</title>
<path fill="none" stroke="midnightblue" d="M565.927,-285.975C565.363,-277.58 564.482,-264.481 563.755,-253.663"/>
<polygon fill="midnightblue" stroke="midnightblue" points="567.235,-253.252 563.072,-243.509 560.251,-253.721 567.235,-253.252"/>
</g>
<!-- Node8 -->
<g id="node8" class="node"><title>Node8</title>
<g id="a_node8"><a xlink:href="TaskInterface_8h.html" target="_top" xlink:title="QualityControl/TaskInterface.h">
<polygon fill="none" stroke="black" points="645.5,-224.5 645.5,-243.5 795.5,-243.5 795.5,-224.5 645.5,-224.5"/>
<text text-anchor="middle" x="720.5" y="-231.5" font-family="Helvetica,sans-Serif" font-size="10.00">QualityControl/TaskInterface.h</text>
</a>
</g>
</g>
<!-- Node6&#45;&gt;Node8 -->
<g id="edge7" class="edge"><title>Node6&#45;&gt;Node8</title>
<path fill="none" stroke="midnightblue" d="M588.564,-285.975C614.867,-275.813 659.013,-258.756 688.925,-247.2"/>
<polygon fill="midnightblue" stroke="midnightblue" points="690.41,-250.378 698.476,-243.509 687.887,-243.848 690.41,-250.378"/>
</g>
<!-- Node9 -->
<g id="node9" class="node"><title>Node9</title>
<polygon fill="none" stroke="#bfbfbf" points="187,-56.5 187,-75.5 222,-75.5 222,-56.5 187,-56.5"/>
<text text-anchor="middle" x="204.5" y="-63.5" font-family="Helvetica,sans-Serif" font-size="10.00">map</text>
</g>
<!-- Node8&#45;&gt;Node9 -->
<g id="edge8" class="edge"><title>Node8&#45;&gt;Node9</title>
<path fill="none" stroke="midnightblue" d="M645.329,-225.049C588.676,-218.055 509.406,-206.124 441.5,-188 373.55,-169.864 355.345,-165.487 293.5,-132 267.137,-117.725 239.704,-96.5744 222.388,-82.3121"/>
<polygon fill="midnightblue" stroke="midnightblue" points="224.228,-79.2888 214.313,-75.5547 219.736,-84.6569 224.228,-79.2888"/>
</g>
<!-- Node10 -->
<g id="node10" class="node"><title>Node10</title>
<polygon fill="none" stroke="#bfbfbf" points="667.5,-112.5 667.5,-131.5 719.5,-131.5 719.5,-112.5 667.5,-112.5"/>
<text text-anchor="middle" x="693.5" y="-119.5" font-family="Helvetica,sans-Serif" font-size="10.00">memory</text>
</g>
<!-- Node8&#45;&gt;Node10 -->
<g id="edge9" class="edge"><title>Node8&#45;&gt;Node10</title>
<path fill="none" stroke="midnightblue" d="M718.381,-224.368C714.024,-206.617 703.973,-165.666 698.065,-141.597"/>
<polygon fill="midnightblue" stroke="midnightblue" points="701.392,-140.469 695.609,-131.591 694.594,-142.137 701.392,-140.469"/>
</g>
<!-- Node11 -->
<g id="node11" class="node"><title>Node11</title>
<polygon fill="none" stroke="#bfbfbf" points="441,-0.5 441,-19.5 482,-19.5 482,-0.5 441,-0.5"/>
<text text-anchor="middle" x="461.5" y="-7.5" font-family="Helvetica,sans-Serif" font-size="10.00">string</text>
</g>
<!-- Node8&#45;&gt;Node11 -->
<g id="edge10" class="edge"><title>Node8&#45;&gt;Node11</title>
<path fill="none" stroke="midnightblue" d="M645.422,-224.817C549.693,-214.168 393.405,-195.981 367.5,-188 315.072,-171.848 305.07,-159.326 257.5,-132 217.626,-109.095 192.523,-116.367 170.5,-76 166.243,-68.1969 164.715,-62.7486 170.5,-56 203.819,-17.1325 363.122,-11.5378 430.884,-10.9436"/>
<polygon fill="midnightblue" stroke="midnightblue" points="430.96,-14.4434 440.94,-10.8869 430.92,-7.44348 430.96,-14.4434"/>
</g>
<!-- Node12 -->
<g id="node12" class="node"><title>Node12</title>
<polygon fill="none" stroke="#bfbfbf" points="706,-56.5 706,-75.5 789,-75.5 789,-56.5 706,-56.5"/>
<text text-anchor="middle" x="747.5" y="-63.5" font-family="Helvetica,sans-Serif" font-size="10.00">unordered_map</text>
</g>
<!-- Node8&#45;&gt;Node12 -->
<g id="edge11" class="edge"><title>Node8&#45;&gt;Node12</title>
<path fill="none" stroke="midnightblue" d="M721.952,-224.075C726.202,-197.945 738.683,-121.211 744.478,-85.577"/>
<polygon fill="midnightblue" stroke="midnightblue" points="747.956,-86.0003 746.106,-75.5681 741.046,-84.8765 747.956,-86.0003"/>
</g>
<!-- Node13 -->
<g id="node13" class="node"><title>Node13</title>
<polygon fill="none" stroke="#bfbfbf" points="772,-168.5 772,-187.5 897,-187.5 897,-168.5 772,-168.5"/>
<text text-anchor="middle" x="834.5" y="-175.5" font-family="Helvetica,sans-Serif" font-size="10.00">Framework/InitContext.h</text>
</g>
<!-- Node8&#45;&gt;Node13 -->
<g id="edge12" class="edge"><title>Node8&#45;&gt;Node13</title>
<path fill="none" stroke="midnightblue" d="M738.564,-224.444C757.075,-215.675 786.081,-201.935 807.355,-191.858"/>
<polygon fill="midnightblue" stroke="midnightblue" points="808.982,-194.96 816.521,-187.516 805.985,-188.634 808.982,-194.96"/>
</g>
<!-- Node14 -->
<g id="node14" class="node"><title>Node14</title>
<polygon fill="none" stroke="#bfbfbf" points="915.5,-168.5 915.5,-187.5 1075.5,-187.5 1075.5,-168.5 915.5,-168.5"/>
<text text-anchor="middle" x="995.5" y="-175.5" font-family="Helvetica,sans-Serif" font-size="10.00">Framework/ProcessingContext.h</text>
</g>
<!-- Node8&#45;&gt;Node14 -->
<g id="edge13" class="edge"><title>Node8&#45;&gt;Node14</title>
<path fill="none" stroke="midnightblue" d="M764.075,-224.444C812.349,-214.964 890.212,-199.675 942.112,-189.483"/>
<polygon fill="midnightblue" stroke="midnightblue" points="942.991,-192.878 952.129,-187.516 941.642,-186.009 942.991,-192.878"/>
</g>
<!-- Node15 -->
<g id="node15" class="node"><title>Node15</title>
<g id="a_node15"><a xlink:href="Activity_8h.html" target="_top" xlink:title="QualityControl/Activity.h">
<polygon fill="none" stroke="black" points="1094,-168.5 1094,-187.5 1217,-187.5 1217,-168.5 1094,-168.5"/>
<text text-anchor="middle" x="1155.5" y="-175.5" font-family="Helvetica,sans-Serif" font-size="10.00">QualityControl/Activity.h</text>
</a>
</g>
</g>
<!-- Node8&#45;&gt;Node15 -->
<g id="edge14" class="edge"><title>Node8&#45;&gt;Node15</title>
<path fill="none" stroke="midnightblue" d="M789.95,-224.479C860.985,-215.748 974.836,-201.715 1083.74,-188.091"/>
<polygon fill="midnightblue" stroke="midnightblue" points="1084.44,-191.532 1093.93,-186.817 1083.57,-184.586 1084.44,-191.532"/>
</g>
<!-- Node16 -->
<g id="node16" class="node"><title>Node16</title>
<g id="a_node16"><a xlink:href="ObjectsManager_8h.html" target="_top" xlink:title="QualityControl/ObjectsManager.h">
<polygon fill="none" stroke="black" points="450,-168.5 450,-187.5 611,-187.5 611,-168.5 450,-168.5"/>
<text text-anchor="middle" x="530.5" y="-175.5" font-family="Helvetica,sans-Serif" font-size="10.00">QualityControl/ObjectsManager.h</text>
</a>
</g>
</g>
<!-- Node8&#45;&gt;Node16 -->
<g id="edge15" class="edge"><title>Node8&#45;&gt;Node16</title>
<path fill="none" stroke="midnightblue" d="M690.394,-224.444C657.874,-215.201 605.921,-200.436 570.109,-190.257"/>
<polygon fill="midnightblue" stroke="midnightblue" points="571.041,-186.884 560.465,-187.516 569.127,-193.617 571.041,-186.884"/>
</g>
<!-- Node16&#45;&gt;Node10 -->
<g id="edge30" class="edge"><title>Node16&#45;&gt;Node10</title>
<path fill="none" stroke="midnightblue" d="M556.328,-168.444C583.749,-159.359 627.277,-144.939 657.932,-134.783"/>
<polygon fill="midnightblue" stroke="midnightblue" points="659.401,-137.984 667.793,-131.516 657.2,-131.339 659.401,-137.984"/>
</g>
<!-- Node16&#45;&gt;Node11 -->
<g id="edge29" class="edge"><title>Node16&#45;&gt;Node11</title>
<path fill="none" stroke="midnightblue" d="M464.091,-168.485C370.577,-154.867 208.041,-124.658 177.5,-76 172.774,-68.4713 171.727,-62.7594 177.5,-56 209.746,-18.2429 363.361,-11.9928 430.254,-11.0827"/>
<polygon fill="midnightblue" stroke="midnightblue" points="430.62,-14.5792 440.584,-10.9758 430.548,-7.57955 430.62,-14.5792"/>
</g>
<!-- Node17 -->
<g id="node17" class="node"><title>Node17</title>
<g id="a_node17"><a xlink:href="MonitorObject_8h.html" target="_top" xlink:title="QualityControl/MonitorObject.h">
<polygon fill="none" stroke="black" points="302,-112.5 302,-131.5 453,-131.5 453,-112.5 302,-112.5"/>
<text text-anchor="middle" x="377.5" y="-119.5" font-family="Helvetica,sans-Serif" font-size="10.00">QualityControl/MonitorObject.h</text>
</a>
</g>
</g>
<!-- Node16&#45;&gt;Node17 -->
<g id="edge16" class="edge"><title>Node16&#45;&gt;Node17</title>
<path fill="none" stroke="midnightblue" d="M506.257,-168.444C480.629,-159.399 440.015,-145.064 411.262,-134.916"/>
<polygon fill="midnightblue" stroke="midnightblue" points="412.225,-131.544 401.63,-131.516 409.895,-138.145 412.225,-131.544"/>
</g>
<!-- Node21 -->
<g id="node21" class="node"><title>Node21</title>
<g id="a_node21"><a xlink:href="Quality_8h.html" target="_top" xlink:title="QualityControl/Quality.h">
<polygon fill="none" stroke="black" points="490,-56.5 490,-75.5 611,-75.5 611,-56.5 490,-56.5"/>
<text text-anchor="middle" x="550.5" y="-63.5" font-family="Helvetica,sans-Serif" font-size="10.00">QualityControl/Quality.h</text>
</a>
</g>
</g>
<!-- Node16&#45;&gt;Node21 -->
<g id="edge25" class="edge"><title>Node16&#45;&gt;Node21</title>
<path fill="none" stroke="midnightblue" d="M521.335,-168.203C509.519,-155.74 491.5,-132.209 500.5,-112 506.068,-99.4981 517.016,-89.0124 527.251,-81.3167"/>
<polygon fill="midnightblue" stroke="midnightblue" points="529.351,-84.1193 535.548,-75.5256 525.344,-78.3794 529.351,-84.1193"/>
</g>
<!-- Node22 -->
<g id="node22" class="node"><title>Node22</title>
<g id="a_node22"><a xlink:href="TaskConfig_8h.html" target="_top" xlink:title="QualityControl/TaskConfig.h">
<polygon fill="none" stroke="black" points="509.5,-112.5 509.5,-131.5 649.5,-131.5 649.5,-112.5 509.5,-112.5"/>
<text text-anchor="middle" x="579.5" y="-119.5" font-family="Helvetica,sans-Serif" font-size="10.00">QualityControl/TaskConfig.h</text>
</a>
</g>
</g>
<!-- Node16&#45;&gt;Node22 -->
<g id="edge26" class="edge"><title>Node16&#45;&gt;Node22</title>
<path fill="none" stroke="midnightblue" d="M538.591,-168.083C545.655,-160.298 556.088,-148.801 564.649,-139.367"/>
<polygon fill="midnightblue" stroke="midnightblue" points="567.431,-141.509 571.559,-131.751 562.247,-136.805 567.431,-141.509"/>
</g>
<!-- Node17&#45;&gt;Node9 -->
<g id="edge18" class="edge"><title>Node17&#45;&gt;Node9</title>
<path fill="none" stroke="midnightblue" d="M349.178,-112.479C321.618,-104.142 278.329,-90.9265 231.848,-76.0592"/>
<polygon fill="midnightblue" stroke="midnightblue" points="232.791,-72.6862 222.2,-72.964 230.653,-79.3516 232.791,-72.6862"/>
</g>
<!-- Node17&#45;&gt;Node11 -->
<g id="edge17" class="edge"><title>Node17&#45;&gt;Node11</title>
<path fill="none" stroke="midnightblue" d="M396.398,-112.373C411.018,-104.773 430.698,-92.3641 442.5,-76 452.279,-62.4414 457.056,-43.8923 459.371,-30.0791"/>
<polygon fill="midnightblue" stroke="midnightblue" points="462.889,-30.1886 460.793,-19.8033 455.955,-29.2294 462.889,-30.1886"/>
</g>
<!-- Node18 -->
<g id="node18" class="node"><title>Node18</title>
<polygon fill="none" stroke="#bfbfbf" points="585.5,-0.5 585.5,-19.5 641.5,-19.5 641.5,-0.5 585.5,-0.5"/>
<text text-anchor="middle" x="613.5" y="-7.5" font-family="Helvetica,sans-Serif" font-size="10.00">Rtypes.h</text>
</g>
<!-- Node17&#45;&gt;Node18 -->
<g id="edge19" class="edge"><title>Node17&#45;&gt;Node18</title>
<path fill="none" stroke="midnightblue" d="M448.492,-112.493C516.191,-103.652 609.456,-89.2764 620.5,-76 631.247,-63.0804 627.221,-43.3622 621.915,-29.0313"/>
<polygon fill="midnightblue" stroke="midnightblue" points="625.109,-27.5957 618.019,-19.7226 618.652,-30.2986 625.109,-27.5957"/>
</g>
<!-- Node19 -->
<g id="node19" class="node"><title>Node19</title>
<polygon fill="none" stroke="#bfbfbf" points="240,-56.5 240,-75.5 299,-75.5 299,-56.5 240,-56.5"/>
<text text-anchor="middle" x="269.5" y="-63.5" font-family="Helvetica,sans-Serif" font-size="10.00">TObject.h</text>
</g>
<!-- Node17&#45;&gt;Node19 -->
<g id="edge20" class="edge"><title>Node17&#45;&gt;Node19</title>
<path fill="none" stroke="midnightblue" d="M360.148,-112.324C342.828,-103.664 315.985,-90.2424 295.998,-80.249"/>
<polygon fill="midnightblue" stroke="midnightblue" points="297.319,-76.9962 286.809,-75.6545 294.188,-83.2572 297.319,-76.9962"/>
</g>
<!-- Node20 -->
<g id="node20" class="node"><title>Node20</title>
<polygon fill="none" stroke="#bfbfbf" points="317.5,-56.5 317.5,-75.5 433.5,-75.5 433.5,-56.5 317.5,-56.5"/>
<text text-anchor="middle" x="375.5" y="-63.5" font-family="Helvetica,sans-Serif" font-size="10.00">Common/Exceptions.h</text>
</g>
<!-- Node17&#45;&gt;Node20 -->
<g id="edge21" class="edge"><title>Node17&#45;&gt;Node20</title>
<path fill="none" stroke="midnightblue" d="M377.17,-112.083C376.908,-105.006 376.532,-94.8611 376.203,-85.9865"/>
<polygon fill="midnightblue" stroke="midnightblue" points="379.692,-85.6147 375.824,-75.7511 372.697,-85.8738 379.692,-85.6147"/>
</g>
<!-- Node17&#45;&gt;Node21 -->
<g id="edge22" class="edge"><title>Node17&#45;&gt;Node21</title>
<path fill="none" stroke="midnightblue" d="M404.912,-112.444C434.269,-103.28 481.019,-88.6876 513.596,-78.5192"/>
<polygon fill="midnightblue" stroke="midnightblue" points="514.713,-81.8371 523.216,-75.5164 512.627,-75.1551 514.713,-81.8371"/>
</g>
<!-- Node21&#45;&gt;Node11 -->
<g id="edge24" class="edge"><title>Node21&#45;&gt;Node11</title>
<path fill="none" stroke="midnightblue" d="M536.201,-56.324C522.317,-47.9002 501.008,-34.9709 484.696,-25.0741"/>
<polygon fill="midnightblue" stroke="midnightblue" points="486.129,-21.8495 475.764,-19.6545 482.498,-27.8341 486.129,-21.8495"/>
</g>
<!-- Node21&#45;&gt;Node18 -->
<g id="edge23" class="edge"><title>Node21&#45;&gt;Node18</title>
<path fill="none" stroke="midnightblue" d="M560.622,-56.324C570.026,-48.2631 584.244,-36.0765 595.569,-26.3695"/>
<polygon fill="midnightblue" stroke="midnightblue" points="597.879,-28.9993 603.194,-19.8339 593.323,-23.6844 597.879,-28.9993"/>
</g>
<!-- Node22&#45;&gt;Node11 -->
<g id="edge27" class="edge"><title>Node22&#45;&gt;Node11</title>
<path fill="none" stroke="midnightblue" d="M591.746,-112.492C608.539,-99.779 635.067,-75.2613 620.5,-56 605.026,-35.5387 533.572,-21.7038 491.906,-15.2231"/>
<polygon fill="midnightblue" stroke="midnightblue" points="492.417,-11.7606 482.007,-13.7343 491.376,-18.6827 492.417,-11.7606"/>
</g>
<!-- Node22&#45;&gt;Node12 -->
<g id="edge28" class="edge"><title>Node22&#45;&gt;Node12</title>
<path fill="none" stroke="midnightblue" d="M606.12,-112.444C634.506,-103.32 679.637,-88.8133 711.253,-78.6509"/>
<polygon fill="midnightblue" stroke="midnightblue" points="712.555,-81.9087 721.004,-75.5164 710.413,-75.2445 712.555,-81.9087"/>
</g>
<!-- Node23&#45;&gt;Node8 -->
<g id="edge32" class="edge"><title>Node23&#45;&gt;Node8</title>
<path fill="none" stroke="midnightblue" d="M720.5,-285.975C720.5,-277.58 720.5,-264.481 720.5,-253.663"/>
<polygon fill="midnightblue" stroke="midnightblue" points="724,-253.509 720.5,-243.509 717,-253.509 724,-253.509"/>
</g>
</g>
</svg>
        <g id="navigator" transform="translate(0 0)" fill="#404254">
                <rect fill="#f2f5e9" fill-opacity="0.5" stroke="#606060" stroke-width=".5" x="0" y="0" width="60" height="60"/>
                <use id="zoomplus" xlink:href="#zoomPlus" x="17" y="9" onmousedown="handleZoom(evt,'in')"/>
                <use id="zoomminus" xlink:href="#zoomMin" x="42" y="9" onmousedown="handleZoom(evt,'out')"/>
                <use id="reset" xlink:href="#resetDef" x="30" y="36" onmousedown="handleReset()"/>
                <g id="arrowUp" xlink:href="#dirArrow" transform="translate(30 24)" onmousedown="handlePan(0,-1)">
                  <use xlink:href="#rim" fill="#404040">
                        <set attributeName="fill" to="#808080" begin="arrowUp.mouseover" end="arrowUp.mouseout"/>
                  </use>
                  <path fill="none" stroke="white" stroke-width="1.5" d="M0,-3.0v7 M-2.5,-0.5L0,-3.0L2.5,-0.5"/>
                </g>
                <g id="arrowRight" xlink:href="#dirArrow" transform="rotate(90) translate(36 -43)" onmousedown="handlePan(1,0)">
                  <use xlink:href="#rim" fill="#404040">
                        <set attributeName="fill" to="#808080" begin="arrowRight.mouseover" end="arrowRight.mouseout"/>
                  </use>
                  <path fill="none" stroke="white" stroke-width="1.5" d="M0,-3.0v7 M-2.5,-0.5L0,-3.0L2.5,-0.5"/>
                </g>
                <g id="arrowDown" xlink:href="#dirArrow" transform="rotate(180) translate(-30 -48)" onmousedown="handlePan(0,1)">
                  <use xlink:href="#rim" fill="#404040">
                        <set attributeName="fill" to="#808080" begin="arrowDown.mouseover" end="arrowDown.mouseout"/>
                  </use>
                  <path fill="none" stroke="white" stroke-width="1.5" d="M0,-3.0v7 M-2.5,-0.5L0,-3.0L2.5,-0.5"/>
                </g>
                <g id="arrowLeft" xlink:href="#dirArrow" transform="rotate(270) translate(-36 17)" onmousedown="handlePan(-1,0)">
                  <use xlink:href="#rim" fill="#404040">
                        <set attributeName="fill" to="#808080" begin="arrowLeft.mouseover" end="arrowLeft.mouseout"/>
                  </use>
                  <path fill="none" stroke="white" stroke-width="1.5" d="M0,-3.0v7 M-2.5,-0.5L0,-3.0L2.5,-0.5"/>
                </g>
        </g>
        <svg viewBox="0 0 15 15" width="100%" height="30px" preserveAspectRatio="xMaxYMin meet">
         <g id="arrow_out" transform="scale(0.3 0.3)">
          <a xlink:href="DigitsQcTask_8cxx__incl_org.svg" target="_base">
           <rect id="button" ry="5" rx="5" y="6" x="6" height="38" width="38"
                fill="#f2f5e9" fill-opacity="0.5" stroke="#606060" stroke-width="1.0"/>
           <path id="arrow"
             d="M 11.500037,31.436501 C 11.940474,20.09759 22.043105,11.32322 32.158766,21.979434 L 37.068811,17.246167 C 37.068811,17.246167 37.088388,32 37.088388,32 L 22.160133,31.978069 C 22.160133,31.978069 26.997745,27.140456 26.997745,27.140456 C 18.528582,18.264221 13.291696,25.230495 11.500037,31.436501 z"
             style="fill:#404040;"/>
          </a>
         </g>
        </svg>
</svg>
