<?xml version="1.0" encoding="UTF-8" standalone="no"?>
<!DOCTYPE svg PUBLIC "-//W3C//DTD SVG 1.1//EN"
 "http://www.w3.org/Graphics/SVG/1.1/DTD/svg11.dtd">
<!-- Generated by graphviz version 2.38.0 (20140413.2041)
 -->
<!-- Title: Modules/Daq/include/Daq/EverIncreasingGraph.h Pages: 1 -->
<svg width="494pt" height="263pt"
 viewBox="0.00 0.00 494.48 263.00" xmlns="http://www.w3.org/2000/svg" xmlns:xlink="http://www.w3.org/1999/xlink">
<g id="graph0" class="graph" transform="scale(1 1) rotate(0) translate(4 259)">
<title>Modules/Daq/include/Daq/EverIncreasingGraph.h</title>
<!-- Node1 -->
<g id="node1" class="node"><title>Node1</title>
<polygon fill="#bfbfbf" stroke="black" points="191.5,-224.5 191.5,-254.5 331.5,-254.5 331.5,-224.5 191.5,-224.5"/>
<text text-anchor="start" x="199.5" y="-242.5" font-family="Helvetica,sans-Serif" font-size="10.00">Modules/Daq/include</text>
<text text-anchor="middle" x="261.5" y="-231.5" font-family="Helvetica,sans-Serif" font-size="10.00">/Daq/EverIncreasingGraph.h</text>
</g>
<!-- Node2 -->
<g id="node2" class="node"><title>Node2</title>
<polygon fill="none" stroke="#bfbfbf" points="129,-168.5 129,-187.5 242,-187.5 242,-168.5 129,-168.5"/>
<text text-anchor="middle" x="185.5" y="-175.5" font-family="Helvetica,sans-Serif" font-size="10.00">Common/DataBlock.h</text>
</g>
<!-- Node1&#45;&gt;Node2 -->
<g id="edge1" class="edge"><title>Node1&#45;&gt;Node2</title>
<path fill="none" stroke="midnightblue" d="M243.489,-224.399C231.762,-215.218 216.485,-203.258 204.555,-193.918"/>
<polygon fill="midnightblue" stroke="midnightblue" points="206.59,-191.066 196.559,-187.658 202.275,-196.578 206.59,-191.066"/>
</g>
<!-- Node3 -->
<g id="node3" class="node"><title>Node3</title>
<g id="a_node3"><a xlink:href="CheckInterface_8h.html" target="_top" xlink:title="QualityControl/CheckInterface.h">
<polygon fill="none" stroke="black" points="260,-168.5 260,-187.5 417,-187.5 417,-168.5 260,-168.5"/>
<text text-anchor="middle" x="338.5" y="-175.5" font-family="Helvetica,sans-Serif" font-size="10.00">QualityControl/CheckInterface.h</text>
</a>
</g>
</g>
<!-- Node1&#45;&gt;Node3 -->
<g id="edge2" class="edge"><title>Node1&#45;&gt;Node3</title>
<path fill="none" stroke="midnightblue" d="M279.748,-224.399C291.629,-215.218 307.107,-203.258 319.194,-193.918"/>
<polygon fill="midnightblue" stroke="midnightblue" points="321.523,-196.542 327.296,-187.658 317.243,-191.003 321.523,-196.542"/>
</g>
<!-- Node4 -->
<g id="node4" class="node"><title>Node4</title>
<polygon fill="none" stroke="#bfbfbf" points="0,-0.5 0,-19.5 41,-19.5 41,-0.5 0,-0.5"/>
<text text-anchor="middle" x="20.5" y="-7.5" font-family="Helvetica,sans-Serif" font-size="10.00">string</text>
</g>
<!-- Node3&#45;&gt;Node4 -->
<g id="edge3" class="edge"><title>Node3&#45;&gt;Node4</title>
<path fill="none" stroke="midnightblue" d="M290.222,-168.448C210.312,-153.221 56.0991,-118.94 23.5,-76 13.5826,-62.9366 13.9493,-43.7837 16.125,-29.6503"/>
<polygon fill="midnightblue" stroke="midnightblue" points="19.6053,-30.0907 18.0958,-19.6039 12.7362,-28.7431 19.6053,-30.0907"/>
</g>
<!-- Node5 -->
<g id="node5" class="node"><title>Node5</title>
<polygon fill="none" stroke="#bfbfbf" points="385.5,-0.5 385.5,-19.5 441.5,-19.5 441.5,-0.5 385.5,-0.5"/>
<text text-anchor="middle" x="413.5" y="-7.5" font-family="Helvetica,sans-Serif" font-size="10.00">Rtypes.h</text>
</g>
<!-- Node3&#45;&gt;Node5 -->
<g id="edge4" class="edge"><title>Node3&#45;&gt;Node5</title>
<path fill="none" stroke="midnightblue" d="M362.778,-168.41C396.979,-154.83 458.012,-124.815 483.5,-76 495.02,-53.9371 468.975,-35.4034 445.451,-23.8436"/>
<polygon fill="midnightblue" stroke="midnightblue" points="446.855,-20.637 436.31,-19.6168 443.917,-26.9906 446.855,-20.637"/>
</g>
<!-- Node6 -->
<g id="node6" class="node"><title>Node6</title>
<g id="a_node6"><a xlink:href="MonitorObject_8h.html" target="_top" xlink:title="QualityControl/MonitorObject.h">
<polygon fill="none" stroke="black" points="203,-112.5 203,-131.5 354,-131.5 354,-112.5 203,-112.5"/>
<text text-anchor="middle" x="278.5" y="-119.5" font-family="Helvetica,sans-Serif" font-size="10.00">QualityControl/MonitorObject.h</text>
</a>
</g>
</g>
<!-- Node3&#45;&gt;Node6 -->
<g id="edge5" class="edge"><title>Node3&#45;&gt;Node6</title>
<path fill="none" stroke="midnightblue" d="M328.86,-168.324C319.99,-160.341 306.625,-148.313 295.892,-138.653"/>
<polygon fill="midnightblue" stroke="midnightblue" points="298.09,-135.922 288.315,-131.834 293.407,-141.125 298.09,-135.922"/>
</g>
<!-- Node10 -->
<g id="node10" class="node"><title>Node10</title>
<g id="a_node10"><a xlink:href="Quality_8h.html" target="_top" xlink:title="QualityControl/Quality.h">
<polygon fill="none" stroke="black" points="353,-56.5 353,-75.5 474,-75.5 474,-56.5 353,-56.5"/>
<text text-anchor="middle" x="413.5" y="-63.5" font-family="Helvetica,sans-Serif" font-size="10.00">QualityControl/Quality.h</text>
</a>
</g>
</g>
<!-- Node3&#45;&gt;Node10 -->
<g id="edge14" class="edge"><title>Node3&#45;&gt;Node10</title>
<path fill="none" stroke="midnightblue" d="M344.385,-168.368C356.762,-150.215 385.681,-107.802 401.916,-83.9902"/>
<polygon fill="midnightblue" stroke="midnightblue" points="404.901,-85.8254 407.642,-75.5914 399.117,-81.882 404.901,-85.8254"/>
</g>
<!-- Node6&#45;&gt;Node4 -->
<g id="edge6" class="edge"><title>Node6&#45;&gt;Node4</title>
<path fill="none" stroke="midnightblue" d="M202.783,-115.303C142.028,-109.216 63.1209,-97.4065 39.5,-76 26.5876,-64.2981 22.2581,-44.3574 20.9013,-29.6408"/>
<polygon fill="midnightblue" stroke="midnightblue" points="24.3946,-29.4207 20.3503,-19.6282 17.4052,-29.8054 24.3946,-29.4207"/>
</g>
<!-- Node6&#45;&gt;Node5 -->
<g id="edge8" class="edge"><title>Node6&#45;&gt;Node5</title>
<path fill="none" stroke="midnightblue" d="M286.141,-112.447C297.961,-99.4647 321.701,-74.3552 344.5,-56 358.801,-44.4865 376.11,-33.2042 389.815,-24.8165"/>
<polygon fill="midnightblue" stroke="midnightblue" points="391.88,-27.6587 398.645,-19.5048 388.272,-21.6603 391.88,-27.6587"/>
</g>
<!-- Node7 -->
<g id="node7" class="node"><title>Node7</title>
<polygon fill="none" stroke="#bfbfbf" points="261,-56.5 261,-75.5 296,-75.5 296,-56.5 261,-56.5"/>
<text text-anchor="middle" x="278.5" y="-63.5" font-family="Helvetica,sans-Serif" font-size="10.00">map</text>
</g>
<!-- Node6&#45;&gt;Node7 -->
<g id="edge7" class="edge"><title>Node6&#45;&gt;Node7</title>
<path fill="none" stroke="midnightblue" d="M278.5,-112.083C278.5,-105.006 278.5,-94.8611 278.5,-85.9865"/>
<polygon fill="midnightblue" stroke="midnightblue" points="282,-85.751 278.5,-75.7511 275,-85.7511 282,-85.751"/>
</g>
<!-- Node8 -->
<g id="node8" class="node"><title>Node8</title>
<polygon fill="none" stroke="#bfbfbf" points="49,-56.5 49,-75.5 108,-75.5 108,-56.5 49,-56.5"/>
<text text-anchor="middle" x="78.5" y="-63.5" font-family="Helvetica,sans-Serif" font-size="10.00">TObject.h</text>
</g>
<!-- Node6&#45;&gt;Node8 -->
<g id="edge9" class="edge"><title>Node6&#45;&gt;Node8</title>
<path fill="none" stroke="midnightblue" d="M246.809,-112.444C211.974,-103.038 155.954,-87.9127 118.214,-77.7227"/>
<polygon fill="midnightblue" stroke="midnightblue" points="118.653,-74.216 108.086,-74.9883 116.828,-80.974 118.653,-74.216"/>
</g>
<!-- Node9 -->
<g id="node9" class="node"><title>Node9</title>
<polygon fill="none" stroke="#bfbfbf" points="126.5,-56.5 126.5,-75.5 242.5,-75.5 242.5,-56.5 126.5,-56.5"/>
<text text-anchor="middle" x="184.5" y="-63.5" font-family="Helvetica,sans-Serif" font-size="10.00">Common/Exceptions.h</text>
</g>
<!-- Node6&#45;&gt;Node9 -->
<g id="edge10" class="edge"><title>Node6&#45;&gt;Node9</title>
<path fill="none" stroke="midnightblue" d="M263.397,-112.324C248.597,-103.822 225.806,-90.7288 208.518,-80.7975"/>
<polygon fill="midnightblue" stroke="midnightblue" points="209.98,-77.6009 199.565,-75.6545 206.493,-83.6707 209.98,-77.6009"/>
</g>
<!-- Node6&#45;&gt;Node10 -->
<g id="edge11" class="edge"><title>Node6&#45;&gt;Node10</title>
<path fill="none" stroke="midnightblue" d="M299.891,-112.444C322.207,-103.517 357.403,-89.4387 382.708,-79.3168"/>
<polygon fill="midnightblue" stroke="midnightblue" points="384.224,-82.4801 392.209,-75.5164 381.624,-75.9807 384.224,-82.4801"/>
</g>
<!-- Node10&#45;&gt;Node4 -->
<g id="edge13" class="edge"><title>Node10&#45;&gt;Node4</title>
<path fill="none" stroke="midnightblue" d="M352.955,-56.6808C267.905,-44.9945 116.205,-24.1502 51.3192,-15.2347"/>
<polygon fill="midnightblue" stroke="midnightblue" points="51.6996,-11.7542 41.3163,-13.8602 50.7467,-18.689 51.6996,-11.7542"/>
</g>
<!-- Node10&#45;&gt;Node5 -->
<g id="edge12" class="edge"><title>Node10&#45;&gt;Node5</title>
<path fill="none" stroke="midnightblue" d="M413.5,-56.083C413.5,-49.0059 413.5,-38.8611 413.5,-29.9865"/>
<polygon fill="midnightblue" stroke="midnightblue" points="417,-29.751 413.5,-19.7511 410,-29.7511 417,-29.751"/>
</g>
</g>
</svg>
