<?xml version="1.0" encoding="UTF-8" standalone="no"?>
<!DOCTYPE svg PUBLIC "-//W3C//DTD SVG 1.1//EN"
 "http://www.w3.org/Graphics/SVG/1.1/DTD/svg11.dtd">
<!-- Generated by graphviz version 2.38.0 (20140413.2041)
 -->
<!-- Title: Modules/Daq/src/EverIncreasingGraph.cxx Pages: 1 -->
<svg width="756pt" height="319pt"
 viewBox="0.00 0.00 755.55 319.00" xmlns="http://www.w3.org/2000/svg" xmlns:xlink="http://www.w3.org/1999/xlink">
<g id="graph0" class="graph" transform="scale(1 1) rotate(0) translate(4 315)">
<title>Modules/Daq/src/EverIncreasingGraph.cxx</title>
<!-- Node1 -->
<g id="node1" class="node"><title>Node1</title>
<polygon fill="#bfbfbf" stroke="black" points="383.551,-280.5 383.551,-310.5 542.551,-310.5 542.551,-280.5 383.551,-280.5"/>
<text text-anchor="start" x="391.551" y="-298.5" font-family="Helvetica,sans-Serif" font-size="10.00">Modules/Daq/src/EverIncreasing</text>
<text text-anchor="middle" x="463.051" y="-287.5" font-family="Helvetica,sans-Serif" font-size="10.00">Graph.cxx</text>
</g>
<!-- Node2 -->
<g id="node2" class="node"><title>Node2</title>
<g id="a_node2"><a xlink:href="EverIncreasingGraph_8h.html" target="_top" xlink:title="Daq/EverIncreasingGraph.h">
<polygon fill="none" stroke="black" points="195.551,-224.5 195.551,-243.5 332.551,-243.5 332.551,-224.5 195.551,-224.5"/>
<text text-anchor="middle" x="264.051" y="-231.5" font-family="Helvetica,sans-Serif" font-size="10.00">Daq/EverIncreasingGraph.h</text>
</a>
</g>
</g>
<!-- Node1&#45;&gt;Node2 -->
<g id="edge1" class="edge"><title>Node1&#45;&gt;Node2</title>
<path fill="none" stroke="midnightblue" d="M416.143,-280.475C381.362,-270.075 334.549,-256.078 302.086,-246.372"/>
<polygon fill="midnightblue" stroke="midnightblue" points="303.085,-243.018 292.501,-243.506 301.08,-249.724 303.085,-243.018"/>
</g>
<!-- Node7 -->
<g id="node7" class="node"><title>Node7</title>
<g id="a_node7"><a xlink:href="MonitorObject_8h.html" target="_top" xlink:title="QualityControl/MonitorObject.h">
<polygon fill="none" stroke="black" points="194.551,-112.5 194.551,-131.5 345.551,-131.5 345.551,-112.5 194.551,-112.5"/>
<text text-anchor="middle" x="270.051" y="-119.5" font-family="Helvetica,sans-Serif" font-size="10.00">QualityControl/MonitorObject.h</text>
</a>
</g>
</g>
<!-- Node1&#45;&gt;Node7 -->
<g id="edge16" class="edge"><title>Node1&#45;&gt;Node7</title>
<path fill="none" stroke="midnightblue" d="M436.305,-280.374C421.306,-271.457 403.056,-258.832 390.051,-244 365.021,-215.454 377.451,-195.285 351.051,-168 337.619,-154.118 318.967,-143.358 302.947,-135.846"/>
<polygon fill="midnightblue" stroke="midnightblue" points="303.942,-132.457 293.382,-131.589 301.095,-138.853 303.942,-132.457"/>
</g>
<!-- Node11 -->
<g id="node11" class="node"><title>Node11</title>
<g id="a_node11"><a xlink:href="Quality_8h.html" target="_top" xlink:title="QualityControl/Quality.h">
<polygon fill="none" stroke="black" points="13.5515,-56.5 13.5515,-75.5 134.551,-75.5 134.551,-56.5 13.5515,-56.5"/>
<text text-anchor="middle" x="74.0515" y="-63.5" font-family="Helvetica,sans-Serif" font-size="10.00">QualityControl/Quality.h</text>
</a>
</g>
</g>
<!-- Node1&#45;&gt;Node11 -->
<g id="edge17" class="edge"><title>Node1&#45;&gt;Node11</title>
<path fill="none" stroke="midnightblue" d="M383.493,-286.551C273.119,-273.595 82.8004,-243.61 45.0515,-188 23.2125,-155.828 46.423,-109.076 62.1281,-84.1531"/>
<polygon fill="midnightblue" stroke="midnightblue" points="65.0885,-86.0216 67.6702,-75.7461 59.2441,-82.1688 65.0885,-86.0216"/>
</g>
<!-- Node12 -->
<g id="node12" class="node"><title>Node12</title>
<polygon fill="none" stroke="#bfbfbf" points="399.051,-224.5 399.051,-243.5 453.051,-243.5 453.051,-224.5 399.051,-224.5"/>
<text text-anchor="middle" x="426.051" y="-231.5" font-family="Helvetica,sans-Serif" font-size="10.00">iostream</text>
</g>
<!-- Node1&#45;&gt;Node12 -->
<g id="edge18" class="edge"><title>Node1&#45;&gt;Node12</title>
<path fill="none" stroke="midnightblue" d="M454.283,-280.399C449.073,-272.021 442.423,-261.327 436.886,-252.423"/>
<polygon fill="midnightblue" stroke="midnightblue" points="439.688,-250.302 431.435,-243.658 433.744,-253.998 439.688,-250.302"/>
</g>
<!-- Node13 -->
<g id="node13" class="node"><title>Node13</title>
<polygon fill="none" stroke="#bfbfbf" points="471.551,-224.5 471.551,-243.5 528.551,-243.5 528.551,-224.5 471.551,-224.5"/>
<text text-anchor="middle" x="500.051" y="-231.5" font-family="Helvetica,sans-Serif" font-size="10.00">TGraph.h</text>
</g>
<!-- Node1&#45;&gt;Node13 -->
<g id="edge19" class="edge"><title>Node1&#45;&gt;Node13</title>
<path fill="none" stroke="midnightblue" d="M471.82,-280.399C477.03,-272.021 483.68,-261.327 489.217,-252.423"/>
<polygon fill="midnightblue" stroke="midnightblue" points="492.359,-253.998 494.668,-243.658 486.415,-250.302 492.359,-253.998"/>
</g>
<!-- Node14 -->
<g id="node14" class="node"><title>Node14</title>
<polygon fill="none" stroke="#bfbfbf" points="547.051,-224.5 547.051,-243.5 591.051,-243.5 591.051,-224.5 547.051,-224.5"/>
<text text-anchor="middle" x="569.051" y="-231.5" font-family="Helvetica,sans-Serif" font-size="10.00">TH1.h</text>
</g>
<!-- Node1&#45;&gt;Node14 -->
<g id="edge20" class="edge"><title>Node1&#45;&gt;Node14</title>
<path fill="none" stroke="midnightblue" d="M488.172,-280.399C505.322,-270.773 527.916,-258.09 544.864,-248.577"/>
<polygon fill="midnightblue" stroke="midnightblue" points="546.621,-251.605 553.628,-243.658 543.194,-245.501 546.621,-251.605"/>
</g>
<!-- Node15 -->
<g id="node15" class="node"><title>Node15</title>
<polygon fill="none" stroke="#bfbfbf" points="609.551,-224.5 609.551,-243.5 656.551,-243.5 656.551,-224.5 609.551,-224.5"/>
<text text-anchor="middle" x="633.051" y="-231.5" font-family="Helvetica,sans-Serif" font-size="10.00">TList.h</text>
</g>
<!-- Node1&#45;&gt;Node15 -->
<g id="edge21" class="edge"><title>Node1&#45;&gt;Node15</title>
<path fill="none" stroke="midnightblue" d="M503.339,-280.399C532.721,-270.116 572.068,-256.344 599.694,-246.675"/>
<polygon fill="midnightblue" stroke="midnightblue" points="601.02,-249.919 609.302,-243.312 598.707,-243.312 601.02,-249.919"/>
</g>
<!-- Node16 -->
<g id="node16" class="node"><title>Node16</title>
<polygon fill="none" stroke="#bfbfbf" points="674.551,-224.5 674.551,-243.5 747.551,-243.5 747.551,-224.5 674.551,-224.5"/>
<text text-anchor="middle" x="711.051" y="-231.5" font-family="Helvetica,sans-Serif" font-size="10.00">TPaveText.h</text>
</g>
<!-- Node1&#45;&gt;Node16 -->
<g id="edge22" class="edge"><title>Node1&#45;&gt;Node16</title>
<path fill="none" stroke="midnightblue" d="M521.51,-280.475C565.603,-269.896 625.212,-255.595 665.728,-245.874"/>
<polygon fill="midnightblue" stroke="midnightblue" points="666.689,-249.243 675.596,-243.506 665.056,-242.436 666.689,-249.243"/>
</g>
<!-- Node3 -->
<g id="node3" class="node"><title>Node3</title>
<polygon fill="none" stroke="#bfbfbf" points="54.5515,-168.5 54.5515,-187.5 167.551,-187.5 167.551,-168.5 54.5515,-168.5"/>
<text text-anchor="middle" x="111.051" y="-175.5" font-family="Helvetica,sans-Serif" font-size="10.00">Common/DataBlock.h</text>
</g>
<!-- Node2&#45;&gt;Node3 -->
<g id="edge2" class="edge"><title>Node2&#45;&gt;Node3</title>
<path fill="none" stroke="midnightblue" d="M239.808,-224.444C214.181,-215.399 173.566,-201.064 144.813,-190.916"/>
<polygon fill="midnightblue" stroke="midnightblue" points="145.776,-187.544 135.181,-187.516 143.446,-194.145 145.776,-187.544"/>
</g>
<!-- Node4 -->
<g id="node4" class="node"><title>Node4</title>
<g id="a_node4"><a xlink:href="CheckInterface_8h.html" target="_top" xlink:title="QualityControl/CheckInterface.h">
<polygon fill="none" stroke="black" points="185.551,-168.5 185.551,-187.5 342.551,-187.5 342.551,-168.5 185.551,-168.5"/>
<text text-anchor="middle" x="264.051" y="-175.5" font-family="Helvetica,sans-Serif" font-size="10.00">QualityControl/CheckInterface.h</text>
</a>
</g>
</g>
<!-- Node2&#45;&gt;Node4 -->
<g id="edge3" class="edge"><title>Node2&#45;&gt;Node4</title>
<path fill="none" stroke="midnightblue" d="M264.051,-224.083C264.051,-217.006 264.051,-206.861 264.051,-197.986"/>
<polygon fill="midnightblue" stroke="midnightblue" points="267.552,-197.751 264.051,-187.751 260.552,-197.751 267.552,-197.751"/>
</g>
<!-- Node5 -->
<g id="node5" class="node"><title>Node5</title>
<polygon fill="none" stroke="#bfbfbf" points="445.551,-0.5 445.551,-19.5 486.551,-19.5 486.551,-0.5 445.551,-0.5"/>
<text text-anchor="middle" x="466.051" y="-7.5" font-family="Helvetica,sans-Serif" font-size="10.00">string</text>
</g>
<!-- Node4&#45;&gt;Node5 -->
<g id="edge4" class="edge"><title>Node4&#45;&gt;Node5</title>
<path fill="none" stroke="midnightblue" d="M311.135,-168.401C359.756,-156.738 433.161,-130.715 467.051,-76 475.586,-62.2212 474.231,-43.4465 471.395,-29.6172"/>
<polygon fill="midnightblue" stroke="midnightblue" points="474.761,-28.6456 468.965,-19.7764 467.965,-30.3239 474.761,-28.6456"/>
</g>
<!-- Node6 -->
<g id="node6" class="node"><title>Node6</title>
<polygon fill="none" stroke="#bfbfbf" points="46.0515,-0.5 46.0515,-19.5 102.051,-19.5 102.051,-0.5 46.0515,-0.5"/>
<text text-anchor="middle" x="74.0515" y="-7.5" font-family="Helvetica,sans-Serif" font-size="10.00">Rtypes.h</text>
</g>
<!-- Node4&#45;&gt;Node6 -->
<g id="edge5" class="edge"><title>Node4&#45;&gt;Node6</title>
<path fill="none" stroke="midnightblue" d="M228.601,-168.477C163.772,-152.095 30.3329,-114.419 4.05145,-76 -10.3123,-55.0024 17.6734,-35.8296 42.4123,-23.8345"/>
<polygon fill="midnightblue" stroke="midnightblue" points="44.011,-26.9519 51.6397,-19.5998 41.0912,-20.5898 44.011,-26.9519"/>
</g>
<!-- Node4&#45;&gt;Node7 -->
<g id="edge6" class="edge"><title>Node4&#45;&gt;Node7</title>
<path fill="none" stroke="midnightblue" d="M265.042,-168.083C265.837,-160.927 266.981,-150.635 267.975,-141.691"/>
<polygon fill="midnightblue" stroke="midnightblue" points="271.453,-142.076 269.079,-131.751 264.496,-141.303 271.453,-142.076"/>
</g>
<!-- Node4&#45;&gt;Node11 -->
<g id="edge15" class="edge"><title>Node4&#45;&gt;Node11</title>
<path fill="none" stroke="midnightblue" d="M248.876,-168.427C232.948,-159.412 207.194,-144.789 185.051,-132 154.763,-114.506 119.987,-94.0877 97.5523,-80.8714"/>
<polygon fill="midnightblue" stroke="midnightblue" points="99.134,-77.741 88.742,-75.6778 95.5792,-83.7712 99.134,-77.741"/>
</g>
<!-- Node7&#45;&gt;Node5 -->
<g id="edge7" class="edge"><title>Node7&#45;&gt;Node5</title>
<path fill="none" stroke="midnightblue" d="M345.879,-118.456C380.759,-113.475 420.245,-101.873 447.051,-76 459.467,-64.0168 463.892,-44.4096 465.407,-29.8588"/>
<polygon fill="midnightblue" stroke="midnightblue" points="468.924,-29.7261 466.096,-19.5156 461.939,-29.2609 468.924,-29.7261"/>
</g>
<!-- Node7&#45;&gt;Node6 -->
<g id="edge9" class="edge"><title>Node7&#45;&gt;Node6</title>
<path fill="none" stroke="midnightblue" d="M252.332,-112.388C234.425,-103.581 206.05,-89.3367 182.051,-76 151.892,-59.2392 117.916,-38.4681 96.2642,-24.9843"/>
<polygon fill="midnightblue" stroke="midnightblue" points="97.8487,-21.8473 87.5141,-19.5136 94.1377,-27.7827 97.8487,-21.8473"/>
</g>
<!-- Node8 -->
<g id="node8" class="node"><title>Node8</title>
<polygon fill="none" stroke="#bfbfbf" points="191.551,-56.5 191.551,-75.5 226.551,-75.5 226.551,-56.5 191.551,-56.5"/>
<text text-anchor="middle" x="209.051" y="-63.5" font-family="Helvetica,sans-Serif" font-size="10.00">map</text>
</g>
<!-- Node7&#45;&gt;Node8 -->
<g id="edge8" class="edge"><title>Node7&#45;&gt;Node8</title>
<path fill="none" stroke="midnightblue" d="M260.251,-112.324C251.233,-104.341 237.645,-92.3128 226.733,-82.6529"/>
<polygon fill="midnightblue" stroke="midnightblue" points="228.838,-79.8416 219.03,-75.8339 224.198,-85.083 228.838,-79.8416"/>
</g>
<!-- Node9 -->
<g id="node9" class="node"><title>Node9</title>
<polygon fill="none" stroke="#bfbfbf" points="244.551,-56.5 244.551,-75.5 303.551,-75.5 303.551,-56.5 244.551,-56.5"/>
<text text-anchor="middle" x="274.051" y="-63.5" font-family="Helvetica,sans-Serif" font-size="10.00">TObject.h</text>
</g>
<!-- Node7&#45;&gt;Node9 -->
<g id="edge10" class="edge"><title>Node7&#45;&gt;Node9</title>
<path fill="none" stroke="midnightblue" d="M270.712,-112.083C271.236,-105.006 271.988,-94.8611 272.645,-85.9865"/>
<polygon fill="midnightblue" stroke="midnightblue" points="276.155,-85.9823 273.403,-75.7511 269.174,-85.4652 276.155,-85.9823"/>
</g>
<!-- Node10 -->
<g id="node10" class="node"><title>Node10</title>
<polygon fill="none" stroke="#bfbfbf" points="322.051,-56.5 322.051,-75.5 438.051,-75.5 438.051,-56.5 322.051,-56.5"/>
<text text-anchor="middle" x="380.051" y="-63.5" font-family="Helvetica,sans-Serif" font-size="10.00">Common/Exceptions.h</text>
</g>
<!-- Node7&#45;&gt;Node10 -->
<g id="edge11" class="edge"><title>Node7&#45;&gt;Node10</title>
<path fill="none" stroke="midnightblue" d="M287.725,-112.324C305.446,-103.625 332.955,-90.1202 353.34,-80.113"/>
<polygon fill="midnightblue" stroke="midnightblue" points="354.988,-83.2031 362.422,-75.6545 351.903,-76.9195 354.988,-83.2031"/>
</g>
<!-- Node7&#45;&gt;Node11 -->
<g id="edge12" class="edge"><title>Node7&#45;&gt;Node11</title>
<path fill="none" stroke="midnightblue" d="M238.995,-112.444C205.448,-103.201 151.855,-88.4356 114.911,-78.2572"/>
<polygon fill="midnightblue" stroke="midnightblue" points="115.533,-74.7984 104.963,-75.5164 113.674,-81.5469 115.533,-74.7984"/>
</g>
<!-- Node11&#45;&gt;Node5 -->
<g id="edge14" class="edge"><title>Node11&#45;&gt;Node5</title>
<path fill="none" stroke="midnightblue" d="M134.871,-56.6217C219.818,-44.9199 370.816,-24.1192 435.385,-15.2244"/>
<polygon fill="midnightblue" stroke="midnightblue" points="435.911,-18.6852 445.339,-13.8532 434.955,-11.7507 435.911,-18.6852"/>
</g>
<!-- Node11&#45;&gt;Node6 -->
<g id="edge13" class="edge"><title>Node11&#45;&gt;Node6</title>
<path fill="none" stroke="midnightblue" d="M74.0515,-56.083C74.0515,-49.0059 74.0515,-38.8611 74.0515,-29.9865"/>
<polygon fill="midnightblue" stroke="midnightblue" points="77.5515,-29.751 74.0515,-19.7511 70.5515,-29.7511 77.5515,-29.751"/>
</g>
</g>
</svg>
