<?xml version="1.0" encoding="UTF-8" standalone="no"?>
<!DOCTYPE svg PUBLIC "-//W3C//DTD SVG 1.1//EN"
 "http://www.w3.org/Graphics/SVG/1.1/DTD/svg11.dtd">
<!-- Generated by graphviz version 2.38.0 (20140413.2041)
 -->
<!-- Title: Framework/include/QualityControl/ExamplePrinterSpec.h Pages: 1 -->
<svg width="728pt" height="207pt"
 viewBox="0.00 0.00 727.91 207.00" xmlns="http://www.w3.org/2000/svg" xmlns:xlink="http://www.w3.org/1999/xlink">
<g id="graph0" class="graph" transform="scale(1 1) rotate(0) translate(4 203)">
<title>Framework/include/QualityControl/ExamplePrinterSpec.h</title>
<!-- Node1 -->
<g id="node1" class="node"><title>Node1</title>
<polygon fill="#bfbfbf" stroke="black" points="319.745,-168.5 319.745,-198.5 468.745,-198.5 468.745,-168.5 319.745,-168.5"/>
<text text-anchor="start" x="327.745" y="-186.5" font-family="Helvetica,sans-Serif" font-size="10.00">Framework/include/Quality</text>
<text text-anchor="middle" x="394.245" y="-175.5" font-family="Helvetica,sans-Serif" font-size="10.00">Control/ExamplePrinterSpec.h</text>
</g>
<!-- Node2 -->
<g id="node2" class="node"><title>Node2</title>
<polygon fill="none" stroke="#bfbfbf" points="406.745,-0.5 406.745,-19.5 447.745,-19.5 447.745,-0.5 406.745,-0.5"/>
<text text-anchor="middle" x="427.245" y="-7.5" font-family="Helvetica,sans-Serif" font-size="10.00">string</text>
</g>
<!-- Node1&#45;&gt;Node2 -->
<g id="edge1" class="edge"><title>Node1&#45;&gt;Node2</title>
<path fill="none" stroke="midnightblue" d="M468.91,-181.143C551.339,-177.879 676.37,-167.099 706.245,-132 778.105,-47.5732 544.347,-20.2377 458.004,-13.1391"/>
<polygon fill="midnightblue" stroke="midnightblue" points="458.245,-9.6474 448.002,-12.3538 457.697,-16.6259 458.245,-9.6474"/>
</g>
<!-- Node3 -->
<g id="node3" class="node"><title>Node3</title>
<polygon fill="none" stroke="#bfbfbf" points="221.245,-112.5 221.245,-131.5 273.245,-131.5 273.245,-112.5 221.245,-112.5"/>
<text text-anchor="middle" x="247.245" y="-119.5" font-family="Helvetica,sans-Serif" font-size="10.00">memory</text>
</g>
<!-- Node1&#45;&gt;Node3 -->
<g id="edge2" class="edge"><title>Node1&#45;&gt;Node3</title>
<path fill="none" stroke="midnightblue" d="M359.408,-168.399C334.744,-158.416 301.96,-145.147 278.21,-135.534"/>
<polygon fill="midnightblue" stroke="midnightblue" points="279.218,-132.165 268.635,-131.658 276.591,-138.654 279.218,-132.165"/>
</g>
<!-- Node4 -->
<g id="node4" class="node"><title>Node4</title>
<polygon fill="none" stroke="#bfbfbf" points="291.245,-112.5 291.245,-131.5 341.245,-131.5 341.245,-112.5 291.245,-112.5"/>
<text text-anchor="middle" x="316.245" y="-119.5" font-family="Helvetica,sans-Serif" font-size="10.00">TH1F.h</text>
</g>
<!-- Node1&#45;&gt;Node4 -->
<g id="edge3" class="edge"><title>Node1&#45;&gt;Node4</title>
<path fill="none" stroke="midnightblue" d="M375.76,-168.399C363.725,-159.218 348.045,-147.258 335.802,-137.918"/>
<polygon fill="midnightblue" stroke="midnightblue" points="337.668,-134.94 327.595,-131.658 333.423,-140.506 337.668,-134.94"/>
</g>
<!-- Node5 -->
<g id="node5" class="node"><title>Node5</title>
<polygon fill="none" stroke="#bfbfbf" points="359.745,-112.5 359.745,-131.5 428.745,-131.5 428.745,-112.5 359.745,-112.5"/>
<text text-anchor="middle" x="394.245" y="-119.5" font-family="Helvetica,sans-Serif" font-size="10.00">TObjArray.h</text>
</g>
<!-- Node1&#45;&gt;Node5 -->
<g id="edge4" class="edge"><title>Node1&#45;&gt;Node5</title>
<path fill="none" stroke="midnightblue" d="M394.245,-168.399C394.245,-160.466 394.245,-150.458 394.245,-141.858"/>
<polygon fill="midnightblue" stroke="midnightblue" points="397.745,-141.658 394.245,-131.658 390.745,-141.658 397.745,-141.658"/>
</g>
<!-- Node6 -->
<g id="node6" class="node"><title>Node6</title>
<polygon fill="none" stroke="#bfbfbf" points="447.245,-112.5 447.245,-131.5 545.245,-131.5 545.245,-112.5 447.245,-112.5"/>
<text text-anchor="middle" x="496.245" y="-119.5" font-family="Helvetica,sans-Serif" font-size="10.00">Framework/Task.h</text>
</g>
<!-- Node1&#45;&gt;Node6 -->
<g id="edge5" class="edge"><title>Node1&#45;&gt;Node6</title>
<path fill="none" stroke="midnightblue" d="M418.418,-168.399C434.767,-158.862 456.26,-146.325 472.516,-136.842"/>
<polygon fill="midnightblue" stroke="midnightblue" points="474.529,-139.72 481.403,-131.658 471.002,-133.673 474.529,-139.72"/>
</g>
<!-- Node7 -->
<g id="node7" class="node"><title>Node7</title>
<polygon fill="none" stroke="#bfbfbf" points="563.245,-112.5 563.245,-131.5 697.245,-131.5 697.245,-112.5 563.245,-112.5"/>
<text text-anchor="middle" x="630.245" y="-119.5" font-family="Helvetica,sans-Serif" font-size="10.00">Framework/DataRefUtils.h</text>
</g>
<!-- Node1&#45;&gt;Node7 -->
<g id="edge6" class="edge"><title>Node1&#45;&gt;Node7</title>
<path fill="none" stroke="midnightblue" d="M449.875,-168.475C491.657,-157.941 548.078,-143.716 586.624,-133.998"/>
<polygon fill="midnightblue" stroke="midnightblue" points="587.665,-137.345 596.505,-131.506 585.953,-130.557 587.665,-137.345"/>
</g>
<!-- Node8 -->
<g id="node8" class="node"><title>Node8</title>
<g id="a_node8"><a xlink:href="MonitorObject_8h.html" target="_top" xlink:title="QualityControl/MonitorObject.h">
<polygon fill="none" stroke="black" points="51.745,-112.5 51.745,-131.5 202.745,-131.5 202.745,-112.5 51.745,-112.5"/>
<text text-anchor="middle" x="127.245" y="-119.5" font-family="Helvetica,sans-Serif" font-size="10.00">QualityControl/MonitorObject.h</text>
</a>
</g>
</g>
<!-- Node1&#45;&gt;Node8 -->
<g id="edge7" class="edge"><title>Node1&#45;&gt;Node8</title>
<path fill="none" stroke="midnightblue" d="M331.308,-168.475C283.535,-157.829 218.845,-143.413 175.212,-133.689"/>
<polygon fill="midnightblue" stroke="midnightblue" points="175.938,-130.265 165.416,-131.506 174.416,-137.098 175.938,-130.265"/>
</g>
<!-- Node8&#45;&gt;Node2 -->
<g id="edge8" class="edge"><title>Node8&#45;&gt;Node2</title>
<path fill="none" stroke="midnightblue" d="M191.403,-112.482C271.804,-101.552 400.138,-83.1475 408.245,-76 421.316,-64.4755 425.621,-44.5068 426.928,-29.7351"/>
<polygon fill="midnightblue" stroke="midnightblue" points="430.427,-29.8429 427.439,-19.6781 423.436,-29.4874 430.427,-29.8429"/>
</g>
<!-- Node9 -->
<g id="node9" class="node"><title>Node9</title>
<polygon fill="none" stroke="#bfbfbf" points="13.745,-56.5 13.745,-75.5 48.745,-75.5 48.745,-56.5 13.745,-56.5"/>
<text text-anchor="middle" x="31.245" y="-63.5" font-family="Helvetica,sans-Serif" font-size="10.00">map</text>
</g>
<!-- Node8&#45;&gt;Node9 -->
<g id="edge9" class="edge"><title>Node8&#45;&gt;Node9</title>
<path fill="none" stroke="midnightblue" d="M111.821,-112.324C96.7055,-103.822 73.4297,-90.7288 55.7739,-80.7975"/>
<polygon fill="midnightblue" stroke="midnightblue" points="57.0625,-77.5066 46.6308,-75.6545 53.6307,-83.6077 57.0625,-77.5066"/>
</g>
<!-- Node10 -->
<g id="node10" class="node"><title>Node10</title>
<polygon fill="none" stroke="#bfbfbf" points="28.245,-0.5 28.245,-19.5 84.245,-19.5 84.245,-0.5 28.245,-0.5"/>
<text text-anchor="middle" x="56.245" y="-7.5" font-family="Helvetica,sans-Serif" font-size="10.00">Rtypes.h</text>
</g>
<!-- Node8&#45;&gt;Node10 -->
<g id="edge10" class="edge"><title>Node8&#45;&gt;Node10</title>
<path fill="none" stroke="midnightblue" d="M62.0121,-112.47C39.976,-106.123 17.5974,-95.103 4.24504,-76 -8.53467,-57.7164 13.0026,-37.8496 32.1193,-24.9562"/>
<polygon fill="midnightblue" stroke="midnightblue" points="34.0466,-27.8784 40.6003,-19.5537 30.2857,-21.9745 34.0466,-27.8784"/>
</g>
<!-- Node11 -->
<g id="node11" class="node"><title>Node11</title>
<polygon fill="none" stroke="#bfbfbf" points="205.745,-56.5 205.745,-75.5 264.745,-75.5 264.745,-56.5 205.745,-56.5"/>
<text text-anchor="middle" x="235.245" y="-63.5" font-family="Helvetica,sans-Serif" font-size="10.00">TObject.h</text>
</g>
<!-- Node8&#45;&gt;Node11 -->
<g id="edge11" class="edge"><title>Node8&#45;&gt;Node11</title>
<path fill="none" stroke="midnightblue" d="M144.597,-112.324C161.917,-103.664 188.76,-90.2424 208.747,-80.249"/>
<polygon fill="midnightblue" stroke="midnightblue" points="210.557,-83.2572 217.936,-75.6545 207.426,-76.9962 210.557,-83.2572"/>
</g>
<!-- Node12 -->
<g id="node12" class="node"><title>Node12</title>
<polygon fill="none" stroke="#bfbfbf" points="283.245,-56.5 283.245,-75.5 399.245,-75.5 399.245,-56.5 283.245,-56.5"/>
<text text-anchor="middle" x="341.245" y="-63.5" font-family="Helvetica,sans-Serif" font-size="10.00">Common/Exceptions.h</text>
</g>
<!-- Node8&#45;&gt;Node12 -->
<g id="edge12" class="edge"><title>Node8&#45;&gt;Node12</title>
<path fill="none" stroke="midnightblue" d="M161.154,-112.444C198.094,-103.122 257.299,-88.1828 297.663,-77.9972"/>
<polygon fill="midnightblue" stroke="midnightblue" points="298.655,-81.3568 307.495,-75.5164 296.942,-74.5695 298.655,-81.3568"/>
</g>
<!-- Node13 -->
<g id="node13" class="node"><title>Node13</title>
<g id="a_node13"><a xlink:href="Quality_8h.html" target="_top" xlink:title="QualityControl/Quality.h">
<polygon fill="none" stroke="black" points="66.745,-56.5 66.745,-75.5 187.745,-75.5 187.745,-56.5 66.745,-56.5"/>
<text text-anchor="middle" x="127.245" y="-63.5" font-family="Helvetica,sans-Serif" font-size="10.00">QualityControl/Quality.h</text>
</a>
</g>
</g>
<!-- Node8&#45;&gt;Node13 -->
<g id="edge13" class="edge"><title>Node8&#45;&gt;Node13</title>
<path fill="none" stroke="midnightblue" d="M127.245,-112.083C127.245,-105.006 127.245,-94.8611 127.245,-85.9865"/>
<polygon fill="midnightblue" stroke="midnightblue" points="130.745,-85.751 127.245,-75.7511 123.745,-85.7511 130.745,-85.751"/>
</g>
<!-- Node13&#45;&gt;Node2 -->
<g id="edge15" class="edge"><title>Node13&#45;&gt;Node2</title>
<path fill="none" stroke="midnightblue" d="M174.781,-56.4435C236.918,-45.2589 343.99,-25.9859 396.456,-16.542"/>
<polygon fill="midnightblue" stroke="midnightblue" points="397.268,-19.9522 406.49,-14.7359 396.028,-13.0629 397.268,-19.9522"/>
</g>
<!-- Node13&#45;&gt;Node10 -->
<g id="edge14" class="edge"><title>Node13&#45;&gt;Node10</title>
<path fill="none" stroke="midnightblue" d="M115.838,-56.324C105.136,-48.1849 88.9044,-35.8395 76.0822,-26.0874"/>
<polygon fill="midnightblue" stroke="midnightblue" points="77.9383,-23.1018 67.86,-19.8339 73.7007,-28.6734 77.9383,-23.1018"/>
</g>
</g>
</svg>
