<?xml version="1.0" encoding="UTF-8" standalone="no"?>
<!DOCTYPE svg PUBLIC "-//W3C//DTD SVG 1.1//EN"
 "http://www.w3.org/Graphics/SVG/1.1/DTD/svg11.dtd">
<!-- Generated by graphviz version 2.38.0 (20140413.2041)
 -->
<!-- Title: Framework/src/HistoMerger.cxx Pages: 1 -->
<svg width="925pt" height="252pt"
 viewBox="0.00 0.00 925.25 252.00" xmlns="http://www.w3.org/2000/svg" xmlns:xlink="http://www.w3.org/1999/xlink">
<g id="graph0" class="graph" transform="scale(1 1) rotate(0) translate(4 248)">
<title>Framework/src/HistoMerger.cxx</title>
<!-- Node1 -->
<g id="node1" class="node"><title>Node1</title>
<polygon fill="#bfbfbf" stroke="black" points="493.745,-224.5 493.745,-243.5 650.745,-243.5 650.745,-224.5 493.745,-224.5"/>
<text text-anchor="middle" x="572.245" y="-231.5" font-family="Helvetica,sans-Serif" font-size="10.00">Framework/src/HistoMerger.cxx</text>
</g>
<!-- Node2 -->
<g id="node2" class="node"><title>Node2</title>
<g id="a_node2"><a xlink:href="HistoMerger_8h.html" target="_top" xlink:title="QualityControl/HistoMerger.h">
<polygon fill="none" stroke="black" points="313.745,-168.5 313.745,-187.5 456.745,-187.5 456.745,-168.5 313.745,-168.5"/>
<text text-anchor="middle" x="385.245" y="-175.5" font-family="Helvetica,sans-Serif" font-size="10.00">QualityControl/HistoMerger.h</text>
</a>
</g>
</g>
<!-- Node1&#45;&gt;Node2 -->
<g id="edge1" class="edge"><title>Node1&#45;&gt;Node2</title>
<path fill="none" stroke="midnightblue" d="M542.614,-224.444C510.745,-215.241 459.912,-200.562 424.681,-190.388"/>
<polygon fill="midnightblue" stroke="midnightblue" points="425.316,-186.928 414.737,-187.516 423.374,-193.653 425.316,-186.928"/>
</g>
<!-- Node14 -->
<g id="node14" class="node"><title>Node14</title>
<polygon fill="none" stroke="#bfbfbf" points="475.245,-168.5 475.245,-187.5 519.245,-187.5 519.245,-168.5 475.245,-168.5"/>
<text text-anchor="middle" x="497.245" y="-175.5" font-family="Helvetica,sans-Serif" font-size="10.00">TH1.h</text>
</g>
<!-- Node1&#45;&gt;Node14 -->
<g id="edge16" class="edge"><title>Node1&#45;&gt;Node14</title>
<path fill="none" stroke="midnightblue" d="M560.195,-224.324C548.782,-216.107 531.414,-203.602 517.81,-193.807"/>
<polygon fill="midnightblue" stroke="midnightblue" points="519.675,-190.837 509.514,-187.834 515.585,-196.517 519.675,-190.837"/>
</g>
<!-- Node15 -->
<g id="node15" class="node"><title>Node15</title>
<polygon fill="none" stroke="#bfbfbf" points="537.745,-168.5 537.745,-187.5 606.745,-187.5 606.745,-168.5 537.745,-168.5"/>
<text text-anchor="middle" x="572.245" y="-175.5" font-family="Helvetica,sans-Serif" font-size="10.00">TObjArray.h</text>
</g>
<!-- Node1&#45;&gt;Node15 -->
<g id="edge17" class="edge"><title>Node1&#45;&gt;Node15</title>
<path fill="none" stroke="midnightblue" d="M572.245,-224.083C572.245,-217.006 572.245,-206.861 572.245,-197.986"/>
<polygon fill="midnightblue" stroke="midnightblue" points="575.745,-197.751 572.245,-187.751 568.745,-197.751 575.745,-197.751"/>
</g>
<!-- Node16 -->
<g id="node16" class="node"><title>Node16</title>
<polygon fill="none" stroke="#bfbfbf" points="625.245,-168.5 625.245,-187.5 765.245,-187.5 765.245,-168.5 625.245,-168.5"/>
<text text-anchor="middle" x="695.245" y="-175.5" font-family="Helvetica,sans-Serif" font-size="10.00">Framework/DataSpecUtils.h</text>
</g>
<!-- Node1&#45;&gt;Node16 -->
<g id="edge18" class="edge"><title>Node1&#45;&gt;Node16</title>
<path fill="none" stroke="midnightblue" d="M591.735,-224.444C611.887,-215.596 643.568,-201.687 666.576,-191.586"/>
<polygon fill="midnightblue" stroke="midnightblue" points="668.097,-194.741 675.847,-187.516 665.283,-188.332 668.097,-194.741"/>
</g>
<!-- Node17 -->
<g id="node17" class="node"><title>Node17</title>
<polygon fill="none" stroke="#bfbfbf" points="783.245,-168.5 783.245,-187.5 917.245,-187.5 917.245,-168.5 783.245,-168.5"/>
<text text-anchor="middle" x="850.245" y="-175.5" font-family="Helvetica,sans-Serif" font-size="10.00">Framework/DataRefUtils.h</text>
</g>
<!-- Node1&#45;&gt;Node17 -->
<g id="edge19" class="edge"><title>Node1&#45;&gt;Node17</title>
<path fill="none" stroke="midnightblue" d="M616.295,-224.444C665.096,-214.964 743.809,-199.675 796.275,-189.483"/>
<polygon fill="midnightblue" stroke="midnightblue" points="797.252,-192.859 806.401,-187.516 795.917,-185.988 797.252,-192.859"/>
</g>
<!-- Node3 -->
<g id="node3" class="node"><title>Node3</title>
<polygon fill="none" stroke="#bfbfbf" points="406.745,-0.5 406.745,-19.5 447.745,-19.5 447.745,-0.5 406.745,-0.5"/>
<text text-anchor="middle" x="427.245" y="-7.5" font-family="Helvetica,sans-Serif" font-size="10.00">string</text>
</g>
<!-- Node2&#45;&gt;Node3 -->
<g id="edge2" class="edge"><title>Node2&#45;&gt;Node3</title>
<path fill="none" stroke="midnightblue" d="M456.94,-168.856C526.981,-160.163 624.722,-145.773 636.245,-132 690.753,-66.851 528.084,-29.0356 457.848,-16.0941"/>
<polygon fill="midnightblue" stroke="midnightblue" points="458.264,-12.613 447.804,-14.2974 457.032,-19.5037 458.264,-12.613"/>
</g>
<!-- Node4 -->
<g id="node4" class="node"><title>Node4</title>
<polygon fill="none" stroke="#bfbfbf" points="221.245,-112.5 221.245,-131.5 265.245,-131.5 265.245,-112.5 221.245,-112.5"/>
<text text-anchor="middle" x="243.245" y="-119.5" font-family="Helvetica,sans-Serif" font-size="10.00">vector</text>
</g>
<!-- Node2&#45;&gt;Node4 -->
<g id="edge3" class="edge"><title>Node2&#45;&gt;Node4</title>
<path fill="none" stroke="midnightblue" d="M362.745,-168.444C339.168,-159.478 301.923,-145.314 275.281,-135.183"/>
<polygon fill="midnightblue" stroke="midnightblue" points="276.231,-131.8 265.64,-131.516 273.743,-138.342 276.231,-131.8"/>
</g>
<!-- Node5 -->
<g id="node5" class="node"><title>Node5</title>
<polygon fill="none" stroke="#bfbfbf" points="283.245,-112.5 283.245,-131.5 375.245,-131.5 375.245,-112.5 283.245,-112.5"/>
<text text-anchor="middle" x="329.245" y="-119.5" font-family="Helvetica,sans-Serif" font-size="10.00">Common/Timer.h</text>
</g>
<!-- Node2&#45;&gt;Node5 -->
<g id="edge4" class="edge"><title>Node2&#45;&gt;Node5</title>
<path fill="none" stroke="midnightblue" d="M376.248,-168.324C368.051,-160.42 355.739,-148.548 345.773,-138.938"/>
<polygon fill="midnightblue" stroke="midnightblue" points="348.034,-136.256 338.406,-131.834 343.175,-141.295 348.034,-136.256"/>
</g>
<!-- Node6 -->
<g id="node6" class="node"><title>Node6</title>
<polygon fill="none" stroke="#bfbfbf" points="393.245,-112.5 393.245,-131.5 491.245,-131.5 491.245,-112.5 393.245,-112.5"/>
<text text-anchor="middle" x="442.245" y="-119.5" font-family="Helvetica,sans-Serif" font-size="10.00">Framework/Task.h</text>
</g>
<!-- Node2&#45;&gt;Node6 -->
<g id="edge5" class="edge"><title>Node2&#45;&gt;Node6</title>
<path fill="none" stroke="midnightblue" d="M394.403,-168.324C402.747,-160.42 415.277,-148.548 425.422,-138.938"/>
<polygon fill="midnightblue" stroke="midnightblue" points="428.068,-141.252 432.92,-131.834 423.254,-136.171 428.068,-141.252"/>
</g>
<!-- Node7 -->
<g id="node7" class="node"><title>Node7</title>
<polygon fill="none" stroke="#bfbfbf" points="509.745,-112.5 509.745,-131.5 626.745,-131.5 626.745,-112.5 509.745,-112.5"/>
<text text-anchor="middle" x="568.245" y="-119.5" font-family="Helvetica,sans-Serif" font-size="10.00">Headers/DataHeader.h</text>
</g>
<!-- Node2&#45;&gt;Node7 -->
<g id="edge6" class="edge"><title>Node2&#45;&gt;Node7</title>
<path fill="none" stroke="midnightblue" d="M414.242,-168.444C445.43,-159.241 495.175,-144.562 529.653,-134.388"/>
<polygon fill="midnightblue" stroke="midnightblue" points="530.783,-137.704 539.384,-131.516 528.802,-130.99 530.783,-137.704"/>
</g>
<!-- Node8 -->
<g id="node8" class="node"><title>Node8</title>
<g id="a_node8"><a xlink:href="MonitorObject_8h.html" target="_top" xlink:title="QualityControl/MonitorObject.h">
<polygon fill="none" stroke="black" points="51.745,-112.5 51.745,-131.5 202.745,-131.5 202.745,-112.5 51.745,-112.5"/>
<text text-anchor="middle" x="127.245" y="-119.5" font-family="Helvetica,sans-Serif" font-size="10.00">QualityControl/MonitorObject.h</text>
</a>
</g>
</g>
<!-- Node2&#45;&gt;Node8 -->
<g id="edge7" class="edge"><title>Node2&#45;&gt;Node8</title>
<path fill="none" stroke="midnightblue" d="M344.364,-168.444C299.262,-159.004 226.633,-143.802 177.943,-133.611"/>
<polygon fill="midnightblue" stroke="midnightblue" points="178.44,-130.139 167.935,-131.516 177.006,-136.991 178.44,-130.139"/>
</g>
<!-- Node8&#45;&gt;Node3 -->
<g id="edge8" class="edge"><title>Node8&#45;&gt;Node3</title>
<path fill="none" stroke="midnightblue" d="M191.403,-112.482C271.804,-101.552 400.138,-83.1475 408.245,-76 421.316,-64.4755 425.621,-44.5068 426.928,-29.7351"/>
<polygon fill="midnightblue" stroke="midnightblue" points="430.427,-29.8429 427.439,-19.6781 423.436,-29.4874 430.427,-29.8429"/>
</g>
<!-- Node9 -->
<g id="node9" class="node"><title>Node9</title>
<polygon fill="none" stroke="#bfbfbf" points="13.745,-56.5 13.745,-75.5 48.745,-75.5 48.745,-56.5 13.745,-56.5"/>
<text text-anchor="middle" x="31.245" y="-63.5" font-family="Helvetica,sans-Serif" font-size="10.00">map</text>
</g>
<!-- Node8&#45;&gt;Node9 -->
<g id="edge9" class="edge"><title>Node8&#45;&gt;Node9</title>
<path fill="none" stroke="midnightblue" d="M111.821,-112.324C96.7055,-103.822 73.4297,-90.7288 55.7739,-80.7975"/>
<polygon fill="midnightblue" stroke="midnightblue" points="57.0625,-77.5066 46.6308,-75.6545 53.6307,-83.6077 57.0625,-77.5066"/>
</g>
<!-- Node10 -->
<g id="node10" class="node"><title>Node10</title>
<polygon fill="none" stroke="#bfbfbf" points="28.245,-0.5 28.245,-19.5 84.245,-19.5 84.245,-0.5 28.245,-0.5"/>
<text text-anchor="middle" x="56.245" y="-7.5" font-family="Helvetica,sans-Serif" font-size="10.00">Rtypes.h</text>
</g>
<!-- Node8&#45;&gt;Node10 -->
<g id="edge10" class="edge"><title>Node8&#45;&gt;Node10</title>
<path fill="none" stroke="midnightblue" d="M62.0121,-112.47C39.976,-106.123 17.5974,-95.103 4.24504,-76 -8.53467,-57.7164 13.0026,-37.8496 32.1193,-24.9562"/>
<polygon fill="midnightblue" stroke="midnightblue" points="34.0466,-27.8784 40.6003,-19.5537 30.2857,-21.9745 34.0466,-27.8784"/>
</g>
<!-- Node11 -->
<g id="node11" class="node"><title>Node11</title>
<polygon fill="none" stroke="#bfbfbf" points="205.745,-56.5 205.745,-75.5 264.745,-75.5 264.745,-56.5 205.745,-56.5"/>
<text text-anchor="middle" x="235.245" y="-63.5" font-family="Helvetica,sans-Serif" font-size="10.00">TObject.h</text>
</g>
<!-- Node8&#45;&gt;Node11 -->
<g id="edge11" class="edge"><title>Node8&#45;&gt;Node11</title>
<path fill="none" stroke="midnightblue" d="M144.597,-112.324C161.917,-103.664 188.76,-90.2424 208.747,-80.249"/>
<polygon fill="midnightblue" stroke="midnightblue" points="210.557,-83.2572 217.936,-75.6545 207.426,-76.9962 210.557,-83.2572"/>
</g>
<!-- Node12 -->
<g id="node12" class="node"><title>Node12</title>
<polygon fill="none" stroke="#bfbfbf" points="283.245,-56.5 283.245,-75.5 399.245,-75.5 399.245,-56.5 283.245,-56.5"/>
<text text-anchor="middle" x="341.245" y="-63.5" font-family="Helvetica,sans-Serif" font-size="10.00">Common/Exceptions.h</text>
</g>
<!-- Node8&#45;&gt;Node12 -->
<g id="edge12" class="edge"><title>Node8&#45;&gt;Node12</title>
<path fill="none" stroke="midnightblue" d="M161.154,-112.444C198.094,-103.122 257.299,-88.1828 297.663,-77.9972"/>
<polygon fill="midnightblue" stroke="midnightblue" points="298.655,-81.3568 307.495,-75.5164 296.942,-74.5695 298.655,-81.3568"/>
</g>
<!-- Node13 -->
<g id="node13" class="node"><title>Node13</title>
<g id="a_node13"><a xlink:href="Quality_8h.html" target="_top" xlink:title="QualityControl/Quality.h">
<polygon fill="none" stroke="black" points="66.745,-56.5 66.745,-75.5 187.745,-75.5 187.745,-56.5 66.745,-56.5"/>
<text text-anchor="middle" x="127.245" y="-63.5" font-family="Helvetica,sans-Serif" font-size="10.00">QualityControl/Quality.h</text>
</a>
</g>
</g>
<!-- Node8&#45;&gt;Node13 -->
<g id="edge13" class="edge"><title>Node8&#45;&gt;Node13</title>
<path fill="none" stroke="midnightblue" d="M127.245,-112.083C127.245,-105.006 127.245,-94.8611 127.245,-85.9865"/>
<polygon fill="midnightblue" stroke="midnightblue" points="130.745,-85.751 127.245,-75.7511 123.745,-85.7511 130.745,-85.751"/>
</g>
<!-- Node13&#45;&gt;Node3 -->
<g id="edge15" class="edge"><title>Node13&#45;&gt;Node3</title>
<path fill="none" stroke="midnightblue" d="M174.781,-56.4435C236.918,-45.2589 343.99,-25.9859 396.456,-16.542"/>
<polygon fill="midnightblue" stroke="midnightblue" points="397.268,-19.9522 406.49,-14.7359 396.028,-13.0629 397.268,-19.9522"/>
</g>
<!-- Node13&#45;&gt;Node10 -->
<g id="edge14" class="edge"><title>Node13&#45;&gt;Node10</title>
<path fill="none" stroke="midnightblue" d="M115.838,-56.324C105.136,-48.1849 88.9044,-35.8395 76.0822,-26.0874"/>
<polygon fill="midnightblue" stroke="midnightblue" points="77.9383,-23.1018 67.86,-19.8339 73.7007,-28.6734 77.9383,-23.1018"/>
</g>
</g>
</svg>
