<?xml version="1.0" encoding="UTF-8" standalone="no"?>
<!DOCTYPE svg PUBLIC "-//W3C//DTD SVG 1.1//EN"
 "http://www.w3.org/Graphics/SVG/1.1/DTD/svg11.dtd">
<!-- Generated by graphviz version 2.38.0 (20140413.2041)
 -->
<!-- Title: Framework/src/InformationServiceDump.cxx Pages: 1 -->
<svg width="276pt" height="151pt"
 viewBox="0.00 0.00 275.50 151.00" xmlns="http://www.w3.org/2000/svg" xmlns:xlink="http://www.w3.org/1999/xlink">
<g id="graph0" class="graph" transform="scale(1 1) rotate(0) translate(4 147)">
<title>Framework/src/InformationServiceDump.cxx</title>
<!-- Node1 -->
<g id="node1" class="node"><title>Node1</title>
<polygon fill="#bfbfbf" stroke="black" points="70.5,-112.5 70.5,-142.5 204.5,-142.5 204.5,-112.5 70.5,-112.5"/>
<text text-anchor="start" x="78.5" y="-130.5" font-family="Helvetica,sans-Serif" font-size="10.00">Framework/src/Information</text>
<text text-anchor="middle" x="137.5" y="-119.5" font-family="Helvetica,sans-Serif" font-size="10.00">ServiceDump.cxx</text>
</g>
<!-- Node2 -->
<g id="node2" class="node"><title>Node2</title>
<g id="a_node2"><a xlink:href="InformationServiceDump_8h.html" target="_top" xlink:title="InformationServiceDump.h">
<polygon fill="none" stroke="black" points="0,-56.5 0,-75.5 133,-75.5 133,-56.5 0,-56.5"/>
<text text-anchor="middle" x="66.5" y="-63.5" font-family="Helvetica,sans-Serif" font-size="10.00">InformationServiceDump.h</text>
</a>
</g>
</g>
<!-- Node1&#45;&gt;Node2 -->
<g id="edge1" class="edge"><title>Node1&#45;&gt;Node2</title>
<path fill="none" stroke="midnightblue" d="M120.674,-112.399C109.825,-103.308 95.7233,-91.4899 84.627,-82.1909"/>
<polygon fill="midnightblue" stroke="midnightblue" points="86.7437,-79.3983 76.8311,-75.6578 82.2476,-84.7634 86.7437,-79.3983"/>
</g>
<!-- Node4 -->
<g id="node4" class="node"><title>Node4</title>
<polygon fill="none" stroke="#bfbfbf" points="151.5,-56.5 151.5,-75.5 267.5,-75.5 267.5,-56.5 151.5,-56.5"/>
<text text-anchor="middle" x="209.5" y="-63.5" font-family="Helvetica,sans-Serif" font-size="10.00">fairmq/FairMQLogger.h</text>
</g>
<!-- Node1&#45;&gt;Node4 -->
<g id="edge3" class="edge"><title>Node1&#45;&gt;Node4</title>
<path fill="none" stroke="midnightblue" d="M154.563,-112.399C165.565,-103.308 179.865,-91.4899 191.118,-82.1909"/>
<polygon fill="midnightblue" stroke="midnightblue" points="193.544,-84.726 199.023,-75.6578 189.085,-79.33 193.544,-84.726"/>
</g>
<!-- Node3 -->
<g id="node3" class="node"><title>Node3</title>
<polygon fill="none" stroke="#bfbfbf" points="7.5,-0.5 7.5,-19.5 125.5,-19.5 125.5,-0.5 7.5,-0.5"/>
<text text-anchor="middle" x="66.5" y="-7.5" font-family="Helvetica,sans-Serif" font-size="10.00">fairmq/FairMQDevice.h</text>
</g>
<!-- Node2&#45;&gt;Node3 -->
<g id="edge2" class="edge"><title>Node2&#45;&gt;Node3</title>
<path fill="none" stroke="midnightblue" d="M66.5,-56.083C66.5,-49.0059 66.5,-38.8611 66.5,-29.9865"/>
<polygon fill="midnightblue" stroke="midnightblue" points="70.0001,-29.751 66.5,-19.7511 63.0001,-29.7511 70.0001,-29.751"/>
</g>
</g>
</svg>
