<?xml version="1.0" encoding="UTF-8" standalone="no"?>
<!DOCTYPE svg PUBLIC "-//W3C//DTD SVG 1.1//EN"
 "http://www.w3.org/Graphics/SVG/1.1/DTD/svg11.dtd">
<!-- Generated by graphviz version 2.38.0 (20140413.2041)
 -->
<!-- Title: Framework/src/InformationService.cxx Pages: 1 -->
<!--zoomable 386 -->
<svg id="main" version="1.1" xmlns="http://www.w3.org/2000/svg" xmlns:xlink="http://www.w3.org/1999/xlink" xml:space="preserve" onload="init(evt)">
<style type="text/css"><![CDATA[
.edge:hover path { stroke: red; }
.edge:hover polygon { stroke: red; fill: red; }
]]></style>
<script type="text/javascript"><![CDATA[
var edges = document.getElementsByTagName('g');
if (edges && edges.length) {
  for (var i=0;i<edges.length;i++) {
    if (edges[i].id.substr(0,4)=='edge') {
      edges[i].setAttribute('class','edge');
    }
  }
}
]]></script>
        <defs>
                <circle id="rim" cx="0" cy="0" r="7"/>
                <circle id="rim2" cx="0" cy="0" r="3.5"/>
                <g id="zoomPlus">
                        <use xlink:href="#rim" fill="#404040">
                                <set attributeName="fill" to="#808080" begin="zoomplus.mouseover" end="zoomplus.mouseout"/>
                        </use>
                        <path d="M-4,0h8M0,-4v8" fill="none" stroke="white" stroke-width="1.5" pointer-events="none"/>
                </g>
                <g id="zoomMin">
                        <use xlink:href="#rim" fill="#404040">
                                <set attributeName="fill" to="#808080" begin="zoomminus.mouseover" end="zoomminus.mouseout"/>
                        </use>
                        <path d="M-4,0h8" fill="none" stroke="white" stroke-width="1.5" pointer-events="none"/>
                </g>
                <g id="dirArrow">
                        <path fill="none" stroke="white" stroke-width="1.5" d="M0,-3.0v7 M-2.5,-0.5L0,-3.0L2.5,-0.5"/>
                </g>
               <g id="resetDef">
                       <use xlink:href="#rim2" fill="#404040">
                               <set attributeName="fill" to="#808080" begin="reset.mouseover" end="reset.mouseout"/>
                       </use>
               </g>
        </defs>

<script type="text/javascript">
var viewWidth = 1381;
var viewHeight = 386;
var sectionId = 'dynsection-0';
</script>
<script xlink:href="svgpan.js"/>
<svg id="graph" class="graph">
<g id="viewport">
<title>Framework/src/InformationService.cxx</title>
<!-- Node1 -->
<g id="node1" class="node"><title>Node1</title>
<polygon fill="#bfbfbf" stroke="black" points="973.723,-347.5 973.723,-377.5 1107.72,-377.5 1107.72,-347.5 973.723,-347.5"/>
<text text-anchor="start" x="981.723" y="-365.5" font-family="Helvetica,sans-Serif" font-size="10.00">Framework/src/Information</text>
<text text-anchor="middle" x="1040.72" y="-354.5" font-family="Helvetica,sans-Serif" font-size="10.00">Service.cxx</text>
</g>
<!-- Node2 -->
<g id="node2" class="node"><title>Node2</title>
<g id="a_node2"><a xlink:href="InformationService_8h.html" target="_top" xlink:title="InformationService.h">
<polygon fill="none" stroke="black" points="476.223,-291.5 476.223,-310.5 583.223,-310.5 583.223,-291.5 476.223,-291.5"/>
<text text-anchor="middle" x="529.723" y="-298.5" font-family="Helvetica,sans-Serif" font-size="10.00">InformationService.h</text>
</a>
</g>
</g>
<!-- Node1&#45;&gt;Node2 -->
<g id="edge1" class="edge"><title>Node1&#45;&gt;Node2</title>
<path fill="none" stroke="midnightblue" d="M973.656,-353.691C874.541,-342.15 690.24,-320.69 593.218,-309.393"/>
<polygon fill="midnightblue" stroke="midnightblue" points="593.591,-305.913 583.253,-308.233 592.781,-312.866 593.591,-305.913"/>
</g>
<!-- Node13 -->
<g id="node13" class="node"><title>Node13</title>
<g id="a_node13"><a xlink:href="QcInfoLogger_8h.html" target="_top" xlink:title="QualityControl/QcInfoLogger.h">
<polygon fill="none" stroke="black" points="808.223,-291.5 808.223,-310.5 957.223,-310.5 957.223,-291.5 808.223,-291.5"/>
<text text-anchor="middle" x="882.723" y="-298.5" font-family="Helvetica,sans-Serif" font-size="10.00">QualityControl/QcInfoLogger.h</text>
</a>
</g>
</g>
<!-- Node1&#45;&gt;Node13 -->
<g id="edge12" class="edge"><title>Node1&#45;&gt;Node13</title>
<path fill="none" stroke="midnightblue" d="M1003.28,-347.399C976.533,-337.327 940.903,-323.909 915.324,-314.277"/>
<polygon fill="midnightblue" stroke="midnightblue" points="916.306,-310.907 905.714,-310.658 913.839,-317.458 916.306,-310.907"/>
</g>
<!-- Node27 -->
<g id="node27" class="node"><title>Node27</title>
<polygon fill="none" stroke="#bfbfbf" points="975.223,-291.5 975.223,-310.5 1106.22,-310.5 1106.22,-291.5 975.223,-291.5"/>
<text text-anchor="middle" x="1040.72" y="-298.5" font-family="Helvetica,sans-Serif" font-size="10.00">boost/token_functions.hpp</text>
</g>
<!-- Node1&#45;&gt;Node27 -->
<g id="edge38" class="edge"><title>Node1&#45;&gt;Node27</title>
<path fill="none" stroke="midnightblue" d="M1040.72,-347.399C1040.72,-339.466 1040.72,-329.458 1040.72,-320.858"/>
<polygon fill="midnightblue" stroke="midnightblue" points="1044.22,-320.658 1040.72,-310.658 1037.22,-320.658 1044.22,-320.658"/>
</g>
<!-- Node28 -->
<g id="node28" class="node"><title>Node28</title>
<polygon fill="none" stroke="#bfbfbf" points="1124.72,-291.5 1124.72,-310.5 1226.72,-310.5 1226.72,-291.5 1124.72,-291.5"/>
<text text-anchor="middle" x="1175.72" y="-298.5" font-family="Helvetica,sans-Serif" font-size="10.00">boost/tokenizer.hpp</text>
</g>
<!-- Node1&#45;&gt;Node28 -->
<g id="edge39" class="edge"><title>Node1&#45;&gt;Node28</title>
<path fill="none" stroke="midnightblue" d="M1072.72,-347.399C1095.16,-337.505 1124.94,-324.383 1146.7,-314.792"/>
<polygon fill="midnightblue" stroke="midnightblue" points="1148.34,-317.894 1156.08,-310.658 1145.52,-311.488 1148.34,-317.894"/>
</g>
<!-- Node29 -->
<g id="node29" class="node"><title>Node29</title>
<polygon fill="none" stroke="#bfbfbf" points="1244.72,-291.5 1244.72,-310.5 1324.72,-310.5 1324.72,-291.5 1244.72,-291.5"/>
<text text-anchor="middle" x="1284.72" y="-298.5" font-family="Helvetica,sans-Serif" font-size="10.00">boost/asio.hpp</text>
</g>
<!-- Node1&#45;&gt;Node29 -->
<g id="edge40" class="edge"><title>Node1&#45;&gt;Node29</title>
<path fill="none" stroke="midnightblue" d="M1098.24,-347.475C1141.53,-336.918 1200.02,-322.655 1239.88,-312.936"/>
<polygon fill="midnightblue" stroke="midnightblue" points="1240.95,-316.276 1249.84,-310.506 1239.3,-309.475 1240.95,-316.276"/>
</g>
<!-- Node3 -->
<g id="node3" class="node"><title>Node3</title>
<polygon fill="none" stroke="#bfbfbf" points="614.223,-56.5 614.223,-75.5 649.223,-75.5 649.223,-56.5 614.223,-56.5"/>
<text text-anchor="middle" x="631.723" y="-63.5" font-family="Helvetica,sans-Serif" font-size="10.00">map</text>
</g>
<!-- Node2&#45;&gt;Node3 -->
<g id="edge2" class="edge"><title>Node2&#45;&gt;Node3</title>
<path fill="none" stroke="midnightblue" d="M475.776,-299.394C348.533,-297.406 37.9942,-289.077 6.72327,-255 -2.59215,-244.849 -1.74961,-234.865 6.72327,-224 82.7124,-126.562 492.903,-80.3832 603.974,-69.5505"/>
<polygon fill="midnightblue" stroke="midnightblue" points="604.431,-73.0228 614.052,-68.5853 603.763,-66.0547 604.431,-73.0228"/>
</g>
<!-- Node4 -->
<g id="node4" class="node"><title>Node4</title>
<polygon fill="none" stroke="#bfbfbf" points="717.723,-230 717.723,-249 761.723,-249 761.723,-230 717.723,-230"/>
<text text-anchor="middle" x="739.723" y="-237" font-family="Helvetica,sans-Serif" font-size="10.00">vector</text>
</g>
<!-- Node2&#45;&gt;Node4 -->
<g id="edge3" class="edge"><title>Node2&#45;&gt;Node4</title>
<path fill="none" stroke="midnightblue" d="M572.427,-291.443C608.882,-283.609 662.442,-270.841 707.723,-255 709.386,-254.418 711.08,-253.784 712.778,-253.115"/>
<polygon fill="midnightblue" stroke="midnightblue" points="714.512,-256.181 722.347,-249.05 711.775,-249.738 714.512,-256.181"/>
</g>
<!-- Node5 -->
<g id="node5" class="node"><title>Node5</title>
<polygon fill="none" stroke="#bfbfbf" points="960.223,-0.5 960.223,-19.5 1001.22,-19.5 1001.22,-0.5 960.223,-0.5"/>
<text text-anchor="middle" x="980.723" y="-7.5" font-family="Helvetica,sans-Serif" font-size="10.00">string</text>
</g>
<!-- Node2&#45;&gt;Node5 -->
<g id="edge4" class="edge"><title>Node2&#45;&gt;Node5</title>
<path fill="none" stroke="midnightblue" d="M583.261,-297.723C646.877,-293.762 747.37,-283.118 770.723,-255 823.865,-191.018 707.357,-217.423 671.723,-188 620.992,-146.11 561.053,-105.208 604.723,-56 627.557,-30.2708 864.381,-16.5335 950.029,-12.3776"/>
<polygon fill="midnightblue" stroke="midnightblue" points="950.337,-15.867 960.16,-11.8967 950.005,-8.87486 950.337,-15.867"/>
</g>
<!-- Node6 -->
<g id="node6" class="node"><title>Node6</title>
<polygon fill="none" stroke="#bfbfbf" points="15.7233,-230 15.7233,-249 59.7233,-249 59.7233,-230 15.7233,-230"/>
<text text-anchor="middle" x="37.7233" y="-237" font-family="Helvetica,sans-Serif" font-size="10.00">thread</text>
</g>
<!-- Node2&#45;&gt;Node6 -->
<g id="edge5" class="edge"><title>Node2&#45;&gt;Node6</title>
<path fill="none" stroke="midnightblue" d="M476.122,-300.607C389.059,-300.305 212.204,-294.309 68.7233,-255 66.7893,-254.47 64.8264,-253.828 62.8759,-253.112"/>
<polygon fill="midnightblue" stroke="midnightblue" points="63.9901,-249.783 53.4173,-249.101 61.2573,-256.228 63.9901,-249.783"/>
</g>
<!-- Node7 -->
<g id="node7" class="node"><title>Node7</title>
<polygon fill="none" stroke="#bfbfbf" points="77.7233,-230 77.7233,-249 195.723,-249 195.723,-230 77.7233,-230"/>
<text text-anchor="middle" x="136.723" y="-237" font-family="Helvetica,sans-Serif" font-size="10.00">fairmq/FairMQDevice.h</text>
</g>
<!-- Node2&#45;&gt;Node7 -->
<g id="edge6" class="edge"><title>Node2&#45;&gt;Node7</title>
<path fill="none" stroke="midnightblue" d="M476.054,-293.779C411.463,-286.013 299.819,-271.7 204.723,-255 198.093,-253.836 191.125,-252.491 184.281,-251.099"/>
<polygon fill="midnightblue" stroke="midnightblue" points="184.898,-247.652 174.395,-249.042 183.472,-254.506 184.898,-247.652"/>
</g>
<!-- Node8 -->
<g id="node8" class="node"><title>Node8</title>
<polygon fill="none" stroke="#bfbfbf" points="817.723,-230 817.723,-249 947.723,-249 947.723,-230 817.723,-230"/>
<text text-anchor="middle" x="882.723" y="-237" font-family="Helvetica,sans-Serif" font-size="10.00">InfoLogger/InfoLogger.hxx</text>
</g>
<!-- Node2&#45;&gt;Node8 -->
<g id="edge7" class="edge"><title>Node2&#45;&gt;Node8</title>
<path fill="none" stroke="midnightblue" d="M583.326,-291.501C638.598,-282.666 727.258,-268.295 803.723,-255 811.354,-253.673 819.393,-252.239 827.304,-250.808"/>
<polygon fill="midnightblue" stroke="midnightblue" points="828.003,-254.238 837.215,-249.003 826.749,-247.351 828.003,-254.238"/>
</g>
<!-- Node9 -->
<g id="node9" class="node"><title>Node9</title>
<polygon fill="none" stroke="#bfbfbf" points="213.723,-230 213.723,-249 341.723,-249 341.723,-230 213.723,-230"/>
<text text-anchor="middle" x="277.723" y="-237" font-family="Helvetica,sans-Serif" font-size="10.00">boost/asio/io_service.hpp</text>
</g>
<!-- Node2&#45;&gt;Node9 -->
<g id="edge8" class="edge"><title>Node2&#45;&gt;Node9</title>
<path fill="none" stroke="midnightblue" d="M493.618,-291.475C448.894,-280.915 372.64,-262.911 323.756,-251.369"/>
<polygon fill="midnightblue" stroke="midnightblue" points="324.298,-247.901 313.762,-249.009 322.69,-254.713 324.298,-247.901"/>
</g>
<!-- Node10 -->
<g id="node10" class="node"><title>Node10</title>
<polygon fill="none" stroke="#bfbfbf" points="360.223,-224.5 360.223,-254.5 461.223,-254.5 461.223,-224.5 360.223,-224.5"/>
<text text-anchor="start" x="368.223" y="-242.5" font-family="Helvetica,sans-Serif" font-size="10.00">boost/asio/deadline</text>
<text text-anchor="middle" x="410.723" y="-231.5" font-family="Helvetica,sans-Serif" font-size="10.00">_timer.hpp</text>
</g>
<!-- Node2&#45;&gt;Node10 -->
<g id="edge9" class="edge"><title>Node2&#45;&gt;Node10</title>
<path fill="none" stroke="midnightblue" d="M512.673,-291.475C495.803,-283.04 469.434,-269.855 447.739,-259.008"/>
<polygon fill="midnightblue" stroke="midnightblue" points="449.279,-255.865 438.769,-254.523 446.148,-262.126 449.279,-255.865"/>
</g>
<!-- Node11 -->
<g id="node11" class="node"><title>Node11</title>
<polygon fill="none" stroke="#bfbfbf" points="479.223,-224.5 479.223,-254.5 580.223,-254.5 580.223,-224.5 479.223,-224.5"/>
<text text-anchor="start" x="487.223" y="-242.5" font-family="Helvetica,sans-Serif" font-size="10.00">boost/property_tree</text>
<text text-anchor="middle" x="529.723" y="-231.5" font-family="Helvetica,sans-Serif" font-size="10.00">/json_parser.hpp</text>
</g>
<!-- Node2&#45;&gt;Node11 -->
<g id="edge10" class="edge"><title>Node2&#45;&gt;Node11</title>
<path fill="none" stroke="midnightblue" d="M529.723,-291.475C529.723,-284.471 529.723,-274.192 529.723,-264.696"/>
<polygon fill="midnightblue" stroke="midnightblue" points="533.223,-264.523 529.723,-254.523 526.223,-264.523 533.223,-264.523"/>
</g>
<!-- Node12 -->
<g id="node12" class="node"><title>Node12</title>
<polygon fill="none" stroke="#bfbfbf" points="598.223,-224.5 598.223,-254.5 699.223,-254.5 699.223,-224.5 598.223,-224.5"/>
<text text-anchor="start" x="606.223" y="-242.5" font-family="Helvetica,sans-Serif" font-size="10.00">boost/property_tree</text>
<text text-anchor="middle" x="648.723" y="-231.5" font-family="Helvetica,sans-Serif" font-size="10.00">/ptree_fwd.hpp</text>
</g>
<!-- Node2&#45;&gt;Node12 -->
<g id="edge11" class="edge"><title>Node2&#45;&gt;Node12</title>
<path fill="none" stroke="midnightblue" d="M546.773,-291.475C563.643,-283.04 590.013,-269.855 611.707,-259.008"/>
<polygon fill="midnightblue" stroke="midnightblue" points="613.298,-262.126 620.677,-254.523 610.168,-255.865 613.298,-262.126"/>
</g>
<!-- Node13&#45;&gt;Node8 -->
<g id="edge13" class="edge"><title>Node13&#45;&gt;Node8</title>
<path fill="none" stroke="midnightblue" d="M882.723,-291.475C882.723,-283.08 882.723,-269.981 882.723,-259.163"/>
<polygon fill="midnightblue" stroke="midnightblue" points="886.223,-259.009 882.723,-249.009 879.223,-259.009 886.223,-259.009"/>
</g>
<!-- Node14 -->
<g id="node14" class="node"><title>Node14</title>
<g id="a_node14"><a xlink:href="TaskInterface_8h.html" target="_top" xlink:title="QualityControl/TaskInterface.h">
<polygon fill="none" stroke="black" points="965.723,-230 965.723,-249 1115.72,-249 1115.72,-230 965.723,-230"/>
<text text-anchor="middle" x="1040.72" y="-237" font-family="Helvetica,sans-Serif" font-size="10.00">QualityControl/TaskInterface.h</text>
</a>
</g>
</g>
<!-- Node13&#45;&gt;Node14 -->
<g id="edge14" class="edge"><title>Node13&#45;&gt;Node14</title>
<path fill="none" stroke="midnightblue" d="M905.361,-291.475C932.463,-281.269 978.033,-264.108 1008.73,-252.549"/>
<polygon fill="midnightblue" stroke="midnightblue" points="1010,-255.809 1018.13,-249.009 1007.54,-249.258 1010,-255.809"/>
</g>
<!-- Node14&#45;&gt;Node3 -->
<g id="edge15" class="edge"><title>Node14&#45;&gt;Node3</title>
<path fill="none" stroke="midnightblue" d="M992.794,-229.942C981.012,-227.917 968.422,-225.819 956.723,-224 899.087,-215.038 744.609,-221.305 696.723,-188 661.107,-163.228 643.285,-112.553 635.954,-85.3041"/>
<polygon fill="midnightblue" stroke="midnightblue" points="639.324,-84.3556 633.502,-75.5042 632.534,-86.0547 639.324,-84.3556"/>
</g>
<!-- Node14&#45;&gt;Node5 -->
<g id="edge17" class="edge"><title>Node14&#45;&gt;Node5</title>
<path fill="none" stroke="midnightblue" d="M1115.95,-237.862C1202.75,-235.342 1337.69,-225.329 1369.72,-188 1375.51,-181.255 1370.73,-176.831 1369.72,-168 1363.83,-116.567 1377.83,-88.735 1337.72,-56 1288.03,-15.4442 1088.37,-10.9968 1011.29,-10.8247"/>
<polygon fill="midnightblue" stroke="midnightblue" points="1011.26,-7.3246 1001.26,-10.8255 1011.26,-14.3246 1011.26,-7.3246"/>
</g>
<!-- Node15 -->
<g id="node15" class="node"><title>Node15</title>
<polygon fill="none" stroke="#bfbfbf" points="679.723,-112.5 679.723,-131.5 731.723,-131.5 731.723,-112.5 679.723,-112.5"/>
<text text-anchor="middle" x="705.723" y="-119.5" font-family="Helvetica,sans-Serif" font-size="10.00">memory</text>
</g>
<!-- Node14&#45;&gt;Node15 -->
<g id="edge16" class="edge"><title>Node14&#45;&gt;Node15</title>
<path fill="none" stroke="midnightblue" d="M992.785,-229.997C981.004,-227.97 968.416,-225.857 956.723,-224 901.724,-215.263 746.124,-229.26 708.723,-188 697.599,-175.728 698.233,-156.19 700.806,-141.736"/>
<polygon fill="midnightblue" stroke="midnightblue" points="704.244,-142.398 702.989,-131.878 697.41,-140.885 704.244,-142.398"/>
</g>
<!-- Node16 -->
<g id="node16" class="node"><title>Node16</title>
<polygon fill="none" stroke="#bfbfbf" points="1246.22,-56.5 1246.22,-75.5 1329.22,-75.5 1329.22,-56.5 1246.22,-56.5"/>
<text text-anchor="middle" x="1287.72" y="-63.5" font-family="Helvetica,sans-Serif" font-size="10.00">unordered_map</text>
</g>
<!-- Node14&#45;&gt;Node16 -->
<g id="edge18" class="edge"><title>Node14&#45;&gt;Node16</title>
<path fill="none" stroke="midnightblue" d="M1116.01,-237.026C1197.93,-233.642 1321.19,-222.739 1350.72,-188 1378.95,-154.806 1334.07,-106.833 1306.58,-82.4641"/>
<polygon fill="midnightblue" stroke="midnightblue" points="1308.58,-79.5628 1298.71,-75.7017 1304.02,-84.8727 1308.58,-79.5628"/>
</g>
<!-- Node17 -->
<g id="node17" class="node"><title>Node17</title>
<polygon fill="none" stroke="#bfbfbf" points="897.223,-168.5 897.223,-187.5 1022.22,-187.5 1022.22,-168.5 897.223,-168.5"/>
<text text-anchor="middle" x="959.723" y="-175.5" font-family="Helvetica,sans-Serif" font-size="10.00">Framework/InitContext.h</text>
</g>
<!-- Node14&#45;&gt;Node17 -->
<g id="edge19" class="edge"><title>Node14&#45;&gt;Node17</title>
<path fill="none" stroke="midnightblue" d="M1029.12,-229.975C1016.25,-220.52 995.249,-205.096 979.718,-193.687"/>
<polygon fill="midnightblue" stroke="midnightblue" points="981.438,-190.608 971.307,-187.509 977.294,-196.25 981.438,-190.608"/>
</g>
<!-- Node18 -->
<g id="node18" class="node"><title>Node18</title>
<polygon fill="none" stroke="#bfbfbf" points="1040.72,-168.5 1040.72,-187.5 1200.72,-187.5 1200.72,-168.5 1040.72,-168.5"/>
<text text-anchor="middle" x="1120.72" y="-175.5" font-family="Helvetica,sans-Serif" font-size="10.00">Framework/ProcessingContext.h</text>
</g>
<!-- Node14&#45;&gt;Node18 -->
<g id="edge20" class="edge"><title>Node14&#45;&gt;Node18</title>
<path fill="none" stroke="midnightblue" d="M1052.19,-229.975C1064.9,-220.52 1085.64,-205.096 1100.98,-193.687"/>
<polygon fill="midnightblue" stroke="midnightblue" points="1103.35,-196.285 1109.28,-187.509 1099.17,-190.669 1103.35,-196.285"/>
</g>
<!-- Node19 -->
<g id="node19" class="node"><title>Node19</title>
<g id="a_node19"><a xlink:href="Activity_8h.html" target="_top" xlink:title="QualityControl/Activity.h">
<polygon fill="none" stroke="black" points="1219.22,-168.5 1219.22,-187.5 1342.22,-187.5 1342.22,-168.5 1219.22,-168.5"/>
<text text-anchor="middle" x="1280.72" y="-175.5" font-family="Helvetica,sans-Serif" font-size="10.00">QualityControl/Activity.h</text>
</a>
</g>
</g>
<!-- Node14&#45;&gt;Node19 -->
<g id="edge21" class="edge"><title>Node14&#45;&gt;Node19</title>
<path fill="none" stroke="midnightblue" d="M1075.11,-229.975C1117.61,-219.437 1190.02,-201.486 1236.59,-189.941"/>
<polygon fill="midnightblue" stroke="midnightblue" points="1237.54,-193.313 1246.4,-187.509 1235.85,-186.518 1237.54,-193.313"/>
</g>
<!-- Node20 -->
<g id="node20" class="node"><title>Node20</title>
<g id="a_node20"><a xlink:href="ObjectsManager_8h.html" target="_top" xlink:title="QualityControl/ObjectsManager.h">
<polygon fill="none" stroke="black" points="718.223,-168.5 718.223,-187.5 879.223,-187.5 879.223,-168.5 718.223,-168.5"/>
<text text-anchor="middle" x="798.723" y="-175.5" font-family="Helvetica,sans-Serif" font-size="10.00">QualityControl/ObjectsManager.h</text>
</a>
</g>
</g>
<!-- Node14&#45;&gt;Node20 -->
<g id="edge22" class="edge"><title>Node14&#45;&gt;Node20</title>
<path fill="none" stroke="midnightblue" d="M1006.05,-229.975C963.191,-219.437 890.18,-201.486 843.225,-189.941"/>
<polygon fill="midnightblue" stroke="midnightblue" points="843.878,-186.498 833.332,-187.509 842.207,-193.296 843.878,-186.498"/>
</g>
<!-- Node20&#45;&gt;Node5 -->
<g id="edge36" class="edge"><title>Node20&#45;&gt;Node5</title>
<path fill="none" stroke="midnightblue" d="M841.53,-168.456C914.699,-152.865 1058.67,-117.552 1086.72,-76 1107.98,-44.5202 1049.94,-25.6069 1011.57,-16.8572"/>
<polygon fill="midnightblue" stroke="midnightblue" points="1011.86,-13.3402 1001.35,-14.6569 1010.39,-20.1834 1011.86,-13.3402"/>
</g>
<!-- Node20&#45;&gt;Node15 -->
<g id="edge37" class="edge"><title>Node20&#45;&gt;Node15</title>
<path fill="none" stroke="midnightblue" d="M783.781,-168.324C769.138,-159.822 746.59,-146.729 729.486,-136.797"/>
<polygon fill="midnightblue" stroke="midnightblue" points="731.034,-133.649 720.628,-131.655 727.519,-139.703 731.034,-133.649"/>
</g>
<!-- Node21 -->
<g id="node21" class="node"><title>Node21</title>
<g id="a_node21"><a xlink:href="MonitorObject_8h.html" target="_top" xlink:title="QualityControl/MonitorObject.h">
<polygon fill="none" stroke="black" points="788.223,-112.5 788.223,-131.5 939.223,-131.5 939.223,-112.5 788.223,-112.5"/>
<text text-anchor="middle" x="863.723" y="-119.5" font-family="Helvetica,sans-Serif" font-size="10.00">QualityControl/MonitorObject.h</text>
</a>
</g>
</g>
<!-- Node20&#45;&gt;Node21 -->
<g id="edge23" class="edge"><title>Node20&#45;&gt;Node21</title>
<path fill="none" stroke="midnightblue" d="M809.167,-168.324C818.87,-160.263 833.539,-148.077 845.223,-138.369"/>
<polygon fill="midnightblue" stroke="midnightblue" points="847.635,-140.916 853.09,-131.834 843.161,-135.532 847.635,-140.916"/>
</g>
<!-- Node25 -->
<g id="node25" class="node"><title>Node25</title>
<g id="a_node25"><a xlink:href="Quality_8h.html" target="_top" xlink:title="QualityControl/Quality.h">
<polygon fill="none" stroke="black" points="706.223,-56.5 706.223,-75.5 827.223,-75.5 827.223,-56.5 706.223,-56.5"/>
<text text-anchor="middle" x="766.723" y="-63.5" font-family="Helvetica,sans-Serif" font-size="10.00">QualityControl/Quality.h</text>
</a>
</g>
</g>
<!-- Node20&#45;&gt;Node25 -->
<g id="edge32" class="edge"><title>Node20&#45;&gt;Node25</title>
<path fill="none" stroke="midnightblue" d="M794.103,-168.274C789.571,-159.378 782.771,-145.066 778.723,-132 773.996,-116.739 770.861,-98.8537 768.985,-85.7111"/>
<polygon fill="midnightblue" stroke="midnightblue" points="772.426,-85.0265 767.652,-75.5679 765.485,-85.9388 772.426,-85.0265"/>
</g>
<!-- Node26 -->
<g id="node26" class="node"><title>Node26</title>
<g id="a_node26"><a xlink:href="TaskConfig_8h.html" target="_top" xlink:title="QualityControl/TaskConfig.h">
<polygon fill="none" stroke="black" points="1133.72,-112.5 1133.72,-131.5 1273.72,-131.5 1273.72,-112.5 1133.72,-112.5"/>
<text text-anchor="middle" x="1203.72" y="-119.5" font-family="Helvetica,sans-Serif" font-size="10.00">QualityControl/TaskConfig.h</text>
</a>
</g>
</g>
<!-- Node20&#45;&gt;Node26 -->
<g id="edge33" class="edge"><title>Node20&#45;&gt;Node26</title>
<path fill="none" stroke="midnightblue" d="M862.897,-168.444C935.473,-158.767 1053.46,-143.035 1129.82,-132.853"/>
<polygon fill="midnightblue" stroke="midnightblue" points="1130.4,-136.307 1139.85,-131.516 1129.48,-129.369 1130.4,-136.307"/>
</g>
<!-- Node21&#45;&gt;Node3 -->
<g id="edge25" class="edge"><title>Node21&#45;&gt;Node3</title>
<path fill="none" stroke="midnightblue" d="M822.97,-112.491C782.449,-103.875 718.584,-89.8763 663.723,-76 662.255,-75.6285 660.751,-75.2386 659.234,-74.8379"/>
<polygon fill="midnightblue" stroke="midnightblue" points="659.853,-71.3787 649.284,-72.1191 658.008,-78.1311 659.853,-71.3787"/>
</g>
<!-- Node21&#45;&gt;Node5 -->
<g id="edge24" class="edge"><title>Node21&#45;&gt;Node5</title>
<path fill="none" stroke="midnightblue" d="M862.747,-112.389C861.699,-98.8752 861.671,-72.5264 874.723,-56 893.155,-32.6622 925.955,-21.2523 950.203,-15.7883"/>
<polygon fill="midnightblue" stroke="midnightblue" points="950.904,-19.2175 960.005,-13.7932 949.508,-12.3582 950.904,-19.2175"/>
</g>
<!-- Node22 -->
<g id="node22" class="node"><title>Node22</title>
<polygon fill="none" stroke="#bfbfbf" points="693.723,-0.5 693.723,-19.5 749.723,-19.5 749.723,-0.5 693.723,-0.5"/>
<text text-anchor="middle" x="721.723" y="-7.5" font-family="Helvetica,sans-Serif" font-size="10.00">Rtypes.h</text>
</g>
<!-- Node21&#45;&gt;Node22 -->
<g id="edge26" class="edge"><title>Node21&#45;&gt;Node22</title>
<path fill="none" stroke="midnightblue" d="M802.908,-112.475C760.713,-105.17 709.827,-93.1017 696.723,-76 685.64,-61.535 696.273,-41.5721 706.893,-27.5988"/>
<polygon fill="midnightblue" stroke="midnightblue" points="709.674,-29.7269 713.309,-19.7752 704.262,-25.2878 709.674,-29.7269"/>
</g>
<!-- Node23 -->
<g id="node23" class="node"><title>Node23</title>
<polygon fill="none" stroke="#bfbfbf" points="884.223,-56.5 884.223,-75.5 943.223,-75.5 943.223,-56.5 884.223,-56.5"/>
<text text-anchor="middle" x="913.723" y="-63.5" font-family="Helvetica,sans-Serif" font-size="10.00">TObject.h</text>
</g>
<!-- Node21&#45;&gt;Node23 -->
<g id="edge27" class="edge"><title>Node21&#45;&gt;Node23</title>
<path fill="none" stroke="midnightblue" d="M871.98,-112.083C879.188,-104.298 889.833,-92.8015 898.569,-83.3665"/>
<polygon fill="midnightblue" stroke="midnightblue" points="901.394,-85.4666 905.62,-75.7511 896.258,-80.7108 901.394,-85.4666"/>
</g>
<!-- Node24 -->
<g id="node24" class="node"><title>Node24</title>
<polygon fill="none" stroke="#bfbfbf" points="961.723,-56.5 961.723,-75.5 1077.72,-75.5 1077.72,-56.5 961.723,-56.5"/>
<text text-anchor="middle" x="1019.72" y="-63.5" font-family="Helvetica,sans-Serif" font-size="10.00">Common/Exceptions.h</text>
</g>
<!-- Node21&#45;&gt;Node24 -->
<g id="edge28" class="edge"><title>Node21&#45;&gt;Node24</title>
<path fill="none" stroke="midnightblue" d="M888.442,-112.444C914.572,-103.399 955.983,-89.064 985.3,-78.9158"/>
<polygon fill="midnightblue" stroke="midnightblue" points="986.815,-82.0951 995.12,-75.5164 984.525,-75.4801 986.815,-82.0951"/>
</g>
<!-- Node21&#45;&gt;Node25 -->
<g id="edge29" class="edge"><title>Node21&#45;&gt;Node25</title>
<path fill="none" stroke="midnightblue" d="M848.139,-112.324C832.724,-103.743 808.911,-90.486 791.014,-80.5224"/>
<polygon fill="midnightblue" stroke="midnightblue" points="792.709,-77.4606 782.269,-75.6545 789.304,-83.5767 792.709,-77.4606"/>
</g>
<!-- Node25&#45;&gt;Node5 -->
<g id="edge31" class="edge"><title>Node25&#45;&gt;Node5</title>
<path fill="none" stroke="midnightblue" d="M800.632,-56.4435C841.852,-46.0423 910.792,-28.6462 950.347,-18.6651"/>
<polygon fill="midnightblue" stroke="midnightblue" points="951.367,-22.0175 960.206,-16.1772 949.654,-15.2303 951.367,-22.0175"/>
</g>
<!-- Node25&#45;&gt;Node22 -->
<g id="edge30" class="edge"><title>Node25&#45;&gt;Node22</title>
<path fill="none" stroke="midnightblue" d="M759.292,-56.083C752.871,-48.3768 743.418,-37.0333 735.601,-27.6531"/>
<polygon fill="midnightblue" stroke="midnightblue" points="738.106,-25.1927 729.016,-19.7511 732.729,-29.674 738.106,-25.1927"/>
</g>
<!-- Node26&#45;&gt;Node5 -->
<g id="edge34" class="edge"><title>Node26&#45;&gt;Node5</title>
<path fill="none" stroke="midnightblue" d="M1194.65,-112.227C1179.99,-98.4907 1149.73,-71.8428 1119.72,-56 1084.56,-37.4345 1040.35,-24.7332 1011.35,-17.6753"/>
<polygon fill="midnightblue" stroke="midnightblue" points="1011.93,-14.2174 1001.4,-15.3299 1010.33,-21.0308 1011.93,-14.2174"/>
</g>
<!-- Node26&#45;&gt;Node16 -->
<g id="edge35" class="edge"><title>Node26&#45;&gt;Node16</title>
<path fill="none" stroke="midnightblue" d="M1217.22,-112.324C1230.32,-103.9 1250.44,-90.9709 1265.83,-81.0741"/>
<polygon fill="midnightblue" stroke="midnightblue" points="1267.74,-84.0063 1274.26,-75.6545 1263.96,-78.118 1267.74,-84.0063"/>
</g>
</g>
</svg>
        <g id="navigator" transform="translate(0 0)" fill="#404254">
                <rect fill="#f2f5e9" fill-opacity="0.5" stroke="#606060" stroke-width=".5" x="0" y="0" width="60" height="60"/>
                <use id="zoomplus" xlink:href="#zoomPlus" x="17" y="9" onmousedown="handleZoom(evt,'in')"/>
                <use id="zoomminus" xlink:href="#zoomMin" x="42" y="9" onmousedown="handleZoom(evt,'out')"/>
                <use id="reset" xlink:href="#resetDef" x="30" y="36" onmousedown="handleReset()"/>
                <g id="arrowUp" xlink:href="#dirArrow" transform="translate(30 24)" onmousedown="handlePan(0,-1)">
                  <use xlink:href="#rim" fill="#404040">
                        <set attributeName="fill" to="#808080" begin="arrowUp.mouseover" end="arrowUp.mouseout"/>
                  </use>
                  <path fill="none" stroke="white" stroke-width="1.5" d="M0,-3.0v7 M-2.5,-0.5L0,-3.0L2.5,-0.5"/>
                </g>
                <g id="arrowRight" xlink:href="#dirArrow" transform="rotate(90) translate(36 -43)" onmousedown="handlePan(1,0)">
                  <use xlink:href="#rim" fill="#404040">
                        <set attributeName="fill" to="#808080" begin="arrowRight.mouseover" end="arrowRight.mouseout"/>
                  </use>
                  <path fill="none" stroke="white" stroke-width="1.5" d="M0,-3.0v7 M-2.5,-0.5L0,-3.0L2.5,-0.5"/>
                </g>
                <g id="arrowDown" xlink:href="#dirArrow" transform="rotate(180) translate(-30 -48)" onmousedown="handlePan(0,1)">
                  <use xlink:href="#rim" fill="#404040">
                        <set attributeName="fill" to="#808080" begin="arrowDown.mouseover" end="arrowDown.mouseout"/>
                  </use>
                  <path fill="none" stroke="white" stroke-width="1.5" d="M0,-3.0v7 M-2.5,-0.5L0,-3.0L2.5,-0.5"/>
                </g>
                <g id="arrowLeft" xlink:href="#dirArrow" transform="rotate(270) translate(-36 17)" onmousedown="handlePan(-1,0)">
                  <use xlink:href="#rim" fill="#404040">
                        <set attributeName="fill" to="#808080" begin="arrowLeft.mouseover" end="arrowLeft.mouseout"/>
                  </use>
                  <path fill="none" stroke="white" stroke-width="1.5" d="M0,-3.0v7 M-2.5,-0.5L0,-3.0L2.5,-0.5"/>
                </g>
        </g>
        <svg viewBox="0 0 15 15" width="100%" height="30px" preserveAspectRatio="xMaxYMin meet">
         <g id="arrow_out" transform="scale(0.3 0.3)">
          <a xlink:href="InformationService_8cxx__incl_org.svg" target="_base">
           <rect id="button" ry="5" rx="5" y="6" x="6" height="38" width="38"
                fill="#f2f5e9" fill-opacity="0.5" stroke="#606060" stroke-width="1.0"/>
           <path id="arrow"
             d="M 11.500037,31.436501 C 11.940474,20.09759 22.043105,11.32322 32.158766,21.979434 L 37.068811,17.246167 C 37.068811,17.246167 37.088388,32 37.088388,32 L 22.160133,31.978069 C 22.160133,31.978069 26.997745,27.140456 26.997745,27.140456 C 18.528582,18.264221 13.291696,25.230495 11.500037,31.436501 z"
             style="fill:#404040;"/>
          </a>
         </g>
        </svg>
</svg>
