<?xml version="1.0" encoding="UTF-8" standalone="no"?>
<!DOCTYPE svg PUBLIC "-//W3C//DTD SVG 1.1//EN"
 "http://www.w3.org/Graphics/SVG/1.1/DTD/svg11.dtd">
<!-- Generated by graphviz version 2.38.0 (20140413.2041)
 -->
<!-- Title: Framework/src/InformationService.h Pages: 1 -->
<svg width="1015pt" height="106pt"
 viewBox="0.00 0.00 1015.00 106.00" xmlns="http://www.w3.org/2000/svg" xmlns:xlink="http://www.w3.org/1999/xlink">
<g id="graph0" class="graph" transform="scale(1 1) rotate(0) translate(4 102)">
<title>Framework/src/InformationService.h</title>
<!-- Node1 -->
<g id="node1" class="node"><title>Node1</title>
<polygon fill="#bfbfbf" stroke="black" points="300.5,-67.5 300.5,-97.5 434.5,-97.5 434.5,-67.5 300.5,-67.5"/>
<text text-anchor="start" x="308.5" y="-85.5" font-family="Helvetica,sans-Serif" font-size="10.00">Framework/src/Information</text>
<text text-anchor="middle" x="367.5" y="-74.5" font-family="Helvetica,sans-Serif" font-size="10.00">Service.h</text>
</g>
<!-- Node2 -->
<g id="node2" class="node"><title>Node2</title>
<polygon fill="none" stroke="#bfbfbf" points="0,-6 0,-25 35,-25 35,-6 0,-6"/>
<text text-anchor="middle" x="17.5" y="-13" font-family="Helvetica,sans-Serif" font-size="10.00">map</text>
</g>
<!-- Node1&#45;&gt;Node2 -->
<g id="edge1" class="edge"><title>Node1&#45;&gt;Node2</title>
<path fill="none" stroke="midnightblue" d="M300.37,-77.6166C233.931,-72.2506 130.05,-59.7273 44.5,-31 43.2516,-30.5808 41.9923,-30.1071 40.7357,-29.5934"/>
<polygon fill="midnightblue" stroke="midnightblue" points="41.9179,-26.2788 31.3874,-25.1121 38.8919,-32.591 41.9179,-26.2788"/>
</g>
<!-- Node3 -->
<g id="node3" class="node"><title>Node3</title>
<polygon fill="none" stroke="#bfbfbf" points="53.5,-6 53.5,-25 97.5,-25 97.5,-6 53.5,-6"/>
<text text-anchor="middle" x="75.5" y="-13" font-family="Helvetica,sans-Serif" font-size="10.00">vector</text>
</g>
<!-- Node1&#45;&gt;Node3 -->
<g id="edge2" class="edge"><title>Node1&#45;&gt;Node3</title>
<path fill="none" stroke="midnightblue" d="M300.388,-73.1596C246.982,-65.4209 170.801,-51.904 106.5,-31 104.83,-30.457 103.132,-29.846 101.435,-29.19"/>
<polygon fill="midnightblue" stroke="midnightblue" points="102.496,-25.8364 91.9264,-25.1004 99.7298,-32.2668 102.496,-25.8364"/>
</g>
<!-- Node4 -->
<g id="node4" class="node"><title>Node4</title>
<polygon fill="none" stroke="#bfbfbf" points="116,-6 116,-25 157,-25 157,-6 116,-6"/>
<text text-anchor="middle" x="136.5" y="-13" font-family="Helvetica,sans-Serif" font-size="10.00">string</text>
</g>
<!-- Node1&#45;&gt;Node4 -->
<g id="edge3" class="edge"><title>Node1&#45;&gt;Node4</title>
<path fill="none" stroke="midnightblue" d="M300.391,-68.2384C260.827,-59.5357 210.129,-46.8364 166.5,-31 165.073,-30.4819 163.623,-29.9176 162.169,-29.322"/>
<polygon fill="midnightblue" stroke="midnightblue" points="163.301,-25.9936 152.744,-25.0958 160.437,-32.3809 163.301,-25.9936"/>
</g>
<!-- Node5 -->
<g id="node5" class="node"><title>Node5</title>
<polygon fill="none" stroke="#bfbfbf" points="175.5,-6 175.5,-25 219.5,-25 219.5,-6 175.5,-6"/>
<text text-anchor="middle" x="197.5" y="-13" font-family="Helvetica,sans-Serif" font-size="10.00">thread</text>
</g>
<!-- Node1&#45;&gt;Node5 -->
<g id="edge4" class="edge"><title>Node1&#45;&gt;Node5</title>
<path fill="none" stroke="midnightblue" d="M325.77,-67.4288C297.97,-57.7889 260.756,-44.3722 228.5,-31 227.128,-30.4312 225.728,-29.8351 224.319,-29.2227"/>
<polygon fill="midnightblue" stroke="midnightblue" points="225.639,-25.9782 215.084,-25.0558 222.76,-32.3589 225.639,-25.9782"/>
</g>
<!-- Node6 -->
<g id="node6" class="node"><title>Node6</title>
<polygon fill="none" stroke="#bfbfbf" points="237.5,-6 237.5,-25 355.5,-25 355.5,-6 237.5,-6"/>
<text text-anchor="middle" x="296.5" y="-13" font-family="Helvetica,sans-Serif" font-size="10.00">fairmq/FairMQDevice.h</text>
</g>
<!-- Node1&#45;&gt;Node6 -->
<g id="edge5" class="edge"><title>Node1&#45;&gt;Node6</title>
<path fill="none" stroke="midnightblue" d="M352.094,-67.396C340.695,-56.96 325.174,-42.7507 313.428,-31.9978"/>
<polygon fill="midnightblue" stroke="midnightblue" points="315.736,-29.3655 305.997,-25.1945 311.01,-34.5287 315.736,-29.3655"/>
</g>
<!-- Node7 -->
<g id="node7" class="node"><title>Node7</title>
<polygon fill="none" stroke="#bfbfbf" points="373.5,-6 373.5,-25 503.5,-25 503.5,-6 373.5,-6"/>
<text text-anchor="middle" x="438.5" y="-13" font-family="Helvetica,sans-Serif" font-size="10.00">InfoLogger/InfoLogger.hxx</text>
</g>
<!-- Node1&#45;&gt;Node7 -->
<g id="edge6" class="edge"><title>Node1&#45;&gt;Node7</title>
<path fill="none" stroke="midnightblue" d="M382.906,-67.396C394.305,-56.96 409.826,-42.7507 421.572,-31.9978"/>
<polygon fill="midnightblue" stroke="midnightblue" points="423.99,-34.5287 429.003,-25.1945 419.264,-29.3655 423.99,-34.5287"/>
</g>
<!-- Node8 -->
<g id="node8" class="node"><title>Node8</title>
<polygon fill="none" stroke="#bfbfbf" points="521.5,-6 521.5,-25 649.5,-25 649.5,-6 521.5,-6"/>
<text text-anchor="middle" x="585.5" y="-13" font-family="Helvetica,sans-Serif" font-size="10.00">boost/asio/io_service.hpp</text>
</g>
<!-- Node1&#45;&gt;Node8 -->
<g id="edge7" class="edge"><title>Node1&#45;&gt;Node8</title>
<path fill="none" stroke="midnightblue" d="M414.534,-67.476C454.121,-55.6727 510.035,-39.0009 547.002,-27.9789"/>
<polygon fill="midnightblue" stroke="midnightblue" points="548.313,-31.2402 556.896,-25.0287 546.313,-24.532 548.313,-31.2402"/>
</g>
<!-- Node9 -->
<g id="node9" class="node"><title>Node9</title>
<polygon fill="none" stroke="#bfbfbf" points="668,-0.5 668,-30.5 769,-30.5 769,-0.5 668,-0.5"/>
<text text-anchor="start" x="676" y="-18.5" font-family="Helvetica,sans-Serif" font-size="10.00">boost/asio/deadline</text>
<text text-anchor="middle" x="718.5" y="-7.5" font-family="Helvetica,sans-Serif" font-size="10.00">_timer.hpp</text>
</g>
<!-- Node1&#45;&gt;Node9 -->
<g id="edge8" class="edge"><title>Node1&#45;&gt;Node9</title>
<path fill="none" stroke="midnightblue" d="M434.772,-71.104C491.652,-62.0213 575.502,-47.948 658.02,-31.0195"/>
<polygon fill="midnightblue" stroke="midnightblue" points="658.729,-34.447 667.813,-28.9954 657.312,-27.5919 658.729,-34.447"/>
</g>
<!-- Node10 -->
<g id="node10" class="node"><title>Node10</title>
<polygon fill="none" stroke="#bfbfbf" points="787,-0.5 787,-30.5 888,-30.5 888,-0.5 787,-0.5"/>
<text text-anchor="start" x="795" y="-18.5" font-family="Helvetica,sans-Serif" font-size="10.00">boost/property_tree</text>
<text text-anchor="middle" x="837.5" y="-7.5" font-family="Helvetica,sans-Serif" font-size="10.00">/json_parser.hpp</text>
</g>
<!-- Node1&#45;&gt;Node10 -->
<g id="edge9" class="edge"><title>Node1&#45;&gt;Node10</title>
<path fill="none" stroke="midnightblue" d="M434.789,-75.7055C514.341,-68.3016 650.86,-53.8623 776.548,-31.2382"/>
<polygon fill="midnightblue" stroke="midnightblue" points="777.523,-34.6182 786.734,-29.3821 776.268,-27.7316 777.523,-34.6182"/>
</g>
<!-- Node11 -->
<g id="node11" class="node"><title>Node11</title>
<polygon fill="none" stroke="#bfbfbf" points="906,-0.5 906,-30.5 1007,-30.5 1007,-0.5 906,-0.5"/>
<text text-anchor="start" x="914" y="-18.5" font-family="Helvetica,sans-Serif" font-size="10.00">boost/property_tree</text>
<text text-anchor="middle" x="956.5" y="-7.5" font-family="Helvetica,sans-Serif" font-size="10.00">/ptree_fwd.hpp</text>
</g>
<!-- Node1&#45;&gt;Node11 -->
<g id="edge10" class="edge"><title>Node1&#45;&gt;Node11</title>
<path fill="none" stroke="midnightblue" d="M434.844,-78.2392C533.985,-72.7417 725.101,-59.4903 895.831,-31.1395"/>
<polygon fill="midnightblue" stroke="midnightblue" points="896.469,-34.5814 905.75,-29.4713 895.308,-27.6784 896.469,-34.5814"/>
</g>
</g>
</svg>
