<?xml version="1.0" encoding="UTF-8" standalone="no"?>
<!DOCTYPE svg PUBLIC "-//W3C//DTD SVG 1.1//EN"
 "http://www.w3.org/Graphics/SVG/1.1/DTD/svg11.dtd">
<!-- Generated by graphviz version 2.38.0 (20140413.2041)
 -->
<!-- Title: Framework/include/QualityControl/InfrastructureGenerator.h Pages: 1 -->
<svg width="1404pt" height="106pt"
 viewBox="0.00 0.00 1404.00 106.00" xmlns="http://www.w3.org/2000/svg" xmlns:xlink="http://www.w3.org/1999/xlink">
<g id="graph0" class="graph" transform="scale(1 1) rotate(0) translate(4 102)">
<title>Framework/include/QualityControl/InfrastructureGenerator.h</title>
<!-- Node1 -->
<g id="node1" class="node"><title>Node1</title>
<polygon fill="#bfbfbf" stroke="black" points="568.5,-67.5 568.5,-97.5 728.5,-97.5 728.5,-67.5 568.5,-67.5"/>
<text text-anchor="start" x="576.5" y="-85.5" font-family="Helvetica,sans-Serif" font-size="10.00">Framework/include/Quality</text>
<text text-anchor="middle" x="648.5" y="-74.5" font-family="Helvetica,sans-Serif" font-size="10.00">Control/InfrastructureGenerator.h</text>
</g>
<!-- Node2 -->
<g id="node2" class="node"><title>Node2</title>
<polygon fill="none" stroke="#bfbfbf" points="0,-0.5 0,-30.5 143,-30.5 143,-0.5 0,-0.5"/>
<text text-anchor="start" x="8" y="-18.5" font-family="Helvetica,sans-Serif" font-size="10.00">Framework/src/Infrastructure</text>
<text text-anchor="middle" x="71.5" y="-7.5" font-family="Helvetica,sans-Serif" font-size="10.00">Generator.cxx</text>
</g>
<!-- Node1&#45;&gt;Node2 -->
<g id="edge1" class="edge"><title>Node1&#45;&gt;Node2</title>
<path fill="none" stroke="midnightblue" d="M558.168,-74.454C458.379,-66.1743 293.059,-50.9895 151.5,-31 148.844,-30.625 146.142,-30.2258 143.415,-29.8081"/>
<polygon fill="midnightblue" stroke="midnightblue" points="557.96,-77.9486 568.214,-75.2825 558.536,-70.9723 557.96,-77.9486"/>
</g>
<!-- Node3 -->
<g id="node3" class="node"><title>Node3</title>
<g id="a_node3"><a xlink:href="runAdvanced_8cxx.html" target="_top" xlink:title="This is an executable showing a more complicated QC topology. ">
<polygon fill="none" stroke="black" points="161,-6 161,-25 322,-25 322,-6 161,-6"/>
<text text-anchor="middle" x="241.5" y="-13" font-family="Helvetica,sans-Serif" font-size="10.00">Framework/src/runAdvanced.cxx</text>
</a>
</g>
</g>
<!-- Node1&#45;&gt;Node3 -->
<g id="edge2" class="edge"><title>Node1&#45;&gt;Node3</title>
<path fill="none" stroke="midnightblue" d="M558.394,-67.1888C494.946,-57.1011 408.021,-43.2593 331.5,-31 319.467,-29.0722 306.53,-26.9923 294.322,-25.0262"/>
<polygon fill="midnightblue" stroke="midnightblue" points="557.944,-70.6612 568.37,-68.7747 559.044,-63.748 557.944,-70.6612"/>
</g>
<!-- Node4 -->
<g id="node4" class="node"><title>Node4</title>
<g id="a_node4"><a xlink:href="runBasic_8cxx.html" target="_top" xlink:title="This is an executable showing QC Task&#39;s usage in Data Processing Layer. ">
<polygon fill="none" stroke="black" points="340.5,-6 340.5,-25 482.5,-25 482.5,-6 340.5,-6"/>
<text text-anchor="middle" x="411.5" y="-13" font-family="Helvetica,sans-Serif" font-size="10.00">Framework/src/runBasic.cxx</text>
</a>
</g>
</g>
<!-- Node1&#45;&gt;Node4 -->
<g id="edge3" class="edge"><title>Node1&#45;&gt;Node4</title>
<path fill="none" stroke="midnightblue" d="M587.72,-64.8304C541.336,-52.1091 479.341,-35.1062 442.597,-25.0287"/>
<polygon fill="midnightblue" stroke="midnightblue" points="586.797,-68.2063 597.366,-67.476 588.648,-61.4556 586.797,-68.2063"/>
</g>
<!-- Node5 -->
<g id="node5" class="node"><title>Node5</title>
<g id="a_node5"><a xlink:href="runQC_8cxx.html" target="_top" xlink:title="This is an executable which generates a QC topology given a configuration file. ">
<polygon fill="none" stroke="black" points="500.5,-6 500.5,-25 632.5,-25 632.5,-6 500.5,-6"/>
<text text-anchor="middle" x="566.5" y="-13" font-family="Helvetica,sans-Serif" font-size="10.00">Framework/src/runQC.cxx</text>
</a>
</g>
</g>
<!-- Node1&#45;&gt;Node5 -->
<g id="edge4" class="edge"><title>Node1&#45;&gt;Node5</title>
<path fill="none" stroke="midnightblue" d="M622.649,-61.008C607.426,-48.9412 588.961,-34.3046 577.468,-25.1945"/>
<polygon fill="midnightblue" stroke="midnightblue" points="620.696,-63.9268 630.707,-67.396 625.045,-58.4412 620.696,-63.9268"/>
</g>
<!-- Node6 -->
<g id="node6" class="node"><title>Node6</title>
<g id="a_node6"><a xlink:href="testInfrastructureGenerator_8cxx.html" target="_top" xlink:title="Framework/test/testInfrastructure\lGenerator.cxx">
<polygon fill="none" stroke="black" points="650.5,-0.5 650.5,-30.5 812.5,-30.5 812.5,-0.5 650.5,-0.5"/>
<text text-anchor="start" x="658.5" y="-18.5" font-family="Helvetica,sans-Serif" font-size="10.00">Framework/test/testInfrastructure</text>
<text text-anchor="middle" x="731.5" y="-7.5" font-family="Helvetica,sans-Serif" font-size="10.00">Generator.cxx</text>
</a>
</g>
</g>
<!-- Node1&#45;&gt;Node6 -->
<g id="edge5" class="edge"><title>Node1&#45;&gt;Node6</title>
<path fill="none" stroke="midnightblue" d="M674.463,-61.1677C687.155,-51.2283 702.112,-39.5144 713.525,-30.5765"/>
<polygon fill="midnightblue" stroke="midnightblue" points="672.225,-58.4747 666.51,-67.396 676.541,-63.9859 672.225,-58.4747"/>
</g>
<!-- Node7 -->
<g id="node7" class="node"><title>Node7</title>
<g id="a_node7"><a xlink:href="testWorkflow_8cxx.html" target="_top" xlink:title="Framework/test/testWorkflow.cxx">
<polygon fill="none" stroke="black" points="830.5,-6 830.5,-25 994.5,-25 994.5,-6 830.5,-6"/>
<text text-anchor="middle" x="912.5" y="-13" font-family="Helvetica,sans-Serif" font-size="10.00">Framework/test/testWorkflow.cxx</text>
</a>
</g>
</g>
<!-- Node1&#45;&gt;Node7 -->
<g id="edge6" class="edge"><title>Node1&#45;&gt;Node7</title>
<path fill="none" stroke="midnightblue" d="M715.233,-65.0694C767.004,-52.3228 836.673,-35.1694 877.861,-25.0287"/>
<polygon fill="midnightblue" stroke="midnightblue" points="714.332,-61.6867 705.459,-67.476 716.006,-68.4837 714.332,-61.6867"/>
</g>
<!-- Node8 -->
<g id="node8" class="node"><title>Node8</title>
<polygon fill="none" stroke="#bfbfbf" points="1012.5,-6 1012.5,-25 1230.5,-25 1230.5,-6 1012.5,-6"/>
<text text-anchor="middle" x="1121.5" y="-13" font-family="Helvetica,sans-Serif" font-size="10.00">Modules/EMCAL/src/runQCEMCALDigits.cxx</text>
</g>
<!-- Node1&#45;&gt;Node8 -->
<g id="edge7" class="edge"><title>Node1&#45;&gt;Node8</title>
<path fill="none" stroke="midnightblue" d="M738.806,-69.0901C832.802,-56.1731 977.495,-36.2893 1059.39,-25.0349"/>
<polygon fill="midnightblue" stroke="midnightblue" points="738.168,-65.6447 728.738,-70.4736 739.121,-72.5796 738.168,-65.6447"/>
</g>
<!-- Node9 -->
<g id="node9" class="node"><title>Node9</title>
<g id="a_node9"><a xlink:href="runTOF_8cxx.html" target="_top" xlink:title="This is an executable showing QC Task&#39;s usage in Data Processing Layer. ">
<polygon fill="none" stroke="black" points="1249,-6 1249,-25 1396,-25 1396,-6 1249,-6"/>
<text text-anchor="middle" x="1322.5" y="-13" font-family="Helvetica,sans-Serif" font-size="10.00">Modules/TOF/src/runTOF.cxx</text>
</a>
</g>
</g>
<!-- Node1&#45;&gt;Node9 -->
<g id="edge8" class="edge"><title>Node1&#45;&gt;Node9</title>
<path fill="none" stroke="midnightblue" d="M738.821,-76.2531C854.976,-68.9392 1062.8,-53.9388 1239.5,-31 1251.98,-29.3805 1265.44,-27.2127 1277.81,-25.0477"/>
<polygon fill="midnightblue" stroke="midnightblue" points="738.32,-72.7774 728.557,-76.8943 738.756,-79.7638 738.32,-72.7774"/>
</g>
</g>
</svg>
