<?xml version="1.0" encoding="UTF-8" standalone="no"?>
<!DOCTYPE svg PUBLIC "-//W3C//DTD SVG 1.1//EN"
 "http://www.w3.org/Graphics/SVG/1.1/DTD/svg11.dtd">
<!-- Generated by graphviz version 2.38.0 (20140413.2041)
 -->
<!-- Title: Graphical Class Hierarchy Pages: 1 -->
<svg width="337pt" height="88pt"
 viewBox="0.00 0.00 337.00 88.00" xmlns="http://www.w3.org/2000/svg" xmlns:xlink="http://www.w3.org/1999/xlink">
<g id="graph0" class="graph" transform="scale(1 1) rotate(0) translate(4 84)">
<title>Graphical Class Hierarchy</title>
<!-- Node1 -->
<g id="node1" class="node"><title>Node1</title>
<g id="a_node1"><a xlink:href="classo2_1_1quality__control_1_1repository_1_1DatabaseInterface.html" target="_top" xlink:title="The interface to the MonitorObject&#39;s repository. ">
<polygon fill="none" stroke="black" points="0,-24.5 0,-54.5 152,-54.5 152,-24.5 0,-24.5"/>
<text text-anchor="start" x="8" y="-42.5" font-family="Helvetica,sans-Serif" font-size="10.00">o2::quality_control</text>
<text text-anchor="middle" x="76" y="-31.5" font-family="Helvetica,sans-Serif" font-size="10.00">::repository::DatabaseInterface</text>
</a>
</g>
</g>
<!-- Node2 -->
<g id="node2" class="node"><title>Node2</title>
<g id="a_node2"><a xlink:href="classo2_1_1quality__control_1_1repository_1_1CcdbDatabase.html" target="_top" xlink:title="o2::quality_control\l::repository::CcdbDatabase">
<polygon fill="none" stroke="black" points="190,-49.5 190,-79.5 327,-79.5 327,-49.5 190,-49.5"/>
<text text-anchor="start" x="198" y="-67.5" font-family="Helvetica,sans-Serif" font-size="10.00">o2::quality_control</text>
<text text-anchor="middle" x="258.5" y="-56.5" font-family="Helvetica,sans-Serif" font-size="10.00">::repository::CcdbDatabase</text>
</a>
</g>
</g>
<!-- Node1&#45;&gt;Node2 -->
<g id="edge1" class="edge"><title>Node1&#45;&gt;Node2</title>
<path fill="none" stroke="midnightblue" d="M162.25,-51.3075C171.516,-52.5909 180.853,-53.884 189.868,-55.1327"/>
<polygon fill="midnightblue" stroke="midnightblue" points="162.627,-47.8263 152.241,-49.9212 161.666,-54.7602 162.627,-47.8263"/>
</g>
<!-- Node3 -->
<g id="node3" class="node"><title>Node3</title>
<g id="a_node3"><a xlink:href="classo2_1_1quality__control_1_1repository_1_1MySqlDatabase.html" target="_top" xlink:title="Implementation of the DatabaseInterface for MySQL. ">
<polygon fill="none" stroke="black" points="188,-0.5 188,-30.5 329,-30.5 329,-0.5 188,-0.5"/>
<text text-anchor="start" x="196" y="-18.5" font-family="Helvetica,sans-Serif" font-size="10.00">o2::quality_control</text>
<text text-anchor="middle" x="258.5" y="-7.5" font-family="Helvetica,sans-Serif" font-size="10.00">::repository::MySqlDatabase</text>
</a>
</g>
</g>
<!-- Node1&#45;&gt;Node3 -->
<g id="edge2" class="edge"><title>Node1&#45;&gt;Node3</title>
<path fill="none" stroke="midnightblue" d="M162.264,-28.163C170.841,-27.0226 179.478,-25.8741 187.864,-24.759"/>
<polygon fill="midnightblue" stroke="midnightblue" points="161.693,-24.708 152.241,-29.4956 162.615,-31.647 161.693,-24.708"/>
</g>
</g>
</svg>
