<?xml version="1.0" encoding="UTF-8" standalone="no"?>
<!DOCTYPE svg PUBLIC "-//W3C//DTD SVG 1.1//EN"
 "http://www.w3.org/Graphics/SVG/1.1/DTD/svg11.dtd">
<!-- Generated by graphviz version 2.38.0 (20140413.2041)
 -->
<!-- Title: Graphical Class Hierarchy Pages: 1 -->
<svg width="268pt" height="165pt"
 viewBox="0.00 0.00 268.00 164.50" xmlns="http://www.w3.org/2000/svg" xmlns:xlink="http://www.w3.org/1999/xlink">
<g id="graph0" class="graph" transform="scale(1 1) rotate(0) translate(4 160.5)">
<title>Graphical Class Hierarchy</title>
<!-- Node1 -->
<g id="node1" class="node"><title>Node1</title>
<g id="a_node1"><a xlink:href="classFairMQDevice.html" target="_top" xlink:title="FairMQDevice">
<polygon fill="none" stroke="black" points="0,-77 0,-96 80,-96 80,-77 0,-77"/>
<text text-anchor="middle" x="40" y="-84" font-family="Helvetica,sans-Serif" font-size="10.00">FairMQDevice</text>
</a>
</g>
</g>
<!-- Node2 -->
<g id="node2" class="node"><title>Node2</title>
<g id="a_node2"><a xlink:href="classInformationService.html" target="_top" xlink:title="Collect the list of objects published by all the tasks and make it available to clients. ">
<polygon fill="none" stroke="black" points="139,-137 139,-156 237,-156 237,-137 139,-137"/>
<text text-anchor="middle" x="188" y="-144" font-family="Helvetica,sans-Serif" font-size="10.00">InformationService</text>
</a>
</g>
</g>
<!-- Node1&#45;&gt;Node2 -->
<g id="edge1" class="edge"><title>Node1&#45;&gt;Node2</title>
<path fill="none" stroke="midnightblue" d="M64.7362,-101.385C79.145,-109.931 98.145,-120.35 116,-127.5 125.121,-131.152 135.179,-134.327 144.784,-136.98"/>
<polygon fill="midnightblue" stroke="midnightblue" points="66.3565,-98.2747 55.9886,-96.0931 62.7331,-104.264 66.3565,-98.2747"/>
</g>
<!-- Node3 -->
<g id="node3" class="node"><title>Node3</title>
<g id="a_node3"><a xlink:href="classInformationServiceDump.html" target="_top" xlink:title="Dump the publications received from the InformationService. ">
<polygon fill="none" stroke="black" points="125.5,-99 125.5,-118 250.5,-118 250.5,-99 125.5,-99"/>
<text text-anchor="middle" x="188" y="-106" font-family="Helvetica,sans-Serif" font-size="10.00">InformationServiceDump</text>
</a>
</g>
</g>
<!-- Node1&#45;&gt;Node3 -->
<g id="edge2" class="edge"><title>Node1&#45;&gt;Node3</title>
<path fill="none" stroke="midnightblue" d="M90.2374,-93.9193C101.549,-95.6239 113.716,-97.4572 125.475,-99.2291"/>
<polygon fill="midnightblue" stroke="midnightblue" points="90.5352,-90.4248 80.1253,-92.3956 89.4922,-97.3466 90.5352,-90.4248"/>
</g>
<!-- Node4 -->
<g id="node4" class="node"><title>Node4</title>
<g id="a_node4"><a xlink:href="classo2_1_1quality__control_1_1core_1_1DataDumpGui.html" target="_top" xlink:title="o2::quality_control\l::core::DataDumpGui">
<polygon fill="none" stroke="black" points="133,-49.5 133,-79.5 243,-79.5 243,-49.5 133,-49.5"/>
<text text-anchor="start" x="141" y="-67.5" font-family="Helvetica,sans-Serif" font-size="10.00">o2::quality_control</text>
<text text-anchor="middle" x="188" y="-56.5" font-family="Helvetica,sans-Serif" font-size="10.00">::core::DataDumpGui</text>
</a>
</g>
</g>
<!-- Node1&#45;&gt;Node4 -->
<g id="edge3" class="edge"><title>Node1&#45;&gt;Node4</title>
<path fill="none" stroke="midnightblue" d="M90.3256,-79.0674C104.031,-77.0022 118.985,-74.7488 132.946,-72.6451"/>
<polygon fill="midnightblue" stroke="midnightblue" points="89.4922,-75.6534 80.1253,-80.6044 90.5352,-82.5752 89.4922,-75.6534"/>
</g>
<!-- Node5 -->
<g id="node5" class="node"><title>Node5</title>
<g id="a_node5"><a xlink:href="classo2_1_1quality__control_1_1core_1_1RepositoryBenchmark.html" target="_top" xlink:title="o2::quality_control\l::core::RepositoryBenchmark">
<polygon fill="none" stroke="black" points="116,-0.5 116,-30.5 260,-30.5 260,-0.5 116,-0.5"/>
<text text-anchor="start" x="124" y="-18.5" font-family="Helvetica,sans-Serif" font-size="10.00">o2::quality_control</text>
<text text-anchor="middle" x="188" y="-7.5" font-family="Helvetica,sans-Serif" font-size="10.00">::core::RepositoryBenchmark</text>
</a>
</g>
</g>
<!-- Node1&#45;&gt;Node5 -->
<g id="edge4" class="edge"><title>Node1&#45;&gt;Node5</title>
<path fill="none" stroke="midnightblue" d="M62.9537,-71.3226C77.5475,-61.6691 97.3837,-49.3635 116,-40.5 123.551,-36.9046 131.765,-33.5444 139.837,-30.5266"/>
<polygon fill="midnightblue" stroke="midnightblue" points="60.9492,-68.4528 54.6022,-76.9361 64.8541,-74.2624 60.9492,-68.4528"/>
</g>
</g>
</svg>
