<?xml version="1.0" encoding="UTF-8" standalone="no"?>
<!DOCTYPE svg PUBLIC "-//W3C//DTD SVG 1.1//EN"
 "http://www.w3.org/Graphics/SVG/1.1/DTD/svg11.dtd">
<!-- Generated by graphviz version 2.38.0 (20140413.2041)
 -->
<!-- Title: Graphical Class Hierarchy Pages: 1 -->
<svg width="330pt" height="343pt"
 viewBox="0.00 0.00 330.00 343.00" xmlns="http://www.w3.org/2000/svg" xmlns:xlink="http://www.w3.org/1999/xlink">
<g id="graph0" class="graph" transform="scale(1 1) rotate(0) translate(4 339)">
<title>Graphical Class Hierarchy</title>
<!-- Node1 -->
<g id="node1" class="node"><title>Node1</title>
<g id="a_node1"><a xlink:href="classo2_1_1quality__control_1_1core_1_1TaskInterface.html" target="_top" xlink:title="Skeleton of a QC task. ">
<polygon fill="none" stroke="black" points="0,-157.5 0,-187.5 107,-187.5 107,-157.5 0,-157.5"/>
<text text-anchor="start" x="8" y="-175.5" font-family="Helvetica,sans-Serif" font-size="10.00">o2::quality_control</text>
<text text-anchor="middle" x="53.5" y="-164.5" font-family="Helvetica,sans-Serif" font-size="10.00">::core::TaskInterface</text>
</a>
</g>
</g>
<!-- Node2 -->
<g id="node2" class="node"><title>Node2</title>
<g id="a_node2"><a xlink:href="classo2_1_1quality__control_1_1test_1_1TestTask.html" target="_top" xlink:title="o2::quality_control\l::test::TestTask">
<polygon fill="none" stroke="black" points="184.5,-304.5 184.5,-334.5 280.5,-334.5 280.5,-304.5 184.5,-304.5"/>
<text text-anchor="start" x="192.5" y="-322.5" font-family="Helvetica,sans-Serif" font-size="10.00">o2::quality_control</text>
<text text-anchor="middle" x="232.5" y="-311.5" font-family="Helvetica,sans-Serif" font-size="10.00">::test::TestTask</text>
</a>
</g>
</g>
<!-- Node1&#45;&gt;Node2 -->
<g id="edge1" class="edge"><title>Node1&#45;&gt;Node2</title>
<path fill="none" stroke="midnightblue" d="M65.5382,-196.655C79.5718,-224.649 106.442,-270.168 143,-295.5 155.169,-303.932 170.176,-309.405 184.354,-312.956"/>
<polygon fill="midnightblue" stroke="midnightblue" points="68.6315,-195.013 61.1148,-187.546 62.3346,-198.071 68.6315,-195.013"/>
</g>
<!-- Node3 -->
<g id="node3" class="node"><title>Node3</title>
<g id="a_node3"><a xlink:href="classo2_1_1quality__control__modules_1_1daq_1_1DaqTask.html" target="_top" xlink:title="Example Quality Control Task It is final because there is no reason to derive from it...">
<polygon fill="none" stroke="black" points="169.5,-255.5 169.5,-285.5 295.5,-285.5 295.5,-255.5 169.5,-255.5"/>
<text text-anchor="start" x="177.5" y="-273.5" font-family="Helvetica,sans-Serif" font-size="10.00">o2::quality_control</text>
<text text-anchor="middle" x="232.5" y="-262.5" font-family="Helvetica,sans-Serif" font-size="10.00">_modules::daq::DaqTask</text>
</a>
</g>
</g>
<!-- Node1&#45;&gt;Node3 -->
<g id="edge2" class="edge"><title>Node1&#45;&gt;Node3</title>
<path fill="none" stroke="midnightblue" d="M75.5253,-194.661C92.339,-211.171 117.281,-233.091 143,-246.5 151.187,-250.769 160.208,-254.335 169.263,-257.298"/>
<polygon fill="midnightblue" stroke="midnightblue" points="77.9354,-192.121 68.3985,-187.506 72.9759,-197.061 77.9354,-192.121"/>
</g>
<!-- Node4 -->
<g id="node4" class="node"><title>Node4</title>
<g id="a_node4"><a xlink:href="classo2_1_1quality__control__modules_1_1emcal_1_1DigitsQcTask.html" target="_top" xlink:title="QC Task for EMCAL digits. ">
<polygon fill="none" stroke="black" points="154,-206.5 154,-236.5 311,-236.5 311,-206.5 154,-206.5"/>
<text text-anchor="start" x="162" y="-224.5" font-family="Helvetica,sans-Serif" font-size="10.00">o2::quality_control</text>
<text text-anchor="middle" x="232.5" y="-213.5" font-family="Helvetica,sans-Serif" font-size="10.00">_modules::emcal::DigitsQcTask</text>
</a>
</g>
</g>
<!-- Node1&#45;&gt;Node4 -->
<g id="edge3" class="edge"><title>Node1&#45;&gt;Node4</title>
<path fill="none" stroke="midnightblue" d="M117.092,-190.27C125.79,-192.713 134.615,-195.179 143,-197.5 153.586,-200.431 164.895,-203.525 175.768,-206.482"/>
<polygon fill="midnightblue" stroke="midnightblue" points="117.93,-186.87 107.356,-187.529 116.033,-193.608 117.93,-186.87"/>
</g>
<!-- Node5 -->
<g id="node5" class="node"><title>Node5</title>
<g id="a_node5"><a xlink:href="classo2_1_1quality__control__modules_1_1example_1_1BenchmarkTask.html" target="_top" xlink:title="Quality Control Task for benchmarking It publishes a number of TH1F (configurable, see example.ini in module QualityControl). The histos are reset and refilled (1000 random) at EOC. They have 1000 bins. The monitoring of data blocks is empty (sleep 100 ms). ">
<polygon fill="none" stroke="black" points="143,-157.5 143,-187.5 322,-187.5 322,-157.5 143,-157.5"/>
<text text-anchor="start" x="151" y="-175.5" font-family="Helvetica,sans-Serif" font-size="10.00">o2::quality_control</text>
<text text-anchor="middle" x="232.5" y="-164.5" font-family="Helvetica,sans-Serif" font-size="10.00">_modules::example::BenchmarkTask</text>
</a>
</g>
</g>
<!-- Node1&#45;&gt;Node5 -->
<g id="edge4" class="edge"><title>Node1&#45;&gt;Node5</title>
<path fill="none" stroke="midnightblue" d="M117.149,-172.5C125.522,-172.5 134.233,-172.5 142.944,-172.5"/>
<polygon fill="midnightblue" stroke="midnightblue" points="117.127,-169 107.127,-172.5 117.127,-176 117.127,-169"/>
</g>
<!-- Node6 -->
<g id="node6" class="node"><title>Node6</title>
<g id="a_node6"><a xlink:href="classo2_1_1quality__control__modules_1_1example_1_1ExampleTask.html" target="_top" xlink:title="Example Quality Control Task It is final because there is no reason to derive from it...">
<polygon fill="none" stroke="black" points="149,-108.5 149,-138.5 316,-138.5 316,-108.5 149,-108.5"/>
<text text-anchor="start" x="157" y="-126.5" font-family="Helvetica,sans-Serif" font-size="10.00">o2::quality_control</text>
<text text-anchor="middle" x="232.5" y="-115.5" font-family="Helvetica,sans-Serif" font-size="10.00">_modules::example::ExampleTask</text>
</a>
</g>
</g>
<!-- Node1&#45;&gt;Node6 -->
<g id="edge5" class="edge"><title>Node1&#45;&gt;Node6</title>
<path fill="none" stroke="midnightblue" d="M116.919,-155.22C136.6,-149.772 158.171,-143.8 177.236,-138.522"/>
<polygon fill="midnightblue" stroke="midnightblue" points="115.83,-151.89 107.127,-157.931 117.698,-158.636 115.83,-151.89"/>
</g>
<!-- Node7 -->
<g id="node7" class="node"><title>Node7</title>
<g id="a_node7"><a xlink:href="classo2_1_1quality__control__modules_1_1skeleton_1_1SkeletonTask.html" target="_top" xlink:title="Example Quality Control DPL Task It is final because there is no reason to derive from it...">
<polygon fill="none" stroke="black" points="179,-49 179,-90 286,-90 286,-49 179,-49"/>
<text text-anchor="start" x="187" y="-78" font-family="Helvetica,sans-Serif" font-size="10.00">o2::quality_control</text>
<text text-anchor="start" x="187" y="-67" font-family="Helvetica,sans-Serif" font-size="10.00">_modules::skeleton::</text>
<text text-anchor="middle" x="232.5" y="-56" font-family="Helvetica,sans-Serif" font-size="10.00">SkeletonTask</text>
</a>
</g>
</g>
<!-- Node1&#45;&gt;Node7 -->
<g id="edge6" class="edge"><title>Node1&#45;&gt;Node7</title>
<path fill="none" stroke="midnightblue" d="M76.4333,-150.517C93.3906,-134.54 118.104,-113.369 143,-99.5 154.055,-93.3416 166.589,-88.1509 178.674,-83.91"/>
<polygon fill="midnightblue" stroke="midnightblue" points="74.0043,-147.997 69.2151,-157.448 78.8525,-153.047 74.0043,-147.997"/>
</g>
<!-- Node8 -->
<g id="node8" class="node"><title>Node8</title>
<g id="a_node8"><a xlink:href="classo2_1_1quality__control__modules_1_1tof_1_1TOFTask.html" target="_top" xlink:title="TOF Quality Control DPL Task. ">
<polygon fill="none" stroke="black" points="171,-0.5 171,-30.5 294,-30.5 294,-0.5 171,-0.5"/>
<text text-anchor="start" x="179" y="-18.5" font-family="Helvetica,sans-Serif" font-size="10.00">o2::quality_control</text>
<text text-anchor="middle" x="232.5" y="-7.5" font-family="Helvetica,sans-Serif" font-size="10.00">_modules::tof::TOFTask</text>
</a>
</g>
</g>
<!-- Node1&#45;&gt;Node8 -->
<g id="edge7" class="edge"><title>Node1&#45;&gt;Node8</title>
<path fill="none" stroke="midnightblue" d="M64.4226,-147.735C77.7713,-117.602 104.382,-67.3176 143,-39.5 151.267,-33.545 160.932,-29.0675 170.779,-25.701"/>
<polygon fill="midnightblue" stroke="midnightblue" points="61.1231,-146.549 60.4058,-157.119 67.5584,-149.303 61.1231,-146.549"/>
</g>
</g>
</svg>
