<?xml version="1.0" encoding="UTF-8" standalone="no"?>
<!DOCTYPE svg PUBLIC "-//W3C//DTD SVG 1.1//EN"
 "http://www.w3.org/Graphics/SVG/1.1/DTD/svg11.dtd">
<!-- Generated by graphviz version 2.38.0 (20140413.2041)
 -->
<!-- Title: Graphical Class Hierarchy Pages: 1 -->
<svg width="237pt" height="186pt"
 viewBox="0.00 0.00 237.00 186.00" xmlns="http://www.w3.org/2000/svg" xmlns:xlink="http://www.w3.org/1999/xlink">
<g id="graph0" class="graph" transform="scale(1 1) rotate(0) translate(4 182)">
<title>Graphical Class Hierarchy</title>
<!-- Node1 -->
<g id="node1" class="node"><title>Node1</title>
<polygon fill="none" stroke="#bfbfbf" points="0,-79 0,-98 38,-98 38,-79 0,-79"/>
<text text-anchor="middle" x="19" y="-86" font-family="Helvetica,sans-Serif" font-size="10.00">Task</text>
</g>
<!-- Node2 -->
<g id="node2" class="node"><title>Node2</title>
<g id="a_node2"><a xlink:href="classo2_1_1quality__control_1_1checker_1_1Checker.html" target="_top" xlink:title="The class in charge of running the checks on a MonitorObject. ">
<polygon fill="none" stroke="black" points="101.5,-147.5 101.5,-177.5 201.5,-177.5 201.5,-147.5 101.5,-147.5"/>
<text text-anchor="start" x="109.5" y="-165.5" font-family="Helvetica,sans-Serif" font-size="10.00">o2::quality_control</text>
<text text-anchor="middle" x="151.5" y="-154.5" font-family="Helvetica,sans-Serif" font-size="10.00">::checker::Checker</text>
</a>
</g>
</g>
<!-- Node1&#45;&gt;Node2 -->
<g id="edge1" class="edge"><title>Node1&#45;&gt;Node2</title>
<path fill="none" stroke="midnightblue" d="M35.04,-105.922C45.1144,-116.64 59.203,-129.92 74,-138.5 82.4291,-143.388 91.9683,-147.397 101.38,-150.642"/>
<polygon fill="midnightblue" stroke="midnightblue" points="37.4822,-103.405 28.1732,-98.3458 32.2956,-108.106 37.4822,-103.405"/>
</g>
<!-- Node3 -->
<g id="node3" class="node"><title>Node3</title>
<g id="a_node3"><a xlink:href="classo2_1_1quality__control_1_1core_1_1HistoMerger.html" target="_top" xlink:title="A crude histogram merger for development purposes. ">
<polygon fill="none" stroke="black" points="101,-98.5 101,-128.5 202,-128.5 202,-98.5 101,-98.5"/>
<text text-anchor="start" x="109" y="-116.5" font-family="Helvetica,sans-Serif" font-size="10.00">o2::quality_control</text>
<text text-anchor="middle" x="151.5" y="-105.5" font-family="Helvetica,sans-Serif" font-size="10.00">::core::HistoMerger</text>
</a>
</g>
</g>
<!-- Node1&#45;&gt;Node3 -->
<g id="edge2" class="edge"><title>Node1&#45;&gt;Node3</title>
<path fill="none" stroke="midnightblue" d="M48.0472,-93.873C63.405,-96.8151 82.8923,-100.548 100.739,-103.967"/>
<polygon fill="midnightblue" stroke="midnightblue" points="48.6254,-90.4202 38.1455,-91.9761 47.3083,-97.2952 48.6254,-90.4202"/>
</g>
<!-- Node4 -->
<g id="node4" class="node"><title>Node4</title>
<g id="a_node4"><a xlink:href="classo2_1_1quality__control_1_1core_1_1TaskRunner.html" target="_top" xlink:title="A class driving the execution of a QC task inside DPL. ">
<polygon fill="none" stroke="black" points="101,-49.5 101,-79.5 202,-79.5 202,-49.5 101,-49.5"/>
<text text-anchor="start" x="109" y="-67.5" font-family="Helvetica,sans-Serif" font-size="10.00">o2::quality_control</text>
<text text-anchor="middle" x="151.5" y="-56.5" font-family="Helvetica,sans-Serif" font-size="10.00">::core::TaskRunner</text>
</a>
</g>
</g>
<!-- Node1&#45;&gt;Node4 -->
<g id="edge3" class="edge"><title>Node1&#45;&gt;Node4</title>
<path fill="none" stroke="midnightblue" d="M48.0472,-83.3419C63.405,-80.5175 82.8923,-76.9336 100.739,-73.6515"/>
<polygon fill="midnightblue" stroke="midnightblue" points="47.3474,-79.9118 38.1455,-85.1629 48.6136,-86.7963 47.3474,-79.9118"/>
</g>
<!-- Node5 -->
<g id="node5" class="node"><title>Node5</title>
<g id="a_node5"><a xlink:href="classo2_1_1quality__control_1_1example_1_1ExamplePrinterSpec.html" target="_top" xlink:title="Example DPL task to be plugged after a QC checker. ">
<polygon fill="none" stroke="black" points="74,-0.5 74,-30.5 229,-30.5 229,-0.5 74,-0.5"/>
<text text-anchor="start" x="82" y="-18.5" font-family="Helvetica,sans-Serif" font-size="10.00">o2::quality_control</text>
<text text-anchor="middle" x="151.5" y="-7.5" font-family="Helvetica,sans-Serif" font-size="10.00">::example::ExamplePrinterSpec</text>
</a>
</g>
</g>
<!-- Node1&#45;&gt;Node5 -->
<g id="edge4" class="edge"><title>Node1&#45;&gt;Node5</title>
<path fill="none" stroke="midnightblue" d="M35.564,-71.4929C45.6741,-61.3023 59.611,-48.7625 74,-40.5 80.5431,-36.7428 87.7297,-33.4583 94.9971,-30.6143"/>
<polygon fill="midnightblue" stroke="midnightblue" points="33.0304,-69.0782 28.6346,-78.7181 38.0825,-73.9235 33.0304,-69.0782"/>
</g>
</g>
</svg>
