<?xml version="1.0" encoding="UTF-8" standalone="no"?>
<!DOCTYPE svg PUBLIC "-//W3C//DTD SVG 1.1//EN"
 "http://www.w3.org/Graphics/SVG/1.1/DTD/svg11.dtd">
<!-- Generated by graphviz version 2.38.0 (20140413.2041)
 -->
<!-- Title: Graphical Class Hierarchy Pages: 1 -->
<svg width="351pt" height="462pt"
 viewBox="0.00 0.00 351.00 462.00" xmlns="http://www.w3.org/2000/svg" xmlns:xlink="http://www.w3.org/1999/xlink">
<g id="graph0" class="graph" transform="scale(1 1) rotate(0) translate(4 458)">
<title>Graphical Class Hierarchy</title>
<!-- Node1 -->
<g id="node1" class="node"><title>Node1</title>
<g id="a_node1"><a xlink:href="classo2_1_1quality__control_1_1checker_1_1CheckInterface.html" target="_top" xlink:title="Skeleton of a check. ">
<polygon fill="none" stroke="black" points="0,-217.5 0,-247.5 130,-247.5 130,-217.5 0,-217.5"/>
<text text-anchor="start" x="8" y="-235.5" font-family="Helvetica,sans-Serif" font-size="10.00">o2::quality_control</text>
<text text-anchor="middle" x="65" y="-224.5" font-family="Helvetica,sans-Serif" font-size="10.00">::checker::CheckInterface</text>
</a>
</g>
</g>
<!-- Node2 -->
<g id="node2" class="node"><title>Node2</title>
<g id="a_node2"><a xlink:href="classo2_1_1quality__control_1_1test_1_1TestCheck.html" target="_top" xlink:title="o2::quality_control\l::test::TestCheck">
<polygon fill="none" stroke="black" points="206.5,-423.5 206.5,-453.5 302.5,-453.5 302.5,-423.5 206.5,-423.5"/>
<text text-anchor="start" x="214.5" y="-441.5" font-family="Helvetica,sans-Serif" font-size="10.00">o2::quality_control</text>
<text text-anchor="middle" x="254.5" y="-430.5" font-family="Helvetica,sans-Serif" font-size="10.00">::test::TestCheck</text>
</a>
</g>
</g>
<!-- Node1&#45;&gt;Node2 -->
<g id="edge1" class="edge"><title>Node1&#45;&gt;Node2</title>
<path fill="none" stroke="midnightblue" d="M72.7324,-257.218C84.7425,-296.561 113.648,-373.191 166,-414.5 177.5,-423.575 192.193,-429.223 206.24,-432.738"/>
<polygon fill="midnightblue" stroke="midnightblue" points="76.0885,-256.224 69.9128,-247.615 69.3721,-258.196 76.0885,-256.224"/>
</g>
<!-- Node3 -->
<g id="node3" class="node"><title>Node3</title>
<g id="a_node3"><a xlink:href="classo2_1_1quality__control__modules_1_1common_1_1MeanIsAbove.html" target="_top" xlink:title="Check whether the mean of the plot is above a certain limit. ">
<polygon fill="none" stroke="black" points="170.5,-374.5 170.5,-404.5 338.5,-404.5 338.5,-374.5 170.5,-374.5"/>
<text text-anchor="start" x="178.5" y="-392.5" font-family="Helvetica,sans-Serif" font-size="10.00">o2::quality_control</text>
<text text-anchor="middle" x="254.5" y="-381.5" font-family="Helvetica,sans-Serif" font-size="10.00">_modules::common::MeanIsAbove</text>
</a>
</g>
</g>
<!-- Node1&#45;&gt;Node3 -->
<g id="edge2" class="edge"><title>Node1&#45;&gt;Node3</title>
<path fill="none" stroke="midnightblue" d="M77.8636,-256.858C93.7632,-286.929 124.82,-337.514 166,-365.5 171.081,-368.953 176.645,-371.911 182.426,-374.445"/>
<polygon fill="midnightblue" stroke="midnightblue" points="80.927,-255.162 73.2404,-247.87 74.7023,-258.364 80.927,-255.162"/>
</g>
<!-- Node4 -->
<g id="node4" class="node"><title>Node4</title>
<g id="a_node4"><a xlink:href="classo2_1_1quality__control__modules_1_1common_1_1NonEmpty.html" target="_top" xlink:title="Check whether a plot is empty or not. ">
<polygon fill="none" stroke="black" points="177,-325.5 177,-355.5 332,-355.5 332,-325.5 177,-325.5"/>
<text text-anchor="start" x="185" y="-343.5" font-family="Helvetica,sans-Serif" font-size="10.00">o2::quality_control</text>
<text text-anchor="middle" x="254.5" y="-332.5" font-family="Helvetica,sans-Serif" font-size="10.00">_modules::common::NonEmpty</text>
</a>
</g>
</g>
<!-- Node1&#45;&gt;Node4 -->
<g id="edge3" class="edge"><title>Node1&#45;&gt;Node4</title>
<path fill="none" stroke="midnightblue" d="M86.9732,-254.879C105.93,-273.859 135.472,-300.483 166,-316.5 172.416,-319.866 179.352,-322.798 186.413,-325.342"/>
<polygon fill="midnightblue" stroke="midnightblue" points="89.2622,-252.214 79.7655,-247.517 84.2603,-257.111 89.2622,-252.214"/>
</g>
<!-- Node5 -->
<g id="node5" class="node"><title>Node5</title>
<g id="a_node5"><a xlink:href="classo2_1_1quality__control__modules_1_1daq_1_1EverIncreasingGraph.html" target="_top" xlink:title="Check whether a plot is empty or not. ">
<polygon fill="none" stroke="black" points="178.5,-266 178.5,-307 330.5,-307 330.5,-266 178.5,-266"/>
<text text-anchor="start" x="186.5" y="-295" font-family="Helvetica,sans-Serif" font-size="10.00">o2::quality_control</text>
<text text-anchor="start" x="186.5" y="-284" font-family="Helvetica,sans-Serif" font-size="10.00">_modules::daq::EverIncreasing</text>
<text text-anchor="middle" x="254.5" y="-273" font-family="Helvetica,sans-Serif" font-size="10.00">Graph</text>
</a>
</g>
</g>
<!-- Node1&#45;&gt;Node5 -->
<g id="edge4" class="edge"><title>Node1&#45;&gt;Node5</title>
<path fill="none" stroke="midnightblue" d="M128.219,-250.419C145.54,-255.408 164.487,-260.864 182.282,-265.989"/>
<polygon fill="midnightblue" stroke="midnightblue" points="128.807,-246.946 118.229,-247.542 126.87,-253.673 128.807,-246.946"/>
</g>
<!-- Node6 -->
<g id="node6" class="node"><title>Node6</title>
<g id="a_node6"><a xlink:href="classo2_1_1quality__control__modules_1_1example_1_1FakeCheck.html" target="_top" xlink:title="Check whether a plot is empty or not. ">
<polygon fill="none" stroke="black" points="175.5,-217.5 175.5,-247.5 333.5,-247.5 333.5,-217.5 175.5,-217.5"/>
<text text-anchor="start" x="183.5" y="-235.5" font-family="Helvetica,sans-Serif" font-size="10.00">o2::quality_control</text>
<text text-anchor="middle" x="254.5" y="-224.5" font-family="Helvetica,sans-Serif" font-size="10.00">_modules::example::FakeCheck</text>
</a>
</g>
</g>
<!-- Node1&#45;&gt;Node6 -->
<g id="edge5" class="edge"><title>Node1&#45;&gt;Node6</title>
<path fill="none" stroke="midnightblue" d="M140.026,-232.5C151.577,-232.5 163.545,-232.5 175.187,-232.5"/>
<polygon fill="midnightblue" stroke="midnightblue" points="140.002,-229 130.002,-232.5 140.002,-236 140.002,-229"/>
</g>
<!-- Node7 -->
<g id="node7" class="node"><title>Node7</title>
<g id="a_node7"><a xlink:href="classo2_1_1quality__control__modules_1_1skeleton_1_1SkeletonCheck.html" target="_top" xlink:title="Check whether a plot is empty or not. ">
<polygon fill="none" stroke="black" points="201,-158 201,-199 308,-199 308,-158 201,-158"/>
<text text-anchor="start" x="209" y="-187" font-family="Helvetica,sans-Serif" font-size="10.00">o2::quality_control</text>
<text text-anchor="start" x="209" y="-176" font-family="Helvetica,sans-Serif" font-size="10.00">_modules::skeleton::</text>
<text text-anchor="middle" x="254.5" y="-165" font-family="Helvetica,sans-Serif" font-size="10.00">SkeletonCheck</text>
</a>
</g>
</g>
<!-- Node1&#45;&gt;Node7 -->
<g id="edge6" class="edge"><title>Node1&#45;&gt;Node7</title>
<path fill="none" stroke="midnightblue" d="M128.126,-214.608C151.698,-207.819 178.291,-200.16 200.901,-193.649"/>
<polygon fill="midnightblue" stroke="midnightblue" points="126.87,-211.327 118.229,-217.458 128.807,-218.054 126.87,-211.327"/>
</g>
<!-- Node8 -->
<g id="node8" class="node"><title>Node8</title>
<g id="a_node8"><a xlink:href="classo2_1_1quality__control__modules_1_1tof_1_1TOFCheckRawsMulti.html" target="_top" xlink:title="Check whether a plot is empty or not. ">
<polygon fill="none" stroke="black" points="177,-98 177,-139 332,-139 332,-98 177,-98"/>
<text text-anchor="start" x="185" y="-127" font-family="Helvetica,sans-Serif" font-size="10.00">o2::quality_control</text>
<text text-anchor="start" x="185" y="-116" font-family="Helvetica,sans-Serif" font-size="10.00">_modules::tof::TOFCheckRaws</text>
<text text-anchor="middle" x="254.5" y="-105" font-family="Helvetica,sans-Serif" font-size="10.00">Multi</text>
</a>
</g>
</g>
<!-- Node1&#45;&gt;Node8 -->
<g id="edge7" class="edge"><title>Node1&#45;&gt;Node8</title>
<path fill="none" stroke="midnightblue" d="M87.8959,-209.938C107.035,-191.3 136.335,-165.268 166,-148.5 172.011,-145.102 178.472,-141.999 185.062,-139.188"/>
<polygon fill="midnightblue" stroke="midnightblue" points="85.2296,-207.653 80.5894,-217.178 90.1565,-212.626 85.2296,-207.653"/>
</g>
<!-- Node9 -->
<g id="node9" class="node"><title>Node9</title>
<g id="a_node9"><a xlink:href="classo2_1_1quality__control__modules_1_1tof_1_1TOFCheckRawsTime.html" target="_top" xlink:title="Check whether a plot is empty or not. ">
<polygon fill="none" stroke="black" points="166,-49.5 166,-79.5 343,-79.5 343,-49.5 166,-49.5"/>
<text text-anchor="start" x="174" y="-67.5" font-family="Helvetica,sans-Serif" font-size="10.00">o2::quality_control</text>
<text text-anchor="middle" x="254.5" y="-56.5" font-family="Helvetica,sans-Serif" font-size="10.00">_modules::tof::TOFCheckRawsTime</text>
</a>
</g>
</g>
<!-- Node1&#45;&gt;Node9 -->
<g id="edge8" class="edge"><title>Node1&#45;&gt;Node9</title>
<path fill="none" stroke="midnightblue" d="M76.4298,-208.063C91.4686,-175.78 122.316,-119.407 166,-88.5 170.886,-85.0428 176.25,-82.0831 181.842,-79.5494"/>
<polygon fill="midnightblue" stroke="midnightblue" points="73.205,-206.7 72.2734,-217.253 79.5831,-209.584 73.205,-206.7"/>
</g>
<!-- Node10 -->
<g id="node10" class="node"><title>Node10</title>
<g id="a_node10"><a xlink:href="classo2_1_1quality__control__modules_1_1tof_1_1TOFCheckRawsToT.html" target="_top" xlink:title="Check whether a plot is empty or not. ">
<polygon fill="none" stroke="black" points="168,-0.5 168,-30.5 341,-30.5 341,-0.5 168,-0.5"/>
<text text-anchor="start" x="176" y="-18.5" font-family="Helvetica,sans-Serif" font-size="10.00">o2::quality_control</text>
<text text-anchor="middle" x="254.5" y="-7.5" font-family="Helvetica,sans-Serif" font-size="10.00">_modules::tof::TOFCheckRawsToT</text>
</a>
</g>
</g>
<!-- Node1&#45;&gt;Node10 -->
<g id="edge9" class="edge"><title>Node1&#45;&gt;Node10</title>
<path fill="none" stroke="midnightblue" d="M72.0573,-207.69C83.3664,-166.678 111.623,-84.8748 166,-40.5 170.774,-36.6043 176.124,-33.3154 181.764,-30.5388"/>
<polygon fill="midnightblue" stroke="midnightblue" points="68.6568,-206.859 69.4831,-217.422 75.424,-208.649 68.6568,-206.859"/>
</g>
</g>
</svg>
