<?xml version="1.0" encoding="UTF-8" standalone="no"?>
<!DOCTYPE svg PUBLIC "-//W3C//DTD SVG 1.1//EN"
 "http://www.w3.org/Graphics/SVG/1.1/DTD/svg11.dtd">
<!-- Generated by graphviz version 2.38.0 (20140413.2041)
 -->
<!-- Title: Modules/Common/src/MeanIsAbove.cxx Pages: 1 -->
<!--zoomable 319 -->
<svg id="main" version="1.1" xmlns="http://www.w3.org/2000/svg" xmlns:xlink="http://www.w3.org/1999/xlink" xml:space="preserve" onload="init(evt)">
<style type="text/css"><![CDATA[
.edge:hover path { stroke: red; }
.edge:hover polygon { stroke: red; fill: red; }
]]></style>
<script type="text/javascript"><![CDATA[
var edges = document.getElementsByTagName('g');
if (edges && edges.length) {
  for (var i=0;i<edges.length;i++) {
    if (edges[i].id.substr(0,4)=='edge') {
      edges[i].setAttribute('class','edge');
    }
  }
}
]]></script>
        <defs>
                <circle id="rim" cx="0" cy="0" r="7"/>
                <circle id="rim2" cx="0" cy="0" r="3.5"/>
                <g id="zoomPlus">
                        <use xlink:href="#rim" fill="#404040">
                                <set attributeName="fill" to="#808080" begin="zoomplus.mouseover" end="zoomplus.mouseout"/>
                        </use>
                        <path d="M-4,0h8M0,-4v8" fill="none" stroke="white" stroke-width="1.5" pointer-events="none"/>
                </g>
                <g id="zoomMin">
                        <use xlink:href="#rim" fill="#404040">
                                <set attributeName="fill" to="#808080" begin="zoomminus.mouseover" end="zoomminus.mouseout"/>
                        </use>
                        <path d="M-4,0h8" fill="none" stroke="white" stroke-width="1.5" pointer-events="none"/>
                </g>
                <g id="dirArrow">
                        <path fill="none" stroke="white" stroke-width="1.5" d="M0,-3.0v7 M-2.5,-0.5L0,-3.0L2.5,-0.5"/>
                </g>
               <g id="resetDef">
                       <use xlink:href="#rim2" fill="#404040">
                               <set attributeName="fill" to="#808080" begin="reset.mouseover" end="reset.mouseout"/>
                       </use>
               </g>
        </defs>

<script type="text/javascript">
var viewWidth = 611;
var viewHeight = 319;
var sectionId = 'dynsection-0';
</script>
<script xlink:href="svgpan.js"/>
<svg id="graph" class="graph">
<g id="viewport">
<title>Modules/Common/src/MeanIsAbove.cxx</title>
<!-- Node1 -->
<g id="node1" class="node"><title>Node1</title>
<polygon fill="#bfbfbf" stroke="black" points="287.452,-280.5 287.452,-310.5 400.452,-310.5 400.452,-280.5 287.452,-280.5"/>
<text text-anchor="start" x="295.452" y="-298.5" font-family="Helvetica,sans-Serif" font-size="10.00">Modules/Common/src</text>
<text text-anchor="middle" x="343.952" y="-287.5" font-family="Helvetica,sans-Serif" font-size="10.00">/MeanIsAbove.cxx</text>
</g>
<!-- Node2 -->
<g id="node2" class="node"><title>Node2</title>
<g id="a_node2"><a xlink:href="MeanIsAbove_8h.html" target="_top" xlink:title="Common/MeanIsAbove.h">
<polygon fill="none" stroke="black" points="88.952,-224.5 88.952,-243.5 216.952,-243.5 216.952,-224.5 88.952,-224.5"/>
<text text-anchor="middle" x="152.952" y="-231.5" font-family="Helvetica,sans-Serif" font-size="10.00">Common/MeanIsAbove.h</text>
</a>
</g>
</g>
<!-- Node1&#45;&gt;Node2 -->
<g id="edge1" class="edge"><title>Node1&#45;&gt;Node2</title>
<path fill="none" stroke="midnightblue" d="M298.688,-280.399C265.54,-270.073 221.105,-256.231 190.048,-246.556"/>
<polygon fill="midnightblue" stroke="midnightblue" points="191.054,-243.204 180.465,-243.571 188.972,-249.887 191.054,-243.204"/>
</g>
<!-- Node6 -->
<g id="node6" class="node"><title>Node6</title>
<g id="a_node6"><a xlink:href="MonitorObject_8h.html" target="_top" xlink:title="QualityControl/MonitorObject.h">
<polygon fill="none" stroke="black" points="146.452,-112.5 146.452,-131.5 297.452,-131.5 297.452,-112.5 146.452,-112.5"/>
<text text-anchor="middle" x="221.952" y="-119.5" font-family="Helvetica,sans-Serif" font-size="10.00">QualityControl/MonitorObject.h</text>
</a>
</g>
</g>
<!-- Node1&#45;&gt;Node6 -->
<g id="edge20" class="edge"><title>Node1&#45;&gt;Node6</title>
<path fill="none" stroke="midnightblue" d="M316.766,-280.481C301.891,-271.679 284.077,-259.132 271.952,-244 246.82,-212.633 232.551,-166.866 226.129,-141.559"/>
<polygon fill="midnightblue" stroke="midnightblue" points="229.52,-140.689 223.784,-131.781 222.713,-142.322 229.52,-140.689"/>
</g>
<!-- Node10 -->
<g id="node10" class="node"><title>Node10</title>
<g id="a_node10"><a xlink:href="Quality_8h.html" target="_top" xlink:title="QualityControl/Quality.h">
<polygon fill="none" stroke="black" points="12.452,-56.5 12.452,-75.5 133.452,-75.5 133.452,-56.5 12.452,-56.5"/>
<text text-anchor="middle" x="72.952" y="-63.5" font-family="Helvetica,sans-Serif" font-size="10.00">QualityControl/Quality.h</text>
</a>
</g>
</g>
<!-- Node1&#45;&gt;Node10 -->
<g id="edge21" class="edge"><title>Node1&#45;&gt;Node10</title>
<path fill="none" stroke="midnightblue" d="M287.308,-290.035C219.392,-283.616 110.833,-269.63 79.952,-244 33.6284,-205.554 54.0545,-122.414 66.235,-85.4089"/>
<polygon fill="midnightblue" stroke="midnightblue" points="69.6993,-86.1011 69.6674,-75.5063 63.0854,-83.8085 69.6993,-86.1011"/>
</g>
<!-- Node11 -->
<g id="node11" class="node"><title>Node11</title>
<polygon fill="none" stroke="#bfbfbf" points="280.952,-224.5 280.952,-243.5 334.952,-243.5 334.952,-224.5 280.952,-224.5"/>
<text text-anchor="middle" x="307.952" y="-231.5" font-family="Helvetica,sans-Serif" font-size="10.00">iostream</text>
</g>
<!-- Node1&#45;&gt;Node11 -->
<g id="edge15" class="edge"><title>Node1&#45;&gt;Node11</title>
<path fill="none" stroke="midnightblue" d="M335.42,-280.399C330.351,-272.021 323.881,-261.327 318.494,-252.423"/>
<polygon fill="midnightblue" stroke="midnightblue" points="321.362,-250.402 313.19,-243.658 315.372,-254.025 321.362,-250.402"/>
</g>
<!-- Node12 -->
<g id="node12" class="node"><title>Node12</title>
<polygon fill="none" stroke="#bfbfbf" points="352.952,-224.5 352.952,-243.5 408.952,-243.5 408.952,-224.5 352.952,-224.5"/>
<text text-anchor="middle" x="380.952" y="-231.5" font-family="Helvetica,sans-Serif" font-size="10.00">TClass.h</text>
</g>
<!-- Node1&#45;&gt;Node12 -->
<g id="edge16" class="edge"><title>Node1&#45;&gt;Node12</title>
<path fill="none" stroke="midnightblue" d="M352.72,-280.399C357.931,-272.021 364.581,-261.327 370.118,-252.423"/>
<polygon fill="midnightblue" stroke="midnightblue" points="373.26,-253.998 375.568,-243.658 367.315,-250.302 373.26,-253.998"/>
</g>
<!-- Node13 -->
<g id="node13" class="node"><title>Node13</title>
<polygon fill="none" stroke="#bfbfbf" points="426.952,-224.5 426.952,-243.5 470.952,-243.5 470.952,-224.5 426.952,-224.5"/>
<text text-anchor="middle" x="448.952" y="-231.5" font-family="Helvetica,sans-Serif" font-size="10.00">TH1.h</text>
</g>
<!-- Node1&#45;&gt;Node13 -->
<g id="edge17" class="edge"><title>Node1&#45;&gt;Node13</title>
<path fill="none" stroke="midnightblue" d="M368.836,-280.399C385.666,-270.862 407.791,-258.325 424.525,-248.842"/>
<polygon fill="midnightblue" stroke="midnightblue" points="426.699,-251.633 433.674,-243.658 423.248,-245.543 426.699,-251.633"/>
</g>
<!-- Node14 -->
<g id="node14" class="node"><title>Node14</title>
<polygon fill="none" stroke="#bfbfbf" points="489.452,-224.5 489.452,-243.5 538.452,-243.5 538.452,-224.5 489.452,-224.5"/>
<text text-anchor="middle" x="513.952" y="-231.5" font-family="Helvetica,sans-Serif" font-size="10.00">TLine.h</text>
</g>
<!-- Node1&#45;&gt;Node14 -->
<g id="edge18" class="edge"><title>Node1&#45;&gt;Node14</title>
<path fill="none" stroke="midnightblue" d="M384.24,-280.399C413.272,-270.238 452.033,-256.672 479.603,-247.022"/>
<polygon fill="midnightblue" stroke="midnightblue" points="480.933,-250.265 489.215,-243.658 478.621,-243.658 480.933,-250.265"/>
</g>
<!-- Node15 -->
<g id="node15" class="node"><title>Node15</title>
<polygon fill="none" stroke="#bfbfbf" points="556.452,-224.5 556.452,-243.5 603.452,-243.5 603.452,-224.5 556.452,-224.5"/>
<text text-anchor="middle" x="579.952" y="-231.5" font-family="Helvetica,sans-Serif" font-size="10.00">TList.h</text>
</g>
<!-- Node1&#45;&gt;Node15 -->
<g id="edge19" class="edge"><title>Node1&#45;&gt;Node15</title>
<path fill="none" stroke="midnightblue" d="M400.793,-280.937C439.463,-271.593 492.029,-258.666 546.399,-244.359"/>
<polygon fill="midnightblue" stroke="midnightblue" points="547.435,-247.705 556.209,-241.767 545.647,-240.938 547.435,-247.705"/>
</g>
<!-- Node3 -->
<g id="node3" class="node"><title>Node3</title>
<g id="a_node3"><a xlink:href="CheckInterface_8h.html" target="_top" xlink:title="QualityControl/CheckInterface.h">
<polygon fill="none" stroke="black" points="67.452,-168.5 67.452,-187.5 224.452,-187.5 224.452,-168.5 67.452,-168.5"/>
<text text-anchor="middle" x="145.952" y="-175.5" font-family="Helvetica,sans-Serif" font-size="10.00">QualityControl/CheckInterface.h</text>
</a>
</g>
</g>
<!-- Node2&#45;&gt;Node3 -->
<g id="edge2" class="edge"><title>Node2&#45;&gt;Node3</title>
<path fill="none" stroke="midnightblue" d="M151.796,-224.083C150.868,-216.927 149.534,-206.635 148.375,-197.691"/>
<polygon fill="midnightblue" stroke="midnightblue" points="151.843,-197.218 147.086,-187.751 144.901,-198.118 151.843,-197.218"/>
</g>
<!-- Node4 -->
<g id="node4" class="node"><title>Node4</title>
<polygon fill="none" stroke="#bfbfbf" points="444.452,-0.5 444.452,-19.5 485.452,-19.5 485.452,-0.5 444.452,-0.5"/>
<text text-anchor="middle" x="464.952" y="-7.5" font-family="Helvetica,sans-Serif" font-size="10.00">string</text>
</g>
<!-- Node3&#45;&gt;Node4 -->
<g id="edge3" class="edge"><title>Node3&#45;&gt;Node4</title>
<path fill="none" stroke="midnightblue" d="M197.282,-168.446C279.465,-153.572 434.56,-120.247 465.952,-76 475.434,-62.6359 473.839,-43.5234 470.682,-29.4813"/>
<polygon fill="midnightblue" stroke="midnightblue" points="473.977,-28.2588 467.996,-19.5135 467.218,-30.0797 473.977,-28.2588"/>
</g>
<!-- Node5 -->
<g id="node5" class="node"><title>Node5</title>
<polygon fill="none" stroke="#bfbfbf" points="44.952,-0.5 44.952,-19.5 100.952,-19.5 100.952,-0.5 44.952,-0.5"/>
<text text-anchor="middle" x="72.952" y="-7.5" font-family="Helvetica,sans-Serif" font-size="10.00">Rtypes.h</text>
</g>
<!-- Node3&#45;&gt;Node5 -->
<g id="edge4" class="edge"><title>Node3&#45;&gt;Node5</title>
<path fill="none" stroke="midnightblue" d="M122.279,-168.425C88.5897,-154.777 28.1153,-124.58 2.95198,-76 -8.49561,-53.8996 17.5366,-35.3724 41.0383,-23.8243"/>
<polygon fill="midnightblue" stroke="midnightblue" points="42.562,-26.9759 50.1701,-19.6024 39.6244,-20.6221 42.562,-26.9759"/>
</g>
<!-- Node3&#45;&gt;Node6 -->
<g id="edge5" class="edge"><title>Node3&#45;&gt;Node6</title>
<path fill="none" stroke="midnightblue" d="M158.163,-168.324C169.728,-160.107 187.327,-147.602 201.113,-137.807"/>
<polygon fill="midnightblue" stroke="midnightblue" points="203.395,-140.479 209.519,-131.834 199.34,-134.773 203.395,-140.479"/>
</g>
<!-- Node3&#45;&gt;Node10 -->
<g id="edge14" class="edge"><title>Node3&#45;&gt;Node10</title>
<path fill="none" stroke="midnightblue" d="M140.224,-168.368C128.177,-150.215 100.029,-107.802 84.2273,-83.9902"/>
<polygon fill="midnightblue" stroke="midnightblue" points="87.0994,-81.9882 78.6536,-75.5914 81.2669,-85.8589 87.0994,-81.9882"/>
</g>
<!-- Node6&#45;&gt;Node4 -->
<g id="edge6" class="edge"><title>Node6&#45;&gt;Node4</title>
<path fill="none" stroke="midnightblue" d="M297.513,-114.192C353.798,-107.621 424.468,-95.7086 445.952,-76 458.793,-64.2199 463.134,-44.2915 464.513,-29.5992"/>
<polygon fill="midnightblue" stroke="midnightblue" points="468.008,-29.7889 465.082,-19.6061 461.019,-29.391 468.008,-29.7889"/>
</g>
<!-- Node6&#45;&gt;Node5 -->
<g id="edge8" class="edge"><title>Node6&#45;&gt;Node5</title>
<path fill="none" stroke="midnightblue" d="M211.867,-112.234C196.956,-99.4045 167.978,-74.9802 141.952,-56 126.93,-45.0449 109.372,-33.6118 95.7265,-25.0112"/>
<polygon fill="midnightblue" stroke="midnightblue" points="97.3198,-21.8797 86.9843,-19.5501 93.6112,-27.8166 97.3198,-21.8797"/>
</g>
<!-- Node7 -->
<g id="node7" class="node"><title>Node7</title>
<polygon fill="none" stroke="#bfbfbf" points="190.452,-56.5 190.452,-75.5 225.452,-75.5 225.452,-56.5 190.452,-56.5"/>
<text text-anchor="middle" x="207.952" y="-63.5" font-family="Helvetica,sans-Serif" font-size="10.00">map</text>
</g>
<!-- Node6&#45;&gt;Node7 -->
<g id="edge7" class="edge"><title>Node6&#45;&gt;Node7</title>
<path fill="none" stroke="midnightblue" d="M219.64,-112.083C217.785,-104.927 215.117,-94.6353 212.798,-85.6911"/>
<polygon fill="midnightblue" stroke="midnightblue" points="216.118,-84.5527 210.221,-75.7511 209.342,-86.3094 216.118,-84.5527"/>
</g>
<!-- Node8 -->
<g id="node8" class="node"><title>Node8</title>
<polygon fill="none" stroke="#bfbfbf" points="243.452,-56.5 243.452,-75.5 302.452,-75.5 302.452,-56.5 243.452,-56.5"/>
<text text-anchor="middle" x="272.952" y="-63.5" font-family="Helvetica,sans-Serif" font-size="10.00">TObject.h</text>
</g>
<!-- Node6&#45;&gt;Node8 -->
<g id="edge9" class="edge"><title>Node6&#45;&gt;Node8</title>
<path fill="none" stroke="midnightblue" d="M230.374,-112.083C237.8,-104.22 248.804,-92.5688 257.764,-83.0813"/>
<polygon fill="midnightblue" stroke="midnightblue" points="260.365,-85.4244 264.687,-75.7511 255.276,-80.618 260.365,-85.4244"/>
</g>
<!-- Node9 -->
<g id="node9" class="node"><title>Node9</title>
<polygon fill="none" stroke="#bfbfbf" points="320.952,-56.5 320.952,-75.5 436.952,-75.5 436.952,-56.5 320.952,-56.5"/>
<text text-anchor="middle" x="378.952" y="-63.5" font-family="Helvetica,sans-Serif" font-size="10.00">Common/Exceptions.h</text>
</g>
<!-- Node6&#45;&gt;Node9 -->
<g id="edge10" class="edge"><title>Node6&#45;&gt;Node9</title>
<path fill="none" stroke="midnightblue" d="M246.829,-112.444C273.241,-103.359 315.167,-88.9388 344.694,-78.7831"/>
<polygon fill="midnightblue" stroke="midnightblue" points="345.873,-82.0787 354.191,-75.5164 343.597,-75.4593 345.873,-82.0787"/>
</g>
<!-- Node6&#45;&gt;Node10 -->
<g id="edge11" class="edge"><title>Node6&#45;&gt;Node10</title>
<path fill="none" stroke="midnightblue" d="M198.342,-112.444C173.494,-103.438 134.178,-89.1891 106.198,-79.049"/>
<polygon fill="midnightblue" stroke="midnightblue" points="107.045,-75.6332 96.451,-75.5164 104.66,-82.2144 107.045,-75.6332"/>
</g>
<!-- Node10&#45;&gt;Node4 -->
<g id="edge13" class="edge"><title>Node10&#45;&gt;Node4</title>
<path fill="none" stroke="midnightblue" d="M133.772,-56.6217C218.719,-44.9199 369.716,-24.1192 434.286,-15.2244"/>
<polygon fill="midnightblue" stroke="midnightblue" points="434.811,-18.6852 444.24,-13.8532 433.856,-11.7507 434.811,-18.6852"/>
</g>
<!-- Node10&#45;&gt;Node5 -->
<g id="edge12" class="edge"><title>Node10&#45;&gt;Node5</title>
<path fill="none" stroke="midnightblue" d="M72.952,-56.083C72.952,-49.0059 72.952,-38.8611 72.952,-29.9865"/>
<polygon fill="midnightblue" stroke="midnightblue" points="76.4521,-29.751 72.952,-19.7511 69.4521,-29.7511 76.4521,-29.751"/>
</g>
</g>
</svg>
        <g id="navigator" transform="translate(0 0)" fill="#404254">
                <rect fill="#f2f5e9" fill-opacity="0.5" stroke="#606060" stroke-width=".5" x="0" y="0" width="60" height="60"/>
                <use id="zoomplus" xlink:href="#zoomPlus" x="17" y="9" onmousedown="handleZoom(evt,'in')"/>
                <use id="zoomminus" xlink:href="#zoomMin" x="42" y="9" onmousedown="handleZoom(evt,'out')"/>
                <use id="reset" xlink:href="#resetDef" x="30" y="36" onmousedown="handleReset()"/>
                <g id="arrowUp" xlink:href="#dirArrow" transform="translate(30 24)" onmousedown="handlePan(0,-1)">
                  <use xlink:href="#rim" fill="#404040">
                        <set attributeName="fill" to="#808080" begin="arrowUp.mouseover" end="arrowUp.mouseout"/>
                  </use>
                  <path fill="none" stroke="white" stroke-width="1.5" d="M0,-3.0v7 M-2.5,-0.5L0,-3.0L2.5,-0.5"/>
                </g>
                <g id="arrowRight" xlink:href="#dirArrow" transform="rotate(90) translate(36 -43)" onmousedown="handlePan(1,0)">
                  <use xlink:href="#rim" fill="#404040">
                        <set attributeName="fill" to="#808080" begin="arrowRight.mouseover" end="arrowRight.mouseout"/>
                  </use>
                  <path fill="none" stroke="white" stroke-width="1.5" d="M0,-3.0v7 M-2.5,-0.5L0,-3.0L2.5,-0.5"/>
                </g>
                <g id="arrowDown" xlink:href="#dirArrow" transform="rotate(180) translate(-30 -48)" onmousedown="handlePan(0,1)">
                  <use xlink:href="#rim" fill="#404040">
                        <set attributeName="fill" to="#808080" begin="arrowDown.mouseover" end="arrowDown.mouseout"/>
                  </use>
                  <path fill="none" stroke="white" stroke-width="1.5" d="M0,-3.0v7 M-2.5,-0.5L0,-3.0L2.5,-0.5"/>
                </g>
                <g id="arrowLeft" xlink:href="#dirArrow" transform="rotate(270) translate(-36 17)" onmousedown="handlePan(-1,0)">
                  <use xlink:href="#rim" fill="#404040">
                        <set attributeName="fill" to="#808080" begin="arrowLeft.mouseover" end="arrowLeft.mouseout"/>
                  </use>
                  <path fill="none" stroke="white" stroke-width="1.5" d="M0,-3.0v7 M-2.5,-0.5L0,-3.0L2.5,-0.5"/>
                </g>
        </g>
        <svg viewBox="0 0 15 15" width="100%" height="30px" preserveAspectRatio="xMaxYMin meet">
         <g id="arrow_out" transform="scale(0.3 0.3)">
          <a xlink:href="MeanIsAbove_8cxx__incl_org.svg" target="_base">
           <rect id="button" ry="5" rx="5" y="6" x="6" height="38" width="38"
                fill="#f2f5e9" fill-opacity="0.5" stroke="#606060" stroke-width="1.0"/>
           <path id="arrow"
             d="M 11.500037,31.436501 C 11.940474,20.09759 22.043105,11.32322 32.158766,21.979434 L 37.068811,17.246167 C 37.068811,17.246167 37.088388,32 37.088388,32 L 22.160133,31.978069 C 22.160133,31.978069 26.997745,27.140456 26.997745,27.140456 C 18.528582,18.264221 13.291696,25.230495 11.500037,31.436501 z"
             style="fill:#404040;"/>
          </a>
         </g>
        </svg>
</svg>
