<?xml version="1.0" encoding="UTF-8" standalone="no"?>
<!DOCTYPE svg PUBLIC "-//W3C//DTD SVG 1.1//EN"
 "http://www.w3.org/Graphics/SVG/1.1/DTD/svg11.dtd">
<!-- Generated by graphviz version 2.38.0 (20140413.2041)
 -->
<!-- Title: Framework/src/MonitorObject.cxx Pages: 1 -->
<svg width="471pt" height="196pt"
 viewBox="0.00 0.00 470.50 196.00" xmlns="http://www.w3.org/2000/svg" xmlns:xlink="http://www.w3.org/1999/xlink">
<g id="graph0" class="graph" transform="scale(1 1) rotate(0) translate(4 192)">
<title>Framework/src/MonitorObject.cxx</title>
<!-- Node1 -->
<g id="node1" class="node"><title>Node1</title>
<polygon fill="#bfbfbf" stroke="black" points="286.5,-168.5 286.5,-187.5 450.5,-187.5 450.5,-168.5 286.5,-168.5"/>
<text text-anchor="middle" x="368.5" y="-175.5" font-family="Helvetica,sans-Serif" font-size="10.00">Framework/src/MonitorObject.cxx</text>
</g>
<!-- Node2 -->
<g id="node2" class="node"><title>Node2</title>
<g id="a_node2"><a xlink:href="MonitorObject_8h.html" target="_top" xlink:title="QualityControl/MonitorObject.h">
<polygon fill="none" stroke="black" points="154,-112.5 154,-131.5 305,-131.5 305,-112.5 154,-112.5"/>
<text text-anchor="middle" x="229.5" y="-119.5" font-family="Helvetica,sans-Serif" font-size="10.00">QualityControl/MonitorObject.h</text>
</a>
</g>
</g>
<!-- Node1&#45;&gt;Node2 -->
<g id="edge1" class="edge"><title>Node1&#45;&gt;Node2</title>
<path fill="none" stroke="midnightblue" d="M346.475,-168.444C323.396,-159.478 286.938,-145.314 260.859,-135.183"/>
<polygon fill="midnightblue" stroke="midnightblue" points="262.011,-131.875 251.422,-131.516 259.476,-138.4 262.011,-131.875"/>
</g>
<!-- Node7 -->
<g id="node7" class="node"><title>Node7</title>
<polygon fill="none" stroke="#bfbfbf" points="346.5,-56.5 346.5,-75.5 462.5,-75.5 462.5,-56.5 346.5,-56.5"/>
<text text-anchor="middle" x="404.5" y="-63.5" font-family="Helvetica,sans-Serif" font-size="10.00">Common/Exceptions.h</text>
</g>
<!-- Node1&#45;&gt;Node7 -->
<g id="edge11" class="edge"><title>Node1&#45;&gt;Node7</title>
<path fill="none" stroke="midnightblue" d="M370.868,-168.102C374.269,-155.519 380.861,-131.847 387.5,-112 390.484,-103.079 394.133,-93.2962 397.285,-85.1374"/>
<polygon fill="midnightblue" stroke="midnightblue" points="400.65,-86.1438 401.043,-75.5563 394.133,-83.5877 400.65,-86.1438"/>
</g>
<!-- Node9 -->
<g id="node9" class="node"><title>Node9</title>
<polygon fill="none" stroke="#bfbfbf" points="396.5,-112.5 396.5,-131.5 450.5,-131.5 450.5,-112.5 396.5,-112.5"/>
<text text-anchor="middle" x="423.5" y="-119.5" font-family="Helvetica,sans-Serif" font-size="10.00">iostream</text>
</g>
<!-- Node1&#45;&gt;Node9 -->
<g id="edge10" class="edge"><title>Node1&#45;&gt;Node9</title>
<path fill="none" stroke="midnightblue" d="M377.582,-168.083C385.671,-160.141 397.695,-148.335 407.41,-138.797"/>
<polygon fill="midnightblue" stroke="midnightblue" points="409.903,-141.254 414.587,-131.751 404.999,-136.26 409.903,-141.254"/>
</g>
<!-- Node3 -->
<g id="node3" class="node"><title>Node3</title>
<polygon fill="none" stroke="#bfbfbf" points="253,-0.5 253,-19.5 294,-19.5 294,-0.5 253,-0.5"/>
<text text-anchor="middle" x="273.5" y="-7.5" font-family="Helvetica,sans-Serif" font-size="10.00">string</text>
</g>
<!-- Node2&#45;&gt;Node3 -->
<g id="edge2" class="edge"><title>Node2&#45;&gt;Node3</title>
<path fill="none" stroke="midnightblue" d="M253.288,-112.499C269.221,-105.413 288.963,-93.6052 298.5,-76 307.003,-60.3026 297.381,-41.0891 287.712,-27.6377"/>
<polygon fill="midnightblue" stroke="midnightblue" points="290.452,-25.459 281.543,-19.7252 284.932,-29.7634 290.452,-25.459"/>
</g>
<!-- Node4 -->
<g id="node4" class="node"><title>Node4</title>
<polygon fill="none" stroke="#bfbfbf" points="0,-56.5 0,-75.5 35,-75.5 35,-56.5 0,-56.5"/>
<text text-anchor="middle" x="17.5" y="-63.5" font-family="Helvetica,sans-Serif" font-size="10.00">map</text>
</g>
<!-- Node2&#45;&gt;Node4 -->
<g id="edge3" class="edge"><title>Node2&#45;&gt;Node4</title>
<path fill="none" stroke="midnightblue" d="M193.902,-112.425C157.533,-103.589 99.4679,-89.2697 49.5,-76 48.0358,-75.6112 46.5355,-75.2075 45.0218,-74.796"/>
<polygon fill="midnightblue" stroke="midnightblue" points="45.6513,-71.3387 35.08,-72.0439 43.7837,-78.085 45.6513,-71.3387"/>
</g>
<!-- Node5 -->
<g id="node5" class="node"><title>Node5</title>
<polygon fill="none" stroke="#bfbfbf" points="129.5,-0.5 129.5,-19.5 185.5,-19.5 185.5,-0.5 129.5,-0.5"/>
<text text-anchor="middle" x="157.5" y="-7.5" font-family="Helvetica,sans-Serif" font-size="10.00">Rtypes.h</text>
</g>
<!-- Node2&#45;&gt;Node5 -->
<g id="edge4" class="edge"><title>Node2&#45;&gt;Node5</title>
<path fill="none" stroke="midnightblue" d="M153.797,-116.017C126.89,-110.149 99.1655,-98.5305 82.5,-76 66.643,-54.5625 97.3646,-35.2904 124.145,-23.3995"/>
<polygon fill="midnightblue" stroke="midnightblue" points="125.516,-26.6201 133.371,-19.51 122.796,-20.1699 125.516,-26.6201"/>
</g>
<!-- Node6 -->
<g id="node6" class="node"><title>Node6</title>
<polygon fill="none" stroke="#bfbfbf" points="92,-56.5 92,-75.5 151,-75.5 151,-56.5 92,-56.5"/>
<text text-anchor="middle" x="121.5" y="-63.5" font-family="Helvetica,sans-Serif" font-size="10.00">TObject.h</text>
</g>
<!-- Node2&#45;&gt;Node6 -->
<g id="edge5" class="edge"><title>Node2&#45;&gt;Node6</title>
<path fill="none" stroke="midnightblue" d="M212.148,-112.324C194.828,-103.664 167.985,-90.2424 147.998,-80.249"/>
<polygon fill="midnightblue" stroke="midnightblue" points="149.319,-76.9962 138.809,-75.6545 146.188,-83.2572 149.319,-76.9962"/>
</g>
<!-- Node2&#45;&gt;Node7 -->
<g id="edge6" class="edge"><title>Node2&#45;&gt;Node7</title>
<path fill="none" stroke="midnightblue" d="M257.229,-112.444C286.926,-103.28 334.216,-88.6876 367.169,-78.5192"/>
<polygon fill="midnightblue" stroke="midnightblue" points="368.377,-81.8094 376.9,-75.5164 366.313,-75.1206 368.377,-81.8094"/>
</g>
<!-- Node8 -->
<g id="node8" class="node"><title>Node8</title>
<g id="a_node8"><a xlink:href="Quality_8h.html" target="_top" xlink:title="QualityControl/Quality.h">
<polygon fill="none" stroke="black" points="169,-56.5 169,-75.5 290,-75.5 290,-56.5 169,-56.5"/>
<text text-anchor="middle" x="229.5" y="-63.5" font-family="Helvetica,sans-Serif" font-size="10.00">QualityControl/Quality.h</text>
</a>
</g>
</g>
<!-- Node2&#45;&gt;Node8 -->
<g id="edge7" class="edge"><title>Node2&#45;&gt;Node8</title>
<path fill="none" stroke="midnightblue" d="M229.5,-112.083C229.5,-105.006 229.5,-94.8611 229.5,-85.9865"/>
<polygon fill="midnightblue" stroke="midnightblue" points="233,-85.751 229.5,-75.7511 226,-85.7511 233,-85.751"/>
</g>
<!-- Node8&#45;&gt;Node3 -->
<g id="edge9" class="edge"><title>Node8&#45;&gt;Node3</title>
<path fill="none" stroke="midnightblue" d="M236.766,-56.083C243.045,-48.3768 252.288,-37.0333 259.931,-27.6531"/>
<polygon fill="midnightblue" stroke="midnightblue" points="262.766,-29.7143 266.369,-19.7511 257.339,-25.2926 262.766,-29.7143"/>
</g>
<!-- Node8&#45;&gt;Node5 -->
<g id="edge8" class="edge"><title>Node8&#45;&gt;Node5</title>
<path fill="none" stroke="midnightblue" d="M217.932,-56.324C207.08,-48.1849 190.619,-35.8395 177.617,-26.0874"/>
<polygon fill="midnightblue" stroke="midnightblue" points="179.379,-23.0339 169.279,-19.8339 175.179,-28.6339 179.379,-23.0339"/>
</g>
</g>
</svg>
