<?xml version="1.0" encoding="UTF-8" standalone="no"?>
<!DOCTYPE svg PUBLIC "-//W3C//DTD SVG 1.1//EN"
 "http://www.w3.org/Graphics/SVG/1.1/DTD/svg11.dtd">
<!-- Generated by graphviz version 2.38.0 (20140413.2041)
 -->
<!-- Title: Framework/include/QualityControl/MonitorObject.h Pages: 1 -->
<svg width="424pt" height="151pt"
 viewBox="0.00 0.00 423.95 151.00" xmlns="http://www.w3.org/2000/svg" xmlns:xlink="http://www.w3.org/1999/xlink">
<g id="graph0" class="graph" transform="scale(1 1) rotate(0) translate(4 147)">
<title>Framework/include/QualityControl/MonitorObject.h</title>
<!-- Node1 -->
<g id="node1" class="node"><title>Node1</title>
<polygon fill="#bfbfbf" stroke="black" points="115.831,-112.5 115.831,-142.5 248.831,-142.5 248.831,-112.5 115.831,-112.5"/>
<text text-anchor="start" x="123.831" y="-130.5" font-family="Helvetica,sans-Serif" font-size="10.00">Framework/include/Quality</text>
<text text-anchor="middle" x="182.331" y="-119.5" font-family="Helvetica,sans-Serif" font-size="10.00">Control/MonitorObject.h</text>
</g>
<!-- Node2 -->
<g id="node2" class="node"><title>Node2</title>
<polygon fill="none" stroke="#bfbfbf" points="2.83061,-0.5 2.83061,-19.5 43.8306,-19.5 43.8306,-0.5 2.83061,-0.5"/>
<text text-anchor="middle" x="23.3306" y="-7.5" font-family="Helvetica,sans-Serif" font-size="10.00">string</text>
</g>
<!-- Node1&#45;&gt;Node2 -->
<g id="edge1" class="edge"><title>Node1&#45;&gt;Node2</title>
<path fill="none" stroke="midnightblue" d="M115.482,-115.97C71.2171,-107.476 18.9006,-93.9831 5.33061,-76 -5.09917,-62.1783 2.52625,-42.6363 10.8282,-28.5943"/>
<polygon fill="midnightblue" stroke="midnightblue" points="13.9683,-30.1847 16.4703,-19.8895 8.0942,-26.3773 13.9683,-30.1847"/>
</g>
<!-- Node3 -->
<g id="node3" class="node"><title>Node3</title>
<polygon fill="none" stroke="#bfbfbf" points="14.8306,-56.5 14.8306,-75.5 49.8306,-75.5 49.8306,-56.5 14.8306,-56.5"/>
<text text-anchor="middle" x="32.3306" y="-63.5" font-family="Helvetica,sans-Serif" font-size="10.00">map</text>
</g>
<!-- Node1&#45;&gt;Node3 -->
<g id="edge2" class="edge"><title>Node1&#45;&gt;Node3</title>
<path fill="none" stroke="midnightblue" d="M146.783,-112.399C119.98,-101.768 83.78,-87.4083 59.3254,-77.7079"/>
<polygon fill="midnightblue" stroke="midnightblue" points="60.5276,-74.4196 49.9417,-73.9857 57.9466,-80.9264 60.5276,-74.4196"/>
</g>
<!-- Node4 -->
<g id="node4" class="node"><title>Node4</title>
<polygon fill="none" stroke="#bfbfbf" points="250.331,-0.5 250.331,-19.5 306.331,-19.5 306.331,-0.5 250.331,-0.5"/>
<text text-anchor="middle" x="278.331" y="-7.5" font-family="Helvetica,sans-Serif" font-size="10.00">Rtypes.h</text>
</g>
<!-- Node1&#45;&gt;Node4 -->
<g id="edge3" class="edge"><title>Node1&#45;&gt;Node4</title>
<path fill="none" stroke="midnightblue" d="M249.022,-120.777C308.617,-114.116 389.502,-100.724 409.331,-76 437.373,-41.033 364.435,-23.3812 316.458,-15.7924"/>
<polygon fill="midnightblue" stroke="midnightblue" points="316.758,-12.2984 306.35,-14.2816 315.723,-19.2215 316.758,-12.2984"/>
</g>
<!-- Node5 -->
<g id="node5" class="node"><title>Node5</title>
<polygon fill="none" stroke="#bfbfbf" points="206.831,-56.5 206.831,-75.5 265.831,-75.5 265.831,-56.5 206.831,-56.5"/>
<text text-anchor="middle" x="236.331" y="-63.5" font-family="Helvetica,sans-Serif" font-size="10.00">TObject.h</text>
</g>
<!-- Node1&#45;&gt;Node5 -->
<g id="edge4" class="edge"><title>Node1&#45;&gt;Node5</title>
<path fill="none" stroke="midnightblue" d="M195.128,-112.399C203.056,-103.664 213.267,-92.4126 221.541,-83.2962"/>
<polygon fill="midnightblue" stroke="midnightblue" points="224.344,-85.415 228.473,-75.6578 219.161,-80.7106 224.344,-85.415"/>
</g>
<!-- Node6 -->
<g id="node6" class="node"><title>Node6</title>
<polygon fill="none" stroke="#bfbfbf" points="284.331,-56.5 284.331,-75.5 400.331,-75.5 400.331,-56.5 284.331,-56.5"/>
<text text-anchor="middle" x="342.331" y="-63.5" font-family="Helvetica,sans-Serif" font-size="10.00">Common/Exceptions.h</text>
</g>
<!-- Node1&#45;&gt;Node6 -->
<g id="edge5" class="edge"><title>Node1&#45;&gt;Node6</title>
<path fill="none" stroke="midnightblue" d="M220.248,-112.399C247.453,-102.283 283.734,-88.7905 309.66,-79.1493"/>
<polygon fill="midnightblue" stroke="midnightblue" points="310.896,-82.4239 319.049,-75.6578 308.456,-75.8629 310.896,-82.4239"/>
</g>
<!-- Node7 -->
<g id="node7" class="node"><title>Node7</title>
<g id="a_node7"><a xlink:href="Quality_8h.html" target="_top" xlink:title="QualityControl/Quality.h">
<polygon fill="none" stroke="black" points="67.8306,-56.5 67.8306,-75.5 188.831,-75.5 188.831,-56.5 67.8306,-56.5"/>
<text text-anchor="middle" x="128.331" y="-63.5" font-family="Helvetica,sans-Serif" font-size="10.00">QualityControl/Quality.h</text>
</a>
</g>
</g>
<!-- Node1&#45;&gt;Node7 -->
<g id="edge6" class="edge"><title>Node1&#45;&gt;Node7</title>
<path fill="none" stroke="midnightblue" d="M169.533,-112.399C161.606,-103.664 151.394,-92.4126 143.12,-83.2962"/>
<polygon fill="midnightblue" stroke="midnightblue" points="145.5,-80.7106 136.188,-75.6578 140.317,-85.415 145.5,-80.7106"/>
</g>
<!-- Node7&#45;&gt;Node2 -->
<g id="edge8" class="edge"><title>Node7&#45;&gt;Node2</title>
<path fill="none" stroke="midnightblue" d="M111.461,-56.324C94.6218,-47.6641 68.5241,-34.2424 49.0926,-24.249"/>
<polygon fill="midnightblue" stroke="midnightblue" points="50.6524,-21.1155 40.1588,-19.6545 47.451,-27.3405 50.6524,-21.1155"/>
</g>
<!-- Node7&#45;&gt;Node4 -->
<g id="edge7" class="edge"><title>Node7&#45;&gt;Node4</title>
<path fill="none" stroke="midnightblue" d="M152.099,-56.4435C177.223,-47.3986 217.042,-33.064 245.231,-22.9158"/>
<polygon fill="midnightblue" stroke="midnightblue" points="246.451,-26.1968 254.674,-19.5164 244.079,-19.6106 246.451,-26.1968"/>
</g>
</g>
</svg>
