<?xml version="1.0" encoding="UTF-8" standalone="no"?>
<!DOCTYPE svg PUBLIC "-//W3C//DTD SVG 1.1//EN"
 "http://www.w3.org/Graphics/SVG/1.1/DTD/svg11.dtd">
<!-- Generated by graphviz version 2.38.0 (20140413.2041)
 -->
<!-- Title: Framework/src/MySqlDatabase.cxx Pages: 1 -->
<!--zoomable 364 -->
<svg id="main" version="1.1" xmlns="http://www.w3.org/2000/svg" xmlns:xlink="http://www.w3.org/1999/xlink" xml:space="preserve" onload="init(evt)">
<style type="text/css"><![CDATA[
.edge:hover path { stroke: red; }
.edge:hover polygon { stroke: red; fill: red; }
]]></style>
<script type="text/javascript"><![CDATA[
var edges = document.getElementsByTagName('g');
if (edges && edges.length) {
  for (var i=0;i<edges.length;i++) {
    if (edges[i].id.substr(0,4)=='edge') {
      edges[i].setAttribute('class','edge');
    }
  }
}
]]></script>
        <defs>
                <circle id="rim" cx="0" cy="0" r="7"/>
                <circle id="rim2" cx="0" cy="0" r="3.5"/>
                <g id="zoomPlus">
                        <use xlink:href="#rim" fill="#404040">
                                <set attributeName="fill" to="#808080" begin="zoomplus.mouseover" end="zoomplus.mouseout"/>
                        </use>
                        <path d="M-4,0h8M0,-4v8" fill="none" stroke="white" stroke-width="1.5" pointer-events="none"/>
                </g>
                <g id="zoomMin">
                        <use xlink:href="#rim" fill="#404040">
                                <set attributeName="fill" to="#808080" begin="zoomminus.mouseover" end="zoomminus.mouseout"/>
                        </use>
                        <path d="M-4,0h8" fill="none" stroke="white" stroke-width="1.5" pointer-events="none"/>
                </g>
                <g id="dirArrow">
                        <path fill="none" stroke="white" stroke-width="1.5" d="M0,-3.0v7 M-2.5,-0.5L0,-3.0L2.5,-0.5"/>
                </g>
               <g id="resetDef">
                       <use xlink:href="#rim2" fill="#404040">
                               <set attributeName="fill" to="#808080" begin="reset.mouseover" end="reset.mouseout"/>
                       </use>
               </g>
        </defs>

<script type="text/javascript">
var viewWidth = 1772;
var viewHeight = 364;
var sectionId = 'dynsection-0';
</script>
<script xlink:href="svgpan.js"/>
<svg id="graph" class="graph">
<g id="viewport">
<title>Framework/src/MySqlDatabase.cxx</title>
<!-- Node1 -->
<g id="node1" class="node"><title>Node1</title>
<polygon fill="#bfbfbf" stroke="black" points="392.5,-336.5 392.5,-355.5 565.5,-355.5 565.5,-336.5 392.5,-336.5"/>
<text text-anchor="middle" x="479" y="-343.5" font-family="Helvetica,sans-Serif" font-size="10.00">Framework/src/MySqlDatabase.cxx</text>
</g>
<!-- Node2 -->
<g id="node2" class="node"><title>Node2</title>
<polygon fill="none" stroke="#bfbfbf" points="0,-280.5 0,-299.5 52,-299.5 52,-280.5 0,-280.5"/>
<text text-anchor="middle" x="26" y="-287.5" font-family="Helvetica,sans-Serif" font-size="10.00">sstream</text>
</g>
<!-- Node1&#45;&gt;Node2 -->
<g id="edge1" class="edge"><title>Node1&#45;&gt;Node2</title>
<path fill="none" stroke="midnightblue" d="M392.419,-339.346C309.841,-333.116 181.88,-321.288 62.3435,-300.01"/>
<polygon fill="midnightblue" stroke="midnightblue" points="62.7462,-296.526 52.2833,-298.193 61.5019,-303.414 62.7462,-296.526"/>
</g>
<!-- Node3 -->
<g id="node3" class="node"><title>Node3</title>
<polygon fill="none" stroke="#bfbfbf" points="70.5,-280.5 70.5,-299.5 141.5,-299.5 141.5,-280.5 70.5,-280.5"/>
<text text-anchor="middle" x="106" y="-287.5" font-family="Helvetica,sans-Serif" font-size="10.00">TMessage.h</text>
</g>
<!-- Node1&#45;&gt;Node3 -->
<g id="edge2" class="edge"><title>Node1&#45;&gt;Node3</title>
<path fill="none" stroke="midnightblue" d="M407.467,-336.463C343.168,-328.498 245.919,-315.731 151.804,-300.046"/>
<polygon fill="midnightblue" stroke="midnightblue" points="152.267,-296.575 141.825,-298.37 151.107,-303.478 152.267,-296.575"/>
</g>
<!-- Node4 -->
<g id="node4" class="node"><title>Node4</title>
<polygon fill="none" stroke="#bfbfbf" points="160,-280.5 160,-299.5 252,-299.5 252,-280.5 160,-280.5"/>
<text text-anchor="middle" x="206" y="-287.5" font-family="Helvetica,sans-Serif" font-size="10.00">TMySQLServer.h</text>
</g>
<!-- Node1&#45;&gt;Node4 -->
<g id="edge3" class="edge"><title>Node1&#45;&gt;Node4</title>
<path fill="none" stroke="midnightblue" d="M435.742,-336.444C387.819,-326.964 310.522,-311.675 259,-301.483"/>
<polygon fill="midnightblue" stroke="midnightblue" points="259.544,-298.023 249.055,-299.516 258.186,-304.89 259.544,-298.023"/>
</g>
<!-- Node5 -->
<g id="node5" class="node"><title>Node5</title>
<polygon fill="none" stroke="#bfbfbf" points="270,-280.5 270,-299.5 362,-299.5 362,-280.5 270,-280.5"/>
<text text-anchor="middle" x="316" y="-287.5" font-family="Helvetica,sans-Serif" font-size="10.00">TMySQLResult.h</text>
</g>
<!-- Node1&#45;&gt;Node5 -->
<g id="edge4" class="edge"><title>Node1&#45;&gt;Node5</title>
<path fill="none" stroke="midnightblue" d="M453.172,-336.444C425.751,-327.359 382.223,-312.939 351.568,-302.783"/>
<polygon fill="midnightblue" stroke="midnightblue" points="352.3,-299.339 341.707,-299.516 350.099,-305.984 352.3,-299.339"/>
</g>
<!-- Node6 -->
<g id="node6" class="node"><title>Node6</title>
<polygon fill="none" stroke="#bfbfbf" points="380,-280.5 380,-299.5 464,-299.5 464,-280.5 380,-280.5"/>
<text text-anchor="middle" x="422" y="-287.5" font-family="Helvetica,sans-Serif" font-size="10.00">TMySQLRow.h</text>
</g>
<!-- Node1&#45;&gt;Node6 -->
<g id="edge5" class="edge"><title>Node1&#45;&gt;Node6</title>
<path fill="none" stroke="midnightblue" d="M469.842,-336.324C461.499,-328.42 448.968,-316.548 438.823,-306.938"/>
<polygon fill="midnightblue" stroke="midnightblue" points="440.991,-304.171 431.325,-299.834 436.177,-309.252 440.991,-304.171"/>
</g>
<!-- Node7 -->
<g id="node7" class="node"><title>Node7</title>
<polygon fill="none" stroke="#bfbfbf" points="482.5,-280.5 482.5,-299.5 591.5,-299.5 591.5,-280.5 482.5,-280.5"/>
<text text-anchor="middle" x="537" y="-287.5" font-family="Helvetica,sans-Serif" font-size="10.00">TMySQLStatement.h</text>
</g>
<!-- Node1&#45;&gt;Node7 -->
<g id="edge6" class="edge"><title>Node1&#45;&gt;Node7</title>
<path fill="none" stroke="midnightblue" d="M488.319,-336.324C496.893,-328.341 509.812,-316.313 520.188,-306.653"/>
<polygon fill="midnightblue" stroke="midnightblue" points="522.578,-309.21 527.512,-299.834 517.808,-304.086 522.578,-309.21"/>
</g>
<!-- Node8 -->
<g id="node8" class="node"><title>Node8</title>
<polygon fill="none" stroke="#bfbfbf" points="610,-280.5 610,-299.5 694,-299.5 694,-280.5 610,-280.5"/>
<text text-anchor="middle" x="652" y="-287.5" font-family="Helvetica,sans-Serif" font-size="10.00">TBufferJSON.h</text>
</g>
<!-- Node1&#45;&gt;Node8 -->
<g id="edge7" class="edge"><title>Node1&#45;&gt;Node8</title>
<path fill="none" stroke="midnightblue" d="M506.412,-336.444C535.769,-327.28 582.519,-312.688 615.096,-302.519"/>
<polygon fill="midnightblue" stroke="midnightblue" points="616.213,-305.837 624.716,-299.516 614.127,-299.155 616.213,-305.837"/>
</g>
<!-- Node9 -->
<g id="node9" class="node"><title>Node9</title>
<polygon fill="none" stroke="#bfbfbf" points="688,-56.5 688,-75.5 804,-75.5 804,-56.5 688,-56.5"/>
<text text-anchor="middle" x="746" y="-63.5" font-family="Helvetica,sans-Serif" font-size="10.00">Common/Exceptions.h</text>
</g>
<!-- Node1&#45;&gt;Node9 -->
<g id="edge8" class="edge"><title>Node1&#45;&gt;Node9</title>
<path fill="none" stroke="midnightblue" d="M565.637,-336.85C619.775,-330.049 682.905,-318.435 703,-300 725.179,-279.654 722,-265.098 722,-235 722,-235 722,-235 722,-177 722,-144.059 732.401,-106.818 739.509,-85.2139"/>
<polygon fill="midnightblue" stroke="midnightblue" points="742.838,-86.2937 742.763,-75.6992 736.215,-84.0282 742.838,-86.2937"/>
</g>
<!-- Node10 -->
<g id="node10" class="node"><title>Node10</title>
<g id="a_node10"><a xlink:href="MySqlDatabase_8h.html" target="_top" xlink:title="QualityControl/MySqlDatabase.h">
<polygon fill="none" stroke="black" points="750,-224.5 750,-243.5 910,-243.5 910,-224.5 750,-224.5"/>
<text text-anchor="middle" x="830" y="-231.5" font-family="Helvetica,sans-Serif" font-size="10.00">QualityControl/MySqlDatabase.h</text>
</a>
</g>
</g>
<!-- Node1&#45;&gt;Node10 -->
<g id="edge9" class="edge"><title>Node1&#45;&gt;Node10</title>
<path fill="none" stroke="midnightblue" d="M565.781,-339.166C616.85,-333.467 681.832,-322.213 736,-300 765.501,-287.902 795.006,-265.379 812.884,-250.286"/>
<polygon fill="midnightblue" stroke="midnightblue" points="815.399,-252.74 820.676,-243.553 810.822,-247.443 815.399,-252.74"/>
</g>
<!-- Node22 -->
<g id="node22" class="node"><title>Node22</title>
<g id="a_node22"><a xlink:href="QcInfoLogger_8h.html" target="_top" xlink:title="QualityControl/QcInfoLogger.h">
<polygon fill="none" stroke="black" points="1087.5,-280.5 1087.5,-299.5 1236.5,-299.5 1236.5,-280.5 1087.5,-280.5"/>
<text text-anchor="middle" x="1162" y="-287.5" font-family="Helvetica,sans-Serif" font-size="10.00">QualityControl/QcInfoLogger.h</text>
</a>
</g>
</g>
<!-- Node1&#45;&gt;Node22 -->
<g id="edge25" class="edge"><title>Node1&#45;&gt;Node22</title>
<path fill="none" stroke="midnightblue" d="M565.502,-338.161C697.173,-327.751 946.348,-308.05 1077.07,-297.714"/>
<polygon fill="midnightblue" stroke="midnightblue" points="1077.74,-301.173 1087.43,-296.896 1077.18,-294.195 1077.74,-301.173"/>
</g>
<!-- Node11 -->
<g id="node11" class="node"><title>Node11</title>
<polygon fill="none" stroke="#bfbfbf" points="750,-168.5 750,-187.5 842,-187.5 842,-168.5 750,-168.5"/>
<text text-anchor="middle" x="796" y="-175.5" font-family="Helvetica,sans-Serif" font-size="10.00">Common/Timer.h</text>
</g>
<!-- Node10&#45;&gt;Node11 -->
<g id="edge10" class="edge"><title>Node10&#45;&gt;Node11</title>
<path fill="none" stroke="midnightblue" d="M824.386,-224.083C819.633,-216.534 812.682,-205.495 806.848,-196.23"/>
<polygon fill="midnightblue" stroke="midnightblue" points="809.8,-194.349 801.51,-187.751 803.876,-198.078 809.8,-194.349"/>
</g>
<!-- Node12 -->
<g id="node12" class="node"><title>Node12</title>
<g id="a_node12"><a xlink:href="DatabaseInterface_8h.html" target="_top" xlink:title="QualityControl/DatabaseInterface.h">
<polygon fill="none" stroke="black" points="903,-168.5 903,-187.5 1073,-187.5 1073,-168.5 903,-168.5"/>
<text text-anchor="middle" x="988" y="-175.5" font-family="Helvetica,sans-Serif" font-size="10.00">QualityControl/DatabaseInterface.h</text>
</a>
</g>
</g>
<!-- Node10&#45;&gt;Node12 -->
<g id="edge11" class="edge"><title>Node10&#45;&gt;Node12</title>
<path fill="none" stroke="midnightblue" d="M855.036,-224.444C881.616,-215.359 923.809,-200.939 953.523,-190.783"/>
<polygon fill="midnightblue" stroke="midnightblue" points="954.751,-194.062 963.082,-187.516 952.487,-187.439 954.751,-194.062"/>
</g>
<!-- Node13 -->
<g id="node13" class="node"><title>Node13</title>
<polygon fill="none" stroke="#bfbfbf" points="1210.5,-0.5 1210.5,-19.5 1251.5,-19.5 1251.5,-0.5 1210.5,-0.5"/>
<text text-anchor="middle" x="1231" y="-7.5" font-family="Helvetica,sans-Serif" font-size="10.00">string</text>
</g>
<!-- Node12&#45;&gt;Node13 -->
<g id="edge12" class="edge"><title>Node12&#45;&gt;Node13</title>
<path fill="none" stroke="midnightblue" d="M1024.69,-168.452C1051.68,-161.198 1088.63,-149.204 1118,-132 1163.5,-105.344 1201.82,-54.7468 1219.88,-28.2159"/>
<polygon fill="midnightblue" stroke="midnightblue" points="1222.98,-29.8848 1225.6,-19.6191 1217.15,-26.0101 1222.98,-29.8848"/>
</g>
<!-- Node14 -->
<g id="node14" class="node"><title>Node14</title>
<polygon fill="none" stroke="#bfbfbf" points="1279,-112.5 1279,-131.5 1331,-131.5 1331,-112.5 1279,-112.5"/>
<text text-anchor="middle" x="1305" y="-119.5" font-family="Helvetica,sans-Serif" font-size="10.00">memory</text>
</g>
<!-- Node12&#45;&gt;Node14 -->
<g id="edge13" class="edge"><title>Node12&#45;&gt;Node14</title>
<path fill="none" stroke="midnightblue" d="M1038.23,-168.444C1102.49,-157.497 1212.24,-138.802 1268.85,-129.158"/>
<polygon fill="midnightblue" stroke="midnightblue" points="1269.51,-132.596 1278.78,-127.466 1268.34,-125.695 1269.51,-132.596"/>
</g>
<!-- Node15 -->
<g id="node15" class="node"><title>Node15</title>
<polygon fill="none" stroke="#bfbfbf" points="895,-112.5 895,-131.5 939,-131.5 939,-112.5 895,-112.5"/>
<text text-anchor="middle" x="917" y="-119.5" font-family="Helvetica,sans-Serif" font-size="10.00">vector</text>
</g>
<!-- Node12&#45;&gt;Node15 -->
<g id="edge14" class="edge"><title>Node12&#45;&gt;Node15</title>
<path fill="none" stroke="midnightblue" d="M976.593,-168.324C965.891,-160.185 949.659,-147.839 936.837,-138.087"/>
<polygon fill="midnightblue" stroke="midnightblue" points="938.693,-135.102 928.615,-131.834 934.456,-140.673 938.693,-135.102"/>
</g>
<!-- Node16 -->
<g id="node16" class="node"><title>Node16</title>
<polygon fill="none" stroke="#bfbfbf" points="1307.5,-56.5 1307.5,-75.5 1390.5,-75.5 1390.5,-56.5 1307.5,-56.5"/>
<text text-anchor="middle" x="1349" y="-63.5" font-family="Helvetica,sans-Serif" font-size="10.00">unordered_map</text>
</g>
<!-- Node12&#45;&gt;Node16 -->
<g id="edge15" class="edge"><title>Node12&#45;&gt;Node16</title>
<path fill="none" stroke="midnightblue" d="M1020.6,-168.49C1053.6,-159.763 1106.03,-145.579 1151,-132 1208.67,-114.584 1275.08,-92.3261 1314.47,-78.892"/>
<polygon fill="midnightblue" stroke="midnightblue" points="1315.79,-82.1404 1324.12,-75.5933 1313.52,-75.5169 1315.79,-82.1404"/>
</g>
<!-- Node17 -->
<g id="node17" class="node"><title>Node17</title>
<g id="a_node17"><a xlink:href="MonitorObject_8h.html" target="_top" xlink:title="QualityControl/MonitorObject.h">
<polygon fill="none" stroke="black" points="957.5,-112.5 957.5,-131.5 1108.5,-131.5 1108.5,-112.5 957.5,-112.5"/>
<text text-anchor="middle" x="1033" y="-119.5" font-family="Helvetica,sans-Serif" font-size="10.00">QualityControl/MonitorObject.h</text>
</a>
</g>
</g>
<!-- Node12&#45;&gt;Node17 -->
<g id="edge16" class="edge"><title>Node12&#45;&gt;Node17</title>
<path fill="none" stroke="midnightblue" d="M995.431,-168.083C1001.85,-160.377 1011.31,-149.033 1019.12,-139.653"/>
<polygon fill="midnightblue" stroke="midnightblue" points="1021.99,-141.674 1025.71,-131.751 1016.62,-137.193 1021.99,-141.674"/>
</g>
<!-- Node17&#45;&gt;Node9 -->
<g id="edge21" class="edge"><title>Node17&#45;&gt;Node9</title>
<path fill="none" stroke="midnightblue" d="M987.524,-112.444C937.038,-102.944 855.544,-87.611 801.38,-77.4198"/>
<polygon fill="midnightblue" stroke="midnightblue" points="801.738,-73.9259 791.263,-75.5164 800.444,-80.8052 801.738,-73.9259"/>
</g>
<!-- Node17&#45;&gt;Node13 -->
<g id="edge17" class="edge"><title>Node17&#45;&gt;Node13</title>
<path fill="none" stroke="midnightblue" d="M1064.91,-112.432C1090.12,-104.902 1125.65,-92.5585 1154,-76 1177.45,-62.3033 1200.78,-41.3137 1215.51,-26.9141"/>
<polygon fill="midnightblue" stroke="midnightblue" points="1218.15,-29.2233 1222.75,-19.6805 1213.2,-24.2702 1218.15,-29.2233"/>
</g>
<!-- Node18 -->
<g id="node18" class="node"><title>Node18</title>
<polygon fill="none" stroke="#bfbfbf" points="851.5,-56.5 851.5,-75.5 886.5,-75.5 886.5,-56.5 851.5,-56.5"/>
<text text-anchor="middle" x="869" y="-63.5" font-family="Helvetica,sans-Serif" font-size="10.00">map</text>
</g>
<!-- Node17&#45;&gt;Node18 -->
<g id="edge18" class="edge"><title>Node17&#45;&gt;Node18</title>
<path fill="none" stroke="midnightblue" d="M1007.01,-112.444C976.827,-102.504 927.241,-86.1771 896.446,-76.037"/>
<polygon fill="midnightblue" stroke="midnightblue" points="897.37,-72.6567 886.777,-72.8536 895.181,-79.3056 897.37,-72.6567"/>
</g>
<!-- Node19 -->
<g id="node19" class="node"><title>Node19</title>
<polygon fill="none" stroke="#bfbfbf" points="973,-0.5 973,-19.5 1029,-19.5 1029,-0.5 973,-0.5"/>
<text text-anchor="middle" x="1001" y="-7.5" font-family="Helvetica,sans-Serif" font-size="10.00">Rtypes.h</text>
</g>
<!-- Node17&#45;&gt;Node19 -->
<g id="edge19" class="edge"><title>Node17&#45;&gt;Node19</title>
<path fill="none" stroke="midnightblue" d="M991.949,-112.383C972.04,-105.916 949.906,-94.814 938,-76 925.148,-55.6914 950.134,-36.4506 972.336,-24.2492"/>
<polygon fill="midnightblue" stroke="midnightblue" points="973.986,-27.3364 981.249,-19.6225 970.761,-21.1236 973.986,-27.3364"/>
</g>
<!-- Node20 -->
<g id="node20" class="node"><title>Node20</title>
<polygon fill="none" stroke="#bfbfbf" points="946.5,-56.5 946.5,-75.5 1005.5,-75.5 1005.5,-56.5 946.5,-56.5"/>
<text text-anchor="middle" x="976" y="-63.5" font-family="Helvetica,sans-Serif" font-size="10.00">TObject.h</text>
</g>
<!-- Node17&#45;&gt;Node20 -->
<g id="edge20" class="edge"><title>Node17&#45;&gt;Node20</title>
<path fill="none" stroke="midnightblue" d="M1023.84,-112.324C1015.5,-104.42 1002.97,-92.5482 992.823,-82.9377"/>
<polygon fill="midnightblue" stroke="midnightblue" points="994.991,-80.1705 985.325,-75.8339 990.177,-85.2522 994.991,-80.1705"/>
</g>
<!-- Node21 -->
<g id="node21" class="node"><title>Node21</title>
<g id="a_node21"><a xlink:href="Quality_8h.html" target="_top" xlink:title="QualityControl/Quality.h">
<polygon fill="none" stroke="black" points="1023.5,-56.5 1023.5,-75.5 1144.5,-75.5 1144.5,-56.5 1023.5,-56.5"/>
<text text-anchor="middle" x="1084" y="-63.5" font-family="Helvetica,sans-Serif" font-size="10.00">QualityControl/Quality.h</text>
</a>
</g>
</g>
<!-- Node17&#45;&gt;Node21 -->
<g id="edge22" class="edge"><title>Node17&#45;&gt;Node21</title>
<path fill="none" stroke="midnightblue" d="M1041.42,-112.083C1048.85,-104.22 1059.85,-92.5688 1068.81,-83.0813"/>
<polygon fill="midnightblue" stroke="midnightblue" points="1071.41,-85.4244 1075.74,-75.7511 1066.32,-80.618 1071.41,-85.4244"/>
</g>
<!-- Node21&#45;&gt;Node13 -->
<g id="edge24" class="edge"><title>Node21&#45;&gt;Node13</title>
<path fill="none" stroke="midnightblue" d="M1107.29,-56.4435C1132.53,-47.1732 1172.89,-32.3464 1200.61,-22.1652"/>
<polygon fill="midnightblue" stroke="midnightblue" points="1202.01,-25.3769 1210.19,-18.6433 1199.6,-18.8062 1202.01,-25.3769"/>
</g>
<!-- Node21&#45;&gt;Node19 -->
<g id="edge23" class="edge"><title>Node21&#45;&gt;Node19</title>
<path fill="none" stroke="midnightblue" d="M1070.66,-56.324C1057.84,-47.979 1038.22,-35.2122 1023.06,-25.3524"/>
<polygon fill="midnightblue" stroke="midnightblue" points="1024.59,-22.1742 1014.3,-19.6545 1020.78,-28.0417 1024.59,-22.1742"/>
</g>
<!-- Node23 -->
<g id="node23" class="node"><title>Node23</title>
<polygon fill="none" stroke="#bfbfbf" points="1097,-224.5 1097,-243.5 1227,-243.5 1227,-224.5 1097,-224.5"/>
<text text-anchor="middle" x="1162" y="-231.5" font-family="Helvetica,sans-Serif" font-size="10.00">InfoLogger/InfoLogger.hxx</text>
</g>
<!-- Node22&#45;&gt;Node23 -->
<g id="edge26" class="edge"><title>Node22&#45;&gt;Node23</title>
<path fill="none" stroke="midnightblue" d="M1162,-280.083C1162,-273.006 1162,-262.861 1162,-253.986"/>
<polygon fill="midnightblue" stroke="midnightblue" points="1165.5,-253.751 1162,-243.751 1158.5,-253.751 1165.5,-253.751"/>
</g>
<!-- Node24 -->
<g id="node24" class="node"><title>Node24</title>
<g id="a_node24"><a xlink:href="TaskInterface_8h.html" target="_top" xlink:title="QualityControl/TaskInterface.h">
<polygon fill="none" stroke="black" points="1419,-224.5 1419,-243.5 1569,-243.5 1569,-224.5 1419,-224.5"/>
<text text-anchor="middle" x="1494" y="-231.5" font-family="Helvetica,sans-Serif" font-size="10.00">QualityControl/TaskInterface.h</text>
</a>
</g>
</g>
<!-- Node22&#45;&gt;Node24 -->
<g id="edge27" class="edge"><title>Node22&#45;&gt;Node24</title>
<path fill="none" stroke="midnightblue" d="M1214.61,-280.444C1273.49,-270.865 1368.85,-255.356 1431.49,-245.167"/>
<polygon fill="midnightblue" stroke="midnightblue" points="1432.33,-248.577 1441.64,-243.516 1431.21,-241.667 1432.33,-248.577"/>
</g>
<!-- Node24&#45;&gt;Node13 -->
<g id="edge30" class="edge"><title>Node24&#45;&gt;Node13</title>
<path fill="none" stroke="midnightblue" d="M1569.28,-230.764C1639.18,-226.912 1735.97,-216.441 1760,-188 1765.74,-181.211 1764.35,-175.749 1760,-168 1709.24,-77.6701 1366.54,-27.8955 1261.53,-14.6358"/>
<polygon fill="midnightblue" stroke="midnightblue" points="1261.93,-11.1585 1251.57,-13.3987 1261.06,-18.1051 1261.93,-11.1585"/>
</g>
<!-- Node24&#45;&gt;Node14 -->
<g id="edge29" class="edge"><title>Node24&#45;&gt;Node14</title>
<path fill="none" stroke="midnightblue" d="M1569.35,-233.68C1653.79,-231.977 1772.97,-220.668 1725,-168 1697.59,-137.912 1414.62,-139.139 1341.46,-131.583"/>
<polygon fill="midnightblue" stroke="midnightblue" points="1341.65,-128.077 1331.28,-130.233 1340.73,-135.017 1341.65,-128.077"/>
</g>
<!-- Node24&#45;&gt;Node16 -->
<g id="edge31" class="edge"><title>Node24&#45;&gt;Node16</title>
<path fill="none" stroke="midnightblue" d="M1569.17,-229.802C1634.49,-225.257 1722.01,-214.305 1744,-188 1749.7,-181.181 1749.45,-175.021 1744,-168 1702.01,-113.923 1497.92,-83.9 1400.7,-72.4572"/>
<polygon fill="midnightblue" stroke="midnightblue" points="1400.85,-68.951 1390.51,-71.2801 1400.04,-75.9047 1400.85,-68.951"/>
</g>
<!-- Node24&#45;&gt;Node18 -->
<g id="edge28" class="edge"><title>Node24&#45;&gt;Node18</title>
<path fill="none" stroke="midnightblue" d="M1418.85,-229.758C1262.16,-222.675 913.433,-205.077 894,-188 864.956,-162.477 864.418,-112.909 866.642,-85.8091"/>
<polygon fill="midnightblue" stroke="midnightblue" points="870.14,-86.0139 867.69,-75.7062 863.177,-85.2919 870.14,-86.0139"/>
</g>
<!-- Node25 -->
<g id="node25" class="node"><title>Node25</title>
<polygon fill="none" stroke="#bfbfbf" points="1270.5,-168.5 1270.5,-187.5 1395.5,-187.5 1395.5,-168.5 1270.5,-168.5"/>
<text text-anchor="middle" x="1333" y="-175.5" font-family="Helvetica,sans-Serif" font-size="10.00">Framework/InitContext.h</text>
</g>
<!-- Node24&#45;&gt;Node25 -->
<g id="edge32" class="edge"><title>Node24&#45;&gt;Node25</title>
<path fill="none" stroke="midnightblue" d="M1468.49,-224.444C1441.4,-215.359 1398.41,-200.939 1368.13,-190.783"/>
<polygon fill="midnightblue" stroke="midnightblue" points="1368.99,-187.378 1358.39,-187.516 1366.76,-194.015 1368.99,-187.378"/>
</g>
<!-- Node26 -->
<g id="node26" class="node"><title>Node26</title>
<polygon fill="none" stroke="#bfbfbf" points="1414,-168.5 1414,-187.5 1574,-187.5 1574,-168.5 1414,-168.5"/>
<text text-anchor="middle" x="1494" y="-175.5" font-family="Helvetica,sans-Serif" font-size="10.00">Framework/ProcessingContext.h</text>
</g>
<!-- Node24&#45;&gt;Node26 -->
<g id="edge33" class="edge"><title>Node24&#45;&gt;Node26</title>
<path fill="none" stroke="midnightblue" d="M1494,-224.083C1494,-217.006 1494,-206.861 1494,-197.986"/>
<polygon fill="midnightblue" stroke="midnightblue" points="1497.5,-197.751 1494,-187.751 1490.5,-197.751 1497.5,-197.751"/>
</g>
<!-- Node27 -->
<g id="node27" class="node"><title>Node27</title>
<g id="a_node27"><a xlink:href="Activity_8h.html" target="_top" xlink:title="QualityControl/Activity.h">
<polygon fill="none" stroke="black" points="1592.5,-168.5 1592.5,-187.5 1715.5,-187.5 1715.5,-168.5 1592.5,-168.5"/>
<text text-anchor="middle" x="1654" y="-175.5" font-family="Helvetica,sans-Serif" font-size="10.00">QualityControl/Activity.h</text>
</a>
</g>
</g>
<!-- Node24&#45;&gt;Node27 -->
<g id="edge34" class="edge"><title>Node24&#45;&gt;Node27</title>
<path fill="none" stroke="midnightblue" d="M1519.35,-224.444C1546.27,-215.359 1589,-200.939 1619.09,-190.783"/>
<polygon fill="midnightblue" stroke="midnightblue" points="1620.41,-194.031 1628.77,-187.516 1618.17,-187.398 1620.41,-194.031"/>
</g>
<!-- Node28 -->
<g id="node28" class="node"><title>Node28</title>
<g id="a_node28"><a xlink:href="ObjectsManager_8h.html" target="_top" xlink:title="QualityControl/ObjectsManager.h">
<polygon fill="none" stroke="black" points="1091.5,-168.5 1091.5,-187.5 1252.5,-187.5 1252.5,-168.5 1091.5,-168.5"/>
<text text-anchor="middle" x="1172" y="-175.5" font-family="Helvetica,sans-Serif" font-size="10.00">QualityControl/ObjectsManager.h</text>
</a>
</g>
</g>
<!-- Node24&#45;&gt;Node28 -->
<g id="edge35" class="edge"><title>Node24&#45;&gt;Node28</title>
<path fill="none" stroke="midnightblue" d="M1442.98,-224.444C1385.98,-214.885 1293.76,-199.419 1233,-189.23"/>
<polygon fill="midnightblue" stroke="midnightblue" points="1233.22,-185.719 1222.78,-187.516 1232.07,-192.622 1233.22,-185.719"/>
</g>
<!-- Node28&#45;&gt;Node13 -->
<g id="edge41" class="edge"><title>Node28&#45;&gt;Node13</title>
<path fill="none" stroke="midnightblue" d="M1178.08,-168.319C1189.54,-151.444 1214.16,-112.648 1225,-76 1229.48,-60.871 1230.86,-42.9737 1231.19,-29.7933"/>
<polygon fill="midnightblue" stroke="midnightblue" points="1234.69,-29.6367 1231.26,-19.6129 1227.69,-29.5886 1234.69,-29.6367"/>
</g>
<!-- Node28&#45;&gt;Node14 -->
<g id="edge42" class="edge"><title>Node28&#45;&gt;Node14</title>
<path fill="none" stroke="midnightblue" d="M1193.07,-168.444C1215.06,-159.517 1249.73,-145.439 1274.66,-135.317"/>
<polygon fill="midnightblue" stroke="midnightblue" points="1276.08,-138.521 1284.02,-131.516 1273.44,-132.035 1276.08,-138.521"/>
</g>
<!-- Node28&#45;&gt;Node17 -->
<g id="edge36" class="edge"><title>Node28&#45;&gt;Node17</title>
<path fill="none" stroke="midnightblue" d="M1149.98,-168.444C1126.9,-159.478 1090.44,-145.314 1064.36,-135.183"/>
<polygon fill="midnightblue" stroke="midnightblue" points="1065.51,-131.875 1054.92,-131.516 1062.98,-138.4 1065.51,-131.875"/>
</g>
<!-- Node28&#45;&gt;Node21 -->
<g id="edge37" class="edge"><title>Node28&#45;&gt;Node21</title>
<path fill="none" stroke="midnightblue" d="M1165.09,-168.368C1150.51,-150.135 1116.34,-107.426 1097.34,-83.6752"/>
<polygon fill="midnightblue" stroke="midnightblue" points="1099.85,-81.2137 1090.87,-75.5914 1094.39,-85.5866 1099.85,-81.2137"/>
</g>
<!-- Node29 -->
<g id="node29" class="node"><title>Node29</title>
<g id="a_node29"><a xlink:href="TaskConfig_8h.html" target="_top" xlink:title="QualityControl/TaskConfig.h">
<polygon fill="none" stroke="black" points="1349,-112.5 1349,-131.5 1489,-131.5 1489,-112.5 1349,-112.5"/>
<text text-anchor="middle" x="1419" y="-119.5" font-family="Helvetica,sans-Serif" font-size="10.00">QualityControl/TaskConfig.h</text>
</a>
</g>
</g>
<!-- Node28&#45;&gt;Node29 -->
<g id="edge38" class="edge"><title>Node28&#45;&gt;Node29</title>
<path fill="none" stroke="midnightblue" d="M1211.14,-168.444C1254.23,-159.023 1323.56,-143.866 1370.17,-133.675"/>
<polygon fill="midnightblue" stroke="midnightblue" points="1371.02,-137.072 1380.05,-131.516 1369.53,-130.233 1371.02,-137.072"/>
</g>
<!-- Node29&#45;&gt;Node13 -->
<g id="edge39" class="edge"><title>Node29&#45;&gt;Node13</title>
<path fill="none" stroke="midnightblue" d="M1419.01,-112.053C1418.52,-98.079 1415.48,-71.1109 1400,-56 1362.72,-19.6133 1299.51,-11.7864 1261.86,-10.5818"/>
<polygon fill="midnightblue" stroke="midnightblue" points="1261.57,-7.07613 1251.51,-10.3975 1261.45,-14.075 1261.57,-7.07613"/>
</g>
<!-- Node29&#45;&gt;Node16 -->
<g id="edge40" class="edge"><title>Node29&#45;&gt;Node16</title>
<path fill="none" stroke="midnightblue" d="M1407.75,-112.324C1397.2,-104.185 1381.2,-91.8395 1368.56,-82.0874"/>
<polygon fill="midnightblue" stroke="midnightblue" points="1370.51,-79.1707 1360.45,-75.8339 1366.23,-84.7132 1370.51,-79.1707"/>
</g>
</g>
</svg>
        <g id="navigator" transform="translate(0 0)" fill="#404254">
                <rect fill="#f2f5e9" fill-opacity="0.5" stroke="#606060" stroke-width=".5" x="0" y="0" width="60" height="60"/>
                <use id="zoomplus" xlink:href="#zoomPlus" x="17" y="9" onmousedown="handleZoom(evt,'in')"/>
                <use id="zoomminus" xlink:href="#zoomMin" x="42" y="9" onmousedown="handleZoom(evt,'out')"/>
                <use id="reset" xlink:href="#resetDef" x="30" y="36" onmousedown="handleReset()"/>
                <g id="arrowUp" xlink:href="#dirArrow" transform="translate(30 24)" onmousedown="handlePan(0,-1)">
                  <use xlink:href="#rim" fill="#404040">
                        <set attributeName="fill" to="#808080" begin="arrowUp.mouseover" end="arrowUp.mouseout"/>
                  </use>
                  <path fill="none" stroke="white" stroke-width="1.5" d="M0,-3.0v7 M-2.5,-0.5L0,-3.0L2.5,-0.5"/>
                </g>
                <g id="arrowRight" xlink:href="#dirArrow" transform="rotate(90) translate(36 -43)" onmousedown="handlePan(1,0)">
                  <use xlink:href="#rim" fill="#404040">
                        <set attributeName="fill" to="#808080" begin="arrowRight.mouseover" end="arrowRight.mouseout"/>
                  </use>
                  <path fill="none" stroke="white" stroke-width="1.5" d="M0,-3.0v7 M-2.5,-0.5L0,-3.0L2.5,-0.5"/>
                </g>
                <g id="arrowDown" xlink:href="#dirArrow" transform="rotate(180) translate(-30 -48)" onmousedown="handlePan(0,1)">
                  <use xlink:href="#rim" fill="#404040">
                        <set attributeName="fill" to="#808080" begin="arrowDown.mouseover" end="arrowDown.mouseout"/>
                  </use>
                  <path fill="none" stroke="white" stroke-width="1.5" d="M0,-3.0v7 M-2.5,-0.5L0,-3.0L2.5,-0.5"/>
                </g>
                <g id="arrowLeft" xlink:href="#dirArrow" transform="rotate(270) translate(-36 17)" onmousedown="handlePan(-1,0)">
                  <use xlink:href="#rim" fill="#404040">
                        <set attributeName="fill" to="#808080" begin="arrowLeft.mouseover" end="arrowLeft.mouseout"/>
                  </use>
                  <path fill="none" stroke="white" stroke-width="1.5" d="M0,-3.0v7 M-2.5,-0.5L0,-3.0L2.5,-0.5"/>
                </g>
        </g>
        <svg viewBox="0 0 15 15" width="100%" height="30px" preserveAspectRatio="xMaxYMin meet">
         <g id="arrow_out" transform="scale(0.3 0.3)">
          <a xlink:href="MySqlDatabase_8cxx__incl_org.svg" target="_base">
           <rect id="button" ry="5" rx="5" y="6" x="6" height="38" width="38"
                fill="#f2f5e9" fill-opacity="0.5" stroke="#606060" stroke-width="1.0"/>
           <path id="arrow"
             d="M 11.500037,31.436501 C 11.940474,20.09759 22.043105,11.32322 32.158766,21.979434 L 37.068811,17.246167 C 37.068811,17.246167 37.088388,32 37.088388,32 L 22.160133,31.978069 C 22.160133,31.978069 26.997745,27.140456 26.997745,27.140456 C 18.528582,18.264221 13.291696,25.230495 11.500037,31.436501 z"
             style="fill:#404040;"/>
          </a>
         </g>
        </svg>
</svg>
