<?xml version="1.0" encoding="UTF-8" standalone="no"?>
<!DOCTYPE svg PUBLIC "-//W3C//DTD SVG 1.1//EN"
 "http://www.w3.org/Graphics/SVG/1.1/DTD/svg11.dtd">
<!-- Generated by graphviz version 2.38.0 (20140413.2041)
 -->
<!-- Title: Framework/src/ObjectsManager.cxx Pages: 1 -->
<svg width="1352pt" height="375pt"
 viewBox="0.00 0.00 1352.00 375.00" xmlns="http://www.w3.org/2000/svg" xmlns:xlink="http://www.w3.org/1999/xlink">
<g id="graph0" class="graph" transform="scale(1 1) rotate(0) translate(4 371)">
<title>Framework/src/ObjectsManager.cxx</title>
<!-- Node1 -->
<g id="node1" class="node"><title>Node1</title>
<polygon fill="#bfbfbf" stroke="black" points="590.5,-347.5 590.5,-366.5 765.5,-366.5 765.5,-347.5 590.5,-347.5"/>
<text text-anchor="middle" x="678" y="-354.5" font-family="Helvetica,sans-Serif" font-size="10.00">Framework/src/ObjectsManager.cxx</text>
</g>
<!-- Node2 -->
<g id="node2" class="node"><title>Node2</title>
<g id="a_node2"><a xlink:href="ObjectsManager_8h.html" target="_top" xlink:title="QualityControl/ObjectsManager.h">
<polygon fill="none" stroke="black" points="299.5,-179.5 299.5,-198.5 460.5,-198.5 460.5,-179.5 299.5,-179.5"/>
<text text-anchor="middle" x="380" y="-186.5" font-family="Helvetica,sans-Serif" font-size="10.00">QualityControl/ObjectsManager.h</text>
</a>
</g>
</g>
<!-- Node1&#45;&gt;Node2 -->
<g id="edge1" class="edge"><title>Node1&#45;&gt;Node2</title>
<path fill="none" stroke="midnightblue" d="M661.838,-347.482C644.88,-338.512 617.479,-323.925 594,-311 524.718,-272.862 443.614,-226.541 404.1,-203.863"/>
<polygon fill="midnightblue" stroke="midnightblue" points="405.397,-200.572 394.982,-198.627 401.911,-206.642 405.397,-200.572"/>
</g>
<!-- Node8 -->
<g id="node8" class="node"><title>Node8</title>
<polygon fill="none" stroke="#bfbfbf" points="0,-56.5 0,-75.5 116,-75.5 116,-56.5 0,-56.5"/>
<text text-anchor="middle" x="58" y="-63.5" font-family="Helvetica,sans-Serif" font-size="10.00">Common/Exceptions.h</text>
</g>
<!-- Node1&#45;&gt;Node8 -->
<g id="edge35" class="edge"><title>Node1&#45;&gt;Node8</title>
<path fill="none" stroke="midnightblue" d="M590.243,-356.32C434.963,-354.497 128,-339.117 128,-246 128,-246 128,-246 128,-188 128,-145.606 95.4071,-104.729 74.7014,-83.0374"/>
<polygon fill="midnightblue" stroke="midnightblue" points="76.9623,-80.3463 67.4405,-75.7002 71.9868,-85.2701 76.9623,-80.3463"/>
</g>
<!-- Node13 -->
<g id="node13" class="node"><title>Node13</title>
<g id="a_node13"><a xlink:href="QcInfoLogger_8h.html" target="_top" xlink:title="QualityControl/QcInfoLogger.h">
<polygon fill="none" stroke="black" points="603.5,-291.5 603.5,-310.5 752.5,-310.5 752.5,-291.5 603.5,-291.5"/>
<text text-anchor="middle" x="678" y="-298.5" font-family="Helvetica,sans-Serif" font-size="10.00">QualityControl/QcInfoLogger.h</text>
</a>
</g>
</g>
<!-- Node1&#45;&gt;Node13 -->
<g id="edge17" class="edge"><title>Node1&#45;&gt;Node13</title>
<path fill="none" stroke="midnightblue" d="M678,-347.083C678,-340.006 678,-329.861 678,-320.986"/>
<polygon fill="midnightblue" stroke="midnightblue" points="681.5,-320.751 678,-310.751 674.5,-320.751 681.5,-320.751"/>
</g>
<!-- Node19 -->
<g id="node19" class="node"><title>Node19</title>
<g id="a_node19"><a xlink:href="ServiceDiscovery_8h_source.html" target="_top" xlink:title="QualityControl/ServiceDiscovery.h">
<polygon fill="none" stroke="black" points="1133.5,-179.5 1133.5,-198.5 1300.5,-198.5 1300.5,-179.5 1133.5,-179.5"/>
<text text-anchor="middle" x="1217" y="-186.5" font-family="Helvetica,sans-Serif" font-size="10.00">QualityControl/ServiceDiscovery.h</text>
</a>
</g>
</g>
<!-- Node1&#45;&gt;Node19 -->
<g id="edge28" class="edge"><title>Node1&#45;&gt;Node19</title>
<path fill="none" stroke="midnightblue" d="M702.974,-347.417C740.135,-334.713 812.244,-310.326 874,-291 983.096,-256.859 1112.72,-219.574 1176.89,-201.334"/>
<polygon fill="midnightblue" stroke="midnightblue" points="1177.95,-204.672 1186.61,-198.574 1176.04,-197.938 1177.95,-204.672"/>
</g>
<!-- Node24 -->
<g id="node24" class="node"><title>Node24</title>
<polygon fill="none" stroke="#bfbfbf" points="883.5,-291.5 883.5,-310.5 952.5,-310.5 952.5,-291.5 883.5,-291.5"/>
<text text-anchor="middle" x="918" y="-298.5" font-family="Helvetica,sans-Serif" font-size="10.00">TObjArray.h</text>
</g>
<!-- Node1&#45;&gt;Node24 -->
<g id="edge36" class="edge"><title>Node1&#45;&gt;Node24</title>
<path fill="none" stroke="midnightblue" d="M716.029,-347.444C758.791,-337.822 828.157,-322.215 873.43,-312.028"/>
<polygon fill="midnightblue" stroke="midnightblue" points="874.278,-315.425 883.266,-309.815 872.742,-308.596 874.278,-315.425"/>
</g>
<!-- Node3 -->
<g id="node3" class="node"><title>Node3</title>
<g id="a_node3"><a xlink:href="MonitorObject_8h.html" target="_top" xlink:title="QualityControl/MonitorObject.h">
<polygon fill="none" stroke="black" points="264.5,-118 264.5,-137 415.5,-137 415.5,-118 264.5,-118"/>
<text text-anchor="middle" x="340" y="-125" font-family="Helvetica,sans-Serif" font-size="10.00">QualityControl/MonitorObject.h</text>
</a>
</g>
</g>
<!-- Node2&#45;&gt;Node3 -->
<g id="edge2" class="edge"><title>Node2&#45;&gt;Node3</title>
<path fill="none" stroke="midnightblue" d="M374.269,-179.475C368.328,-170.638 358.883,-156.589 351.412,-145.475"/>
<polygon fill="midnightblue" stroke="midnightblue" points="354.204,-143.355 345.72,-137.009 348.395,-147.261 354.204,-143.355"/>
</g>
<!-- Node4 -->
<g id="node4" class="node"><title>Node4</title>
<polygon fill="none" stroke="#bfbfbf" points="501.5,-0.5 501.5,-19.5 542.5,-19.5 542.5,-0.5 501.5,-0.5"/>
<text text-anchor="middle" x="522" y="-7.5" font-family="Helvetica,sans-Serif" font-size="10.00">string</text>
</g>
<!-- Node2&#45;&gt;Node4 -->
<g id="edge15" class="edge"><title>Node2&#45;&gt;Node4</title>
<path fill="none" stroke="midnightblue" d="M389.135,-179.372C398.302,-170.552 412.652,-156.299 424,-143 457.66,-103.552 492.905,-53.6097 510.53,-27.9389"/>
<polygon fill="midnightblue" stroke="midnightblue" points="513.445,-29.8767 516.19,-19.6438 507.663,-25.9309 513.445,-29.8767"/>
</g>
<!-- Node9 -->
<g id="node9" class="node"><title>Node9</title>
<g id="a_node9"><a xlink:href="Quality_8h.html" target="_top" xlink:title="QualityControl/Quality.h">
<polygon fill="none" stroke="black" points="172.5,-56.5 172.5,-75.5 293.5,-75.5 293.5,-56.5 172.5,-56.5"/>
<text text-anchor="middle" x="233" y="-63.5" font-family="Helvetica,sans-Serif" font-size="10.00">QualityControl/Quality.h</text>
</a>
</g>
</g>
<!-- Node2&#45;&gt;Node9 -->
<g id="edge11" class="edge"><title>Node2&#45;&gt;Node9</title>
<path fill="none" stroke="midnightblue" d="M323.575,-179.44C299.511,-173.1 272.911,-162.092 255,-143 240.491,-127.535 235.481,-103.085 233.789,-86.1099"/>
<polygon fill="midnightblue" stroke="midnightblue" points="237.255,-85.4889 233.072,-75.7545 230.271,-85.9724 237.255,-85.4889"/>
</g>
<!-- Node10 -->
<g id="node10" class="node"><title>Node10</title>
<g id="a_node10"><a xlink:href="TaskConfig_8h.html" target="_top" xlink:title="QualityControl/TaskConfig.h">
<polygon fill="none" stroke="black" points="510,-118 510,-137 650,-137 650,-118 510,-118"/>
<text text-anchor="middle" x="580" y="-125" font-family="Helvetica,sans-Serif" font-size="10.00">QualityControl/TaskConfig.h</text>
</a>
</g>
</g>
<!-- Node2&#45;&gt;Node10 -->
<g id="edge12" class="edge"><title>Node2&#45;&gt;Node10</title>
<path fill="none" stroke="midnightblue" d="M408.655,-179.475C443.556,-169.092 502.65,-151.512 541.5,-139.954"/>
<polygon fill="midnightblue" stroke="midnightblue" points="542.811,-143.215 551.398,-137.009 540.815,-136.506 542.811,-143.215"/>
</g>
<!-- Node12 -->
<g id="node12" class="node"><title>Node12</title>
<polygon fill="none" stroke="#bfbfbf" points="706,-118 706,-137 758,-137 758,-118 706,-118"/>
<text text-anchor="middle" x="732" y="-125" font-family="Helvetica,sans-Serif" font-size="10.00">memory</text>
</g>
<!-- Node2&#45;&gt;Node12 -->
<g id="edge16" class="edge"><title>Node2&#45;&gt;Node12</title>
<path fill="none" stroke="midnightblue" d="M436.744,-179.463C493.19,-170.826 582.222,-156.812 659,-143 671,-140.841 684.071,-138.304 695.794,-135.96"/>
<polygon fill="midnightblue" stroke="midnightblue" points="696.577,-139.373 705.688,-133.965 695.193,-132.511 696.577,-139.373"/>
</g>
<!-- Node3&#45;&gt;Node4 -->
<g id="edge3" class="edge"><title>Node3&#45;&gt;Node4</title>
<path fill="none" stroke="midnightblue" d="M347.902,-117.689C361.209,-103.262 389.447,-74.3683 418,-56 441.282,-41.0228 470.391,-28.9145 491.887,-21.0463"/>
<polygon fill="midnightblue" stroke="midnightblue" points="493.228,-24.2844 501.474,-17.6326 490.879,-17.69 493.228,-24.2844"/>
</g>
<!-- Node5 -->
<g id="node5" class="node"><title>Node5</title>
<polygon fill="none" stroke="#bfbfbf" points="427.5,-56.5 427.5,-75.5 462.5,-75.5 462.5,-56.5 427.5,-56.5"/>
<text text-anchor="middle" x="445" y="-63.5" font-family="Helvetica,sans-Serif" font-size="10.00">map</text>
</g>
<!-- Node3&#45;&gt;Node5 -->
<g id="edge4" class="edge"><title>Node3&#45;&gt;Node5</title>
<path fill="none" stroke="midnightblue" d="M355.044,-117.975C372.275,-108.211 400.74,-92.0807 421.034,-80.5808"/>
<polygon fill="midnightblue" stroke="midnightblue" points="423.009,-83.4843 429.984,-75.5091 419.558,-77.3942 423.009,-83.4843"/>
</g>
<!-- Node6 -->
<g id="node6" class="node"><title>Node6</title>
<polygon fill="none" stroke="#bfbfbf" points="161,-0.5 161,-19.5 217,-19.5 217,-0.5 161,-0.5"/>
<text text-anchor="middle" x="189" y="-7.5" font-family="Helvetica,sans-Serif" font-size="10.00">Rtypes.h</text>
</g>
<!-- Node3&#45;&gt;Node6 -->
<g id="edge5" class="edge"><title>Node3&#45;&gt;Node6</title>
<path fill="none" stroke="midnightblue" d="M283.796,-117.949C237.678,-109.648 177.677,-95.4498 163,-76 151.966,-61.3776 162.937,-41.4426 173.826,-27.5189"/>
<polygon fill="midnightblue" stroke="midnightblue" points="176.626,-29.628 180.399,-19.7276 171.275,-25.1145 176.626,-29.628"/>
</g>
<!-- Node7 -->
<g id="node7" class="node"><title>Node7</title>
<polygon fill="none" stroke="#bfbfbf" points="311.5,-56.5 311.5,-75.5 370.5,-75.5 370.5,-56.5 311.5,-56.5"/>
<text text-anchor="middle" x="341" y="-63.5" font-family="Helvetica,sans-Serif" font-size="10.00">TObject.h</text>
</g>
<!-- Node3&#45;&gt;Node7 -->
<g id="edge6" class="edge"><title>Node3&#45;&gt;Node7</title>
<path fill="none" stroke="midnightblue" d="M340.143,-117.975C340.284,-109.58 340.505,-96.4806 340.686,-85.6631"/>
<polygon fill="midnightblue" stroke="midnightblue" points="344.188,-85.5665 340.857,-75.5091 337.189,-85.4488 344.188,-85.5665"/>
</g>
<!-- Node3&#45;&gt;Node8 -->
<g id="edge7" class="edge"><title>Node3&#45;&gt;Node8</title>
<path fill="none" stroke="midnightblue" d="M299.596,-117.975C249.129,-107.327 162.786,-89.1092 108.146,-77.5806"/>
<polygon fill="midnightblue" stroke="midnightblue" points="108.836,-74.149 98.3288,-75.5091 107.391,-80.9982 108.836,-74.149"/>
</g>
<!-- Node3&#45;&gt;Node9 -->
<g id="edge8" class="edge"><title>Node3&#45;&gt;Node9</title>
<path fill="none" stroke="midnightblue" d="M324.67,-117.975C307.03,-108.166 277.84,-91.9346 257.142,-80.425"/>
<polygon fill="midnightblue" stroke="midnightblue" points="258.743,-77.3102 248.302,-75.5091 255.341,-83.4279 258.743,-77.3102"/>
</g>
<!-- Node9&#45;&gt;Node4 -->
<g id="edge10" class="edge"><title>Node9&#45;&gt;Node4</title>
<path fill="none" stroke="midnightblue" d="M278.793,-56.4435C338.229,-45.3378 440.345,-26.2573 491.263,-16.7433"/>
<polygon fill="midnightblue" stroke="midnightblue" points="492.13,-20.1418 501.317,-14.8646 490.845,-13.2609 492.13,-20.1418"/>
</g>
<!-- Node9&#45;&gt;Node6 -->
<g id="edge9" class="edge"><title>Node9&#45;&gt;Node6</title>
<path fill="none" stroke="midnightblue" d="M225.734,-56.083C219.455,-48.3768 210.212,-37.0333 202.569,-27.6531"/>
<polygon fill="midnightblue" stroke="midnightblue" points="205.161,-25.2926 196.131,-19.7511 199.734,-29.7143 205.161,-25.2926"/>
</g>
<!-- Node10&#45;&gt;Node4 -->
<g id="edge13" class="edge"><title>Node10&#45;&gt;Node4</title>
<path fill="none" stroke="midnightblue" d="M575.641,-117.819C566.193,-99.006 543.667,-54.1475 531.017,-28.9553"/>
<polygon fill="midnightblue" stroke="midnightblue" points="534.025,-27.1479 526.41,-19.782 527.77,-30.2892 534.025,-27.1479"/>
</g>
<!-- Node11 -->
<g id="node11" class="node"><title>Node11</title>
<polygon fill="none" stroke="#bfbfbf" points="609.5,-56.5 609.5,-75.5 692.5,-75.5 692.5,-56.5 609.5,-56.5"/>
<text text-anchor="middle" x="651" y="-63.5" font-family="Helvetica,sans-Serif" font-size="10.00">unordered_map</text>
</g>
<!-- Node10&#45;&gt;Node11 -->
<g id="edge14" class="edge"><title>Node10&#45;&gt;Node11</title>
<path fill="none" stroke="midnightblue" d="M590.173,-117.975C601.35,-108.608 619.517,-93.3839 633.091,-82.0081"/>
<polygon fill="midnightblue" stroke="midnightblue" points="635.43,-84.6148 640.846,-75.5091 630.934,-79.2496 635.43,-84.6148"/>
</g>
<!-- Node14 -->
<g id="node14" class="node"><title>Node14</title>
<polygon fill="none" stroke="#bfbfbf" points="697,-235.5 697,-254.5 827,-254.5 827,-235.5 697,-235.5"/>
<text text-anchor="middle" x="762" y="-242.5" font-family="Helvetica,sans-Serif" font-size="10.00">InfoLogger/InfoLogger.hxx</text>
</g>
<!-- Node13&#45;&gt;Node14 -->
<g id="edge18" class="edge"><title>Node13&#45;&gt;Node14</title>
<path fill="none" stroke="midnightblue" d="M691.496,-291.324C704.6,-282.9 724.712,-269.971 740.107,-260.074"/>
<polygon fill="midnightblue" stroke="midnightblue" points="742.018,-263.006 748.537,-254.655 738.233,-257.118 742.018,-263.006"/>
</g>
<!-- Node15 -->
<g id="node15" class="node"><title>Node15</title>
<g id="a_node15"><a xlink:href="TaskInterface_8h.html" target="_top" xlink:title="QualityControl/TaskInterface.h">
<polygon fill="none" stroke="black" points="529,-235.5 529,-254.5 679,-254.5 679,-235.5 529,-235.5"/>
<text text-anchor="middle" x="604" y="-242.5" font-family="Helvetica,sans-Serif" font-size="10.00">QualityControl/TaskInterface.h</text>
</a>
</g>
</g>
<!-- Node13&#45;&gt;Node15 -->
<g id="edge19" class="edge"><title>Node13&#45;&gt;Node15</title>
<path fill="none" stroke="midnightblue" d="M666.111,-291.324C654.85,-283.107 637.713,-270.602 624.291,-260.807"/>
<polygon fill="midnightblue" stroke="midnightblue" points="626.247,-257.901 616.106,-254.834 622.12,-263.556 626.247,-257.901"/>
</g>
<!-- Node15&#45;&gt;Node2 -->
<g id="edge27" class="edge"><title>Node15&#45;&gt;Node2</title>
<path fill="none" stroke="midnightblue" d="M568.507,-235.444C529.676,-226.083 467.344,-211.056 425.082,-200.868"/>
<polygon fill="midnightblue" stroke="midnightblue" points="425.869,-197.458 415.327,-198.516 424.229,-204.263 425.869,-197.458"/>
</g>
<!-- Node15&#45;&gt;Node4 -->
<g id="edge22" class="edge"><title>Node15&#45;&gt;Node4</title>
<path fill="none" stroke="midnightblue" d="M661.226,-235.471C702.446,-228.032 752.999,-215.791 766,-199 789.674,-168.424 783.246,-147.091 767,-112 729.774,-31.5948 609.9,-15.0057 552.798,-11.7208"/>
<polygon fill="midnightblue" stroke="midnightblue" points="552.733,-8.21393 542.579,-11.238 552.402,-15.2061 552.733,-8.21393"/>
</g>
<!-- Node15&#45;&gt;Node5 -->
<g id="edge20" class="edge"><title>Node15&#45;&gt;Node5</title>
<path fill="none" stroke="midnightblue" d="M594.115,-235.291C575.142,-218.368 532.694,-179.495 501,-143 484.447,-123.94 467.54,-100.302 456.698,-84.4957"/>
<polygon fill="midnightblue" stroke="midnightblue" points="459.296,-82.0908 450.788,-75.7769 453.501,-86.0183 459.296,-82.0908"/>
</g>
<!-- Node15&#45;&gt;Node11 -->
<g id="edge23" class="edge"><title>Node15&#45;&gt;Node11</title>
<path fill="none" stroke="midnightblue" d="M602.483,-235.348C600.641,-222.236 598.912,-196.96 609,-179 622.41,-155.125 646.516,-167.372 659,-143 668.239,-124.963 663.605,-101.392 658.363,-85.3137"/>
<polygon fill="midnightblue" stroke="midnightblue" points="661.513,-83.736 654.8,-75.5392 654.937,-86.1332 661.513,-83.736"/>
</g>
<!-- Node15&#45;&gt;Node12 -->
<g id="edge21" class="edge"><title>Node15&#45;&gt;Node12</title>
<path fill="none" stroke="midnightblue" d="M604.315,-235.358C605.247,-221.802 608.888,-195.396 623,-179 633.405,-166.91 670.292,-151.238 698.299,-140.581"/>
<polygon fill="midnightblue" stroke="midnightblue" points="699.638,-143.817 707.777,-137.035 697.185,-137.261 699.638,-143.817"/>
</g>
<!-- Node16 -->
<g id="node16" class="node"><title>Node16</title>
<polygon fill="none" stroke="#bfbfbf" points="632.5,-179.5 632.5,-198.5 757.5,-198.5 757.5,-179.5 632.5,-179.5"/>
<text text-anchor="middle" x="695" y="-186.5" font-family="Helvetica,sans-Serif" font-size="10.00">Framework/InitContext.h</text>
</g>
<!-- Node15&#45;&gt;Node16 -->
<g id="edge24" class="edge"><title>Node15&#45;&gt;Node16</title>
<path fill="none" stroke="midnightblue" d="M618.621,-235.324C632.949,-226.822 655.013,-213.729 671.749,-203.797"/>
<polygon fill="midnightblue" stroke="midnightblue" points="673.602,-206.768 680.416,-198.655 670.03,-200.748 673.602,-206.768"/>
</g>
<!-- Node17 -->
<g id="node17" class="node"><title>Node17</title>
<polygon fill="none" stroke="#bfbfbf" points="814,-179.5 814,-198.5 974,-198.5 974,-179.5 814,-179.5"/>
<text text-anchor="middle" x="894" y="-186.5" font-family="Helvetica,sans-Serif" font-size="10.00">Framework/ProcessingContext.h</text>
</g>
<!-- Node15&#45;&gt;Node17 -->
<g id="edge25" class="edge"><title>Node15&#45;&gt;Node17</title>
<path fill="none" stroke="midnightblue" d="M649.951,-235.444C701.071,-225.925 783.654,-210.547 838.383,-200.356"/>
<polygon fill="midnightblue" stroke="midnightblue" points="839.073,-203.788 848.264,-198.516 837.792,-196.906 839.073,-203.788"/>
</g>
<!-- Node18 -->
<g id="node18" class="node"><title>Node18</title>
<g id="a_node18"><a xlink:href="Activity_8h.html" target="_top" xlink:title="QualityControl/Activity.h">
<polygon fill="none" stroke="black" points="992.5,-179.5 992.5,-198.5 1115.5,-198.5 1115.5,-179.5 992.5,-179.5"/>
<text text-anchor="middle" x="1054" y="-186.5" font-family="Helvetica,sans-Serif" font-size="10.00">QualityControl/Activity.h</text>
</a>
</g>
</g>
<!-- Node15&#45;&gt;Node18 -->
<g id="edge26" class="edge"><title>Node15&#45;&gt;Node18</title>
<path fill="none" stroke="midnightblue" d="M677.385,-235.461C751.511,-226.796 869.617,-212.882 982.248,-199.084"/>
<polygon fill="midnightblue" stroke="midnightblue" points="982.931,-202.526 992.43,-197.835 982.078,-195.578 982.931,-202.526"/>
</g>
<!-- Node19&#45;&gt;Node4 -->
<g id="edge32" class="edge"><title>Node19&#45;&gt;Node4</title>
<path fill="none" stroke="midnightblue" d="M1177.69,-179.448C1141,-171.165 1084.88,-157.726 1037,-143 929.752,-110.013 908.545,-84.4281 800,-56 711.688,-32.871 604.31,-19.5421 552.658,-14.0216"/>
<polygon fill="midnightblue" stroke="midnightblue" points="552.818,-10.5194 542.509,-12.9614 552.091,-17.4815 552.818,-10.5194"/>
</g>
<!-- Node19&#45;&gt;Node12 -->
<g id="edge31" class="edge"><title>Node19&#45;&gt;Node12</title>
<path fill="none" stroke="midnightblue" d="M1147.51,-179.475C1042.86,-166.636 848.494,-142.791 768.174,-132.938"/>
<polygon fill="midnightblue" stroke="midnightblue" points="768.415,-129.441 758.064,-131.697 767.563,-136.389 768.415,-129.441"/>
</g>
<!-- Node20 -->
<g id="node20" class="node"><title>Node20</title>
<polygon fill="none" stroke="#bfbfbf" points="1158,-118 1158,-137 1204,-137 1204,-118 1158,-118"/>
<text text-anchor="middle" x="1181" y="-125" font-family="Helvetica,sans-Serif" font-size="10.00">atomic</text>
</g>
<!-- Node19&#45;&gt;Node20 -->
<g id="edge29" class="edge"><title>Node19&#45;&gt;Node20</title>
<path fill="none" stroke="midnightblue" d="M1211.84,-179.475C1206.55,-170.727 1198.16,-156.869 1191.47,-145.809"/>
<polygon fill="midnightblue" stroke="midnightblue" points="1194.32,-143.753 1186.15,-137.009 1188.33,-147.377 1194.32,-143.753"/>
</g>
<!-- Node21 -->
<g id="node21" class="node"><title>Node21</title>
<polygon fill="none" stroke="#bfbfbf" points="1222.5,-118 1222.5,-137 1281.5,-137 1281.5,-118 1222.5,-118"/>
<text text-anchor="middle" x="1252" y="-125" font-family="Helvetica,sans-Serif" font-size="10.00">curl/curl.h</text>
</g>
<!-- Node19&#45;&gt;Node21 -->
<g id="edge30" class="edge"><title>Node19&#45;&gt;Node21</title>
<path fill="none" stroke="midnightblue" d="M1222.01,-179.475C1227.16,-170.727 1235.31,-156.869 1241.82,-145.809"/>
<polygon fill="midnightblue" stroke="midnightblue" points="1244.94,-147.403 1246.99,-137.009 1238.91,-143.854 1244.94,-147.403"/>
</g>
<!-- Node22 -->
<g id="node22" class="node"><title>Node22</title>
<polygon fill="none" stroke="#bfbfbf" points="1300,-118 1300,-137 1344,-137 1344,-118 1300,-118"/>
<text text-anchor="middle" x="1322" y="-125" font-family="Helvetica,sans-Serif" font-size="10.00">thread</text>
</g>
<!-- Node19&#45;&gt;Node22 -->
<g id="edge33" class="edge"><title>Node19&#45;&gt;Node22</title>
<path fill="none" stroke="midnightblue" d="M1232.04,-179.475C1249.28,-169.711 1277.74,-153.581 1298.03,-142.081"/>
<polygon fill="midnightblue" stroke="midnightblue" points="1300.01,-144.984 1306.98,-137.009 1296.56,-138.894 1300.01,-144.984"/>
</g>
<!-- Node23 -->
<g id="node23" class="node"><title>Node23</title>
<polygon fill="none" stroke="#bfbfbf" points="1046,-112.5 1046,-142.5 1140,-142.5 1140,-112.5 1046,-112.5"/>
<text text-anchor="start" x="1054" y="-130.5" font-family="Helvetica,sans-Serif" font-size="10.00">boost/asio/ip/host</text>
<text text-anchor="middle" x="1093" y="-119.5" font-family="Helvetica,sans-Serif" font-size="10.00">_name.hpp</text>
</g>
<!-- Node19&#45;&gt;Node23 -->
<g id="edge34" class="edge"><title>Node19&#45;&gt;Node23</title>
<path fill="none" stroke="midnightblue" d="M1199.23,-179.475C1181.58,-171.002 1153.93,-157.737 1131.27,-146.863"/>
<polygon fill="midnightblue" stroke="midnightblue" points="1132.75,-143.694 1122.22,-142.523 1129.73,-150.005 1132.75,-143.694"/>
</g>
</g>
</svg>
