<?xml version="1.0" encoding="UTF-8" standalone="no"?>
<!DOCTYPE svg PUBLIC "-//W3C//DTD SVG 1.1//EN"
 "http://www.w3.org/Graphics/SVG/1.1/DTD/svg11.dtd">
<!-- Generated by graphviz version 2.38.0 (20140413.2041)
 -->
<!-- Title: Framework/include/QualityControl/ObjectsManager.h Pages: 1 -->
<svg width="647pt" height="207pt"
 viewBox="0.00 0.00 646.56 207.00" xmlns="http://www.w3.org/2000/svg" xmlns:xlink="http://www.w3.org/1999/xlink">
<g id="graph0" class="graph" transform="scale(1 1) rotate(0) translate(4 203)">
<title>Framework/include/QualityControl/ObjectsManager.h</title>
<!-- Node1 -->
<g id="node1" class="node"><title>Node1</title>
<polygon fill="#bfbfbf" stroke="black" points="190.5,-168.5 190.5,-198.5 323.5,-198.5 323.5,-168.5 190.5,-168.5"/>
<text text-anchor="start" x="198.5" y="-186.5" font-family="Helvetica,sans-Serif" font-size="10.00">Framework/include/Quality</text>
<text text-anchor="middle" x="257" y="-175.5" font-family="Helvetica,sans-Serif" font-size="10.00">Control/ObjectsManager.h</text>
</g>
<!-- Node2 -->
<g id="node2" class="node"><title>Node2</title>
<g id="a_node2"><a xlink:href="MonitorObject_8h.html" target="_top" xlink:title="QualityControl/MonitorObject.h">
<polygon fill="none" stroke="black" points="300.5,-112.5 300.5,-131.5 451.5,-131.5 451.5,-112.5 300.5,-112.5"/>
<text text-anchor="middle" x="376" y="-119.5" font-family="Helvetica,sans-Serif" font-size="10.00">QualityControl/MonitorObject.h</text>
</a>
</g>
</g>
<!-- Node1&#45;&gt;Node2 -->
<g id="edge1" class="edge"><title>Node1&#45;&gt;Node2</title>
<path fill="none" stroke="midnightblue" d="M285.201,-168.399C304.722,-158.639 330.525,-145.737 349.635,-136.183"/>
<polygon fill="midnightblue" stroke="midnightblue" points="351.305,-139.26 358.684,-131.658 348.175,-132.999 351.305,-139.26"/>
</g>
<!-- Node3 -->
<g id="node3" class="node"><title>Node3</title>
<polygon fill="none" stroke="#bfbfbf" points="191.5,-0.5 191.5,-19.5 232.5,-19.5 232.5,-0.5 191.5,-0.5"/>
<text text-anchor="middle" x="212" y="-7.5" font-family="Helvetica,sans-Serif" font-size="10.00">string</text>
</g>
<!-- Node1&#45;&gt;Node3 -->
<g id="edge14" class="edge"><title>Node1&#45;&gt;Node3</title>
<path fill="none" stroke="midnightblue" d="M243.745,-168.402C226.735,-149.242 198.099,-113.095 187,-76 182.036,-59.4089 190.453,-41.0352 198.831,-28.0676"/>
<polygon fill="midnightblue" stroke="midnightblue" points="201.839,-29.8752 204.734,-19.6834 196.115,-25.8457 201.839,-29.8752"/>
</g>
<!-- Node8 -->
<g id="node8" class="node"><title>Node8</title>
<g id="a_node8"><a xlink:href="Quality_8h.html" target="_top" xlink:title="QualityControl/Quality.h">
<polygon fill="none" stroke="black" points="196.5,-56.5 196.5,-75.5 317.5,-75.5 317.5,-56.5 196.5,-56.5"/>
<text text-anchor="middle" x="257" y="-63.5" font-family="Helvetica,sans-Serif" font-size="10.00">QualityControl/Quality.h</text>
</a>
</g>
</g>
<!-- Node1&#45;&gt;Node8 -->
<g id="edge10" class="edge"><title>Node1&#45;&gt;Node8</title>
<path fill="none" stroke="midnightblue" d="M257,-168.337C257,-147.622 257,-109.016 257,-85.8991"/>
<polygon fill="midnightblue" stroke="midnightblue" points="260.5,-85.6694 257,-75.6695 253.5,-85.6695 260.5,-85.6694"/>
</g>
<!-- Node9 -->
<g id="node9" class="node"><title>Node9</title>
<g id="a_node9"><a xlink:href="TaskConfig_8h.html" target="_top" xlink:title="QualityControl/TaskConfig.h">
<polygon fill="none" stroke="black" points="0,-112.5 0,-131.5 140,-131.5 140,-112.5 0,-112.5"/>
<text text-anchor="middle" x="70" y="-119.5" font-family="Helvetica,sans-Serif" font-size="10.00">QualityControl/TaskConfig.h</text>
</a>
</g>
</g>
<!-- Node1&#45;&gt;Node9 -->
<g id="edge11" class="edge"><title>Node1&#45;&gt;Node9</title>
<path fill="none" stroke="midnightblue" d="M212.684,-168.399C180.371,-158.118 137.102,-144.351 106.714,-134.682"/>
<polygon fill="midnightblue" stroke="midnightblue" points="107.528,-131.268 96.9372,-131.571 105.405,-137.938 107.528,-131.268"/>
</g>
<!-- Node11 -->
<g id="node11" class="node"><title>Node11</title>
<polygon fill="none" stroke="#bfbfbf" points="470,-112.5 470,-131.5 522,-131.5 522,-112.5 470,-112.5"/>
<text text-anchor="middle" x="496" y="-119.5" font-family="Helvetica,sans-Serif" font-size="10.00">memory</text>
</g>
<!-- Node1&#45;&gt;Node11 -->
<g id="edge15" class="edge"><title>Node1&#45;&gt;Node11</title>
<path fill="none" stroke="midnightblue" d="M314.191,-168.489C352.788,-158.999 405.137,-146.064 459.77,-132.296"/>
<polygon fill="midnightblue" stroke="midnightblue" points="460.793,-135.647 469.633,-129.807 459.081,-128.86 460.793,-135.647"/>
</g>
<!-- Node2&#45;&gt;Node3 -->
<g id="edge2" class="edge"><title>Node2&#45;&gt;Node3</title>
<path fill="none" stroke="midnightblue" d="M371.325,-112.207C363.6,-98.4443 346.925,-71.7603 326,-56 300.867,-37.0702 266.732,-24.9946 242.38,-18.1709"/>
<polygon fill="midnightblue" stroke="midnightblue" points="243.162,-14.7571 232.598,-15.5634 241.359,-21.521 243.162,-14.7571"/>
</g>
<!-- Node4 -->
<g id="node4" class="node"><title>Node4</title>
<polygon fill="none" stroke="#bfbfbf" points="374.5,-56.5 374.5,-75.5 409.5,-75.5 409.5,-56.5 374.5,-56.5"/>
<text text-anchor="middle" x="392" y="-63.5" font-family="Helvetica,sans-Serif" font-size="10.00">map</text>
</g>
<!-- Node2&#45;&gt;Node4 -->
<g id="edge3" class="edge"><title>Node2&#45;&gt;Node4</title>
<path fill="none" stroke="midnightblue" d="M378.642,-112.083C380.786,-104.849 383.879,-94.4087 386.549,-85.3968"/>
<polygon fill="midnightblue" stroke="midnightblue" points="389.922,-86.3334 389.407,-75.7511 383.21,-84.3447 389.922,-86.3334"/>
</g>
<!-- Node5 -->
<g id="node5" class="node"><title>Node5</title>
<polygon fill="none" stroke="#bfbfbf" points="425,-0.5 425,-19.5 481,-19.5 481,-0.5 425,-0.5"/>
<text text-anchor="middle" x="453" y="-7.5" font-family="Helvetica,sans-Serif" font-size="10.00">Rtypes.h</text>
</g>
<!-- Node2&#45;&gt;Node5 -->
<g id="edge4" class="edge"><title>Node2&#45;&gt;Node5</title>
<path fill="none" stroke="midnightblue" d="M451.512,-112.553C522.149,-103.874 618.491,-89.7273 630,-76 669.746,-28.5934 554.356,-15.7569 491.214,-12.2849"/>
<polygon fill="midnightblue" stroke="midnightblue" points="491.352,-8.78746 481.191,-11.7877 491.005,-15.7789 491.352,-8.78746"/>
</g>
<!-- Node6 -->
<g id="node6" class="node"><title>Node6</title>
<polygon fill="none" stroke="#bfbfbf" points="427.5,-56.5 427.5,-75.5 486.5,-75.5 486.5,-56.5 427.5,-56.5"/>
<text text-anchor="middle" x="457" y="-63.5" font-family="Helvetica,sans-Serif" font-size="10.00">TObject.h</text>
</g>
<!-- Node2&#45;&gt;Node6 -->
<g id="edge5" class="edge"><title>Node2&#45;&gt;Node6</title>
<path fill="none" stroke="midnightblue" d="M389.014,-112.324C401.532,-103.979 420.682,-91.2122 435.471,-81.3524"/>
<polygon fill="midnightblue" stroke="midnightblue" points="437.639,-84.1137 444.018,-75.6545 433.756,-78.2894 437.639,-84.1137"/>
</g>
<!-- Node7 -->
<g id="node7" class="node"><title>Node7</title>
<polygon fill="none" stroke="#bfbfbf" points="505,-56.5 505,-75.5 621,-75.5 621,-56.5 505,-56.5"/>
<text text-anchor="middle" x="563" y="-63.5" font-family="Helvetica,sans-Serif" font-size="10.00">Common/Exceptions.h</text>
</g>
<!-- Node2&#45;&gt;Node7 -->
<g id="edge6" class="edge"><title>Node2&#45;&gt;Node7</title>
<path fill="none" stroke="midnightblue" d="M405.631,-112.444C437.5,-103.241 488.333,-88.5617 523.564,-78.3879"/>
<polygon fill="midnightblue" stroke="midnightblue" points="524.872,-81.6534 533.508,-75.5164 522.929,-74.9282 524.872,-81.6534"/>
</g>
<!-- Node2&#45;&gt;Node8 -->
<g id="edge7" class="edge"><title>Node2&#45;&gt;Node8</title>
<path fill="none" stroke="midnightblue" d="M357.144,-112.444C337.734,-103.636 307.27,-89.8116 285.035,-79.722"/>
<polygon fill="midnightblue" stroke="midnightblue" points="286.32,-76.4615 275.768,-75.5164 283.428,-82.836 286.32,-76.4615"/>
</g>
<!-- Node8&#45;&gt;Node3 -->
<g id="edge9" class="edge"><title>Node8&#45;&gt;Node3</title>
<path fill="none" stroke="midnightblue" d="M249.569,-56.083C243.147,-48.3768 233.694,-37.0333 225.878,-27.6531"/>
<polygon fill="midnightblue" stroke="midnightblue" points="228.383,-25.1927 219.293,-19.7511 223.006,-29.674 228.383,-25.1927"/>
</g>
<!-- Node8&#45;&gt;Node5 -->
<g id="edge8" class="edge"><title>Node8&#45;&gt;Node5</title>
<path fill="none" stroke="midnightblue" d="M288.057,-56.4435C322.491,-46.9565 378.048,-31.65 415.039,-21.4588"/>
<polygon fill="midnightblue" stroke="midnightblue" points="416.235,-24.7595 424.946,-18.729 414.376,-18.011 416.235,-24.7595"/>
</g>
<!-- Node9&#45;&gt;Node3 -->
<g id="edge12" class="edge"><title>Node9&#45;&gt;Node3</title>
<path fill="none" stroke="midnightblue" d="M62.0307,-112.186C50.9798,-98.8625 33.776,-73.3135 47,-56 63.2338,-34.7459 138.327,-21.1212 181.402,-14.9131"/>
<polygon fill="midnightblue" stroke="midnightblue" points="181.93,-18.3733 191.353,-13.5286 180.966,-11.4401 181.93,-18.3733"/>
</g>
<!-- Node10 -->
<g id="node10" class="node"><title>Node10</title>
<polygon fill="none" stroke="#bfbfbf" points="56.5,-56.5 56.5,-75.5 139.5,-75.5 139.5,-56.5 56.5,-56.5"/>
<text text-anchor="middle" x="98" y="-63.5" font-family="Helvetica,sans-Serif" font-size="10.00">unordered_map</text>
</g>
<!-- Node9&#45;&gt;Node10 -->
<g id="edge13" class="edge"><title>Node9&#45;&gt;Node10</title>
<path fill="none" stroke="midnightblue" d="M74.6236,-112.083C78.4563,-104.691 84.0242,-93.9533 88.7646,-84.8111"/>
<polygon fill="midnightblue" stroke="midnightblue" points="91.9663,-86.2398 93.4624,-75.7511 85.752,-83.0175 91.9663,-86.2398"/>
</g>
</g>
</svg>
