<?xml version="1.0" encoding="UTF-8" standalone="no"?>
<!DOCTYPE svg PUBLIC "-//W3C//DTD SVG 1.1//EN"
 "http://www.w3.org/Graphics/SVG/1.1/DTD/svg11.dtd">
<!-- Generated by graphviz version 2.38.0 (20140413.2041)
 -->
<!-- Title: Framework/include/QualityControl/ObjectsManager.h Pages: 1 -->
<!--zoomable 296 -->
<svg id="main" version="1.1" xmlns="http://www.w3.org/2000/svg" xmlns:xlink="http://www.w3.org/1999/xlink" xml:space="preserve" onload="init(evt)">
<style type="text/css"><![CDATA[
.edge:hover path { stroke: red; }
.edge:hover polygon { stroke: red; fill: red; }
]]></style>
<script type="text/javascript"><![CDATA[
var edges = document.getElementsByTagName('g');
if (edges && edges.length) {
  for (var i=0;i<edges.length;i++) {
    if (edges[i].id.substr(0,4)=='edge') {
      edges[i].setAttribute('class','edge');
    }
  }
}
]]></script>
        <defs>
                <circle id="rim" cx="0" cy="0" r="7"/>
                <circle id="rim2" cx="0" cy="0" r="3.5"/>
                <g id="zoomPlus">
                        <use xlink:href="#rim" fill="#404040">
                                <set attributeName="fill" to="#808080" begin="zoomplus.mouseover" end="zoomplus.mouseout"/>
                        </use>
                        <path d="M-4,0h8M0,-4v8" fill="none" stroke="white" stroke-width="1.5" pointer-events="none"/>
                </g>
                <g id="zoomMin">
                        <use xlink:href="#rim" fill="#404040">
                                <set attributeName="fill" to="#808080" begin="zoomminus.mouseover" end="zoomminus.mouseout"/>
                        </use>
                        <path d="M-4,0h8" fill="none" stroke="white" stroke-width="1.5" pointer-events="none"/>
                </g>
                <g id="dirArrow">
                        <path fill="none" stroke="white" stroke-width="1.5" d="M0,-3.0v7 M-2.5,-0.5L0,-3.0L2.5,-0.5"/>
                </g>
               <g id="resetDef">
                       <use xlink:href="#rim2" fill="#404040">
                               <set attributeName="fill" to="#808080" begin="reset.mouseover" end="reset.mouseout"/>
                       </use>
               </g>
        </defs>

<script type="text/javascript">
var viewWidth = 3732;
var viewHeight = 296;
var sectionId = 'dynsection-1';
</script>
<script xlink:href="svgpan.js"/>
<svg id="graph" class="graph">
<g id="viewport">
<title>Framework/include/QualityControl/ObjectsManager.h</title>
<!-- Node1 -->
<g id="node1" class="node"><title>Node1</title>
<polygon fill="#bfbfbf" stroke="black" points="2820.93,-257.5 2820.93,-287.5 2953.93,-287.5 2953.93,-257.5 2820.93,-257.5"/>
<text text-anchor="start" x="2828.93" y="-275.5" font-family="Helvetica,sans-Serif" font-size="10.00">Framework/include/Quality</text>
<text text-anchor="middle" x="2887.43" y="-264.5" font-family="Helvetica,sans-Serif" font-size="10.00">Control/ObjectsManager.h</text>
</g>
<!-- Node2 -->
<g id="node2" class="node"><title>Node2</title>
<g id="a_node2"><a xlink:href="TaskInterface_8h.html" target="_top" xlink:title="Framework/include/Quality\lControl/TaskInterface.h">
<polygon fill="none" stroke="black" points="2725.93,-190.5 2725.93,-220.5 2858.93,-220.5 2858.93,-190.5 2725.93,-190.5"/>
<text text-anchor="start" x="2733.93" y="-208.5" font-family="Helvetica,sans-Serif" font-size="10.00">Framework/include/Quality</text>
<text text-anchor="middle" x="2792.43" y="-197.5" font-family="Helvetica,sans-Serif" font-size="10.00">Control/TaskInterface.h</text>
</a>
</g>
</g>
<!-- Node1&#45;&gt;Node2 -->
<g id="edge1" class="edge"><title>Node1&#45;&gt;Node2</title>
<path fill="none" stroke="midnightblue" d="M2858.54,-251.734C2843.84,-241.676 2826.31,-229.685 2813,-220.577"/>
<polygon fill="midnightblue" stroke="midnightblue" points="2856.58,-254.638 2866.81,-257.396 2860.54,-248.861 2856.58,-254.638"/>
</g>
<!-- Node15 -->
<g id="node15" class="node"><title>Node15</title>
<g id="a_node15"><a xlink:href="ObjectsManager_8cxx.html" target="_top" xlink:title="Framework/src/ObjectsManager.cxx">
<polygon fill="none" stroke="black" points="706.927,-62 706.927,-81 881.927,-81 881.927,-62 706.927,-62"/>
<text text-anchor="middle" x="794.427" y="-69" font-family="Helvetica,sans-Serif" font-size="10.00">Framework/src/ObjectsManager.cxx</text>
</a>
</g>
</g>
<!-- Node1&#45;&gt;Node15 -->
<g id="edge51" class="edge"><title>Node1&#45;&gt;Node15</title>
<path fill="none" stroke="midnightblue" d="M2810.58,-266.008C2544.29,-246.635 1636.53,-177.735 890.427,-87 876.371,-85.2907 861.204,-83.142 847.167,-81.0262"/>
<polygon fill="midnightblue" stroke="midnightblue" points="2810.68,-269.525 2820.91,-266.758 2811.19,-262.543 2810.68,-269.525"/>
</g>
<!-- Node39 -->
<g id="node39" class="node"><title>Node39</title>
<polygon fill="none" stroke="#bfbfbf" points="2967.43,-56.5 2967.43,-86.5 3081.43,-86.5 3081.43,-56.5 2967.43,-56.5"/>
<text text-anchor="start" x="2975.43" y="-74.5" font-family="Helvetica,sans-Serif" font-size="10.00">Modules/Example/test</text>
<text text-anchor="middle" x="3024.43" y="-63.5" font-family="Helvetica,sans-Serif" font-size="10.00">/testFactory.cxx</text>
</g>
<!-- Node1&#45;&gt;Node39 -->
<g id="edge54" class="edge"><title>Node1&#45;&gt;Node39</title>
<path fill="none" stroke="midnightblue" d="M2883.66,-246.899C2880.19,-215 2879.1,-159.179 2906.43,-123 2921.13,-103.529 2944.85,-91.4752 2967.17,-84.0562"/>
<polygon fill="midnightblue" stroke="midnightblue" points="2880.23,-247.627 2884.95,-257.113 2887.17,-246.754 2880.23,-247.627"/>
</g>
<!-- Node44 -->
<g id="node44" class="node"><title>Node44</title>
<polygon fill="none" stroke="#bfbfbf" points="2915.43,-190.5 2915.43,-220.5 3053.43,-220.5 3053.43,-190.5 2915.43,-190.5"/>
<text text-anchor="start" x="2923.43" y="-208.5" font-family="Helvetica,sans-Serif" font-size="10.00">Framework/test/testObjects</text>
<text text-anchor="middle" x="2984.43" y="-197.5" font-family="Helvetica,sans-Serif" font-size="10.00">Manager.cxx</text>
</g>
<!-- Node1&#45;&gt;Node44 -->
<g id="edge52" class="edge"><title>Node1&#45;&gt;Node44</title>
<path fill="none" stroke="midnightblue" d="M2916.92,-251.734C2931.93,-241.676 2949.83,-229.685 2963.42,-220.577"/>
<polygon fill="midnightblue" stroke="midnightblue" points="2914.83,-248.922 2908.47,-257.396 2918.73,-254.737 2914.83,-248.922"/>
</g>
<!-- Node45 -->
<g id="node45" class="node"><title>Node45</title>
<g id="a_node45"><a xlink:href="testPublisher_8cxx.html" target="_top" xlink:title="Framework/test/testPublisher.cxx">
<polygon fill="none" stroke="black" points="3071.43,-196 3071.43,-215 3235.43,-215 3235.43,-196 3071.43,-196"/>
<text text-anchor="middle" x="3153.43" y="-203" font-family="Helvetica,sans-Serif" font-size="10.00">Framework/test/testPublisher.cxx</text>
</a>
</g>
</g>
<!-- Node1&#45;&gt;Node45 -->
<g id="edge53" class="edge"><title>Node1&#45;&gt;Node45</title>
<path fill="none" stroke="midnightblue" d="M2954.67,-255.069C3006.83,-242.323 3077.03,-225.169 3118.52,-215.029"/>
<polygon fill="midnightblue" stroke="midnightblue" points="2953.7,-251.702 2944.82,-257.476 2955.36,-258.502 2953.7,-251.702"/>
</g>
<!-- Node3 -->
<g id="node3" class="node"><title>Node3</title>
<g id="a_node3"><a xlink:href="QcInfoLogger_8h.html" target="_top" xlink:title="Framework/include/Quality\lControl/QcInfoLogger.h">
<polygon fill="none" stroke="black" points="1836.93,-123.5 1836.93,-153.5 1969.93,-153.5 1969.93,-123.5 1836.93,-123.5"/>
<text text-anchor="start" x="1844.93" y="-141.5" font-family="Helvetica,sans-Serif" font-size="10.00">Framework/include/Quality</text>
<text text-anchor="middle" x="1903.43" y="-130.5" font-family="Helvetica,sans-Serif" font-size="10.00">Control/QcInfoLogger.h</text>
</a>
</g>
</g>
<!-- Node2&#45;&gt;Node3 -->
<g id="edge2" class="edge"><title>Node2&#45;&gt;Node3</title>
<path fill="none" stroke="midnightblue" d="M2715.39,-198.867C2543.62,-186.308 2131.72,-156.192 1970.11,-144.376"/>
<polygon fill="midnightblue" stroke="midnightblue" points="2715.38,-202.376 2725.61,-199.614 2715.89,-195.394 2715.38,-202.376"/>
</g>
<!-- Node26 -->
<g id="node26" class="node"><title>Node26</title>
<g id="a_node26"><a xlink:href="TaskRunner_8h.html" target="_top" xlink:title="Framework/include/Quality\lControl/TaskRunner.h">
<polygon fill="none" stroke="black" points="270.927,-123.5 270.927,-153.5 403.927,-153.5 403.927,-123.5 270.927,-123.5"/>
<text text-anchor="start" x="278.927" y="-141.5" font-family="Helvetica,sans-Serif" font-size="10.00">Framework/include/Quality</text>
<text text-anchor="middle" x="337.427" y="-130.5" font-family="Helvetica,sans-Serif" font-size="10.00">Control/TaskRunner.h</text>
</a>
</g>
</g>
<!-- Node2&#45;&gt;Node26 -->
<g id="edge25" class="edge"><title>Node2&#45;&gt;Node26</title>
<path fill="none" stroke="midnightblue" d="M2715.74,-202.47C2345.97,-192.679 750.67,-150.441 404.052,-141.264"/>
<polygon fill="midnightblue" stroke="midnightblue" points="2715.72,-205.97 2725.81,-202.736 2715.9,-198.973 2715.72,-205.97"/>
</g>
<!-- Node30 -->
<g id="node30" class="node"><title>Node30</title>
<g id="a_node30"><a xlink:href="TaskInterface_8cxx.html" target="_top" xlink:title="Framework/src/TaskInterface.cxx">
<polygon fill="none" stroke="black" points="3191.43,-129 3191.43,-148 3355.43,-148 3355.43,-129 3191.43,-129"/>
<text text-anchor="middle" x="3273.43" y="-136" font-family="Helvetica,sans-Serif" font-size="10.00">Framework/src/TaskInterface.cxx</text>
</a>
</g>
</g>
<!-- Node2&#45;&gt;Node30 -->
<g id="edge31" class="edge"><title>Node2&#45;&gt;Node30</title>
<path fill="none" stroke="midnightblue" d="M2869.2,-194.681C2973.97,-181.264 3152.22,-158.361 3182.43,-154 3195.09,-152.171 3208.73,-150.069 3221.49,-148.044"/>
<polygon fill="midnightblue" stroke="midnightblue" points="2868.46,-191.247 2858.99,-195.989 2869.35,-198.191 2868.46,-191.247"/>
</g>
<!-- Node31 -->
<g id="node31" class="node"><title>Node31</title>
<g id="a_node31"><a xlink:href="testTaskInterface_8cxx.html" target="_top" xlink:title="Framework/test/testTaskInterface.cxx">
<polygon fill="none" stroke="black" points="3373.93,-129 3373.93,-148 3556.93,-148 3556.93,-129 3373.93,-129"/>
<text text-anchor="middle" x="3465.43" y="-136" font-family="Helvetica,sans-Serif" font-size="10.00">Framework/test/testTaskInterface.cxx</text>
</a>
</g>
</g>
<!-- Node2&#45;&gt;Node31 -->
<g id="edge32" class="edge"><title>Node2&#45;&gt;Node31</title>
<path fill="none" stroke="midnightblue" d="M2868.93,-194.256C2881.45,-192.727 2894.29,-191.248 2906.43,-190 3109.54,-169.112 3161.49,-176.52 3364.43,-154 3379.48,-152.33 3395.74,-150.157 3410.73,-148.005"/>
<polygon fill="midnightblue" stroke="midnightblue" points="2868.47,-190.786 2858.97,-195.489 2869.33,-197.733 2868.47,-190.786"/>
</g>
<!-- Node32 -->
<g id="node32" class="node"><title>Node32</title>
<g id="a_node32"><a xlink:href="DaqTask_8h.html" target="_top" xlink:title="Modules/Daq/include\l/Daq/DaqTask.h">
<polygon fill="none" stroke="black" points="2268.43,-123.5 2268.43,-153.5 2376.43,-153.5 2376.43,-123.5 2268.43,-123.5"/>
<text text-anchor="start" x="2276.43" y="-141.5" font-family="Helvetica,sans-Serif" font-size="10.00">Modules/Daq/include</text>
<text text-anchor="middle" x="2322.43" y="-130.5" font-family="Helvetica,sans-Serif" font-size="10.00">/Daq/DaqTask.h</text>
</a>
</g>
</g>
<!-- Node2&#45;&gt;Node32 -->
<g id="edge33" class="edge"><title>Node2&#45;&gt;Node32</title>
<path fill="none" stroke="midnightblue" d="M2715.92,-194.527C2640.29,-184.584 2521.31,-168.715 2418.43,-154 2404.83,-152.055 2390.16,-149.879 2376.48,-147.816"/>
<polygon fill="midnightblue" stroke="midnightblue" points="2715.47,-197.997 2725.84,-195.829 2716.38,-191.057 2715.47,-197.997"/>
</g>
<!-- Node34 -->
<g id="node34" class="node"><title>Node34</title>
<g id="a_node34"><a xlink:href="DigitsQcTask_8h.html" target="_top" xlink:title="Modules/EMCAL/include\l/EMCAL/DigitsQcTask.h">
<polygon fill="none" stroke="black" points="2427.93,-123.5 2427.93,-153.5 2552.93,-153.5 2552.93,-123.5 2427.93,-123.5"/>
<text text-anchor="start" x="2435.93" y="-141.5" font-family="Helvetica,sans-Serif" font-size="10.00">Modules/EMCAL/include</text>
<text text-anchor="middle" x="2490.43" y="-130.5" font-family="Helvetica,sans-Serif" font-size="10.00">/EMCAL/DigitsQcTask.h</text>
</a>
</g>
</g>
<!-- Node2&#45;&gt;Node34 -->
<g id="edge36" class="edge"><title>Node2&#45;&gt;Node34</title>
<path fill="none" stroke="midnightblue" d="M2717.37,-188.346C2666.81,-177.464 2600.9,-163.277 2553.14,-152.998"/>
<polygon fill="midnightblue" stroke="midnightblue" points="2716.76,-191.793 2727.27,-190.476 2718.23,-184.95 2716.76,-191.793"/>
</g>
<!-- Node35 -->
<g id="node35" class="node"><title>Node35</title>
<g id="a_node35"><a xlink:href="BenchmarkTask_8h.html" target="_top" xlink:title="Modules/Example/include\l/Example/BenchmarkTask.h">
<polygon fill="none" stroke="black" points="2571.43,-123.5 2571.43,-153.5 2711.43,-153.5 2711.43,-123.5 2571.43,-123.5"/>
<text text-anchor="start" x="2579.43" y="-141.5" font-family="Helvetica,sans-Serif" font-size="10.00">Modules/Example/include</text>
<text text-anchor="middle" x="2641.43" y="-130.5" font-family="Helvetica,sans-Serif" font-size="10.00">/Example/BenchmarkTask.h</text>
</a>
</g>
</g>
<!-- Node2&#45;&gt;Node35 -->
<g id="edge38" class="edge"><title>Node2&#45;&gt;Node35</title>
<path fill="none" stroke="midnightblue" d="M2750.39,-186.407C2726.29,-176.029 2696.47,-163.195 2674.13,-153.577"/>
<polygon fill="midnightblue" stroke="midnightblue" points="2749.09,-189.657 2759.66,-190.396 2751.86,-183.227 2749.09,-189.657"/>
</g>
<!-- Node36 -->
<g id="node36" class="node"><title>Node36</title>
<g id="a_node36"><a xlink:href="ExampleCondition_8h.html" target="_top" xlink:title="Modules/Example/include\l/Example/ExampleCondition.h">
<polygon fill="none" stroke="black" points="3574.93,-123.5 3574.93,-153.5 3723.93,-153.5 3723.93,-123.5 3574.93,-123.5"/>
<text text-anchor="start" x="3582.93" y="-141.5" font-family="Helvetica,sans-Serif" font-size="10.00">Modules/Example/include</text>
<text text-anchor="middle" x="3649.43" y="-130.5" font-family="Helvetica,sans-Serif" font-size="10.00">/Example/ExampleCondition.h</text>
</a>
</g>
</g>
<!-- Node2&#45;&gt;Node36 -->
<g id="edge40" class="edge"><title>Node2&#45;&gt;Node36</title>
<path fill="none" stroke="midnightblue" d="M2868.9,-194.004C2881.43,-192.507 2894.28,-191.103 2906.43,-190 3198.55,-163.477 3273.96,-187.004 3565.43,-154 3568.51,-153.65 3571.66,-153.26 3574.84,-152.839"/>
<polygon fill="midnightblue" stroke="midnightblue" points="2868.45,-190.533 2858.95,-195.221 2869.3,-197.482 2868.45,-190.533"/>
</g>
<!-- Node38 -->
<g id="node38" class="node"><title>Node38</title>
<g id="a_node38"><a xlink:href="ExampleTask_8h.html" target="_top" xlink:title="Modules/Example/include\l/Example/ExampleTask.h">
<polygon fill="none" stroke="black" points="2729.93,-123.5 2729.93,-153.5 2858.93,-153.5 2858.93,-123.5 2729.93,-123.5"/>
<text text-anchor="start" x="2737.93" y="-141.5" font-family="Helvetica,sans-Serif" font-size="10.00">Modules/Example/include</text>
<text text-anchor="middle" x="2794.43" y="-130.5" font-family="Helvetica,sans-Serif" font-size="10.00">/Example/ExampleTask.h</text>
</a>
</g>
</g>
<!-- Node2&#45;&gt;Node38 -->
<g id="edge42" class="edge"><title>Node2&#45;&gt;Node38</title>
<path fill="none" stroke="midnightblue" d="M2793.18,-180.108C2793.45,-171.154 2793.76,-161.323 2793.99,-153.577"/>
<polygon fill="midnightblue" stroke="midnightblue" points="2789.67,-180.293 2792.86,-190.396 2796.67,-180.508 2789.67,-180.293"/>
</g>
<!-- Node41 -->
<g id="node41" class="node"><title>Node41</title>
<g id="a_node41"><a xlink:href="SkeletonTask_8h.html" target="_top" xlink:title="Modules/Skeleton/include\l/Skeleton/SkeletonTask.h">
<polygon fill="none" stroke="black" points="2915.93,-123.5 2915.93,-153.5 3044.93,-153.5 3044.93,-123.5 2915.93,-123.5"/>
<text text-anchor="start" x="2923.93" y="-141.5" font-family="Helvetica,sans-Serif" font-size="10.00">Modules/Skeleton/include</text>
<text text-anchor="middle" x="2980.43" y="-130.5" font-family="Helvetica,sans-Serif" font-size="10.00">/Skeleton/SkeletonTask.h</text>
</a>
</g>
</g>
<!-- Node2&#45;&gt;Node41 -->
<g id="edge46" class="edge"><title>Node2&#45;&gt;Node41</title>
<path fill="none" stroke="midnightblue" d="M2842.78,-187.092C2873.13,-176.599 2911.28,-163.408 2939.71,-153.577"/>
<polygon fill="midnightblue" stroke="midnightblue" points="2841.53,-183.82 2833.22,-190.396 2843.81,-190.436 2841.53,-183.82"/>
</g>
<!-- Node43 -->
<g id="node43" class="node"><title>Node43</title>
<g id="a_node43"><a xlink:href="TOFTask_8h.html" target="_top" xlink:title="Modules/TOF/include\l/TOF/TOFTask.h">
<polygon fill="none" stroke="black" points="3063.43,-123.5 3063.43,-153.5 3173.43,-153.5 3173.43,-123.5 3063.43,-123.5"/>
<text text-anchor="start" x="3071.43" y="-141.5" font-family="Helvetica,sans-Serif" font-size="10.00">Modules/TOF/include</text>
<text text-anchor="middle" x="3118.43" y="-130.5" font-family="Helvetica,sans-Serif" font-size="10.00">/TOF/TOFTask.h</text>
</a>
</g>
</g>
<!-- Node2&#45;&gt;Node43 -->
<g id="edge49" class="edge"><title>Node2&#45;&gt;Node43</title>
<path fill="none" stroke="midnightblue" d="M2868.88,-190.299C2920.96,-180.478 2991.45,-166.905 3053.43,-154 3056.6,-153.34 3059.85,-152.651 3063.13,-151.947"/>
<polygon fill="midnightblue" stroke="midnightblue" points="2868.22,-186.861 2859.04,-192.15 2869.52,-193.74 2868.22,-186.861"/>
</g>
<!-- Node4 -->
<g id="node4" class="node"><title>Node4</title>
<g id="a_node4"><a xlink:href="Checker_8h.html" target="_top" xlink:title="Framework/include/Quality\lControl/Checker.h">
<polygon fill="none" stroke="black" points="899.927,-56.5 899.927,-86.5 1032.93,-86.5 1032.93,-56.5 899.927,-56.5"/>
<text text-anchor="start" x="907.927" y="-74.5" font-family="Helvetica,sans-Serif" font-size="10.00">Framework/include/Quality</text>
<text text-anchor="middle" x="966.427" y="-63.5" font-family="Helvetica,sans-Serif" font-size="10.00">Control/Checker.h</text>
</a>
</g>
</g>
<!-- Node3&#45;&gt;Node4 -->
<g id="edge3" class="edge"><title>Node3&#45;&gt;Node4</title>
<path fill="none" stroke="midnightblue" d="M1826.82,-136.412C1675.94,-133.52 1329.87,-123.171 1041.43,-87 1038.66,-86.6535 1035.85,-86.2662 1033.01,-85.8473"/>
<polygon fill="midnightblue" stroke="midnightblue" points="1826.85,-139.913 1836.91,-136.6 1826.98,-132.914 1826.85,-139.913"/>
</g>
<!-- Node12 -->
<g id="node12" class="node"><title>Node12</title>
<g id="a_node12"><a xlink:href="DatabaseFactory_8cxx.html" target="_top" xlink:title="Framework/src/DatabaseFactory.cxx">
<polygon fill="none" stroke="black" points="1050.93,-62 1050.93,-81 1229.93,-81 1229.93,-62 1050.93,-62"/>
<text text-anchor="middle" x="1140.43" y="-69" font-family="Helvetica,sans-Serif" font-size="10.00">Framework/src/DatabaseFactory.cxx</text>
</a>
</g>
</g>
<!-- Node3&#45;&gt;Node12 -->
<g id="edge11" class="edge"><title>Node3&#45;&gt;Node12</title>
<path fill="none" stroke="midnightblue" d="M1826.71,-133.402C1702.9,-126.4 1451.49,-110.566 1239.43,-87 1224.58,-85.3501 1208.53,-83.1723 1193.77,-81.0076"/>
<polygon fill="midnightblue" stroke="midnightblue" points="1826.66,-136.905 1836.84,-133.972 1827.05,-129.916 1826.66,-136.905"/>
</g>
<!-- Node13 -->
<g id="node13" class="node"><title>Node13</title>
<g id="a_node13"><a xlink:href="InformationService_8cxx.html" target="_top" xlink:title="Framework/src/Information\lService.cxx">
<polygon fill="none" stroke="black" points="1248.43,-56.5 1248.43,-86.5 1382.43,-86.5 1382.43,-56.5 1248.43,-56.5"/>
<text text-anchor="start" x="1256.43" y="-74.5" font-family="Helvetica,sans-Serif" font-size="10.00">Framework/src/Information</text>
<text text-anchor="middle" x="1315.43" y="-63.5" font-family="Helvetica,sans-Serif" font-size="10.00">Service.cxx</text>
</a>
</g>
</g>
<!-- Node3&#45;&gt;Node13 -->
<g id="edge12" class="edge"><title>Node3&#45;&gt;Node13</title>
<path fill="none" stroke="midnightblue" d="M1826.87,-132.116C1726.55,-124.564 1545.27,-109.216 1391.43,-87 1388.5,-86.5776 1385.52,-86.1208 1382.51,-85.6385"/>
<polygon fill="midnightblue" stroke="midnightblue" points="1826.69,-135.611 1836.92,-132.866 1827.21,-128.631 1826.69,-135.611"/>
</g>
<!-- Node14 -->
<g id="node14" class="node"><title>Node14</title>
<g id="a_node14"><a xlink:href="MySqlDatabase_8cxx.html" target="_top" xlink:title="Framework/src/MySqlDatabase.cxx">
<polygon fill="none" stroke="black" points="1400.93,-62 1400.93,-81 1573.93,-81 1573.93,-62 1400.93,-62"/>
<text text-anchor="middle" x="1487.43" y="-69" font-family="Helvetica,sans-Serif" font-size="10.00">Framework/src/MySqlDatabase.cxx</text>
</a>
</g>
</g>
<!-- Node3&#45;&gt;Node14 -->
<g id="edge13" class="edge"><title>Node3&#45;&gt;Node14</title>
<path fill="none" stroke="midnightblue" d="M1826.51,-125.482C1743.96,-112.584 1614.92,-92.4212 1542.15,-81.0498"/>
<polygon fill="midnightblue" stroke="midnightblue" points="1826.17,-128.971 1836.59,-127.057 1827.25,-122.055 1826.17,-128.971"/>
</g>
<!-- Node3&#45;&gt;Node15 -->
<g id="edge14" class="edge"><title>Node3&#45;&gt;Node15</title>
<path fill="none" stroke="midnightblue" d="M1826.82,-136.297C1657.54,-133.065 1238.98,-121.923 890.427,-87 875.5,-85.5044 859.349,-83.2962 844.629,-81.0516"/>
<polygon fill="midnightblue" stroke="midnightblue" points="1826.82,-139.797 1836.88,-136.485 1826.95,-132.798 1826.82,-139.797"/>
</g>
<!-- Node16 -->
<g id="node16" class="node"><title>Node16</title>
<g id="a_node16"><a xlink:href="RepositoryBenchmark_8cxx.html" target="_top" xlink:title="Framework/src/Repository\lBenchmark.cxx">
<polygon fill="none" stroke="black" points="1592.43,-56.5 1592.43,-86.5 1724.43,-86.5 1724.43,-56.5 1592.43,-56.5"/>
<text text-anchor="start" x="1600.43" y="-74.5" font-family="Helvetica,sans-Serif" font-size="10.00">Framework/src/Repository</text>
<text text-anchor="middle" x="1658.43" y="-63.5" font-family="Helvetica,sans-Serif" font-size="10.00">Benchmark.cxx</text>
</a>
</g>
</g>
<!-- Node3&#45;&gt;Node16 -->
<g id="edge15" class="edge"><title>Node3&#45;&gt;Node16</title>
<path fill="none" stroke="midnightblue" d="M1840.67,-120.85C1800.72,-110.252 1749.56,-96.6775 1711.61,-86.6109"/>
<polygon fill="midnightblue" stroke="midnightblue" points="1840,-124.295 1850.57,-123.476 1841.8,-117.529 1840,-124.295"/>
</g>
<!-- Node17 -->
<g id="node17" class="node"><title>Node17</title>
<g id="a_node17"><a xlink:href="TaskFactory_8cxx.html" target="_top" xlink:title="Framework/src/TaskFactory.cxx">
<polygon fill="none" stroke="black" points="1742.43,-62 1742.43,-81 1900.43,-81 1900.43,-62 1742.43,-62"/>
<text text-anchor="middle" x="1821.43" y="-69" font-family="Helvetica,sans-Serif" font-size="10.00">Framework/src/TaskFactory.cxx</text>
</a>
</g>
</g>
<!-- Node3&#45;&gt;Node17 -->
<g id="edge16" class="edge"><title>Node3&#45;&gt;Node17</title>
<path fill="none" stroke="midnightblue" d="M1877.58,-117.008C1862.35,-104.941 1843.89,-90.3046 1832.4,-81.1945"/>
<polygon fill="midnightblue" stroke="midnightblue" points="1875.62,-119.927 1885.63,-123.396 1879.97,-114.441 1875.62,-119.927"/>
</g>
<!-- Node18 -->
<g id="node18" class="node"><title>Node18</title>
<g id="a_node18"><a xlink:href="TaskRunner_8cxx.html" target="_top" xlink:title="Framework/src/TaskRunner.cxx">
<polygon fill="none" stroke="black" points="531.927,-62 531.927,-81 688.927,-81 688.927,-62 531.927,-62"/>
<text text-anchor="middle" x="610.427" y="-69" font-family="Helvetica,sans-Serif" font-size="10.00">Framework/src/TaskRunner.cxx</text>
</a>
</g>
</g>
<!-- Node3&#45;&gt;Node18 -->
<g id="edge17" class="edge"><title>Node3&#45;&gt;Node18</title>
<path fill="none" stroke="midnightblue" d="M1826.64,-137.562C1635.36,-137.004 1122.38,-131.14 697.427,-87 683.567,-85.5604 668.567,-83.312 654.99,-81.0119"/>
<polygon fill="midnightblue" stroke="midnightblue" points="1826.86,-141.062 1836.87,-137.587 1826.88,-134.062 1826.86,-141.062"/>
</g>
<!-- Node19 -->
<g id="node19" class="node"><title>Node19</title>
<g id="a_node19"><a xlink:href="testQcInfoLogger_8cxx.html" target="_top" xlink:title="Framework/test/testQcInfo\lLogger.cxx">
<polygon fill="none" stroke="black" points="1918.43,-56.5 1918.43,-86.5 2052.43,-86.5 2052.43,-56.5 1918.43,-56.5"/>
<text text-anchor="start" x="1926.43" y="-74.5" font-family="Helvetica,sans-Serif" font-size="10.00">Framework/test/testQcInfo</text>
<text text-anchor="middle" x="1985.43" y="-63.5" font-family="Helvetica,sans-Serif" font-size="10.00">Logger.cxx</text>
</a>
</g>
</g>
<!-- Node3&#45;&gt;Node19 -->
<g id="edge18" class="edge"><title>Node3&#45;&gt;Node19</title>
<path fill="none" stroke="midnightblue" d="M1929.08,-117.168C1941.62,-107.228 1956.39,-95.5144 1967.67,-86.5765"/>
<polygon fill="midnightblue" stroke="midnightblue" points="1926.88,-114.441 1921.22,-123.396 1931.23,-119.927 1926.88,-114.441"/>
</g>
<!-- Node20 -->
<g id="node20" class="node"><title>Node20</title>
<g id="a_node20"><a xlink:href="DaqTask_8cxx.html" target="_top" xlink:title="Modules/Daq/src/DaqTask.cxx">
<polygon fill="none" stroke="black" points="2070.43,-62 2070.43,-81 2222.43,-81 2222.43,-62 2070.43,-62"/>
<text text-anchor="middle" x="2146.43" y="-69" font-family="Helvetica,sans-Serif" font-size="10.00">Modules/Daq/src/DaqTask.cxx</text>
</a>
</g>
</g>
<!-- Node3&#45;&gt;Node20 -->
<g id="edge19" class="edge"><title>Node3&#45;&gt;Node20</title>
<path fill="none" stroke="midnightblue" d="M1965.75,-120.83C2013.3,-108.109 2076.87,-91.1062 2114.54,-81.0287"/>
<polygon fill="midnightblue" stroke="midnightblue" points="1964.61,-117.511 1955.85,-123.476 1966.42,-124.273 1964.61,-117.511"/>
</g>
<!-- Node21 -->
<g id="node21" class="node"><title>Node21</title>
<g id="a_node21"><a xlink:href="DigitsQcTask_8cxx.html" target="_top" xlink:title="Modules/EMCAL/src/Digits\lQcTask.cxx">
<polygon fill="none" stroke="black" points="2422.43,-56.5 2422.43,-86.5 2558.43,-86.5 2558.43,-56.5 2422.43,-56.5"/>
<text text-anchor="start" x="2430.43" y="-74.5" font-family="Helvetica,sans-Serif" font-size="10.00">Modules/EMCAL/src/Digits</text>
<text text-anchor="middle" x="2490.43" y="-63.5" font-family="Helvetica,sans-Serif" font-size="10.00">QcTask.cxx</text>
</a>
</g>
</g>
<!-- Node3&#45;&gt;Node21 -->
<g id="edge20" class="edge"><title>Node3&#45;&gt;Node21</title>
<path fill="none" stroke="midnightblue" d="M1979.93,-131.946C2079.73,-124.236 2259.64,-108.74 2412.43,-87 2415.7,-86.5343 2419.04,-86.0285 2422.42,-85.4942"/>
<polygon fill="midnightblue" stroke="midnightblue" points="1979.64,-128.458 1969.94,-132.713 1980.17,-135.438 1979.64,-128.458"/>
</g>
<!-- Node22 -->
<g id="node22" class="node"><title>Node22</title>
<g id="a_node22"><a xlink:href="BenchmarkTask_8cxx.html" target="_top" xlink:title="Modules/Example/src\l/BenchmarkTask.cxx">
<polygon fill="none" stroke="black" points="2576.93,-56.5 2576.93,-86.5 2687.93,-86.5 2687.93,-56.5 2576.93,-56.5"/>
<text text-anchor="start" x="2584.93" y="-74.5" font-family="Helvetica,sans-Serif" font-size="10.00">Modules/Example/src</text>
<text text-anchor="middle" x="2632.43" y="-63.5" font-family="Helvetica,sans-Serif" font-size="10.00">/BenchmarkTask.cxx</text>
</a>
</g>
</g>
<!-- Node3&#45;&gt;Node22 -->
<g id="edge21" class="edge"><title>Node3&#45;&gt;Node22</title>
<path fill="none" stroke="midnightblue" d="M1980.39,-135.233C2104.52,-130.772 2356.38,-118.4 2567.43,-87 2570.51,-86.5406 2573.67,-86.0168 2576.86,-85.4473"/>
<polygon fill="midnightblue" stroke="midnightblue" points="1980.09,-131.741 1970.22,-135.59 1980.34,-138.736 1980.09,-131.741"/>
</g>
<!-- Node23 -->
<g id="node23" class="node"><title>Node23</title>
<g id="a_node23"><a xlink:href="ExampleTask_8cxx.html" target="_top" xlink:title="Modules/Example/src\l/ExampleTask.cxx">
<polygon fill="none" stroke="black" points="2705.93,-56.5 2705.93,-86.5 2816.93,-86.5 2816.93,-56.5 2705.93,-56.5"/>
<text text-anchor="start" x="2713.93" y="-74.5" font-family="Helvetica,sans-Serif" font-size="10.00">Modules/Example/src</text>
<text text-anchor="middle" x="2761.43" y="-63.5" font-family="Helvetica,sans-Serif" font-size="10.00">/ExampleTask.cxx</text>
</a>
</g>
</g>
<!-- Node3&#45;&gt;Node23 -->
<g id="edge22" class="edge"><title>Node3&#45;&gt;Node23</title>
<path fill="none" stroke="midnightblue" d="M1980.33,-134.134C2151.51,-126.393 2559.66,-106.488 2696.43,-87 2699.52,-86.5596 2702.68,-86.0508 2705.86,-85.493"/>
<polygon fill="midnightblue" stroke="midnightblue" points="1979.97,-130.647 1970.14,-134.593 1980.29,-137.64 1979.97,-130.647"/>
</g>
<!-- Node24 -->
<g id="node24" class="node"><title>Node24</title>
<g id="a_node24"><a xlink:href="SkeletonTask_8cxx.html" target="_top" xlink:title="Modules/Skeleton/src\l/SkeletonTask.cxx">
<polygon fill="none" stroke="black" points="3099.93,-56.5 3099.93,-86.5 3210.93,-86.5 3210.93,-56.5 3099.93,-56.5"/>
<text text-anchor="start" x="3107.93" y="-74.5" font-family="Helvetica,sans-Serif" font-size="10.00">Modules/Skeleton/src</text>
<text text-anchor="middle" x="3155.43" y="-63.5" font-family="Helvetica,sans-Serif" font-size="10.00">/SkeletonTask.cxx</text>
</a>
</g>
</g>
<!-- Node3&#45;&gt;Node24 -->
<g id="edge23" class="edge"><title>Node3&#45;&gt;Node24</title>
<path fill="none" stroke="midnightblue" d="M1980.34,-134.318C2241.15,-123.517 3076.62,-88.8186 3090.43,-87 3093.52,-86.5922 3096.69,-86.1092 3099.87,-85.5712"/>
<polygon fill="midnightblue" stroke="midnightblue" points="1980.04,-130.827 1970.19,-134.738 1980.33,-137.821 1980.04,-130.827"/>
</g>
<!-- Node25 -->
<g id="node25" class="node"><title>Node25</title>
<g id="a_node25"><a xlink:href="TOFTask_8cxx.html" target="_top" xlink:title="Modules/TOF/src/TOFTask.cxx">
<polygon fill="none" stroke="black" points="3361.93,-62 3361.93,-81 3516.93,-81 3516.93,-62 3361.93,-62"/>
<text text-anchor="middle" x="3439.43" y="-69" font-family="Helvetica,sans-Serif" font-size="10.00">Modules/TOF/src/TOFTask.cxx</text>
</a>
</g>
</g>
<!-- Node3&#45;&gt;Node25 -->
<g id="edge24" class="edge"><title>Node3&#45;&gt;Node25</title>
<path fill="none" stroke="midnightblue" d="M1980.37,-134.193C2052.47,-131.136 2163.24,-126.543 2259.43,-123 2745.14,-105.11 2868.77,-135.057 3352.43,-87 3366.45,-85.6071 3381.62,-83.3427 3395.32,-81.013"/>
<polygon fill="midnightblue" stroke="midnightblue" points="1979.86,-130.712 1970.02,-134.633 1980.16,-137.705 1979.86,-130.712"/>
</g>
<!-- Node5 -->
<g id="node5" class="node"><title>Node5</title>
<g id="a_node5"><a xlink:href="Checker_8cxx.html" target="_top" xlink:title="Framework/src/Checker.cxx">
<polygon fill="none" stroke="black" points="149.427,-0.5 149.427,-19.5 289.427,-19.5 289.427,-0.5 149.427,-0.5"/>
<text text-anchor="middle" x="219.427" y="-7.5" font-family="Helvetica,sans-Serif" font-size="10.00">Framework/src/Checker.cxx</text>
</a>
</g>
</g>
<!-- Node4&#45;&gt;Node5 -->
<g id="edge4" class="edge"><title>Node4&#45;&gt;Node5</title>
<path fill="none" stroke="midnightblue" d="M889.524,-56.0343C758.053,-40.2874 433.19,-22.2028 289.494,-14.6154"/>
<polygon fill="midnightblue" stroke="midnightblue" points="889.417,-59.5478 899.772,-57.3082 890.28,-52.6013 889.417,-59.5478"/>
</g>
<!-- Node6 -->
<g id="node6" class="node"><title>Node6</title>
<g id="a_node6"><a xlink:href="CheckerFactory_8cxx.html" target="_top" xlink:title="Framework/src/CheckerFactory.cxx">
<polygon fill="none" stroke="black" points="444.927,-0.5 444.927,-19.5 617.927,-19.5 617.927,-0.5 444.927,-0.5"/>
<text text-anchor="middle" x="531.427" y="-7.5" font-family="Helvetica,sans-Serif" font-size="10.00">Framework/src/CheckerFactory.cxx</text>
</a>
</g>
</g>
<!-- Node4&#45;&gt;Node6 -->
<g id="edge5" class="edge"><title>Node4&#45;&gt;Node6</title>
<path fill="none" stroke="midnightblue" d="M889.571,-55.9295C787.625,-40.0399 681.664,-27.3874 611.126,-19.5136"/>
<polygon fill="midnightblue" stroke="midnightblue" points="889.318,-59.4327 899.741,-57.5276 890.405,-52.5176 889.318,-59.4327"/>
</g>
<!-- Node7 -->
<g id="node7" class="node"><title>Node7</title>
<g id="a_node7"><a xlink:href="runBasic_8cxx.html" target="_top" xlink:title="This is an executable showing QC Task&#39;s usage in Data Processing Layer. ">
<polygon fill="none" stroke="black" points="636.427,-0.5 636.427,-19.5 778.427,-19.5 778.427,-0.5 636.427,-0.5"/>
<text text-anchor="middle" x="707.427" y="-7.5" font-family="Helvetica,sans-Serif" font-size="10.00">Framework/src/runBasic.cxx</text>
</a>
</g>
</g>
<!-- Node4&#45;&gt;Node7 -->
<g id="edge6" class="edge"><title>Node4&#45;&gt;Node7</title>
<path fill="none" stroke="midnightblue" d="M895.491,-54.2041C846.64,-42.9814 783.702,-28.5228 744.454,-19.5064"/>
<polygon fill="midnightblue" stroke="midnightblue" points="894.845,-57.6468 905.375,-56.4747 896.413,-50.8245 894.845,-57.6468"/>
</g>
<!-- Node8 -->
<g id="node8" class="node"><title>Node8</title>
<g id="a_node8"><a xlink:href="testChecker_8cxx.html" target="_top" xlink:title="Framework/test/testChecker.cxx">
<polygon fill="none" stroke="black" points="796.427,-0.5 796.427,-19.5 956.427,-19.5 956.427,-0.5 796.427,-0.5"/>
<text text-anchor="middle" x="876.427" y="-7.5" font-family="Helvetica,sans-Serif" font-size="10.00">Framework/test/testChecker.cxx</text>
</a>
</g>
</g>
<!-- Node4&#45;&gt;Node8 -->
<g id="edge7" class="edge"><title>Node4&#45;&gt;Node8</title>
<path fill="none" stroke="midnightblue" d="M936.593,-50.7764C920.642,-40.2315 901.813,-27.7834 889.522,-19.6578"/>
<polygon fill="midnightblue" stroke="midnightblue" points="934.826,-53.8041 945.098,-56.3993 938.686,-47.9648 934.826,-53.8041"/>
</g>
<!-- Node9 -->
<g id="node9" class="node"><title>Node9</title>
<g id="a_node9"><a xlink:href="testWorkflow_8cxx.html" target="_top" xlink:title="Framework/test/testWorkflow.cxx">
<polygon fill="none" stroke="black" points="974.427,-0.5 974.427,-19.5 1138.43,-19.5 1138.43,-0.5 974.427,-0.5"/>
<text text-anchor="middle" x="1056.43" y="-7.5" font-family="Helvetica,sans-Serif" font-size="10.00">Framework/test/testWorkflow.cxx</text>
</a>
</g>
</g>
<!-- Node4&#45;&gt;Node9 -->
<g id="edge8" class="edge"><title>Node4&#45;&gt;Node9</title>
<path fill="none" stroke="midnightblue" d="M996.261,-50.7764C1012.21,-40.2315 1031.04,-27.7834 1043.33,-19.6578"/>
<polygon fill="midnightblue" stroke="midnightblue" points="994.167,-47.9648 987.755,-56.3993 998.027,-53.8041 994.167,-47.9648"/>
</g>
<!-- Node10 -->
<g id="node10" class="node"><title>Node10</title>
<polygon fill="none" stroke="#bfbfbf" points="1156.43,-0.5 1156.43,-19.5 1374.43,-19.5 1374.43,-0.5 1156.43,-0.5"/>
<text text-anchor="middle" x="1265.43" y="-7.5" font-family="Helvetica,sans-Serif" font-size="10.00">Modules/EMCAL/src/runQCEMCALDigits.cxx</text>
</g>
<!-- Node4&#45;&gt;Node10 -->
<g id="edge9" class="edge"><title>Node4&#45;&gt;Node10</title>
<path fill="none" stroke="midnightblue" d="M1043.2,-55.2215C1100.17,-43.8862 1175.75,-28.8455 1222.46,-19.5506"/>
<polygon fill="midnightblue" stroke="midnightblue" points="1042.28,-51.8366 1033.16,-57.2211 1043.65,-58.702 1042.28,-51.8366"/>
</g>
<!-- Node11 -->
<g id="node11" class="node"><title>Node11</title>
<g id="a_node11"><a xlink:href="runTOF_8cxx.html" target="_top" xlink:title="This is an executable showing QC Task&#39;s usage in Data Processing Layer. ">
<polygon fill="none" stroke="black" points="1392.93,-0.5 1392.93,-19.5 1539.93,-19.5 1539.93,-0.5 1392.93,-0.5"/>
<text text-anchor="middle" x="1466.43" y="-7.5" font-family="Helvetica,sans-Serif" font-size="10.00">Modules/TOF/src/runTOF.cxx</text>
</a>
</g>
</g>
<!-- Node4&#45;&gt;Node11 -->
<g id="edge10" class="edge"><title>Node4&#45;&gt;Node11</title>
<path fill="none" stroke="midnightblue" d="M1043.15,-55.8141C1194.32,-33.5833 1234.72,-35.8894 1383.43,-20 1386.45,-19.6766 1389.54,-19.3457 1392.66,-19.0107"/>
<polygon fill="midnightblue" stroke="midnightblue" points="1042.41,-52.3857 1033.03,-57.3144 1043.44,-59.31 1042.41,-52.3857"/>
</g>
<!-- Node26&#45;&gt;Node5 -->
<g id="edge26" class="edge"><title>Node26&#45;&gt;Node5</title>
<path fill="none" stroke="midnightblue" d="M260.83,-136.737C174.499,-134.061 42.0324,-123.862 10.4266,-87 -32.1709,-37.319 73.2632,-20.109 149.377,-14.1508"/>
<polygon fill="midnightblue" stroke="midnightblue" points="260.764,-140.237 270.859,-137.021 260.962,-133.239 260.764,-140.237"/>
</g>
<!-- Node26&#45;&gt;Node18 -->
<g id="edge28" class="edge"><title>Node26&#45;&gt;Node18</title>
<path fill="none" stroke="midnightblue" d="M406.101,-121.149C459.671,-108.394 531.926,-91.1905 574.606,-81.0287"/>
<polygon fill="midnightblue" stroke="midnightblue" points="405.245,-117.755 396.327,-123.476 406.866,-124.565 405.245,-117.755"/>
</g>
<!-- Node27 -->
<g id="node27" class="node"><title>Node27</title>
<polygon fill="none" stroke="#bfbfbf" points="19.9266,-56.5 19.9266,-86.5 162.927,-86.5 162.927,-56.5 19.9266,-56.5"/>
<text text-anchor="start" x="27.9266" y="-74.5" font-family="Helvetica,sans-Serif" font-size="10.00">Framework/src/Infrastructure</text>
<text text-anchor="middle" x="91.4266" y="-63.5" font-family="Helvetica,sans-Serif" font-size="10.00">Generator.cxx</text>
</g>
<!-- Node26&#45;&gt;Node27 -->
<g id="edge27" class="edge"><title>Node26&#45;&gt;Node27</title>
<path fill="none" stroke="midnightblue" d="M274.667,-120.917C234.522,-110.31 183.01,-96.6988 144.831,-86.6109"/>
<polygon fill="midnightblue" stroke="midnightblue" points="273.789,-124.305 284.351,-123.476 275.577,-117.537 273.789,-124.305"/>
</g>
<!-- Node28 -->
<g id="node28" class="node"><title>Node28</title>
<g id="a_node28"><a xlink:href="TaskRunnerFactory_8cxx.html" target="_top" xlink:title="Framework/src/TaskRunner\lFactory.cxx">
<polygon fill="none" stroke="black" points="181.427,-56.5 181.427,-86.5 319.427,-86.5 319.427,-56.5 181.427,-56.5"/>
<text text-anchor="start" x="189.427" y="-74.5" font-family="Helvetica,sans-Serif" font-size="10.00">Framework/src/TaskRunner</text>
<text text-anchor="middle" x="250.427" y="-63.5" font-family="Helvetica,sans-Serif" font-size="10.00">Factory.cxx</text>
</a>
</g>
</g>
<!-- Node26&#45;&gt;Node28 -->
<g id="edge29" class="edge"><title>Node26&#45;&gt;Node28</title>
<path fill="none" stroke="midnightblue" d="M310.212,-117.168C296.909,-107.228 281.23,-95.5144 269.267,-86.5765"/>
<polygon fill="midnightblue" stroke="midnightblue" points="308.443,-120.215 318.549,-123.396 312.633,-114.607 308.443,-120.215"/>
</g>
<!-- Node29 -->
<g id="node29" class="node"><title>Node29</title>
<g id="a_node29"><a xlink:href="testTaskRunner_8cxx.html" target="_top" xlink:title="Framework/test/testTaskRunner.cxx">
<polygon fill="none" stroke="black" points="337.427,-62 337.427,-81 513.427,-81 513.427,-62 337.427,-62"/>
<text text-anchor="middle" x="425.427" y="-69" font-family="Helvetica,sans-Serif" font-size="10.00">Framework/test/testTaskRunner.cxx</text>
</a>
</g>
</g>
<!-- Node26&#45;&gt;Node29 -->
<g id="edge30" class="edge"><title>Node26&#45;&gt;Node29</title>
<path fill="none" stroke="midnightblue" d="M364.767,-117.306C381.291,-105.1 401.494,-90.1772 413.909,-81.007"/>
<polygon fill="midnightblue" stroke="midnightblue" points="362.485,-114.639 356.521,-123.396 366.644,-120.27 362.485,-114.639"/>
</g>
<!-- Node32&#45;&gt;Node20 -->
<g id="edge34" class="edge"><title>Node32&#45;&gt;Node20</title>
<path fill="none" stroke="midnightblue" d="M2274.46,-119.784C2240.33,-107.181 2196,-90.8082 2169.46,-81.007"/>
<polygon fill="midnightblue" stroke="midnightblue" points="2273.64,-123.215 2284.24,-123.396 2276.07,-116.648 2273.64,-123.215"/>
</g>
<!-- Node33 -->
<g id="node33" class="node"><title>Node33</title>
<g id="a_node33"><a xlink:href="testQcDaq_8cxx.html" target="_top" xlink:title="Modules/Daq/test/testQcDaq.cxx">
<polygon fill="none" stroke="black" points="2240.93,-62 2240.93,-81 2403.93,-81 2403.93,-62 2240.93,-62"/>
<text text-anchor="middle" x="2322.43" y="-69" font-family="Helvetica,sans-Serif" font-size="10.00">Modules/Daq/test/testQcDaq.cxx</text>
</a>
</g>
</g>
<!-- Node32&#45;&gt;Node33 -->
<g id="edge35" class="edge"><title>Node32&#45;&gt;Node33</title>
<path fill="none" stroke="midnightblue" d="M2322.43,-113.25C2322.43,-102.017 2322.43,-89.3767 2322.43,-81.1945"/>
<polygon fill="midnightblue" stroke="midnightblue" points="2318.93,-113.396 2322.43,-123.396 2325.93,-113.396 2318.93,-113.396"/>
</g>
<!-- Node34&#45;&gt;Node21 -->
<g id="edge37" class="edge"><title>Node34&#45;&gt;Node21</title>
<path fill="none" stroke="midnightblue" d="M2490.43,-113.108C2490.43,-104.154 2490.43,-94.3227 2490.43,-86.5765"/>
<polygon fill="midnightblue" stroke="midnightblue" points="2486.93,-113.396 2490.43,-123.396 2493.93,-113.396 2486.93,-113.396"/>
</g>
<!-- Node35&#45;&gt;Node22 -->
<g id="edge39" class="edge"><title>Node35&#45;&gt;Node22</title>
<path fill="none" stroke="midnightblue" d="M2638.09,-113.403C2636.84,-104.37 2635.46,-94.4078 2634.38,-86.5765"/>
<polygon fill="midnightblue" stroke="midnightblue" points="2634.64,-113.971 2639.47,-123.396 2641.57,-113.01 2634.64,-113.971"/>
</g>
<!-- Node37 -->
<g id="node37" class="node"><title>Node37</title>
<g id="a_node37"><a xlink:href="ExampleCondition_8cxx.html" target="_top" xlink:title="Modules/Example/src\l/ExampleCondition.cxx">
<polygon fill="none" stroke="black" points="3590.43,-56.5 3590.43,-86.5 3708.43,-86.5 3708.43,-56.5 3590.43,-56.5"/>
<text text-anchor="start" x="3598.43" y="-74.5" font-family="Helvetica,sans-Serif" font-size="10.00">Modules/Example/src</text>
<text text-anchor="middle" x="3649.43" y="-63.5" font-family="Helvetica,sans-Serif" font-size="10.00">/ExampleCondition.cxx</text>
</a>
</g>
</g>
<!-- Node36&#45;&gt;Node37 -->
<g id="edge41" class="edge"><title>Node36&#45;&gt;Node37</title>
<path fill="none" stroke="midnightblue" d="M3649.43,-113.108C3649.43,-104.154 3649.43,-94.3227 3649.43,-86.5765"/>
<polygon fill="midnightblue" stroke="midnightblue" points="3645.93,-113.396 3649.43,-123.396 3652.93,-113.396 3645.93,-113.396"/>
</g>
<!-- Node38&#45;&gt;Node23 -->
<g id="edge43" class="edge"><title>Node38&#45;&gt;Node23</title>
<path fill="none" stroke="midnightblue" d="M2782.64,-114.283C2777.94,-105.022 2772.68,-94.6632 2768.57,-86.5765"/>
<polygon fill="midnightblue" stroke="midnightblue" points="2779.62,-116.064 2787.27,-123.396 2785.86,-112.895 2779.62,-116.064"/>
</g>
<!-- Node38&#45;&gt;Node39 -->
<g id="edge44" class="edge"><title>Node38&#45;&gt;Node39</title>
<path fill="none" stroke="midnightblue" d="M2853.82,-120.715C2891.25,-110.137 2939.03,-96.6348 2974.5,-86.6109"/>
<polygon fill="midnightblue" stroke="midnightblue" points="2852.72,-117.388 2844.05,-123.476 2854.62,-124.124 2852.72,-117.388"/>
</g>
<!-- Node40 -->
<g id="node40" class="node"><title>Node40</title>
<g id="a_node40"><a xlink:href="testQcExample_8cxx.html" target="_top" xlink:title="Modules/Example/test\l/testQcExample.cxx">
<polygon fill="none" stroke="black" points="2835.43,-56.5 2835.43,-86.5 2949.43,-86.5 2949.43,-56.5 2835.43,-56.5"/>
<text text-anchor="start" x="2843.43" y="-74.5" font-family="Helvetica,sans-Serif" font-size="10.00">Modules/Example/test</text>
<text text-anchor="middle" x="2892.43" y="-63.5" font-family="Helvetica,sans-Serif" font-size="10.00">/testQcExample.cxx</text>
</a>
</g>
</g>
<!-- Node38&#45;&gt;Node40 -->
<g id="edge45" class="edge"><title>Node38&#45;&gt;Node40</title>
<path fill="none" stroke="midnightblue" d="M2824.23,-117.734C2839.39,-107.676 2857.47,-95.6847 2871.2,-86.5765"/>
<polygon fill="midnightblue" stroke="midnightblue" points="2822.09,-114.952 2815.69,-123.396 2825.96,-120.785 2822.09,-114.952"/>
</g>
<!-- Node41&#45;&gt;Node24 -->
<g id="edge47" class="edge"><title>Node41&#45;&gt;Node24</title>
<path fill="none" stroke="midnightblue" d="M3028.03,-119.819C3056.16,-109.371 3091.29,-96.3231 3117.53,-86.5765"/>
<polygon fill="midnightblue" stroke="midnightblue" points="3026.55,-116.633 3018.4,-123.396 3028.99,-123.195 3026.55,-116.633"/>
</g>
<!-- Node42 -->
<g id="node42" class="node"><title>Node42</title>
<g id="a_node42"><a xlink:href="testQcSkeleton_8cxx.html" target="_top" xlink:title="Modules/Skeleton/test\l/testQcSkeleton.cxx">
<polygon fill="none" stroke="black" points="3229.43,-56.5 3229.43,-86.5 3343.43,-86.5 3343.43,-56.5 3229.43,-56.5"/>
<text text-anchor="start" x="3237.43" y="-74.5" font-family="Helvetica,sans-Serif" font-size="10.00">Modules/Skeleton/test</text>
<text text-anchor="middle" x="3286.43" y="-63.5" font-family="Helvetica,sans-Serif" font-size="10.00">/testQcSkeleton.cxx</text>
</a>
</g>
</g>
<!-- Node41&#45;&gt;Node42 -->
<g id="edge48" class="edge"><title>Node41&#45;&gt;Node42</title>
<path fill="none" stroke="midnightblue" d="M3054.94,-121.854C3102.1,-111.927 3164.35,-98.7783 3219.43,-87 3222.69,-86.3031 3226.03,-85.5852 3229.41,-84.8592"/>
<polygon fill="midnightblue" stroke="midnightblue" points="3054.18,-118.437 3045.11,-123.922 3055.62,-125.287 3054.18,-118.437"/>
</g>
<!-- Node43&#45;&gt;Node25 -->
<g id="edge50" class="edge"><title>Node43&#45;&gt;Node25</title>
<path fill="none" stroke="midnightblue" d="M3183.75,-122.752C3263.28,-106.032 3344.52,-90.3854 3393.85,-81.0453"/>
<polygon fill="midnightblue" stroke="midnightblue" points="3182.62,-119.413 3173.56,-124.902 3184.07,-126.262 3182.62,-119.413"/>
</g>
</g>
</svg>
        <g id="navigator" transform="translate(0 0)" fill="#404254">
                <rect fill="#f2f5e9" fill-opacity="0.5" stroke="#606060" stroke-width=".5" x="0" y="0" width="60" height="60"/>
                <use id="zoomplus" xlink:href="#zoomPlus" x="17" y="9" onmousedown="handleZoom(evt,'in')"/>
                <use id="zoomminus" xlink:href="#zoomMin" x="42" y="9" onmousedown="handleZoom(evt,'out')"/>
                <use id="reset" xlink:href="#resetDef" x="30" y="36" onmousedown="handleReset()"/>
                <g id="arrowUp" xlink:href="#dirArrow" transform="translate(30 24)" onmousedown="handlePan(0,-1)">
                  <use xlink:href="#rim" fill="#404040">
                        <set attributeName="fill" to="#808080" begin="arrowUp.mouseover" end="arrowUp.mouseout"/>
                  </use>
                  <path fill="none" stroke="white" stroke-width="1.5" d="M0,-3.0v7 M-2.5,-0.5L0,-3.0L2.5,-0.5"/>
                </g>
                <g id="arrowRight" xlink:href="#dirArrow" transform="rotate(90) translate(36 -43)" onmousedown="handlePan(1,0)">
                  <use xlink:href="#rim" fill="#404040">
                        <set attributeName="fill" to="#808080" begin="arrowRight.mouseover" end="arrowRight.mouseout"/>
                  </use>
                  <path fill="none" stroke="white" stroke-width="1.5" d="M0,-3.0v7 M-2.5,-0.5L0,-3.0L2.5,-0.5"/>
                </g>
                <g id="arrowDown" xlink:href="#dirArrow" transform="rotate(180) translate(-30 -48)" onmousedown="handlePan(0,1)">
                  <use xlink:href="#rim" fill="#404040">
                        <set attributeName="fill" to="#808080" begin="arrowDown.mouseover" end="arrowDown.mouseout"/>
                  </use>
                  <path fill="none" stroke="white" stroke-width="1.5" d="M0,-3.0v7 M-2.5,-0.5L0,-3.0L2.5,-0.5"/>
                </g>
                <g id="arrowLeft" xlink:href="#dirArrow" transform="rotate(270) translate(-36 17)" onmousedown="handlePan(-1,0)">
                  <use xlink:href="#rim" fill="#404040">
                        <set attributeName="fill" to="#808080" begin="arrowLeft.mouseover" end="arrowLeft.mouseout"/>
                  </use>
                  <path fill="none" stroke="white" stroke-width="1.5" d="M0,-3.0v7 M-2.5,-0.5L0,-3.0L2.5,-0.5"/>
                </g>
        </g>
        <svg viewBox="0 0 15 15" width="100%" height="30px" preserveAspectRatio="xMaxYMin meet">
         <g id="arrow_out" transform="scale(0.3 0.3)">
          <a xlink:href="ObjectsManager_8h__dep__incl_org.svg" target="_base">
           <rect id="button" ry="5" rx="5" y="6" x="6" height="38" width="38"
                fill="#f2f5e9" fill-opacity="0.5" stroke="#606060" stroke-width="1.0"/>
           <path id="arrow"
             d="M 11.500037,31.436501 C 11.940474,20.09759 22.043105,11.32322 32.158766,21.979434 L 37.068811,17.246167 C 37.068811,17.246167 37.088388,32 37.088388,32 L 22.160133,31.978069 C 22.160133,31.978069 26.997745,27.140456 26.997745,27.140456 C 18.528582,18.264221 13.291696,25.230495 11.500037,31.436501 z"
             style="fill:#404040;"/>
          </a>
         </g>
        </svg>
</svg>
