<?xml version="1.0" encoding="UTF-8" standalone="no"?>
<!DOCTYPE svg PUBLIC "-//W3C//DTD SVG 1.1//EN"
 "http://www.w3.org/Graphics/SVG/1.1/DTD/svg11.dtd">
<!-- Generated by graphviz version 2.38.0 (20140413.2041)
 -->
<!-- Title: Framework/src/RepositoryBenchmark.h Pages: 1 -->
<svg width="1088pt" height="263pt"
 viewBox="0.00 0.00 1088.00 263.00" xmlns="http://www.w3.org/2000/svg" xmlns:xlink="http://www.w3.org/1999/xlink">
<g id="graph0" class="graph" transform="scale(1 1) rotate(0) translate(4 259)">
<title>Framework/src/RepositoryBenchmark.h</title>
<!-- Node1 -->
<g id="node1" class="node"><title>Node1</title>
<polygon fill="#bfbfbf" stroke="black" points="662,-224.5 662,-254.5 794,-254.5 794,-224.5 662,-224.5"/>
<text text-anchor="start" x="670" y="-242.5" font-family="Helvetica,sans-Serif" font-size="10.00">Framework/src/Repository</text>
<text text-anchor="middle" x="728" y="-231.5" font-family="Helvetica,sans-Serif" font-size="10.00">Benchmark.h</text>
</g>
<!-- Node2 -->
<g id="node2" class="node"><title>Node2</title>
<g id="a_node2"><a xlink:href="DatabaseInterface_8h.html" target="_top" xlink:title="QualityControl/DatabaseInterface.h">
<polygon fill="none" stroke="black" points="156,-168.5 156,-187.5 326,-187.5 326,-168.5 156,-168.5"/>
<text text-anchor="middle" x="241" y="-175.5" font-family="Helvetica,sans-Serif" font-size="10.00">QualityControl/DatabaseInterface.h</text>
</a>
</g>
</g>
<!-- Node1&#45;&gt;Node2 -->
<g id="edge1" class="edge"><title>Node1&#45;&gt;Node2</title>
<path fill="none" stroke="midnightblue" d="M661.814,-230.414C573.112,-219.576 415.847,-200.362 320.728,-188.741"/>
<polygon fill="midnightblue" stroke="midnightblue" points="320.935,-185.24 310.585,-187.502 320.086,-192.189 320.935,-185.24"/>
</g>
<!-- Node3 -->
<g id="node3" class="node"><title>Node3</title>
<polygon fill="none" stroke="#bfbfbf" points="464.5,-0.5 464.5,-19.5 505.5,-19.5 505.5,-0.5 464.5,-0.5"/>
<text text-anchor="middle" x="485" y="-7.5" font-family="Helvetica,sans-Serif" font-size="10.00">string</text>
</g>
<!-- Node1&#45;&gt;Node3 -->
<g id="edge20" class="edge"><title>Node1&#45;&gt;Node3</title>
<path fill="none" stroke="midnightblue" d="M661.69,-231.798C628.091,-225.354 588.663,-212.729 561,-188 512.854,-144.962 494.1,-66.1434 487.79,-30.0102"/>
<polygon fill="midnightblue" stroke="midnightblue" points="491.204,-29.1938 486.157,-19.878 484.293,-30.3075 491.204,-29.1938"/>
</g>
<!-- Node13 -->
<g id="node13" class="node"><title>Node13</title>
<polygon fill="none" stroke="#bfbfbf" points="570,-168.5 570,-187.5 688,-187.5 688,-168.5 570,-168.5"/>
<text text-anchor="middle" x="629" y="-175.5" font-family="Helvetica,sans-Serif" font-size="10.00">fairmq/FairMQDevice.h</text>
</g>
<!-- Node1&#45;&gt;Node13 -->
<g id="edge15" class="edge"><title>Node1&#45;&gt;Node13</title>
<path fill="none" stroke="midnightblue" d="M704.538,-224.399C688.669,-214.862 667.809,-202.325 652.032,-192.842"/>
<polygon fill="midnightblue" stroke="midnightblue" points="653.779,-189.809 643.405,-187.658 650.174,-195.809 653.779,-189.809"/>
</g>
<!-- Node14 -->
<g id="node14" class="node"><title>Node14</title>
<polygon fill="none" stroke="#bfbfbf" points="706,-168.5 706,-187.5 750,-187.5 750,-168.5 706,-168.5"/>
<text text-anchor="middle" x="728" y="-175.5" font-family="Helvetica,sans-Serif" font-size="10.00">TH1.h</text>
</g>
<!-- Node1&#45;&gt;Node14 -->
<g id="edge16" class="edge"><title>Node1&#45;&gt;Node14</title>
<path fill="none" stroke="midnightblue" d="M728,-224.399C728,-216.466 728,-206.458 728,-197.858"/>
<polygon fill="midnightblue" stroke="midnightblue" points="731.5,-197.658 728,-187.658 724.5,-197.658 731.5,-197.658"/>
</g>
<!-- Node15 -->
<g id="node15" class="node"><title>Node15</title>
<polygon fill="none" stroke="#bfbfbf" points="768.5,-168.5 768.5,-187.5 919.5,-187.5 919.5,-168.5 768.5,-168.5"/>
<text text-anchor="middle" x="844" y="-175.5" font-family="Helvetica,sans-Serif" font-size="10.00">Monitoring/MonitoringFactory.h</text>
</g>
<!-- Node1&#45;&gt;Node15 -->
<g id="edge17" class="edge"><title>Node1&#45;&gt;Node15</title>
<path fill="none" stroke="midnightblue" d="M755.49,-224.399C774.432,-214.684 799.442,-201.855 818.044,-192.314"/>
<polygon fill="midnightblue" stroke="midnightblue" points="819.821,-195.336 827.121,-187.658 816.626,-189.108 819.821,-195.336"/>
</g>
<!-- Node16 -->
<g id="node16" class="node"><title>Node16</title>
<polygon fill="none" stroke="#bfbfbf" points="938,-168.5 938,-187.5 1018,-187.5 1018,-168.5 938,-168.5"/>
<text text-anchor="middle" x="978" y="-175.5" font-family="Helvetica,sans-Serif" font-size="10.00">boost/asio.hpp</text>
</g>
<!-- Node1&#45;&gt;Node16 -->
<g id="edge18" class="edge"><title>Node1&#45;&gt;Node16</title>
<path fill="none" stroke="midnightblue" d="M786.93,-224.475C831.378,-213.896 891.468,-199.595 932.311,-189.874"/>
<polygon fill="midnightblue" stroke="midnightblue" points="933.341,-193.227 942.259,-187.506 931.72,-186.417 933.341,-193.227"/>
</g>
<!-- Node17 -->
<g id="node17" class="node"><title>Node17</title>
<polygon fill="none" stroke="#bfbfbf" points="1036,-168.5 1036,-187.5 1080,-187.5 1080,-168.5 1036,-168.5"/>
<text text-anchor="middle" x="1058" y="-175.5" font-family="Helvetica,sans-Serif" font-size="10.00">thread</text>
</g>
<!-- Node1&#45;&gt;Node17 -->
<g id="edge19" class="edge"><title>Node1&#45;&gt;Node17</title>
<path fill="none" stroke="midnightblue" d="M794.049,-229.577C852.664,-221.151 940.751,-207.251 1025.9,-188.043"/>
<polygon fill="midnightblue" stroke="midnightblue" points="1026.76,-191.437 1035.73,-185.799 1025.2,-184.612 1026.76,-191.437"/>
</g>
<!-- Node2&#45;&gt;Node3 -->
<g id="edge2" class="edge"><title>Node2&#45;&gt;Node3</title>
<path fill="none" stroke="midnightblue" d="M284.46,-168.442C315.721,-161.272 358.309,-149.387 393,-132 430.191,-113.361 444.765,-110.506 468,-76 477.263,-62.2429 481.481,-43.7158 483.4,-29.9614"/>
<polygon fill="midnightblue" stroke="midnightblue" points="486.91,-30.0641 484.532,-19.7396 479.953,-29.2937 486.91,-30.0641"/>
</g>
<!-- Node4 -->
<g id="node4" class="node"><title>Node4</title>
<polygon fill="none" stroke="#bfbfbf" points="0,-112.5 0,-131.5 52,-131.5 52,-112.5 0,-112.5"/>
<text text-anchor="middle" x="26" y="-119.5" font-family="Helvetica,sans-Serif" font-size="10.00">memory</text>
</g>
<!-- Node2&#45;&gt;Node4 -->
<g id="edge3" class="edge"><title>Node2&#45;&gt;Node4</title>
<path fill="none" stroke="midnightblue" d="M206.476,-168.442C172.21,-159.932 117.93,-146.408 62.0745,-132.261"/>
<polygon fill="midnightblue" stroke="midnightblue" points="62.9219,-128.865 52.3684,-129.801 61.2017,-135.651 62.9219,-128.865"/>
</g>
<!-- Node5 -->
<g id="node5" class="node"><title>Node5</title>
<polygon fill="none" stroke="#bfbfbf" points="70,-112.5 70,-131.5 114,-131.5 114,-112.5 70,-112.5"/>
<text text-anchor="middle" x="92" y="-119.5" font-family="Helvetica,sans-Serif" font-size="10.00">vector</text>
</g>
<!-- Node2&#45;&gt;Node5 -->
<g id="edge4" class="edge"><title>Node2&#45;&gt;Node5</title>
<path fill="none" stroke="midnightblue" d="M217.391,-168.444C192.104,-159.279 151.833,-144.685 123.776,-134.516"/>
<polygon fill="midnightblue" stroke="midnightblue" points="124.636,-131.105 114.042,-130.988 122.251,-137.686 124.636,-131.105"/>
</g>
<!-- Node6 -->
<g id="node6" class="node"><title>Node6</title>
<polygon fill="none" stroke="#bfbfbf" points="132.5,-112.5 132.5,-131.5 215.5,-131.5 215.5,-112.5 132.5,-112.5"/>
<text text-anchor="middle" x="174" y="-119.5" font-family="Helvetica,sans-Serif" font-size="10.00">unordered_map</text>
</g>
<!-- Node2&#45;&gt;Node6 -->
<g id="edge5" class="edge"><title>Node2&#45;&gt;Node6</title>
<path fill="none" stroke="midnightblue" d="M230.235,-168.324C220.234,-160.263 205.113,-148.077 193.07,-138.369"/>
<polygon fill="midnightblue" stroke="midnightblue" points="194.943,-135.384 184.961,-131.834 190.55,-140.834 194.943,-135.384"/>
</g>
<!-- Node7 -->
<g id="node7" class="node"><title>Node7</title>
<g id="a_node7"><a xlink:href="MonitorObject_8h.html" target="_top" xlink:title="QualityControl/MonitorObject.h">
<polygon fill="none" stroke="black" points="233.5,-112.5 233.5,-131.5 384.5,-131.5 384.5,-112.5 233.5,-112.5"/>
<text text-anchor="middle" x="309" y="-119.5" font-family="Helvetica,sans-Serif" font-size="10.00">QualityControl/MonitorObject.h</text>
</a>
</g>
</g>
<!-- Node2&#45;&gt;Node7 -->
<g id="edge6" class="edge"><title>Node2&#45;&gt;Node7</title>
<path fill="none" stroke="midnightblue" d="M251.925,-168.324C262.175,-160.185 277.721,-147.839 290.001,-138.087"/>
<polygon fill="midnightblue" stroke="midnightblue" points="292.221,-140.794 297.876,-131.834 287.868,-135.312 292.221,-140.794"/>
</g>
<!-- Node7&#45;&gt;Node3 -->
<g id="edge7" class="edge"><title>Node7&#45;&gt;Node3</title>
<path fill="none" stroke="midnightblue" d="M363.366,-112.426C390.428,-105.99 422.329,-94.9028 446,-76 461.226,-63.8409 471.885,-44.0035 478.167,-29.4369"/>
<polygon fill="midnightblue" stroke="midnightblue" points="481.499,-30.5313 481.971,-19.9469 475.002,-27.9272 481.499,-30.5313"/>
</g>
<!-- Node8 -->
<g id="node8" class="node"><title>Node8</title>
<polygon fill="none" stroke="#bfbfbf" points="12.5,-56.5 12.5,-75.5 47.5,-75.5 47.5,-56.5 12.5,-56.5"/>
<text text-anchor="middle" x="30" y="-63.5" font-family="Helvetica,sans-Serif" font-size="10.00">map</text>
</g>
<!-- Node7&#45;&gt;Node8 -->
<g id="edge8" class="edge"><title>Node7&#45;&gt;Node8</title>
<path fill="none" stroke="midnightblue" d="M253.759,-112.462C203.5,-104.333 127.4,-91.1192 62,-76 60.524,-75.6588 59.0143,-75.2929 57.4932,-74.911"/>
<polygon fill="midnightblue" stroke="midnightblue" points="58.0932,-71.4487 47.5287,-72.2502 56.2872,-78.2117 58.0932,-71.4487"/>
</g>
<!-- Node9 -->
<g id="node9" class="node"><title>Node9</title>
<polygon fill="none" stroke="#bfbfbf" points="198,-0.5 198,-19.5 254,-19.5 254,-0.5 198,-0.5"/>
<text text-anchor="middle" x="226" y="-7.5" font-family="Helvetica,sans-Serif" font-size="10.00">Rtypes.h</text>
</g>
<!-- Node7&#45;&gt;Node9 -->
<g id="edge9" class="edge"><title>Node7&#45;&gt;Node9</title>
<path fill="none" stroke="midnightblue" d="M250.025,-112.467C190.135,-103.201 104.824,-88.1046 95,-76 66.7541,-41.1968 139.769,-23.4829 187.814,-15.8398"/>
<polygon fill="midnightblue" stroke="midnightblue" points="188.568,-19.2658 197.936,-14.3172 187.527,-12.3436 188.568,-19.2658"/>
</g>
<!-- Node10 -->
<g id="node10" class="node"><title>Node10</title>
<polygon fill="none" stroke="#bfbfbf" points="104.5,-56.5 104.5,-75.5 163.5,-75.5 163.5,-56.5 104.5,-56.5"/>
<text text-anchor="middle" x="134" y="-63.5" font-family="Helvetica,sans-Serif" font-size="10.00">TObject.h</text>
</g>
<!-- Node7&#45;&gt;Node10 -->
<g id="edge10" class="edge"><title>Node7&#45;&gt;Node10</title>
<path fill="none" stroke="midnightblue" d="M281.271,-112.444C251.574,-103.28 204.284,-88.6876 171.331,-78.5192"/>
<polygon fill="midnightblue" stroke="midnightblue" points="172.187,-75.1206 161.6,-75.5164 170.123,-81.8094 172.187,-75.1206"/>
</g>
<!-- Node11 -->
<g id="node11" class="node"><title>Node11</title>
<polygon fill="none" stroke="#bfbfbf" points="182,-56.5 182,-75.5 298,-75.5 298,-56.5 182,-56.5"/>
<text text-anchor="middle" x="240" y="-63.5" font-family="Helvetica,sans-Serif" font-size="10.00">Common/Exceptions.h</text>
</g>
<!-- Node7&#45;&gt;Node11 -->
<g id="edge11" class="edge"><title>Node7&#45;&gt;Node11</title>
<path fill="none" stroke="midnightblue" d="M297.914,-112.324C287.514,-104.185 271.739,-91.8395 259.278,-82.0874"/>
<polygon fill="midnightblue" stroke="midnightblue" points="261.32,-79.2407 251.288,-75.8339 257.006,-84.7533 261.32,-79.2407"/>
</g>
<!-- Node12 -->
<g id="node12" class="node"><title>Node12</title>
<g id="a_node12"><a xlink:href="Quality_8h.html" target="_top" xlink:title="QualityControl/Quality.h">
<polygon fill="none" stroke="black" points="316.5,-56.5 316.5,-75.5 437.5,-75.5 437.5,-56.5 316.5,-56.5"/>
<text text-anchor="middle" x="377" y="-63.5" font-family="Helvetica,sans-Serif" font-size="10.00">QualityControl/Quality.h</text>
</a>
</g>
</g>
<!-- Node7&#45;&gt;Node12 -->
<g id="edge12" class="edge"><title>Node7&#45;&gt;Node12</title>
<path fill="none" stroke="midnightblue" d="M319.925,-112.324C330.175,-104.185 345.721,-91.8395 358.001,-82.0874"/>
<polygon fill="midnightblue" stroke="midnightblue" points="360.221,-84.7937 365.876,-75.8339 355.868,-79.3119 360.221,-84.7937"/>
</g>
<!-- Node12&#45;&gt;Node3 -->
<g id="edge14" class="edge"><title>Node12&#45;&gt;Node3</title>
<path fill="none" stroke="midnightblue" d="M394.352,-56.324C411.672,-47.6641 438.515,-34.2424 458.502,-24.249"/>
<polygon fill="midnightblue" stroke="midnightblue" points="460.312,-27.2572 467.691,-19.6545 457.181,-20.9962 460.312,-27.2572"/>
</g>
<!-- Node12&#45;&gt;Node9 -->
<g id="edge13" class="edge"><title>Node12&#45;&gt;Node9</title>
<path fill="none" stroke="midnightblue" d="M353.074,-56.4435C327.781,-47.3986 287.698,-33.064 259.32,-22.9158"/>
<polygon fill="midnightblue" stroke="midnightblue" points="260.409,-19.5882 249.814,-19.5164 258.052,-26.1794 260.409,-19.5882"/>
</g>
</g>
</svg>
