<?xml version="1.0" encoding="UTF-8" standalone="no"?>
<!DOCTYPE svg PUBLIC "-//W3C//DTD SVG 1.1//EN"
 "http://www.w3.org/Graphics/SVG/1.1/DTD/svg11.dtd">
<!-- Generated by graphviz version 2.38.0 (20140413.2041)
 -->
<!-- Title: Framework/src/RepositoryBenchmark.cxx Pages: 1 -->
<svg width="1583pt" height="375pt"
 viewBox="0.00 0.00 1583.19 375.00" xmlns="http://www.w3.org/2000/svg" xmlns:xlink="http://www.w3.org/1999/xlink">
<g id="graph0" class="graph" transform="scale(1 1) rotate(0) translate(4 371)">
<title>Framework/src/RepositoryBenchmark.cxx</title>
<!-- Node1 -->
<g id="node1" class="node"><title>Node1</title>
<polygon fill="#bfbfbf" stroke="black" points="495,-336.5 495,-366.5 627,-366.5 627,-336.5 495,-336.5"/>
<text text-anchor="start" x="503" y="-354.5" font-family="Helvetica,sans-Serif" font-size="10.00">Framework/src/Repository</text>
<text text-anchor="middle" x="561" y="-343.5" font-family="Helvetica,sans-Serif" font-size="10.00">Benchmark.cxx</text>
</g>
<!-- Node2 -->
<g id="node2" class="node"><title>Node2</title>
<g id="a_node2"><a xlink:href="RepositoryBenchmark_8h.html" target="_top" xlink:title="RepositoryBenchmark.h">
<polygon fill="none" stroke="black" points="294,-224.5 294,-243.5 416,-243.5 416,-224.5 294,-224.5"/>
<text text-anchor="middle" x="355" y="-231.5" font-family="Helvetica,sans-Serif" font-size="10.00">RepositoryBenchmark.h</text>
</a>
</g>
</g>
<!-- Node1&#45;&gt;Node2 -->
<g id="edge1" class="edge"><title>Node1&#45;&gt;Node2</title>
<path fill="none" stroke="midnightblue" d="M513.095,-336.482C487.453,-327.9 455.908,-315.566 430,-300 407.07,-286.223 384.368,-265.251 370.051,-250.877"/>
<polygon fill="midnightblue" stroke="midnightblue" points="372.499,-248.374 363.012,-243.658 367.487,-253.261 372.499,-248.374"/>
</g>
<!-- Node12 -->
<g id="node12" class="node"><title>Node12</title>
<polygon fill="none" stroke="#bfbfbf" points="287,-56.5 287,-75.5 403,-75.5 403,-56.5 287,-56.5"/>
<text text-anchor="middle" x="345" y="-63.5" font-family="Helvetica,sans-Serif" font-size="10.00">Common/Exceptions.h</text>
</g>
<!-- Node1&#45;&gt;Node12 -->
<g id="edge27" class="edge"><title>Node1&#45;&gt;Node12</title>
<path fill="none" stroke="midnightblue" d="M494.996,-350.641C346.701,-349.179 0,-335.06 0,-235 0,-235 0,-235 0,-177 0,-119.488 176.231,-87.9953 276.784,-74.7075"/>
<polygon fill="midnightblue" stroke="midnightblue" points="277.398,-78.1573 286.866,-73.4026 276.499,-71.2152 277.398,-78.1573"/>
</g>
<!-- Node18 -->
<g id="node18" class="node"><title>Node18</title>
<polygon fill="none" stroke="#bfbfbf" points="494,-168.5 494,-187.5 538,-187.5 538,-168.5 494,-168.5"/>
<text text-anchor="middle" x="516" y="-175.5" font-family="Helvetica,sans-Serif" font-size="10.00">thread</text>
</g>
<!-- Node1&#45;&gt;Node18 -->
<g id="edge23" class="edge"><title>Node1&#45;&gt;Node18</title>
<path fill="none" stroke="midnightblue" d="M509.854,-336.428C491.828,-328.738 473.461,-317.159 463,-300 441.334,-264.462 477.024,-218.5 499.636,-194.754"/>
<polygon fill="midnightblue" stroke="midnightblue" points="502.165,-197.175 506.701,-187.6 497.184,-192.256 502.165,-197.175"/>
</g>
<!-- Node19 -->
<g id="node19" class="node"><title>Node19</title>
<polygon fill="none" stroke="#bfbfbf" points="472,-280.5 472,-299.5 518,-299.5 518,-280.5 472,-280.5"/>
<text text-anchor="middle" x="495" y="-287.5" font-family="Helvetica,sans-Serif" font-size="10.00">chrono</text>
</g>
<!-- Node1&#45;&gt;Node19 -->
<g id="edge22" class="edge"><title>Node1&#45;&gt;Node19</title>
<path fill="none" stroke="midnightblue" d="M545.359,-336.399C535.373,-327.397 522.422,-315.721 512.155,-306.465"/>
<polygon fill="midnightblue" stroke="midnightblue" points="514.375,-303.754 504.604,-299.658 509.687,-308.953 514.375,-303.754"/>
</g>
<!-- Node20 -->
<g id="node20" class="node"><title>Node20</title>
<polygon fill="none" stroke="#bfbfbf" points="536,-280.5 536,-299.5 586,-299.5 586,-280.5 536,-280.5"/>
<text text-anchor="middle" x="561" y="-287.5" font-family="Helvetica,sans-Serif" font-size="10.00">TH2F.h</text>
</g>
<!-- Node1&#45;&gt;Node20 -->
<g id="edge24" class="edge"><title>Node1&#45;&gt;Node20</title>
<path fill="none" stroke="midnightblue" d="M561,-336.399C561,-328.466 561,-318.458 561,-309.858"/>
<polygon fill="midnightblue" stroke="midnightblue" points="564.5,-309.658 561,-299.658 557.5,-309.658 564.5,-309.658"/>
</g>
<!-- Node21 -->
<g id="node21" class="node"><title>Node21</title>
<polygon fill="none" stroke="#bfbfbf" points="604,-280.5 604,-299.5 720,-299.5 720,-280.5 604,-280.5"/>
<text text-anchor="middle" x="662" y="-287.5" font-family="Helvetica,sans-Serif" font-size="10.00">fairmq/FairMQLogger.h</text>
</g>
<!-- Node1&#45;&gt;Node21 -->
<g id="edge25" class="edge"><title>Node1&#45;&gt;Node21</title>
<path fill="none" stroke="midnightblue" d="M584.936,-336.399C601.125,-326.862 622.407,-314.325 638.503,-304.842"/>
<polygon fill="midnightblue" stroke="midnightblue" points="640.464,-307.749 647.304,-299.658 636.911,-301.718 640.464,-307.749"/>
</g>
<!-- Node22 -->
<g id="node22" class="node"><title>Node22</title>
<polygon fill="none" stroke="#bfbfbf" points="738,-280.5 738,-299.5 884,-299.5 884,-280.5 738,-280.5"/>
<text text-anchor="middle" x="811" y="-287.5" font-family="Helvetica,sans-Serif" font-size="10.00">options/FairMQProgOptions.h</text>
</g>
<!-- Node1&#45;&gt;Node22 -->
<g id="edge26" class="edge"><title>Node1&#45;&gt;Node22</title>
<path fill="none" stroke="midnightblue" d="M619.93,-336.475C664.378,-325.896 724.468,-311.595 765.311,-301.874"/>
<polygon fill="midnightblue" stroke="midnightblue" points="766.341,-305.227 775.259,-299.506 764.72,-298.417 766.341,-305.227"/>
</g>
<!-- Node23 -->
<g id="node23" class="node"><title>Node23</title>
<g id="a_node23"><a xlink:href="DatabaseFactory_8h.html" target="_top" xlink:title="QualityControl/DatabaseFactory.h">
<polygon fill="none" stroke="black" points="671.5,-224.5 671.5,-243.5 836.5,-243.5 836.5,-224.5 671.5,-224.5"/>
<text text-anchor="middle" x="754" y="-231.5" font-family="Helvetica,sans-Serif" font-size="10.00">QualityControl/DatabaseFactory.h</text>
</a>
</g>
</g>
<!-- Node1&#45;&gt;Node23 -->
<g id="edge28" class="edge"><title>Node1&#45;&gt;Node23</title>
<path fill="none" stroke="midnightblue" d="M627.096,-350.212C713.946,-348.267 859.418,-339.077 893,-300 917.345,-271.671 873.326,-254.875 828.525,-245.477"/>
<polygon fill="midnightblue" stroke="midnightblue" points="829.167,-242.036 818.678,-243.526 827.807,-248.903 829.167,-242.036"/>
</g>
<!-- Node24 -->
<g id="node24" class="node"><title>Node24</title>
<g id="a_node24"><a xlink:href="QcInfoLogger_8h.html" target="_top" xlink:title="QualityControl/QcInfoLogger.h">
<polygon fill="none" stroke="black" points="955.5,-280.5 955.5,-299.5 1104.5,-299.5 1104.5,-280.5 955.5,-280.5"/>
<text text-anchor="middle" x="1030" y="-287.5" font-family="Helvetica,sans-Serif" font-size="10.00">QualityControl/QcInfoLogger.h</text>
</a>
</g>
</g>
<!-- Node1&#45;&gt;Node24 -->
<g id="edge31" class="edge"><title>Node1&#45;&gt;Node24</title>
<path fill="none" stroke="midnightblue" d="M627.202,-342.101C712.992,-331.217 862.3,-312.275 953.045,-300.763"/>
<polygon fill="midnightblue" stroke="midnightblue" points="953.518,-304.231 962.997,-299.5 952.636,-297.287 953.518,-304.231"/>
</g>
<!-- Node3 -->
<g id="node3" class="node"><title>Node3</title>
<g id="a_node3"><a xlink:href="DatabaseInterface_8h.html" target="_top" xlink:title="QualityControl/DatabaseInterface.h">
<polygon fill="none" stroke="black" points="556,-168.5 556,-187.5 726,-187.5 726,-168.5 556,-168.5"/>
<text text-anchor="middle" x="641" y="-175.5" font-family="Helvetica,sans-Serif" font-size="10.00">QualityControl/DatabaseInterface.h</text>
</a>
</g>
</g>
<!-- Node2&#45;&gt;Node3 -->
<g id="edge2" class="edge"><title>Node2&#45;&gt;Node3</title>
<path fill="none" stroke="midnightblue" d="M400.318,-224.444C450.628,-214.944 531.838,-199.611 585.813,-189.42"/>
<polygon fill="midnightblue" stroke="midnightblue" points="586.717,-192.811 595.894,-187.516 585.419,-185.933 586.717,-192.811"/>
</g>
<!-- Node4 -->
<g id="node4" class="node"><title>Node4</title>
<polygon fill="none" stroke="#bfbfbf" points="1053.5,-0.5 1053.5,-19.5 1094.5,-19.5 1094.5,-0.5 1053.5,-0.5"/>
<text text-anchor="middle" x="1074" y="-7.5" font-family="Helvetica,sans-Serif" font-size="10.00">string</text>
</g>
<!-- Node2&#45;&gt;Node4 -->
<g id="edge21" class="edge"><title>Node2&#45;&gt;Node4</title>
<path fill="none" stroke="midnightblue" d="M293.69,-233.997C206.668,-233.949 53.9771,-227.974 19,-188 13.1466,-181.31 14.1188,-175.429 19,-168 87.8681,-63.1879 155.956,-84.8734 278,-56 315.865,-47.0418 901.499,-19.095 1043.27,-12.4352"/>
<polygon fill="midnightblue" stroke="midnightblue" points="1043.6,-15.9234 1053.43,-11.9587 1043.28,-8.93113 1043.6,-15.9234"/>
</g>
<!-- Node14 -->
<g id="node14" class="node"><title>Node14</title>
<polygon fill="none" stroke="#bfbfbf" points="296,-168.5 296,-187.5 414,-187.5 414,-168.5 296,-168.5"/>
<text text-anchor="middle" x="355" y="-175.5" font-family="Helvetica,sans-Serif" font-size="10.00">fairmq/FairMQDevice.h</text>
</g>
<!-- Node2&#45;&gt;Node14 -->
<g id="edge16" class="edge"><title>Node2&#45;&gt;Node14</title>
<path fill="none" stroke="midnightblue" d="M355,-224.083C355,-217.006 355,-206.861 355,-197.986"/>
<polygon fill="midnightblue" stroke="midnightblue" points="358.5,-197.751 355,-187.751 351.5,-197.751 358.5,-197.751"/>
</g>
<!-- Node15 -->
<g id="node15" class="node"><title>Node15</title>
<polygon fill="none" stroke="#bfbfbf" points="432,-168.5 432,-187.5 476,-187.5 476,-168.5 432,-168.5"/>
<text text-anchor="middle" x="454" y="-175.5" font-family="Helvetica,sans-Serif" font-size="10.00">TH1.h</text>
</g>
<!-- Node2&#45;&gt;Node15 -->
<g id="edge17" class="edge"><title>Node2&#45;&gt;Node15</title>
<path fill="none" stroke="midnightblue" d="M370.906,-224.324C386.638,-215.743 410.942,-202.486 429.209,-192.522"/>
<polygon fill="midnightblue" stroke="midnightblue" points="431.03,-195.516 438.133,-187.655 427.678,-189.37 431.03,-195.516"/>
</g>
<!-- Node16 -->
<g id="node16" class="node"><title>Node16</title>
<polygon fill="none" stroke="#bfbfbf" points="28.5,-168.5 28.5,-187.5 179.5,-187.5 179.5,-168.5 28.5,-168.5"/>
<text text-anchor="middle" x="104" y="-175.5" font-family="Helvetica,sans-Serif" font-size="10.00">Monitoring/MonitoringFactory.h</text>
</g>
<!-- Node2&#45;&gt;Node16 -->
<g id="edge18" class="edge"><title>Node2&#45;&gt;Node16</title>
<path fill="none" stroke="midnightblue" d="M315.228,-224.444C271.442,-215.023 200.986,-199.866 153.62,-189.675"/>
<polygon fill="midnightblue" stroke="midnightblue" points="154.098,-186.198 143.586,-187.516 152.626,-193.041 154.098,-186.198"/>
</g>
<!-- Node17 -->
<g id="node17" class="node"><title>Node17</title>
<polygon fill="none" stroke="#bfbfbf" points="198,-168.5 198,-187.5 278,-187.5 278,-168.5 198,-168.5"/>
<text text-anchor="middle" x="238" y="-175.5" font-family="Helvetica,sans-Serif" font-size="10.00">boost/asio.hpp</text>
</g>
<!-- Node2&#45;&gt;Node17 -->
<g id="edge19" class="edge"><title>Node2&#45;&gt;Node17</title>
<path fill="none" stroke="midnightblue" d="M336.461,-224.444C317.377,-215.636 287.425,-201.812 265.564,-191.722"/>
<polygon fill="midnightblue" stroke="midnightblue" points="266.999,-188.529 256.452,-187.516 264.065,-194.885 266.999,-188.529"/>
</g>
<!-- Node2&#45;&gt;Node18 -->
<g id="edge20" class="edge"><title>Node2&#45;&gt;Node18</title>
<path fill="none" stroke="midnightblue" d="M380.511,-224.444C408.552,-215.038 453.645,-199.914 484.026,-189.724"/>
<polygon fill="midnightblue" stroke="midnightblue" points="485.351,-192.971 493.719,-186.473 483.125,-186.335 485.351,-192.971"/>
</g>
<!-- Node3&#45;&gt;Node4 -->
<g id="edge3" class="edge"><title>Node3&#45;&gt;Node4</title>
<path fill="none" stroke="midnightblue" d="M715.134,-168.456C821.03,-154.714 1007.93,-124.247 1054,-76 1065.84,-63.6023 1070.68,-44.36 1072.66,-30.0245"/>
<polygon fill="midnightblue" stroke="midnightblue" points="1076.17,-30.1089 1073.7,-19.8041 1069.2,-29.3951 1076.17,-30.1089"/>
</g>
<!-- Node5 -->
<g id="node5" class="node"><title>Node5</title>
<polygon fill="none" stroke="#bfbfbf" points="1140,-112.5 1140,-131.5 1192,-131.5 1192,-112.5 1140,-112.5"/>
<text text-anchor="middle" x="1166" y="-119.5" font-family="Helvetica,sans-Serif" font-size="10.00">memory</text>
</g>
<!-- Node3&#45;&gt;Node5 -->
<g id="edge4" class="edge"><title>Node3&#45;&gt;Node5</title>
<path fill="none" stroke="midnightblue" d="M726.128,-169.242C862.629,-156.782 1116.25,-133.542 1126,-132 1127.27,-131.8 1128.55,-131.583 1129.85,-131.354"/>
<polygon fill="midnightblue" stroke="midnightblue" points="1130.7,-134.752 1139.84,-129.392 1129.36,-127.883 1130.7,-134.752"/>
</g>
<!-- Node6 -->
<g id="node6" class="node"><title>Node6</title>
<polygon fill="none" stroke="#bfbfbf" points="619,-112.5 619,-131.5 663,-131.5 663,-112.5 619,-112.5"/>
<text text-anchor="middle" x="641" y="-119.5" font-family="Helvetica,sans-Serif" font-size="10.00">vector</text>
</g>
<!-- Node3&#45;&gt;Node6 -->
<g id="edge5" class="edge"><title>Node3&#45;&gt;Node6</title>
<path fill="none" stroke="midnightblue" d="M641,-168.083C641,-161.006 641,-150.861 641,-141.986"/>
<polygon fill="midnightblue" stroke="midnightblue" points="644.5,-141.751 641,-131.751 637.5,-141.751 644.5,-141.751"/>
</g>
<!-- Node7 -->
<g id="node7" class="node"><title>Node7</title>
<polygon fill="none" stroke="#bfbfbf" points="1335.5,-56.5 1335.5,-75.5 1418.5,-75.5 1418.5,-56.5 1335.5,-56.5"/>
<text text-anchor="middle" x="1377" y="-63.5" font-family="Helvetica,sans-Serif" font-size="10.00">unordered_map</text>
</g>
<!-- Node3&#45;&gt;Node7 -->
<g id="edge6" class="edge"><title>Node3&#45;&gt;Node7</title>
<path fill="none" stroke="midnightblue" d="M726.348,-169.955C846.337,-159.814 1054.11,-141.302 1088,-132 1108.33,-126.422 1110.92,-118.392 1131,-112 1196.41,-91.1807 1274.86,-78.913 1325.29,-72.5751"/>
<polygon fill="midnightblue" stroke="midnightblue" points="1325.8,-76.0388 1335.3,-71.3487 1324.95,-69.0907 1325.8,-76.0388"/>
</g>
<!-- Node8 -->
<g id="node8" class="node"><title>Node8</title>
<g id="a_node8"><a xlink:href="MonitorObject_8h.html" target="_top" xlink:title="QualityControl/MonitorObject.h">
<polygon fill="none" stroke="black" points="738.5,-112.5 738.5,-131.5 889.5,-131.5 889.5,-112.5 738.5,-112.5"/>
<text text-anchor="middle" x="814" y="-119.5" font-family="Helvetica,sans-Serif" font-size="10.00">QualityControl/MonitorObject.h</text>
</a>
</g>
</g>
<!-- Node3&#45;&gt;Node8 -->
<g id="edge7" class="edge"><title>Node3&#45;&gt;Node8</title>
<path fill="none" stroke="midnightblue" d="M668.412,-168.444C697.769,-159.28 744.519,-144.688 777.096,-134.519"/>
<polygon fill="midnightblue" stroke="midnightblue" points="778.213,-137.837 786.716,-131.516 776.127,-131.155 778.213,-137.837"/>
</g>
<!-- Node8&#45;&gt;Node4 -->
<g id="edge8" class="edge"><title>Node8&#45;&gt;Node4</title>
<path fill="none" stroke="midnightblue" d="M817.883,-112.246C824.663,-98.0365 840.06,-70.1229 862,-56 918.556,-19.5947 999.499,-12.0898 1043.19,-10.8752"/>
<polygon fill="midnightblue" stroke="midnightblue" points="1043.27,-14.3745 1053.21,-10.6904 1043.15,-7.37565 1043.27,-14.3745"/>
</g>
<!-- Node9 -->
<g id="node9" class="node"><title>Node9</title>
<polygon fill="none" stroke="#bfbfbf" points="1010.5,-56.5 1010.5,-75.5 1045.5,-75.5 1045.5,-56.5 1010.5,-56.5"/>
<text text-anchor="middle" x="1028" y="-63.5" font-family="Helvetica,sans-Serif" font-size="10.00">map</text>
</g>
<!-- Node8&#45;&gt;Node9 -->
<g id="edge9" class="edge"><title>Node8&#45;&gt;Node9</title>
<path fill="none" stroke="midnightblue" d="M853.657,-112.492C889.606,-104.549 944.22,-91.913 1000.56,-75.9314"/>
<polygon fill="midnightblue" stroke="midnightblue" points="1001.7,-79.2447 1010.35,-73.1244 999.771,-72.5157 1001.7,-79.2447"/>
</g>
<!-- Node10 -->
<g id="node10" class="node"><title>Node10</title>
<polygon fill="none" stroke="#bfbfbf" points="802,-0.5 802,-19.5 858,-19.5 858,-0.5 802,-0.5"/>
<text text-anchor="middle" x="830" y="-7.5" font-family="Helvetica,sans-Serif" font-size="10.00">Rtypes.h</text>
</g>
<!-- Node8&#45;&gt;Node10 -->
<g id="edge10" class="edge"><title>Node8&#45;&gt;Node10</title>
<path fill="none" stroke="midnightblue" d="M792.18,-112.382C767.227,-101.158 731.57,-80.1004 746,-56 756.017,-39.2695 774.617,-28.4057 791.773,-21.553"/>
<polygon fill="midnightblue" stroke="midnightblue" points="793.429,-24.6748 801.631,-17.9677 791.037,-18.0963 793.429,-24.6748"/>
</g>
<!-- Node11 -->
<g id="node11" class="node"><title>Node11</title>
<polygon fill="none" stroke="#bfbfbf" points="755.5,-56.5 755.5,-75.5 814.5,-75.5 814.5,-56.5 755.5,-56.5"/>
<text text-anchor="middle" x="785" y="-63.5" font-family="Helvetica,sans-Serif" font-size="10.00">TObject.h</text>
</g>
<!-- Node8&#45;&gt;Node11 -->
<g id="edge11" class="edge"><title>Node8&#45;&gt;Node11</title>
<path fill="none" stroke="midnightblue" d="M809.211,-112.083C805.242,-104.691 799.475,-93.9533 794.565,-84.8111"/>
<polygon fill="midnightblue" stroke="midnightblue" points="797.514,-82.9051 789.7,-75.7511 791.347,-86.217 797.514,-82.9051"/>
</g>
<!-- Node8&#45;&gt;Node12 -->
<g id="edge12" class="edge"><title>Node8&#45;&gt;Node12</title>
<path fill="none" stroke="midnightblue" d="M739.944,-112.473C650.185,-102.139 500.175,-84.8666 413.157,-74.8475"/>
<polygon fill="midnightblue" stroke="midnightblue" points="413.459,-71.3593 403.125,-73.6924 412.659,-78.3133 413.459,-71.3593"/>
</g>
<!-- Node13 -->
<g id="node13" class="node"><title>Node13</title>
<g id="a_node13"><a xlink:href="Quality_8h.html" target="_top" xlink:title="QualityControl/Quality.h">
<polygon fill="none" stroke="black" points="871.5,-56.5 871.5,-75.5 992.5,-75.5 992.5,-56.5 871.5,-56.5"/>
<text text-anchor="middle" x="932" y="-63.5" font-family="Helvetica,sans-Serif" font-size="10.00">QualityControl/Quality.h</text>
</a>
</g>
</g>
<!-- Node8&#45;&gt;Node13 -->
<g id="edge13" class="edge"><title>Node8&#45;&gt;Node13</title>
<path fill="none" stroke="midnightblue" d="M832.697,-112.444C851.944,-103.636 882.152,-89.8116 904.2,-79.722"/>
<polygon fill="midnightblue" stroke="midnightblue" points="905.753,-82.8603 913.39,-75.5164 902.84,-76.4951 905.753,-82.8603"/>
</g>
<!-- Node13&#45;&gt;Node4 -->
<g id="edge15" class="edge"><title>Node13&#45;&gt;Node4</title>
<path fill="none" stroke="midnightblue" d="M954.5,-56.4435C978.632,-47.2666 1017.08,-32.6446 1043.83,-22.4744"/>
<polygon fill="midnightblue" stroke="midnightblue" points="1045.35,-25.6411 1053.45,-18.8151 1042.86,-19.0982 1045.35,-25.6411"/>
</g>
<!-- Node13&#45;&gt;Node10 -->
<g id="edge14" class="edge"><title>Node13&#45;&gt;Node10</title>
<path fill="none" stroke="midnightblue" d="M915.612,-56.324C899.329,-47.7034 874.133,-34.3643 855.284,-24.3855"/>
<polygon fill="midnightblue" stroke="midnightblue" points="856.823,-21.2402 846.347,-19.6545 853.548,-27.4267 856.823,-21.2402"/>
</g>
<!-- Node23&#45;&gt;Node3 -->
<g id="edge30" class="edge"><title>Node23&#45;&gt;Node3</title>
<path fill="none" stroke="midnightblue" d="M736.095,-224.444C717.746,-215.675 688.995,-201.935 667.906,-191.858"/>
<polygon fill="midnightblue" stroke="midnightblue" points="669.353,-188.67 658.821,-187.516 666.335,-194.986 669.353,-188.67"/>
</g>
<!-- Node23&#45;&gt;Node5 -->
<g id="edge29" class="edge"><title>Node23&#45;&gt;Node5</title>
<path fill="none" stroke="midnightblue" d="M757.649,-224.462C764.311,-210.043 779.916,-181.153 803,-168 865.75,-132.245 1054.77,-143.945 1126,-132 1127.26,-131.788 1128.55,-131.561 1129.84,-131.323"/>
<polygon fill="midnightblue" stroke="midnightblue" points="1130.71,-134.718 1139.83,-129.322 1129.34,-127.855 1130.71,-134.718"/>
</g>
<!-- Node25 -->
<g id="node25" class="node"><title>Node25</title>
<polygon fill="none" stroke="#bfbfbf" points="965,-224.5 965,-243.5 1095,-243.5 1095,-224.5 965,-224.5"/>
<text text-anchor="middle" x="1030" y="-231.5" font-family="Helvetica,sans-Serif" font-size="10.00">InfoLogger/InfoLogger.hxx</text>
</g>
<!-- Node24&#45;&gt;Node25 -->
<g id="edge32" class="edge"><title>Node24&#45;&gt;Node25</title>
<path fill="none" stroke="midnightblue" d="M1030,-280.083C1030,-273.006 1030,-262.861 1030,-253.986"/>
<polygon fill="midnightblue" stroke="midnightblue" points="1033.5,-253.751 1030,-243.751 1026.5,-253.751 1033.5,-253.751"/>
</g>
<!-- Node26 -->
<g id="node26" class="node"><title>Node26</title>
<g id="a_node26"><a xlink:href="TaskInterface_8h.html" target="_top" xlink:title="QualityControl/TaskInterface.h">
<polygon fill="none" stroke="black" points="1129,-224.5 1129,-243.5 1279,-243.5 1279,-224.5 1129,-224.5"/>
<text text-anchor="middle" x="1204" y="-231.5" font-family="Helvetica,sans-Serif" font-size="10.00">QualityControl/TaskInterface.h</text>
</a>
</g>
</g>
<!-- Node24&#45;&gt;Node26 -->
<g id="edge33" class="edge"><title>Node24&#45;&gt;Node26</title>
<path fill="none" stroke="midnightblue" d="M1057.57,-280.444C1087.1,-271.28 1134.12,-256.688 1166.88,-246.519"/>
<polygon fill="midnightblue" stroke="midnightblue" points="1168.04,-249.823 1176.56,-243.516 1165.97,-243.138 1168.04,-249.823"/>
</g>
<!-- Node26&#45;&gt;Node4 -->
<g id="edge36" class="edge"><title>Node26&#45;&gt;Node4</title>
<path fill="none" stroke="midnightblue" d="M1279.03,-232.834C1341.48,-230.139 1431.43,-220.201 1503,-188 1544.06,-169.524 1590.18,-152.254 1570,-112 1551.36,-74.8116 1533.73,-71.1953 1495,-56 1423.71,-28.0269 1189.56,-15.7784 1104.9,-12.1887"/>
<polygon fill="midnightblue" stroke="midnightblue" points="1104.79,-8.68129 1094.65,-11.766 1104.5,-15.6753 1104.79,-8.68129"/>
</g>
<!-- Node26&#45;&gt;Node5 -->
<g id="edge35" class="edge"><title>Node26&#45;&gt;Node5</title>
<path fill="none" stroke="midnightblue" d="M1128.55,-225.631C1015.89,-214.45 816.243,-193.878 811,-188 805.083,-181.367 805.082,-174.633 811,-168 857.906,-115.428 1056.53,-143.75 1126,-132 1127.26,-131.786 1128.55,-131.558 1129.84,-131.319"/>
<polygon fill="midnightblue" stroke="midnightblue" points="1130.72,-134.713 1139.83,-129.312 1129.34,-127.85 1130.72,-134.713"/>
</g>
<!-- Node26&#45;&gt;Node7 -->
<g id="edge37" class="edge"><title>Node26&#45;&gt;Node7</title>
<path fill="none" stroke="midnightblue" d="M1279.18,-231.68C1353.8,-228.59 1460.76,-218.745 1487,-188 1492.77,-181.239 1492,-175.351 1487,-168 1462.55,-132.03 1425.3,-164.142 1396,-132 1384.5,-119.386 1379.93,-100.173 1378.13,-85.9028"/>
<polygon fill="midnightblue" stroke="midnightblue" points="1381.6,-85.3789 1377.2,-75.739 1374.63,-86.0161 1381.6,-85.3789"/>
</g>
<!-- Node26&#45;&gt;Node9 -->
<g id="edge34" class="edge"><title>Node26&#45;&gt;Node9</title>
<path fill="none" stroke="midnightblue" d="M1279.17,-229.802C1344.49,-225.257 1432.01,-214.305 1454,-188 1459.7,-181.181 1459.42,-175.049 1454,-168 1429.14,-135.637 1146.16,-86.4892 1055.66,-71.4973"/>
<polygon fill="midnightblue" stroke="midnightblue" points="1056.04,-68.0133 1045.6,-69.8418 1054.9,-74.9203 1056.04,-68.0133"/>
</g>
<!-- Node27 -->
<g id="node27" class="node"><title>Node27</title>
<polygon fill="none" stroke="#bfbfbf" points="820.5,-168.5 820.5,-187.5 945.5,-187.5 945.5,-168.5 820.5,-168.5"/>
<text text-anchor="middle" x="883" y="-175.5" font-family="Helvetica,sans-Serif" font-size="10.00">Framework/InitContext.h</text>
</g>
<!-- Node26&#45;&gt;Node27 -->
<g id="edge38" class="edge"><title>Node26&#45;&gt;Node27</title>
<path fill="none" stroke="midnightblue" d="M1153.14,-224.444C1096.32,-214.885 1004.38,-199.419 943.81,-189.23"/>
<polygon fill="midnightblue" stroke="midnightblue" points="944.068,-185.724 933.625,-187.516 942.906,-192.627 944.068,-185.724"/>
</g>
<!-- Node28 -->
<g id="node28" class="node"><title>Node28</title>
<polygon fill="none" stroke="#bfbfbf" points="964,-168.5 964,-187.5 1124,-187.5 1124,-168.5 964,-168.5"/>
<text text-anchor="middle" x="1044" y="-175.5" font-family="Helvetica,sans-Serif" font-size="10.00">Framework/ProcessingContext.h</text>
</g>
<!-- Node26&#45;&gt;Node28 -->
<g id="edge39" class="edge"><title>Node26&#45;&gt;Node28</title>
<path fill="none" stroke="midnightblue" d="M1178.65,-224.444C1151.73,-215.359 1109,-200.939 1078.91,-190.783"/>
<polygon fill="midnightblue" stroke="midnightblue" points="1079.83,-187.398 1069.23,-187.516 1077.59,-194.031 1079.83,-187.398"/>
</g>
<!-- Node29 -->
<g id="node29" class="node"><title>Node29</title>
<g id="a_node29"><a xlink:href="Activity_8h.html" target="_top" xlink:title="QualityControl/Activity.h">
<polygon fill="none" stroke="black" points="1142.5,-168.5 1142.5,-187.5 1265.5,-187.5 1265.5,-168.5 1142.5,-168.5"/>
<text text-anchor="middle" x="1204" y="-175.5" font-family="Helvetica,sans-Serif" font-size="10.00">QualityControl/Activity.h</text>
</a>
</g>
</g>
<!-- Node26&#45;&gt;Node29 -->
<g id="edge40" class="edge"><title>Node26&#45;&gt;Node29</title>
<path fill="none" stroke="midnightblue" d="M1204,-224.083C1204,-217.006 1204,-206.861 1204,-197.986"/>
<polygon fill="midnightblue" stroke="midnightblue" points="1207.5,-197.751 1204,-187.751 1200.5,-197.751 1207.5,-197.751"/>
</g>
<!-- Node30 -->
<g id="node30" class="node"><title>Node30</title>
<g id="a_node30"><a xlink:href="ObjectsManager_8h.html" target="_top" xlink:title="QualityControl/ObjectsManager.h">
<polygon fill="none" stroke="black" points="1283.5,-168.5 1283.5,-187.5 1444.5,-187.5 1444.5,-168.5 1283.5,-168.5"/>
<text text-anchor="middle" x="1364" y="-175.5" font-family="Helvetica,sans-Serif" font-size="10.00">QualityControl/ObjectsManager.h</text>
</a>
</g>
</g>
<!-- Node26&#45;&gt;Node30 -->
<g id="edge41" class="edge"><title>Node26&#45;&gt;Node30</title>
<path fill="none" stroke="midnightblue" d="M1229.35,-224.444C1256.27,-215.359 1299,-200.939 1329.09,-190.783"/>
<polygon fill="midnightblue" stroke="midnightblue" points="1330.41,-194.031 1338.77,-187.516 1328.17,-187.398 1330.41,-194.031"/>
</g>
<!-- Node30&#45;&gt;Node4 -->
<g id="edge47" class="edge"><title>Node30&#45;&gt;Node4</title>
<path fill="none" stroke="midnightblue" d="M1444.71,-176.194C1507.99,-172.156 1581.17,-157.905 1554,-112 1507.6,-33.5908 1203.41,-15.6951 1104.8,-11.9327"/>
<polygon fill="midnightblue" stroke="midnightblue" points="1104.72,-8.42764 1094.6,-11.5667 1104.47,-15.4231 1104.72,-8.42764"/>
</g>
<!-- Node30&#45;&gt;Node5 -->
<g id="edge48" class="edge"><title>Node30&#45;&gt;Node5</title>
<path fill="none" stroke="midnightblue" d="M1332.63,-168.444C1297.14,-158.766 1239.46,-143.034 1202.12,-132.852"/>
<polygon fill="midnightblue" stroke="midnightblue" points="1202.74,-129.391 1192.17,-130.137 1200.9,-136.145 1202.74,-129.391"/>
</g>
<!-- Node30&#45;&gt;Node8 -->
<g id="edge42" class="edge"><title>Node30&#45;&gt;Node8</title>
<path fill="none" stroke="midnightblue" d="M1283.47,-168.844C1280.61,-168.558 1277.78,-168.276 1275,-168 1144.27,-155.009 992.64,-140.272 900.034,-131.308"/>
<polygon fill="midnightblue" stroke="midnightblue" points="900.163,-127.804 889.873,-130.325 899.489,-134.772 900.163,-127.804"/>
</g>
<!-- Node30&#45;&gt;Node13 -->
<g id="edge43" class="edge"><title>Node30&#45;&gt;Node13</title>
<path fill="none" stroke="midnightblue" d="M1345.87,-168.276C1316.23,-154.362 1255.28,-127.175 1201,-112 1164.56,-101.814 1068.8,-86.811 1001.98,-76.9732"/>
<polygon fill="midnightblue" stroke="midnightblue" points="1002.33,-73.4873 991.926,-75.5003 1001.31,-80.4133 1002.33,-73.4873"/>
</g>
<!-- Node31 -->
<g id="node31" class="node"><title>Node31</title>
<g id="a_node31"><a xlink:href="TaskConfig_8h.html" target="_top" xlink:title="QualityControl/TaskConfig.h">
<polygon fill="none" stroke="black" points="1405,-112.5 1405,-131.5 1545,-131.5 1545,-112.5 1405,-112.5"/>
<text text-anchor="middle" x="1475" y="-119.5" font-family="Helvetica,sans-Serif" font-size="10.00">QualityControl/TaskConfig.h</text>
</a>
</g>
</g>
<!-- Node30&#45;&gt;Node31 -->
<g id="edge44" class="edge"><title>Node30&#45;&gt;Node31</title>
<path fill="none" stroke="midnightblue" d="M1381.83,-168.324C1399.72,-159.625 1427.48,-146.12 1448.05,-136.113"/>
<polygon fill="midnightblue" stroke="midnightblue" points="1449.75,-139.177 1457.21,-131.655 1446.69,-132.882 1449.75,-139.177"/>
</g>
<!-- Node31&#45;&gt;Node4 -->
<g id="edge45" class="edge"><title>Node31&#45;&gt;Node4</title>
<path fill="none" stroke="midnightblue" d="M1471.38,-112.043C1464.99,-97.5422 1450.27,-69.2191 1428,-56 1373.67,-23.7547 1181.19,-14.3258 1105.19,-11.825"/>
<polygon fill="midnightblue" stroke="midnightblue" points="1104.96,-8.3162 1094.86,-11.5044 1104.74,-15.3128 1104.96,-8.3162"/>
</g>
<!-- Node31&#45;&gt;Node7 -->
<g id="edge46" class="edge"><title>Node31&#45;&gt;Node7</title>
<path fill="none" stroke="midnightblue" d="M1459.25,-112.324C1443.68,-103.743 1419.62,-90.486 1401.54,-80.5224"/>
<polygon fill="midnightblue" stroke="midnightblue" points="1403.15,-77.4152 1392.71,-75.6545 1399.78,-83.546 1403.15,-77.4152"/>
</g>
</g>
</svg>
