<?xml version="1.0" encoding="UTF-8" standalone="no"?>
<!DOCTYPE svg PUBLIC "-//W3C//DTD SVG 1.1//EN"
 "http://www.w3.org/Graphics/SVG/1.1/DTD/svg11.dtd">
<!-- Generated by graphviz version 2.38.0 (20140413.2041)
 -->
<!-- Title: Framework/src/runAdvanced.cxx Pages: 1 -->
<svg width="871pt" height="151pt"
 viewBox="0.00 0.00 871.00 151.00" xmlns="http://www.w3.org/2000/svg" xmlns:xlink="http://www.w3.org/1999/xlink">
<g id="graph0" class="graph" transform="scale(1 1) rotate(0) translate(4 147)">
<title>Framework/src/runAdvanced.cxx</title>
<!-- Node1 -->
<g id="node1" class="node"><title>Node1</title>
<polygon fill="#bfbfbf" stroke="black" points="388,-123.5 388,-142.5 549,-142.5 549,-123.5 388,-123.5"/>
<text text-anchor="middle" x="468.5" y="-130.5" font-family="Helvetica,sans-Serif" font-size="10.00">Framework/src/runAdvanced.cxx</text>
</g>
<!-- Node2 -->
<g id="node2" class="node"><title>Node2</title>
<polygon fill="none" stroke="#bfbfbf" points="0,-56.5 0,-86.5 145,-86.5 145,-56.5 0,-56.5"/>
<text text-anchor="start" x="8" y="-74.5" font-family="Helvetica,sans-Serif" font-size="10.00">Framework/CompletionPolicy</text>
<text text-anchor="middle" x="72.5" y="-63.5" font-family="Helvetica,sans-Serif" font-size="10.00">Helpers.h</text>
</g>
<!-- Node1&#45;&gt;Node2 -->
<g id="edge1" class="edge"><title>Node1&#45;&gt;Node2</title>
<path fill="none" stroke="midnightblue" d="M404.66,-123.473C343.383,-115.148 247.962,-101.815 155.455,-87.1219"/>
<polygon fill="midnightblue" stroke="midnightblue" points="155.783,-83.63 145.357,-85.5105 154.68,-90.5426 155.783,-83.63"/>
</g>
<!-- Node3 -->
<g id="node3" class="node"><title>Node3</title>
<polygon fill="none" stroke="#bfbfbf" points="163.5,-62 163.5,-81 301.5,-81 301.5,-62 163.5,-62"/>
<text text-anchor="middle" x="232.5" y="-69" font-family="Helvetica,sans-Serif" font-size="10.00">Framework/DataSampling.h</text>
</g>
<!-- Node1&#45;&gt;Node3 -->
<g id="edge2" class="edge"><title>Node1&#45;&gt;Node3</title>
<path fill="none" stroke="midnightblue" d="M434.687,-123.475C392.978,-112.959 321.988,-95.0615 276.186,-83.5142"/>
<polygon fill="midnightblue" stroke="midnightblue" points="276.803,-80.06 266.25,-81.0091 275.091,-86.8476 276.803,-80.06"/>
</g>
<!-- Node4 -->
<g id="node4" class="node"><title>Node4</title>
<polygon fill="none" stroke="#bfbfbf" points="319.5,-62 319.5,-81 459.5,-81 459.5,-62 319.5,-62"/>
<text text-anchor="middle" x="389.5" y="-69" font-family="Helvetica,sans-Serif" font-size="10.00">Framework/DataSpecUtils.h</text>
</g>
<!-- Node1&#45;&gt;Node4 -->
<g id="edge3" class="edge"><title>Node1&#45;&gt;Node4</title>
<path fill="none" stroke="midnightblue" d="M457.181,-123.475C444.627,-114.02 424.149,-98.5961 409.001,-87.1871"/>
<polygon fill="midnightblue" stroke="midnightblue" points="410.891,-84.2295 400.798,-81.0091 406.68,-89.821 410.891,-84.2295"/>
</g>
<!-- Node5 -->
<g id="node5" class="node"><title>Node5</title>
<g id="a_node5"><a xlink:href="InfrastructureGenerator_8h.html" target="_top" xlink:title="QualityControl/Infrastructure\lGenerator.h">
<polygon fill="none" stroke="black" points="477.5,-56.5 477.5,-86.5 617.5,-86.5 617.5,-56.5 477.5,-56.5"/>
<text text-anchor="start" x="485.5" y="-74.5" font-family="Helvetica,sans-Serif" font-size="10.00">QualityControl/Infrastructure</text>
<text text-anchor="middle" x="547.5" y="-63.5" font-family="Helvetica,sans-Serif" font-size="10.00">Generator.h</text>
</a>
</g>
</g>
<!-- Node1&#45;&gt;Node5 -->
<g id="edge4" class="edge"><title>Node1&#45;&gt;Node5</title>
<path fill="none" stroke="midnightblue" d="M479.819,-123.475C490.418,-115.492 506.667,-103.254 520.586,-92.7703"/>
<polygon fill="midnightblue" stroke="midnightblue" points="522.999,-95.3349 528.881,-86.523 518.788,-89.7434 522.999,-95.3349"/>
</g>
<!-- Node9 -->
<g id="node9" class="node"><title>Node9</title>
<polygon fill="none" stroke="#bfbfbf" points="635.5,-62 635.5,-81 795.5,-81 795.5,-62 635.5,-62"/>
<text text-anchor="middle" x="715.5" y="-69" font-family="Helvetica,sans-Serif" font-size="10.00">Framework/runDataProcessing.h</text>
</g>
<!-- Node1&#45;&gt;Node9 -->
<g id="edge8" class="edge"><title>Node1&#45;&gt;Node9</title>
<path fill="none" stroke="midnightblue" d="M503.889,-123.475C547.726,-112.915 622.466,-94.911 670.38,-83.3689"/>
<polygon fill="midnightblue" stroke="midnightblue" points="671.274,-86.7537 680.177,-81.0091 669.635,-79.9484 671.274,-86.7537"/>
</g>
<!-- Node10 -->
<g id="node10" class="node"><title>Node10</title>
<polygon fill="none" stroke="#bfbfbf" points="814,-62 814,-81 863,-81 863,-62 814,-62"/>
<text text-anchor="middle" x="838.5" y="-69" font-family="Helvetica,sans-Serif" font-size="10.00">random</text>
</g>
<!-- Node1&#45;&gt;Node10 -->
<g id="edge9" class="edge"><title>Node1&#45;&gt;Node10</title>
<path fill="none" stroke="midnightblue" d="M549.142,-127.327C617.976,-121.894 719.089,-110.466 804.5,-87 806.797,-86.3689 809.143,-85.6158 811.476,-84.7895"/>
<polygon fill="midnightblue" stroke="midnightblue" points="812.805,-88.0275 820.826,-81.1049 810.239,-81.5149 812.805,-88.0275"/>
</g>
<!-- Node6 -->
<g id="node6" class="node"><title>Node6</title>
<polygon fill="none" stroke="#bfbfbf" points="464.5,-0.5 464.5,-19.5 508.5,-19.5 508.5,-0.5 464.5,-0.5"/>
<text text-anchor="middle" x="486.5" y="-7.5" font-family="Helvetica,sans-Serif" font-size="10.00">vector</text>
</g>
<!-- Node5&#45;&gt;Node6 -->
<g id="edge5" class="edge"><title>Node5&#45;&gt;Node6</title>
<path fill="none" stroke="midnightblue" d="M533.044,-56.3993C523.906,-47.4859 512.081,-35.9523 502.638,-26.7408"/>
<polygon fill="midnightblue" stroke="midnightblue" points="504.978,-24.1348 495.376,-19.6578 500.091,-29.1458 504.978,-24.1348"/>
</g>
<!-- Node7 -->
<g id="node7" class="node"><title>Node7</title>
<polygon fill="none" stroke="#bfbfbf" points="527,-0.5 527,-19.5 568,-19.5 568,-0.5 527,-0.5"/>
<text text-anchor="middle" x="547.5" y="-7.5" font-family="Helvetica,sans-Serif" font-size="10.00">string</text>
</g>
<!-- Node5&#45;&gt;Node7 -->
<g id="edge6" class="edge"><title>Node5&#45;&gt;Node7</title>
<path fill="none" stroke="midnightblue" d="M547.5,-56.3993C547.5,-48.4664 547.5,-38.458 547.5,-29.8583"/>
<polygon fill="midnightblue" stroke="midnightblue" points="551,-29.6577 547.5,-19.6578 544,-29.6578 551,-29.6577"/>
</g>
<!-- Node8 -->
<g id="node8" class="node"><title>Node8</title>
<polygon fill="none" stroke="#bfbfbf" points="586.5,-0.5 586.5,-19.5 726.5,-19.5 726.5,-0.5 586.5,-0.5"/>
<text text-anchor="middle" x="656.5" y="-7.5" font-family="Helvetica,sans-Serif" font-size="10.00">Framework/WorkflowSpec.h</text>
</g>
<!-- Node5&#45;&gt;Node8 -->
<g id="edge7" class="edge"><title>Node5&#45;&gt;Node8</title>
<path fill="none" stroke="midnightblue" d="M573.331,-56.3993C590.967,-46.7728 614.2,-34.0902 631.628,-24.5772"/>
<polygon fill="midnightblue" stroke="midnightblue" points="633.539,-27.5213 640.64,-19.6578 630.185,-21.3771 633.539,-27.5213"/>
</g>
</g>
</svg>
