<?xml version="1.0" encoding="UTF-8" standalone="no"?>
<!DOCTYPE svg PUBLIC "-//W3C//DTD SVG 1.1//EN"
 "http://www.w3.org/Graphics/SVG/1.1/DTD/svg11.dtd">
<!-- Generated by graphviz version 2.38.0 (20140413.2041)
 -->
<!-- Title: Framework/src/runBasic.cxx Pages: 1 -->
<svg width="2376pt" height="442pt"
 viewBox="0.00 0.00 2376.08 442.00" xmlns="http://www.w3.org/2000/svg" xmlns:xlink="http://www.w3.org/1999/xlink">
<g id="graph0" class="graph" transform="scale(1 1) rotate(0) translate(4 438)">
<title>Framework/src/runBasic.cxx</title>
<!-- Node1 -->
<g id="node1" class="node"><title>Node1</title>
<polygon fill="#bfbfbf" stroke="black" points="1510.08,-414.5 1510.08,-433.5 1652.08,-433.5 1652.08,-414.5 1510.08,-414.5"/>
<text text-anchor="middle" x="1581.08" y="-421.5" font-family="Helvetica,sans-Serif" font-size="10.00">Framework/src/runBasic.cxx</text>
</g>
<!-- Node2 -->
<g id="node2" class="node"><title>Node2</title>
<polygon fill="none" stroke="#bfbfbf" points="33.0763,-358.5 33.0763,-377.5 171.076,-377.5 171.076,-358.5 33.0763,-358.5"/>
<text text-anchor="middle" x="102.076" y="-365.5" font-family="Helvetica,sans-Serif" font-size="10.00">Framework/DataSampling.h</text>
</g>
<!-- Node1&#45;&gt;Node2 -->
<g id="edge1" class="edge"><title>Node1&#45;&gt;Node2</title>
<path fill="none" stroke="midnightblue" d="M1509.79,-422.608C1304.09,-421.067 691.838,-413.591 185.076,-378 183.956,-377.921 182.827,-377.839 181.692,-377.754"/>
<polygon fill="midnightblue" stroke="midnightblue" points="181.585,-374.233 171.333,-376.907 181.014,-381.21 181.585,-374.233"/>
</g>
<!-- Node3 -->
<g id="node3" class="node"><title>Node3</title>
<g id="a_node3"><a xlink:href="InfrastructureGenerator_8h.html" target="_top" xlink:title="QualityControl/Infrastructure\lGenerator.h">
<polygon fill="none" stroke="black" points="2042.08,-168.5 2042.08,-198.5 2182.08,-198.5 2182.08,-168.5 2042.08,-168.5"/>
<text text-anchor="start" x="2050.08" y="-186.5" font-family="Helvetica,sans-Serif" font-size="10.00">QualityControl/Infrastructure</text>
<text text-anchor="middle" x="2112.08" y="-175.5" font-family="Helvetica,sans-Serif" font-size="10.00">Generator.h</text>
</a>
</g>
</g>
<!-- Node1&#45;&gt;Node3 -->
<g id="edge2" class="edge"><title>Node1&#45;&gt;Node3</title>
<path fill="none" stroke="midnightblue" d="M1652.22,-418.962C1753.98,-412.567 1935.7,-398.677 1998.08,-378 2044.6,-362.579 2065.9,-362.788 2093.08,-322 2115.83,-287.857 2116.72,-238.314 2114.77,-208.954"/>
<polygon fill="midnightblue" stroke="midnightblue" points="2118.24,-208.44 2113.92,-198.765 2111.26,-209.021 2118.24,-208.44"/>
</g>
<!-- Node5 -->
<g id="node5" class="node"><title>Node5</title>
<polygon fill="none" stroke="#bfbfbf" points="1392.58,-0.5 1392.58,-19.5 1433.58,-19.5 1433.58,-0.5 1392.58,-0.5"/>
<text text-anchor="middle" x="1413.08" y="-7.5" font-family="Helvetica,sans-Serif" font-size="10.00">string</text>
</g>
<!-- Node1&#45;&gt;Node5 -->
<g id="edge7" class="edge"><title>Node1&#45;&gt;Node5</title>
<path fill="none" stroke="midnightblue" d="M1509.68,-420.812C1226.69,-411.678 199.076,-373.937 199.076,-307.5 199.076,-307.5 199.076,-307.5 199.076,-121 199.076,-94.2328 -422.892,-164.986 533.076,-56 864.373,-18.2302 1269.47,-12.1551 1382.52,-11.1836"/>
<polygon fill="midnightblue" stroke="midnightblue" points="1382.56,-14.6835 1392.53,-11.1047 1382.51,-7.68371 1382.56,-14.6835"/>
</g>
<!-- Node7 -->
<g id="node7" class="node"><title>Node7</title>
<polygon fill="none" stroke="#bfbfbf" points="2140.58,-358.5 2140.58,-377.5 2189.58,-377.5 2189.58,-358.5 2140.58,-358.5"/>
<text text-anchor="middle" x="2165.08" y="-365.5" font-family="Helvetica,sans-Serif" font-size="10.00">random</text>
</g>
<!-- Node1&#45;&gt;Node7 -->
<g id="edge6" class="edge"><title>Node1&#45;&gt;Node7</title>
<path fill="none" stroke="midnightblue" d="M1652.45,-420.395C1756.94,-415.839 1957.46,-404.277 2126.08,-378 2127.54,-377.773 2129.02,-377.521 2130.52,-377.251"/>
<polygon fill="midnightblue" stroke="midnightblue" points="2131.31,-380.661 2140.42,-375.255 2129.93,-373.799 2131.31,-380.661"/>
</g>
<!-- Node8 -->
<g id="node8" class="node"><title>Node8</title>
<polygon fill="none" stroke="#bfbfbf" points="2208.08,-358.5 2208.08,-377.5 2368.08,-377.5 2368.08,-358.5 2208.08,-358.5"/>
<text text-anchor="middle" x="2288.08" y="-365.5" font-family="Helvetica,sans-Serif" font-size="10.00">Framework/runDataProcessing.h</text>
</g>
<!-- Node1&#45;&gt;Node8 -->
<g id="edge8" class="edge"><title>Node1&#45;&gt;Node8</title>
<path fill="none" stroke="midnightblue" d="M1652.5,-418.453C1765.77,-411.098 1993.84,-395.7 2198.02,-378.069"/>
<polygon fill="midnightblue" stroke="midnightblue" points="2198.37,-381.552 2208.03,-377.201 2197.77,-374.578 2198.37,-381.552"/>
</g>
<!-- Node9 -->
<g id="node9" class="node"><title>Node9</title>
<g id="a_node9"><a xlink:href="Checker_8h.html" target="_top" xlink:title="QualityControl/Checker.h">
<polygon fill="none" stroke="black" points="1178.58,-358.5 1178.58,-377.5 1305.58,-377.5 1305.58,-358.5 1178.58,-358.5"/>
<text text-anchor="middle" x="1242.08" y="-365.5" font-family="Helvetica,sans-Serif" font-size="10.00">QualityControl/Checker.h</text>
</a>
</g>
</g>
<!-- Node1&#45;&gt;Node9 -->
<g id="edge9" class="edge"><title>Node1&#45;&gt;Node9</title>
<path fill="none" stroke="midnightblue" d="M1527.36,-414.444C1467.11,-404.846 1369.46,-389.292 1305.51,-379.104"/>
<polygon fill="midnightblue" stroke="midnightblue" points="1305.97,-375.633 1295.54,-377.516 1304.87,-382.546 1305.97,-375.633"/>
</g>
<!-- Node32 -->
<g id="node32" class="node"><title>Node32</title>
<g id="a_node32"><a xlink:href="runnerUtils_8h.html" target="_top" xlink:title="QualityControl/runnerUtils.h">
<polygon fill="none" stroke="black" points="1851.58,-358.5 1851.58,-377.5 1988.58,-377.5 1988.58,-358.5 1851.58,-358.5"/>
<text text-anchor="middle" x="1920.08" y="-365.5" font-family="Helvetica,sans-Serif" font-size="10.00">QualityControl/runnerUtils.h</text>
</a>
</g>
</g>
<!-- Node1&#45;&gt;Node32 -->
<g id="edge56" class="edge"><title>Node1&#45;&gt;Node32</title>
<path fill="none" stroke="midnightblue" d="M1634.79,-414.444C1695.05,-404.846 1792.69,-389.292 1856.65,-379.104"/>
<polygon fill="midnightblue" stroke="midnightblue" points="1857.29,-382.546 1866.61,-377.516 1856.19,-375.633 1857.29,-382.546"/>
</g>
<!-- Node34 -->
<g id="node34" class="node"><title>Node34</title>
<g id="a_node34"><a xlink:href="ExamplePrinterSpec_8h.html" target="_top" xlink:title="QualityControl/ExamplePrinter\lSpec.h">
<polygon fill="none" stroke="black" points="450.576,-168.5 450.576,-198.5 599.576,-198.5 599.576,-168.5 450.576,-168.5"/>
<text text-anchor="start" x="458.576" y="-186.5" font-family="Helvetica,sans-Serif" font-size="10.00">QualityControl/ExamplePrinter</text>
<text text-anchor="middle" x="525.076" y="-175.5" font-family="Helvetica,sans-Serif" font-size="10.00">Spec.h</text>
</a>
</g>
</g>
<!-- Node1&#45;&gt;Node34 -->
<g id="edge59" class="edge"><title>Node1&#45;&gt;Node34</title>
<path fill="none" stroke="midnightblue" d="M1509.84,-421.82C1318.65,-417.636 798.534,-399.265 648.076,-322 597.25,-295.899 557.532,-239.406 538.122,-207.553"/>
<polygon fill="midnightblue" stroke="midnightblue" points="541.093,-205.702 532.976,-198.893 535.076,-209.278 541.093,-205.702"/>
</g>
<!-- Node4 -->
<g id="node4" class="node"><title>Node4</title>
<polygon fill="none" stroke="#bfbfbf" points="1734.08,-112.5 1734.08,-131.5 1778.08,-131.5 1778.08,-112.5 1734.08,-112.5"/>
<text text-anchor="middle" x="1756.08" y="-119.5" font-family="Helvetica,sans-Serif" font-size="10.00">vector</text>
</g>
<!-- Node3&#45;&gt;Node4 -->
<g id="edge3" class="edge"><title>Node3&#45;&gt;Node4</title>
<path fill="none" stroke="midnightblue" d="M2041.74,-170.745C1964.87,-157.896 1845.07,-137.874 1788.17,-128.364"/>
<polygon fill="midnightblue" stroke="midnightblue" points="1788.74,-124.911 1778.3,-126.715 1787.59,-131.815 1788.74,-124.911"/>
</g>
<!-- Node3&#45;&gt;Node5 -->
<g id="edge4" class="edge"><title>Node3&#45;&gt;Node5</title>
<path fill="none" stroke="midnightblue" d="M2099.57,-168.41C2091.08,-158.545 2079.86,-144.876 2071.08,-132 2049.21,-99.9345 2060.87,-76.762 2028.08,-56 1978.41,-24.5514 1561.25,-13.9415 1443.76,-11.5622"/>
<polygon fill="midnightblue" stroke="midnightblue" points="1443.72,-8.0608 1433.65,-11.363 1443.58,-15.0594 1443.72,-8.0608"/>
</g>
<!-- Node6 -->
<g id="node6" class="node"><title>Node6</title>
<polygon fill="none" stroke="#bfbfbf" points="2080.08,-112.5 2080.08,-131.5 2220.08,-131.5 2220.08,-112.5 2080.08,-112.5"/>
<text text-anchor="middle" x="2150.08" y="-119.5" font-family="Helvetica,sans-Serif" font-size="10.00">Framework/WorkflowSpec.h</text>
</g>
<!-- Node3&#45;&gt;Node6 -->
<g id="edge5" class="edge"><title>Node3&#45;&gt;Node6</title>
<path fill="none" stroke="midnightblue" d="M2121.08,-168.399C2126.49,-159.932 2133.41,-149.099 2139.13,-140.139"/>
<polygon fill="midnightblue" stroke="midnightblue" points="2142.11,-141.97 2144.55,-131.658 2136.21,-138.202 2142.11,-141.97"/>
</g>
<!-- Node9&#45;&gt;Node4 -->
<g id="edge14" class="edge"><title>Node9&#45;&gt;Node4</title>
<path fill="none" stroke="midnightblue" d="M1305.72,-366.1C1368.81,-363.271 1467.19,-353.563 1546.08,-322 1640.82,-284.091 1717.45,-181.009 1745.04,-140.081"/>
<polygon fill="midnightblue" stroke="midnightblue" points="1747.98,-141.979 1750.58,-131.709 1742.15,-138.117 1747.98,-141.979"/>
</g>
<!-- Node9&#45;&gt;Node5 -->
<g id="edge12" class="edge"><title>Node9&#45;&gt;Node5</title>
<path fill="none" stroke="midnightblue" d="M1196.44,-358.495C1158.16,-350.775 1102.32,-338.139 1055.08,-322 1023.26,-311.131 1017.38,-303.254 986.076,-291 861.775,-242.345 655.107,-288.718 712.076,-168 771.102,-42.9266 1254,-16.7296 1382.02,-11.9612"/>
<polygon fill="midnightblue" stroke="midnightblue" points="1382.42,-15.4493 1392.29,-11.597 1382.17,-8.45371 1382.42,-15.4493"/>
</g>
<!-- Node10 -->
<g id="node10" class="node"><title>Node10</title>
<polygon fill="none" stroke="#bfbfbf" points="686.076,-297 686.076,-316 732.076,-316 732.076,-297 686.076,-297"/>
<text text-anchor="middle" x="709.076" y="-304" font-family="Helvetica,sans-Serif" font-size="10.00">chrono</text>
</g>
<!-- Node9&#45;&gt;Node10 -->
<g id="edge10" class="edge"><title>Node9&#45;&gt;Node10</title>
<path fill="none" stroke="midnightblue" d="M1178.54,-363.949C1062.8,-357.95 822.042,-343.323 741.076,-322 738.92,-321.432 736.727,-320.731 734.551,-319.945"/>
<polygon fill="midnightblue" stroke="midnightblue" points="735.875,-316.705 725.296,-316.12 733.201,-323.174 735.875,-316.705"/>
</g>
<!-- Node11 -->
<g id="node11" class="node"><title>Node11</title>
<polygon fill="none" stroke="#bfbfbf" points="1108.08,-112.5 1108.08,-131.5 1160.08,-131.5 1160.08,-112.5 1108.08,-112.5"/>
<text text-anchor="middle" x="1134.08" y="-119.5" font-family="Helvetica,sans-Serif" font-size="10.00">memory</text>
</g>
<!-- Node9&#45;&gt;Node11 -->
<g id="edge11" class="edge"><title>Node9&#45;&gt;Node11</title>
<path fill="none" stroke="midnightblue" d="M1242.8,-358.398C1244.85,-328.679 1247.84,-228.827 1202.08,-168 1191.98,-154.58 1176.64,-143.935 1163.08,-136.374"/>
<polygon fill="midnightblue" stroke="midnightblue" points="1164.55,-133.191 1154.07,-131.637 1161.29,-139.387 1164.55,-133.191"/>
</g>
<!-- Node12 -->
<g id="node12" class="node"><title>Node12</title>
<polygon fill="none" stroke="#bfbfbf" points="1748.58,-56.5 1748.58,-75.5 1783.58,-75.5 1783.58,-56.5 1748.58,-56.5"/>
<text text-anchor="middle" x="1766.08" y="-63.5" font-family="Helvetica,sans-Serif" font-size="10.00">map</text>
</g>
<!-- Node9&#45;&gt;Node12 -->
<g id="edge13" class="edge"><title>Node9&#45;&gt;Node12</title>
<path fill="none" stroke="midnightblue" d="M1305.72,-362.69C1390.86,-356.239 1536.83,-342.588 1586.08,-322 1699.49,-274.587 1742.71,-246.641 1787.08,-132 1793.28,-115.981 1785.74,-97.2807 1778.02,-84.0615"/>
<polygon fill="midnightblue" stroke="midnightblue" points="1780.9,-82.0645 1772.57,-75.5213 1775,-85.8328 1780.9,-82.0645"/>
</g>
<!-- Node13 -->
<g id="node13" class="node"><title>Node13</title>
<polygon fill="none" stroke="#bfbfbf" points="750.076,-297 750.076,-316 842.076,-316 842.076,-297 750.076,-297"/>
<text text-anchor="middle" x="796.076" y="-304" font-family="Helvetica,sans-Serif" font-size="10.00">Common/Timer.h</text>
</g>
<!-- Node9&#45;&gt;Node13 -->
<g id="edge15" class="edge"><title>Node9&#45;&gt;Node13</title>
<path fill="none" stroke="midnightblue" d="M1178.34,-362.484C1100.59,-356.328 965.398,-343.534 851.076,-322 845.932,-321.031 840.559,-319.841 835.273,-318.564"/>
<polygon fill="midnightblue" stroke="midnightblue" points="835.853,-315.1 825.299,-316.035 834.132,-321.886 835.853,-315.1"/>
</g>
<!-- Node14 -->
<g id="node14" class="node"><title>Node14</title>
<polygon fill="none" stroke="#bfbfbf" points="573.076,-112.5 573.076,-131.5 671.076,-131.5 671.076,-112.5 573.076,-112.5"/>
<text text-anchor="middle" x="622.076" y="-119.5" font-family="Helvetica,sans-Serif" font-size="10.00">Framework/Task.h</text>
</g>
<!-- Node9&#45;&gt;Node14 -->
<g id="edge16" class="edge"><title>Node9&#45;&gt;Node14</title>
<path fill="none" stroke="midnightblue" d="M1178.5,-365.985C1038.93,-363.185 715.036,-353.349 677.076,-322 622.24,-276.713 619.367,-182.084 620.849,-141.804"/>
<polygon fill="midnightblue" stroke="midnightblue" points="624.357,-141.728 621.37,-131.563 617.366,-141.373 624.357,-141.728"/>
</g>
<!-- Node15 -->
<g id="node15" class="node"><title>Node15</title>
<polygon fill="none" stroke="#bfbfbf" points="860.576,-297 860.576,-316 977.576,-316 977.576,-297 860.576,-297"/>
<text text-anchor="middle" x="919.076" y="-304" font-family="Helvetica,sans-Serif" font-size="10.00">Headers/DataHeader.h</text>
</g>
<!-- Node9&#45;&gt;Node15 -->
<g id="edge17" class="edge"><title>Node9&#45;&gt;Node15</title>
<path fill="none" stroke="midnightblue" d="M1193.17,-358.464C1142.73,-349.6 1061.84,-335.206 992.076,-322 985.423,-320.741 978.434,-319.389 971.527,-318.036"/>
<polygon fill="midnightblue" stroke="midnightblue" points="972.001,-314.562 961.513,-316.063 970.647,-321.43 972.001,-314.562"/>
</g>
<!-- Node16 -->
<g id="node16" class="node"><title>Node16</title>
<g id="a_node16"><a xlink:href="CheckInterface_8h.html" target="_top" xlink:title="QualityControl/CheckInterface.h">
<polygon fill="none" stroke="black" points="1828.58,-174 1828.58,-193 1985.58,-193 1985.58,-174 1828.58,-174"/>
<text text-anchor="middle" x="1907.08" y="-181" font-family="Helvetica,sans-Serif" font-size="10.00">QualityControl/CheckInterface.h</text>
</a>
</g>
</g>
<!-- Node9&#45;&gt;Node16 -->
<g id="edge18" class="edge"><title>Node9&#45;&gt;Node16</title>
<path fill="none" stroke="midnightblue" d="M1305.77,-365.089C1445.72,-360.448 1771.01,-347.079 1814.08,-322 1860.86,-294.758 1889.06,-233.458 1900.76,-202.752"/>
<polygon fill="midnightblue" stroke="midnightblue" points="1904.08,-203.867 1904.21,-193.273 1897.5,-201.471 1904.08,-203.867"/>
</g>
<!-- Node18 -->
<g id="node18" class="node"><title>Node18</title>
<g id="a_node18"><a xlink:href="MonitorObject_8h.html" target="_top" xlink:title="QualityControl/MonitorObject.h">
<polygon fill="none" stroke="black" points="1488.58,-112.5 1488.58,-131.5 1639.58,-131.5 1639.58,-112.5 1488.58,-112.5"/>
<text text-anchor="middle" x="1564.08" y="-119.5" font-family="Helvetica,sans-Serif" font-size="10.00">QualityControl/MonitorObject.h</text>
</a>
</g>
</g>
<!-- Node9&#45;&gt;Node18 -->
<g id="edge37" class="edge"><title>Node9&#45;&gt;Node18</title>
<path fill="none" stroke="midnightblue" d="M1305.91,-363.262C1403.27,-353.708 1586.08,-319.743 1667.08,-199 1674.75,-187.558 1674.62,-179.529 1667.08,-168 1656.57,-151.949 1638.95,-141.59 1621.22,-134.918"/>
<polygon fill="midnightblue" stroke="midnightblue" points="1622,-131.487 1611.41,-131.578 1619.75,-138.113 1622,-131.487"/>
</g>
<!-- Node22 -->
<g id="node22" class="node"><title>Node22</title>
<g id="a_node22"><a xlink:href="DatabaseInterface_8h.html" target="_top" xlink:title="QualityControl/DatabaseInterface.h">
<polygon fill="none" stroke="black" points="1488.08,-174 1488.08,-193 1658.08,-193 1658.08,-174 1488.08,-174"/>
<text text-anchor="middle" x="1573.08" y="-181" font-family="Helvetica,sans-Serif" font-size="10.00">QualityControl/DatabaseInterface.h</text>
</a>
</g>
</g>
<!-- Node9&#45;&gt;Node22 -->
<g id="edge31" class="edge"><title>Node9&#45;&gt;Node22</title>
<path fill="none" stroke="midnightblue" d="M1257.6,-358.442C1310.48,-329.285 1483.92,-233.657 1548.53,-198.034"/>
<polygon fill="midnightblue" stroke="midnightblue" points="1550.52,-200.932 1557.59,-193.039 1547.14,-194.802 1550.52,-200.932"/>
</g>
<!-- Node24 -->
<g id="node24" class="node"><title>Node24</title>
<g id="a_node24"><a xlink:href="QcInfoLogger_8h.html" target="_top" xlink:title="QualityControl/QcInfoLogger.h">
<polygon fill="none" stroke="black" points="1064.58,-297 1064.58,-316 1213.58,-316 1213.58,-297 1064.58,-297"/>
<text text-anchor="middle" x="1139.08" y="-304" font-family="Helvetica,sans-Serif" font-size="10.00">QualityControl/QcInfoLogger.h</text>
</a>
</g>
</g>
<!-- Node9&#45;&gt;Node24 -->
<g id="edge38" class="edge"><title>Node9&#45;&gt;Node24</title>
<path fill="none" stroke="midnightblue" d="M1227.32,-358.475C1210.42,-348.711 1182.49,-332.581 1162.59,-321.081"/>
<polygon fill="midnightblue" stroke="midnightblue" points="1164.22,-317.981 1153.81,-316.009 1160.71,-324.042 1164.22,-317.981"/>
</g>
<!-- Node16&#45;&gt;Node5 -->
<g id="edge19" class="edge"><title>Node16&#45;&gt;Node5</title>
<path fill="none" stroke="midnightblue" d="M1913.13,-173.798C1928.06,-151.188 1963.25,-89.9884 1932.08,-56 1898.98,-19.9114 1550.47,-12.6777 1443.88,-11.3054"/>
<polygon fill="midnightblue" stroke="midnightblue" points="1443.81,-7.80451 1433.77,-11.1838 1443.73,-14.804 1443.81,-7.80451"/>
</g>
<!-- Node17 -->
<g id="node17" class="node"><title>Node17</title>
<polygon fill="none" stroke="#bfbfbf" points="1834.08,-0.5 1834.08,-19.5 1890.08,-19.5 1890.08,-0.5 1834.08,-0.5"/>
<text text-anchor="middle" x="1862.08" y="-7.5" font-family="Helvetica,sans-Serif" font-size="10.00">Rtypes.h</text>
</g>
<!-- Node16&#45;&gt;Node17 -->
<g id="edge20" class="edge"><title>Node16&#45;&gt;Node17</title>
<path fill="none" stroke="midnightblue" d="M1916.96,-173.756C1939.73,-152.536 1991.93,-97.0393 1965.08,-56 1950.74,-34.0953 1923.15,-22.7908 1900.13,-16.9919"/>
<polygon fill="midnightblue" stroke="midnightblue" points="1900.79,-13.5537 1890.26,-14.7628 1899.25,-20.3814 1900.79,-13.5537"/>
</g>
<!-- Node16&#45;&gt;Node18 -->
<g id="edge21" class="edge"><title>Node16&#45;&gt;Node18</title>
<path fill="none" stroke="midnightblue" d="M1857.93,-173.975C1795.91,-163.216 1689.35,-144.73 1623.01,-133.224"/>
<polygon fill="midnightblue" stroke="midnightblue" points="1623.58,-129.77 1613.13,-131.509 1622.38,-136.667 1623.58,-129.77"/>
</g>
<!-- Node21 -->
<g id="node21" class="node"><title>Node21</title>
<g id="a_node21"><a xlink:href="Quality_8h.html" target="_top" xlink:title="QualityControl/Quality.h">
<polygon fill="none" stroke="black" points="1801.58,-56.5 1801.58,-75.5 1922.58,-75.5 1922.58,-56.5 1801.58,-56.5"/>
<text text-anchor="middle" x="1862.08" y="-63.5" font-family="Helvetica,sans-Serif" font-size="10.00">QualityControl/Quality.h</text>
</a>
</g>
</g>
<!-- Node16&#45;&gt;Node21 -->
<g id="edge30" class="edge"><title>Node16&#45;&gt;Node21</title>
<path fill="none" stroke="midnightblue" d="M1903.69,-173.819C1896.4,-155.09 1879.04,-110.546 1869.2,-85.2924"/>
<polygon fill="midnightblue" stroke="midnightblue" points="1872.39,-83.8292 1865.5,-75.782 1865.87,-86.3704 1872.39,-83.8292"/>
</g>
<!-- Node18&#45;&gt;Node5 -->
<g id="edge22" class="edge"><title>Node18&#45;&gt;Node5</title>
<path fill="none" stroke="midnightblue" d="M1548.08,-112.428C1532.55,-103.874 1508.55,-90.0178 1489.08,-76 1467.44,-60.4225 1444.41,-40.1448 1429.45,-26.411"/>
<polygon fill="midnightblue" stroke="midnightblue" points="1431.74,-23.7602 1422.03,-19.5258 1426.98,-28.8924 1431.74,-23.7602"/>
</g>
<!-- Node18&#45;&gt;Node12 -->
<g id="edge23" class="edge"><title>Node18&#45;&gt;Node12</title>
<path fill="none" stroke="midnightblue" d="M1597.02,-112.439C1631.3,-103.495 1686.51,-88.9837 1734.08,-76 1735.54,-75.6011 1737.04,-75.1893 1738.55,-74.7716"/>
<polygon fill="midnightblue" stroke="midnightblue" points="1739.79,-78.0582 1748.48,-72.0002 1737.91,-71.3155 1739.79,-78.0582"/>
</g>
<!-- Node18&#45;&gt;Node17 -->
<g id="edge24" class="edge"><title>Node18&#45;&gt;Node17</title>
<path fill="none" stroke="midnightblue" d="M1594.5,-112.497C1622.6,-104.296 1665.27,-90.9539 1701.08,-76 1719.05,-68.4931 1722.24,-63.8292 1740.08,-56 1768.6,-43.4797 1801.82,-31.3824 1826.39,-22.8898"/>
<polygon fill="midnightblue" stroke="midnightblue" points="1827.69,-26.1443 1836.01,-19.5931 1825.42,-19.5219 1827.69,-26.1443"/>
</g>
<!-- Node19 -->
<g id="node19" class="node"><title>Node19</title>
<polygon fill="none" stroke="#bfbfbf" points="1498.58,-56.5 1498.58,-75.5 1557.58,-75.5 1557.58,-56.5 1498.58,-56.5"/>
<text text-anchor="middle" x="1528.08" y="-63.5" font-family="Helvetica,sans-Serif" font-size="10.00">TObject.h</text>
</g>
<!-- Node18&#45;&gt;Node19 -->
<g id="edge25" class="edge"><title>Node18&#45;&gt;Node19</title>
<path fill="none" stroke="midnightblue" d="M1558.13,-112.083C1553.1,-104.534 1545.74,-93.4948 1539.56,-84.2298"/>
<polygon fill="midnightblue" stroke="midnightblue" points="1542.37,-82.1301 1533.91,-75.7511 1536.55,-86.0131 1542.37,-82.1301"/>
</g>
<!-- Node20 -->
<g id="node20" class="node"><title>Node20</title>
<polygon fill="none" stroke="#bfbfbf" points="1576.08,-56.5 1576.08,-75.5 1692.08,-75.5 1692.08,-56.5 1576.08,-56.5"/>
<text text-anchor="middle" x="1634.08" y="-63.5" font-family="Helvetica,sans-Serif" font-size="10.00">Common/Exceptions.h</text>
</g>
<!-- Node18&#45;&gt;Node20 -->
<g id="edge26" class="edge"><title>Node18&#45;&gt;Node20</title>
<path fill="none" stroke="midnightblue" d="M1575.32,-112.324C1585.87,-104.185 1601.88,-91.8395 1614.52,-82.0874"/>
<polygon fill="midnightblue" stroke="midnightblue" points="1616.84,-84.7132 1622.62,-75.8339 1612.57,-79.1707 1616.84,-84.7132"/>
</g>
<!-- Node18&#45;&gt;Node21 -->
<g id="edge27" class="edge"><title>Node18&#45;&gt;Node21</title>
<path fill="none" stroke="midnightblue" d="M1611.3,-112.444C1663.83,-102.925 1748.69,-87.5472 1804.92,-77.3563"/>
<polygon fill="midnightblue" stroke="midnightblue" points="1805.86,-80.7435 1815.08,-75.5164 1804.61,-73.8556 1805.86,-80.7435"/>
</g>
<!-- Node21&#45;&gt;Node5 -->
<g id="edge29" class="edge"><title>Node21&#45;&gt;Node5</title>
<path fill="none" stroke="midnightblue" d="M1801.5,-57.0575C1798.65,-56.6971 1795.83,-56.3431 1793.08,-56 1663.45,-39.8716 1508.78,-21.9719 1444,-14.5364"/>
<polygon fill="midnightblue" stroke="midnightblue" points="1444.02,-11.0154 1433.68,-13.3534 1443.22,-17.9699 1444.02,-11.0154"/>
</g>
<!-- Node21&#45;&gt;Node17 -->
<g id="edge28" class="edge"><title>Node21&#45;&gt;Node17</title>
<path fill="none" stroke="midnightblue" d="M1862.08,-56.083C1862.08,-49.0059 1862.08,-38.8611 1862.08,-29.9865"/>
<polygon fill="midnightblue" stroke="midnightblue" points="1865.58,-29.751 1862.08,-19.7511 1858.58,-29.7511 1865.58,-29.751"/>
</g>
<!-- Node22&#45;&gt;Node4 -->
<g id="edge34" class="edge"><title>Node22&#45;&gt;Node4</title>
<path fill="none" stroke="midnightblue" d="M1599.3,-173.975C1632.22,-163.271 1688.67,-144.917 1724.09,-133.399"/>
<polygon fill="midnightblue" stroke="midnightblue" points="1725.5,-136.623 1733.93,-130.202 1723.33,-129.966 1725.5,-136.623"/>
</g>
<!-- Node22&#45;&gt;Node5 -->
<g id="edge32" class="edge"><title>Node22&#45;&gt;Node5</title>
<path fill="none" stroke="midnightblue" d="M1548.62,-173.933C1528.06,-165.744 1498.92,-151.717 1479.08,-132 1448.78,-101.894 1428.64,-54.9438 1419.23,-29.2764"/>
<polygon fill="midnightblue" stroke="midnightblue" points="1422.48,-27.9594 1415.85,-19.6902 1415.87,-30.285 1422.48,-27.9594"/>
</g>
<!-- Node22&#45;&gt;Node11 -->
<g id="edge33" class="edge"><title>Node22&#45;&gt;Node11</title>
<path fill="none" stroke="midnightblue" d="M1510.18,-173.975C1417.08,-161.357 1245.55,-138.109 1170.66,-127.959"/>
<polygon fill="midnightblue" stroke="midnightblue" points="1170.71,-124.434 1160.33,-126.559 1169.77,-131.37 1170.71,-124.434"/>
</g>
<!-- Node22&#45;&gt;Node18 -->
<g id="edge36" class="edge"><title>Node22&#45;&gt;Node18</title>
<path fill="none" stroke="midnightblue" d="M1571.79,-173.975C1570.52,-165.58 1568.54,-152.481 1566.9,-141.663"/>
<polygon fill="midnightblue" stroke="midnightblue" points="1570.32,-140.873 1565.36,-131.509 1563.4,-141.92 1570.32,-140.873"/>
</g>
<!-- Node23 -->
<g id="node23" class="node"><title>Node23</title>
<polygon fill="none" stroke="#bfbfbf" points="1216.58,-56.5 1216.58,-75.5 1299.58,-75.5 1299.58,-56.5 1216.58,-56.5"/>
<text text-anchor="middle" x="1258.08" y="-63.5" font-family="Helvetica,sans-Serif" font-size="10.00">unordered_map</text>
</g>
<!-- Node22&#45;&gt;Node23 -->
<g id="edge35" class="edge"><title>Node22&#45;&gt;Node23</title>
<path fill="none" stroke="midnightblue" d="M1502.21,-173.953C1408.3,-162.286 1253.41,-141.716 1245.08,-132 1233.87,-118.942 1240.19,-98.9675 1247.38,-84.6085"/>
<polygon fill="midnightblue" stroke="midnightblue" points="1250.52,-86.1636 1252.3,-75.7187 1244.4,-82.7763 1250.52,-86.1636"/>
</g>
<!-- Node25 -->
<g id="node25" class="node"><title>Node25</title>
<polygon fill="none" stroke="#bfbfbf" points="916.076,-235.5 916.076,-254.5 1046.08,-254.5 1046.08,-235.5 916.076,-235.5"/>
<text text-anchor="middle" x="981.076" y="-242.5" font-family="Helvetica,sans-Serif" font-size="10.00">InfoLogger/InfoLogger.hxx</text>
</g>
<!-- Node24&#45;&gt;Node25 -->
<g id="edge39" class="edge"><title>Node24&#45;&gt;Node25</title>
<path fill="none" stroke="midnightblue" d="M1116.44,-296.975C1089.34,-286.769 1043.77,-269.608 1013.07,-258.049"/>
<polygon fill="midnightblue" stroke="midnightblue" points="1014.26,-254.758 1003.67,-254.509 1011.8,-261.309 1014.26,-254.758"/>
</g>
<!-- Node26 -->
<g id="node26" class="node"><title>Node26</title>
<g id="a_node26"><a xlink:href="TaskInterface_8h.html" target="_top" xlink:title="QualityControl/TaskInterface.h">
<polygon fill="none" stroke="black" points="1064.08,-235.5 1064.08,-254.5 1214.08,-254.5 1214.08,-235.5 1064.08,-235.5"/>
<text text-anchor="middle" x="1139.08" y="-242.5" font-family="Helvetica,sans-Serif" font-size="10.00">QualityControl/TaskInterface.h</text>
</a>
</g>
</g>
<!-- Node24&#45;&gt;Node26 -->
<g id="edge40" class="edge"><title>Node24&#45;&gt;Node26</title>
<path fill="none" stroke="midnightblue" d="M1139.08,-296.975C1139.08,-288.58 1139.08,-275.481 1139.08,-264.663"/>
<polygon fill="midnightblue" stroke="midnightblue" points="1142.58,-264.509 1139.08,-254.509 1135.58,-264.509 1142.58,-264.509"/>
</g>
<!-- Node26&#45;&gt;Node5 -->
<g id="edge43" class="edge"><title>Node26&#45;&gt;Node5</title>
<path fill="none" stroke="midnightblue" d="M1214.27,-243.534C1293.74,-241.254 1411.49,-232.174 1440.08,-199 1449.07,-188.562 1441.25,-181.728 1440.08,-168 1435.78,-117.642 1423.86,-59.1774 1417.39,-29.8404"/>
<polygon fill="midnightblue" stroke="midnightblue" points="1420.74,-28.7746 1415.13,-19.7843 1413.91,-30.3082 1420.74,-28.7746"/>
</g>
<!-- Node26&#45;&gt;Node11 -->
<g id="edge42" class="edge"><title>Node26&#45;&gt;Node11</title>
<path fill="none" stroke="midnightblue" d="M1152.86,-235.189C1163.9,-227.241 1178.58,-214.447 1185.08,-199 1190.42,-186.3 1190.74,-180.558 1185.08,-168 1179.46,-155.555 1168.51,-145.172 1158.2,-137.527"/>
<polygon fill="midnightblue" stroke="midnightblue" points="1160.03,-134.543 1149.81,-131.764 1156.07,-140.312 1160.03,-134.543"/>
</g>
<!-- Node26&#45;&gt;Node12 -->
<g id="edge41" class="edge"><title>Node26&#45;&gt;Node12</title>
<path fill="none" stroke="midnightblue" d="M1214.18,-241.193C1350.71,-235.567 1629.04,-221.487 1667.08,-199 1707.08,-175.351 1696.46,-148.613 1725.08,-112 1732.97,-101.904 1742.58,-91.2765 1750.52,-82.8862"/>
<polygon fill="midnightblue" stroke="midnightblue" points="1753.09,-85.2543 1757.5,-75.6176 1748.05,-80.4054 1753.09,-85.2543"/>
</g>
<!-- Node26&#45;&gt;Node23 -->
<g id="edge44" class="edge"><title>Node26&#45;&gt;Node23</title>
<path fill="none" stroke="midnightblue" d="M1063.6,-235.894C943.489,-222.99 722.254,-199.197 722.076,-199 712.871,-188.748 713.282,-178.606 722.076,-168 783.376,-94.0711 1084.03,-73.8878 1206.26,-68.6933"/>
<polygon fill="midnightblue" stroke="midnightblue" points="1206.64,-72.1811 1216.49,-68.2763 1206.35,-65.1869 1206.64,-72.1811"/>
</g>
<!-- Node27 -->
<g id="node27" class="node"><title>Node27</title>
<polygon fill="none" stroke="#bfbfbf" points="872.576,-174 872.576,-193 997.576,-193 997.576,-174 872.576,-174"/>
<text text-anchor="middle" x="935.076" y="-181" font-family="Helvetica,sans-Serif" font-size="10.00">Framework/InitContext.h</text>
</g>
<!-- Node26&#45;&gt;Node27 -->
<g id="edge45" class="edge"><title>Node26&#45;&gt;Node27</title>
<path fill="none" stroke="midnightblue" d="M1109.85,-235.475C1074.17,-225.07 1013.72,-207.437 974.094,-195.88"/>
<polygon fill="midnightblue" stroke="midnightblue" points="974.83,-192.449 964.25,-193.009 972.87,-199.169 974.83,-192.449"/>
</g>
<!-- Node28 -->
<g id="node28" class="node"><title>Node28</title>
<polygon fill="none" stroke="#bfbfbf" points="1016.08,-174 1016.08,-193 1176.08,-193 1176.08,-174 1016.08,-174"/>
<text text-anchor="middle" x="1096.08" y="-181" font-family="Helvetica,sans-Serif" font-size="10.00">Framework/ProcessingContext.h</text>
</g>
<!-- Node26&#45;&gt;Node28 -->
<g id="edge46" class="edge"><title>Node26&#45;&gt;Node28</title>
<path fill="none" stroke="midnightblue" d="M1132.92,-235.475C1126.47,-226.55 1116.17,-212.307 1108.1,-201.143"/>
<polygon fill="midnightblue" stroke="midnightblue" points="1110.92,-199.064 1102.23,-193.009 1105.25,-203.164 1110.92,-199.064"/>
</g>
<!-- Node29 -->
<g id="node29" class="node"><title>Node29</title>
<g id="a_node29"><a xlink:href="Activity_8h.html" target="_top" xlink:title="QualityControl/Activity.h">
<polygon fill="none" stroke="black" points="731.576,-174 731.576,-193 854.576,-193 854.576,-174 731.576,-174"/>
<text text-anchor="middle" x="793.076" y="-181" font-family="Helvetica,sans-Serif" font-size="10.00">QualityControl/Activity.h</text>
</a>
</g>
</g>
<!-- Node26&#45;&gt;Node29 -->
<g id="edge47" class="edge"><title>Node26&#45;&gt;Node29</title>
<path fill="none" stroke="midnightblue" d="M1082.39,-235.482C1026.51,-226.913 938.743,-212.999 863.076,-199 856.517,-197.786 849.626,-196.443 842.832,-195.078"/>
<polygon fill="midnightblue" stroke="midnightblue" points="843.495,-191.642 832.997,-193.076 842.098,-198.501 843.495,-191.642"/>
</g>
<!-- Node30 -->
<g id="node30" class="node"><title>Node30</title>
<g id="a_node30"><a xlink:href="ObjectsManager_8h.html" target="_top" xlink:title="QualityControl/ObjectsManager.h">
<polygon fill="none" stroke="black" points="1270.58,-174 1270.58,-193 1431.58,-193 1431.58,-174 1270.58,-174"/>
<text text-anchor="middle" x="1351.08" y="-181" font-family="Helvetica,sans-Serif" font-size="10.00">QualityControl/ObjectsManager.h</text>
</a>
</g>
</g>
<!-- Node26&#45;&gt;Node30 -->
<g id="edge48" class="edge"><title>Node26&#45;&gt;Node30</title>
<path fill="none" stroke="midnightblue" d="M1169.45,-235.475C1206.68,-225.026 1269.89,-207.287 1311.05,-195.733"/>
<polygon fill="midnightblue" stroke="midnightblue" points="1312.08,-199.081 1320.76,-193.009 1310.18,-192.342 1312.08,-199.081"/>
</g>
<!-- Node30&#45;&gt;Node5 -->
<g id="edge54" class="edge"><title>Node30&#45;&gt;Node5</title>
<path fill="none" stroke="midnightblue" d="M1315.49,-173.985C1290.46,-166.466 1257.55,-153.311 1235.08,-132 1208.96,-107.23 1184.5,-84.0388 1207.08,-56 1228.72,-29.1134 1330.27,-17.4193 1382.25,-13.1248"/>
<polygon fill="midnightblue" stroke="midnightblue" points="1382.84,-16.5888 1392.54,-12.3179 1382.3,-9.61019 1382.84,-16.5888"/>
</g>
<!-- Node30&#45;&gt;Node11 -->
<g id="edge55" class="edge"><title>Node30&#45;&gt;Node11</title>
<path fill="none" stroke="midnightblue" d="M1319.99,-173.975C1280.36,-163.11 1211.99,-144.364 1170.13,-132.885"/>
<polygon fill="midnightblue" stroke="midnightblue" points="1170.91,-129.471 1160.34,-130.202 1169.06,-136.222 1170.91,-129.471"/>
</g>
<!-- Node30&#45;&gt;Node18 -->
<g id="edge49" class="edge"><title>Node30&#45;&gt;Node18</title>
<path fill="none" stroke="midnightblue" d="M1381.59,-173.975C1419,-163.526 1482.5,-145.787 1523.86,-134.233"/>
<polygon fill="midnightblue" stroke="midnightblue" points="1524.93,-137.571 1533.62,-131.509 1523.04,-130.829 1524.93,-137.571"/>
</g>
<!-- Node30&#45;&gt;Node21 -->
<g id="edge50" class="edge"><title>Node30&#45;&gt;Node21</title>
<path fill="none" stroke="midnightblue" d="M1415.79,-173.979C1476.48,-165.412 1569.54,-150.793 1649.08,-132 1713.21,-116.846 1786.36,-93.0572 1828.1,-78.8492"/>
<polygon fill="midnightblue" stroke="midnightblue" points="1829.43,-82.0922 1837.76,-75.5403 1827.16,-75.4699 1829.43,-82.0922"/>
</g>
<!-- Node31 -->
<g id="node31" class="node"><title>Node31</title>
<g id="a_node31"><a xlink:href="TaskConfig_8h.html" target="_top" xlink:title="QualityControl/TaskConfig.h">
<polygon fill="none" stroke="black" points="1254.08,-112.5 1254.08,-131.5 1394.08,-131.5 1394.08,-112.5 1254.08,-112.5"/>
<text text-anchor="middle" x="1324.08" y="-119.5" font-family="Helvetica,sans-Serif" font-size="10.00">QualityControl/TaskConfig.h</text>
</a>
</g>
</g>
<!-- Node30&#45;&gt;Node31 -->
<g id="edge51" class="edge"><title>Node30&#45;&gt;Node31</title>
<path fill="none" stroke="midnightblue" d="M1347.21,-173.975C1343.28,-165.315 1337.08,-151.649 1332.08,-140.645"/>
<polygon fill="midnightblue" stroke="midnightblue" points="1335.26,-139.169 1327.94,-131.509 1328.88,-142.062 1335.26,-139.169"/>
</g>
<!-- Node31&#45;&gt;Node5 -->
<g id="edge52" class="edge"><title>Node31&#45;&gt;Node5</title>
<path fill="none" stroke="midnightblue" d="M1331.06,-112.368C1345.81,-94.135 1380.37,-51.4257 1399.58,-27.6752"/>
<polygon fill="midnightblue" stroke="midnightblue" points="1402.56,-29.567 1406.13,-19.5914 1397.11,-25.164 1402.56,-29.567"/>
</g>
<!-- Node31&#45;&gt;Node23 -->
<g id="edge53" class="edge"><title>Node31&#45;&gt;Node23</title>
<path fill="none" stroke="midnightblue" d="M1313.47,-112.324C1303.62,-104.263 1288.73,-92.0765 1276.86,-82.3695"/>
<polygon fill="midnightblue" stroke="midnightblue" points="1278.83,-79.4575 1268.87,-75.8339 1274.4,-84.8752 1278.83,-79.4575"/>
</g>
<!-- Node32&#45;&gt;Node5 -->
<g id="edge57" class="edge"><title>Node32&#45;&gt;Node5</title>
<path fill="none" stroke="midnightblue" d="M1921.54,-358.308C1924.14,-343.913 1930.24,-314.393 1940.08,-291 1958.54,-247.086 1982.4,-244.92 1995.08,-199 2012.78,-134.903 2004.41,-95.7088 1951.08,-56 1910.28,-25.6292 1551.93,-14.4102 1443.82,-11.6991"/>
<polygon fill="midnightblue" stroke="midnightblue" points="1443.67,-8.19453 1433.59,-11.4494 1443.5,-15.1924 1443.67,-8.19453"/>
</g>
<!-- Node33 -->
<g id="node33" class="node"><title>Node33</title>
<polygon fill="none" stroke="#bfbfbf" points="1948.58,-291.5 1948.58,-321.5 2083.58,-321.5 2083.58,-291.5 1948.58,-291.5"/>
<text text-anchor="start" x="1956.58" y="-309.5" font-family="Helvetica,sans-Serif" font-size="10.00">Configuration/Configuration</text>
<text text-anchor="middle" x="2016.08" y="-298.5" font-family="Helvetica,sans-Serif" font-size="10.00">Factory.h</text>
</g>
<!-- Node32&#45;&gt;Node33 -->
<g id="edge58" class="edge"><title>Node32&#45;&gt;Node33</title>
<path fill="none" stroke="midnightblue" d="M1933.83,-358.475C1947.08,-350.266 1967.58,-337.558 1984.8,-326.885"/>
<polygon fill="midnightblue" stroke="midnightblue" points="1986.8,-329.766 1993.45,-321.523 1983.11,-323.816 1986.8,-329.766"/>
</g>
<!-- Node34&#45;&gt;Node5 -->
<g id="edge60" class="edge"><title>Node34&#45;&gt;Node5</title>
<path fill="none" stroke="midnightblue" d="M511.501,-168.467C498.644,-153.433 483.09,-129.392 496.076,-112 548.493,-41.8004 598.803,-71.2445 685.076,-56 951.874,-8.85683 1281.22,-9.08211 1382.2,-10.4278"/>
<polygon fill="midnightblue" stroke="midnightblue" points="1382.27,-13.9291 1392.32,-10.5771 1382.37,-6.92982 1382.27,-13.9291"/>
</g>
<!-- Node34&#45;&gt;Node11 -->
<g id="edge61" class="edge"><title>Node34&#45;&gt;Node11</title>
<path fill="none" stroke="midnightblue" d="M599.752,-175.204C731.393,-162.343 1000.04,-136.095 1097.62,-126.562"/>
<polygon fill="midnightblue" stroke="midnightblue" points="1098.25,-130.017 1107.86,-125.561 1097.57,-123.05 1098.25,-130.017"/>
</g>
<!-- Node34&#45;&gt;Node14 -->
<g id="edge64" class="edge"><title>Node34&#45;&gt;Node14</title>
<path fill="none" stroke="midnightblue" d="M548.064,-168.399C563.467,-158.951 583.669,-146.559 599.075,-137.109"/>
<polygon fill="midnightblue" stroke="midnightblue" points="601.268,-139.87 607.962,-131.658 597.608,-133.903 601.268,-139.87"/>
</g>
<!-- Node34&#45;&gt;Node18 -->
<g id="edge66" class="edge"><title>Node34&#45;&gt;Node18</title>
<path fill="none" stroke="midnightblue" d="M599.889,-176.628C636.68,-173.834 681.69,-170.553 722.076,-168 1024.56,-148.875 1100.43,-148.458 1403.08,-132 1427.41,-130.676 1453.82,-129.212 1478.07,-127.856"/>
<polygon fill="midnightblue" stroke="midnightblue" points="1478.53,-131.336 1488.32,-127.282 1478.14,-124.347 1478.53,-131.336"/>
</g>
<!-- Node35 -->
<g id="node35" class="node"><title>Node35</title>
<polygon fill="none" stroke="#bfbfbf" points="505.076,-112.5 505.076,-131.5 555.076,-131.5 555.076,-112.5 505.076,-112.5"/>
<text text-anchor="middle" x="530.076" y="-119.5" font-family="Helvetica,sans-Serif" font-size="10.00">TH1F.h</text>
</g>
<!-- Node34&#45;&gt;Node35 -->
<g id="edge62" class="edge"><title>Node34&#45;&gt;Node35</title>
<path fill="none" stroke="midnightblue" d="M526.261,-168.399C526.928,-160.466 527.769,-150.458 528.492,-141.858"/>
<polygon fill="midnightblue" stroke="midnightblue" points="531.999,-141.916 529.349,-131.658 525.024,-141.33 531.999,-141.916"/>
</g>
<!-- Node36 -->
<g id="node36" class="node"><title>Node36</title>
<polygon fill="none" stroke="#bfbfbf" points="227.576,-112.5 227.576,-131.5 296.576,-131.5 296.576,-112.5 227.576,-112.5"/>
<text text-anchor="middle" x="262.076" y="-119.5" font-family="Helvetica,sans-Serif" font-size="10.00">TObjArray.h</text>
</g>
<!-- Node34&#45;&gt;Node36 -->
<g id="edge63" class="edge"><title>Node34&#45;&gt;Node36</title>
<path fill="none" stroke="midnightblue" d="M463.082,-168.475C414.999,-157.597 349.518,-142.782 306.544,-133.06"/>
<polygon fill="midnightblue" stroke="midnightblue" points="307.189,-129.618 296.663,-130.825 305.644,-136.445 307.189,-129.618"/>
</g>
<!-- Node37 -->
<g id="node37" class="node"><title>Node37</title>
<polygon fill="none" stroke="#bfbfbf" points="315.076,-112.5 315.076,-131.5 449.076,-131.5 449.076,-112.5 315.076,-112.5"/>
<text text-anchor="middle" x="382.076" y="-119.5" font-family="Helvetica,sans-Serif" font-size="10.00">Framework/DataRefUtils.h</text>
</g>
<!-- Node34&#45;&gt;Node37 -->
<g id="edge65" class="edge"><title>Node34&#45;&gt;Node37</title>
<path fill="none" stroke="midnightblue" d="M491.187,-168.399C467.194,-158.416 435.302,-145.147 412.199,-135.534"/>
<polygon fill="midnightblue" stroke="midnightblue" points="413.461,-132.268 402.884,-131.658 410.772,-138.731 413.461,-132.268"/>
</g>
</g>
</svg>
