<?xml version="1.0" encoding="UTF-8" standalone="no"?>
<!DOCTYPE svg PUBLIC "-//W3C//DTD SVG 1.1//EN"
 "http://www.w3.org/Graphics/SVG/1.1/DTD/svg11.dtd">
<!-- Generated by graphviz version 2.38.0 (20140413.2041)
 -->
<!-- Title: Framework/src/runMergerTest.cxx Pages: 1 -->
<svg width="1315pt" height="263pt"
 viewBox="0.00 0.00 1314.50 263.00" xmlns="http://www.w3.org/2000/svg" xmlns:xlink="http://www.w3.org/1999/xlink">
<g id="graph0" class="graph" transform="scale(1 1) rotate(0) translate(4 259)">
<title>Framework/src/runMergerTest.cxx</title>
<!-- Node1 -->
<g id="node1" class="node"><title>Node1</title>
<polygon fill="#bfbfbf" stroke="black" points="460,-235.5 460,-254.5 627,-254.5 627,-235.5 460,-235.5"/>
<text text-anchor="middle" x="543.5" y="-242.5" font-family="Helvetica,sans-Serif" font-size="10.00">Framework/src/runMergerTest.cxx</text>
</g>
<!-- Node2 -->
<g id="node2" class="node"><title>Node2</title>
<polygon fill="none" stroke="#bfbfbf" points="0,-174 0,-193 97,-193 97,-174 0,-174"/>
<text text-anchor="middle" x="48.5" y="-181" font-family="Helvetica,sans-Serif" font-size="10.00">fairlogger/Logger.h</text>
</g>
<!-- Node1&#45;&gt;Node2 -->
<g id="edge1" class="edge"><title>Node1&#45;&gt;Node2</title>
<path fill="none" stroke="midnightblue" d="M459.842,-239.068C371.322,-232.996 227.805,-220.718 105.5,-199 99.9705,-198.018 94.1859,-196.789 88.5111,-195.464"/>
<polygon fill="midnightblue" stroke="midnightblue" points="89.0397,-191.99 78.4939,-193.008 87.3729,-198.788 89.0397,-191.99"/>
</g>
<!-- Node3 -->
<g id="node3" class="node"><title>Node3</title>
<polygon fill="none" stroke="#bfbfbf" points="115,-174 115,-193 268,-193 268,-174 115,-174"/>
<text text-anchor="middle" x="191.5" y="-181" font-family="Helvetica,sans-Serif" font-size="10.00">Framework/CompletionPolicy.h</text>
</g>
<!-- Node1&#45;&gt;Node3 -->
<g id="edge2" class="edge"><title>Node1&#45;&gt;Node3</title>
<path fill="none" stroke="midnightblue" d="M493.067,-235.475C429.419,-224.716 320.056,-206.23 251.985,-194.724"/>
<polygon fill="midnightblue" stroke="midnightblue" points="252.283,-191.225 241.839,-193.009 251.116,-198.127 252.283,-191.225"/>
</g>
<!-- Node4 -->
<g id="node4" class="node"><title>Node4</title>
<polygon fill="none" stroke="#bfbfbf" points="286,-168.5 286,-198.5 431,-198.5 431,-168.5 286,-168.5"/>
<text text-anchor="start" x="294" y="-186.5" font-family="Helvetica,sans-Serif" font-size="10.00">Framework/CompletionPolicy</text>
<text text-anchor="middle" x="358.5" y="-175.5" font-family="Helvetica,sans-Serif" font-size="10.00">Helpers.h</text>
</g>
<!-- Node1&#45;&gt;Node4 -->
<g id="edge3" class="edge"><title>Node1&#45;&gt;Node4</title>
<path fill="none" stroke="midnightblue" d="M516.994,-235.475C489.714,-226.701 446.454,-212.788 412.017,-201.712"/>
<polygon fill="midnightblue" stroke="midnightblue" points="412.692,-198.253 402.101,-198.523 410.549,-204.917 412.692,-198.253"/>
</g>
<!-- Node5 -->
<g id="node5" class="node"><title>Node5</title>
<polygon fill="none" stroke="#bfbfbf" points="449.5,-174 449.5,-193 499.5,-193 499.5,-174 449.5,-174"/>
<text text-anchor="middle" x="474.5" y="-181" font-family="Helvetica,sans-Serif" font-size="10.00">TH1F.h</text>
</g>
<!-- Node1&#45;&gt;Node5 -->
<g id="edge4" class="edge"><title>Node1&#45;&gt;Node5</title>
<path fill="none" stroke="midnightblue" d="M533.614,-235.475C522.854,-226.197 505.429,-211.171 492.279,-199.831"/>
<polygon fill="midnightblue" stroke="midnightblue" points="494.227,-196.889 484.368,-193.009 489.655,-202.19 494.227,-196.889"/>
</g>
<!-- Node6 -->
<g id="node6" class="node"><title>Node6</title>
<polygon fill="none" stroke="#bfbfbf" points="517.5,-174 517.5,-193 569.5,-193 569.5,-174 517.5,-174"/>
<text text-anchor="middle" x="543.5" y="-181" font-family="Helvetica,sans-Serif" font-size="10.00">memory</text>
</g>
<!-- Node1&#45;&gt;Node6 -->
<g id="edge5" class="edge"><title>Node1&#45;&gt;Node6</title>
<path fill="none" stroke="midnightblue" d="M543.5,-235.475C543.5,-227.08 543.5,-213.981 543.5,-203.163"/>
<polygon fill="midnightblue" stroke="midnightblue" points="547,-203.009 543.5,-193.009 540,-203.009 547,-203.009"/>
</g>
<!-- Node7 -->
<g id="node7" class="node"><title>Node7</title>
<polygon fill="none" stroke="#bfbfbf" points="588,-174 588,-193 637,-193 637,-174 588,-174"/>
<text text-anchor="middle" x="612.5" y="-181" font-family="Helvetica,sans-Serif" font-size="10.00">random</text>
</g>
<!-- Node1&#45;&gt;Node7 -->
<g id="edge6" class="edge"><title>Node1&#45;&gt;Node7</title>
<path fill="none" stroke="midnightblue" d="M553.386,-235.475C564.146,-226.197 581.571,-211.171 594.721,-199.831"/>
<polygon fill="midnightblue" stroke="midnightblue" points="597.345,-202.19 602.632,-193.009 592.773,-196.889 597.345,-202.19"/>
</g>
<!-- Node8 -->
<g id="node8" class="node"><title>Node8</title>
<polygon fill="none" stroke="#bfbfbf" points="655.5,-174 655.5,-193 815.5,-193 815.5,-174 655.5,-174"/>
<text text-anchor="middle" x="735.5" y="-181" font-family="Helvetica,sans-Serif" font-size="10.00">Framework/runDataProcessing.h</text>
</g>
<!-- Node1&#45;&gt;Node8 -->
<g id="edge7" class="edge"><title>Node1&#45;&gt;Node8</title>
<path fill="none" stroke="midnightblue" d="M571.009,-235.475C604.371,-225.136 660.762,-207.661 698.063,-196.102"/>
<polygon fill="midnightblue" stroke="midnightblue" points="699.526,-199.312 708.042,-193.009 697.454,-192.626 699.526,-199.312"/>
</g>
<!-- Node9 -->
<g id="node9" class="node"><title>Node9</title>
<g id="a_node9"><a xlink:href="CheckerFactory_8h.html" target="_top" xlink:title="QualityControl/CheckerFactory.h">
<polygon fill="none" stroke="black" points="1146.5,-56.5 1146.5,-75.5 1306.5,-75.5 1306.5,-56.5 1146.5,-56.5"/>
<text text-anchor="middle" x="1226.5" y="-63.5" font-family="Helvetica,sans-Serif" font-size="10.00">QualityControl/CheckerFactory.h</text>
</a>
</g>
</g>
<!-- Node1&#45;&gt;Node9 -->
<g id="edge8" class="edge"><title>Node1&#45;&gt;Node9</title>
<path fill="none" stroke="midnightblue" d="M627.32,-244.641C717.746,-243.237 865.09,-234.834 986.5,-199 1075.17,-172.83 1167.58,-110.28 1206.91,-81.6988"/>
<polygon fill="midnightblue" stroke="midnightblue" points="1209.33,-84.2605 1215.31,-75.5161 1205.19,-78.6213 1209.33,-84.2605"/>
</g>
<!-- Node11 -->
<g id="node11" class="node"><title>Node11</title>
<g id="a_node11"><a xlink:href="HistoMerger_8h.html" target="_top" xlink:title="QualityControl/HistoMerger.h">
<polygon fill="none" stroke="black" points="834,-174 834,-193 977,-193 977,-174 834,-174"/>
<text text-anchor="middle" x="905.5" y="-181" font-family="Helvetica,sans-Serif" font-size="10.00">QualityControl/HistoMerger.h</text>
</a>
</g>
</g>
<!-- Node1&#45;&gt;Node11 -->
<g id="edge10" class="edge"><title>Node1&#45;&gt;Node11</title>
<path fill="none" stroke="midnightblue" d="M598.734,-235.461C655.434,-226.623 746.197,-212.277 824.5,-199 832.411,-197.659 840.749,-196.208 848.947,-194.76"/>
<polygon fill="midnightblue" stroke="midnightblue" points="849.604,-198.199 858.838,-193.004 848.38,-191.306 849.604,-198.199"/>
</g>
<!-- Node10 -->
<g id="node10" class="node"><title>Node10</title>
<polygon fill="none" stroke="#bfbfbf" points="1032,-0.5 1032,-19.5 1073,-19.5 1073,-0.5 1032,-0.5"/>
<text text-anchor="middle" x="1052.5" y="-7.5" font-family="Helvetica,sans-Serif" font-size="10.00">string</text>
</g>
<!-- Node9&#45;&gt;Node10 -->
<g id="edge9" class="edge"><title>Node9&#45;&gt;Node10</title>
<path fill="none" stroke="midnightblue" d="M1198.93,-56.4435C1167.37,-46.6487 1115.82,-30.6509 1083.06,-20.4836"/>
<polygon fill="midnightblue" stroke="midnightblue" points="1083.72,-17.0239 1073.13,-17.4026 1081.64,-23.7094 1083.72,-17.0239"/>
</g>
<!-- Node11&#45;&gt;Node10 -->
<g id="edge11" class="edge"><title>Node11&#45;&gt;Node10</title>
<path fill="none" stroke="midnightblue" d="M971.541,-173.999C1021.37,-166.071 1083.75,-152.376 1099.5,-132 1124.64,-99.4813 1090.1,-51.8825 1068.16,-27.196"/>
<polygon fill="midnightblue" stroke="midnightblue" points="1070.66,-24.74 1061.31,-19.7573 1065.51,-29.4833 1070.66,-24.74"/>
</g>
<!-- Node12 -->
<g id="node12" class="node"><title>Node12</title>
<polygon fill="none" stroke="#bfbfbf" points="684.5,-112.5 684.5,-131.5 728.5,-131.5 728.5,-112.5 684.5,-112.5"/>
<text text-anchor="middle" x="706.5" y="-119.5" font-family="Helvetica,sans-Serif" font-size="10.00">vector</text>
</g>
<!-- Node11&#45;&gt;Node12 -->
<g id="edge12" class="edge"><title>Node11&#45;&gt;Node12</title>
<path fill="none" stroke="midnightblue" d="M876.988,-173.975C840.19,-162.973 776.362,-143.888 738.114,-132.452"/>
<polygon fill="midnightblue" stroke="midnightblue" points="739.094,-129.092 728.51,-129.581 737.089,-135.799 739.094,-129.092"/>
</g>
<!-- Node13 -->
<g id="node13" class="node"><title>Node13</title>
<polygon fill="none" stroke="#bfbfbf" points="746.5,-112.5 746.5,-131.5 838.5,-131.5 838.5,-112.5 746.5,-112.5"/>
<text text-anchor="middle" x="792.5" y="-119.5" font-family="Helvetica,sans-Serif" font-size="10.00">Common/Timer.h</text>
</g>
<!-- Node11&#45;&gt;Node13 -->
<g id="edge13" class="edge"><title>Node11&#45;&gt;Node13</title>
<path fill="none" stroke="midnightblue" d="M889.31,-173.975C870.598,-164.122 839.577,-147.788 817.701,-136.27"/>
<polygon fill="midnightblue" stroke="midnightblue" points="819.139,-133.071 808.66,-131.509 815.878,-139.265 819.139,-133.071"/>
</g>
<!-- Node14 -->
<g id="node14" class="node"><title>Node14</title>
<polygon fill="none" stroke="#bfbfbf" points="856.5,-112.5 856.5,-131.5 954.5,-131.5 954.5,-112.5 856.5,-112.5"/>
<text text-anchor="middle" x="905.5" y="-119.5" font-family="Helvetica,sans-Serif" font-size="10.00">Framework/Task.h</text>
</g>
<!-- Node11&#45;&gt;Node14 -->
<g id="edge14" class="edge"><title>Node11&#45;&gt;Node14</title>
<path fill="none" stroke="midnightblue" d="M905.5,-173.975C905.5,-165.58 905.5,-152.481 905.5,-141.663"/>
<polygon fill="midnightblue" stroke="midnightblue" points="909,-141.509 905.5,-131.509 902,-141.509 909,-141.509"/>
</g>
<!-- Node15 -->
<g id="node15" class="node"><title>Node15</title>
<polygon fill="none" stroke="#bfbfbf" points="973,-112.5 973,-131.5 1090,-131.5 1090,-112.5 973,-112.5"/>
<text text-anchor="middle" x="1031.5" y="-119.5" font-family="Helvetica,sans-Serif" font-size="10.00">Headers/DataHeader.h</text>
</g>
<!-- Node11&#45;&gt;Node15 -->
<g id="edge15" class="edge"><title>Node11&#45;&gt;Node15</title>
<path fill="none" stroke="midnightblue" d="M923.553,-173.975C944.698,-163.99 979.94,-147.348 1004.38,-135.807"/>
<polygon fill="midnightblue" stroke="midnightblue" points="1005.93,-138.944 1013.48,-131.509 1002.94,-132.614 1005.93,-138.944"/>
</g>
<!-- Node16 -->
<g id="node16" class="node"><title>Node16</title>
<g id="a_node16"><a xlink:href="MonitorObject_8h.html" target="_top" xlink:title="QualityControl/MonitorObject.h">
<polygon fill="none" stroke="black" points="515,-112.5 515,-131.5 666,-131.5 666,-112.5 515,-112.5"/>
<text text-anchor="middle" x="590.5" y="-119.5" font-family="Helvetica,sans-Serif" font-size="10.00">QualityControl/MonitorObject.h</text>
</a>
</g>
</g>
<!-- Node11&#45;&gt;Node16 -->
<g id="edge16" class="edge"><title>Node11&#45;&gt;Node16</title>
<path fill="none" stroke="midnightblue" d="M860.368,-173.975C803.645,-163.261 706.346,-144.882 645.379,-133.366"/>
<polygon fill="midnightblue" stroke="midnightblue" points="646.024,-129.926 635.548,-131.509 644.725,-136.804 646.024,-129.926"/>
</g>
<!-- Node16&#45;&gt;Node10 -->
<g id="edge17" class="edge"><title>Node16&#45;&gt;Node10</title>
<path fill="none" stroke="midnightblue" d="M661.604,-112.493C750.902,-101.621 895.404,-83.3288 919.5,-76 960.451,-63.5448 1004.41,-39.7847 1030.13,-24.7006"/>
<polygon fill="midnightblue" stroke="midnightblue" points="1031.94,-27.6963 1038.74,-19.5728 1028.36,-21.6817 1031.94,-27.6963"/>
</g>
<!-- Node17 -->
<g id="node17" class="node"><title>Node17</title>
<polygon fill="none" stroke="#bfbfbf" points="525,-56.5 525,-75.5 560,-75.5 560,-56.5 525,-56.5"/>
<text text-anchor="middle" x="542.5" y="-63.5" font-family="Helvetica,sans-Serif" font-size="10.00">map</text>
</g>
<!-- Node16&#45;&gt;Node17 -->
<g id="edge18" class="edge"><title>Node16&#45;&gt;Node17</title>
<path fill="none" stroke="midnightblue" d="M582.574,-112.083C575.654,-104.298 565.435,-92.8015 557.048,-83.3665"/>
<polygon fill="midnightblue" stroke="midnightblue" points="559.538,-80.8999 550.279,-75.7511 554.306,-85.5505 559.538,-80.8999"/>
</g>
<!-- Node18 -->
<g id="node18" class="node"><title>Node18</title>
<polygon fill="none" stroke="#bfbfbf" points="539.5,-0.5 539.5,-19.5 595.5,-19.5 595.5,-0.5 539.5,-0.5"/>
<text text-anchor="middle" x="567.5" y="-7.5" font-family="Helvetica,sans-Serif" font-size="10.00">Rtypes.h</text>
</g>
<!-- Node16&#45;&gt;Node18 -->
<g id="edge19" class="edge"><title>Node16&#45;&gt;Node18</title>
<path fill="none" stroke="midnightblue" d="M563.571,-112.356C546.781,-105.411 526.522,-93.8247 516.5,-76 505.867,-57.0895 525.601,-37.835 543.531,-25.244"/>
<polygon fill="midnightblue" stroke="midnightblue" points="545.625,-28.0557 552.047,-19.6289 541.771,-22.2117 545.625,-28.0557"/>
</g>
<!-- Node19 -->
<g id="node19" class="node"><title>Node19</title>
<polygon fill="none" stroke="#bfbfbf" points="717,-56.5 717,-75.5 776,-75.5 776,-56.5 717,-56.5"/>
<text text-anchor="middle" x="746.5" y="-63.5" font-family="Helvetica,sans-Serif" font-size="10.00">TObject.h</text>
</g>
<!-- Node16&#45;&gt;Node19 -->
<g id="edge20" class="edge"><title>Node16&#45;&gt;Node19</title>
<path fill="none" stroke="midnightblue" d="M615.219,-112.444C641.348,-103.399 682.759,-89.064 712.076,-78.9158"/>
<polygon fill="midnightblue" stroke="midnightblue" points="713.592,-82.0951 721.897,-75.5164 711.302,-75.4801 713.592,-82.0951"/>
</g>
<!-- Node20 -->
<g id="node20" class="node"><title>Node20</title>
<polygon fill="none" stroke="#bfbfbf" points="794.5,-56.5 794.5,-75.5 910.5,-75.5 910.5,-56.5 794.5,-56.5"/>
<text text-anchor="middle" x="852.5" y="-63.5" font-family="Helvetica,sans-Serif" font-size="10.00">Common/Exceptions.h</text>
</g>
<!-- Node16&#45;&gt;Node20 -->
<g id="edge21" class="edge"><title>Node16&#45;&gt;Node20</title>
<path fill="none" stroke="midnightblue" d="M632.015,-112.444C677.912,-102.984 751.88,-87.7384 801.326,-77.5472"/>
<polygon fill="midnightblue" stroke="midnightblue" points="802.092,-80.9631 811.18,-75.5164 800.679,-74.1072 802.092,-80.9631"/>
</g>
<!-- Node21 -->
<g id="node21" class="node"><title>Node21</title>
<g id="a_node21"><a xlink:href="Quality_8h.html" target="_top" xlink:title="QualityControl/Quality.h">
<polygon fill="none" stroke="black" points="578,-56.5 578,-75.5 699,-75.5 699,-56.5 578,-56.5"/>
<text text-anchor="middle" x="638.5" y="-63.5" font-family="Helvetica,sans-Serif" font-size="10.00">QualityControl/Quality.h</text>
</a>
</g>
</g>
<!-- Node16&#45;&gt;Node21 -->
<g id="edge22" class="edge"><title>Node16&#45;&gt;Node21</title>
<path fill="none" stroke="midnightblue" d="M598.426,-112.083C605.346,-104.298 615.565,-92.8015 623.952,-83.3665"/>
<polygon fill="midnightblue" stroke="midnightblue" points="626.694,-85.5505 630.721,-75.7511 621.462,-80.8999 626.694,-85.5505"/>
</g>
<!-- Node21&#45;&gt;Node10 -->
<g id="edge24" class="edge"><title>Node21&#45;&gt;Node10</title>
<path fill="none" stroke="midnightblue" d="M699.143,-57.0901C788.895,-45.3832 953.806,-23.8731 1021.87,-14.9946"/>
<polygon fill="midnightblue" stroke="midnightblue" points="1022.48,-18.4456 1031.94,-13.6815 1021.57,-11.5044 1022.48,-18.4456"/>
</g>
<!-- Node21&#45;&gt;Node18 -->
<g id="edge23" class="edge"><title>Node21&#45;&gt;Node18</title>
<path fill="none" stroke="midnightblue" d="M627.093,-56.324C616.391,-48.1849 600.159,-35.8395 587.337,-26.0874"/>
<polygon fill="midnightblue" stroke="midnightblue" points="589.193,-23.1018 579.115,-19.8339 584.956,-28.6734 589.193,-23.1018"/>
</g>
</g>
</svg>
