<?xml version="1.0" encoding="UTF-8" standalone="no"?>
<!DOCTYPE svg PUBLIC "-//W3C//DTD SVG 1.1//EN"
 "http://www.w3.org/Graphics/SVG/1.1/DTD/svg11.dtd">
<!-- Generated by graphviz version 2.38.0 (20140413.2041)
 -->
<!-- Title: Modules/TOF/src/runTOF.cxx Pages: 1 -->
<!--zoomable 453 -->
<svg id="main" version="1.1" xmlns="http://www.w3.org/2000/svg" xmlns:xlink="http://www.w3.org/1999/xlink" xml:space="preserve" onload="init(evt)">
<style type="text/css"><![CDATA[
.edge:hover path { stroke: red; }
.edge:hover polygon { stroke: red; fill: red; }
]]></style>
<script type="text/javascript"><![CDATA[
var edges = document.getElementsByTagName('g');
if (edges && edges.length) {
  for (var i=0;i<edges.length;i++) {
    if (edges[i].id.substr(0,4)=='edge') {
      edges[i].setAttribute('class','edge');
    }
  }
}
]]></script>
        <defs>
                <circle id="rim" cx="0" cy="0" r="7"/>
                <circle id="rim2" cx="0" cy="0" r="3.5"/>
                <g id="zoomPlus">
                        <use xlink:href="#rim" fill="#404040">
                                <set attributeName="fill" to="#808080" begin="zoomplus.mouseover" end="zoomplus.mouseout"/>
                        </use>
                        <path d="M-4,0h8M0,-4v8" fill="none" stroke="white" stroke-width="1.5" pointer-events="none"/>
                </g>
                <g id="zoomMin">
                        <use xlink:href="#rim" fill="#404040">
                                <set attributeName="fill" to="#808080" begin="zoomminus.mouseover" end="zoomminus.mouseout"/>
                        </use>
                        <path d="M-4,0h8" fill="none" stroke="white" stroke-width="1.5" pointer-events="none"/>
                </g>
                <g id="dirArrow">
                        <path fill="none" stroke="white" stroke-width="1.5" d="M0,-3.0v7 M-2.5,-0.5L0,-3.0L2.5,-0.5"/>
                </g>
               <g id="resetDef">
                       <use xlink:href="#rim2" fill="#404040">
                               <set attributeName="fill" to="#808080" begin="reset.mouseover" end="reset.mouseout"/>
                       </use>
               </g>
        </defs>

<script type="text/javascript">
var viewWidth = 2277;
var viewHeight = 453;
var sectionId = 'dynsection-0';
</script>
<script xlink:href="svgpan.js"/>
<svg id="graph" class="graph">
<g id="viewport">
<title>Modules/TOF/src/runTOF.cxx</title>
<!-- Node1 -->
<g id="node1" class="node"><title>Node1</title>
<polygon fill="#bfbfbf" stroke="black" points="1745,-425.5 1745,-444.5 1892,-444.5 1892,-425.5 1745,-425.5"/>
<text text-anchor="middle" x="1818.5" y="-432.5" font-family="Helvetica,sans-Serif" font-size="10.00">Modules/TOF/src/runTOF.cxx</text>
</g>
<!-- Node2 -->
<g id="node2" class="node"><title>Node2</title>
<polygon fill="none" stroke="#bfbfbf" points="118.5,-364 118.5,-383 256.5,-383 256.5,-364 118.5,-364"/>
<text text-anchor="middle" x="187.5" y="-371" font-family="Helvetica,sans-Serif" font-size="10.00">Framework/DataSampling.h</text>
</g>
<!-- Node1&#45;&gt;Node2 -->
<g id="edge1" class="edge"><title>Node1&#45;&gt;Node2</title>
<path fill="none" stroke="midnightblue" d="M1744.87,-433.379C1477.41,-430.888 557.677,-420.201 265.5,-389 256.247,-388.012 246.445,-386.535 237.028,-384.897"/>
<polygon fill="midnightblue" stroke="midnightblue" points="237.471,-381.42 227.006,-383.071 236.217,-388.307 237.471,-381.42"/>
</g>
<!-- Node3 -->
<g id="node3" class="node"><title>Node3</title>
<g id="a_node3"><a xlink:href="InfrastructureGenerator_8h.html" target="_top" xlink:title="QualityControl/Infrastructure\lGenerator.h">
<polygon fill="none" stroke="black" points="1898.5,-168.5 1898.5,-198.5 2038.5,-198.5 2038.5,-168.5 1898.5,-168.5"/>
<text text-anchor="start" x="1906.5" y="-186.5" font-family="Helvetica,sans-Serif" font-size="10.00">QualityControl/Infrastructure</text>
<text text-anchor="middle" x="1968.5" y="-175.5" font-family="Helvetica,sans-Serif" font-size="10.00">Generator.h</text>
</a>
</g>
</g>
<!-- Node1&#45;&gt;Node3 -->
<g id="edge2" class="edge"><title>Node1&#45;&gt;Node3</title>
<path fill="none" stroke="midnightblue" d="M1831.9,-425.171C1844.91,-416.426 1865.05,-402.434 1881.5,-389 1889.96,-382.087 1948.6,-331.768 1953.5,-322 1971.66,-285.809 1972.4,-237.641 1970.8,-208.974"/>
<polygon fill="midnightblue" stroke="midnightblue" points="1974.26,-208.391 1970.07,-198.663 1967.28,-208.885 1974.26,-208.391"/>
</g>
<!-- Node7 -->
<g id="node7" class="node"><title>Node7</title>
<polygon fill="none" stroke="#bfbfbf" points="1926,-364 1926,-383 2023,-383 2023,-364 1926,-364"/>
<text text-anchor="middle" x="1974.5" y="-371" font-family="Helvetica,sans-Serif" font-size="10.00">fairlogger/Logger.h</text>
</g>
<!-- Node1&#45;&gt;Node7 -->
<g id="edge6" class="edge"><title>Node1&#45;&gt;Node7</title>
<path fill="none" stroke="midnightblue" d="M1840.85,-425.475C1867.49,-415.313 1912.21,-398.256 1942.51,-386.7"/>
<polygon fill="midnightblue" stroke="midnightblue" points="1944.09,-389.843 1952.19,-383.009 1941.6,-383.303 1944.09,-389.843"/>
</g>
<!-- Node8 -->
<g id="node8" class="node"><title>Node8</title>
<polygon fill="none" stroke="#bfbfbf" points="1894.5,-297 1894.5,-316 1944.5,-316 1944.5,-297 1894.5,-297"/>
<text text-anchor="middle" x="1919.5" y="-304" font-family="Helvetica,sans-Serif" font-size="10.00">TH1F.h</text>
</g>
<!-- Node1&#45;&gt;Node8 -->
<g id="edge7" class="edge"><title>Node1&#45;&gt;Node8</title>
<path fill="none" stroke="midnightblue" d="M1825.44,-425.305C1842.09,-404.452 1884.52,-351.315 1906.24,-324.105"/>
<polygon fill="midnightblue" stroke="midnightblue" points="1909,-326.254 1912.51,-316.256 1903.53,-321.887 1909,-326.254"/>
</g>
<!-- Node9 -->
<g id="node9" class="node"><title>Node9</title>
<polygon fill="none" stroke="#bfbfbf" points="1467.5,-112.5 1467.5,-131.5 1519.5,-131.5 1519.5,-112.5 1467.5,-112.5"/>
<text text-anchor="middle" x="1493.5" y="-119.5" font-family="Helvetica,sans-Serif" font-size="10.00">memory</text>
</g>
<!-- Node1&#45;&gt;Node9 -->
<g id="edge8" class="edge"><title>Node1&#45;&gt;Node9</title>
<path fill="none" stroke="midnightblue" d="M1761.32,-425.451C1667.33,-410.028 1487.18,-374.221 1453.5,-322 1429.89,-285.394 1492.84,-234.323 1501.5,-199 1506.23,-179.714 1502.69,-157.001 1498.94,-141.46"/>
<polygon fill="midnightblue" stroke="midnightblue" points="1502.26,-140.315 1496.29,-131.564 1495.5,-142.129 1502.26,-140.315"/>
</g>
<!-- Node10 -->
<g id="node10" class="node"><title>Node10</title>
<polygon fill="none" stroke="#bfbfbf" points="2041,-364 2041,-383 2090,-383 2090,-364 2041,-364"/>
<text text-anchor="middle" x="2065.5" y="-371" font-family="Helvetica,sans-Serif" font-size="10.00">random</text>
</g>
<!-- Node1&#45;&gt;Node10 -->
<g id="edge9" class="edge"><title>Node1&#45;&gt;Node10</title>
<path fill="none" stroke="midnightblue" d="M1874.75,-425.446C1918.39,-418.028 1980.08,-405.826 2032.5,-389 2034.42,-388.383 2036.38,-387.692 2038.34,-386.954"/>
<polygon fill="midnightblue" stroke="midnightblue" points="2040.03,-390.047 2047.95,-383.014 2037.37,-383.57 2040.03,-390.047"/>
</g>
<!-- Node11 -->
<g id="node11" class="node"><title>Node11</title>
<polygon fill="none" stroke="#bfbfbf" points="2108.5,-364 2108.5,-383 2268.5,-383 2268.5,-364 2108.5,-364"/>
<text text-anchor="middle" x="2188.5" y="-371" font-family="Helvetica,sans-Serif" font-size="10.00">Framework/runDataProcessing.h</text>
</g>
<!-- Node1&#45;&gt;Node11 -->
<g id="edge10" class="edge"><title>Node1&#45;&gt;Node11</title>
<path fill="none" stroke="midnightblue" d="M1871.85,-425.5C1928.38,-416.484 2020.24,-401.803 2099.5,-389 2108.15,-387.603 2117.26,-386.125 2126.23,-384.666"/>
<polygon fill="midnightblue" stroke="midnightblue" points="2126.96,-388.095 2136.27,-383.034 2125.83,-381.186 2126.96,-388.095"/>
</g>
<!-- Node12 -->
<g id="node12" class="node"><title>Node12</title>
<g id="a_node12"><a xlink:href="Checker_8h.html" target="_top" xlink:title="QualityControl/Checker.h">
<polygon fill="none" stroke="black" points="609,-364 609,-383 736,-383 736,-364 609,-364"/>
<text text-anchor="middle" x="672.5" y="-371" font-family="Helvetica,sans-Serif" font-size="10.00">QualityControl/Checker.h</text>
</a>
</g>
</g>
<!-- Node1&#45;&gt;Node12 -->
<g id="edge11" class="edge"><title>Node1&#45;&gt;Node12</title>
<path fill="none" stroke="midnightblue" d="M1744.63,-430.165C1537.62,-419.417 953.529,-389.091 746.439,-378.339"/>
<polygon fill="midnightblue" stroke="midnightblue" points="746.445,-374.835 736.277,-377.811 746.082,-381.825 746.445,-374.835"/>
</g>
<!-- Node34 -->
<g id="node34" class="node"><title>Node34</title>
<g id="a_node34"><a xlink:href="runnerUtils_8h.html" target="_top" xlink:title="QualityControl/runnerUtils.h">
<polygon fill="none" stroke="black" points="275,-364 275,-383 412,-383 412,-364 275,-364"/>
<text text-anchor="middle" x="343.5" y="-371" font-family="Helvetica,sans-Serif" font-size="10.00">QualityControl/runnerUtils.h</text>
</a>
</g>
</g>
<!-- Node1&#45;&gt;Node34 -->
<g id="edge58" class="edge"><title>Node1&#45;&gt;Node34</title>
<path fill="none" stroke="midnightblue" d="M1744.97,-431.79C1555.24,-425.979 1033.7,-409.309 599.5,-389 540.115,-386.222 473.02,-382.397 422.42,-379.372"/>
<polygon fill="midnightblue" stroke="midnightblue" points="422.397,-375.865 412.205,-378.759 421.978,-382.852 422.397,-375.865"/>
</g>
<!-- Node36 -->
<g id="node36" class="node"><title>Node36</title>
<g id="a_node36"><a xlink:href="ExamplePrinterSpec_8h.html" target="_top" xlink:title="QualityControl/ExamplePrinter\lSpec.h">
<polygon fill="none" stroke="black" points="1610,-358.5 1610,-388.5 1759,-388.5 1759,-358.5 1610,-358.5"/>
<text text-anchor="start" x="1618" y="-376.5" font-family="Helvetica,sans-Serif" font-size="10.00">QualityControl/ExamplePrinter</text>
<text text-anchor="middle" x="1684.5" y="-365.5" font-family="Helvetica,sans-Serif" font-size="10.00">Spec.h</text>
</a>
</g>
</g>
<!-- Node1&#45;&gt;Node36 -->
<g id="edge61" class="edge"><title>Node1&#45;&gt;Node36</title>
<path fill="none" stroke="midnightblue" d="M1799.3,-425.475C1780.13,-416.965 1750.08,-403.619 1725.53,-392.718"/>
<polygon fill="midnightblue" stroke="midnightblue" points="1726.64,-389.382 1716.08,-388.523 1723.8,-395.78 1726.64,-389.382"/>
</g>
<!-- Node4 -->
<g id="node4" class="node"><title>Node4</title>
<polygon fill="none" stroke="#bfbfbf" points="1604.5,-112.5 1604.5,-131.5 1648.5,-131.5 1648.5,-112.5 1604.5,-112.5"/>
<text text-anchor="middle" x="1626.5" y="-119.5" font-family="Helvetica,sans-Serif" font-size="10.00">vector</text>
</g>
<!-- Node3&#45;&gt;Node4 -->
<g id="edge3" class="edge"><title>Node3&#45;&gt;Node4</title>
<path fill="none" stroke="midnightblue" d="M1898.47,-170.316C1825.18,-157.566 1713.35,-138.111 1658.76,-128.612"/>
<polygon fill="midnightblue" stroke="midnightblue" points="1659.08,-125.115 1648.63,-126.85 1657.88,-132.012 1659.08,-125.115"/>
</g>
<!-- Node5 -->
<g id="node5" class="node"><title>Node5</title>
<polygon fill="none" stroke="#bfbfbf" points="988,-0.5 988,-19.5 1029,-19.5 1029,-0.5 988,-0.5"/>
<text text-anchor="middle" x="1008.5" y="-7.5" font-family="Helvetica,sans-Serif" font-size="10.00">string</text>
</g>
<!-- Node3&#45;&gt;Node5 -->
<g id="edge4" class="edge"><title>Node3&#45;&gt;Node5</title>
<path fill="none" stroke="midnightblue" d="M1954.24,-168.174C1944.92,-158.426 1932.8,-144.985 1923.5,-132 1900.91,-100.445 1913.51,-76.4087 1880.5,-56 1807.78,-11.039 1186.01,-10.3749 1039.38,-10.851"/>
<polygon fill="midnightblue" stroke="midnightblue" points="1039.27,-7.35129 1029.29,-10.8882 1039.3,-14.3512 1039.27,-7.35129"/>
</g>
<!-- Node6 -->
<g id="node6" class="node"><title>Node6</title>
<polygon fill="none" stroke="#bfbfbf" points="1932.5,-112.5 1932.5,-131.5 2072.5,-131.5 2072.5,-112.5 1932.5,-112.5"/>
<text text-anchor="middle" x="2002.5" y="-119.5" font-family="Helvetica,sans-Serif" font-size="10.00">Framework/WorkflowSpec.h</text>
</g>
<!-- Node3&#45;&gt;Node6 -->
<g id="edge5" class="edge"><title>Node3&#45;&gt;Node6</title>
<path fill="none" stroke="midnightblue" d="M1976.56,-168.399C1981.35,-160.021 1987.46,-149.327 1992.54,-140.423"/>
<polygon fill="midnightblue" stroke="midnightblue" points="1995.63,-142.077 1997.55,-131.658 1989.55,-138.604 1995.63,-142.077"/>
</g>
<!-- Node12&#45;&gt;Node4 -->
<g id="edge16" class="edge"><title>Node12&#45;&gt;Node4</title>
<path fill="none" stroke="midnightblue" d="M736.113,-370.499C870.512,-364.628 1191.77,-341.874 1444.5,-255 1500.16,-235.868 1518.06,-235.158 1564.5,-199 1585.84,-182.385 1604.57,-157.132 1615.71,-140.356"/>
<polygon fill="midnightblue" stroke="midnightblue" points="1618.88,-141.889 1621.35,-131.586 1613,-138.1 1618.88,-141.889"/>
</g>
<!-- Node12&#45;&gt;Node5 -->
<g id="edge14" class="edge"><title>Node12&#45;&gt;Node5</title>
<path fill="none" stroke="midnightblue" d="M666.018,-363.747C640.951,-329.861 551.608,-208.695 548.5,-199 544.294,-185.88 539.765,-178.655 548.5,-168 600.224,-104.907 650.624,-156.316 728.5,-132 825.447,-101.729 934.285,-48.9026 982.786,-24.306"/>
<polygon fill="midnightblue" stroke="midnightblue" points="984.612,-27.304 991.928,-19.6409 981.43,-21.069 984.612,-27.304"/>
</g>
<!-- Node12&#45;&gt;Node9 -->
<g id="edge13" class="edge"><title>Node12&#45;&gt;Node9</title>
<path fill="none" stroke="midnightblue" d="M717.602,-363.994C768.975,-354.223 855.401,-337.533 929.5,-322 1175.5,-270.431 1309.42,-382.21 1481.5,-199 1495.69,-183.89 1497.09,-159.171 1495.99,-142.045"/>
<polygon fill="midnightblue" stroke="midnightblue" points="1499.42,-141.219 1494.95,-131.614 1492.45,-141.911 1499.42,-141.219"/>
</g>
<!-- Node13 -->
<g id="node13" class="node"><title>Node13</title>
<polygon fill="none" stroke="#bfbfbf" points="276.5,-297 276.5,-316 322.5,-316 322.5,-297 276.5,-297"/>
<text text-anchor="middle" x="299.5" y="-304" font-family="Helvetica,sans-Serif" font-size="10.00">chrono</text>
</g>
<!-- Node12&#45;&gt;Node13 -->
<g id="edge12" class="edge"><title>Node12&#45;&gt;Node13</title>
<path fill="none" stroke="midnightblue" d="M608.831,-368.385C539.467,-362.683 425.799,-349.754 331.5,-322 329.569,-321.432 327.604,-320.769 325.646,-320.046"/>
<polygon fill="midnightblue" stroke="midnightblue" points="326.681,-316.685 316.103,-316.08 323.995,-323.149 326.681,-316.685"/>
</g>
<!-- Node14 -->
<g id="node14" class="node"><title>Node14</title>
<polygon fill="none" stroke="#bfbfbf" points="387,-56.5 387,-75.5 422,-75.5 422,-56.5 387,-56.5"/>
<text text-anchor="middle" x="404.5" y="-63.5" font-family="Helvetica,sans-Serif" font-size="10.00">map</text>
</g>
<!-- Node12&#45;&gt;Node14 -->
<g id="edge15" class="edge"><title>Node12&#45;&gt;Node14</title>
<path fill="none" stroke="midnightblue" d="M608.781,-369.116C500.405,-362.703 289.69,-347.129 267.5,-322 224.842,-273.693 310.034,-275.007 357.5,-199 380.613,-161.989 394.411,-112.038 400.601,-85.451"/>
<polygon fill="midnightblue" stroke="midnightblue" points="404.038,-86.1143 402.792,-75.593 397.205,-84.595 404.038,-86.1143"/>
</g>
<!-- Node15 -->
<g id="node15" class="node"><title>Node15</title>
<polygon fill="none" stroke="#bfbfbf" points="340.5,-297 340.5,-316 432.5,-316 432.5,-297 340.5,-297"/>
<text text-anchor="middle" x="386.5" y="-304" font-family="Helvetica,sans-Serif" font-size="10.00">Common/Timer.h</text>
</g>
<!-- Node12&#45;&gt;Node15 -->
<g id="edge17" class="edge"><title>Node12&#45;&gt;Node15</title>
<path fill="none" stroke="midnightblue" d="M631.068,-363.997C584.743,-354.361 507.549,-337.918 441.5,-322 437.06,-320.93 432.429,-319.773 427.821,-318.596"/>
<polygon fill="midnightblue" stroke="midnightblue" points="428.412,-315.134 417.854,-316.012 426.655,-321.91 428.412,-315.134"/>
</g>
<!-- Node16 -->
<g id="node16" class="node"><title>Node16</title>
<polygon fill="none" stroke="#bfbfbf" points="1462.5,-297 1462.5,-316 1560.5,-316 1560.5,-297 1462.5,-297"/>
<text text-anchor="middle" x="1511.5" y="-304" font-family="Helvetica,sans-Serif" font-size="10.00">Framework/Task.h</text>
</g>
<!-- Node12&#45;&gt;Node16 -->
<g id="edge18" class="edge"><title>Node12&#45;&gt;Node16</title>
<path fill="none" stroke="midnightblue" d="M736.235,-371.822C869.286,-369.645 1186.02,-360.49 1448.5,-322 1455.21,-321.015 1462.27,-319.687 1469.14,-318.232"/>
<polygon fill="midnightblue" stroke="midnightblue" points="1469.99,-321.627 1478.99,-316.035 1468.47,-314.795 1469.99,-321.627"/>
</g>
<!-- Node17 -->
<g id="node17" class="node"><title>Node17</title>
<polygon fill="none" stroke="#bfbfbf" points="451,-297 451,-316 568,-316 568,-297 451,-297"/>
<text text-anchor="middle" x="509.5" y="-304" font-family="Helvetica,sans-Serif" font-size="10.00">Headers/DataHeader.h</text>
</g>
<!-- Node12&#45;&gt;Node17 -->
<g id="edge19" class="edge"><title>Node12&#45;&gt;Node17</title>
<path fill="none" stroke="midnightblue" d="M650.855,-363.869C622.523,-352.571 572.684,-332.696 540.391,-319.818"/>
<polygon fill="midnightblue" stroke="midnightblue" points="541.56,-316.517 530.975,-316.064 538.967,-323.019 541.56,-316.517"/>
</g>
<!-- Node18 -->
<g id="node18" class="node"><title>Node18</title>
<g id="a_node18"><a xlink:href="CheckInterface_8h.html" target="_top" xlink:title="QualityControl/CheckInterface.h">
<polygon fill="none" stroke="black" points="192,-174 192,-193 349,-193 349,-174 192,-174"/>
<text text-anchor="middle" x="270.5" y="-181" font-family="Helvetica,sans-Serif" font-size="10.00">QualityControl/CheckInterface.h</text>
</a>
</g>
</g>
<!-- Node12&#45;&gt;Node18 -->
<g id="edge20" class="edge"><title>Node12&#45;&gt;Node18</title>
<path fill="none" stroke="midnightblue" d="M608.646,-369.752C493.099,-364.12 258.947,-349.428 234.5,-322 203.684,-287.426 237.404,-229.64 257.595,-201.262"/>
<polygon fill="midnightblue" stroke="midnightblue" points="260.459,-203.274 263.576,-193.148 254.825,-199.121 260.459,-203.274"/>
</g>
<!-- Node20 -->
<g id="node20" class="node"><title>Node20</title>
<g id="a_node20"><a xlink:href="MonitorObject_8h.html" target="_top" xlink:title="QualityControl/MonitorObject.h">
<polygon fill="none" stroke="black" points="569,-112.5 569,-131.5 720,-131.5 720,-112.5 569,-112.5"/>
<text text-anchor="middle" x="644.5" y="-119.5" font-family="Helvetica,sans-Serif" font-size="10.00">QualityControl/MonitorObject.h</text>
</a>
</g>
</g>
<!-- Node12&#45;&gt;Node20 -->
<g id="edge39" class="edge"><title>Node12&#45;&gt;Node20</title>
<path fill="none" stroke="midnightblue" d="M664.183,-363.923C648.321,-347.931 612.141,-313.175 576.5,-291 514.225,-252.254 466.95,-267.013 439.5,-199 418.059,-145.876 493.152,-128.975 558.407,-124.051"/>
<polygon fill="midnightblue" stroke="midnightblue" points="559.034,-127.517 568.779,-123.36 558.569,-120.533 559.034,-127.517"/>
</g>
<!-- Node24 -->
<g id="node24" class="node"><title>Node24</title>
<g id="a_node24"><a xlink:href="DatabaseInterface_8h.html" target="_top" xlink:title="QualityControl/DatabaseInterface.h">
<polygon fill="none" stroke="black" points="1276.5,-174 1276.5,-193 1446.5,-193 1446.5,-174 1276.5,-174"/>
<text text-anchor="middle" x="1361.5" y="-181" font-family="Helvetica,sans-Serif" font-size="10.00">QualityControl/DatabaseInterface.h</text>
</a>
</g>
</g>
<!-- Node12&#45;&gt;Node24 -->
<g id="edge33" class="edge"><title>Node12&#45;&gt;Node24</title>
<path fill="none" stroke="midnightblue" d="M704.623,-363.993C742.243,-354.013 806.429,-336.929 861.5,-322 1032.46,-275.653 1235.98,-219.328 1321.02,-195.738"/>
<polygon fill="midnightblue" stroke="midnightblue" points="1322.1,-199.073 1330.8,-193.027 1320.23,-192.328 1322.1,-199.073"/>
</g>
<!-- Node26 -->
<g id="node26" class="node"><title>Node26</title>
<g id="a_node26"><a xlink:href="QcInfoLogger_8h.html" target="_top" xlink:title="QualityControl/QcInfoLogger.h">
<polygon fill="none" stroke="black" points="704,-297 704,-316 853,-316 853,-297 704,-297"/>
<text text-anchor="middle" x="778.5" y="-304" font-family="Helvetica,sans-Serif" font-size="10.00">QualityControl/QcInfoLogger.h</text>
</a>
</g>
</g>
<!-- Node12&#45;&gt;Node26 -->
<g id="edge40" class="edge"><title>Node12&#45;&gt;Node26</title>
<path fill="none" stroke="midnightblue" d="M686.796,-363.734C704.517,-352.867 734.932,-334.216 755.844,-321.393"/>
<polygon fill="midnightblue" stroke="midnightblue" points="757.736,-324.339 764.431,-316.127 754.076,-318.371 757.736,-324.339"/>
</g>
<!-- Node18&#45;&gt;Node5 -->
<g id="edge21" class="edge"><title>Node18&#45;&gt;Node5</title>
<path fill="none" stroke="midnightblue" d="M274.748,-173.683C286.859,-149.67 324.156,-83.094 377.5,-56 431.328,-28.6601 858.212,-15.0871 977.584,-11.8017"/>
<polygon fill="midnightblue" stroke="midnightblue" points="977.942,-15.2934 987.844,-11.524 977.752,-8.29594 977.942,-15.2934"/>
</g>
<!-- Node19 -->
<g id="node19" class="node"><title>Node19</title>
<polygon fill="none" stroke="#bfbfbf" points="472.5,-0.5 472.5,-19.5 528.5,-19.5 528.5,-0.5 472.5,-0.5"/>
<text text-anchor="middle" x="500.5" y="-7.5" font-family="Helvetica,sans-Serif" font-size="10.00">Rtypes.h</text>
</g>
<!-- Node18&#45;&gt;Node19 -->
<g id="edge22" class="edge"><title>Node18&#45;&gt;Node19</title>
<path fill="none" stroke="midnightblue" d="M268.886,-173.714C265.246,-150.902 259.003,-89.2549 290.5,-56 313.576,-31.6361 408.022,-19.2866 462.066,-14.1014"/>
<polygon fill="midnightblue" stroke="midnightblue" points="462.666,-17.561 472.303,-13.1585 462.024,-10.5906 462.666,-17.561"/>
</g>
<!-- Node18&#45;&gt;Node20 -->
<g id="edge23" class="edge"><title>Node18&#45;&gt;Node20</title>
<path fill="none" stroke="midnightblue" d="M324.085,-173.975C391.989,-163.172 508.864,-144.578 581.124,-133.083"/>
<polygon fill="midnightblue" stroke="midnightblue" points="581.688,-136.537 591.014,-131.509 580.589,-129.624 581.688,-136.537"/>
</g>
<!-- Node23 -->
<g id="node23" class="node"><title>Node23</title>
<g id="a_node23"><a xlink:href="Quality_8h.html" target="_top" xlink:title="QualityControl/Quality.h">
<polygon fill="none" stroke="black" points="440,-56.5 440,-75.5 561,-75.5 561,-56.5 440,-56.5"/>
<text text-anchor="middle" x="500.5" y="-63.5" font-family="Helvetica,sans-Serif" font-size="10.00">QualityControl/Quality.h</text>
</a>
</g>
</g>
<!-- Node18&#45;&gt;Node23 -->
<g id="edge32" class="edge"><title>Node18&#45;&gt;Node23</title>
<path fill="none" stroke="midnightblue" d="M287.787,-173.819C327.762,-153.745 426.791,-104.015 474.281,-80.1667"/>
<polygon fill="midnightblue" stroke="midnightblue" points="475.96,-83.24 483.326,-75.6245 472.819,-76.9844 475.96,-83.24"/>
</g>
<!-- Node20&#45;&gt;Node5 -->
<g id="edge24" class="edge"><title>Node20&#45;&gt;Node5</title>
<path fill="none" stroke="midnightblue" d="M687.12,-112.423C723.178,-104.619 775.945,-91.903 820.5,-76 840.351,-68.9147 843.835,-63.5852 863.5,-56 902.217,-41.066 948.154,-27.4809 977.787,-19.2339"/>
<polygon fill="midnightblue" stroke="midnightblue" points="978.838,-22.5749 987.55,-16.546 976.98,-15.826 978.838,-22.5749"/>
</g>
<!-- Node20&#45;&gt;Node14 -->
<g id="edge25" class="edge"><title>Node20&#45;&gt;Node14</title>
<path fill="none" stroke="midnightblue" d="M595.206,-112.461C553.773,-104.873 492.868,-92.7655 431.823,-76.1144"/>
<polygon fill="midnightblue" stroke="midnightblue" points="432.599,-72.6976 422.028,-73.403 430.732,-79.444 432.599,-72.6976"/>
</g>
<!-- Node20&#45;&gt;Node19 -->
<g id="edge26" class="edge"><title>Node20&#45;&gt;Node19</title>
<path fill="none" stroke="midnightblue" d="M635.142,-112.152C621.283,-99.2207 594.265,-74.6707 569.5,-56 554.747,-44.8776 537.312,-33.5211 523.66,-24.9992"/>
<polygon fill="midnightblue" stroke="midnightblue" points="525.24,-21.8616 514.891,-19.59 521.564,-27.8192 525.24,-21.8616"/>
</g>
<!-- Node21 -->
<g id="node21" class="node"><title>Node21</title>
<polygon fill="none" stroke="#bfbfbf" points="618,-56.5 618,-75.5 677,-75.5 677,-56.5 618,-56.5"/>
<text text-anchor="middle" x="647.5" y="-63.5" font-family="Helvetica,sans-Serif" font-size="10.00">TObject.h</text>
</g>
<!-- Node20&#45;&gt;Node21 -->
<g id="edge27" class="edge"><title>Node20&#45;&gt;Node21</title>
<path fill="none" stroke="midnightblue" d="M644.995,-112.083C645.389,-105.006 645.952,-94.8611 646.445,-85.9865"/>
<polygon fill="midnightblue" stroke="midnightblue" points="649.954,-85.9299 647.014,-75.7511 642.964,-85.5415 649.954,-85.9299"/>
</g>
<!-- Node22 -->
<g id="node22" class="node"><title>Node22</title>
<polygon fill="none" stroke="#bfbfbf" points="695.5,-56.5 695.5,-75.5 811.5,-75.5 811.5,-56.5 695.5,-56.5"/>
<text text-anchor="middle" x="753.5" y="-63.5" font-family="Helvetica,sans-Serif" font-size="10.00">Common/Exceptions.h</text>
</g>
<!-- Node20&#45;&gt;Node22 -->
<g id="edge28" class="edge"><title>Node20&#45;&gt;Node22</title>
<path fill="none" stroke="midnightblue" d="M662.013,-112.324C679.572,-103.625 706.831,-90.1202 727.031,-80.113"/>
<polygon fill="midnightblue" stroke="midnightblue" points="728.624,-83.23 736.031,-75.6545 725.516,-76.9575 728.624,-83.23"/>
</g>
<!-- Node20&#45;&gt;Node23 -->
<g id="edge29" class="edge"><title>Node20&#45;&gt;Node23</title>
<path fill="none" stroke="midnightblue" d="M621.683,-112.444C597.668,-103.438 559.671,-89.1891 532.631,-79.049"/>
<polygon fill="midnightblue" stroke="midnightblue" points="533.803,-75.7506 523.21,-75.5164 531.345,-82.3049 533.803,-75.7506"/>
</g>
<!-- Node23&#45;&gt;Node5 -->
<g id="edge31" class="edge"><title>Node23&#45;&gt;Node5</title>
<path fill="none" stroke="midnightblue" d="M561.02,-58.5667C670.043,-46.9777 895.718,-22.9886 977.8,-14.2634"/>
<polygon fill="midnightblue" stroke="midnightblue" points="978.39,-17.7205 987.964,-13.183 977.65,-10.7597 978.39,-17.7205"/>
</g>
<!-- Node23&#45;&gt;Node19 -->
<g id="edge30" class="edge"><title>Node23&#45;&gt;Node19</title>
<path fill="none" stroke="midnightblue" d="M500.5,-56.083C500.5,-49.0059 500.5,-38.8611 500.5,-29.9865"/>
<polygon fill="midnightblue" stroke="midnightblue" points="504,-29.751 500.5,-19.7511 497,-29.7511 504,-29.751"/>
</g>
<!-- Node24&#45;&gt;Node4 -->
<g id="edge36" class="edge"><title>Node24&#45;&gt;Node4</title>
<path fill="none" stroke="midnightblue" d="M1399.47,-173.975C1451.84,-162.215 1545.34,-141.223 1594.41,-130.205"/>
<polygon fill="midnightblue" stroke="midnightblue" points="1595.19,-133.618 1604.18,-128.012 1593.65,-126.788 1595.19,-133.618"/>
</g>
<!-- Node24&#45;&gt;Node5 -->
<g id="edge34" class="edge"><title>Node24&#45;&gt;Node5</title>
<path fill="none" stroke="midnightblue" d="M1357.61,-173.977C1346.5,-150.713 1312.22,-85.8755 1262.5,-56 1225.28,-33.6348 1098.69,-19.3307 1039.49,-13.7091"/>
<polygon fill="midnightblue" stroke="midnightblue" points="1039.54,-10.1986 1029.26,-12.7605 1038.89,-17.1687 1039.54,-10.1986"/>
</g>
<!-- Node24&#45;&gt;Node9 -->
<g id="edge35" class="edge"><title>Node24&#45;&gt;Node9</title>
<path fill="none" stroke="midnightblue" d="M1380.41,-173.975C1402.66,-163.945 1439.81,-147.2 1465.43,-135.655"/>
<polygon fill="midnightblue" stroke="midnightblue" points="1466.94,-138.809 1474.62,-131.509 1464.07,-132.428 1466.94,-138.809"/>
</g>
<!-- Node24&#45;&gt;Node20 -->
<g id="edge38" class="edge"><title>Node24&#45;&gt;Node20</title>
<path fill="none" stroke="midnightblue" d="M1276.33,-175.185C1249.22,-172.87 1219.1,-170.312 1191.5,-168 1028.45,-154.34 838.038,-138.759 730.322,-129.98"/>
<polygon fill="midnightblue" stroke="midnightblue" points="730.412,-126.476 720.16,-129.152 729.843,-133.453 730.412,-126.476"/>
</g>
<!-- Node25 -->
<g id="node25" class="node"><title>Node25</title>
<polygon fill="none" stroke="#bfbfbf" points="1137,-56.5 1137,-75.5 1220,-75.5 1220,-56.5 1137,-56.5"/>
<text text-anchor="middle" x="1178.5" y="-63.5" font-family="Helvetica,sans-Serif" font-size="10.00">unordered_map</text>
</g>
<!-- Node24&#45;&gt;Node25 -->
<g id="edge37" class="edge"><title>Node24&#45;&gt;Node25</title>
<path fill="none" stroke="midnightblue" d="M1347.75,-173.819C1316.48,-154.086 1239.82,-105.699 1201.33,-81.4068"/>
<polygon fill="midnightblue" stroke="midnightblue" points="1202.74,-78.1596 1192.41,-75.782 1199,-84.0792 1202.74,-78.1596"/>
</g>
<!-- Node27 -->
<g id="node27" class="node"><title>Node27</title>
<polygon fill="none" stroke="#bfbfbf" points="713.5,-235.5 713.5,-254.5 843.5,-254.5 843.5,-235.5 713.5,-235.5"/>
<text text-anchor="middle" x="778.5" y="-242.5" font-family="Helvetica,sans-Serif" font-size="10.00">InfoLogger/InfoLogger.hxx</text>
</g>
<!-- Node26&#45;&gt;Node27 -->
<g id="edge41" class="edge"><title>Node26&#45;&gt;Node27</title>
<path fill="none" stroke="midnightblue" d="M778.5,-296.975C778.5,-288.58 778.5,-275.481 778.5,-264.663"/>
<polygon fill="midnightblue" stroke="midnightblue" points="782,-264.509 778.5,-254.509 775,-264.509 782,-264.509"/>
</g>
<!-- Node28 -->
<g id="node28" class="node"><title>Node28</title>
<g id="a_node28"><a xlink:href="TaskInterface_8h.html" target="_top" xlink:title="QualityControl/TaskInterface.h">
<polygon fill="none" stroke="black" points="866.5,-235.5 866.5,-254.5 1016.5,-254.5 1016.5,-235.5 866.5,-235.5"/>
<text text-anchor="middle" x="941.5" y="-242.5" font-family="Helvetica,sans-Serif" font-size="10.00">QualityControl/TaskInterface.h</text>
</a>
</g>
</g>
<!-- Node26&#45;&gt;Node28 -->
<g id="edge42" class="edge"><title>Node26&#45;&gt;Node28</title>
<path fill="none" stroke="midnightblue" d="M801.854,-296.975C829.814,-286.769 876.826,-269.608 908.491,-258.049"/>
<polygon fill="midnightblue" stroke="midnightblue" points="909.996,-261.226 918.189,-254.509 907.595,-254.65 909.996,-261.226"/>
</g>
<!-- Node28&#45;&gt;Node5 -->
<g id="edge45" class="edge"><title>Node28&#45;&gt;Node5</title>
<path fill="none" stroke="midnightblue" d="M1016.69,-241.154C1087,-236.837 1185.01,-226.02 1211.5,-199 1256.34,-153.258 1270.03,-105.609 1229.5,-56 1205.81,-27.003 1094.17,-16.2165 1039.22,-12.615"/>
<polygon fill="midnightblue" stroke="midnightblue" points="1039.22,-9.1087 1029.02,-11.9873 1038.79,-16.0955 1039.22,-9.1087"/>
</g>
<!-- Node28&#45;&gt;Node9 -->
<g id="edge44" class="edge"><title>Node28&#45;&gt;Node9</title>
<path fill="none" stroke="midnightblue" d="M1016.72,-241.442C1150.71,-236.299 1420.08,-223.085 1455.5,-199 1474.9,-185.81 1484.86,-159.687 1489.62,-141.784"/>
<polygon fill="midnightblue" stroke="midnightblue" points="1493.07,-142.425 1491.95,-131.888 1486.25,-140.819 1493.07,-142.425"/>
</g>
<!-- Node28&#45;&gt;Node14 -->
<g id="edge43" class="edge"><title>Node28&#45;&gt;Node14</title>
<path fill="none" stroke="midnightblue" d="M866.058,-235.954C753.94,-223.913 555.656,-202.264 548.5,-199 490.058,-172.34 439.268,-112.872 416.799,-83.7375"/>
<polygon fill="midnightblue" stroke="midnightblue" points="419.578,-81.6095 410.758,-75.7394 413.992,-85.8285 419.578,-81.6095"/>
</g>
<!-- Node28&#45;&gt;Node25 -->
<g id="edge46" class="edge"><title>Node28&#45;&gt;Node25</title>
<path fill="none" stroke="midnightblue" d="M1016.67,-240.802C1081.99,-236.257 1169.51,-225.305 1191.5,-199 1218.61,-166.573 1200.16,-112.787 1187.55,-84.941"/>
<polygon fill="midnightblue" stroke="midnightblue" points="1190.57,-83.1539 1183.11,-75.6374 1184.26,-86.1697 1190.57,-83.1539"/>
</g>
<!-- Node29 -->
<g id="node29" class="node"><title>Node29</title>
<polygon fill="none" stroke="#bfbfbf" points="558,-174 558,-193 683,-193 683,-174 558,-174"/>
<text text-anchor="middle" x="620.5" y="-181" font-family="Helvetica,sans-Serif" font-size="10.00">Framework/InitContext.h</text>
</g>
<!-- Node28&#45;&gt;Node29 -->
<g id="edge47" class="edge"><title>Node28&#45;&gt;Node29</title>
<path fill="none" stroke="midnightblue" d="M892.78,-235.491C842.545,-226.648 761.97,-212.271 692.5,-199 685.936,-197.746 679.043,-196.398 672.229,-195.047"/>
<polygon fill="midnightblue" stroke="midnightblue" points="672.844,-191.6 662.352,-193.075 671.473,-198.465 672.844,-191.6"/>
</g>
<!-- Node30 -->
<g id="node30" class="node"><title>Node30</title>
<polygon fill="none" stroke="#bfbfbf" points="701.5,-174 701.5,-193 861.5,-193 861.5,-174 701.5,-174"/>
<text text-anchor="middle" x="781.5" y="-181" font-family="Helvetica,sans-Serif" font-size="10.00">Framework/ProcessingContext.h</text>
</g>
<!-- Node28&#45;&gt;Node30 -->
<g id="edge48" class="edge"><title>Node28&#45;&gt;Node30</title>
<path fill="none" stroke="midnightblue" d="M918.576,-235.475C891.13,-225.269 844.984,-208.108 813.901,-196.549"/>
<polygon fill="midnightblue" stroke="midnightblue" points="814.974,-193.214 804.382,-193.009 812.535,-199.775 814.974,-193.214"/>
</g>
<!-- Node31 -->
<g id="node31" class="node"><title>Node31</title>
<g id="a_node31"><a xlink:href="Activity_8h.html" target="_top" xlink:title="QualityControl/Activity.h">
<polygon fill="none" stroke="black" points="880,-174 880,-193 1003,-193 1003,-174 880,-174"/>
<text text-anchor="middle" x="941.5" y="-181" font-family="Helvetica,sans-Serif" font-size="10.00">QualityControl/Activity.h</text>
</a>
</g>
</g>
<!-- Node28&#45;&gt;Node31 -->
<g id="edge49" class="edge"><title>Node28&#45;&gt;Node31</title>
<path fill="none" stroke="midnightblue" d="M941.5,-235.475C941.5,-227.08 941.5,-213.981 941.5,-203.163"/>
<polygon fill="midnightblue" stroke="midnightblue" points="945,-203.009 941.5,-193.009 938,-203.009 945,-203.009"/>
</g>
<!-- Node32 -->
<g id="node32" class="node"><title>Node32</title>
<g id="a_node32"><a xlink:href="ObjectsManager_8h.html" target="_top" xlink:title="QualityControl/ObjectsManager.h">
<polygon fill="none" stroke="black" points="1021,-174 1021,-193 1182,-193 1182,-174 1021,-174"/>
<text text-anchor="middle" x="1101.5" y="-181" font-family="Helvetica,sans-Serif" font-size="10.00">QualityControl/ObjectsManager.h</text>
</a>
</g>
</g>
<!-- Node28&#45;&gt;Node32 -->
<g id="edge50" class="edge"><title>Node28&#45;&gt;Node32</title>
<path fill="none" stroke="midnightblue" d="M964.424,-235.475C991.87,-225.269 1038.02,-208.108 1069.1,-196.549"/>
<polygon fill="midnightblue" stroke="midnightblue" points="1070.47,-199.775 1078.62,-193.009 1068.03,-193.214 1070.47,-199.775"/>
</g>
<!-- Node32&#45;&gt;Node5 -->
<g id="edge56" class="edge"><title>Node32&#45;&gt;Node5</title>
<path fill="none" stroke="midnightblue" d="M1080.36,-173.838C1063.23,-165.668 1039.97,-151.719 1027.5,-132 1007.49,-100.361 1006.02,-55.0186 1007.05,-29.78"/>
<polygon fill="midnightblue" stroke="midnightblue" points="1010.55,-29.9084 1007.64,-19.72 1003.56,-29.4972 1010.55,-29.9084"/>
</g>
<!-- Node32&#45;&gt;Node9 -->
<g id="edge57" class="edge"><title>Node32&#45;&gt;Node9</title>
<path fill="none" stroke="midnightblue" d="M1157.66,-173.975C1239.42,-161.566 1388.9,-138.877 1457.43,-128.474"/>
<polygon fill="midnightblue" stroke="midnightblue" points="1457.97,-131.934 1467.33,-126.972 1456.92,-125.013 1457.97,-131.934"/>
</g>
<!-- Node32&#45;&gt;Node20 -->
<g id="edge51" class="edge"><title>Node32&#45;&gt;Node20</title>
<path fill="none" stroke="midnightblue" d="M1051.19,-173.945C1038.57,-171.898 1025.05,-169.789 1012.5,-168 916.04,-154.25 804.981,-141.027 730.317,-132.515"/>
<polygon fill="midnightblue" stroke="midnightblue" points="730.36,-128.997 720.029,-131.345 729.57,-135.952 730.36,-128.997"/>
</g>
<!-- Node32&#45;&gt;Node23 -->
<g id="edge52" class="edge"><title>Node32&#45;&gt;Node23</title>
<path fill="none" stroke="midnightblue" d="M1053.57,-173.949C1040.3,-171.784 1025.87,-169.617 1012.5,-168 912.247,-155.871 650.142,-176.517 559.5,-132 538.203,-121.54 520.988,-99.7625 510.767,-84.3014"/>
<polygon fill="midnightblue" stroke="midnightblue" points="513.616,-82.2557 505.333,-75.6486 507.688,-85.9786 513.616,-82.2557"/>
</g>
<!-- Node33 -->
<g id="node33" class="node"><title>Node33</title>
<g id="a_node33"><a xlink:href="TaskConfig_8h.html" target="_top" xlink:title="QualityControl/TaskConfig.h">
<polygon fill="none" stroke="black" points="1036.5,-112.5 1036.5,-131.5 1176.5,-131.5 1176.5,-112.5 1036.5,-112.5"/>
<text text-anchor="middle" x="1106.5" y="-119.5" font-family="Helvetica,sans-Serif" font-size="10.00">QualityControl/TaskConfig.h</text>
</a>
</g>
</g>
<!-- Node32&#45;&gt;Node33 -->
<g id="edge53" class="edge"><title>Node32&#45;&gt;Node33</title>
<path fill="none" stroke="midnightblue" d="M1102.22,-173.975C1102.92,-165.58 1104.02,-152.481 1104.93,-141.663"/>
<polygon fill="midnightblue" stroke="midnightblue" points="1108.44,-141.767 1105.78,-131.509 1101.46,-141.181 1108.44,-141.767"/>
</g>
<!-- Node33&#45;&gt;Node5 -->
<g id="edge54" class="edge"><title>Node33&#45;&gt;Node5</title>
<path fill="none" stroke="midnightblue" d="M1098.81,-112.368C1082.49,-94.0547 1044.18,-51.0489 1023.08,-27.3624"/>
<polygon fill="midnightblue" stroke="midnightblue" points="1025.42,-24.7298 1016.15,-19.5914 1020.19,-29.3863 1025.42,-24.7298"/>
</g>
<!-- Node33&#45;&gt;Node25 -->
<g id="edge55" class="edge"><title>Node33&#45;&gt;Node25</title>
<path fill="none" stroke="midnightblue" d="M1118.07,-112.324C1128.92,-104.185 1145.38,-91.8395 1158.38,-82.0874"/>
<polygon fill="midnightblue" stroke="midnightblue" points="1160.82,-84.6339 1166.72,-75.8339 1156.62,-79.0339 1160.82,-84.6339"/>
</g>
<!-- Node34&#45;&gt;Node5 -->
<g id="edge59" class="edge"><title>Node34&#45;&gt;Node5</title>
<path fill="none" stroke="midnightblue" d="M305.766,-363.971C252.984,-349.553 163.5,-314.943 163.5,-246 163.5,-246 163.5,-246 163.5,-121 163.5,-37.2063 825.34,-15.5724 977.55,-11.7051"/>
<polygon fill="midnightblue" stroke="midnightblue" points="977.702,-15.2025 987.612,-11.4567 977.529,-8.2046 977.702,-15.2025"/>
</g>
<!-- Node35 -->
<g id="node35" class="node"><title>Node35</title>
<polygon fill="none" stroke="#bfbfbf" points="0,-291.5 0,-321.5 135,-321.5 135,-291.5 0,-291.5"/>
<text text-anchor="start" x="8" y="-309.5" font-family="Helvetica,sans-Serif" font-size="10.00">Configuration/Configuration</text>
<text text-anchor="middle" x="67.5" y="-298.5" font-family="Helvetica,sans-Serif" font-size="10.00">Factory.h</text>
</g>
<!-- Node34&#45;&gt;Node35 -->
<g id="edge60" class="edge"><title>Node34&#45;&gt;Node35</title>
<path fill="none" stroke="midnightblue" d="M307.134,-363.936C264.002,-353.778 191.147,-336.62 137.066,-323.883"/>
<polygon fill="midnightblue" stroke="midnightblue" points="137.733,-320.445 127.197,-321.559 136.129,-327.258 137.733,-320.445"/>
</g>
<!-- Node36&#45;&gt;Node5 -->
<g id="edge62" class="edge"><title>Node36&#45;&gt;Node5</title>
<path fill="none" stroke="midnightblue" d="M1759.14,-365.509C1790.34,-358.896 1824.6,-346.211 1847.5,-322 1871.43,-296.707 1866.5,-280.817 1866.5,-246 1866.5,-246 1866.5,-246 1866.5,-121 1866.5,-35.8469 1193.03,-15.2364 1039.43,-11.6431"/>
<polygon fill="midnightblue" stroke="midnightblue" points="1039.36,-8.14076 1029.28,-11.4131 1039.2,-15.139 1039.36,-8.14076"/>
</g>
<!-- Node36&#45;&gt;Node8 -->
<g id="edge64" class="edge"><title>Node36&#45;&gt;Node8</title>
<path fill="none" stroke="midnightblue" d="M1745.88,-358.419C1784.75,-349.076 1835.91,-335.992 1880.5,-322 1883.06,-321.196 1885.7,-320.321 1888.34,-319.411"/>
<polygon fill="midnightblue" stroke="midnightblue" points="1889.54,-322.699 1897.77,-316.032 1887.18,-316.109 1889.54,-322.699"/>
</g>
<!-- Node36&#45;&gt;Node9 -->
<g id="edge63" class="edge"><title>Node36&#45;&gt;Node9</title>
<path fill="none" stroke="midnightblue" d="M1653.21,-358.3C1637.7,-349.802 1619.91,-337.602 1608.5,-322 1566.49,-264.537 1607.13,-225.007 1564.5,-168 1554.18,-154.194 1538.26,-143.548 1524.12,-136.085"/>
<polygon fill="midnightblue" stroke="midnightblue" points="1525.67,-132.947 1515.15,-131.639 1522.56,-139.218 1525.67,-132.947"/>
</g>
<!-- Node36&#45;&gt;Node16 -->
<g id="edge66" class="edge"><title>Node36&#45;&gt;Node16</title>
<path fill="none" stroke="midnightblue" d="M1646.96,-358.396C1616.2,-346.84 1573.13,-330.656 1543.87,-319.663"/>
<polygon fill="midnightblue" stroke="midnightblue" points="1544.73,-316.248 1534.14,-316.007 1542.27,-322.801 1544.73,-316.248"/>
</g>
<!-- Node36&#45;&gt;Node20 -->
<g id="edge68" class="edge"><title>Node36&#45;&gt;Node20</title>
<path fill="none" stroke="midnightblue" d="M1609.93,-371.034C1394.35,-366.47 780.282,-351.048 694.5,-322 648.786,-306.52 537.974,-241.712 515.5,-199 509.084,-186.807 507.522,-179.233 515.5,-168 527.074,-151.705 545.004,-141.262 563.854,-134.584"/>
<polygon fill="midnightblue" stroke="midnightblue" points="565.001,-137.891 573.46,-131.511 562.869,-131.224 565.001,-137.891"/>
</g>
<!-- Node37 -->
<g id="node37" class="node"><title>Node37</title>
<polygon fill="none" stroke="#bfbfbf" points="1617,-297 1617,-316 1686,-316 1686,-297 1617,-297"/>
<text text-anchor="middle" x="1651.5" y="-304" font-family="Helvetica,sans-Serif" font-size="10.00">TObjArray.h</text>
</g>
<!-- Node36&#45;&gt;Node37 -->
<g id="edge65" class="edge"><title>Node36&#45;&gt;Node37</title>
<path fill="none" stroke="midnightblue" d="M1677.34,-358.396C1672.4,-348.662 1665.79,-335.646 1660.49,-325.214"/>
<polygon fill="midnightblue" stroke="midnightblue" points="1663.56,-323.527 1655.91,-316.195 1657.32,-326.696 1663.56,-323.527"/>
</g>
<!-- Node38 -->
<g id="node38" class="node"><title>Node38</title>
<polygon fill="none" stroke="#bfbfbf" points="1704.5,-297 1704.5,-316 1838.5,-316 1838.5,-297 1704.5,-297"/>
<text text-anchor="middle" x="1771.5" y="-304" font-family="Helvetica,sans-Serif" font-size="10.00">Framework/DataRefUtils.h</text>
</g>
<!-- Node36&#45;&gt;Node38 -->
<g id="edge67" class="edge"><title>Node36&#45;&gt;Node38</title>
<path fill="none" stroke="midnightblue" d="M1703.38,-358.396C1717.61,-347.759 1737.1,-333.203 1751.58,-322.381"/>
<polygon fill="midnightblue" stroke="midnightblue" points="1753.95,-324.984 1759.86,-316.195 1749.76,-319.376 1753.95,-324.984"/>
</g>
</g>
</svg>
        <g id="navigator" transform="translate(0 0)" fill="#404254">
                <rect fill="#f2f5e9" fill-opacity="0.5" stroke="#606060" stroke-width=".5" x="0" y="0" width="60" height="60"/>
                <use id="zoomplus" xlink:href="#zoomPlus" x="17" y="9" onmousedown="handleZoom(evt,'in')"/>
                <use id="zoomminus" xlink:href="#zoomMin" x="42" y="9" onmousedown="handleZoom(evt,'out')"/>
                <use id="reset" xlink:href="#resetDef" x="30" y="36" onmousedown="handleReset()"/>
                <g id="arrowUp" xlink:href="#dirArrow" transform="translate(30 24)" onmousedown="handlePan(0,-1)">
                  <use xlink:href="#rim" fill="#404040">
                        <set attributeName="fill" to="#808080" begin="arrowUp.mouseover" end="arrowUp.mouseout"/>
                  </use>
                  <path fill="none" stroke="white" stroke-width="1.5" d="M0,-3.0v7 M-2.5,-0.5L0,-3.0L2.5,-0.5"/>
                </g>
                <g id="arrowRight" xlink:href="#dirArrow" transform="rotate(90) translate(36 -43)" onmousedown="handlePan(1,0)">
                  <use xlink:href="#rim" fill="#404040">
                        <set attributeName="fill" to="#808080" begin="arrowRight.mouseover" end="arrowRight.mouseout"/>
                  </use>
                  <path fill="none" stroke="white" stroke-width="1.5" d="M0,-3.0v7 M-2.5,-0.5L0,-3.0L2.5,-0.5"/>
                </g>
                <g id="arrowDown" xlink:href="#dirArrow" transform="rotate(180) translate(-30 -48)" onmousedown="handlePan(0,1)">
                  <use xlink:href="#rim" fill="#404040">
                        <set attributeName="fill" to="#808080" begin="arrowDown.mouseover" end="arrowDown.mouseout"/>
                  </use>
                  <path fill="none" stroke="white" stroke-width="1.5" d="M0,-3.0v7 M-2.5,-0.5L0,-3.0L2.5,-0.5"/>
                </g>
                <g id="arrowLeft" xlink:href="#dirArrow" transform="rotate(270) translate(-36 17)" onmousedown="handlePan(-1,0)">
                  <use xlink:href="#rim" fill="#404040">
                        <set attributeName="fill" to="#808080" begin="arrowLeft.mouseover" end="arrowLeft.mouseout"/>
                  </use>
                  <path fill="none" stroke="white" stroke-width="1.5" d="M0,-3.0v7 M-2.5,-0.5L0,-3.0L2.5,-0.5"/>
                </g>
        </g>
        <svg viewBox="0 0 15 15" width="100%" height="30px" preserveAspectRatio="xMaxYMin meet">
         <g id="arrow_out" transform="scale(0.3 0.3)">
          <a xlink:href="runTOF_8cxx__incl_org.svg" target="_base">
           <rect id="button" ry="5" rx="5" y="6" x="6" height="38" width="38"
                fill="#f2f5e9" fill-opacity="0.5" stroke="#606060" stroke-width="1.0"/>
           <path id="arrow"
             d="M 11.500037,31.436501 C 11.940474,20.09759 22.043105,11.32322 32.158766,21.979434 L 37.068811,17.246167 C 37.068811,17.246167 37.088388,32 37.088388,32 L 22.160133,31.978069 C 22.160133,31.978069 26.997745,27.140456 26.997745,27.140456 C 18.528582,18.264221 13.291696,25.230495 11.500037,31.436501 z"
             style="fill:#404040;"/>
          </a>
         </g>
        </svg>
</svg>
