<?xml version="1.0" encoding="UTF-8" standalone="no"?>
<!DOCTYPE svg PUBLIC "-//W3C//DTD SVG 1.1//EN"
 "http://www.w3.org/Graphics/SVG/1.1/DTD/svg11.dtd">
<!-- Generated by graphviz version 2.38.0 (20140413.2041)
 -->
<!-- Title: Modules/Skeleton/src/SkeletonCheck.cxx Pages: 1 -->
<svg width="493pt" height="319pt"
 viewBox="0.00 0.00 493.45 319.00" xmlns="http://www.w3.org/2000/svg" xmlns:xlink="http://www.w3.org/1999/xlink">
<g id="graph0" class="graph" transform="scale(1 1) rotate(0) translate(4 315)">
<title>Modules/Skeleton/src/SkeletonCheck.cxx</title>
<!-- Node1 -->
<g id="node1" class="node"><title>Node1</title>
<polygon fill="#bfbfbf" stroke="black" points="197.452,-280.5 197.452,-310.5 308.452,-310.5 308.452,-280.5 197.452,-280.5"/>
<text text-anchor="start" x="205.452" y="-298.5" font-family="Helvetica,sans-Serif" font-size="10.00">Modules/Skeleton/src</text>
<text text-anchor="middle" x="252.952" y="-287.5" font-family="Helvetica,sans-Serif" font-size="10.00">/SkeletonCheck.cxx</text>
</g>
<!-- Node2 -->
<g id="node2" class="node"><title>Node2</title>
<g id="a_node2"><a xlink:href="SkeletonCheck_8h.html" target="_top" xlink:title="Skeleton/SkeletonCheck.h">
<polygon fill="none" stroke="black" points="85.452,-224.5 85.452,-243.5 218.452,-243.5 218.452,-224.5 85.452,-224.5"/>
<text text-anchor="middle" x="151.952" y="-231.5" font-family="Helvetica,sans-Serif" font-size="10.00">Skeleton/SkeletonCheck.h</text>
</a>
</g>
</g>
<!-- Node1&#45;&gt;Node2 -->
<g id="edge1" class="edge"><title>Node1&#45;&gt;Node2</title>
<path fill="none" stroke="midnightblue" d="M229.016,-280.399C212.827,-270.862 191.545,-258.325 175.449,-248.842"/>
<polygon fill="midnightblue" stroke="midnightblue" points="177.041,-245.718 166.648,-243.658 173.488,-251.749 177.041,-245.718"/>
</g>
<!-- Node6 -->
<g id="node6" class="node"><title>Node6</title>
<g id="a_node6"><a xlink:href="MonitorObject_8h.html" target="_top" xlink:title="QualityControl/MonitorObject.h">
<polygon fill="none" stroke="black" points="146.452,-112.5 146.452,-131.5 297.452,-131.5 297.452,-112.5 146.452,-112.5"/>
<text text-anchor="middle" x="221.952" y="-119.5" font-family="Helvetica,sans-Serif" font-size="10.00">QualityControl/MonitorObject.h</text>
</a>
</g>
</g>
<!-- Node1&#45;&gt;Node6 -->
<g id="edge15" class="edge"><title>Node1&#45;&gt;Node6</title>
<path fill="none" stroke="midnightblue" d="M251.111,-280.393C247.965,-256.952 241.098,-208.546 232.952,-168 231.188,-159.218 228.876,-149.56 226.828,-141.45"/>
<polygon fill="midnightblue" stroke="midnightblue" points="230.167,-140.384 224.274,-131.579 223.391,-142.137 230.167,-140.384"/>
</g>
<!-- Node10 -->
<g id="node10" class="node"><title>Node10</title>
<g id="a_node10"><a xlink:href="Quality_8h.html" target="_top" xlink:title="QualityControl/Quality.h">
<polygon fill="none" stroke="black" points="12.452,-56.5 12.452,-75.5 133.452,-75.5 133.452,-56.5 12.452,-56.5"/>
<text text-anchor="middle" x="72.952" y="-63.5" font-family="Helvetica,sans-Serif" font-size="10.00">QualityControl/Quality.h</text>
</a>
</g>
</g>
<!-- Node1&#45;&gt;Node10 -->
<g id="edge16" class="edge"><title>Node1&#45;&gt;Node10</title>
<path fill="none" stroke="midnightblue" d="M197.08,-292.001C158.383,-287.381 108.22,-275.218 75.952,-244 32.9143,-202.363 53.6515,-121.573 66.0154,-85.3489"/>
<polygon fill="midnightblue" stroke="midnightblue" points="69.4196,-86.225 69.5038,-75.6305 62.8311,-83.86 69.4196,-86.225"/>
</g>
<!-- Node11 -->
<g id="node11" class="node"><title>Node11</title>
<polygon fill="none" stroke="#bfbfbf" points="281.452,-224.5 281.452,-243.5 378.452,-243.5 378.452,-224.5 281.452,-224.5"/>
<text text-anchor="middle" x="329.952" y="-231.5" font-family="Helvetica,sans-Serif" font-size="10.00">fairlogger/Logger.h</text>
</g>
<!-- Node1&#45;&gt;Node11 -->
<g id="edge17" class="edge"><title>Node1&#45;&gt;Node11</title>
<path fill="none" stroke="midnightblue" d="M271.2,-280.399C283.081,-271.218 298.559,-259.258 310.646,-249.918"/>
<polygon fill="midnightblue" stroke="midnightblue" points="312.975,-252.542 318.748,-243.658 308.695,-247.003 312.975,-252.542"/>
</g>
<!-- Node12 -->
<g id="node12" class="node"><title>Node12</title>
<polygon fill="none" stroke="#bfbfbf" points="395.952,-224.5 395.952,-243.5 439.952,-243.5 439.952,-224.5 395.952,-224.5"/>
<text text-anchor="middle" x="417.952" y="-231.5" font-family="Helvetica,sans-Serif" font-size="10.00">TH1.h</text>
</g>
<!-- Node1&#45;&gt;Node12 -->
<g id="edge18" class="edge"><title>Node1&#45;&gt;Node12</title>
<path fill="none" stroke="midnightblue" d="M292.055,-280.399C320.786,-270.039 359.333,-256.138 386.175,-246.459"/>
<polygon fill="midnightblue" stroke="midnightblue" points="387.624,-249.657 395.844,-242.972 385.249,-243.072 387.624,-249.657"/>
</g>
<!-- Node3 -->
<g id="node3" class="node"><title>Node3</title>
<g id="a_node3"><a xlink:href="CheckInterface_8h.html" target="_top" xlink:title="QualityControl/CheckInterface.h">
<polygon fill="none" stroke="black" points="67.452,-168.5 67.452,-187.5 224.452,-187.5 224.452,-168.5 67.452,-168.5"/>
<text text-anchor="middle" x="145.952" y="-175.5" font-family="Helvetica,sans-Serif" font-size="10.00">QualityControl/CheckInterface.h</text>
</a>
</g>
</g>
<!-- Node2&#45;&gt;Node3 -->
<g id="edge2" class="edge"><title>Node2&#45;&gt;Node3</title>
<path fill="none" stroke="midnightblue" d="M150.961,-224.083C150.166,-216.927 149.023,-206.635 148.029,-197.691"/>
<polygon fill="midnightblue" stroke="midnightblue" points="151.507,-197.303 146.924,-187.751 144.55,-198.076 151.507,-197.303"/>
</g>
<!-- Node4 -->
<g id="node4" class="node"><title>Node4</title>
<polygon fill="none" stroke="#bfbfbf" points="444.452,-0.5 444.452,-19.5 485.452,-19.5 485.452,-0.5 444.452,-0.5"/>
<text text-anchor="middle" x="464.952" y="-7.5" font-family="Helvetica,sans-Serif" font-size="10.00">string</text>
</g>
<!-- Node3&#45;&gt;Node4 -->
<g id="edge3" class="edge"><title>Node3&#45;&gt;Node4</title>
<path fill="none" stroke="midnightblue" d="M197.282,-168.446C279.465,-153.572 434.56,-120.247 465.952,-76 475.434,-62.6359 473.839,-43.5234 470.682,-29.4813"/>
<polygon fill="midnightblue" stroke="midnightblue" points="473.977,-28.2588 467.996,-19.5135 467.218,-30.0797 473.977,-28.2588"/>
</g>
<!-- Node5 -->
<g id="node5" class="node"><title>Node5</title>
<polygon fill="none" stroke="#bfbfbf" points="44.952,-0.5 44.952,-19.5 100.952,-19.5 100.952,-0.5 44.952,-0.5"/>
<text text-anchor="middle" x="72.952" y="-7.5" font-family="Helvetica,sans-Serif" font-size="10.00">Rtypes.h</text>
</g>
<!-- Node3&#45;&gt;Node5 -->
<g id="edge4" class="edge"><title>Node3&#45;&gt;Node5</title>
<path fill="none" stroke="midnightblue" d="M122.279,-168.425C88.5897,-154.777 28.1153,-124.58 2.95198,-76 -8.49561,-53.8996 17.5366,-35.3724 41.0383,-23.8243"/>
<polygon fill="midnightblue" stroke="midnightblue" points="42.562,-26.9759 50.1701,-19.6024 39.6244,-20.6221 42.562,-26.9759"/>
</g>
<!-- Node3&#45;&gt;Node6 -->
<g id="edge5" class="edge"><title>Node3&#45;&gt;Node6</title>
<path fill="none" stroke="midnightblue" d="M158.163,-168.324C169.728,-160.107 187.327,-147.602 201.113,-137.807"/>
<polygon fill="midnightblue" stroke="midnightblue" points="203.395,-140.479 209.519,-131.834 199.34,-134.773 203.395,-140.479"/>
</g>
<!-- Node3&#45;&gt;Node10 -->
<g id="edge14" class="edge"><title>Node3&#45;&gt;Node10</title>
<path fill="none" stroke="midnightblue" d="M140.224,-168.368C128.177,-150.215 100.029,-107.802 84.2273,-83.9902"/>
<polygon fill="midnightblue" stroke="midnightblue" points="87.0994,-81.9882 78.6536,-75.5914 81.2669,-85.8589 87.0994,-81.9882"/>
</g>
<!-- Node6&#45;&gt;Node4 -->
<g id="edge6" class="edge"><title>Node6&#45;&gt;Node4</title>
<path fill="none" stroke="midnightblue" d="M297.513,-114.192C353.798,-107.621 424.468,-95.7086 445.952,-76 458.793,-64.2199 463.134,-44.2915 464.513,-29.5992"/>
<polygon fill="midnightblue" stroke="midnightblue" points="468.008,-29.7889 465.082,-19.6061 461.019,-29.391 468.008,-29.7889"/>
</g>
<!-- Node6&#45;&gt;Node5 -->
<g id="edge8" class="edge"><title>Node6&#45;&gt;Node5</title>
<path fill="none" stroke="midnightblue" d="M211.867,-112.234C196.956,-99.4045 167.978,-74.9802 141.952,-56 126.93,-45.0449 109.372,-33.6118 95.7265,-25.0112"/>
<polygon fill="midnightblue" stroke="midnightblue" points="97.3198,-21.8797 86.9843,-19.5501 93.6112,-27.8166 97.3198,-21.8797"/>
</g>
<!-- Node7 -->
<g id="node7" class="node"><title>Node7</title>
<polygon fill="none" stroke="#bfbfbf" points="190.452,-56.5 190.452,-75.5 225.452,-75.5 225.452,-56.5 190.452,-56.5"/>
<text text-anchor="middle" x="207.952" y="-63.5" font-family="Helvetica,sans-Serif" font-size="10.00">map</text>
</g>
<!-- Node6&#45;&gt;Node7 -->
<g id="edge7" class="edge"><title>Node6&#45;&gt;Node7</title>
<path fill="none" stroke="midnightblue" d="M219.64,-112.083C217.785,-104.927 215.117,-94.6353 212.798,-85.6911"/>
<polygon fill="midnightblue" stroke="midnightblue" points="216.118,-84.5527 210.221,-75.7511 209.342,-86.3094 216.118,-84.5527"/>
</g>
<!-- Node8 -->
<g id="node8" class="node"><title>Node8</title>
<polygon fill="none" stroke="#bfbfbf" points="243.452,-56.5 243.452,-75.5 302.452,-75.5 302.452,-56.5 243.452,-56.5"/>
<text text-anchor="middle" x="272.952" y="-63.5" font-family="Helvetica,sans-Serif" font-size="10.00">TObject.h</text>
</g>
<!-- Node6&#45;&gt;Node8 -->
<g id="edge9" class="edge"><title>Node6&#45;&gt;Node8</title>
<path fill="none" stroke="midnightblue" d="M230.374,-112.083C237.8,-104.22 248.804,-92.5688 257.764,-83.0813"/>
<polygon fill="midnightblue" stroke="midnightblue" points="260.365,-85.4244 264.687,-75.7511 255.276,-80.618 260.365,-85.4244"/>
</g>
<!-- Node9 -->
<g id="node9" class="node"><title>Node9</title>
<polygon fill="none" stroke="#bfbfbf" points="320.952,-56.5 320.952,-75.5 436.952,-75.5 436.952,-56.5 320.952,-56.5"/>
<text text-anchor="middle" x="378.952" y="-63.5" font-family="Helvetica,sans-Serif" font-size="10.00">Common/Exceptions.h</text>
</g>
<!-- Node6&#45;&gt;Node9 -->
<g id="edge10" class="edge"><title>Node6&#45;&gt;Node9</title>
<path fill="none" stroke="midnightblue" d="M246.829,-112.444C273.241,-103.359 315.167,-88.9388 344.694,-78.7831"/>
<polygon fill="midnightblue" stroke="midnightblue" points="345.873,-82.0787 354.191,-75.5164 343.597,-75.4593 345.873,-82.0787"/>
</g>
<!-- Node6&#45;&gt;Node10 -->
<g id="edge11" class="edge"><title>Node6&#45;&gt;Node10</title>
<path fill="none" stroke="midnightblue" d="M198.342,-112.444C173.494,-103.438 134.178,-89.1891 106.198,-79.049"/>
<polygon fill="midnightblue" stroke="midnightblue" points="107.045,-75.6332 96.451,-75.5164 104.66,-82.2144 107.045,-75.6332"/>
</g>
<!-- Node10&#45;&gt;Node4 -->
<g id="edge13" class="edge"><title>Node10&#45;&gt;Node4</title>
<path fill="none" stroke="midnightblue" d="M133.772,-56.6217C218.719,-44.9199 369.716,-24.1192 434.286,-15.2244"/>
<polygon fill="midnightblue" stroke="midnightblue" points="434.811,-18.6852 444.24,-13.8532 433.856,-11.7507 434.811,-18.6852"/>
</g>
<!-- Node10&#45;&gt;Node5 -->
<g id="edge12" class="edge"><title>Node10&#45;&gt;Node5</title>
<path fill="none" stroke="midnightblue" d="M72.952,-56.083C72.952,-49.0059 72.952,-38.8611 72.952,-29.9865"/>
<polygon fill="midnightblue" stroke="midnightblue" points="76.4521,-29.751 72.952,-19.7511 69.4521,-29.7511 76.4521,-29.751"/>
</g>
</g>
</svg>
