<?xml version="1.0" encoding="UTF-8" standalone="no"?>
<!DOCTYPE svg PUBLIC "-//W3C//DTD SVG 1.1//EN"
 "http://www.w3.org/Graphics/SVG/1.1/DTD/svg11.dtd">
<!-- Generated by graphviz version 2.38.0 (20140413.2041)
 -->
<!-- Title: Modules/Skeleton/include/Skeleton/SkeletonCheck.h Pages: 1 -->
<svg width="493pt" height="263pt"
 viewBox="0.00 0.00 493.47 263.00" xmlns="http://www.w3.org/2000/svg" xmlns:xlink="http://www.w3.org/1999/xlink">
<g id="graph0" class="graph" transform="scale(1 1) rotate(0) translate(4 259)">
<title>Modules/Skeleton/include/Skeleton/SkeletonCheck.h</title>
<!-- Node1 -->
<g id="node1" class="node"><title>Node1</title>
<polygon fill="#bfbfbf" stroke="black" points="269.5,-224.5 269.5,-254.5 405.5,-254.5 405.5,-224.5 269.5,-224.5"/>
<text text-anchor="start" x="277.5" y="-242.5" font-family="Helvetica,sans-Serif" font-size="10.00">Modules/Skeleton/include</text>
<text text-anchor="middle" x="337.5" y="-231.5" font-family="Helvetica,sans-Serif" font-size="10.00">/Skeleton/SkeletonCheck.h</text>
</g>
<!-- Node2 -->
<g id="node2" class="node"><title>Node2</title>
<g id="a_node2"><a xlink:href="CheckInterface_8h.html" target="_top" xlink:title="QualityControl/CheckInterface.h">
<polygon fill="none" stroke="black" points="259,-168.5 259,-187.5 416,-187.5 416,-168.5 259,-168.5"/>
<text text-anchor="middle" x="337.5" y="-175.5" font-family="Helvetica,sans-Serif" font-size="10.00">QualityControl/CheckInterface.h</text>
</a>
</g>
</g>
<!-- Node1&#45;&gt;Node2 -->
<g id="edge1" class="edge"><title>Node1&#45;&gt;Node2</title>
<path fill="none" stroke="midnightblue" d="M337.5,-224.399C337.5,-216.466 337.5,-206.458 337.5,-197.858"/>
<polygon fill="midnightblue" stroke="midnightblue" points="341,-197.658 337.5,-187.658 334,-197.658 341,-197.658"/>
</g>
<!-- Node3 -->
<g id="node3" class="node"><title>Node3</title>
<polygon fill="none" stroke="#bfbfbf" points="0,-0.5 0,-19.5 41,-19.5 41,-0.5 0,-0.5"/>
<text text-anchor="middle" x="20.5" y="-7.5" font-family="Helvetica,sans-Serif" font-size="10.00">string</text>
</g>
<!-- Node2&#45;&gt;Node3 -->
<g id="edge2" class="edge"><title>Node2&#45;&gt;Node3</title>
<path fill="none" stroke="midnightblue" d="M258.737,-175.611C184.996,-169.647 78.2093,-148.064 23.5,-76 13.5826,-62.9366 13.9493,-43.7837 16.125,-29.6503"/>
<polygon fill="midnightblue" stroke="midnightblue" points="19.6053,-30.0907 18.0958,-19.6039 12.7362,-28.7431 19.6053,-30.0907"/>
</g>
<!-- Node4 -->
<g id="node4" class="node"><title>Node4</title>
<polygon fill="none" stroke="#bfbfbf" points="385.5,-0.5 385.5,-19.5 441.5,-19.5 441.5,-0.5 385.5,-0.5"/>
<text text-anchor="middle" x="413.5" y="-7.5" font-family="Helvetica,sans-Serif" font-size="10.00">Rtypes.h</text>
</g>
<!-- Node2&#45;&gt;Node4 -->
<g id="edge3" class="edge"><title>Node2&#45;&gt;Node4</title>
<path fill="none" stroke="midnightblue" d="M361.778,-168.41C395.979,-154.83 457.012,-124.815 482.5,-76 493.881,-54.2027 468.472,-35.7073 445.342,-24.0848"/>
<polygon fill="midnightblue" stroke="midnightblue" points="446.55,-20.7849 436.013,-19.6815 443.562,-27.1152 446.55,-20.7849"/>
</g>
<!-- Node5 -->
<g id="node5" class="node"><title>Node5</title>
<g id="a_node5"><a xlink:href="MonitorObject_8h.html" target="_top" xlink:title="QualityControl/MonitorObject.h">
<polygon fill="none" stroke="black" points="203,-112.5 203,-131.5 354,-131.5 354,-112.5 203,-112.5"/>
<text text-anchor="middle" x="278.5" y="-119.5" font-family="Helvetica,sans-Serif" font-size="10.00">QualityControl/MonitorObject.h</text>
</a>
</g>
</g>
<!-- Node2&#45;&gt;Node5 -->
<g id="edge4" class="edge"><title>Node2&#45;&gt;Node5</title>
<path fill="none" stroke="midnightblue" d="M328.021,-168.324C319.299,-160.341 306.157,-148.313 295.602,-138.653"/>
<polygon fill="midnightblue" stroke="midnightblue" points="297.892,-136.004 288.152,-131.834 293.166,-141.167 297.892,-136.004"/>
</g>
<!-- Node9 -->
<g id="node9" class="node"><title>Node9</title>
<g id="a_node9"><a xlink:href="Quality_8h.html" target="_top" xlink:title="QualityControl/Quality.h">
<polygon fill="none" stroke="black" points="353,-56.5 353,-75.5 474,-75.5 474,-56.5 353,-56.5"/>
<text text-anchor="middle" x="413.5" y="-63.5" font-family="Helvetica,sans-Serif" font-size="10.00">QualityControl/Quality.h</text>
</a>
</g>
</g>
<!-- Node2&#45;&gt;Node9 -->
<g id="edge13" class="edge"><title>Node2&#45;&gt;Node9</title>
<path fill="none" stroke="midnightblue" d="M343.464,-168.368C356.006,-150.215 385.31,-107.802 401.761,-83.9902"/>
<polygon fill="midnightblue" stroke="midnightblue" points="404.759,-85.8083 407.564,-75.5914 399,-81.8292 404.759,-85.8083"/>
</g>
<!-- Node5&#45;&gt;Node3 -->
<g id="edge5" class="edge"><title>Node5&#45;&gt;Node3</title>
<path fill="none" stroke="midnightblue" d="M202.783,-115.303C142.028,-109.216 63.1209,-97.4065 39.5,-76 26.5876,-64.2981 22.2581,-44.3574 20.9013,-29.6408"/>
<polygon fill="midnightblue" stroke="midnightblue" points="24.3946,-29.4207 20.3503,-19.6282 17.4052,-29.8054 24.3946,-29.4207"/>
</g>
<!-- Node5&#45;&gt;Node4 -->
<g id="edge7" class="edge"><title>Node5&#45;&gt;Node4</title>
<path fill="none" stroke="midnightblue" d="M285.985,-112.415C297.573,-99.3904 320.885,-74.2267 343.5,-56 357.849,-44.4351 375.279,-33.2224 389.156,-24.8823"/>
<polygon fill="midnightblue" stroke="midnightblue" points="391.279,-27.6935 398.114,-19.5984 387.723,-21.6642 391.279,-27.6935"/>
</g>
<!-- Node6 -->
<g id="node6" class="node"><title>Node6</title>
<polygon fill="none" stroke="#bfbfbf" points="261,-56.5 261,-75.5 296,-75.5 296,-56.5 261,-56.5"/>
<text text-anchor="middle" x="278.5" y="-63.5" font-family="Helvetica,sans-Serif" font-size="10.00">map</text>
</g>
<!-- Node5&#45;&gt;Node6 -->
<g id="edge6" class="edge"><title>Node5&#45;&gt;Node6</title>
<path fill="none" stroke="midnightblue" d="M278.5,-112.083C278.5,-105.006 278.5,-94.8611 278.5,-85.9865"/>
<polygon fill="midnightblue" stroke="midnightblue" points="282,-85.751 278.5,-75.7511 275,-85.7511 282,-85.751"/>
</g>
<!-- Node7 -->
<g id="node7" class="node"><title>Node7</title>
<polygon fill="none" stroke="#bfbfbf" points="49,-56.5 49,-75.5 108,-75.5 108,-56.5 49,-56.5"/>
<text text-anchor="middle" x="78.5" y="-63.5" font-family="Helvetica,sans-Serif" font-size="10.00">TObject.h</text>
</g>
<!-- Node5&#45;&gt;Node7 -->
<g id="edge8" class="edge"><title>Node5&#45;&gt;Node7</title>
<path fill="none" stroke="midnightblue" d="M246.809,-112.444C211.974,-103.038 155.954,-87.9127 118.214,-77.7227"/>
<polygon fill="midnightblue" stroke="midnightblue" points="118.653,-74.216 108.086,-74.9883 116.828,-80.974 118.653,-74.216"/>
</g>
<!-- Node8 -->
<g id="node8" class="node"><title>Node8</title>
<polygon fill="none" stroke="#bfbfbf" points="126.5,-56.5 126.5,-75.5 242.5,-75.5 242.5,-56.5 126.5,-56.5"/>
<text text-anchor="middle" x="184.5" y="-63.5" font-family="Helvetica,sans-Serif" font-size="10.00">Common/Exceptions.h</text>
</g>
<!-- Node5&#45;&gt;Node8 -->
<g id="edge9" class="edge"><title>Node5&#45;&gt;Node8</title>
<path fill="none" stroke="midnightblue" d="M263.397,-112.324C248.597,-103.822 225.806,-90.7288 208.518,-80.7975"/>
<polygon fill="midnightblue" stroke="midnightblue" points="209.98,-77.6009 199.565,-75.6545 206.493,-83.6707 209.98,-77.6009"/>
</g>
<!-- Node5&#45;&gt;Node9 -->
<g id="edge10" class="edge"><title>Node5&#45;&gt;Node9</title>
<path fill="none" stroke="midnightblue" d="M299.891,-112.444C322.207,-103.517 357.403,-89.4387 382.708,-79.3168"/>
<polygon fill="midnightblue" stroke="midnightblue" points="384.224,-82.4801 392.209,-75.5164 381.624,-75.9807 384.224,-82.4801"/>
</g>
<!-- Node9&#45;&gt;Node3 -->
<g id="edge12" class="edge"><title>Node9&#45;&gt;Node3</title>
<path fill="none" stroke="midnightblue" d="M352.955,-56.6808C267.905,-44.9945 116.205,-24.1502 51.3192,-15.2347"/>
<polygon fill="midnightblue" stroke="midnightblue" points="51.6996,-11.7542 41.3163,-13.8602 50.7467,-18.689 51.6996,-11.7542"/>
</g>
<!-- Node9&#45;&gt;Node4 -->
<g id="edge11" class="edge"><title>Node9&#45;&gt;Node4</title>
<path fill="none" stroke="midnightblue" d="M413.5,-56.083C413.5,-49.0059 413.5,-38.8611 413.5,-29.9865"/>
<polygon fill="midnightblue" stroke="midnightblue" points="417,-29.751 413.5,-19.7511 410,-29.7511 417,-29.751"/>
</g>
</g>
</svg>
