<?xml version="1.0" encoding="UTF-8" standalone="no"?>
<!DOCTYPE svg PUBLIC "-//W3C//DTD SVG 1.1//EN"
 "http://www.w3.org/Graphics/SVG/1.1/DTD/svg11.dtd">
<!-- Generated by graphviz version 2.38.0 (20140413.2041)
 -->
<!-- Title: o2::quality_control::core::CheckDefinition Pages: 1 -->
<svg width="261pt" height="397pt"
 viewBox="0.00 0.00 260.50 397.00" xmlns="http://www.w3.org/2000/svg" xmlns:xlink="http://www.w3.org/1999/xlink">
<g id="graph0" class="graph" transform="scale(1 1) rotate(0) translate(4 393)">
<title>o2::quality_control::core::CheckDefinition</title>
<!-- Node1 -->
<g id="node1" class="node"><title>Node1</title>
<polygon fill="#bfbfbf" stroke="black" points="114,-0.5 114,-90.5 231,-90.5 231,-0.5 114,-0.5"/>
<text text-anchor="start" x="122" y="-78.5" font-family="Helvetica,sans-Serif" font-size="10.00">o2::quality_control</text>
<text text-anchor="middle" x="172.5" y="-67.5" font-family="Helvetica,sans-Serif" font-size="10.00">::core::CheckDefinition</text>
<polyline fill="none" stroke="black" points="114,-60.5 231,-60.5 "/>
<text text-anchor="middle" x="172.5" y="-48.5" font-family="Helvetica,sans-Serif" font-size="10.00"> </text>
<polyline fill="none" stroke="black" points="114,-41.5 231,-41.5 "/>
<text text-anchor="start" x="122" y="-29.5" font-family="Helvetica,sans-Serif" font-size="10.00">+ CheckDefinition()</text>
<text text-anchor="start" x="122" y="-18.5" font-family="Helvetica,sans-Serif" font-size="10.00">+ ~CheckDefinition()</text>
<text text-anchor="start" x="122" y="-7.5" font-family="Helvetica,sans-Serif" font-size="10.00">+ ClassDef()</text>
</g>
<!-- Node2 -->
<g id="node2" class="node"><title>Node2</title>
<g id="a_node2"><a xlink:href="classo2_1_1quality__control_1_1core_1_1Quality.html" target="_top" xlink:title="Class representing the quality of a MonitorObject. ">
<polygon fill="none" stroke="black" points="13.5,-160.5 13.5,-283.5 109.5,-283.5 109.5,-160.5 13.5,-160.5"/>
<text text-anchor="start" x="21.5" y="-271.5" font-family="Helvetica,sans-Serif" font-size="10.00">o2::quality_control</text>
<text text-anchor="middle" x="61.5" y="-260.5" font-family="Helvetica,sans-Serif" font-size="10.00">::core::Quality</text>
<polyline fill="none" stroke="black" points="13.5,-253.5 109.5,-253.5 "/>
<text text-anchor="middle" x="61.5" y="-241.5" font-family="Helvetica,sans-Serif" font-size="10.00"> </text>
<polyline fill="none" stroke="black" points="13.5,-234.5 109.5,-234.5 "/>
<text text-anchor="start" x="21.5" y="-222.5" font-family="Helvetica,sans-Serif" font-size="10.00">+ Quality()</text>
<text text-anchor="start" x="21.5" y="-211.5" font-family="Helvetica,sans-Serif" font-size="10.00">+ ~Quality()</text>
<text text-anchor="start" x="21.5" y="-200.5" font-family="Helvetica,sans-Serif" font-size="10.00">+ getLevel()</text>
<text text-anchor="start" x="21.5" y="-189.5" font-family="Helvetica,sans-Serif" font-size="10.00">+ getName()</text>
<text text-anchor="start" x="21.5" y="-178.5" font-family="Helvetica,sans-Serif" font-size="10.00">+ isWorstThan()</text>
<text text-anchor="start" x="21.5" y="-167.5" font-family="Helvetica,sans-Serif" font-size="10.00">+ isBetterThan()</text>
</a>
</g>
</g>
<!-- Node2&#45;&gt;Node1 -->
<g id="edge1" class="edge"><title>Node2&#45;&gt;Node1</title>
<path fill="none" stroke="#404040" d="M100.011,-160.458C112.321,-141.106 125.865,-119.814 137.88,-100.925"/>
<polygon fill="none" stroke="#404040" points="137.94,-100.831 137.785,-93.6212 144.381,-90.7055 144.535,-97.915 137.94,-100.831"/>
<text text-anchor="middle" x="147.5" y="-123" font-family="Helvetica,sans-Serif" font-size="10.00"> +result</text>
</g>
<!-- Node2&#45;&gt;Node2 -->
<g id="edge3" class="edge"><title>Node2&#45;&gt;Node2</title>
<path fill="none" stroke="#404040" d="M109.554,-237.285C119.956,-235.79 127.5,-230.695 127.5,-222 127.5,-217.109 125.113,-213.357 121.173,-210.744"/>
<polygon fill="none" stroke="#404040" points="120.892,-210.647 113.913,-212.46 109.554,-206.715 116.534,-204.902 120.892,-210.647"/>
<text text-anchor="middle" x="149.5" y="-236" font-family="Helvetica,sans-Serif" font-size="10.00"> +Medium</text>
<text text-anchor="middle" x="149.5" y="-225" font-family="Helvetica,sans-Serif" font-size="10.00">+Good</text>
<text text-anchor="middle" x="149.5" y="-214" font-family="Helvetica,sans-Serif" font-size="10.00">+Bad</text>
<text text-anchor="middle" x="149.5" y="-203" font-family="Helvetica,sans-Serif" font-size="10.00">+Null</text>
</g>
<!-- Node3 -->
<g id="node3" class="node"><title>Node3</title>
<polygon fill="none" stroke="#bfbfbf" points="0,-331.5 0,-388.5 123,-388.5 123,-331.5 0,-331.5"/>
<text text-anchor="middle" x="61.5" y="-376.5" font-family="Helvetica,sans-Serif" font-size="10.00">static const unsigned int</text>
<polyline fill="none" stroke="#bfbfbf" points="0,-369.5 123,-369.5 "/>
<text text-anchor="middle" x="61.5" y="-357.5" font-family="Helvetica,sans-Serif" font-size="10.00"> </text>
<polyline fill="none" stroke="#bfbfbf" points="0,-350.5 123,-350.5 "/>
<text text-anchor="middle" x="61.5" y="-338.5" font-family="Helvetica,sans-Serif" font-size="10.00"> </text>
</g>
<!-- Node3&#45;&gt;Node2 -->
<g id="edge2" class="edge"><title>Node3&#45;&gt;Node2</title>
<path fill="none" stroke="#404040" d="M61.5,-331.478C61.5,-321.009 61.5,-308.526 61.5,-295.818"/>
<polygon fill="none" stroke="#404040" points="61.5001,-295.623 57.5,-289.623 61.5,-283.623 65.5,-289.623 61.5001,-295.623"/>
<text text-anchor="middle" x="86.5" y="-305" font-family="Helvetica,sans-Serif" font-size="10.00"> +NullLevel</text>
</g>
<!-- Node4 -->
<g id="node4" class="node"><title>Node4</title>
<polygon fill="none" stroke="#bfbfbf" points="190,-193.5 190,-250.5 231,-250.5 231,-193.5 190,-193.5"/>
<text text-anchor="middle" x="210.5" y="-238.5" font-family="Helvetica,sans-Serif" font-size="10.00">string</text>
<polyline fill="none" stroke="#bfbfbf" points="190,-231.5 231,-231.5 "/>
<text text-anchor="middle" x="210.5" y="-219.5" font-family="Helvetica,sans-Serif" font-size="10.00"> </text>
<polyline fill="none" stroke="#bfbfbf" points="190,-212.5 231,-212.5 "/>
<text text-anchor="middle" x="210.5" y="-200.5" font-family="Helvetica,sans-Serif" font-size="10.00"> </text>
</g>
<!-- Node4&#45;&gt;Node1 -->
<g id="edge4" class="edge"><title>Node4&#45;&gt;Node1</title>
<path fill="none" stroke="#404040" d="M204.479,-193.35C199.176,-169.001 191.291,-132.789 184.677,-102.418"/>
<polygon fill="none" stroke="#404040" points="184.673,-102.399 179.488,-97.3875 182.12,-90.6738 187.305,-95.6853 184.673,-102.399"/>
<text text-anchor="middle" x="223" y="-134" font-family="Helvetica,sans-Serif" font-size="10.00"> +name</text>
<text text-anchor="middle" x="223" y="-123" font-family="Helvetica,sans-Serif" font-size="10.00">+libraryName</text>
<text text-anchor="middle" x="223" y="-112" font-family="Helvetica,sans-Serif" font-size="10.00">+className</text>
</g>
</g>
</svg>
