<?xml version="1.0" encoding="UTF-8" standalone="no"?>
<!DOCTYPE svg PUBLIC "-//W3C//DTD SVG 1.1//EN"
 "http://www.w3.org/Graphics/SVG/1.1/DTD/svg11.dtd">
<!-- Generated by graphviz version 2.38.0 (20140413.2041)
 -->
<!-- Title: o2::quality_control::core::GUIState Pages: 1 -->
<svg width="386pt" height="331pt"
 viewBox="0.00 0.00 385.50 331.00" xmlns="http://www.w3.org/2000/svg" xmlns:xlink="http://www.w3.org/1999/xlink">
<g id="graph0" class="graph" transform="scale(1 1) rotate(0) translate(4 327)">
<title>o2::quality_control::core::GUIState</title>
<!-- Node1 -->
<g id="node1" class="node"><title>Node1</title>
<polygon fill="#bfbfbf" stroke="black" points="116.5,-0.5 116.5,-68.5 212.5,-68.5 212.5,-0.5 116.5,-0.5"/>
<text text-anchor="start" x="124.5" y="-56.5" font-family="Helvetica,sans-Serif" font-size="10.00">o2::quality_control</text>
<text text-anchor="middle" x="164.5" y="-45.5" font-family="Helvetica,sans-Serif" font-size="10.00">::core::GUIState</text>
<polyline fill="none" stroke="black" points="116.5,-38.5 212.5,-38.5 "/>
<text text-anchor="middle" x="164.5" y="-26.5" font-family="Helvetica,sans-Serif" font-size="10.00"> </text>
<polyline fill="none" stroke="black" points="116.5,-19.5 212.5,-19.5 "/>
<text text-anchor="start" x="124.5" y="-7.5" font-family="Helvetica,sans-Serif" font-size="10.00">+ GUIState()</text>
</g>
<!-- Node2 -->
<g id="node2" class="node"><title>Node2</title>
<g id="a_node2"><a xlink:href="structo2_1_1quality__control_1_1core_1_1Chunk.html" target="_top" xlink:title="{o2::quality_control\l::core::Chunk\n||+ Chunk()\l}">
<polygon fill="none" stroke="black" points="14.5,-149.5 14.5,-217.5 110.5,-217.5 110.5,-149.5 14.5,-149.5"/>
<text text-anchor="start" x="22.5" y="-205.5" font-family="Helvetica,sans-Serif" font-size="10.00">o2::quality_control</text>
<text text-anchor="middle" x="62.5" y="-194.5" font-family="Helvetica,sans-Serif" font-size="10.00">::core::Chunk</text>
<polyline fill="none" stroke="black" points="14.5,-187.5 110.5,-187.5 "/>
<text text-anchor="middle" x="62.5" y="-175.5" font-family="Helvetica,sans-Serif" font-size="10.00"> </text>
<polyline fill="none" stroke="black" points="14.5,-168.5 110.5,-168.5 "/>
<text text-anchor="start" x="22.5" y="-156.5" font-family="Helvetica,sans-Serif" font-size="10.00">+ Chunk()</text>
</a>
</g>
</g>
<!-- Node2&#45;&gt;Node1 -->
<g id="edge1" class="edge"><title>Node2&#45;&gt;Node1</title>
<path fill="none" stroke="#404040" d="M62.6451,-149.448C64.2082,-129.784 68.8878,-105.203 81.5,-87 88.0229,-77.5855 96.8811,-69.554 106.388,-62.8311"/>
<polygon fill="none" stroke="#404040" points="106.394,-62.8276 109.25,-56.2061 116.46,-56.2956 113.604,-62.9171 106.394,-62.8276"/>
<text text-anchor="middle" x="121" y="-123" font-family="Helvetica,sans-Serif" font-size="10.00"> +current_payload</text>
<text text-anchor="middle" x="121" y="-112" font-family="Helvetica,sans-Serif" font-size="10.00">+next_header</text>
<text text-anchor="middle" x="121" y="-101" font-family="Helvetica,sans-Serif" font-size="10.00">+current_header</text>
<text text-anchor="middle" x="121" y="-90" font-family="Helvetica,sans-Serif" font-size="10.00">+next_payload</text>
</g>
<!-- Node3 -->
<g id="node3" class="node"><title>Node3</title>
<polygon fill="none" stroke="#bfbfbf" points="0,-265.5 0,-322.5 43,-322.5 43,-265.5 0,-265.5"/>
<text text-anchor="middle" x="21.5" y="-310.5" font-family="Helvetica,sans-Serif" font-size="10.00">size_t</text>
<polyline fill="none" stroke="#bfbfbf" points="0,-303.5 43,-303.5 "/>
<text text-anchor="middle" x="21.5" y="-291.5" font-family="Helvetica,sans-Serif" font-size="10.00"> </text>
<polyline fill="none" stroke="#bfbfbf" points="0,-284.5 43,-284.5 "/>
<text text-anchor="middle" x="21.5" y="-272.5" font-family="Helvetica,sans-Serif" font-size="10.00"> </text>
</g>
<!-- Node3&#45;&gt;Node2 -->
<g id="edge2" class="edge"><title>Node3&#45;&gt;Node2</title>
<path fill="none" stroke="#404040" d="M31.9521,-265.34C36.1233,-254.302 41.0318,-241.312 45.6795,-229.013"/>
<polygon fill="none" stroke="#404040" points="45.7811,-228.744 44.1602,-221.717 50.0229,-217.519 51.6438,-224.545 45.7811,-228.744"/>
<text text-anchor="middle" x="56.5" y="-239" font-family="Helvetica,sans-Serif" font-size="10.00"> +size</text>
</g>
<!-- Node4 -->
<g id="node4" class="node"><title>Node4</title>
<polygon fill="none" stroke="#bfbfbf" points="61.5,-265.5 61.5,-322.5 145.5,-322.5 145.5,-265.5 61.5,-265.5"/>
<text text-anchor="middle" x="103.5" y="-310.5" font-family="Helvetica,sans-Serif" font-size="10.00">unsigned char *</text>
<polyline fill="none" stroke="#bfbfbf" points="61.5,-303.5 145.5,-303.5 "/>
<text text-anchor="middle" x="103.5" y="-291.5" font-family="Helvetica,sans-Serif" font-size="10.00"> </text>
<polyline fill="none" stroke="#bfbfbf" points="61.5,-284.5 145.5,-284.5 "/>
<text text-anchor="middle" x="103.5" y="-272.5" font-family="Helvetica,sans-Serif" font-size="10.00"> </text>
</g>
<!-- Node4&#45;&gt;Node2 -->
<g id="edge3" class="edge"><title>Node4&#45;&gt;Node2</title>
<path fill="none" stroke="#404040" d="M93.0479,-265.34C88.8767,-254.302 83.9682,-241.312 79.3205,-229.013"/>
<polygon fill="none" stroke="#404040" points="79.2189,-228.744 73.3562,-224.545 74.9771,-217.519 80.8398,-221.717 79.2189,-228.744"/>
<text text-anchor="middle" x="99.5" y="-239" font-family="Helvetica,sans-Serif" font-size="10.00"> +data</text>
</g>
<!-- Node5 -->
<g id="node5" class="node"><title>Node5</title>
<polygon fill="none" stroke="#bfbfbf" points="144,-155 144,-212 185,-212 185,-155 144,-155"/>
<text text-anchor="middle" x="164.5" y="-200" font-family="Helvetica,sans-Serif" font-size="10.00">string</text>
<polyline fill="none" stroke="#bfbfbf" points="144,-193 185,-193 "/>
<text text-anchor="middle" x="164.5" y="-181" font-family="Helvetica,sans-Serif" font-size="10.00"> </text>
<polyline fill="none" stroke="#bfbfbf" points="144,-174 185,-174 "/>
<text text-anchor="middle" x="164.5" y="-162" font-family="Helvetica,sans-Serif" font-size="10.00"> </text>
</g>
<!-- Node5&#45;&gt;Node1 -->
<g id="edge4" class="edge"><title>Node5&#45;&gt;Node1</title>
<path fill="none" stroke="#404040" d="M164.5,-154.85C164.5,-134.028 164.5,-105.032 164.5,-80.8349"/>
<polygon fill="none" stroke="#404040" points="164.5,-80.6873 160.5,-74.6873 164.5,-68.6873 168.5,-74.6873 164.5,-80.6873"/>
<text text-anchor="middle" x="217" y="-112" font-family="Helvetica,sans-Serif" font-size="10.00"> +actionMessage</text>
<text text-anchor="middle" x="217" y="-101" font-family="Helvetica,sans-Serif" font-size="10.00">+dataAvailableMessage</text>
</g>
<!-- Node6 -->
<g id="node6" class="node"><title>Node6</title>
<polygon fill="none" stroke="#bfbfbf" points="275,-155 275,-212 310,-212 310,-155 275,-155"/>
<text text-anchor="middle" x="292.5" y="-200" font-family="Helvetica,sans-Serif" font-size="10.00">bool</text>
<polyline fill="none" stroke="#bfbfbf" points="275,-193 310,-193 "/>
<text text-anchor="middle" x="292.5" y="-181" font-family="Helvetica,sans-Serif" font-size="10.00"> </text>
<polyline fill="none" stroke="#bfbfbf" points="275,-174 310,-174 "/>
<text text-anchor="middle" x="292.5" y="-162" font-family="Helvetica,sans-Serif" font-size="10.00"> </text>
</g>
<!-- Node6&#45;&gt;Node1 -->
<g id="edge5" class="edge"><title>Node6&#45;&gt;Node1</title>
<path fill="none" stroke="#404040" d="M292.315,-154.662C290.815,-133.987 285.762,-106.166 270.5,-87 258.582,-72.0325 241.226,-61.1279 223.996,-53.3152"/>
<polygon fill="none" stroke="#404040" points="223.822,-53.2426 216.744,-54.6201 212.75,-48.616 219.828,-47.2386 223.822,-53.2426"/>
<text text-anchor="middle" x="333.5" y="-106.5" font-family="Helvetica,sans-Serif" font-size="10.00"> +newDataAvailable</text>
</g>
</g>
</svg>
