<?xml version="1.0" encoding="UTF-8" standalone="no"?>
<!DOCTYPE svg PUBLIC "-//W3C//DTD SVG 1.1//EN"
 "http://www.w3.org/Graphics/SVG/1.1/DTD/svg11.dtd">
<!-- Generated by graphviz version 2.38.0 (20140413.2041)
 -->
<!-- Title: o2::quality_control::core::TaskConfig Pages: 1 -->
<svg width="375pt" height="248pt"
 viewBox="0.00 0.00 375.00 248.00" xmlns="http://www.w3.org/2000/svg" xmlns:xlink="http://www.w3.org/1999/xlink">
<g id="graph0" class="graph" transform="scale(1 1) rotate(0) translate(4 244)">
<title>o2::quality_control::core::TaskConfig</title>
<!-- Node1 -->
<g id="node1" class="node"><title>Node1</title>
<polygon fill="#bfbfbf" stroke="black" points="119,-0.5 119,-68.5 217,-68.5 217,-0.5 119,-0.5"/>
<text text-anchor="start" x="127" y="-56.5" font-family="Helvetica,sans-Serif" font-size="10.00">o2::quality_control</text>
<text text-anchor="middle" x="168" y="-45.5" font-family="Helvetica,sans-Serif" font-size="10.00">::core::TaskConfig</text>
<polyline fill="none" stroke="black" points="119,-38.5 217,-38.5 "/>
<text text-anchor="middle" x="168" y="-26.5" font-family="Helvetica,sans-Serif" font-size="10.00"> </text>
<polyline fill="none" stroke="black" points="119,-19.5 217,-19.5 "/>
<text text-anchor="middle" x="168" y="-7.5" font-family="Helvetica,sans-Serif" font-size="10.00"> </text>
</g>
<!-- Node2 -->
<g id="node2" class="node"><title>Node2</title>
<polygon fill="none" stroke="#bfbfbf" points="0,-171.5 0,-239.5 106,-239.5 106,-171.5 0,-171.5"/>
<text text-anchor="start" x="8" y="-227.5" font-family="Helvetica,sans-Serif" font-size="10.00">unordered_map&lt; std</text>
<text text-anchor="middle" x="53" y="-216.5" font-family="Helvetica,sans-Serif" font-size="10.00">::string, std::string &gt;</text>
<polyline fill="none" stroke="#bfbfbf" points="0,-209.5 106,-209.5 "/>
<text text-anchor="middle" x="53" y="-197.5" font-family="Helvetica,sans-Serif" font-size="10.00"> </text>
<polyline fill="none" stroke="#bfbfbf" points="0,-190.5 106,-190.5 "/>
<text text-anchor="middle" x="53" y="-178.5" font-family="Helvetica,sans-Serif" font-size="10.00"> </text>
</g>
<!-- Node2&#45;&gt;Node1 -->
<g id="edge1" class="edge"><title>Node2&#45;&gt;Node1</title>
<path fill="none" stroke="#404040" d="M50.8081,-171.407C50.7946,-146.091 54.5459,-111.482 72,-87 81.0101,-74.3622 94.1083,-64.5346 107.748,-57.0143"/>
<polygon fill="none" stroke="#404040" points="108.022,-56.8759 111.576,-50.6012 118.735,-51.4682 115.181,-57.7429 108.022,-56.8759"/>
<text text-anchor="middle" x="118" y="-117.5" font-family="Helvetica,sans-Serif" font-size="10.00"> +customParameters</text>
</g>
<!-- Node3 -->
<g id="node3" class="node"><title>Node3</title>
<polygon fill="none" stroke="#bfbfbf" points="153.5,-177 153.5,-234 182.5,-234 182.5,-177 153.5,-177"/>
<text text-anchor="middle" x="168" y="-222" font-family="Helvetica,sans-Serif" font-size="10.00">int</text>
<polyline fill="none" stroke="#bfbfbf" points="153.5,-215 182.5,-215 "/>
<text text-anchor="middle" x="168" y="-203" font-family="Helvetica,sans-Serif" font-size="10.00"> </text>
<polyline fill="none" stroke="#bfbfbf" points="153.5,-196 182.5,-196 "/>
<text text-anchor="middle" x="168" y="-184" font-family="Helvetica,sans-Serif" font-size="10.00"> </text>
</g>
<!-- Node3&#45;&gt;Node1 -->
<g id="edge2" class="edge"><title>Node3&#45;&gt;Node1</title>
<path fill="none" stroke="#404040" d="M168,-176.971C168,-150.912 168,-111.322 168,-80.6435"/>
<polygon fill="none" stroke="#404040" points="168,-80.5293 164,-74.5293 168,-68.5293 172,-74.5293 168,-80.5293"/>
<text text-anchor="middle" x="220.5" y="-123" font-family="Helvetica,sans-Serif" font-size="10.00"> +maxNumberCycles</text>
<text text-anchor="middle" x="220.5" y="-112" font-family="Helvetica,sans-Serif" font-size="10.00">+cycleDurationSeconds</text>
</g>
<!-- Node4 -->
<g id="node4" class="node"><title>Node4</title>
<polygon fill="none" stroke="#bfbfbf" points="275.5,-177 275.5,-234 316.5,-234 316.5,-177 275.5,-177"/>
<text text-anchor="middle" x="296" y="-222" font-family="Helvetica,sans-Serif" font-size="10.00">string</text>
<polyline fill="none" stroke="#bfbfbf" points="275.5,-215 316.5,-215 "/>
<text text-anchor="middle" x="296" y="-203" font-family="Helvetica,sans-Serif" font-size="10.00"> </text>
<polyline fill="none" stroke="#bfbfbf" points="275.5,-196 316.5,-196 "/>
<text text-anchor="middle" x="296" y="-184" font-family="Helvetica,sans-Serif" font-size="10.00"> </text>
</g>
<!-- Node4&#45;&gt;Node1 -->
<g id="edge3" class="edge"><title>Node4&#45;&gt;Node1</title>
<path fill="none" stroke="#404040" d="M297.542,-176.996C297.562,-151.228 293.766,-112.903 274,-87 262.495,-71.9229 245.424,-61.0122 228.327,-53.2274"/>
<polygon fill="none" stroke="#404040" points="228.216,-53.1812 221.137,-54.5562 217.145,-48.5507 224.224,-47.1757 228.216,-53.1812"/>
<text text-anchor="middle" x="331.5" y="-145" font-family="Helvetica,sans-Serif" font-size="10.00"> +detectorName</text>
<text text-anchor="middle" x="331.5" y="-134" font-family="Helvetica,sans-Serif" font-size="10.00">+moduleName</text>
<text text-anchor="middle" x="331.5" y="-123" font-family="Helvetica,sans-Serif" font-size="10.00">+consulUrl</text>
<text text-anchor="middle" x="331.5" y="-112" font-family="Helvetica,sans-Serif" font-size="10.00">+conditionUrl</text>
<text text-anchor="middle" x="331.5" y="-101" font-family="Helvetica,sans-Serif" font-size="10.00">+taskName</text>
<text text-anchor="middle" x="331.5" y="-90" font-family="Helvetica,sans-Serif" font-size="10.00">+className</text>
</g>
</g>
</svg>
