<?xml version="1.0" encoding="UTF-8" standalone="no"?>
<!DOCTYPE svg PUBLIC "-//W3C//DTD SVG 1.1//EN"
 "http://www.w3.org/Graphics/SVG/1.1/DTD/svg11.dtd">
<!-- Generated by graphviz version 2.38.0 (20140413.2041)
 -->
<!-- Title: o2::quality_control::core::Chunk Pages: 1 -->
<svg width="154pt" height="182pt"
 viewBox="0.00 0.00 153.50 182.00" xmlns="http://www.w3.org/2000/svg" xmlns:xlink="http://www.w3.org/1999/xlink">
<g id="graph0" class="graph" transform="scale(1 1) rotate(0) translate(4 178)">
<title>o2::quality_control::core::Chunk</title>
<!-- Node1 -->
<g id="node1" class="node"><title>Node1</title>
<polygon fill="#bfbfbf" stroke="black" points="14.5,-0.5 14.5,-68.5 110.5,-68.5 110.5,-0.5 14.5,-0.5"/>
<text text-anchor="start" x="22.5" y="-56.5" font-family="Helvetica,sans-Serif" font-size="10.00">o2::quality_control</text>
<text text-anchor="middle" x="62.5" y="-45.5" font-family="Helvetica,sans-Serif" font-size="10.00">::core::Chunk</text>
<polyline fill="none" stroke="black" points="14.5,-38.5 110.5,-38.5 "/>
<text text-anchor="middle" x="62.5" y="-26.5" font-family="Helvetica,sans-Serif" font-size="10.00"> </text>
<polyline fill="none" stroke="black" points="14.5,-19.5 110.5,-19.5 "/>
<text text-anchor="start" x="22.5" y="-7.5" font-family="Helvetica,sans-Serif" font-size="10.00">+ Chunk()</text>
</g>
<!-- Node2 -->
<g id="node2" class="node"><title>Node2</title>
<polygon fill="none" stroke="#bfbfbf" points="0,-116.5 0,-173.5 43,-173.5 43,-116.5 0,-116.5"/>
<text text-anchor="middle" x="21.5" y="-161.5" font-family="Helvetica,sans-Serif" font-size="10.00">size_t</text>
<polyline fill="none" stroke="#bfbfbf" points="0,-154.5 43,-154.5 "/>
<text text-anchor="middle" x="21.5" y="-142.5" font-family="Helvetica,sans-Serif" font-size="10.00"> </text>
<polyline fill="none" stroke="#bfbfbf" points="0,-135.5 43,-135.5 "/>
<text text-anchor="middle" x="21.5" y="-123.5" font-family="Helvetica,sans-Serif" font-size="10.00"> </text>
</g>
<!-- Node2&#45;&gt;Node1 -->
<g id="edge1" class="edge"><title>Node2&#45;&gt;Node1</title>
<path fill="none" stroke="#404040" d="M31.9521,-116.34C36.1233,-105.302 41.0318,-92.3121 45.6795,-80.0129"/>
<polygon fill="none" stroke="#404040" points="45.7811,-79.7438 44.1602,-72.7172 50.0229,-68.5186 51.6438,-75.5452 45.7811,-79.7438"/>
<text text-anchor="middle" x="56.5" y="-90" font-family="Helvetica,sans-Serif" font-size="10.00"> +size</text>
</g>
<!-- Node3 -->
<g id="node3" class="node"><title>Node3</title>
<polygon fill="none" stroke="#bfbfbf" points="61.5,-116.5 61.5,-173.5 145.5,-173.5 145.5,-116.5 61.5,-116.5"/>
<text text-anchor="middle" x="103.5" y="-161.5" font-family="Helvetica,sans-Serif" font-size="10.00">unsigned char *</text>
<polyline fill="none" stroke="#bfbfbf" points="61.5,-154.5 145.5,-154.5 "/>
<text text-anchor="middle" x="103.5" y="-142.5" font-family="Helvetica,sans-Serif" font-size="10.00"> </text>
<polyline fill="none" stroke="#bfbfbf" points="61.5,-135.5 145.5,-135.5 "/>
<text text-anchor="middle" x="103.5" y="-123.5" font-family="Helvetica,sans-Serif" font-size="10.00"> </text>
</g>
<!-- Node3&#45;&gt;Node1 -->
<g id="edge2" class="edge"><title>Node3&#45;&gt;Node1</title>
<path fill="none" stroke="#404040" d="M93.0479,-116.34C88.8767,-105.302 83.9682,-92.3121 79.3205,-80.0129"/>
<polygon fill="none" stroke="#404040" points="79.2189,-79.7438 73.3562,-75.5452 74.9771,-68.5186 80.8398,-72.7172 79.2189,-79.7438"/>
<text text-anchor="middle" x="99.5" y="-90" font-family="Helvetica,sans-Serif" font-size="10.00"> +data</text>
</g>
</g>
</svg>
