<?xml version="1.0" encoding="UTF-8" standalone="no"?>
<!DOCTYPE svg PUBLIC "-//W3C//DTD SVG 1.1//EN"
 "http://www.w3.org/Graphics/SVG/1.1/DTD/svg11.dtd">
<!-- Generated by graphviz version 2.38.0 (20140413.2041)
 -->
<!-- Title: Framework/include/QualityControl/TaskConfig.h Pages: 1 -->
<svg width="4313pt" height="363pt"
 viewBox="0.00 0.00 4313.00 363.00" xmlns="http://www.w3.org/2000/svg" xmlns:xlink="http://www.w3.org/1999/xlink">
<g id="graph0" class="graph" transform="scale(1 1) rotate(0) translate(4 359)">
<title>Framework/include/QualityControl/TaskConfig.h</title>
<!-- Node1 -->
<g id="node1" class="node"><title>Node1</title>
<polygon fill="#bfbfbf" stroke="black" points="1122.5,-324.5 1122.5,-354.5 1255.5,-354.5 1255.5,-324.5 1122.5,-324.5"/>
<text text-anchor="start" x="1130.5" y="-342.5" font-family="Helvetica,sans-Serif" font-size="10.00">Framework/include/Quality</text>
<text text-anchor="middle" x="1189" y="-331.5" font-family="Helvetica,sans-Serif" font-size="10.00">Control/TaskConfig.h</text>
</g>
<!-- Node2 -->
<g id="node2" class="node"><title>Node2</title>
<g id="a_node2"><a xlink:href="ObjectsManager_8h.html" target="_top" xlink:title="Framework/include/Quality\lControl/ObjectsManager.h">
<polygon fill="none" stroke="black" points="1607.5,-257.5 1607.5,-287.5 1740.5,-287.5 1740.5,-257.5 1607.5,-257.5"/>
<text text-anchor="start" x="1615.5" y="-275.5" font-family="Helvetica,sans-Serif" font-size="10.00">Framework/include/Quality</text>
<text text-anchor="middle" x="1674" y="-264.5" font-family="Helvetica,sans-Serif" font-size="10.00">Control/ObjectsManager.h</text>
</a>
</g>
</g>
<!-- Node1&#45;&gt;Node2 -->
<g id="edge1" class="edge"><title>Node1&#45;&gt;Node2</title>
<path fill="none" stroke="midnightblue" d="M1265.7,-328.22C1359.85,-315.602 1517.97,-294.412 1607.29,-282.44"/>
<polygon fill="midnightblue" stroke="midnightblue" points="1265.12,-324.767 1255.67,-329.564 1266.05,-331.705 1265.12,-324.767"/>
</g>
<!-- Node27 -->
<g id="node27" class="node"><title>Node27</title>
<g id="a_node27"><a xlink:href="TaskRunner_8h.html" target="_top" xlink:title="Framework/include/Quality\lControl/TaskRunner.h">
<polygon fill="none" stroke="black" points="393.5,-123.5 393.5,-153.5 526.5,-153.5 526.5,-123.5 393.5,-123.5"/>
<text text-anchor="start" x="401.5" y="-141.5" font-family="Helvetica,sans-Serif" font-size="10.00">Framework/include/Quality</text>
<text text-anchor="middle" x="460" y="-130.5" font-family="Helvetica,sans-Serif" font-size="10.00">Control/TaskRunner.h</text>
</a>
</g>
</g>
<!-- Node1&#45;&gt;Node27 -->
<g id="edge66" class="edge"><title>Node1&#45;&gt;Node27</title>
<path fill="none" stroke="midnightblue" d="M1127.67,-321.758C986.861,-283.321 642.522,-189.324 511.636,-153.595"/>
<polygon fill="midnightblue" stroke="midnightblue" points="1126.88,-325.17 1137.45,-324.427 1128.72,-318.417 1126.88,-325.17"/>
</g>
<!-- Node47 -->
<g id="node47" class="node"><title>Node47</title>
<g id="a_node47"><a xlink:href="TaskFactory_8h.html" target="_top" xlink:title="Framework/include/Quality\lControl/TaskFactory.h">
<polygon fill="none" stroke="black" points="1131.5,-123.5 1131.5,-153.5 1264.5,-153.5 1264.5,-123.5 1131.5,-123.5"/>
<text text-anchor="start" x="1139.5" y="-141.5" font-family="Helvetica,sans-Serif" font-size="10.00">Framework/include/Quality</text>
<text text-anchor="middle" x="1198" y="-130.5" font-family="Helvetica,sans-Serif" font-size="10.00">Control/TaskFactory.h</text>
</a>
</g>
</g>
<!-- Node1&#45;&gt;Node47 -->
<g id="edge56" class="edge"><title>Node1&#45;&gt;Node47</title>
<path fill="none" stroke="midnightblue" d="M1190.11,-313.998C1192.01,-271.93 1195.84,-187.256 1197.36,-153.682"/>
<polygon fill="midnightblue" stroke="midnightblue" points="1186.6,-314.04 1189.65,-324.188 1193.6,-314.357 1186.6,-314.04"/>
</g>
<!-- Node3 -->
<g id="node3" class="node"><title>Node3</title>
<g id="a_node3"><a xlink:href="TaskInterface_8h.html" target="_top" xlink:title="Framework/include/Quality\lControl/TaskInterface.h">
<polygon fill="none" stroke="black" points="1873.5,-190.5 1873.5,-220.5 2006.5,-220.5 2006.5,-190.5 1873.5,-190.5"/>
<text text-anchor="start" x="1881.5" y="-208.5" font-family="Helvetica,sans-Serif" font-size="10.00">Framework/include/Quality</text>
<text text-anchor="middle" x="1940" y="-197.5" font-family="Helvetica,sans-Serif" font-size="10.00">Control/TaskInterface.h</text>
</a>
</g>
</g>
<!-- Node2&#45;&gt;Node3 -->
<g id="edge2" class="edge"><title>Node2&#45;&gt;Node3</title>
<path fill="none" stroke="midnightblue" d="M1741.31,-255.052C1784.8,-244.425 1840.8,-230.741 1882.25,-220.611"/>
<polygon fill="midnightblue" stroke="midnightblue" points="1740.27,-251.702 1731.39,-257.476 1741.94,-258.502 1740.27,-251.702"/>
</g>
<!-- Node16 -->
<g id="node16" class="node"><title>Node16</title>
<g id="a_node16"><a xlink:href="ObjectsManager_8cxx.html" target="_top" xlink:title="Framework/src/ObjectsManager.cxx">
<polygon fill="none" stroke="black" points="2806.5,-62 2806.5,-81 2981.5,-81 2981.5,-62 2806.5,-62"/>
<text text-anchor="middle" x="2894" y="-69" font-family="Helvetica,sans-Serif" font-size="10.00">Framework/src/ObjectsManager.cxx</text>
</a>
</g>
</g>
<!-- Node2&#45;&gt;Node16 -->
<g id="edge52" class="edge"><title>Node2&#45;&gt;Node16</title>
<path fill="none" stroke="midnightblue" d="M1750.65,-260.603C1819.81,-250.663 1924.3,-235.377 2015,-221 2332.18,-170.726 2712.67,-104.389 2845.46,-81.0572"/>
<polygon fill="midnightblue" stroke="midnightblue" points="1750.11,-257.144 1740.71,-262.03 1751.11,-264.073 1750.11,-257.144"/>
</g>
<!-- Node40 -->
<g id="node40" class="node"><title>Node40</title>
<polygon fill="none" stroke="#bfbfbf" points="1157,-56.5 1157,-86.5 1271,-86.5 1271,-56.5 1157,-56.5"/>
<text text-anchor="start" x="1165" y="-74.5" font-family="Helvetica,sans-Serif" font-size="10.00">Modules/Example/test</text>
<text text-anchor="middle" x="1214" y="-63.5" font-family="Helvetica,sans-Serif" font-size="10.00">/testFactory.cxx</text>
</g>
<!-- Node2&#45;&gt;Node40 -->
<g id="edge55" class="edge"><title>Node2&#45;&gt;Node40</title>
<path fill="none" stroke="midnightblue" d="M1631.85,-253.264C1540.93,-213.933 1328.06,-121.843 1246.55,-86.5799"/>
<polygon fill="midnightblue" stroke="midnightblue" points="1630.72,-256.59 1641.29,-257.348 1633.5,-250.165 1630.72,-256.59"/>
</g>
<!-- Node45 -->
<g id="node45" class="node"><title>Node45</title>
<polygon fill="none" stroke="#bfbfbf" points="2443,-190.5 2443,-220.5 2581,-220.5 2581,-190.5 2443,-190.5"/>
<text text-anchor="start" x="2451" y="-208.5" font-family="Helvetica,sans-Serif" font-size="10.00">Framework/test/testObjects</text>
<text text-anchor="middle" x="2512" y="-197.5" font-family="Helvetica,sans-Serif" font-size="10.00">Manager.cxx</text>
</g>
<!-- Node2&#45;&gt;Node45 -->
<g id="edge53" class="edge"><title>Node2&#45;&gt;Node45</title>
<path fill="none" stroke="midnightblue" d="M1750.99,-269.05C1887.84,-264.095 2182.24,-250.722 2429,-221 2433.5,-220.458 2438.13,-219.834 2442.79,-219.157"/>
<polygon fill="midnightblue" stroke="midnightblue" points="1750.49,-265.566 1740.62,-269.42 1750.74,-272.561 1750.49,-265.566"/>
</g>
<!-- Node46 -->
<g id="node46" class="node"><title>Node46</title>
<g id="a_node46"><a xlink:href="testPublisher_8cxx.html" target="_top" xlink:title="Framework/test/testPublisher.cxx">
<polygon fill="none" stroke="black" points="1217,-196 1217,-215 1381,-215 1381,-196 1217,-196"/>
<text text-anchor="middle" x="1299" y="-203" font-family="Helvetica,sans-Serif" font-size="10.00">Framework/test/testPublisher.cxx</text>
</a>
</g>
</g>
<!-- Node2&#45;&gt;Node46 -->
<g id="edge54" class="edge"><title>Node2&#45;&gt;Node46</title>
<path fill="none" stroke="midnightblue" d="M1597.12,-258.174C1522.56,-245.25 1411.67,-226.03 1348.26,-215.038"/>
<polygon fill="midnightblue" stroke="midnightblue" points="1596.94,-261.695 1607.39,-259.954 1598.13,-254.798 1596.94,-261.695"/>
</g>
<!-- Node4 -->
<g id="node4" class="node"><title>Node4</title>
<g id="a_node4"><a xlink:href="QcInfoLogger_8h.html" target="_top" xlink:title="Framework/include/Quality\lControl/QcInfoLogger.h">
<polygon fill="none" stroke="black" points="2913.5,-123.5 2913.5,-153.5 3046.5,-153.5 3046.5,-123.5 2913.5,-123.5"/>
<text text-anchor="start" x="2921.5" y="-141.5" font-family="Helvetica,sans-Serif" font-size="10.00">Framework/include/Quality</text>
<text text-anchor="middle" x="2980" y="-130.5" font-family="Helvetica,sans-Serif" font-size="10.00">Control/QcInfoLogger.h</text>
</a>
</g>
</g>
<!-- Node3&#45;&gt;Node4 -->
<g id="edge3" class="edge"><title>Node3&#45;&gt;Node4</title>
<path fill="none" stroke="midnightblue" d="M2016.85,-199.697C2212.83,-187.448 2728.78,-155.201 2913.24,-143.672"/>
<polygon fill="midnightblue" stroke="midnightblue" points="2016.4,-196.218 2006.64,-200.335 2016.84,-203.204 2016.4,-196.218"/>
</g>
<!-- Node3&#45;&gt;Node27 -->
<g id="edge26" class="edge"><title>Node3&#45;&gt;Node27</title>
<path fill="none" stroke="midnightblue" d="M1862.99,-201.118C1604.31,-189.757 769.191,-153.079 526.635,-142.427"/>
<polygon fill="midnightblue" stroke="midnightblue" points="1862.9,-204.617 1873.05,-201.56 1863.21,-197.624 1862.9,-204.617"/>
</g>
<!-- Node31 -->
<g id="node31" class="node"><title>Node31</title>
<g id="a_node31"><a xlink:href="TaskInterface_8cxx.html" target="_top" xlink:title="Framework/src/TaskInterface.cxx">
<polygon fill="none" stroke="black" points="1771,-129 1771,-148 1935,-148 1935,-129 1771,-129"/>
<text text-anchor="middle" x="1853" y="-136" font-family="Helvetica,sans-Serif" font-size="10.00">Framework/src/TaskInterface.cxx</text>
</a>
</g>
</g>
<!-- Node3&#45;&gt;Node31 -->
<g id="edge32" class="edge"><title>Node3&#45;&gt;Node31</title>
<path fill="none" stroke="midnightblue" d="M1913.02,-184.343C1896.78,-172.213 1876.94,-157.389 1864.64,-148.195"/>
<polygon fill="midnightblue" stroke="midnightblue" points="1911.02,-187.215 1921.12,-190.396 1915.21,-181.607 1911.02,-187.215"/>
</g>
<!-- Node32 -->
<g id="node32" class="node"><title>Node32</title>
<g id="a_node32"><a xlink:href="testTaskInterface_8cxx.html" target="_top" xlink:title="Framework/test/testTaskInterface.cxx">
<polygon fill="none" stroke="black" points="1421.5,-62 1421.5,-81 1604.5,-81 1604.5,-62 1421.5,-62"/>
<text text-anchor="middle" x="1513" y="-69" font-family="Helvetica,sans-Serif" font-size="10.00">Framework/test/testTaskInterface.cxx</text>
</a>
</g>
</g>
<!-- Node3&#45;&gt;Node32 -->
<g id="edge33" class="edge"><title>Node3&#45;&gt;Node32</title>
<path fill="none" stroke="midnightblue" d="M1863.25,-203.771C1795.12,-200.573 1694.21,-189.468 1614,-154 1612.69,-153.419 1549.33,-102.011 1523.65,-81.15"/>
<polygon fill="midnightblue" stroke="midnightblue" points="1863.34,-207.278 1873.48,-204.203 1863.64,-200.284 1863.34,-207.278"/>
</g>
<!-- Node33 -->
<g id="node33" class="node"><title>Node33</title>
<g id="a_node33"><a xlink:href="DaqTask_8h.html" target="_top" xlink:title="Modules/Daq/include\l/Daq/DaqTask.h">
<polygon fill="none" stroke="black" points="2121,-123.5 2121,-153.5 2229,-153.5 2229,-123.5 2121,-123.5"/>
<text text-anchor="start" x="2129" y="-141.5" font-family="Helvetica,sans-Serif" font-size="10.00">Modules/Daq/include</text>
<text text-anchor="middle" x="2175" y="-130.5" font-family="Helvetica,sans-Serif" font-size="10.00">/Daq/DaqTask.h</text>
</a>
</g>
</g>
<!-- Node3&#45;&gt;Node33 -->
<g id="edge34" class="edge"><title>Node3&#45;&gt;Node33</title>
<path fill="none" stroke="midnightblue" d="M2000.68,-187.715C2038.93,-177.137 2087.74,-163.635 2123.98,-153.611"/>
<polygon fill="midnightblue" stroke="midnightblue" points="1999.41,-184.437 1990.7,-190.476 2001.27,-191.183 1999.41,-184.437"/>
</g>
<!-- Node35 -->
<g id="node35" class="node"><title>Node35</title>
<g id="a_node35"><a xlink:href="DigitsQcTask_8h.html" target="_top" xlink:title="Modules/EMCAL/include\l/EMCAL/DigitsQcTask.h">
<polygon fill="none" stroke="black" points="3986.5,-123.5 3986.5,-153.5 4111.5,-153.5 4111.5,-123.5 3986.5,-123.5"/>
<text text-anchor="start" x="3994.5" y="-141.5" font-family="Helvetica,sans-Serif" font-size="10.00">Modules/EMCAL/include</text>
<text text-anchor="middle" x="4049" y="-130.5" font-family="Helvetica,sans-Serif" font-size="10.00">/EMCAL/DigitsQcTask.h</text>
</a>
</g>
</g>
<!-- Node3&#45;&gt;Node35 -->
<g id="edge37" class="edge"><title>Node3&#45;&gt;Node35</title>
<path fill="none" stroke="midnightblue" d="M2016.74,-202.224C2113.88,-199.349 2286.35,-194.261 2434,-190 2997.99,-173.723 3139.12,-173.813 3703,-154 3801.99,-150.522 3916.87,-145.515 3986.19,-142.388"/>
<polygon fill="midnightblue" stroke="midnightblue" points="2016.61,-198.726 2006.72,-202.521 2016.82,-205.723 2016.61,-198.726"/>
</g>
<!-- Node36 -->
<g id="node36" class="node"><title>Node36</title>
<g id="a_node36"><a xlink:href="BenchmarkTask_8h.html" target="_top" xlink:title="Modules/Example/include\l/Example/BenchmarkTask.h">
<polygon fill="none" stroke="black" points="2247,-123.5 2247,-153.5 2387,-153.5 2387,-123.5 2247,-123.5"/>
<text text-anchor="start" x="2255" y="-141.5" font-family="Helvetica,sans-Serif" font-size="10.00">Modules/Example/include</text>
<text text-anchor="middle" x="2317" y="-130.5" font-family="Helvetica,sans-Serif" font-size="10.00">/Example/BenchmarkTask.h</text>
</a>
</g>
</g>
<!-- Node3&#45;&gt;Node36 -->
<g id="edge39" class="edge"><title>Node3&#45;&gt;Node36</title>
<path fill="none" stroke="midnightblue" d="M2016.81,-191.78C2077.02,-181.738 2162.89,-167.256 2238,-154 2240.88,-153.491 2243.83,-152.968 2246.8,-152.437"/>
<polygon fill="midnightblue" stroke="midnightblue" points="2015.91,-188.381 2006.62,-193.478 2017.06,-195.286 2015.91,-188.381"/>
</g>
<!-- Node37 -->
<g id="node37" class="node"><title>Node37</title>
<g id="a_node37"><a xlink:href="ExampleCondition_8h.html" target="_top" xlink:title="Modules/Example/include\l/Example/ExampleCondition.h">
<polygon fill="none" stroke="black" points="1953.5,-123.5 1953.5,-153.5 2102.5,-153.5 2102.5,-123.5 1953.5,-123.5"/>
<text text-anchor="start" x="1961.5" y="-141.5" font-family="Helvetica,sans-Serif" font-size="10.00">Modules/Example/include</text>
<text text-anchor="middle" x="2028" y="-130.5" font-family="Helvetica,sans-Serif" font-size="10.00">/Example/ExampleCondition.h</text>
</a>
</g>
</g>
<!-- Node3&#45;&gt;Node37 -->
<g id="edge41" class="edge"><title>Node3&#45;&gt;Node37</title>
<path fill="none" stroke="midnightblue" d="M1967.14,-184.451C1980.68,-174.452 1996.73,-162.6 2008.94,-153.577"/>
<polygon fill="midnightblue" stroke="midnightblue" points="1965.06,-181.639 1959.09,-190.396 1969.22,-187.27 1965.06,-181.639"/>
</g>
<!-- Node39 -->
<g id="node39" class="node"><title>Node39</title>
<g id="a_node39"><a xlink:href="ExampleTask_8h.html" target="_top" xlink:title="Modules/Example/include\l/Example/ExampleTask.h">
<polygon fill="none" stroke="black" points="1437.5,-123.5 1437.5,-153.5 1566.5,-153.5 1566.5,-123.5 1437.5,-123.5"/>
<text text-anchor="start" x="1445.5" y="-141.5" font-family="Helvetica,sans-Serif" font-size="10.00">Modules/Example/include</text>
<text text-anchor="middle" x="1502" y="-130.5" font-family="Helvetica,sans-Serif" font-size="10.00">/Example/ExampleTask.h</text>
</a>
</g>
</g>
<!-- Node3&#45;&gt;Node39 -->
<g id="edge43" class="edge"><title>Node3&#45;&gt;Node39</title>
<path fill="none" stroke="midnightblue" d="M1863.38,-194.664C1790.6,-185.099 1678.17,-169.744 1581,-154 1576.32,-153.242 1571.49,-152.429 1566.63,-151.59"/>
<polygon fill="midnightblue" stroke="midnightblue" points="1863.01,-198.146 1873.38,-195.975 1863.92,-191.205 1863.01,-198.146"/>
</g>
<!-- Node42 -->
<g id="node42" class="node"><title>Node42</title>
<g id="a_node42"><a xlink:href="SkeletonTask_8h.html" target="_top" xlink:title="Modules/Skeleton/include\l/Skeleton/SkeletonTask.h">
<polygon fill="none" stroke="black" points="1623.5,-123.5 1623.5,-153.5 1752.5,-153.5 1752.5,-123.5 1623.5,-123.5"/>
<text text-anchor="start" x="1631.5" y="-141.5" font-family="Helvetica,sans-Serif" font-size="10.00">Modules/Skeleton/include</text>
<text text-anchor="middle" x="1688" y="-130.5" font-family="Helvetica,sans-Serif" font-size="10.00">/Skeleton/SkeletonTask.h</text>
</a>
</g>
</g>
<!-- Node3&#45;&gt;Node42 -->
<g id="edge47" class="edge"><title>Node3&#45;&gt;Node42</title>
<path fill="none" stroke="midnightblue" d="M1875.71,-187.917C1834.59,-177.31 1781.82,-163.699 1742.71,-153.611"/>
<polygon fill="midnightblue" stroke="midnightblue" points="1875.07,-191.367 1885.63,-190.476 1876.82,-184.589 1875.07,-191.367"/>
</g>
<!-- Node44 -->
<g id="node44" class="node"><title>Node44</title>
<g id="a_node44"><a xlink:href="TOFTask_8h.html" target="_top" xlink:title="Modules/TOF/include\l/TOF/TOFTask.h">
<polygon fill="none" stroke="black" points="3584,-123.5 3584,-153.5 3694,-153.5 3694,-123.5 3584,-123.5"/>
<text text-anchor="start" x="3592" y="-141.5" font-family="Helvetica,sans-Serif" font-size="10.00">Modules/TOF/include</text>
<text text-anchor="middle" x="3639" y="-130.5" font-family="Helvetica,sans-Serif" font-size="10.00">/TOF/TOFTask.h</text>
</a>
</g>
</g>
<!-- Node3&#45;&gt;Node44 -->
<g id="edge50" class="edge"><title>Node3&#45;&gt;Node44</title>
<path fill="none" stroke="midnightblue" d="M2016.61,-201.569C2306.7,-190.471 3333.91,-151.172 3583.87,-141.609"/>
<polygon fill="midnightblue" stroke="midnightblue" points="2016.46,-198.072 2006.6,-201.952 2016.73,-205.067 2016.46,-198.072"/>
</g>
<!-- Node5 -->
<g id="node5" class="node"><title>Node5</title>
<g id="a_node5"><a xlink:href="Checker_8h.html" target="_top" xlink:title="Framework/include/Quality\lControl/Checker.h">
<polygon fill="none" stroke="black" points="3152.5,-56.5 3152.5,-86.5 3285.5,-86.5 3285.5,-56.5 3152.5,-56.5"/>
<text text-anchor="start" x="3160.5" y="-74.5" font-family="Helvetica,sans-Serif" font-size="10.00">Framework/include/Quality</text>
<text text-anchor="middle" x="3219" y="-63.5" font-family="Helvetica,sans-Serif" font-size="10.00">Control/Checker.h</text>
</a>
</g>
</g>
<!-- Node4&#45;&gt;Node5 -->
<g id="edge4" class="edge"><title>Node4&#45;&gt;Node5</title>
<path fill="none" stroke="midnightblue" d="M3041.22,-120.85C3080.19,-110.252 3130.1,-96.6775 3167.12,-86.6109"/>
<polygon fill="midnightblue" stroke="midnightblue" points="3040.3,-117.474 3031.57,-123.476 3042.13,-124.229 3040.3,-117.474"/>
</g>
<!-- Node13 -->
<g id="node13" class="node"><title>Node13</title>
<g id="a_node13"><a xlink:href="DatabaseFactory_8cxx.html" target="_top" xlink:title="Framework/src/DatabaseFactory.cxx">
<polygon fill="none" stroke="black" points="3303.5,-62 3303.5,-81 3482.5,-81 3482.5,-62 3303.5,-62"/>
<text text-anchor="middle" x="3393" y="-69" font-family="Helvetica,sans-Serif" font-size="10.00">Framework/src/DatabaseFactory.cxx</text>
</a>
</g>
</g>
<!-- Node4&#45;&gt;Node13 -->
<g id="edge12" class="edge"><title>Node4&#45;&gt;Node13</title>
<path fill="none" stroke="midnightblue" d="M3056.83,-125.408C3138.85,-112.499 3266.71,-92.3755 3338.81,-81.0294"/>
<polygon fill="midnightblue" stroke="midnightblue" points="3056.15,-121.972 3046.81,-126.984 3057.24,-128.887 3056.15,-121.972"/>
</g>
<!-- Node14 -->
<g id="node14" class="node"><title>Node14</title>
<g id="a_node14"><a xlink:href="InformationService_8cxx.html" target="_top" xlink:title="Framework/src/Information\lService.cxx">
<polygon fill="none" stroke="black" points="3501,-56.5 3501,-86.5 3635,-86.5 3635,-56.5 3501,-56.5"/>
<text text-anchor="start" x="3509" y="-74.5" font-family="Helvetica,sans-Serif" font-size="10.00">Framework/src/Information</text>
<text text-anchor="middle" x="3568" y="-63.5" font-family="Helvetica,sans-Serif" font-size="10.00">Service.cxx</text>
</a>
</g>
</g>
<!-- Node4&#45;&gt;Node14 -->
<g id="edge13" class="edge"><title>Node4&#45;&gt;Node14</title>
<path fill="none" stroke="midnightblue" d="M3056.55,-132.116C3156.88,-124.564 3338.16,-109.216 3492,-87 3494.92,-86.5776 3497.91,-86.1208 3500.92,-85.6385"/>
<polygon fill="midnightblue" stroke="midnightblue" points="3056.22,-128.631 3046.51,-132.866 3056.74,-135.611 3056.22,-128.631"/>
</g>
<!-- Node15 -->
<g id="node15" class="node"><title>Node15</title>
<g id="a_node15"><a xlink:href="MySqlDatabase_8cxx.html" target="_top" xlink:title="Framework/src/MySqlDatabase.cxx">
<polygon fill="none" stroke="black" points="3653.5,-62 3653.5,-81 3826.5,-81 3826.5,-62 3653.5,-62"/>
<text text-anchor="middle" x="3740" y="-69" font-family="Helvetica,sans-Serif" font-size="10.00">Framework/src/MySqlDatabase.cxx</text>
</a>
</g>
</g>
<!-- Node4&#45;&gt;Node15 -->
<g id="edge14" class="edge"><title>Node4&#45;&gt;Node15</title>
<path fill="none" stroke="midnightblue" d="M3056.73,-133.513C3180.55,-126.665 3431.99,-111.04 3644,-87 3658.4,-85.3668 3673.96,-83.1945 3688.28,-81.0296"/>
<polygon fill="midnightblue" stroke="midnightblue" points="3056.39,-130.027 3046.6,-134.07 3056.77,-137.016 3056.39,-130.027"/>
</g>
<!-- Node4&#45;&gt;Node16 -->
<g id="edge15" class="edge"><title>Node4&#45;&gt;Node16</title>
<path fill="none" stroke="midnightblue" d="M2953.33,-117.343C2937.28,-105.213 2917.67,-90.389 2905.5,-81.1945"/>
<polygon fill="midnightblue" stroke="midnightblue" points="2951.25,-120.158 2961.34,-123.396 2955.47,-114.574 2951.25,-120.158"/>
</g>
<!-- Node17 -->
<g id="node17" class="node"><title>Node17</title>
<g id="a_node17"><a xlink:href="RepositoryBenchmark_8cxx.html" target="_top" xlink:title="Framework/src/Repository\lBenchmark.cxx">
<polygon fill="none" stroke="black" points="3845,-56.5 3845,-86.5 3977,-86.5 3977,-56.5 3845,-56.5"/>
<text text-anchor="start" x="3853" y="-74.5" font-family="Helvetica,sans-Serif" font-size="10.00">Framework/src/Repository</text>
<text text-anchor="middle" x="3911" y="-63.5" font-family="Helvetica,sans-Serif" font-size="10.00">Benchmark.cxx</text>
</a>
</g>
</g>
<!-- Node4&#45;&gt;Node17 -->
<g id="edge16" class="edge"><title>Node4&#45;&gt;Node17</title>
<path fill="none" stroke="midnightblue" d="M3056.64,-136.367C3206.77,-133.4 3549.92,-122.933 3836,-87 3838.89,-86.6364 3841.85,-86.2282 3844.82,-85.7857"/>
<polygon fill="midnightblue" stroke="midnightblue" points="3056.53,-132.869 3046.6,-136.56 3056.66,-139.867 3056.53,-132.869"/>
</g>
<!-- Node18 -->
<g id="node18" class="node"><title>Node18</title>
<g id="a_node18"><a xlink:href="TaskFactory_8cxx.html" target="_top" xlink:title="Framework/src/TaskFactory.cxx">
<polygon fill="none" stroke="black" points="1755,-62 1755,-81 1913,-81 1913,-62 1755,-62"/>
<text text-anchor="middle" x="1834" y="-69" font-family="Helvetica,sans-Serif" font-size="10.00">Framework/src/TaskFactory.cxx</text>
</a>
</g>
</g>
<!-- Node4&#45;&gt;Node18 -->
<g id="edge17" class="edge"><title>Node4&#45;&gt;Node18</title>
<path fill="none" stroke="midnightblue" d="M2903.13,-136.872C2728.37,-134.779 2287.99,-125.756 1922,-87 1908.14,-85.5325 1893.15,-83.3047 1879.54,-81.0326"/>
<polygon fill="midnightblue" stroke="midnightblue" points="2903.22,-140.373 2913.26,-136.989 2903.3,-133.373 2903.22,-140.373"/>
</g>
<!-- Node19 -->
<g id="node19" class="node"><title>Node19</title>
<g id="a_node19"><a xlink:href="TaskRunner_8cxx.html" target="_top" xlink:title="Framework/src/TaskRunner.cxx">
<polygon fill="none" stroke="black" points="682.5,-62 682.5,-81 839.5,-81 839.5,-62 682.5,-62"/>
<text text-anchor="middle" x="761" y="-69" font-family="Helvetica,sans-Serif" font-size="10.00">Framework/src/TaskRunner.cxx</text>
</a>
</g>
</g>
<!-- Node4&#45;&gt;Node19 -->
<g id="edge18" class="edge"><title>Node4&#45;&gt;Node19</title>
<path fill="none" stroke="midnightblue" d="M2903.29,-135.557C2791.65,-132.738 2577.89,-127.373 2396,-123 2052.01,-114.73 1190.57,-119.366 848,-87 833.823,-85.6605 818.464,-83.3806 804.654,-81.0204"/>
<polygon fill="midnightblue" stroke="midnightblue" points="2903.35,-139.06 2913.44,-135.813 2903.53,-132.062 2903.35,-139.06"/>
</g>
<!-- Node20 -->
<g id="node20" class="node"><title>Node20</title>
<g id="a_node20"><a xlink:href="testQcInfoLogger_8cxx.html" target="_top" xlink:title="Framework/test/testQcInfo\lLogger.cxx">
<polygon fill="none" stroke="black" points="3000,-56.5 3000,-86.5 3134,-86.5 3134,-56.5 3000,-56.5"/>
<text text-anchor="start" x="3008" y="-74.5" font-family="Helvetica,sans-Serif" font-size="10.00">Framework/test/testQcInfo</text>
<text text-anchor="middle" x="3067" y="-63.5" font-family="Helvetica,sans-Serif" font-size="10.00">Logger.cxx</text>
</a>
</g>
</g>
<!-- Node4&#45;&gt;Node20 -->
<g id="edge19" class="edge"><title>Node4&#45;&gt;Node20</title>
<path fill="none" stroke="midnightblue" d="M3007.21,-117.168C3020.52,-107.228 3036.2,-95.5144 3048.16,-86.5765"/>
<polygon fill="midnightblue" stroke="midnightblue" points="3004.79,-114.607 2998.88,-123.396 3008.98,-120.215 3004.79,-114.607"/>
</g>
<!-- Node21 -->
<g id="node21" class="node"><title>Node21</title>
<g id="a_node21"><a xlink:href="DaqTask_8cxx.html" target="_top" xlink:title="Modules/Daq/src/DaqTask.cxx">
<polygon fill="none" stroke="black" points="2507,-62 2507,-81 2659,-81 2659,-62 2507,-62"/>
<text text-anchor="middle" x="2583" y="-69" font-family="Helvetica,sans-Serif" font-size="10.00">Modules/Daq/src/DaqTask.cxx</text>
</a>
</g>
</g>
<!-- Node4&#45;&gt;Node21 -->
<g id="edge20" class="edge"><title>Node4&#45;&gt;Node21</title>
<path fill="none" stroke="midnightblue" d="M2903.44,-125.294C2840.26,-115.177 2748.28,-100.344 2668,-87 2656.48,-85.0854 2644.09,-82.9914 2632.43,-81.005"/>
<polygon fill="midnightblue" stroke="midnightblue" points="2902.9,-128.752 2913.33,-126.877 2904.01,-121.84 2902.9,-128.752"/>
</g>
<!-- Node22 -->
<g id="node22" class="node"><title>Node22</title>
<g id="a_node22"><a xlink:href="DigitsQcTask_8cxx.html" target="_top" xlink:title="Modules/EMCAL/src/Digits\lQcTask.cxx">
<polygon fill="none" stroke="black" points="4169,-56.5 4169,-86.5 4305,-86.5 4305,-56.5 4169,-56.5"/>
<text text-anchor="start" x="4177" y="-74.5" font-family="Helvetica,sans-Serif" font-size="10.00">Modules/EMCAL/src/Digits</text>
<text text-anchor="middle" x="4237" y="-63.5" font-family="Helvetica,sans-Serif" font-size="10.00">QcTask.cxx</text>
</a>
</g>
</g>
<!-- Node4&#45;&gt;Node22 -->
<g id="edge21" class="edge"><title>Node4&#45;&gt;Node22</title>
<path fill="none" stroke="midnightblue" d="M3056.62,-135.658C3282.78,-129.993 3945.08,-111.706 4160,-87 4162.84,-86.6738 4165.73,-86.3035 4168.64,-85.8986"/>
<polygon fill="midnightblue" stroke="midnightblue" points="3056.41,-132.162 3046.5,-135.91 3056.59,-139.16 3056.41,-132.162"/>
</g>
<!-- Node23 -->
<g id="node23" class="node"><title>Node23</title>
<g id="a_node23"><a xlink:href="BenchmarkTask_8cxx.html" target="_top" xlink:title="Modules/Example/src\l/BenchmarkTask.cxx">
<polygon fill="none" stroke="black" points="2677.5,-56.5 2677.5,-86.5 2788.5,-86.5 2788.5,-56.5 2677.5,-56.5"/>
<text text-anchor="start" x="2685.5" y="-74.5" font-family="Helvetica,sans-Serif" font-size="10.00">Modules/Example/src</text>
<text text-anchor="middle" x="2733" y="-63.5" font-family="Helvetica,sans-Serif" font-size="10.00">/BenchmarkTask.cxx</text>
</a>
</g>
</g>
<!-- Node4&#45;&gt;Node23 -->
<g id="edge22" class="edge"><title>Node4&#45;&gt;Node23</title>
<path fill="none" stroke="midnightblue" d="M2916.99,-120.917C2876.68,-110.31 2824.96,-96.6988 2786.62,-86.6109"/>
<polygon fill="midnightblue" stroke="midnightblue" points="2916.15,-124.316 2926.71,-123.476 2917.93,-117.546 2916.15,-124.316"/>
</g>
<!-- Node24 -->
<g id="node24" class="node"><title>Node24</title>
<g id="a_node24"><a xlink:href="ExampleTask_8cxx.html" target="_top" xlink:title="Modules/Example/src\l/ExampleTask.cxx">
<polygon fill="none" stroke="black" points="2248.5,-56.5 2248.5,-86.5 2359.5,-86.5 2359.5,-56.5 2248.5,-56.5"/>
<text text-anchor="start" x="2256.5" y="-74.5" font-family="Helvetica,sans-Serif" font-size="10.00">Modules/Example/src</text>
<text text-anchor="middle" x="2304" y="-63.5" font-family="Helvetica,sans-Serif" font-size="10.00">/ExampleTask.cxx</text>
</a>
</g>
</g>
<!-- Node4&#45;&gt;Node24 -->
<g id="edge23" class="edge"><title>Node4&#45;&gt;Node24</title>
<path fill="none" stroke="midnightblue" d="M2902.84,-134.611C2786.39,-129.468 2559.02,-116.371 2368,-87 2365.3,-86.5845 2362.54,-86.1194 2359.76,-85.6177"/>
<polygon fill="midnightblue" stroke="midnightblue" points="2902.94,-138.119 2913.08,-135.056 2903.24,-131.125 2902.94,-138.119"/>
</g>
<!-- Node25 -->
<g id="node25" class="node"><title>Node25</title>
<g id="a_node25"><a xlink:href="SkeletonTask_8cxx.html" target="_top" xlink:title="Modules/Skeleton/src\l/SkeletonTask.cxx">
<polygon fill="none" stroke="black" points="2377.5,-56.5 2377.5,-86.5 2488.5,-86.5 2488.5,-56.5 2377.5,-56.5"/>
<text text-anchor="start" x="2385.5" y="-74.5" font-family="Helvetica,sans-Serif" font-size="10.00">Modules/Skeleton/src</text>
<text text-anchor="middle" x="2433" y="-63.5" font-family="Helvetica,sans-Serif" font-size="10.00">/SkeletonTask.cxx</text>
</a>
</g>
</g>
<!-- Node4&#45;&gt;Node25 -->
<g id="edge24" class="edge"><title>Node4&#45;&gt;Node25</title>
<path fill="none" stroke="midnightblue" d="M2903.27,-132.2C2807.86,-124.981 2640.21,-110.233 2498,-87 2494.92,-86.4967 2491.76,-85.9382 2488.59,-85.3419"/>
<polygon fill="midnightblue" stroke="midnightblue" points="2903.17,-135.703 2913.41,-132.959 2903.7,-128.722 2903.17,-135.703"/>
</g>
<!-- Node26 -->
<g id="node26" class="node"><title>Node26</title>
<g id="a_node26"><a xlink:href="TOFTask_8cxx.html" target="_top" xlink:title="Modules/TOF/src/TOFTask.cxx">
<polygon fill="none" stroke="black" points="3995.5,-62 3995.5,-81 4150.5,-81 4150.5,-62 3995.5,-62"/>
<text text-anchor="middle" x="4073" y="-69" font-family="Helvetica,sans-Serif" font-size="10.00">Modules/TOF/src/TOFTask.cxx</text>
</a>
</g>
</g>
<!-- Node4&#45;&gt;Node26 -->
<g id="edge25" class="edge"><title>Node4&#45;&gt;Node26</title>
<path fill="none" stroke="midnightblue" d="M3056.74,-136.653C3225.33,-134.135 3640.56,-124.332 3986,-87 3999.7,-85.5193 4014.52,-83.2875 4027.98,-81.0159"/>
<polygon fill="midnightblue" stroke="midnightblue" points="3056.67,-133.154 3046.72,-136.799 3056.77,-140.153 3056.67,-133.154"/>
</g>
<!-- Node6 -->
<g id="node6" class="node"><title>Node6</title>
<g id="a_node6"><a xlink:href="Checker_8cxx.html" target="_top" xlink:title="Framework/src/Checker.cxx">
<polygon fill="none" stroke="black" points="1441,-0.5 1441,-19.5 1581,-19.5 1581,-0.5 1441,-0.5"/>
<text text-anchor="middle" x="1511" y="-7.5" font-family="Helvetica,sans-Serif" font-size="10.00">Framework/src/Checker.cxx</text>
</a>
</g>
</g>
<!-- Node5&#45;&gt;Node6 -->
<g id="edge5" class="edge"><title>Node5&#45;&gt;Node6</title>
<path fill="none" stroke="midnightblue" d="M3142.34,-56.0974C2813.35,-22.2313 1850,-13.3115 1581.28,-11.4312"/>
<polygon fill="midnightblue" stroke="midnightblue" points="3142.05,-59.5858 3152.36,-57.158 3142.79,-52.6247 3142.05,-59.5858"/>
</g>
<!-- Node7 -->
<g id="node7" class="node"><title>Node7</title>
<g id="a_node7"><a xlink:href="CheckerFactory_8cxx.html" target="_top" xlink:title="Framework/src/CheckerFactory.cxx">
<polygon fill="none" stroke="black" points="3410.5,-0.5 3410.5,-19.5 3583.5,-19.5 3583.5,-0.5 3410.5,-0.5"/>
<text text-anchor="middle" x="3497" y="-7.5" font-family="Helvetica,sans-Serif" font-size="10.00">Framework/src/CheckerFactory.cxx</text>
</a>
</g>
</g>
<!-- Node5&#45;&gt;Node7 -->
<g id="edge6" class="edge"><title>Node5&#45;&gt;Node7</title>
<path fill="none" stroke="midnightblue" d="M3294.48,-54.3445C3347.01,-43.1022 3414.95,-28.5604 3457.26,-19.5064"/>
<polygon fill="midnightblue" stroke="midnightblue" points="3293.58,-50.9592 3284.53,-56.4747 3295.04,-57.8042 3293.58,-50.9592"/>
</g>
<!-- Node8 -->
<g id="node8" class="node"><title>Node8</title>
<g id="a_node8"><a xlink:href="runBasic_8cxx.html" target="_top" xlink:title="This is an executable showing QC Task&#39;s usage in Data Processing Layer. ">
<polygon fill="none" stroke="black" points="3602,-0.5 3602,-19.5 3744,-19.5 3744,-0.5 3602,-0.5"/>
<text text-anchor="middle" x="3673" y="-7.5" font-family="Helvetica,sans-Serif" font-size="10.00">Framework/src/runBasic.cxx</text>
</a>
</g>
</g>
<!-- Node5&#45;&gt;Node8 -->
<g id="edge7" class="edge"><title>Node5&#45;&gt;Node8</title>
<path fill="none" stroke="midnightblue" d="M3295.84,-56.0169C3348.93,-48.5875 3507.9,-30.0607 3601.87,-19.1951"/>
<polygon fill="midnightblue" stroke="midnightblue" points="3295.07,-52.592 3285.68,-57.5041 3296.08,-59.5181 3295.07,-52.592"/>
</g>
<!-- Node9 -->
<g id="node9" class="node"><title>Node9</title>
<g id="a_node9"><a xlink:href="testChecker_8cxx.html" target="_top" xlink:title="Framework/test/testChecker.cxx">
<polygon fill="none" stroke="black" points="2649,-0.5 2649,-19.5 2809,-19.5 2809,-0.5 2649,-0.5"/>
<text text-anchor="middle" x="2729" y="-7.5" font-family="Helvetica,sans-Serif" font-size="10.00">Framework/test/testChecker.cxx</text>
</a>
</g>
</g>
<!-- Node5&#45;&gt;Node9 -->
<g id="edge8" class="edge"><title>Node5&#45;&gt;Node9</title>
<path fill="none" stroke="midnightblue" d="M3142.17,-56.04C3085.95,-48.5588 2912.91,-30.2362 2809.22,-19.3686"/>
<polygon fill="midnightblue" stroke="midnightblue" points="3141.93,-59.5416 3152.32,-57.4653 3142.91,-52.6095 3141.93,-59.5416"/>
</g>
<!-- Node10 -->
<g id="node10" class="node"><title>Node10</title>
<g id="a_node10"><a xlink:href="testWorkflow_8cxx.html" target="_top" xlink:title="Framework/test/testWorkflow.cxx">
<polygon fill="none" stroke="black" points="2827,-0.5 2827,-19.5 2991,-19.5 2991,-0.5 2827,-0.5"/>
<text text-anchor="middle" x="2909" y="-7.5" font-family="Helvetica,sans-Serif" font-size="10.00">Framework/test/testWorkflow.cxx</text>
</a>
</g>
</g>
<!-- Node5&#45;&gt;Node10 -->
<g id="edge9" class="edge"><title>Node5&#45;&gt;Node10</title>
<path fill="none" stroke="midnightblue" d="M3142.4,-55.7981C3082.97,-44.3908 3002.66,-28.9766 2953.42,-19.5254"/>
<polygon fill="midnightblue" stroke="midnightblue" points="3142.02,-59.288 3152.5,-57.7358 3143.34,-52.4135 3142.02,-59.288"/>
</g>
<!-- Node11 -->
<g id="node11" class="node"><title>Node11</title>
<polygon fill="none" stroke="#bfbfbf" points="3009,-0.5 3009,-19.5 3227,-19.5 3227,-0.5 3009,-0.5"/>
<text text-anchor="middle" x="3118" y="-7.5" font-family="Helvetica,sans-Serif" font-size="10.00">Modules/EMCAL/src/runQCEMCALDigits.cxx</text>
</g>
<!-- Node5&#45;&gt;Node11 -->
<g id="edge10" class="edge"><title>Node5&#45;&gt;Node11</title>
<path fill="none" stroke="midnightblue" d="M3186.02,-51.0688C3168.01,-40.4624 3146.62,-27.8586 3132.7,-19.6578"/>
<polygon fill="midnightblue" stroke="midnightblue" points="3184.67,-54.3391 3195.06,-56.3993 3188.22,-48.3079 3184.67,-54.3391"/>
</g>
<!-- Node12 -->
<g id="node12" class="node"><title>Node12</title>
<g id="a_node12"><a xlink:href="runTOF_8cxx.html" target="_top" xlink:title="This is an executable showing QC Task&#39;s usage in Data Processing Layer. ">
<polygon fill="none" stroke="black" points="3245.5,-0.5 3245.5,-19.5 3392.5,-19.5 3392.5,-0.5 3245.5,-0.5"/>
<text text-anchor="middle" x="3319" y="-7.5" font-family="Helvetica,sans-Serif" font-size="10.00">Modules/TOF/src/runTOF.cxx</text>
</a>
</g>
</g>
<!-- Node5&#45;&gt;Node12 -->
<g id="edge11" class="edge"><title>Node5&#45;&gt;Node12</title>
<path fill="none" stroke="midnightblue" d="M3251.66,-51.0688C3269.48,-40.4624 3290.67,-27.8586 3304.45,-19.6578"/>
<polygon fill="midnightblue" stroke="midnightblue" points="3249.5,-48.2781 3242.7,-56.3993 3253.08,-54.2938 3249.5,-48.2781"/>
</g>
<!-- Node27&#45;&gt;Node6 -->
<g id="edge27" class="edge"><title>Node27&#45;&gt;Node6</title>
<path fill="none" stroke="midnightblue" d="M419.7,-118.541C390.013,-102.136 358.142,-77.7032 379,-56 415.861,-17.6445 1199.1,-11.9788 1440.68,-11.1438"/>
<polygon fill="midnightblue" stroke="midnightblue" points="418.308,-121.765 428.782,-123.362 421.591,-115.582 418.308,-121.765"/>
</g>
<!-- Node27&#45;&gt;Node19 -->
<g id="edge29" class="edge"><title>Node27&#45;&gt;Node19</title>
<path fill="none" stroke="midnightblue" d="M534.984,-121.307C594.121,-108.537 674.253,-91.2327 721.506,-81.0287"/>
<polygon fill="midnightblue" stroke="midnightblue" points="533.978,-117.944 524.942,-123.476 535.455,-124.786 533.978,-117.944"/>
</g>
<!-- Node28 -->
<g id="node28" class="node"><title>Node28</title>
<polygon fill="none" stroke="#bfbfbf" points="388.5,-56.5 388.5,-86.5 531.5,-86.5 531.5,-56.5 388.5,-56.5"/>
<text text-anchor="start" x="396.5" y="-74.5" font-family="Helvetica,sans-Serif" font-size="10.00">Framework/src/Infrastructure</text>
<text text-anchor="middle" x="460" y="-63.5" font-family="Helvetica,sans-Serif" font-size="10.00">Generator.cxx</text>
</g>
<!-- Node27&#45;&gt;Node28 -->
<g id="edge28" class="edge"><title>Node27&#45;&gt;Node28</title>
<path fill="none" stroke="midnightblue" d="M460,-113.108C460,-104.154 460,-94.3227 460,-86.5765"/>
<polygon fill="midnightblue" stroke="midnightblue" points="456.5,-113.396 460,-123.396 463.5,-113.396 456.5,-113.396"/>
</g>
<!-- Node29 -->
<g id="node29" class="node"><title>Node29</title>
<g id="a_node29"><a xlink:href="TaskRunnerFactory_8cxx.html" target="_top" xlink:title="Framework/src/TaskRunner\lFactory.cxx">
<polygon fill="none" stroke="black" points="0,-56.5 0,-86.5 138,-86.5 138,-56.5 0,-56.5"/>
<text text-anchor="start" x="8" y="-74.5" font-family="Helvetica,sans-Serif" font-size="10.00">Framework/src/TaskRunner</text>
<text text-anchor="middle" x="69" y="-63.5" font-family="Helvetica,sans-Serif" font-size="10.00">Factory.cxx</text>
</a>
</g>
</g>
<!-- Node27&#45;&gt;Node29 -->
<g id="edge30" class="edge"><title>Node27&#45;&gt;Node29</title>
<path fill="none" stroke="midnightblue" d="M383.446,-125.67C320.024,-115.745 227.563,-100.985 147,-87 144.15,-86.5053 141.243,-85.9942 138.307,-85.4726"/>
<polygon fill="midnightblue" stroke="midnightblue" points="382.949,-129.135 393.369,-127.221 384.029,-122.219 382.949,-129.135"/>
</g>
<!-- Node30 -->
<g id="node30" class="node"><title>Node30</title>
<g id="a_node30"><a xlink:href="testTaskRunner_8cxx.html" target="_top" xlink:title="Framework/test/testTaskRunner.cxx">
<polygon fill="none" stroke="black" points="156,-62 156,-81 332,-81 332,-62 156,-62"/>
<text text-anchor="middle" x="244" y="-69" font-family="Helvetica,sans-Serif" font-size="10.00">Framework/test/testTaskRunner.cxx</text>
</a>
</g>
</g>
<!-- Node27&#45;&gt;Node30 -->
<g id="edge31" class="edge"><title>Node27&#45;&gt;Node30</title>
<path fill="none" stroke="midnightblue" d="M403.808,-120.59C361.624,-107.896 305.62,-91.0429 272.341,-81.0287"/>
<polygon fill="midnightblue" stroke="midnightblue" points="402.813,-123.946 413.397,-123.476 404.83,-117.243 402.813,-123.946"/>
</g>
<!-- Node33&#45;&gt;Node21 -->
<g id="edge35" class="edge"><title>Node33&#45;&gt;Node21</title>
<path fill="none" stroke="midnightblue" d="M2239.12,-122.888C2353.99,-102.079 2385.27,-104.18 2497,-87 2508.97,-85.159 2521.86,-83.0527 2533.92,-81.0265"/>
<polygon fill="midnightblue" stroke="midnightblue" points="2238.44,-119.455 2229.23,-124.698 2239.7,-126.341 2238.44,-119.455"/>
</g>
<!-- Node34 -->
<g id="node34" class="node"><title>Node34</title>
<g id="a_node34"><a xlink:href="testQcDaq_8cxx.html" target="_top" xlink:title="Modules/Daq/test/testQcDaq.cxx">
<polygon fill="none" stroke="black" points="2067.5,-62 2067.5,-81 2230.5,-81 2230.5,-62 2067.5,-62"/>
<text text-anchor="middle" x="2149" y="-69" font-family="Helvetica,sans-Serif" font-size="10.00">Modules/Daq/test/testQcDaq.cxx</text>
</a>
</g>
</g>
<!-- Node33&#45;&gt;Node34 -->
<g id="edge36" class="edge"><title>Node33&#45;&gt;Node34</title>
<path fill="none" stroke="midnightblue" d="M2165.58,-113.942C2161.02,-102.54 2155.82,-89.5454 2152.48,-81.1945"/>
<polygon fill="midnightblue" stroke="midnightblue" points="2162.39,-115.411 2169.36,-123.396 2168.89,-112.811 2162.39,-115.411"/>
</g>
<!-- Node35&#45;&gt;Node22 -->
<g id="edge38" class="edge"><title>Node35&#45;&gt;Node22</title>
<path fill="none" stroke="midnightblue" d="M4099.35,-120.092C4129.7,-109.599 4167.85,-96.4082 4196.29,-86.5765"/>
<polygon fill="midnightblue" stroke="midnightblue" points="4098.1,-116.82 4089.79,-123.396 4100.39,-123.436 4098.1,-116.82"/>
</g>
<!-- Node36&#45;&gt;Node23 -->
<g id="edge40" class="edge"><title>Node36&#45;&gt;Node23</title>
<path fill="none" stroke="midnightblue" d="M2397.14,-123.598C2398.44,-123.395 2399.72,-123.196 2401,-123 2519.35,-104.813 2550.13,-108.054 2668,-87 2671.07,-86.4511 2674.22,-85.8567 2677.39,-85.2324"/>
<polygon fill="midnightblue" stroke="midnightblue" points="2396.42,-120.169 2387.09,-125.201 2397.52,-127.082 2396.42,-120.169"/>
</g>
<!-- Node38 -->
<g id="node38" class="node"><title>Node38</title>
<g id="a_node38"><a xlink:href="ExampleCondition_8cxx.html" target="_top" xlink:title="Modules/Example/src\l/ExampleCondition.cxx">
<polygon fill="none" stroke="black" points="1931,-56.5 1931,-86.5 2049,-86.5 2049,-56.5 1931,-56.5"/>
<text text-anchor="start" x="1939" y="-74.5" font-family="Helvetica,sans-Serif" font-size="10.00">Modules/Example/src</text>
<text text-anchor="middle" x="1990" y="-63.5" font-family="Helvetica,sans-Serif" font-size="10.00">/ExampleCondition.cxx</text>
</a>
</g>
</g>
<!-- Node37&#45;&gt;Node38 -->
<g id="edge42" class="edge"><title>Node37&#45;&gt;Node38</title>
<path fill="none" stroke="midnightblue" d="M2014.6,-114.576C2009.14,-105.241 2003.01,-94.7483 1998.23,-86.5765"/>
<polygon fill="midnightblue" stroke="midnightblue" points="2011.69,-116.529 2019.75,-123.396 2017.73,-112.997 2011.69,-116.529"/>
</g>
<!-- Node39&#45;&gt;Node24 -->
<g id="edge44" class="edge"><title>Node39&#45;&gt;Node24</title>
<path fill="none" stroke="midnightblue" d="M1577.03,-127.038C1589.36,-125.533 1602.03,-124.118 1614,-123 1891.03,-97.1217 1963.43,-125.416 2239,-87 2242.09,-86.569 2245.25,-86.0676 2248.44,-85.5155"/>
<polygon fill="midnightblue" stroke="midnightblue" points="1576.25,-123.607 1566.76,-128.319 1577.12,-130.553 1576.25,-123.607"/>
</g>
<!-- Node39&#45;&gt;Node40 -->
<g id="edge45" class="edge"><title>Node39&#45;&gt;Node40</title>
<path fill="none" stroke="midnightblue" d="M1429.94,-121.236C1380.84,-110.154 1316.71,-95.6822 1271.13,-85.3949"/>
<polygon fill="midnightblue" stroke="midnightblue" points="1429.34,-124.688 1439.86,-123.476 1430.88,-117.86 1429.34,-124.688"/>
</g>
<!-- Node41 -->
<g id="node41" class="node"><title>Node41</title>
<g id="a_node41"><a xlink:href="testQcExample_8cxx.html" target="_top" xlink:title="Modules/Example/test\l/testQcExample.cxx">
<polygon fill="none" stroke="black" points="1289,-56.5 1289,-86.5 1403,-86.5 1403,-56.5 1289,-56.5"/>
<text text-anchor="start" x="1297" y="-74.5" font-family="Helvetica,sans-Serif" font-size="10.00">Modules/Example/test</text>
<text text-anchor="middle" x="1346" y="-63.5" font-family="Helvetica,sans-Serif" font-size="10.00">/testQcExample.cxx</text>
</a>
</g>
</g>
<!-- Node39&#45;&gt;Node41 -->
<g id="edge46" class="edge"><title>Node39&#45;&gt;Node41</title>
<path fill="none" stroke="midnightblue" d="M1458.91,-119.544C1433.94,-109.143 1402.97,-96.238 1379.78,-86.5765"/>
<polygon fill="midnightblue" stroke="midnightblue" points="1457.57,-122.781 1468.15,-123.396 1460.27,-116.319 1457.57,-122.781"/>
</g>
<!-- Node42&#45;&gt;Node25 -->
<g id="edge48" class="edge"><title>Node42&#45;&gt;Node25</title>
<path fill="none" stroke="midnightblue" d="M1762.94,-123.013C2031.42,-89.8389 2104.07,-124.034 2368,-87 2371.09,-86.5662 2374.25,-86.0626 2377.44,-85.5088"/>
<polygon fill="midnightblue" stroke="midnightblue" points="1762.38,-119.555 1752.89,-124.274 1763.25,-126.501 1762.38,-119.555"/>
</g>
<!-- Node43 -->
<g id="node43" class="node"><title>Node43</title>
<g id="a_node43"><a xlink:href="testQcSkeleton_8cxx.html" target="_top" xlink:title="Modules/Skeleton/test\l/testQcSkeleton.cxx">
<polygon fill="none" stroke="black" points="1623,-56.5 1623,-86.5 1737,-86.5 1737,-56.5 1623,-56.5"/>
<text text-anchor="start" x="1631" y="-74.5" font-family="Helvetica,sans-Serif" font-size="10.00">Modules/Skeleton/test</text>
<text text-anchor="middle" x="1680" y="-63.5" font-family="Helvetica,sans-Serif" font-size="10.00">/testQcSkeleton.cxx</text>
</a>
</g>
</g>
<!-- Node42&#45;&gt;Node43 -->
<g id="edge49" class="edge"><title>Node42&#45;&gt;Node43</title>
<path fill="none" stroke="midnightblue" d="M1685.03,-113.403C1683.92,-104.37 1682.7,-94.4078 1681.73,-86.5765"/>
<polygon fill="midnightblue" stroke="midnightblue" points="1681.57,-113.898 1686.26,-123.396 1688.52,-113.043 1681.57,-113.898"/>
</g>
<!-- Node44&#45;&gt;Node26 -->
<g id="edge51" class="edge"><title>Node44&#45;&gt;Node26</title>
<path fill="none" stroke="midnightblue" d="M3704.01,-128.447C3773.78,-118.636 3887.82,-102.324 3986,-87 3997.95,-85.1345 4010.81,-83.0395 4022.88,-81.0343"/>
<polygon fill="midnightblue" stroke="midnightblue" points="3703.46,-124.99 3694.04,-129.847 3704.43,-131.922 3703.46,-124.99"/>
</g>
<!-- Node47&#45;&gt;Node18 -->
<g id="edge57" class="edge"><title>Node47&#45;&gt;Node18</title>
<path fill="none" stroke="midnightblue" d="M1274.8,-132.162C1380.96,-124.386 1578.46,-108.495 1746,-87 1759.05,-85.3252 1773.14,-83.164 1786.14,-81.0241"/>
<polygon fill="midnightblue" stroke="midnightblue" points="1274.53,-128.672 1264.81,-132.889 1275.04,-135.653 1274.53,-128.672"/>
</g>
<!-- Node47&#45;&gt;Node19 -->
<g id="edge58" class="edge"><title>Node47&#45;&gt;Node19</title>
<path fill="none" stroke="midnightblue" d="M1121.3,-126.924C1050.34,-117.024 941.959,-101.607 848,-87 836.047,-85.1418 823.186,-83.0496 811.116,-81.0448"/>
<polygon fill="midnightblue" stroke="midnightblue" points="1121.1,-130.431 1131.49,-128.344 1122.07,-123.498 1121.1,-130.431"/>
</g>
<!-- Node47&#45;&gt;Node32 -->
<g id="edge59" class="edge"><title>Node47&#45;&gt;Node32</title>
<path fill="none" stroke="midnightblue" d="M1274.92,-121.628C1336.82,-108.855 1421.45,-91.3919 1471.35,-81.0938"/>
<polygon fill="midnightblue" stroke="midnightblue" points="1273.89,-118.266 1264.8,-123.715 1275.3,-125.122 1273.89,-118.266"/>
</g>
<!-- Node47&#45;&gt;Node40 -->
<g id="edge61" class="edge"><title>Node47&#45;&gt;Node40</title>
<path fill="none" stroke="midnightblue" d="M1203.93,-113.403C1206.16,-104.37 1208.61,-94.4078 1210.54,-86.5765"/>
<polygon fill="midnightblue" stroke="midnightblue" points="1200.46,-112.849 1201.47,-123.396 1207.26,-114.522 1200.46,-112.849"/>
</g>
<!-- Node47&#45;&gt;Node41 -->
<g id="edge62" class="edge"><title>Node47&#45;&gt;Node41</title>
<path fill="none" stroke="midnightblue" d="M1239.51,-119.269C1263.08,-108.916 1292.14,-96.1528 1313.95,-86.5765"/>
<polygon fill="midnightblue" stroke="midnightblue" points="1237.86,-116.17 1230.11,-123.396 1240.68,-122.579 1237.86,-116.17"/>
</g>
<!-- Node47&#45;&gt;Node43 -->
<g id="edge64" class="edge"><title>Node47&#45;&gt;Node43</title>
<path fill="none" stroke="midnightblue" d="M1274.93,-130.279C1358.47,-121.94 1495.69,-106.789 1613,-87 1616.17,-86.4655 1619.41,-85.8825 1622.68,-85.2671"/>
<polygon fill="midnightblue" stroke="midnightblue" points="1274.36,-126.818 1264.76,-131.287 1275.05,-133.784 1274.36,-126.818"/>
</g>
<!-- Node48 -->
<g id="node48" class="node"><title>Node48</title>
<g id="a_node48"><a xlink:href="testEMCAL_8cxx.html" target="_top" xlink:title="Modules/EMCAL/test\l/testEMCAL.cxx">
<polygon fill="none" stroke="black" points="1029,-56.5 1029,-86.5 1139,-86.5 1139,-56.5 1029,-56.5"/>
<text text-anchor="start" x="1037" y="-74.5" font-family="Helvetica,sans-Serif" font-size="10.00">Modules/EMCAL/test</text>
<text text-anchor="middle" x="1084" y="-63.5" font-family="Helvetica,sans-Serif" font-size="10.00">/testEMCAL.cxx</text>
</a>
</g>
</g>
<!-- Node47&#45;&gt;Node48 -->
<g id="edge60" class="edge"><title>Node47&#45;&gt;Node48</title>
<path fill="none" stroke="midnightblue" d="M1164.32,-118.296C1146.48,-108.125 1124.96,-95.8549 1108.69,-86.5765"/>
<polygon fill="midnightblue" stroke="midnightblue" points="1162.84,-121.483 1173.26,-123.396 1166.31,-115.402 1162.84,-121.483"/>
</g>
<!-- Node49 -->
<g id="node49" class="node"><title>Node49</title>
<polygon fill="none" stroke="#bfbfbf" points="550,-56.5 550,-86.5 664,-86.5 664,-56.5 550,-56.5"/>
<text text-anchor="start" x="558" y="-74.5" font-family="Helvetica,sans-Serif" font-size="10.00">Modules/Skeleton/test</text>
<text text-anchor="middle" x="607" y="-63.5" font-family="Helvetica,sans-Serif" font-size="10.00">/.testEmpty.cxx</text>
</g>
<!-- Node47&#45;&gt;Node49 -->
<g id="edge63" class="edge"><title>Node47&#45;&gt;Node49</title>
<path fill="none" stroke="midnightblue" d="M1121.11,-133.012C1018.48,-126.36 831.285,-111.907 673,-87 670.103,-86.5441 667.142,-86.0389 664.158,-85.4985"/>
<polygon fill="midnightblue" stroke="midnightblue" points="1121.17,-136.524 1131.38,-133.67 1121.62,-129.538 1121.17,-136.524"/>
</g>
<!-- Node50 -->
<g id="node50" class="node"><title>Node50</title>
<g id="a_node50"><a xlink:href="testTOF_8cxx.html" target="_top" xlink:title="Modules/TOF/test/testTOF.cxx">
<polygon fill="none" stroke="black" points="857.5,-62 857.5,-81 1010.5,-81 1010.5,-62 857.5,-62"/>
<text text-anchor="middle" x="934" y="-69" font-family="Helvetica,sans-Serif" font-size="10.00">Modules/TOF/test/testTOF.cxx</text>
</a>
</g>
</g>
<!-- Node47&#45;&gt;Node50 -->
<g id="edge65" class="edge"><title>Node47&#45;&gt;Node50</title>
<path fill="none" stroke="midnightblue" d="M1131.27,-121.069C1079.5,-108.323 1009.83,-91.1694 968.639,-81.0287"/>
<polygon fill="midnightblue" stroke="midnightblue" points="1130.49,-124.484 1141.04,-123.476 1132.17,-117.687 1130.49,-124.484"/>
</g>
</g>
</svg>
