<?xml version="1.0" encoding="UTF-8" standalone="no"?>
<!DOCTYPE svg PUBLIC "-//W3C//DTD SVG 1.1//EN"
 "http://www.w3.org/Graphics/SVG/1.1/DTD/svg11.dtd">
<!-- Generated by graphviz version 2.38.0 (20140413.2041)
 -->
<!-- Title: Framework/src/TaskRunner.cxx Pages: 1 -->
<svg width="2750pt" height="375pt"
 viewBox="0.00 0.00 2750.00 375.00" xmlns="http://www.w3.org/2000/svg" xmlns:xlink="http://www.w3.org/1999/xlink">
<g id="graph0" class="graph" transform="scale(1 1) rotate(0) translate(4 371)">
<title>Framework/src/TaskRunner.cxx</title>
<!-- Node1 -->
<g id="node1" class="node"><title>Node1</title>
<polygon fill="#bfbfbf" stroke="black" points="1632.5,-347.5 1632.5,-366.5 1789.5,-366.5 1789.5,-347.5 1632.5,-347.5"/>
<text text-anchor="middle" x="1711" y="-354.5" font-family="Helvetica,sans-Serif" font-size="10.00">Framework/src/TaskRunner.cxx</text>
</g>
<!-- Node2 -->
<g id="node2" class="node"><title>Node2</title>
<g id="a_node2"><a xlink:href="TaskRunner_8h.html" target="_top" xlink:title="QualityControl/TaskRunner.h">
<polygon fill="none" stroke="black" points="545.5,-286 545.5,-305 688.5,-305 688.5,-286 545.5,-286"/>
<text text-anchor="middle" x="617" y="-293" font-family="Helvetica,sans-Serif" font-size="10.00">QualityControl/TaskRunner.h</text>
</a>
</g>
</g>
<!-- Node1&#45;&gt;Node2 -->
<g id="edge1" class="edge"><title>Node1&#45;&gt;Node2</title>
<path fill="none" stroke="midnightblue" d="M1632.32,-351.721C1431.77,-340.814 902.919,-312.05 698.901,-300.954"/>
<polygon fill="midnightblue" stroke="midnightblue" points="699.025,-297.456 688.85,-300.408 698.645,-304.446 699.025,-297.456"/>
</g>
<!-- Node9 -->
<g id="node9" class="node"><title>Node9</title>
<polygon fill="none" stroke="#bfbfbf" points="995.5,-0.5 995.5,-19.5 1036.5,-19.5 1036.5,-0.5 995.5,-0.5"/>
<text text-anchor="middle" x="1016" y="-7.5" font-family="Helvetica,sans-Serif" font-size="10.00">string</text>
</g>
<!-- Node1&#45;&gt;Node9 -->
<g id="edge48" class="edge"><title>Node1&#45;&gt;Node9</title>
<path fill="none" stroke="midnightblue" d="M1632.47,-354.614C1296.86,-348.182 0,-317.963 0,-235 0,-235 0,-235 0,-121 0,-19.2801 815.346,-11.5314 985.22,-11.0209"/>
<polygon fill="midnightblue" stroke="midnightblue" points="985.253,-14.5209 995.245,-10.9971 985.236,-7.52091 985.253,-14.5209"/>
</g>
<!-- Node13 -->
<g id="node13" class="node"><title>Node13</title>
<polygon fill="none" stroke="#bfbfbf" points="1423,-112.5 1423,-131.5 1475,-131.5 1475,-112.5 1423,-112.5"/>
<text text-anchor="middle" x="1449" y="-119.5" font-family="Helvetica,sans-Serif" font-size="10.00">memory</text>
</g>
<!-- Node1&#45;&gt;Node13 -->
<g id="edge32" class="edge"><title>Node1&#45;&gt;Node13</title>
<path fill="none" stroke="midnightblue" d="M1666.92,-347.43C1644.4,-340.944 1618.19,-329.809 1601,-311 1556.14,-261.917 1601.7,-217.228 1557,-168 1538.32,-147.434 1508.78,-135.999 1485.31,-129.808"/>
<polygon fill="midnightblue" stroke="midnightblue" points="1485.89,-126.347 1475.34,-127.392 1484.24,-133.15 1485.89,-126.347"/>
</g>
<!-- Node21 -->
<g id="node21" class="node"><title>Node21</title>
<polygon fill="none" stroke="#bfbfbf" points="1445,-56.5 1445,-75.5 1561,-75.5 1561,-56.5 1445,-56.5"/>
<text text-anchor="middle" x="1503" y="-63.5" font-family="Helvetica,sans-Serif" font-size="10.00">Common/Exceptions.h</text>
</g>
<!-- Node1&#45;&gt;Node21 -->
<g id="edge33" class="edge"><title>Node1&#45;&gt;Node21</title>
<path fill="none" stroke="midnightblue" d="M1686.27,-347.49C1669.13,-340.343 1647.1,-328.466 1634,-311 1613.11,-283.145 1615,-269.817 1615,-235 1615,-235 1615,-235 1615,-177 1615,-130.614 1565.49,-97.2849 1532.31,-80.1547"/>
<polygon fill="midnightblue" stroke="midnightblue" points="1533.54,-76.8574 1523.02,-75.5583 1530.43,-83.131 1533.54,-76.8574"/>
</g>
<!-- Node23 -->
<g id="node23" class="node"><title>Node23</title>
<polygon fill="none" stroke="#bfbfbf" points="1643.5,-280.5 1643.5,-310.5 1778.5,-310.5 1778.5,-280.5 1643.5,-280.5"/>
<text text-anchor="start" x="1651.5" y="-298.5" font-family="Helvetica,sans-Serif" font-size="10.00">Configuration/Configuration</text>
<text text-anchor="middle" x="1711" y="-287.5" font-family="Helvetica,sans-Serif" font-size="10.00">Factory.h</text>
</g>
<!-- Node1&#45;&gt;Node23 -->
<g id="edge34" class="edge"><title>Node1&#45;&gt;Node23</title>
<path fill="none" stroke="midnightblue" d="M1711,-347.475C1711,-340.471 1711,-330.192 1711,-320.696"/>
<polygon fill="midnightblue" stroke="midnightblue" points="1714.5,-320.523 1711,-310.523 1707.5,-320.523 1714.5,-320.523"/>
</g>
<!-- Node24 -->
<g id="node24" class="node"><title>Node24</title>
<polygon fill="none" stroke="#bfbfbf" points="1796.5,-286 1796.5,-305 1947.5,-305 1947.5,-286 1796.5,-286"/>
<text text-anchor="middle" x="1872" y="-293" font-family="Helvetica,sans-Serif" font-size="10.00">Monitoring/MonitoringFactory.h</text>
</g>
<!-- Node1&#45;&gt;Node24 -->
<g id="edge35" class="edge"><title>Node1&#45;&gt;Node24</title>
<path fill="none" stroke="midnightblue" d="M1734.07,-347.475C1761.68,-337.269 1808.12,-320.108 1839.4,-308.549"/>
<polygon fill="midnightblue" stroke="midnightblue" points="1840.81,-311.759 1848.98,-305.009 1838.38,-305.193 1840.81,-311.759"/>
</g>
<!-- Node25 -->
<g id="node25" class="node"><title>Node25</title>
<polygon fill="none" stroke="#bfbfbf" points="1966,-286 1966,-305 2104,-305 2104,-286 1966,-286"/>
<text text-anchor="middle" x="2035" y="-293" font-family="Helvetica,sans-Serif" font-size="10.00">Framework/DataSampling.h</text>
</g>
<!-- Node1&#45;&gt;Node25 -->
<g id="edge36" class="edge"><title>Node1&#45;&gt;Node25</title>
<path fill="none" stroke="midnightblue" d="M1757.42,-347.475C1815.77,-336.761 1915.84,-318.382 1978.55,-306.866"/>
<polygon fill="midnightblue" stroke="midnightblue" points="1979.46,-310.258 1988.66,-305.009 1978.2,-303.373 1979.46,-310.258"/>
</g>
<!-- Node26 -->
<g id="node26" class="node"><title>Node26</title>
<polygon fill="none" stroke="#bfbfbf" points="2122,-286 2122,-305 2270,-305 2270,-286 2122,-286"/>
<text text-anchor="middle" x="2196" y="-293" font-family="Helvetica,sans-Serif" font-size="10.00">Framework/CallbackService.h</text>
</g>
<!-- Node1&#45;&gt;Node26 -->
<g id="edge37" class="edge"><title>Node1&#45;&gt;Node26</title>
<path fill="none" stroke="midnightblue" d="M1789.75,-348.629C1870.93,-340.693 2001.08,-327.026 2113,-311 2121.73,-309.75 2130.96,-308.284 2139.96,-306.773"/>
<polygon fill="midnightblue" stroke="midnightblue" points="2140.72,-310.194 2149.98,-305.058 2139.54,-303.294 2140.72,-310.194"/>
</g>
<!-- Node27 -->
<g id="node27" class="node"><title>Node27</title>
<polygon fill="none" stroke="#bfbfbf" points="2288.5,-286 2288.5,-305 2431.5,-305 2431.5,-286 2288.5,-286"/>
<text text-anchor="middle" x="2360" y="-293" font-family="Helvetica,sans-Serif" font-size="10.00">Framework/TimesliceIndex.h</text>
</g>
<!-- Node1&#45;&gt;Node27 -->
<g id="edge38" class="edge"><title>Node1&#45;&gt;Node27</title>
<path fill="none" stroke="midnightblue" d="M1789.81,-352.204C1899.72,-346.353 2105.1,-333.399 2279,-311 2288.05,-309.834 2297.63,-308.347 2306.91,-306.771"/>
<polygon fill="midnightblue" stroke="midnightblue" points="2307.58,-310.208 2316.82,-305.038 2306.37,-303.313 2307.58,-310.208"/>
</g>
<!-- Node28 -->
<g id="node28" class="node"><title>Node28</title>
<polygon fill="none" stroke="#bfbfbf" points="2450,-286 2450,-305 2590,-305 2590,-286 2450,-286"/>
<text text-anchor="middle" x="2520" y="-293" font-family="Helvetica,sans-Serif" font-size="10.00">Framework/DataSpecUtils.h</text>
</g>
<!-- Node1&#45;&gt;Node28 -->
<g id="edge39" class="edge"><title>Node1&#45;&gt;Node28</title>
<path fill="none" stroke="midnightblue" d="M1789.6,-354.244C1923.68,-350.559 2204.99,-339.828 2441,-311 2450.05,-309.895 2459.62,-308.409 2468.87,-306.809"/>
<polygon fill="midnightblue" stroke="midnightblue" points="2469.51,-310.25 2478.73,-305.04 2468.27,-303.36 2469.51,-310.25"/>
</g>
<!-- Node29 -->
<g id="node29" class="node"><title>Node29</title>
<polygon fill="none" stroke="#bfbfbf" points="2608,-280.5 2608,-310.5 2742,-310.5 2742,-280.5 2608,-280.5"/>
<text text-anchor="start" x="2616" y="-298.5" font-family="Helvetica,sans-Serif" font-size="10.00">Framework/DataDescriptor</text>
<text text-anchor="middle" x="2675" y="-287.5" font-family="Helvetica,sans-Serif" font-size="10.00">QueryBuilder.h</text>
</g>
<!-- Node1&#45;&gt;Node29 -->
<g id="edge40" class="edge"><title>Node1&#45;&gt;Node29</title>
<path fill="none" stroke="midnightblue" d="M1789.71,-355.646C1943.28,-354.163 2293.69,-346.89 2597.6,-311.046"/>
<polygon fill="midnightblue" stroke="midnightblue" points="2598.43,-314.473 2607.94,-309.814 2597.6,-307.522 2598.43,-314.473"/>
</g>
<!-- Node30 -->
<g id="node30" class="node"><title>Node30</title>
<g id="a_node30"><a xlink:href="QcInfoLogger_8h.html" target="_top" xlink:title="QualityControl/QcInfoLogger.h">
<polygon fill="none" stroke="black" points="1237.5,-286 1237.5,-305 1386.5,-305 1386.5,-286 1237.5,-286"/>
<text text-anchor="middle" x="1312" y="-293" font-family="Helvetica,sans-Serif" font-size="10.00">QualityControl/QcInfoLogger.h</text>
</a>
</g>
</g>
<!-- Node1&#45;&gt;Node30 -->
<g id="edge41" class="edge"><title>Node1&#45;&gt;Node30</title>
<path fill="none" stroke="midnightblue" d="M1653.83,-347.475C1581.24,-336.65 1456.19,-318.002 1379.14,-306.512"/>
<polygon fill="midnightblue" stroke="midnightblue" points="1379.47,-303.022 1369.06,-305.009 1378.44,-309.946 1379.47,-303.022"/>
</g>
<!-- Node32 -->
<g id="node32" class="node"><title>Node32</title>
<g id="a_node32"><a xlink:href="TaskFactory_8h.html" target="_top" xlink:title="QualityControl/TaskFactory.h">
<polygon fill="none" stroke="black" points="1403.5,-168.5 1403.5,-187.5 1548.5,-187.5 1548.5,-168.5 1403.5,-168.5"/>
<text text-anchor="middle" x="1476" y="-175.5" font-family="Helvetica,sans-Serif" font-size="10.00">QualityControl/TaskFactory.h</text>
</a>
</g>
</g>
<!-- Node1&#45;&gt;Node32 -->
<g id="edge44" class="edge"><title>Node1&#45;&gt;Node32</title>
<path fill="none" stroke="midnightblue" d="M1650.84,-347.484C1622.1,-341.102 1588.5,-330.046 1563,-311 1522.45,-280.703 1495.17,-225.546 1483.09,-197.075"/>
<polygon fill="midnightblue" stroke="midnightblue" points="1486.23,-195.51 1479.21,-187.578 1479.75,-198.159 1486.23,-195.51"/>
</g>
<!-- Node3 -->
<g id="node3" class="node"><title>Node3</title>
<polygon fill="none" stroke="#bfbfbf" points="633,-224.5 633,-243.5 725,-243.5 725,-224.5 633,-224.5"/>
<text text-anchor="middle" x="679" y="-231.5" font-family="Helvetica,sans-Serif" font-size="10.00">Common/Timer.h</text>
</g>
<!-- Node2&#45;&gt;Node3 -->
<g id="edge2" class="edge"><title>Node2&#45;&gt;Node3</title>
<path fill="none" stroke="midnightblue" d="M625.883,-285.975C635.459,-276.785 650.911,-261.956 662.686,-250.656"/>
<polygon fill="midnightblue" stroke="midnightblue" points="665.342,-252.958 670.133,-243.509 660.495,-247.908 665.342,-252.958"/>
</g>
<!-- Node4 -->
<g id="node4" class="node"><title>Node4</title>
<polygon fill="none" stroke="#bfbfbf" points="28,-224.5 28,-243.5 126,-243.5 126,-224.5 28,-224.5"/>
<text text-anchor="middle" x="77" y="-231.5" font-family="Helvetica,sans-Serif" font-size="10.00">Framework/Task.h</text>
</g>
<!-- Node2&#45;&gt;Node4 -->
<g id="edge3" class="edge"><title>Node2&#45;&gt;Node4</title>
<path fill="none" stroke="midnightblue" d="M545.414,-288.117C453.194,-279.644 287.693,-263.593 135.995,-244.073"/>
<polygon fill="midnightblue" stroke="midnightblue" points="136.39,-240.595 126.023,-242.782 135.491,-247.537 136.39,-240.595"/>
</g>
<!-- Node5 -->
<g id="node5" class="node"><title>Node5</title>
<polygon fill="none" stroke="#bfbfbf" points="144,-224.5 144,-243.5 308,-243.5 308,-224.5 144,-224.5"/>
<text text-anchor="middle" x="226" y="-231.5" font-family="Helvetica,sans-Serif" font-size="10.00">Framework/DataProcessorSpec.h</text>
</g>
<!-- Node2&#45;&gt;Node5 -->
<g id="edge4" class="edge"><title>Node2&#45;&gt;Node5</title>
<path fill="none" stroke="midnightblue" d="M560.979,-285.975C489.989,-275.172 367.801,-256.578 292.257,-245.083"/>
<polygon fill="midnightblue" stroke="midnightblue" points="292.33,-241.553 281.917,-243.509 291.276,-248.474 292.33,-241.553"/>
</g>
<!-- Node6 -->
<g id="node6" class="node"><title>Node6</title>
<polygon fill="none" stroke="#bfbfbf" points="326.5,-224.5 326.5,-243.5 479.5,-243.5 479.5,-224.5 326.5,-224.5"/>
<text text-anchor="middle" x="403" y="-231.5" font-family="Helvetica,sans-Serif" font-size="10.00">Framework/CompletionPolicy.h</text>
</g>
<!-- Node2&#45;&gt;Node6 -->
<g id="edge5" class="edge"><title>Node2&#45;&gt;Node6</title>
<path fill="none" stroke="midnightblue" d="M586.339,-285.975C548.756,-275.526 484.956,-257.787 443.402,-246.233"/>
<polygon fill="midnightblue" stroke="midnightblue" points="444.176,-242.816 433.604,-243.509 442.301,-249.56 444.176,-242.816"/>
</g>
<!-- Node7 -->
<g id="node7" class="node"><title>Node7</title>
<polygon fill="none" stroke="#bfbfbf" points="497.5,-224.5 497.5,-243.5 614.5,-243.5 614.5,-224.5 497.5,-224.5"/>
<text text-anchor="middle" x="556" y="-231.5" font-family="Helvetica,sans-Serif" font-size="10.00">Headers/DataHeader.h</text>
</g>
<!-- Node2&#45;&gt;Node7 -->
<g id="edge6" class="edge"><title>Node2&#45;&gt;Node7</title>
<path fill="none" stroke="midnightblue" d="M608.26,-285.975C598.838,-276.785 583.636,-261.956 572.051,-250.656"/>
<polygon fill="midnightblue" stroke="midnightblue" points="574.326,-247.986 564.724,-243.509 569.438,-252.997 574.326,-247.986"/>
</g>
<!-- Node8 -->
<g id="node8" class="node"><title>Node8</title>
<g id="a_node8"><a xlink:href="TaskConfig_8h.html" target="_top" xlink:title="QualityControl/TaskConfig.h">
<polygon fill="none" stroke="black" points="1019,-112.5 1019,-131.5 1159,-131.5 1159,-112.5 1019,-112.5"/>
<text text-anchor="middle" x="1089" y="-119.5" font-family="Helvetica,sans-Serif" font-size="10.00">QualityControl/TaskConfig.h</text>
</a>
</g>
</g>
<!-- Node2&#45;&gt;Node8 -->
<g id="edge7" class="edge"><title>Node2&#45;&gt;Node8</title>
<path fill="none" stroke="midnightblue" d="M667.722,-285.928C692.127,-278.976 719.231,-266.46 734,-244 768.345,-191.768 676.276,-245.703 636,-188 630.912,-180.711 630.033,-174.589 636,-168 660.478,-140.97 885.112,-129.525 1008.58,-125.242"/>
<polygon fill="midnightblue" stroke="midnightblue" points="1008.87,-128.735 1018.74,-124.898 1008.63,-121.739 1008.87,-128.735"/>
</g>
<!-- Node11 -->
<g id="node11" class="node"><title>Node11</title>
<g id="a_node11"><a xlink:href="TaskInterface_8h.html" target="_top" xlink:title="QualityControl/TaskInterface.h">
<polygon fill="none" stroke="black" points="999,-224.5 999,-243.5 1149,-243.5 1149,-224.5 999,-224.5"/>
<text text-anchor="middle" x="1074" y="-231.5" font-family="Helvetica,sans-Serif" font-size="10.00">QualityControl/TaskInterface.h</text>
</a>
</g>
</g>
<!-- Node2&#45;&gt;Node11 -->
<g id="edge10" class="edge"><title>Node2&#45;&gt;Node11</title>
<path fill="none" stroke="midnightblue" d="M682.477,-285.975C766.129,-275.084 910.604,-256.274 998.715,-244.802"/>
<polygon fill="midnightblue" stroke="midnightblue" points="999.18,-248.271 1008.64,-243.509 998.276,-241.33 999.18,-248.271"/>
</g>
<!-- Node8&#45;&gt;Node9 -->
<g id="edge8" class="edge"><title>Node8&#45;&gt;Node9</title>
<path fill="none" stroke="midnightblue" d="M1083.27,-112.368C1071.22,-94.2153 1043.08,-51.8015 1027.28,-27.9902"/>
<polygon fill="midnightblue" stroke="midnightblue" points="1030.15,-25.9882 1021.7,-19.5914 1024.31,-29.8589 1030.15,-25.9882"/>
</g>
<!-- Node10 -->
<g id="node10" class="node"><title>Node10</title>
<polygon fill="none" stroke="#bfbfbf" points="879.5,-56.5 879.5,-75.5 962.5,-75.5 962.5,-56.5 879.5,-56.5"/>
<text text-anchor="middle" x="921" y="-63.5" font-family="Helvetica,sans-Serif" font-size="10.00">unordered_map</text>
</g>
<!-- Node8&#45;&gt;Node10 -->
<g id="edge9" class="edge"><title>Node8&#45;&gt;Node10</title>
<path fill="none" stroke="midnightblue" d="M1062.38,-112.444C1033.99,-103.32 988.863,-88.8133 957.247,-78.6509"/>
<polygon fill="midnightblue" stroke="midnightblue" points="958.087,-75.2445 947.496,-75.5164 955.945,-81.9087 958.087,-75.2445"/>
</g>
<!-- Node11&#45;&gt;Node9 -->
<g id="edge13" class="edge"><title>Node11&#45;&gt;Node9</title>
<path fill="none" stroke="midnightblue" d="M998.527,-230.647C879.649,-226.154 659.783,-214.352 636,-188 530.048,-70.605 877.718,-24.9794 985.29,-13.8649"/>
<polygon fill="midnightblue" stroke="midnightblue" points="985.896,-17.3218 995.496,-12.8404 985.196,-10.3569 985.896,-17.3218"/>
</g>
<!-- Node11&#45;&gt;Node10 -->
<g id="edge14" class="edge"><title>Node11&#45;&gt;Node10</title>
<path fill="none" stroke="midnightblue" d="M1082.36,-224.264C1093.98,-211.042 1112.18,-185.625 1099,-168 1065.15,-122.72 1024.5,-162.664 977,-132 957.907,-119.673 941.68,-98.9503 931.686,-84.2186"/>
<polygon fill="midnightblue" stroke="midnightblue" points="934.436,-82.0272 926.05,-75.5513 928.567,-85.8429 934.436,-82.0272"/>
</g>
<!-- Node12 -->
<g id="node12" class="node"><title>Node12</title>
<polygon fill="none" stroke="#bfbfbf" points="1377.5,-56.5 1377.5,-75.5 1412.5,-75.5 1412.5,-56.5 1377.5,-56.5"/>
<text text-anchor="middle" x="1395" y="-63.5" font-family="Helvetica,sans-Serif" font-size="10.00">map</text>
</g>
<!-- Node11&#45;&gt;Node12 -->
<g id="edge11" class="edge"><title>Node11&#45;&gt;Node12</title>
<path fill="none" stroke="midnightblue" d="M1149.1,-230.287C1199.06,-225.863 1264.84,-214.858 1317,-188 1348.86,-171.597 1356.25,-162.534 1375,-132 1383.79,-117.694 1388.98,-99.228 1391.86,-85.636"/>
<polygon fill="midnightblue" stroke="midnightblue" points="1395.35,-86.0401 1393.77,-75.5636 1388.47,-84.7382 1395.35,-86.0401"/>
</g>
<!-- Node11&#45;&gt;Node13 -->
<g id="edge12" class="edge"><title>Node11&#45;&gt;Node13</title>
<path fill="none" stroke="midnightblue" d="M1149.16,-229.39C1206.2,-224.629 1285.68,-213.589 1351,-188 1381.69,-175.979 1412.64,-153.271 1431.32,-138.135"/>
<polygon fill="midnightblue" stroke="midnightblue" points="1433.76,-140.662 1439.23,-131.586 1429.29,-135.272 1433.76,-140.662"/>
</g>
<!-- Node14 -->
<g id="node14" class="node"><title>Node14</title>
<polygon fill="none" stroke="#bfbfbf" points="645.5,-168.5 645.5,-187.5 770.5,-187.5 770.5,-168.5 645.5,-168.5"/>
<text text-anchor="middle" x="708" y="-175.5" font-family="Helvetica,sans-Serif" font-size="10.00">Framework/InitContext.h</text>
</g>
<!-- Node11&#45;&gt;Node14 -->
<g id="edge15" class="edge"><title>Node11&#45;&gt;Node14</title>
<path fill="none" stroke="midnightblue" d="M1016.01,-224.444C950.686,-214.806 844.663,-199.163 775.63,-188.978"/>
<polygon fill="midnightblue" stroke="midnightblue" points="776.126,-185.514 765.722,-187.516 775.104,-192.439 776.126,-185.514"/>
</g>
<!-- Node15 -->
<g id="node15" class="node"><title>Node15</title>
<polygon fill="none" stroke="#bfbfbf" points="789,-168.5 789,-187.5 949,-187.5 949,-168.5 789,-168.5"/>
<text text-anchor="middle" x="869" y="-175.5" font-family="Helvetica,sans-Serif" font-size="10.00">Framework/ProcessingContext.h</text>
</g>
<!-- Node11&#45;&gt;Node15 -->
<g id="edge16" class="edge"><title>Node11&#45;&gt;Node15</title>
<path fill="none" stroke="midnightblue" d="M1041.52,-224.444C1006.28,-215.162 949.896,-200.309 911.241,-190.127"/>
<polygon fill="midnightblue" stroke="midnightblue" points="911.893,-186.679 901.331,-187.516 910.109,-193.448 911.893,-186.679"/>
</g>
<!-- Node16 -->
<g id="node16" class="node"><title>Node16</title>
<g id="a_node16"><a xlink:href="Activity_8h.html" target="_top" xlink:title="QualityControl/Activity.h">
<polygon fill="none" stroke="black" points="967.5,-168.5 967.5,-187.5 1090.5,-187.5 1090.5,-168.5 967.5,-168.5"/>
<text text-anchor="middle" x="1029" y="-175.5" font-family="Helvetica,sans-Serif" font-size="10.00">QualityControl/Activity.h</text>
</a>
</g>
</g>
<!-- Node11&#45;&gt;Node16 -->
<g id="edge17" class="edge"><title>Node11&#45;&gt;Node16</title>
<path fill="none" stroke="midnightblue" d="M1066.57,-224.083C1060.15,-216.377 1050.69,-205.033 1042.88,-195.653"/>
<polygon fill="midnightblue" stroke="midnightblue" points="1045.38,-193.193 1036.29,-187.751 1040.01,-197.674 1045.38,-193.193"/>
</g>
<!-- Node17 -->
<g id="node17" class="node"><title>Node17</title>
<g id="a_node17"><a xlink:href="ObjectsManager_8h.html" target="_top" xlink:title="QualityControl/ObjectsManager.h">
<polygon fill="none" stroke="black" points="1147.5,-168.5 1147.5,-187.5 1308.5,-187.5 1308.5,-168.5 1147.5,-168.5"/>
<text text-anchor="middle" x="1228" y="-175.5" font-family="Helvetica,sans-Serif" font-size="10.00">QualityControl/ObjectsManager.h</text>
</a>
</g>
</g>
<!-- Node11&#45;&gt;Node17 -->
<g id="edge18" class="edge"><title>Node11&#45;&gt;Node17</title>
<path fill="none" stroke="midnightblue" d="M1098.4,-224.444C1124.2,-215.399 1165.08,-201.064 1194.02,-190.916"/>
<polygon fill="midnightblue" stroke="midnightblue" points="1195.43,-194.128 1203.71,-187.516 1193.12,-187.523 1195.43,-194.128"/>
</g>
<!-- Node17&#45;&gt;Node8 -->
<g id="edge29" class="edge"><title>Node17&#45;&gt;Node8</title>
<path fill="none" stroke="midnightblue" d="M1205.98,-168.444C1182.9,-159.478 1146.44,-145.314 1120.36,-135.183"/>
<polygon fill="midnightblue" stroke="midnightblue" points="1121.51,-131.875 1110.92,-131.516 1118.98,-138.4 1121.51,-131.875"/>
</g>
<!-- Node17&#45;&gt;Node9 -->
<g id="edge30" class="edge"><title>Node17&#45;&gt;Node9</title>
<path fill="none" stroke="midnightblue" d="M1147.41,-170.864C1092.74,-164.832 1027.36,-153.31 1010,-132 986.065,-102.62 998.794,-54.6582 1008.43,-28.8246"/>
<polygon fill="midnightblue" stroke="midnightblue" points="1011.69,-30.0987 1012.14,-19.5132 1005.19,-27.511 1011.69,-30.0987"/>
</g>
<!-- Node17&#45;&gt;Node13 -->
<g id="edge31" class="edge"><title>Node17&#45;&gt;Node13</title>
<path fill="none" stroke="midnightblue" d="M1263.02,-168.444C1303.97,-158.437 1371.42,-141.955 1412.86,-131.832"/>
<polygon fill="midnightblue" stroke="midnightblue" points="1413.91,-135.176 1422.8,-129.403 1412.25,-128.376 1413.91,-135.176"/>
</g>
<!-- Node18 -->
<g id="node18" class="node"><title>Node18</title>
<g id="a_node18"><a xlink:href="MonitorObject_8h.html" target="_top" xlink:title="QualityControl/MonitorObject.h">
<polygon fill="none" stroke="black" points="1215.5,-112.5 1215.5,-131.5 1366.5,-131.5 1366.5,-112.5 1215.5,-112.5"/>
<text text-anchor="middle" x="1291" y="-119.5" font-family="Helvetica,sans-Serif" font-size="10.00">QualityControl/MonitorObject.h</text>
</a>
</g>
</g>
<!-- Node17&#45;&gt;Node18 -->
<g id="edge19" class="edge"><title>Node17&#45;&gt;Node18</title>
<path fill="none" stroke="midnightblue" d="M1238.12,-168.324C1247.53,-160.263 1261.74,-148.077 1273.07,-138.369"/>
<polygon fill="midnightblue" stroke="midnightblue" points="1275.38,-140.999 1280.69,-131.834 1270.82,-135.684 1275.38,-140.999"/>
</g>
<!-- Node22 -->
<g id="node22" class="node"><title>Node22</title>
<g id="a_node22"><a xlink:href="Quality_8h.html" target="_top" xlink:title="QualityControl/Quality.h">
<polygon fill="none" stroke="black" points="1083.5,-56.5 1083.5,-75.5 1204.5,-75.5 1204.5,-56.5 1083.5,-56.5"/>
<text text-anchor="middle" x="1144" y="-63.5" font-family="Helvetica,sans-Serif" font-size="10.00">QualityControl/Quality.h</text>
</a>
</g>
</g>
<!-- Node17&#45;&gt;Node22 -->
<g id="edge28" class="edge"><title>Node17&#45;&gt;Node22</title>
<path fill="none" stroke="midnightblue" d="M1221.41,-168.368C1207.48,-150.135 1174.87,-107.426 1156.73,-83.6752"/>
<polygon fill="midnightblue" stroke="midnightblue" points="1159.41,-81.4149 1150.56,-75.5914 1153.85,-85.6633 1159.41,-81.4149"/>
</g>
<!-- Node18&#45;&gt;Node9 -->
<g id="edge20" class="edge"><title>Node18&#45;&gt;Node9</title>
<path fill="none" stroke="midnightblue" d="M1283.28,-112.341C1270.24,-98.2676 1242.38,-70.5455 1213,-56 1158.28,-28.9121 1086.91,-17.8568 1046.82,-13.5545"/>
<polygon fill="midnightblue" stroke="midnightblue" points="1046.92,-10.0469 1036.62,-12.5342 1046.22,-17.0121 1046.92,-10.0469"/>
</g>
<!-- Node18&#45;&gt;Node12 -->
<g id="edge21" class="edge"><title>Node18&#45;&gt;Node12</title>
<path fill="none" stroke="midnightblue" d="M1307.71,-112.324C1324.31,-103.703 1350,-90.3643 1369.22,-80.3855"/>
<polygon fill="midnightblue" stroke="midnightblue" points="1371.07,-83.3689 1378.33,-75.6545 1367.84,-77.1565 1371.07,-83.3689"/>
</g>
<!-- Node19 -->
<g id="node19" class="node"><title>Node19</title>
<polygon fill="none" stroke="#bfbfbf" points="1218,-0.5 1218,-19.5 1274,-19.5 1274,-0.5 1218,-0.5"/>
<text text-anchor="middle" x="1246" y="-7.5" font-family="Helvetica,sans-Serif" font-size="10.00">Rtypes.h</text>
</g>
<!-- Node18&#45;&gt;Node19 -->
<g id="edge22" class="edge"><title>Node18&#45;&gt;Node19</title>
<path fill="none" stroke="midnightblue" d="M1302.49,-112.353C1317.62,-99.8734 1340.97,-76.105 1329,-56 1319.12,-39.3993 1300.74,-28.5458 1283.79,-21.6664"/>
<polygon fill="midnightblue" stroke="midnightblue" points="1284.64,-18.249 1274.04,-18.0617 1282.21,-24.8141 1284.64,-18.249"/>
</g>
<!-- Node20 -->
<g id="node20" class="node"><title>Node20</title>
<polygon fill="none" stroke="#bfbfbf" points="1261.5,-56.5 1261.5,-75.5 1320.5,-75.5 1320.5,-56.5 1261.5,-56.5"/>
<text text-anchor="middle" x="1291" y="-63.5" font-family="Helvetica,sans-Serif" font-size="10.00">TObject.h</text>
</g>
<!-- Node18&#45;&gt;Node20 -->
<g id="edge23" class="edge"><title>Node18&#45;&gt;Node20</title>
<path fill="none" stroke="midnightblue" d="M1291,-112.083C1291,-105.006 1291,-94.8611 1291,-85.9865"/>
<polygon fill="midnightblue" stroke="midnightblue" points="1294.5,-85.751 1291,-75.7511 1287.5,-85.7511 1294.5,-85.751"/>
</g>
<!-- Node18&#45;&gt;Node21 -->
<g id="edge24" class="edge"><title>Node18&#45;&gt;Node21</title>
<path fill="none" stroke="midnightblue" d="M1324.59,-112.444C1361.19,-103.122 1419.84,-88.1828 1459.83,-77.9972"/>
<polygon fill="midnightblue" stroke="midnightblue" points="1460.74,-81.3766 1469.57,-75.5164 1459.01,-74.5932 1460.74,-81.3766"/>
</g>
<!-- Node18&#45;&gt;Node22 -->
<g id="edge25" class="edge"><title>Node18&#45;&gt;Node22</title>
<path fill="none" stroke="midnightblue" d="M1267.71,-112.444C1243.19,-103.438 1204.4,-89.1891 1176.8,-79.049"/>
<polygon fill="midnightblue" stroke="midnightblue" points="1177.78,-75.6793 1167.18,-75.5164 1175.36,-82.25 1177.78,-75.6793"/>
</g>
<!-- Node22&#45;&gt;Node9 -->
<g id="edge27" class="edge"><title>Node22&#45;&gt;Node9</title>
<path fill="none" stroke="midnightblue" d="M1123.72,-56.4435C1102.65,-47.5566 1069.48,-33.5632 1045.51,-23.4514"/>
<polygon fill="midnightblue" stroke="midnightblue" points="1046.76,-20.1787 1036.19,-19.5164 1044.04,-26.6283 1046.76,-20.1787"/>
</g>
<!-- Node22&#45;&gt;Node19 -->
<g id="edge26" class="edge"><title>Node22&#45;&gt;Node19</title>
<path fill="none" stroke="midnightblue" d="M1160.39,-56.324C1176.67,-47.7034 1201.87,-34.3643 1220.72,-24.3855"/>
<polygon fill="midnightblue" stroke="midnightblue" points="1222.45,-27.4267 1229.65,-19.6545 1219.18,-21.2402 1222.45,-27.4267"/>
</g>
<!-- Node30&#45;&gt;Node11 -->
<g id="edge43" class="edge"><title>Node30&#45;&gt;Node11</title>
<path fill="none" stroke="midnightblue" d="M1277.9,-285.975C1235.75,-275.437 1163.95,-257.486 1117.77,-245.941"/>
<polygon fill="midnightblue" stroke="midnightblue" points="1118.59,-242.539 1108.04,-243.509 1116.89,-249.33 1118.59,-242.539"/>
</g>
<!-- Node31 -->
<g id="node31" class="node"><title>Node31</title>
<polygon fill="none" stroke="#bfbfbf" points="1247,-224.5 1247,-243.5 1377,-243.5 1377,-224.5 1247,-224.5"/>
<text text-anchor="middle" x="1312" y="-231.5" font-family="Helvetica,sans-Serif" font-size="10.00">InfoLogger/InfoLogger.hxx</text>
</g>
<!-- Node30&#45;&gt;Node31 -->
<g id="edge42" class="edge"><title>Node30&#45;&gt;Node31</title>
<path fill="none" stroke="midnightblue" d="M1312,-285.975C1312,-277.58 1312,-264.481 1312,-253.663"/>
<polygon fill="midnightblue" stroke="midnightblue" points="1315.5,-253.509 1312,-243.509 1308.5,-253.509 1315.5,-253.509"/>
</g>
<!-- Node32&#45;&gt;Node8 -->
<g id="edge47" class="edge"><title>Node32&#45;&gt;Node8</title>
<path fill="none" stroke="midnightblue" d="M1414.68,-168.444C1345.47,-158.786 1233.05,-143.099 1160.06,-132.916"/>
<polygon fill="midnightblue" stroke="midnightblue" points="1160.42,-129.432 1150.03,-131.516 1159.45,-136.365 1160.42,-129.432"/>
</g>
<!-- Node32&#45;&gt;Node13 -->
<g id="edge45" class="edge"><title>Node32&#45;&gt;Node13</title>
<path fill="none" stroke="midnightblue" d="M1471.54,-168.083C1467.85,-160.691 1462.48,-149.953 1457.91,-140.811"/>
<polygon fill="midnightblue" stroke="midnightblue" points="1460.98,-139.13 1453.38,-131.751 1454.72,-142.261 1460.98,-139.13"/>
</g>
<!-- Node32&#45;&gt;Node21 -->
<g id="edge46" class="edge"><title>Node32&#45;&gt;Node21</title>
<path fill="none" stroke="midnightblue" d="M1478.12,-168.368C1482.48,-150.617 1492.53,-109.666 1498.44,-85.5974"/>
<polygon fill="midnightblue" stroke="midnightblue" points="1501.91,-86.1375 1500.89,-75.5914 1495.11,-84.4688 1501.91,-86.1375"/>
</g>
</g>
</svg>
