<?xml version="1.0" encoding="UTF-8" standalone="no"?>
<!DOCTYPE svg PUBLIC "-//W3C//DTD SVG 1.1//EN"
 "http://www.w3.org/Graphics/SVG/1.1/DTD/svg11.dtd">
<!-- Generated by graphviz version 2.38.0 (20140413.2041)
 -->
<!-- Title: Framework/include/QualityControl/TaskInterface.h Pages: 1 -->
<svg width="3686pt" height="229pt"
 viewBox="0.00 0.00 3685.62 229.00" xmlns="http://www.w3.org/2000/svg" xmlns:xlink="http://www.w3.org/1999/xlink">
<g id="graph0" class="graph" transform="scale(1 1) rotate(0) translate(4 225)">
<title>Framework/include/QualityControl/TaskInterface.h</title>
<!-- Node1 -->
<g id="node1" class="node"><title>Node1</title>
<polygon fill="#bfbfbf" stroke="black" points="2620.62,-190.5 2620.62,-220.5 2753.62,-220.5 2753.62,-190.5 2620.62,-190.5"/>
<text text-anchor="start" x="2628.62" y="-208.5" font-family="Helvetica,sans-Serif" font-size="10.00">Framework/include/Quality</text>
<text text-anchor="middle" x="2687.12" y="-197.5" font-family="Helvetica,sans-Serif" font-size="10.00">Control/TaskInterface.h</text>
</g>
<!-- Node2 -->
<g id="node2" class="node"><title>Node2</title>
<g id="a_node2"><a xlink:href="QcInfoLogger_8h.html" target="_top" xlink:title="Framework/include/Quality\lControl/QcInfoLogger.h">
<polygon fill="none" stroke="black" points="1832.62,-123.5 1832.62,-153.5 1965.62,-153.5 1965.62,-123.5 1832.62,-123.5"/>
<text text-anchor="start" x="1840.62" y="-141.5" font-family="Helvetica,sans-Serif" font-size="10.00">Framework/include/Quality</text>
<text text-anchor="middle" x="1899.12" y="-130.5" font-family="Helvetica,sans-Serif" font-size="10.00">Control/QcInfoLogger.h</text>
</a>
</g>
</g>
<!-- Node1&#45;&gt;Node2 -->
<g id="edge1" class="edge"><title>Node1&#45;&gt;Node2</title>
<path fill="none" stroke="midnightblue" d="M2610.29,-198.362C2493.12,-188.974 2262.73,-170.408 2067.12,-154 2033.72,-151.198 1996.58,-148.002 1965.74,-145.325"/>
<polygon fill="midnightblue" stroke="midnightblue" points="2610.34,-201.877 2620.59,-199.187 2610.9,-194.9 2610.34,-201.877"/>
</g>
<!-- Node25 -->
<g id="node25" class="node"><title>Node25</title>
<g id="a_node25"><a xlink:href="TaskRunner_8h.html" target="_top" xlink:title="Framework/include/Quality\lControl/TaskRunner.h">
<polygon fill="none" stroke="black" points="267.618,-123.5 267.618,-153.5 400.618,-153.5 400.618,-123.5 267.618,-123.5"/>
<text text-anchor="start" x="275.618" y="-141.5" font-family="Helvetica,sans-Serif" font-size="10.00">Framework/include/Quality</text>
<text text-anchor="middle" x="334.118" y="-130.5" font-family="Helvetica,sans-Serif" font-size="10.00">Control/TaskRunner.h</text>
</a>
</g>
</g>
<!-- Node1&#45;&gt;Node25 -->
<g id="edge24" class="edge"><title>Node1&#45;&gt;Node25</title>
<path fill="none" stroke="midnightblue" d="M2610.45,-202.382C2251.17,-192.457 737.543,-150.644 400.727,-141.34"/>
<polygon fill="midnightblue" stroke="midnightblue" points="2610.39,-205.882 2620.49,-202.659 2610.59,-198.884 2610.39,-205.882"/>
</g>
<!-- Node29 -->
<g id="node29" class="node"><title>Node29</title>
<g id="a_node29"><a xlink:href="TaskInterface_8cxx.html" target="_top" xlink:title="Framework/src/TaskInterface.cxx">
<polygon fill="none" stroke="black" points="3145.12,-129 3145.12,-148 3309.12,-148 3309.12,-129 3145.12,-129"/>
<text text-anchor="middle" x="3227.12" y="-136" font-family="Helvetica,sans-Serif" font-size="10.00">Framework/src/TaskInterface.cxx</text>
</a>
</g>
</g>
<!-- Node1&#45;&gt;Node29 -->
<g id="edge30" class="edge"><title>Node1&#45;&gt;Node29</title>
<path fill="none" stroke="midnightblue" d="M2763.69,-196.906C2852.98,-187.81 3004.98,-171.582 3135.12,-154 3148.26,-152.225 3162.42,-150.099 3175.6,-148.03"/>
<polygon fill="midnightblue" stroke="midnightblue" points="2763.24,-193.433 2753.65,-197.926 2763.95,-200.398 2763.24,-193.433"/>
</g>
<!-- Node30 -->
<g id="node30" class="node"><title>Node30</title>
<g id="a_node30"><a xlink:href="testTaskInterface_8cxx.html" target="_top" xlink:title="Framework/test/testTaskInterface.cxx">
<polygon fill="none" stroke="black" points="3327.62,-129 3327.62,-148 3510.62,-148 3510.62,-129 3327.62,-129"/>
<text text-anchor="middle" x="3419.12" y="-136" font-family="Helvetica,sans-Serif" font-size="10.00">Framework/test/testTaskInterface.cxx</text>
</a>
</g>
</g>
<!-- Node1&#45;&gt;Node30 -->
<g id="edge31" class="edge"><title>Node1&#45;&gt;Node30</title>
<path fill="none" stroke="midnightblue" d="M2764.13,-199.899C2883.15,-192.436 3118.86,-176.254 3318.12,-154 3333.08,-152.329 3349.24,-150.169 3364.16,-148.029"/>
<polygon fill="midnightblue" stroke="midnightblue" points="2763.79,-196.414 2754.03,-200.529 2764.23,-203.4 2763.79,-196.414"/>
</g>
<!-- Node31 -->
<g id="node31" class="node"><title>Node31</title>
<g id="a_node31"><a xlink:href="DaqTask_8h.html" target="_top" xlink:title="Modules/Daq/include\l/Daq/DaqTask.h">
<polygon fill="none" stroke="black" points="2633.12,-123.5 2633.12,-153.5 2741.12,-153.5 2741.12,-123.5 2633.12,-123.5"/>
<text text-anchor="start" x="2641.12" y="-141.5" font-family="Helvetica,sans-Serif" font-size="10.00">Modules/Daq/include</text>
<text text-anchor="middle" x="2687.12" y="-130.5" font-family="Helvetica,sans-Serif" font-size="10.00">/Daq/DaqTask.h</text>
</a>
</g>
</g>
<!-- Node1&#45;&gt;Node31 -->
<g id="edge32" class="edge"><title>Node1&#45;&gt;Node31</title>
<path fill="none" stroke="midnightblue" d="M2687.12,-180.108C2687.12,-171.154 2687.12,-161.323 2687.12,-153.577"/>
<polygon fill="midnightblue" stroke="midnightblue" points="2683.62,-180.396 2687.12,-190.396 2690.62,-180.396 2683.62,-180.396"/>
</g>
<!-- Node33 -->
<g id="node33" class="node"><title>Node33</title>
<g id="a_node33"><a xlink:href="DigitsQcTask_8h.html" target="_top" xlink:title="Modules/EMCAL/include\l/EMCAL/DigitsQcTask.h">
<polygon fill="none" stroke="black" points="2076.62,-123.5 2076.62,-153.5 2201.62,-153.5 2201.62,-123.5 2076.62,-123.5"/>
<text text-anchor="start" x="2084.62" y="-141.5" font-family="Helvetica,sans-Serif" font-size="10.00">Modules/EMCAL/include</text>
<text text-anchor="middle" x="2139.12" y="-130.5" font-family="Helvetica,sans-Serif" font-size="10.00">/EMCAL/DigitsQcTask.h</text>
</a>
</g>
</g>
<!-- Node1&#45;&gt;Node33 -->
<g id="edge35" class="edge"><title>Node1&#45;&gt;Node33</title>
<path fill="none" stroke="midnightblue" d="M2610.51,-195.413C2501.31,-182.461 2302.97,-158.935 2201.92,-146.95"/>
<polygon fill="midnightblue" stroke="midnightblue" points="2610.13,-198.892 2620.47,-196.595 2610.95,-191.941 2610.13,-198.892"/>
</g>
<!-- Node34 -->
<g id="node34" class="node"><title>Node34</title>
<g id="a_node34"><a xlink:href="BenchmarkTask_8h.html" target="_top" xlink:title="Modules/Example/include\l/Example/BenchmarkTask.h">
<polygon fill="none" stroke="black" points="2314.12,-123.5 2314.12,-153.5 2454.12,-153.5 2454.12,-123.5 2314.12,-123.5"/>
<text text-anchor="start" x="2322.12" y="-141.5" font-family="Helvetica,sans-Serif" font-size="10.00">Modules/Example/include</text>
<text text-anchor="middle" x="2384.12" y="-130.5" font-family="Helvetica,sans-Serif" font-size="10.00">/Example/BenchmarkTask.h</text>
</a>
</g>
</g>
<!-- Node1&#45;&gt;Node34 -->
<g id="edge37" class="edge"><title>Node1&#45;&gt;Node34</title>
<path fill="none" stroke="midnightblue" d="M2611.67,-188.316C2561.88,-177.633 2497.28,-163.775 2449.63,-153.555"/>
<polygon fill="midnightblue" stroke="midnightblue" points="2611.23,-191.801 2621.74,-190.476 2612.7,-184.956 2611.23,-191.801"/>
</g>
<!-- Node35 -->
<g id="node35" class="node"><title>Node35</title>
<g id="a_node35"><a xlink:href="ExampleCondition_8h.html" target="_top" xlink:title="Modules/Example/include\l/Example/ExampleCondition.h">
<polygon fill="none" stroke="black" points="3528.62,-123.5 3528.62,-153.5 3677.62,-153.5 3677.62,-123.5 3528.62,-123.5"/>
<text text-anchor="start" x="3536.62" y="-141.5" font-family="Helvetica,sans-Serif" font-size="10.00">Modules/Example/include</text>
<text text-anchor="middle" x="3603.12" y="-130.5" font-family="Helvetica,sans-Serif" font-size="10.00">/Example/ExampleCondition.h</text>
</a>
</g>
</g>
<!-- Node1&#45;&gt;Node35 -->
<g id="edge39" class="edge"><title>Node1&#45;&gt;Node35</title>
<path fill="none" stroke="midnightblue" d="M2763.93,-202.668C2910.97,-198.535 3242.23,-186.201 3519.12,-154 3522.2,-153.641 3525.35,-153.243 3528.52,-152.816"/>
<polygon fill="midnightblue" stroke="midnightblue" points="2763.56,-199.177 2753.66,-202.952 2763.76,-206.174 2763.56,-199.177"/>
</g>
<!-- Node37 -->
<g id="node37" class="node"><title>Node37</title>
<g id="a_node37"><a xlink:href="ExampleTask_8h.html" target="_top" xlink:title="Modules/Example/include\l/Example/ExampleTask.h">
<polygon fill="none" stroke="black" points="2850.62,-123.5 2850.62,-153.5 2979.62,-153.5 2979.62,-123.5 2850.62,-123.5"/>
<text text-anchor="start" x="2858.62" y="-141.5" font-family="Helvetica,sans-Serif" font-size="10.00">Modules/Example/include</text>
<text text-anchor="middle" x="2915.12" y="-130.5" font-family="Helvetica,sans-Serif" font-size="10.00">/Example/ExampleTask.h</text>
</a>
</g>
</g>
<!-- Node1&#45;&gt;Node37 -->
<g id="edge41" class="edge"><title>Node1&#45;&gt;Node37</title>
<path fill="none" stroke="midnightblue" d="M2745.99,-187.715C2783.1,-177.137 2830.46,-163.635 2865.62,-153.611"/>
<polygon fill="midnightblue" stroke="midnightblue" points="2744.97,-184.368 2736.31,-190.476 2746.89,-191.1 2744.97,-184.368"/>
</g>
<!-- Node40 -->
<g id="node40" class="node"><title>Node40</title>
<g id="a_node40"><a xlink:href="SkeletonTask_8h.html" target="_top" xlink:title="Modules/Skeleton/include\l/Skeleton/SkeletonTask.h">
<polygon fill="none" stroke="black" points="2997.62,-123.5 2997.62,-153.5 3126.62,-153.5 3126.62,-123.5 2997.62,-123.5"/>
<text text-anchor="start" x="3005.62" y="-141.5" font-family="Helvetica,sans-Serif" font-size="10.00">Modules/Skeleton/include</text>
<text text-anchor="middle" x="3062.12" y="-130.5" font-family="Helvetica,sans-Serif" font-size="10.00">/Skeleton/SkeletonTask.h</text>
</a>
</g>
</g>
<!-- Node1&#45;&gt;Node40 -->
<g id="edge45" class="edge"><title>Node1&#45;&gt;Node40</title>
<path fill="none" stroke="midnightblue" d="M2763.78,-192.23C2824.67,-182.342 2911.94,-167.85 2988.12,-154 2991.21,-153.438 2994.37,-152.854 2997.56,-152.257"/>
<polygon fill="midnightblue" stroke="midnightblue" points="2763.17,-188.783 2753.86,-193.838 2764.29,-195.692 2763.17,-188.783"/>
</g>
<!-- Node42 -->
<g id="node42" class="node"><title>Node42</title>
<g id="a_node42"><a xlink:href="TOFTask_8h.html" target="_top" xlink:title="Modules/TOF/include\l/TOF/TOFTask.h">
<polygon fill="none" stroke="black" points="2483.12,-123.5 2483.12,-153.5 2593.12,-153.5 2593.12,-123.5 2483.12,-123.5"/>
<text text-anchor="start" x="2491.12" y="-141.5" font-family="Helvetica,sans-Serif" font-size="10.00">Modules/TOF/include</text>
<text text-anchor="middle" x="2538.12" y="-130.5" font-family="Helvetica,sans-Serif" font-size="10.00">/TOF/TOFTask.h</text>
</a>
</g>
</g>
<!-- Node1&#45;&gt;Node42 -->
<g id="edge48" class="edge"><title>Node1&#45;&gt;Node42</title>
<path fill="none" stroke="midnightblue" d="M2645.33,-186.269C2621.59,-175.916 2592.34,-163.153 2570.39,-153.577"/>
<polygon fill="midnightblue" stroke="midnightblue" points="2644.22,-189.605 2654.79,-190.396 2647.02,-183.189 2644.22,-189.605"/>
</g>
<!-- Node3 -->
<g id="node3" class="node"><title>Node3</title>
<g id="a_node3"><a xlink:href="Checker_8h.html" target="_top" xlink:title="Framework/include/Quality\lControl/Checker.h">
<polygon fill="none" stroke="black" points="702.618,-56.5 702.618,-86.5 835.618,-86.5 835.618,-56.5 702.618,-56.5"/>
<text text-anchor="start" x="710.618" y="-74.5" font-family="Helvetica,sans-Serif" font-size="10.00">Framework/include/Quality</text>
<text text-anchor="middle" x="769.118" y="-63.5" font-family="Helvetica,sans-Serif" font-size="10.00">Control/Checker.h</text>
</a>
</g>
</g>
<!-- Node2&#45;&gt;Node3 -->
<g id="edge2" class="edge"><title>Node2&#45;&gt;Node3</title>
<path fill="none" stroke="midnightblue" d="M1822.39,-137.58C1647.95,-136.944 1208.5,-130.716 844.118,-87 841.353,-86.6682 838.536,-86.2934 835.696,-85.8846"/>
<polygon fill="midnightblue" stroke="midnightblue" points="1822.48,-141.081 1832.49,-137.612 1822.51,-134.081 1822.48,-141.081"/>
</g>
<!-- Node11 -->
<g id="node11" class="node"><title>Node11</title>
<g id="a_node11"><a xlink:href="DatabaseFactory_8cxx.html" target="_top" xlink:title="Framework/src/DatabaseFactory.cxx">
<polygon fill="none" stroke="black" points="853.618,-62 853.618,-81 1032.62,-81 1032.62,-62 853.618,-62"/>
<text text-anchor="middle" x="943.118" y="-69" font-family="Helvetica,sans-Serif" font-size="10.00">Framework/src/DatabaseFactory.cxx</text>
</a>
</g>
</g>
<!-- Node2&#45;&gt;Node11 -->
<g id="edge10" class="edge"><title>Node2&#45;&gt;Node11</title>
<path fill="none" stroke="midnightblue" d="M1822.52,-135.212C1672.45,-130.236 1329.27,-116.434 1042.12,-87 1026.91,-85.4413 1010.46,-83.2408 995.419,-81.024"/>
<polygon fill="midnightblue" stroke="midnightblue" points="1822.45,-138.711 1832.56,-135.541 1822.68,-131.715 1822.45,-138.711"/>
</g>
<!-- Node12 -->
<g id="node12" class="node"><title>Node12</title>
<g id="a_node12"><a xlink:href="InformationService_8cxx.html" target="_top" xlink:title="Framework/src/Information\lService.cxx">
<polygon fill="none" stroke="black" points="1051.12,-56.5 1051.12,-86.5 1185.12,-86.5 1185.12,-56.5 1051.12,-56.5"/>
<text text-anchor="start" x="1059.12" y="-74.5" font-family="Helvetica,sans-Serif" font-size="10.00">Framework/src/Information</text>
<text text-anchor="middle" x="1118.12" y="-63.5" font-family="Helvetica,sans-Serif" font-size="10.00">Service.cxx</text>
</a>
</g>
</g>
<!-- Node2&#45;&gt;Node12 -->
<g id="edge11" class="edge"><title>Node2&#45;&gt;Node12</title>
<path fill="none" stroke="midnightblue" d="M1822.03,-134.931C1692.06,-129.94 1421.28,-116.702 1194.12,-87 1191.19,-86.6169 1188.2,-86.1925 1185.19,-85.7368"/>
<polygon fill="midnightblue" stroke="midnightblue" points="1822.15,-138.438 1832.27,-135.318 1822.41,-131.443 1822.15,-138.438"/>
</g>
<!-- Node13 -->
<g id="node13" class="node"><title>Node13</title>
<g id="a_node13"><a xlink:href="MySqlDatabase_8cxx.html" target="_top" xlink:title="Framework/src/MySqlDatabase.cxx">
<polygon fill="none" stroke="black" points="1203.62,-62 1203.62,-81 1376.62,-81 1376.62,-62 1203.62,-62"/>
<text text-anchor="middle" x="1290.12" y="-69" font-family="Helvetica,sans-Serif" font-size="10.00">Framework/src/MySqlDatabase.cxx</text>
</a>
</g>
</g>
<!-- Node2&#45;&gt;Node13 -->
<g id="edge12" class="edge"><title>Node2&#45;&gt;Node13</title>
<path fill="none" stroke="midnightblue" d="M1822.38,-131.252C1721.8,-122.765 1539.95,-106.408 1385.12,-87 1371.38,-85.2777 1356.56,-83.148 1342.81,-81.0561"/>
<polygon fill="midnightblue" stroke="midnightblue" points="1822.2,-134.748 1832.45,-132.098 1822.78,-127.773 1822.2,-134.748"/>
</g>
<!-- Node14 -->
<g id="node14" class="node"><title>Node14</title>
<g id="a_node14"><a xlink:href="ObjectsManager_8cxx.html" target="_top" xlink:title="Framework/src/ObjectsManager.cxx">
<polygon fill="none" stroke="black" points="1394.62,-62 1394.62,-81 1569.62,-81 1569.62,-62 1394.62,-62"/>
<text text-anchor="middle" x="1482.12" y="-69" font-family="Helvetica,sans-Serif" font-size="10.00">Framework/src/ObjectsManager.cxx</text>
</a>
</g>
</g>
<!-- Node2&#45;&gt;Node14 -->
<g id="edge13" class="edge"><title>Node2&#45;&gt;Node14</title>
<path fill="none" stroke="midnightblue" d="M1822.47,-125.553C1739.68,-112.647 1609.83,-92.4072 1536.78,-81.0202"/>
<polygon fill="midnightblue" stroke="midnightblue" points="1822.16,-129.047 1832.58,-127.129 1823.24,-122.13 1822.16,-129.047"/>
</g>
<!-- Node15 -->
<g id="node15" class="node"><title>Node15</title>
<g id="a_node15"><a xlink:href="RepositoryBenchmark_8cxx.html" target="_top" xlink:title="Framework/src/Repository\lBenchmark.cxx">
<polygon fill="none" stroke="black" points="1588.12,-56.5 1588.12,-86.5 1720.12,-86.5 1720.12,-56.5 1588.12,-56.5"/>
<text text-anchor="start" x="1596.12" y="-74.5" font-family="Helvetica,sans-Serif" font-size="10.00">Framework/src/Repository</text>
<text text-anchor="middle" x="1654.12" y="-63.5" font-family="Helvetica,sans-Serif" font-size="10.00">Benchmark.cxx</text>
</a>
</g>
</g>
<!-- Node2&#45;&gt;Node15 -->
<g id="edge14" class="edge"><title>Node2&#45;&gt;Node15</title>
<path fill="none" stroke="midnightblue" d="M1836.36,-120.85C1796.41,-110.252 1745.25,-96.6775 1707.31,-86.6109"/>
<polygon fill="midnightblue" stroke="midnightblue" points="1835.69,-124.295 1846.26,-123.476 1837.49,-117.529 1835.69,-124.295"/>
</g>
<!-- Node16 -->
<g id="node16" class="node"><title>Node16</title>
<g id="a_node16"><a xlink:href="TaskFactory_8cxx.html" target="_top" xlink:title="Framework/src/TaskFactory.cxx">
<polygon fill="none" stroke="black" points="1738.12,-62 1738.12,-81 1896.12,-81 1896.12,-62 1738.12,-62"/>
<text text-anchor="middle" x="1817.12" y="-69" font-family="Helvetica,sans-Serif" font-size="10.00">Framework/src/TaskFactory.cxx</text>
</a>
</g>
</g>
<!-- Node2&#45;&gt;Node16 -->
<g id="edge15" class="edge"><title>Node2&#45;&gt;Node16</title>
<path fill="none" stroke="midnightblue" d="M1873.27,-117.008C1858.04,-104.941 1839.58,-90.3046 1828.09,-81.1945"/>
<polygon fill="midnightblue" stroke="midnightblue" points="1871.31,-119.927 1881.32,-123.396 1875.66,-114.441 1871.31,-119.927"/>
</g>
<!-- Node17 -->
<g id="node17" class="node"><title>Node17</title>
<g id="a_node17"><a xlink:href="TaskRunner_8cxx.html" target="_top" xlink:title="Framework/src/TaskRunner.cxx">
<polygon fill="none" stroke="black" points="527.618,-62 527.618,-81 684.618,-81 684.618,-62 527.618,-62"/>
<text text-anchor="middle" x="606.118" y="-69" font-family="Helvetica,sans-Serif" font-size="10.00">Framework/src/TaskRunner.cxx</text>
</a>
</g>
</g>
<!-- Node2&#45;&gt;Node17 -->
<g id="edge16" class="edge"><title>Node2&#45;&gt;Node17</title>
<path fill="none" stroke="midnightblue" d="M1822.33,-137.562C1631.05,-137.004 1118.07,-131.14 693.118,-87 679.258,-85.5604 664.258,-83.312 650.681,-81.0119"/>
<polygon fill="midnightblue" stroke="midnightblue" points="1822.55,-141.062 1832.56,-137.587 1822.57,-134.062 1822.55,-141.062"/>
</g>
<!-- Node18 -->
<g id="node18" class="node"><title>Node18</title>
<g id="a_node18"><a xlink:href="testQcInfoLogger_8cxx.html" target="_top" xlink:title="Framework/test/testQcInfo\lLogger.cxx">
<polygon fill="none" stroke="black" points="1914.12,-56.5 1914.12,-86.5 2048.12,-86.5 2048.12,-56.5 1914.12,-56.5"/>
<text text-anchor="start" x="1922.12" y="-74.5" font-family="Helvetica,sans-Serif" font-size="10.00">Framework/test/testQcInfo</text>
<text text-anchor="middle" x="1981.12" y="-63.5" font-family="Helvetica,sans-Serif" font-size="10.00">Logger.cxx</text>
</a>
</g>
</g>
<!-- Node2&#45;&gt;Node18 -->
<g id="edge17" class="edge"><title>Node2&#45;&gt;Node18</title>
<path fill="none" stroke="midnightblue" d="M1924.77,-117.168C1937.31,-107.228 1952.08,-95.5144 1963.36,-86.5765"/>
<polygon fill="midnightblue" stroke="midnightblue" points="1922.57,-114.441 1916.91,-123.396 1926.92,-119.927 1922.57,-114.441"/>
</g>
<!-- Node19 -->
<g id="node19" class="node"><title>Node19</title>
<g id="a_node19"><a xlink:href="DaqTask_8cxx.html" target="_top" xlink:title="Modules/Daq/src/DaqTask.cxx">
<polygon fill="none" stroke="black" points="2523.12,-62 2523.12,-81 2675.12,-81 2675.12,-62 2523.12,-62"/>
<text text-anchor="middle" x="2599.12" y="-69" font-family="Helvetica,sans-Serif" font-size="10.00">Modules/Daq/src/DaqTask.cxx</text>
</a>
</g>
</g>
<!-- Node2&#45;&gt;Node19 -->
<g id="edge18" class="edge"><title>Node2&#45;&gt;Node19</title>
<path fill="none" stroke="midnightblue" d="M1976.07,-130.768C2004.66,-128.29 2037.37,-125.485 2067.12,-123 2265.29,-106.45 2315.77,-111.555 2513.12,-87 2526.04,-85.3922 2539.99,-83.2283 2552.81,-81.0633"/>
<polygon fill="midnightblue" stroke="midnightblue" points="1975.4,-127.313 1965.74,-131.664 1976.01,-134.286 1975.4,-127.313"/>
</g>
<!-- Node20 -->
<g id="node20" class="node"><title>Node20</title>
<g id="a_node20"><a xlink:href="DigitsQcTask_8cxx.html" target="_top" xlink:title="Modules/EMCAL/src/Digits\lQcTask.cxx">
<polygon fill="none" stroke="black" points="2066.12,-56.5 2066.12,-86.5 2202.12,-86.5 2202.12,-56.5 2066.12,-56.5"/>
<text text-anchor="start" x="2074.12" y="-74.5" font-family="Helvetica,sans-Serif" font-size="10.00">Modules/EMCAL/src/Digits</text>
<text text-anchor="middle" x="2134.12" y="-63.5" font-family="Helvetica,sans-Serif" font-size="10.00">QcTask.cxx</text>
</a>
</g>
</g>
<!-- Node2&#45;&gt;Node20 -->
<g id="edge19" class="edge"><title>Node2&#45;&gt;Node20</title>
<path fill="none" stroke="midnightblue" d="M1959.8,-120.715C1998.04,-110.137 2046.86,-96.6348 2083.1,-86.6109"/>
<polygon fill="midnightblue" stroke="midnightblue" points="1958.52,-117.437 1949.82,-123.476 1960.39,-124.183 1958.52,-117.437"/>
</g>
<!-- Node21 -->
<g id="node21" class="node"><title>Node21</title>
<g id="a_node21"><a xlink:href="BenchmarkTask_8cxx.html" target="_top" xlink:title="Modules/Example/src\l/BenchmarkTask.cxx">
<polygon fill="none" stroke="black" points="2220.62,-56.5 2220.62,-86.5 2331.62,-86.5 2331.62,-56.5 2220.62,-56.5"/>
<text text-anchor="start" x="2228.62" y="-74.5" font-family="Helvetica,sans-Serif" font-size="10.00">Modules/Example/src</text>
<text text-anchor="middle" x="2276.12" y="-63.5" font-family="Helvetica,sans-Serif" font-size="10.00">/BenchmarkTask.cxx</text>
</a>
</g>
</g>
<!-- Node2&#45;&gt;Node21 -->
<g id="edge20" class="edge"><title>Node2&#45;&gt;Node21</title>
<path fill="none" stroke="midnightblue" d="M1975.56,-126.414C2038.86,-116.926 2131.07,-102.393 2211.12,-87 2214.18,-86.4105 2217.33,-85.7841 2220.49,-85.135"/>
<polygon fill="midnightblue" stroke="midnightblue" points="1975.03,-122.954 1965.66,-127.893 1976.07,-129.878 1975.03,-122.954"/>
</g>
<!-- Node22 -->
<g id="node22" class="node"><title>Node22</title>
<g id="a_node22"><a xlink:href="ExampleTask_8cxx.html" target="_top" xlink:title="Modules/Example/src\l/ExampleTask.cxx">
<polygon fill="none" stroke="black" points="2874.62,-56.5 2874.62,-86.5 2985.62,-86.5 2985.62,-56.5 2874.62,-56.5"/>
<text text-anchor="start" x="2882.62" y="-74.5" font-family="Helvetica,sans-Serif" font-size="10.00">Modules/Example/src</text>
<text text-anchor="middle" x="2930.12" y="-63.5" font-family="Helvetica,sans-Serif" font-size="10.00">/ExampleTask.cxx</text>
</a>
</g>
</g>
<!-- Node2&#45;&gt;Node22 -->
<g id="edge21" class="edge"><title>Node2&#45;&gt;Node22</title>
<path fill="none" stroke="midnightblue" d="M1976.03,-130.194C2004.61,-127.655 2037.33,-124.957 2067.12,-123 2421.38,-99.7307 2513.19,-133.827 2865.12,-87 2868.21,-86.5882 2871.38,-86.1021 2874.56,-85.5617"/>
<polygon fill="midnightblue" stroke="midnightblue" points="1975.35,-126.741 1965.7,-131.121 1975.97,-133.713 1975.35,-126.741"/>
</g>
<!-- Node23 -->
<g id="node23" class="node"><title>Node23</title>
<g id="a_node23"><a xlink:href="SkeletonTask_8cxx.html" target="_top" xlink:title="Modules/Skeleton/src\l/SkeletonTask.cxx">
<polygon fill="none" stroke="black" points="3136.62,-56.5 3136.62,-86.5 3247.62,-86.5 3247.62,-56.5 3136.62,-56.5"/>
<text text-anchor="start" x="3144.62" y="-74.5" font-family="Helvetica,sans-Serif" font-size="10.00">Modules/Skeleton/src</text>
<text text-anchor="middle" x="3192.12" y="-63.5" font-family="Helvetica,sans-Serif" font-size="10.00">/SkeletonTask.cxx</text>
</a>
</g>
</g>
<!-- Node2&#45;&gt;Node23 -->
<g id="edge22" class="edge"><title>Node2&#45;&gt;Node23</title>
<path fill="none" stroke="midnightblue" d="M1976.02,-130.014C2004.6,-127.456 2037.32,-124.791 2067.12,-123 2537.65,-94.7233 2659.51,-146.572 3127.12,-87 3130.21,-86.6055 3133.38,-86.1329 3136.57,-85.6031"/>
<polygon fill="midnightblue" stroke="midnightblue" points="1975.33,-126.562 1965.69,-130.95 1975.97,-133.533 1975.33,-126.562"/>
</g>
<!-- Node24 -->
<g id="node24" class="node"><title>Node24</title>
<g id="a_node24"><a xlink:href="TOFTask_8cxx.html" target="_top" xlink:title="Modules/TOF/src/TOFTask.cxx">
<polygon fill="none" stroke="black" points="2349.62,-62 2349.62,-81 2504.62,-81 2504.62,-62 2349.62,-62"/>
<text text-anchor="middle" x="2427.12" y="-69" font-family="Helvetica,sans-Serif" font-size="10.00">Modules/TOF/src/TOFTask.cxx</text>
</a>
</g>
</g>
<!-- Node2&#45;&gt;Node24 -->
<g id="edge23" class="edge"><title>Node2&#45;&gt;Node24</title>
<path fill="none" stroke="midnightblue" d="M1975.92,-129.908C2064.03,-120.919 2212.76,-104.894 2340.12,-87 2352.55,-85.2531 2365.95,-83.1375 2378.41,-81.0688"/>
<polygon fill="midnightblue" stroke="midnightblue" points="1975.34,-126.449 1965.75,-130.942 1976.05,-133.413 1975.34,-126.449"/>
</g>
<!-- Node4 -->
<g id="node4" class="node"><title>Node4</title>
<g id="a_node4"><a xlink:href="Checker_8cxx.html" target="_top" xlink:title="Framework/src/Checker.cxx">
<polygon fill="none" stroke="black" points="18.1177,-0.5 18.1177,-19.5 158.118,-19.5 158.118,-0.5 18.1177,-0.5"/>
<text text-anchor="middle" x="88.1177" y="-7.5" font-family="Helvetica,sans-Serif" font-size="10.00">Framework/src/Checker.cxx</text>
</a>
</g>
</g>
<!-- Node3&#45;&gt;Node4 -->
<g id="edge3" class="edge"><title>Node3&#45;&gt;Node4</title>
<path fill="none" stroke="midnightblue" d="M692.524,-56.0358C464.326,-26.845 404.078,-38.9985 179.118,-20 172.315,-19.4255 165.231,-18.7901 158.151,-18.1305"/>
<polygon fill="midnightblue" stroke="midnightblue" points="692.096,-59.5096 702.462,-57.3195 692.992,-52.5672 692.096,-59.5096"/>
</g>
<!-- Node5 -->
<g id="node5" class="node"><title>Node5</title>
<g id="a_node5"><a xlink:href="CheckerFactory_8cxx.html" target="_top" xlink:title="Framework/src/CheckerFactory.cxx">
<polygon fill="none" stroke="black" points="771.618,-0.5 771.618,-19.5 944.618,-19.5 944.618,-0.5 771.618,-0.5"/>
<text text-anchor="middle" x="858.118" y="-7.5" font-family="Helvetica,sans-Serif" font-size="10.00">Framework/src/CheckerFactory.cxx</text>
</a>
</g>
</g>
<!-- Node3&#45;&gt;Node5 -->
<g id="edge4" class="edge"><title>Node3&#45;&gt;Node5</title>
<path fill="none" stroke="midnightblue" d="M798.62,-50.7764C814.393,-40.2315 833.013,-27.7834 845.167,-19.6578"/>
<polygon fill="midnightblue" stroke="midnightblue" points="796.578,-47.9318 790.209,-56.3993 800.468,-53.7512 796.578,-47.9318"/>
</g>
<!-- Node6 -->
<g id="node6" class="node"><title>Node6</title>
<g id="a_node6"><a xlink:href="runBasic_8cxx.html" target="_top" xlink:title="This is an executable showing QC Task&#39;s usage in Data Processing Layer. ">
<polygon fill="none" stroke="black" points="963.118,-0.5 963.118,-19.5 1105.12,-19.5 1105.12,-0.5 963.118,-0.5"/>
<text text-anchor="middle" x="1034.12" y="-7.5" font-family="Helvetica,sans-Serif" font-size="10.00">Framework/src/runBasic.cxx</text>
</a>
</g>
</g>
<!-- Node3&#45;&gt;Node6 -->
<g id="edge5" class="edge"><title>Node3&#45;&gt;Node6</title>
<path fill="none" stroke="midnightblue" d="M841.383,-54.2743C891.411,-43.0418 955.991,-28.5416 996.232,-19.5064"/>
<polygon fill="midnightblue" stroke="midnightblue" points="840.574,-50.8689 831.583,-56.4747 842.107,-57.6988 840.574,-50.8689"/>
</g>
<!-- Node7 -->
<g id="node7" class="node"><title>Node7</title>
<g id="a_node7"><a xlink:href="testChecker_8cxx.html" target="_top" xlink:title="Framework/test/testChecker.cxx">
<polygon fill="none" stroke="black" points="1123.12,-0.5 1123.12,-19.5 1283.12,-19.5 1283.12,-0.5 1123.12,-0.5"/>
<text text-anchor="middle" x="1203.12" y="-7.5" font-family="Helvetica,sans-Serif" font-size="10.00">Framework/test/testChecker.cxx</text>
</a>
</g>
</g>
<!-- Node3&#45;&gt;Node7 -->
<g id="edge6" class="edge"><title>Node3&#45;&gt;Node7</title>
<path fill="none" stroke="midnightblue" d="M845.799,-55.7902C946.733,-39.9499 1052.51,-27.338 1123.05,-19.4974"/>
<polygon fill="midnightblue" stroke="midnightblue" points="845.063,-52.363 835.733,-57.3834 846.158,-59.277 845.063,-52.363"/>
</g>
<!-- Node8 -->
<g id="node8" class="node"><title>Node8</title>
<g id="a_node8"><a xlink:href="testWorkflow_8cxx.html" target="_top" xlink:title="Framework/test/testWorkflow.cxx">
<polygon fill="none" stroke="black" points="188.118,-0.5 188.118,-19.5 352.118,-19.5 352.118,-0.5 188.118,-0.5"/>
<text text-anchor="middle" x="270.118" y="-7.5" font-family="Helvetica,sans-Serif" font-size="10.00">Framework/test/testWorkflow.cxx</text>
</a>
</g>
</g>
<!-- Node3&#45;&gt;Node8 -->
<g id="edge7" class="edge"><title>Node3&#45;&gt;Node8</title>
<path fill="none" stroke="midnightblue" d="M692.475,-56.07C635.673,-48.5862 458.784,-30.2768 352.554,-19.3996"/>
<polygon fill="midnightblue" stroke="midnightblue" points="692.056,-59.5453 702.443,-57.4566 693.02,-52.612 692.056,-59.5453"/>
</g>
<!-- Node9 -->
<g id="node9" class="node"><title>Node9</title>
<polygon fill="none" stroke="#bfbfbf" points="370.118,-0.5 370.118,-19.5 588.118,-19.5 588.118,-0.5 370.118,-0.5"/>
<text text-anchor="middle" x="479.118" y="-7.5" font-family="Helvetica,sans-Serif" font-size="10.00">Modules/EMCAL/src/runQCEMCALDigits.cxx</text>
</g>
<!-- Node3&#45;&gt;Node9 -->
<g id="edge8" class="edge"><title>Node3&#45;&gt;Node9</title>
<path fill="none" stroke="midnightblue" d="M692.519,-54.7841C637.487,-43.493 565.403,-28.7033 520.688,-19.5291"/>
<polygon fill="midnightblue" stroke="midnightblue" points="692.086,-58.2681 702.586,-56.8495 693.493,-51.411 692.086,-58.2681"/>
</g>
<!-- Node10 -->
<g id="node10" class="node"><title>Node10</title>
<g id="a_node10"><a xlink:href="runTOF_8cxx.html" target="_top" xlink:title="This is an executable showing QC Task&#39;s usage in Data Processing Layer. ">
<polygon fill="none" stroke="black" points="606.618,-0.5 606.618,-19.5 753.618,-19.5 753.618,-0.5 606.618,-0.5"/>
<text text-anchor="middle" x="680.118" y="-7.5" font-family="Helvetica,sans-Serif" font-size="10.00">Modules/TOF/src/runTOF.cxx</text>
</a>
</g>
</g>
<!-- Node3&#45;&gt;Node10 -->
<g id="edge9" class="edge"><title>Node3&#45;&gt;Node10</title>
<path fill="none" stroke="midnightblue" d="M739.615,-50.7764C723.842,-40.2315 705.222,-27.7834 693.068,-19.6578"/>
<polygon fill="midnightblue" stroke="midnightblue" points="737.767,-53.7512 748.026,-56.3993 741.658,-47.9318 737.767,-53.7512"/>
</g>
<!-- Node25&#45;&gt;Node4 -->
<g id="edge25" class="edge"><title>Node25&#45;&gt;Node4</title>
<path fill="none" stroke="midnightblue" d="M257.289,-136.773C170.696,-134.131 37.8265,-123.964 6.1177,-87 -2.85283,-76.5426 -0.900194,-67.8565 6.1177,-56 16.9534,-37.6935 38.1716,-26.3391 56.3091,-19.6153"/>
<polygon fill="midnightblue" stroke="midnightblue" points="257.255,-140.273 267.348,-137.052 257.449,-133.276 257.255,-140.273"/>
</g>
<!-- Node25&#45;&gt;Node17 -->
<g id="edge27" class="edge"><title>Node25&#45;&gt;Node17</title>
<path fill="none" stroke="midnightblue" d="M402.541,-121.149C455.914,-108.394 527.905,-91.1905 570.429,-81.0287"/>
<polygon fill="midnightblue" stroke="midnightblue" points="401.715,-117.748 392.803,-123.476 403.342,-124.556 401.715,-117.748"/>
</g>
<!-- Node26 -->
<g id="node26" class="node"><title>Node26</title>
<polygon fill="none" stroke="#bfbfbf" points="15.6177,-56.5 15.6177,-86.5 158.618,-86.5 158.618,-56.5 15.6177,-56.5"/>
<text text-anchor="start" x="23.6177" y="-74.5" font-family="Helvetica,sans-Serif" font-size="10.00">Framework/src/Infrastructure</text>
<text text-anchor="middle" x="87.1177" y="-63.5" font-family="Helvetica,sans-Serif" font-size="10.00">Generator.cxx</text>
</g>
<!-- Node25&#45;&gt;Node26 -->
<g id="edge26" class="edge"><title>Node25&#45;&gt;Node26</title>
<path fill="none" stroke="midnightblue" d="M271.103,-120.917C230.795,-110.31 179.073,-96.6988 140.739,-86.6109"/>
<polygon fill="midnightblue" stroke="midnightblue" points="270.265,-124.316 280.826,-123.476 272.046,-117.546 270.265,-124.316"/>
</g>
<!-- Node27 -->
<g id="node27" class="node"><title>Node27</title>
<g id="a_node27"><a xlink:href="TaskRunnerFactory_8cxx.html" target="_top" xlink:title="Framework/src/TaskRunner\lFactory.cxx">
<polygon fill="none" stroke="black" points="177.118,-56.5 177.118,-86.5 315.118,-86.5 315.118,-56.5 177.118,-56.5"/>
<text text-anchor="start" x="185.118" y="-74.5" font-family="Helvetica,sans-Serif" font-size="10.00">Framework/src/TaskRunner</text>
<text text-anchor="middle" x="246.118" y="-63.5" font-family="Helvetica,sans-Serif" font-size="10.00">Factory.cxx</text>
</a>
</g>
</g>
<!-- Node25&#45;&gt;Node27 -->
<g id="edge28" class="edge"><title>Node25&#45;&gt;Node27</title>
<path fill="none" stroke="midnightblue" d="M306.975,-117.451C293.437,-107.452 277.391,-95.5995 265.175,-86.5765"/>
<polygon fill="midnightblue" stroke="midnightblue" points="304.9,-120.27 315.023,-123.396 309.059,-114.639 304.9,-120.27"/>
</g>
<!-- Node28 -->
<g id="node28" class="node"><title>Node28</title>
<g id="a_node28"><a xlink:href="testTaskRunner_8cxx.html" target="_top" xlink:title="Framework/test/testTaskRunner.cxx">
<polygon fill="none" stroke="black" points="333.118,-62 333.118,-81 509.118,-81 509.118,-62 333.118,-62"/>
<text text-anchor="middle" x="421.118" y="-69" font-family="Helvetica,sans-Serif" font-size="10.00">Framework/test/testTaskRunner.cxx</text>
</a>
</g>
</g>
<!-- Node25&#45;&gt;Node28 -->
<g id="edge29" class="edge"><title>Node25&#45;&gt;Node28</title>
<path fill="none" stroke="midnightblue" d="M361.098,-117.343C377.333,-105.213 397.174,-90.389 409.48,-81.1945"/>
<polygon fill="midnightblue" stroke="midnightblue" points="358.912,-114.607 352.995,-123.396 363.101,-120.215 358.912,-114.607"/>
</g>
<!-- Node31&#45;&gt;Node19 -->
<g id="edge33" class="edge"><title>Node31&#45;&gt;Node19</title>
<path fill="none" stroke="midnightblue" d="M2659.78,-117.306C2643.25,-105.1 2623.05,-90.1772 2610.63,-81.007"/>
<polygon fill="midnightblue" stroke="midnightblue" points="2657.9,-120.27 2668.02,-123.396 2662.06,-114.639 2657.9,-120.27"/>
</g>
<!-- Node32 -->
<g id="node32" class="node"><title>Node32</title>
<g id="a_node32"><a xlink:href="testQcDaq_8cxx.html" target="_top" xlink:title="Modules/Daq/test/testQcDaq.cxx">
<polygon fill="none" stroke="black" points="2693.62,-62 2693.62,-81 2856.62,-81 2856.62,-62 2693.62,-62"/>
<text text-anchor="middle" x="2775.12" y="-69" font-family="Helvetica,sans-Serif" font-size="10.00">Modules/Daq/test/testQcDaq.cxx</text>
</a>
</g>
</g>
<!-- Node31&#45;&gt;Node32 -->
<g id="edge34" class="edge"><title>Node31&#45;&gt;Node32</title>
<path fill="none" stroke="midnightblue" d="M2714.46,-117.306C2730.98,-105.1 2751.19,-90.1772 2763.6,-81.007"/>
<polygon fill="midnightblue" stroke="midnightblue" points="2712.18,-114.639 2706.21,-123.396 2716.34,-120.27 2712.18,-114.639"/>
</g>
<!-- Node33&#45;&gt;Node20 -->
<g id="edge36" class="edge"><title>Node33&#45;&gt;Node20</title>
<path fill="none" stroke="midnightblue" d="M2137.26,-113.403C2136.57,-104.37 2135.8,-94.4078 2135.2,-86.5765"/>
<polygon fill="midnightblue" stroke="midnightblue" points="2133.78,-113.694 2138.03,-123.396 2140.76,-113.157 2133.78,-113.694"/>
</g>
<!-- Node34&#45;&gt;Node21 -->
<g id="edge38" class="edge"><title>Node34&#45;&gt;Node21</title>
<path fill="none" stroke="midnightblue" d="M2351.74,-118.015C2334.94,-107.9 2314.78,-95.7698 2299.51,-86.5765"/>
<polygon fill="midnightblue" stroke="midnightblue" points="2350.31,-121.238 2360.68,-123.396 2353.92,-115.241 2350.31,-121.238"/>
</g>
<!-- Node36 -->
<g id="node36" class="node"><title>Node36</title>
<g id="a_node36"><a xlink:href="ExampleCondition_8cxx.html" target="_top" xlink:title="Modules/Example/src\l/ExampleCondition.cxx">
<polygon fill="none" stroke="black" points="3544.12,-56.5 3544.12,-86.5 3662.12,-86.5 3662.12,-56.5 3544.12,-56.5"/>
<text text-anchor="start" x="3552.12" y="-74.5" font-family="Helvetica,sans-Serif" font-size="10.00">Modules/Example/src</text>
<text text-anchor="middle" x="3603.12" y="-63.5" font-family="Helvetica,sans-Serif" font-size="10.00">/ExampleCondition.cxx</text>
</a>
</g>
</g>
<!-- Node35&#45;&gt;Node36 -->
<g id="edge40" class="edge"><title>Node35&#45;&gt;Node36</title>
<path fill="none" stroke="midnightblue" d="M3603.12,-113.108C3603.12,-104.154 3603.12,-94.3227 3603.12,-86.5765"/>
<polygon fill="midnightblue" stroke="midnightblue" points="3599.62,-113.396 3603.12,-123.396 3606.62,-113.396 3599.62,-113.396"/>
</g>
<!-- Node37&#45;&gt;Node22 -->
<g id="edge42" class="edge"><title>Node37&#45;&gt;Node22</title>
<path fill="none" stroke="midnightblue" d="M2920.68,-113.403C2922.76,-104.37 2925.06,-94.4078 2926.87,-86.5765"/>
<polygon fill="midnightblue" stroke="midnightblue" points="2917.21,-112.865 2918.37,-123.396 2924.03,-114.439 2917.21,-112.865"/>
</g>
<!-- Node38 -->
<g id="node38" class="node"><title>Node38</title>
<polygon fill="none" stroke="#bfbfbf" points="3004.12,-56.5 3004.12,-86.5 3118.12,-86.5 3118.12,-56.5 3004.12,-56.5"/>
<text text-anchor="start" x="3012.12" y="-74.5" font-family="Helvetica,sans-Serif" font-size="10.00">Modules/Example/test</text>
<text text-anchor="middle" x="3061.12" y="-63.5" font-family="Helvetica,sans-Serif" font-size="10.00">/testFactory.cxx</text>
</g>
<!-- Node37&#45;&gt;Node38 -->
<g id="edge43" class="edge"><title>Node37&#45;&gt;Node38</title>
<path fill="none" stroke="midnightblue" d="M2956.07,-119.269C2979.32,-108.916 3007.99,-96.1528 3029.5,-86.5765"/>
<polygon fill="midnightblue" stroke="midnightblue" points="2954.51,-116.131 2946.8,-123.396 2957.36,-122.526 2954.51,-116.131"/>
</g>
<!-- Node39 -->
<g id="node39" class="node"><title>Node39</title>
<g id="a_node39"><a xlink:href="testQcExample_8cxx.html" target="_top" xlink:title="Modules/Example/test\l/testQcExample.cxx">
<polygon fill="none" stroke="black" points="3266.12,-56.5 3266.12,-86.5 3380.12,-86.5 3380.12,-56.5 3266.12,-56.5"/>
<text text-anchor="start" x="3274.12" y="-74.5" font-family="Helvetica,sans-Serif" font-size="10.00">Modules/Example/test</text>
<text text-anchor="middle" x="3323.12" y="-63.5" font-family="Helvetica,sans-Serif" font-size="10.00">/testQcExample.cxx</text>
</a>
</g>
</g>
<!-- Node37&#45;&gt;Node39 -->
<g id="edge44" class="edge"><title>Node37&#45;&gt;Node39</title>
<path fill="none" stroke="midnightblue" d="M2990.14,-122.726C3108.43,-103.507 3140.97,-107.16 3256.12,-87 3259.28,-86.4458 3262.53,-85.8472 3265.79,-85.2198"/>
<polygon fill="midnightblue" stroke="midnightblue" points="2989.26,-119.324 2979.96,-124.402 2990.39,-126.232 2989.26,-119.324"/>
</g>
<!-- Node40&#45;&gt;Node23 -->
<g id="edge46" class="edge"><title>Node40&#45;&gt;Node23</title>
<path fill="none" stroke="midnightblue" d="M3099.41,-118.853C3119.97,-108.576 3145.07,-96.0252 3163.96,-86.5765"/>
<polygon fill="midnightblue" stroke="midnightblue" points="3097.7,-115.793 3090.33,-123.396 3100.84,-122.054 3097.7,-115.793"/>
</g>
<!-- Node41 -->
<g id="node41" class="node"><title>Node41</title>
<g id="a_node41"><a xlink:href="testQcSkeleton_8cxx.html" target="_top" xlink:title="Modules/Skeleton/test\l/testQcSkeleton.cxx">
<polygon fill="none" stroke="black" points="3398.12,-56.5 3398.12,-86.5 3512.12,-86.5 3512.12,-56.5 3398.12,-56.5"/>
<text text-anchor="start" x="3406.12" y="-74.5" font-family="Helvetica,sans-Serif" font-size="10.00">Modules/Skeleton/test</text>
<text text-anchor="middle" x="3455.12" y="-63.5" font-family="Helvetica,sans-Serif" font-size="10.00">/testQcSkeleton.cxx</text>
</a>
</g>
</g>
<!-- Node40&#45;&gt;Node41 -->
<g id="edge47" class="edge"><title>Node40&#45;&gt;Node41</title>
<path fill="none" stroke="midnightblue" d="M3136.76,-122.956C3249.83,-104.232 3280.52,-106.628 3389.12,-87 3392,-86.4784 3394.96,-85.9204 3397.93,-85.338"/>
<polygon fill="midnightblue" stroke="midnightblue" points="3135.94,-119.544 3126.66,-124.648 3137.1,-126.448 3135.94,-119.544"/>
</g>
<!-- Node42&#45;&gt;Node24 -->
<g id="edge49" class="edge"><title>Node42&#45;&gt;Node24</title>
<path fill="none" stroke="midnightblue" d="M2505.34,-118.307C2484.2,-105.926 2457.74,-90.4296 2441.65,-81.007"/>
<polygon fill="midnightblue" stroke="midnightblue" points="2503.63,-121.363 2514.03,-123.396 2507.17,-115.322 2503.63,-121.363"/>
</g>
</g>
</svg>
