<?xml version="1.0" encoding="UTF-8" standalone="no"?>
<!DOCTYPE svg PUBLIC "-//W3C//DTD SVG 1.1//EN"
 "http://www.w3.org/Graphics/SVG/1.1/DTD/svg11.dtd">
<!-- Generated by graphviz version 2.38.0 (20140413.2041)
 -->
<!-- Title: Framework/src/TaskRunnerFactory.cxx Pages: 1 -->
<!--zoomable 386 -->
<svg id="main" version="1.1" xmlns="http://www.w3.org/2000/svg" xmlns:xlink="http://www.w3.org/1999/xlink" xml:space="preserve" onload="init(evt)">
<style type="text/css"><![CDATA[
.edge:hover path { stroke: red; }
.edge:hover polygon { stroke: red; fill: red; }
]]></style>
<script type="text/javascript"><![CDATA[
var edges = document.getElementsByTagName('g');
if (edges && edges.length) {
  for (var i=0;i<edges.length;i++) {
    if (edges[i].id.substr(0,4)=='edge') {
      edges[i].setAttribute('class','edge');
    }
  }
}
]]></script>
        <defs>
                <circle id="rim" cx="0" cy="0" r="7"/>
                <circle id="rim2" cx="0" cy="0" r="3.5"/>
                <g id="zoomPlus">
                        <use xlink:href="#rim" fill="#404040">
                                <set attributeName="fill" to="#808080" begin="zoomplus.mouseover" end="zoomplus.mouseout"/>
                        </use>
                        <path d="M-4,0h8M0,-4v8" fill="none" stroke="white" stroke-width="1.5" pointer-events="none"/>
                </g>
                <g id="zoomMin">
                        <use xlink:href="#rim" fill="#404040">
                                <set attributeName="fill" to="#808080" begin="zoomminus.mouseover" end="zoomminus.mouseout"/>
                        </use>
                        <path d="M-4,0h8" fill="none" stroke="white" stroke-width="1.5" pointer-events="none"/>
                </g>
                <g id="dirArrow">
                        <path fill="none" stroke="white" stroke-width="1.5" d="M0,-3.0v7 M-2.5,-0.5L0,-3.0L2.5,-0.5"/>
                </g>
               <g id="resetDef">
                       <use xlink:href="#rim2" fill="#404040">
                               <set attributeName="fill" to="#808080" begin="reset.mouseover" end="reset.mouseout"/>
                       </use>
               </g>
        </defs>

<script type="text/javascript">
var viewWidth = 1172;
var viewHeight = 386;
var sectionId = 'dynsection-0';
</script>
<script xlink:href="svgpan.js"/>
<svg id="graph" class="graph">
<g id="viewport">
<title>Framework/src/TaskRunnerFactory.cxx</title>
<!-- Node1 -->
<g id="node1" class="node"><title>Node1</title>
<polygon fill="#bfbfbf" stroke="black" points="525,-347.5 525,-377.5 663,-377.5 663,-347.5 525,-347.5"/>
<text text-anchor="start" x="533" y="-365.5" font-family="Helvetica,sans-Serif" font-size="10.00">Framework/src/TaskRunner</text>
<text text-anchor="middle" x="594" y="-354.5" font-family="Helvetica,sans-Serif" font-size="10.00">Factory.cxx</text>
</g>
<!-- Node2 -->
<g id="node2" class="node"><title>Node2</title>
<g id="a_node2"><a xlink:href="TaskRunnerFactory_8h.html" target="_top" xlink:title="QualityControl/TaskRunner\lFactory.h">
<polygon fill="none" stroke="black" points="59.5,-280.5 59.5,-310.5 194.5,-310.5 194.5,-280.5 59.5,-280.5"/>
<text text-anchor="start" x="67.5" y="-298.5" font-family="Helvetica,sans-Serif" font-size="10.00">QualityControl/TaskRunner</text>
<text text-anchor="middle" x="127" y="-287.5" font-family="Helvetica,sans-Serif" font-size="10.00">Factory.h</text>
</a>
</g>
</g>
<!-- Node1&#45;&gt;Node2 -->
<g id="edge1" class="edge"><title>Node1&#45;&gt;Node2</title>
<path fill="none" stroke="midnightblue" d="M524.841,-351.874C439.273,-339.964 293.982,-319.742 204.664,-307.31"/>
<polygon fill="midnightblue" stroke="midnightblue" points="204.98,-303.82 194.593,-305.908 204.015,-310.753 204.98,-303.82"/>
</g>
<!-- Node6 -->
<g id="node6" class="node"><title>Node6</title>
<g id="a_node6"><a xlink:href="TaskRunner_8h.html" target="_top" xlink:title="QualityControl/TaskRunner.h">
<polygon fill="none" stroke="black" points="472.5,-286 472.5,-305 615.5,-305 615.5,-286 472.5,-286"/>
<text text-anchor="middle" x="544" y="-293" font-family="Helvetica,sans-Serif" font-size="10.00">QualityControl/TaskRunner.h</text>
</a>
</g>
</g>
<!-- Node1&#45;&gt;Node6 -->
<g id="edge5" class="edge"><title>Node1&#45;&gt;Node6</title>
<path fill="none" stroke="midnightblue" d="M583.151,-347.396C575.432,-337.361 565.029,-323.838 556.887,-313.253"/>
<polygon fill="midnightblue" stroke="midnightblue" points="559.559,-310.987 550.688,-305.195 554.011,-315.255 559.559,-310.987"/>
</g>
<!-- Node9 -->
<g id="node9" class="node"><title>Node9</title>
<polygon fill="none" stroke="#bfbfbf" points="850.5,-224.5 850.5,-243.5 1003.5,-243.5 1003.5,-224.5 850.5,-224.5"/>
<text text-anchor="middle" x="927" y="-231.5" font-family="Helvetica,sans-Serif" font-size="10.00">Framework/CompletionPolicy.h</text>
</g>
<!-- Node1&#45;&gt;Node9 -->
<g id="edge37" class="edge"><title>Node1&#45;&gt;Node9</title>
<path fill="none" stroke="midnightblue" d="M601.701,-347.335C612.674,-328.629 634.66,-296.172 663,-280 679.391,-270.646 781.185,-255.056 853.458,-244.903"/>
<polygon fill="midnightblue" stroke="midnightblue" points="854.028,-248.357 863.448,-243.508 853.06,-241.425 854.028,-248.357"/>
</g>
<!-- Node25 -->
<g id="node25" class="node"><title>Node25</title>
<polygon fill="none" stroke="#bfbfbf" points="672,-286 672,-305 802,-305 802,-286 672,-286"/>
<text text-anchor="middle" x="737" y="-293" font-family="Helvetica,sans-Serif" font-size="10.00">Framework/DeviceSpec.h</text>
</g>
<!-- Node1&#45;&gt;Node25 -->
<g id="edge36" class="edge"><title>Node1&#45;&gt;Node25</title>
<path fill="none" stroke="midnightblue" d="M625.029,-347.396C650.009,-336.041 684.816,-320.22 708.964,-309.244"/>
<polygon fill="midnightblue" stroke="midnightblue" points="710.629,-312.331 718.285,-305.007 707.733,-305.959 710.629,-312.331"/>
</g>
<!-- Node3 -->
<g id="node3" class="node"><title>Node3</title>
<polygon fill="none" stroke="#bfbfbf" points="514.5,-0.5 514.5,-19.5 555.5,-19.5 555.5,-0.5 514.5,-0.5"/>
<text text-anchor="middle" x="535" y="-7.5" font-family="Helvetica,sans-Serif" font-size="10.00">string</text>
</g>
<!-- Node2&#45;&gt;Node3 -->
<g id="edge2" class="edge"><title>Node2&#45;&gt;Node3</title>
<path fill="none" stroke="midnightblue" d="M114.9,-280.298C107.154,-270.603 97.3936,-257.174 91,-244 77.8584,-216.923 72,-209.098 72,-179 72,-179 72,-179 72,-121 72,-31.9283 400.456,-14.8654 504.075,-11.6987"/>
<polygon fill="midnightblue" stroke="midnightblue" points="504.309,-15.1936 514.206,-11.4122 504.111,-8.19638 504.309,-15.1936"/>
</g>
<!-- Node4 -->
<g id="node4" class="node"><title>Node4</title>
<polygon fill="none" stroke="#bfbfbf" points="0,-224.5 0,-243.5 44,-243.5 44,-224.5 0,-224.5"/>
<text text-anchor="middle" x="22" y="-231.5" font-family="Helvetica,sans-Serif" font-size="10.00">vector</text>
</g>
<!-- Node2&#45;&gt;Node4 -->
<g id="edge3" class="edge"><title>Node2&#45;&gt;Node4</title>
<path fill="none" stroke="midnightblue" d="M102.116,-280.399C85.2858,-270.862 63.1614,-258.325 46.4274,-248.842"/>
<polygon fill="midnightblue" stroke="midnightblue" points="47.7042,-245.543 37.2784,-243.658 44.2531,-251.633 47.7042,-245.543"/>
</g>
<!-- Node5 -->
<g id="node5" class="node"><title>Node5</title>
<polygon fill="none" stroke="#bfbfbf" points="100,-224.5 100,-243.5 264,-243.5 264,-224.5 100,-224.5"/>
<text text-anchor="middle" x="182" y="-231.5" font-family="Helvetica,sans-Serif" font-size="10.00">Framework/DataProcessorSpec.h</text>
</g>
<!-- Node2&#45;&gt;Node5 -->
<g id="edge4" class="edge"><title>Node2&#45;&gt;Node5</title>
<path fill="none" stroke="midnightblue" d="M140.034,-280.399C148.191,-271.575 158.722,-260.183 167.194,-251.018"/>
<polygon fill="midnightblue" stroke="midnightblue" points="169.779,-253.377 173.997,-243.658 164.639,-248.625 169.779,-253.377"/>
</g>
<!-- Node6&#45;&gt;Node5 -->
<g id="edge8" class="edge"><title>Node6&#45;&gt;Node5</title>
<path fill="none" stroke="midnightblue" d="M492.134,-285.975C426.544,-275.194 313.746,-256.654 243.772,-245.153"/>
<polygon fill="midnightblue" stroke="midnightblue" points="244.205,-241.677 233.77,-243.509 243.069,-248.585 244.205,-241.677"/>
</g>
<!-- Node7 -->
<g id="node7" class="node"><title>Node7</title>
<polygon fill="none" stroke="#bfbfbf" points="740,-224.5 740,-243.5 832,-243.5 832,-224.5 740,-224.5"/>
<text text-anchor="middle" x="786" y="-231.5" font-family="Helvetica,sans-Serif" font-size="10.00">Common/Timer.h</text>
</g>
<!-- Node6&#45;&gt;Node7 -->
<g id="edge6" class="edge"><title>Node6&#45;&gt;Node7</title>
<path fill="none" stroke="midnightblue" d="M578.673,-285.975C621.532,-275.437 694.543,-257.486 741.499,-245.941"/>
<polygon fill="midnightblue" stroke="midnightblue" points="742.516,-249.296 751.392,-243.509 740.845,-242.498 742.516,-249.296"/>
</g>
<!-- Node8 -->
<g id="node8" class="node"><title>Node8</title>
<polygon fill="none" stroke="#bfbfbf" points="282,-224.5 282,-243.5 380,-243.5 380,-224.5 282,-224.5"/>
<text text-anchor="middle" x="331" y="-231.5" font-family="Helvetica,sans-Serif" font-size="10.00">Framework/Task.h</text>
</g>
<!-- Node6&#45;&gt;Node8 -->
<g id="edge7" class="edge"><title>Node6&#45;&gt;Node8</title>
<path fill="none" stroke="midnightblue" d="M513.482,-285.975C476.075,-275.526 412.573,-257.787 371.213,-246.233"/>
<polygon fill="midnightblue" stroke="midnightblue" points="372.034,-242.829 361.461,-243.509 370.151,-249.571 372.034,-242.829"/>
</g>
<!-- Node6&#45;&gt;Node9 -->
<g id="edge9" class="edge"><title>Node6&#45;&gt;Node9</title>
<path fill="none" stroke="midnightblue" d="M594,-285.925C605.799,-283.942 618.338,-281.866 630,-280 708.374,-267.456 798.533,-253.922 858.763,-245.009"/>
<polygon fill="midnightblue" stroke="midnightblue" points="859.527,-248.434 868.907,-243.51 858.503,-241.51 859.527,-248.434"/>
</g>
<!-- Node10 -->
<g id="node10" class="node"><title>Node10</title>
<polygon fill="none" stroke="#bfbfbf" points="398.5,-224.5 398.5,-243.5 515.5,-243.5 515.5,-224.5 398.5,-224.5"/>
<text text-anchor="middle" x="457" y="-231.5" font-family="Helvetica,sans-Serif" font-size="10.00">Headers/DataHeader.h</text>
</g>
<!-- Node6&#45;&gt;Node10 -->
<g id="edge10" class="edge"><title>Node6&#45;&gt;Node10</title>
<path fill="none" stroke="midnightblue" d="M531.535,-285.975C517.581,-276.431 494.735,-260.807 478.009,-249.368"/>
<polygon fill="midnightblue" stroke="midnightblue" points="479.672,-246.265 469.442,-243.509 475.72,-252.043 479.672,-246.265"/>
</g>
<!-- Node11 -->
<g id="node11" class="node"><title>Node11</title>
<g id="a_node11"><a xlink:href="TaskConfig_8h.html" target="_top" xlink:title="QualityControl/TaskConfig.h">
<polygon fill="none" stroke="black" points="316,-112.5 316,-131.5 456,-131.5 456,-112.5 316,-112.5"/>
<text text-anchor="middle" x="386" y="-119.5" font-family="Helvetica,sans-Serif" font-size="10.00">QualityControl/TaskConfig.h</text>
</a>
</g>
</g>
<!-- Node6&#45;&gt;Node11 -->
<g id="edge11" class="edge"><title>Node6&#45;&gt;Node11</title>
<path fill="none" stroke="midnightblue" d="M544.29,-285.595C544.257,-270.493 541.827,-239.946 524,-224 451.461,-159.115 370.908,-262.26 308,-188 290.188,-166.974 323.217,-147.389 351.635,-135.325"/>
<polygon fill="midnightblue" stroke="midnightblue" points="353.058,-138.525 361.016,-131.531 350.433,-132.036 353.058,-138.525"/>
</g>
<!-- Node13 -->
<g id="node13" class="node"><title>Node13</title>
<g id="a_node13"><a xlink:href="TaskInterface_8h.html" target="_top" xlink:title="QualityControl/TaskInterface.h">
<polygon fill="none" stroke="black" points="572,-224.5 572,-243.5 722,-243.5 722,-224.5 572,-224.5"/>
<text text-anchor="middle" x="647" y="-231.5" font-family="Helvetica,sans-Serif" font-size="10.00">QualityControl/TaskInterface.h</text>
</a>
</g>
</g>
<!-- Node6&#45;&gt;Node13 -->
<g id="edge14" class="edge"><title>Node6&#45;&gt;Node13</title>
<path fill="none" stroke="midnightblue" d="M558.757,-285.975C575.661,-276.211 603.583,-260.081 623.49,-248.581"/>
<polygon fill="midnightblue" stroke="midnightblue" points="625.362,-251.542 632.27,-243.509 621.86,-245.481 625.362,-251.542"/>
</g>
<!-- Node11&#45;&gt;Node3 -->
<g id="edge12" class="edge"><title>Node11&#45;&gt;Node3</title>
<path fill="none" stroke="midnightblue" d="M379.544,-112.06C370.665,-98.5708 357.161,-72.8091 370,-56 386.234,-34.7459 461.327,-21.1212 504.402,-14.9131"/>
<polygon fill="midnightblue" stroke="midnightblue" points="504.93,-18.3733 514.353,-13.5286 503.966,-11.4401 504.93,-18.3733"/>
</g>
<!-- Node12 -->
<g id="node12" class="node"><title>Node12</title>
<polygon fill="none" stroke="#bfbfbf" points="379.5,-56.5 379.5,-75.5 462.5,-75.5 462.5,-56.5 379.5,-56.5"/>
<text text-anchor="middle" x="421" y="-63.5" font-family="Helvetica,sans-Serif" font-size="10.00">unordered_map</text>
</g>
<!-- Node11&#45;&gt;Node12 -->
<g id="edge13" class="edge"><title>Node11&#45;&gt;Node12</title>
<path fill="none" stroke="midnightblue" d="M391.78,-112.083C396.672,-104.534 403.827,-93.4948 409.833,-84.2298"/>
<polygon fill="midnightblue" stroke="midnightblue" points="412.826,-86.0463 415.328,-75.7511 406.952,-82.239 412.826,-86.0463"/>
</g>
<!-- Node13&#45;&gt;Node3 -->
<g id="edge17" class="edge"><title>Node13&#45;&gt;Node3</title>
<path fill="none" stroke="midnightblue" d="M720.812,-224.489C781.832,-216.536 862.993,-203.569 892,-188 956.614,-153.318 1040.24,-110.341 991,-56 976.666,-40.1813 665.702,-19.2481 565.687,-12.9024"/>
<polygon fill="midnightblue" stroke="midnightblue" points="565.819,-9.40392 555.619,-12.2678 565.379,-16.3901 565.819,-9.40392"/>
</g>
<!-- Node13&#45;&gt;Node12 -->
<g id="edge18" class="edge"><title>Node13&#45;&gt;Node12</title>
<path fill="none" stroke="midnightblue" d="M646.606,-224.287C645.54,-210.633 641.591,-184.095 627,-168 599.17,-137.301 578.375,-149.89 541,-132 506.851,-115.654 468.581,-94.39 444.638,-80.7156"/>
<polygon fill="midnightblue" stroke="midnightblue" points="446.319,-77.6447 435.904,-75.7004 442.833,-83.7152 446.319,-77.6447"/>
</g>
<!-- Node14 -->
<g id="node14" class="node"><title>Node14</title>
<polygon fill="none" stroke="#bfbfbf" points="946.5,-56.5 946.5,-75.5 981.5,-75.5 981.5,-56.5 946.5,-56.5"/>
<text text-anchor="middle" x="964" y="-63.5" font-family="Helvetica,sans-Serif" font-size="10.00">map</text>
</g>
<!-- Node13&#45;&gt;Node14 -->
<g id="edge15" class="edge"><title>Node13&#45;&gt;Node14</title>
<path fill="none" stroke="midnightblue" d="M713.364,-224.48C768.419,-216.5 841.633,-203.497 867,-188 908.968,-162.361 940.43,-111.706 955.012,-84.7881"/>
<polygon fill="midnightblue" stroke="midnightblue" points="958.215,-86.2168 959.761,-75.7353 952.016,-82.965 958.215,-86.2168"/>
</g>
<!-- Node15 -->
<g id="node15" class="node"><title>Node15</title>
<polygon fill="none" stroke="#bfbfbf" points="850,-112.5 850,-131.5 902,-131.5 902,-112.5 850,-112.5"/>
<text text-anchor="middle" x="876" y="-119.5" font-family="Helvetica,sans-Serif" font-size="10.00">memory</text>
</g>
<!-- Node13&#45;&gt;Node15 -->
<g id="edge16" class="edge"><title>Node13&#45;&gt;Node15</title>
<path fill="none" stroke="midnightblue" d="M712.743,-224.496C762.511,-216.911 825.66,-204.462 846,-188 860.32,-176.411 868.114,-156.453 872.139,-141.701"/>
<polygon fill="midnightblue" stroke="midnightblue" points="875.619,-142.199 874.528,-131.66 868.809,-140.578 875.619,-142.199"/>
</g>
<!-- Node16 -->
<g id="node16" class="node"><title>Node16</title>
<polygon fill="none" stroke="#bfbfbf" points="1038.5,-168.5 1038.5,-187.5 1163.5,-187.5 1163.5,-168.5 1038.5,-168.5"/>
<text text-anchor="middle" x="1101" y="-175.5" font-family="Helvetica,sans-Serif" font-size="10.00">Framework/InitContext.h</text>
</g>
<!-- Node13&#45;&gt;Node16 -->
<g id="edge19" class="edge"><title>Node13&#45;&gt;Node16</title>
<path fill="none" stroke="midnightblue" d="M718.687,-224.473C803.326,-214.406 943.309,-197.756 1028.36,-187.64"/>
<polygon fill="midnightblue" stroke="midnightblue" points="1028.94,-191.096 1038.45,-186.439 1028.11,-184.145 1028.94,-191.096"/>
</g>
<!-- Node17 -->
<g id="node17" class="node"><title>Node17</title>
<polygon fill="none" stroke="#bfbfbf" points="317,-168.5 317,-187.5 477,-187.5 477,-168.5 317,-168.5"/>
<text text-anchor="middle" x="397" y="-175.5" font-family="Helvetica,sans-Serif" font-size="10.00">Framework/ProcessingContext.h</text>
</g>
<!-- Node13&#45;&gt;Node17 -->
<g id="edge20" class="edge"><title>Node13&#45;&gt;Node17</title>
<path fill="none" stroke="midnightblue" d="M607.387,-224.444C563.775,-215.023 493.6,-199.866 446.422,-189.675"/>
<polygon fill="midnightblue" stroke="midnightblue" points="446.941,-186.207 436.428,-187.516 445.464,-193.049 446.941,-186.207"/>
</g>
<!-- Node18 -->
<g id="node18" class="node"><title>Node18</title>
<g id="a_node18"><a xlink:href="Activity_8h.html" target="_top" xlink:title="QualityControl/Activity.h">
<polygon fill="none" stroke="black" points="495.5,-168.5 495.5,-187.5 618.5,-187.5 618.5,-168.5 495.5,-168.5"/>
<text text-anchor="middle" x="557" y="-175.5" font-family="Helvetica,sans-Serif" font-size="10.00">QualityControl/Activity.h</text>
</a>
</g>
</g>
<!-- Node13&#45;&gt;Node18 -->
<g id="edge21" class="edge"><title>Node13&#45;&gt;Node18</title>
<path fill="none" stroke="midnightblue" d="M632.54,-224.324C618.5,-215.9 596.952,-202.971 580.457,-193.074"/>
<polygon fill="midnightblue" stroke="midnightblue" points="581.8,-189.798 571.424,-187.655 578.198,-195.801 581.8,-189.798"/>
</g>
<!-- Node19 -->
<g id="node19" class="node"><title>Node19</title>
<g id="a_node19"><a xlink:href="ObjectsManager_8h.html" target="_top" xlink:title="QualityControl/ObjectsManager.h">
<polygon fill="none" stroke="black" points="675.5,-168.5 675.5,-187.5 836.5,-187.5 836.5,-168.5 675.5,-168.5"/>
<text text-anchor="middle" x="756" y="-175.5" font-family="Helvetica,sans-Serif" font-size="10.00">QualityControl/ObjectsManager.h</text>
</a>
</g>
</g>
<!-- Node13&#45;&gt;Node19 -->
<g id="edge22" class="edge"><title>Node13&#45;&gt;Node19</title>
<path fill="none" stroke="midnightblue" d="M664.513,-224.324C682.072,-215.625 709.331,-202.12 729.531,-192.113"/>
<polygon fill="midnightblue" stroke="midnightblue" points="731.124,-195.23 738.531,-187.655 728.016,-188.958 731.124,-195.23"/>
</g>
<!-- Node19&#45;&gt;Node3 -->
<g id="edge34" class="edge"><title>Node19&#45;&gt;Node3</title>
<path fill="none" stroke="midnightblue" d="M680.476,-168.495C622.882,-157.58 547.307,-132.693 510,-76 500.077,-60.9211 510.231,-41.3227 520.419,-27.6048"/>
<polygon fill="midnightblue" stroke="midnightblue" points="523.363,-29.5298 526.909,-19.5459 517.911,-25.1394 523.363,-29.5298"/>
</g>
<!-- Node19&#45;&gt;Node11 -->
<g id="edge33" class="edge"><title>Node19&#45;&gt;Node11</title>
<path fill="none" stroke="midnightblue" d="M697.372,-168.444C631.338,-158.806 524.157,-143.163 454.369,-132.978"/>
<polygon fill="midnightblue" stroke="midnightblue" points="454.754,-129.497 444.353,-131.516 453.743,-136.424 454.754,-129.497"/>
</g>
<!-- Node19&#45;&gt;Node15 -->
<g id="edge35" class="edge"><title>Node19&#45;&gt;Node15</title>
<path fill="none" stroke="midnightblue" d="M775.014,-168.444C794.588,-159.636 825.308,-145.812 847.729,-135.722"/>
<polygon fill="midnightblue" stroke="midnightblue" points="849.392,-138.812 857.075,-131.516 846.519,-132.428 849.392,-138.812"/>
</g>
<!-- Node20 -->
<g id="node20" class="node"><title>Node20</title>
<g id="a_node20"><a xlink:href="MonitorObject_8h.html" target="_top" xlink:title="QualityControl/MonitorObject.h">
<polygon fill="none" stroke="black" points="680.5,-112.5 680.5,-131.5 831.5,-131.5 831.5,-112.5 680.5,-112.5"/>
<text text-anchor="middle" x="756" y="-119.5" font-family="Helvetica,sans-Serif" font-size="10.00">QualityControl/MonitorObject.h</text>
</a>
</g>
</g>
<!-- Node19&#45;&gt;Node20 -->
<g id="edge23" class="edge"><title>Node19&#45;&gt;Node20</title>
<path fill="none" stroke="midnightblue" d="M756,-168.083C756,-161.006 756,-150.861 756,-141.986"/>
<polygon fill="midnightblue" stroke="midnightblue" points="759.5,-141.751 756,-131.751 752.5,-141.751 759.5,-141.751"/>
</g>
<!-- Node24 -->
<g id="node24" class="node"><title>Node24</title>
<g id="a_node24"><a xlink:href="Quality_8h.html" target="_top" xlink:title="QualityControl/Quality.h">
<polygon fill="none" stroke="black" points="519.5,-56.5 519.5,-75.5 640.5,-75.5 640.5,-56.5 519.5,-56.5"/>
<text text-anchor="middle" x="580" y="-63.5" font-family="Helvetica,sans-Serif" font-size="10.00">QualityControl/Quality.h</text>
</a>
</g>
</g>
<!-- Node19&#45;&gt;Node24 -->
<g id="edge32" class="edge"><title>Node19&#45;&gt;Node24</title>
<path fill="none" stroke="midnightblue" d="M738.598,-168.469C721.362,-159.837 694.378,-145.827 672,-132 646.122,-116.011 617.726,-95.4548 599.426,-81.7847"/>
<polygon fill="midnightblue" stroke="midnightblue" points="601.404,-78.8927 591.309,-75.6772 597.195,-84.4863 601.404,-78.8927"/>
</g>
<!-- Node20&#45;&gt;Node3 -->
<g id="edge24" class="edge"><title>Node20&#45;&gt;Node3</title>
<path fill="none" stroke="midnightblue" d="M765.26,-112.148C778.137,-98.7745 798.338,-73.1614 784,-56 756.5,-23.0844 626.072,-14.201 565.742,-11.8386"/>
<polygon fill="midnightblue" stroke="midnightblue" points="565.789,-8.33819 555.671,-11.4799 565.54,-15.3338 565.789,-8.33819"/>
</g>
<!-- Node20&#45;&gt;Node14 -->
<g id="edge25" class="edge"><title>Node20&#45;&gt;Node14</title>
<path fill="none" stroke="midnightblue" d="M794.974,-112.443C829.916,-104.532 882.748,-91.9832 936.718,-76.1963"/>
<polygon fill="midnightblue" stroke="midnightblue" points="937.852,-79.5109 946.448,-73.3179 935.866,-72.7985 937.852,-79.5109"/>
</g>
<!-- Node21 -->
<g id="node21" class="node"><title>Node21</title>
<polygon fill="none" stroke="#bfbfbf" points="682,-0.5 682,-19.5 738,-19.5 738,-0.5 682,-0.5"/>
<text text-anchor="middle" x="710" y="-7.5" font-family="Helvetica,sans-Serif" font-size="10.00">Rtypes.h</text>
</g>
<!-- Node20&#45;&gt;Node21 -->
<g id="edge26" class="edge"><title>Node20&#45;&gt;Node21</title>
<path fill="none" stroke="midnightblue" d="M774.957,-112.371C797.978,-100.65 831.985,-78.5589 817,-56 801.779,-33.0867 772.369,-21.8146 748.229,-16.2837"/>
<polygon fill="midnightblue" stroke="midnightblue" points="748.761,-12.8201 738.262,-14.2477 747.36,-19.6785 748.761,-12.8201"/>
</g>
<!-- Node22 -->
<g id="node22" class="node"><title>Node22</title>
<polygon fill="none" stroke="#bfbfbf" points="869.5,-56.5 869.5,-75.5 928.5,-75.5 928.5,-56.5 869.5,-56.5"/>
<text text-anchor="middle" x="899" y="-63.5" font-family="Helvetica,sans-Serif" font-size="10.00">TObject.h</text>
</g>
<!-- Node20&#45;&gt;Node22 -->
<g id="edge27" class="edge"><title>Node20&#45;&gt;Node22</title>
<path fill="none" stroke="midnightblue" d="M778.659,-112.444C802.402,-103.478 839.909,-89.314 866.738,-79.1827"/>
<polygon fill="midnightblue" stroke="midnightblue" points="868.329,-82.3235 876.447,-75.5164 865.856,-75.7749 868.329,-82.3235"/>
</g>
<!-- Node23 -->
<g id="node23" class="node"><title>Node23</title>
<polygon fill="none" stroke="#bfbfbf" points="659,-56.5 659,-75.5 775,-75.5 775,-56.5 659,-56.5"/>
<text text-anchor="middle" x="717" y="-63.5" font-family="Helvetica,sans-Serif" font-size="10.00">Common/Exceptions.h</text>
</g>
<!-- Node20&#45;&gt;Node23 -->
<g id="edge28" class="edge"><title>Node20&#45;&gt;Node23</title>
<path fill="none" stroke="midnightblue" d="M749.56,-112.083C744.051,-104.455 735.969,-93.2645 729.235,-83.9408"/>
<polygon fill="midnightblue" stroke="midnightblue" points="732.013,-81.8087 723.32,-75.7511 726.338,-85.9071 732.013,-81.8087"/>
</g>
<!-- Node20&#45;&gt;Node24 -->
<g id="edge29" class="edge"><title>Node20&#45;&gt;Node24</title>
<path fill="none" stroke="midnightblue" d="M728.112,-112.444C698.246,-103.28 650.685,-88.6876 617.544,-78.5192"/>
<polygon fill="midnightblue" stroke="midnightblue" points="618.344,-75.1037 607.757,-75.5164 616.291,-81.7958 618.344,-75.1037"/>
</g>
<!-- Node24&#45;&gt;Node3 -->
<g id="edge31" class="edge"><title>Node24&#45;&gt;Node3</title>
<path fill="none" stroke="midnightblue" d="M572.569,-56.083C566.147,-48.3768 556.694,-37.0333 548.878,-27.6531"/>
<polygon fill="midnightblue" stroke="midnightblue" points="551.383,-25.1927 542.293,-19.7511 546.006,-29.674 551.383,-25.1927"/>
</g>
<!-- Node24&#45;&gt;Node21 -->
<g id="edge30" class="edge"><title>Node24&#45;&gt;Node21</title>
<path fill="none" stroke="midnightblue" d="M600.599,-56.4435C621.993,-47.5566 655.681,-33.5632 680.024,-23.4514"/>
<polygon fill="midnightblue" stroke="midnightblue" points="681.605,-26.5848 689.497,-19.5164 678.92,-20.1203 681.605,-26.5848"/>
</g>
</g>
</svg>
        <g id="navigator" transform="translate(0 0)" fill="#404254">
                <rect fill="#f2f5e9" fill-opacity="0.5" stroke="#606060" stroke-width=".5" x="0" y="0" width="60" height="60"/>
                <use id="zoomplus" xlink:href="#zoomPlus" x="17" y="9" onmousedown="handleZoom(evt,'in')"/>
                <use id="zoomminus" xlink:href="#zoomMin" x="42" y="9" onmousedown="handleZoom(evt,'out')"/>
                <use id="reset" xlink:href="#resetDef" x="30" y="36" onmousedown="handleReset()"/>
                <g id="arrowUp" xlink:href="#dirArrow" transform="translate(30 24)" onmousedown="handlePan(0,-1)">
                  <use xlink:href="#rim" fill="#404040">
                        <set attributeName="fill" to="#808080" begin="arrowUp.mouseover" end="arrowUp.mouseout"/>
                  </use>
                  <path fill="none" stroke="white" stroke-width="1.5" d="M0,-3.0v7 M-2.5,-0.5L0,-3.0L2.5,-0.5"/>
                </g>
                <g id="arrowRight" xlink:href="#dirArrow" transform="rotate(90) translate(36 -43)" onmousedown="handlePan(1,0)">
                  <use xlink:href="#rim" fill="#404040">
                        <set attributeName="fill" to="#808080" begin="arrowRight.mouseover" end="arrowRight.mouseout"/>
                  </use>
                  <path fill="none" stroke="white" stroke-width="1.5" d="M0,-3.0v7 M-2.5,-0.5L0,-3.0L2.5,-0.5"/>
                </g>
                <g id="arrowDown" xlink:href="#dirArrow" transform="rotate(180) translate(-30 -48)" onmousedown="handlePan(0,1)">
                  <use xlink:href="#rim" fill="#404040">
                        <set attributeName="fill" to="#808080" begin="arrowDown.mouseover" end="arrowDown.mouseout"/>
                  </use>
                  <path fill="none" stroke="white" stroke-width="1.5" d="M0,-3.0v7 M-2.5,-0.5L0,-3.0L2.5,-0.5"/>
                </g>
                <g id="arrowLeft" xlink:href="#dirArrow" transform="rotate(270) translate(-36 17)" onmousedown="handlePan(-1,0)">
                  <use xlink:href="#rim" fill="#404040">
                        <set attributeName="fill" to="#808080" begin="arrowLeft.mouseover" end="arrowLeft.mouseout"/>
                  </use>
                  <path fill="none" stroke="white" stroke-width="1.5" d="M0,-3.0v7 M-2.5,-0.5L0,-3.0L2.5,-0.5"/>
                </g>
        </g>
        <svg viewBox="0 0 15 15" width="100%" height="30px" preserveAspectRatio="xMaxYMin meet">
         <g id="arrow_out" transform="scale(0.3 0.3)">
          <a xlink:href="TaskRunnerFactory_8cxx__incl_org.svg" target="_base">
           <rect id="button" ry="5" rx="5" y="6" x="6" height="38" width="38"
                fill="#f2f5e9" fill-opacity="0.5" stroke="#606060" stroke-width="1.0"/>
           <path id="arrow"
             d="M 11.500037,31.436501 C 11.940474,20.09759 22.043105,11.32322 32.158766,21.979434 L 37.068811,17.246167 C 37.068811,17.246167 37.088388,32 37.088388,32 L 22.160133,31.978069 C 22.160133,31.978069 26.997745,27.140456 26.997745,27.140456 C 18.528582,18.264221 13.291696,25.230495 11.500037,31.436501 z"
             style="fill:#404040;"/>
          </a>
         </g>
        </svg>
</svg>
