<?xml version="1.0" encoding="UTF-8" standalone="no"?>
<!DOCTYPE svg PUBLIC "-//W3C//DTD SVG 1.1//EN"
 "http://www.w3.org/Graphics/SVG/1.1/DTD/svg11.dtd">
<!-- Generated by graphviz version 2.38.0 (20140413.2041)
 -->
<!-- Title: Framework/include/QualityControl/TaskRunner.h Pages: 1 -->
<svg width="1210pt" height="319pt"
 viewBox="0.00 0.00 1210.28 319.00" xmlns="http://www.w3.org/2000/svg" xmlns:xlink="http://www.w3.org/1999/xlink">
<g id="graph0" class="graph" transform="scale(1 1) rotate(0) translate(4 315)">
<title>Framework/include/QualityControl/TaskRunner.h</title>
<!-- Node1 -->
<g id="node1" class="node"><title>Node1</title>
<polygon fill="#bfbfbf" stroke="black" points="418.5,-280.5 418.5,-310.5 551.5,-310.5 551.5,-280.5 418.5,-280.5"/>
<text text-anchor="start" x="426.5" y="-298.5" font-family="Helvetica,sans-Serif" font-size="10.00">Framework/include/Quality</text>
<text text-anchor="middle" x="485" y="-287.5" font-family="Helvetica,sans-Serif" font-size="10.00">Control/TaskRunner.h</text>
</g>
<!-- Node2 -->
<g id="node2" class="node"><title>Node2</title>
<polygon fill="none" stroke="#bfbfbf" points="0,-224.5 0,-243.5 92,-243.5 92,-224.5 0,-224.5"/>
<text text-anchor="middle" x="46" y="-231.5" font-family="Helvetica,sans-Serif" font-size="10.00">Common/Timer.h</text>
</g>
<!-- Node1&#45;&gt;Node2 -->
<g id="edge1" class="edge"><title>Node1&#45;&gt;Node2</title>
<path fill="none" stroke="midnightblue" d="M418.315,-286.376C343.825,-277.155 219.386,-261.318 102.405,-244.17"/>
<polygon fill="midnightblue" stroke="midnightblue" points="102.6,-240.661 92.1971,-242.668 101.581,-247.587 102.6,-240.661"/>
</g>
<!-- Node3 -->
<g id="node3" class="node"><title>Node3</title>
<polygon fill="none" stroke="#bfbfbf" points="110,-224.5 110,-243.5 208,-243.5 208,-224.5 110,-224.5"/>
<text text-anchor="middle" x="159" y="-231.5" font-family="Helvetica,sans-Serif" font-size="10.00">Framework/Task.h</text>
</g>
<!-- Node1&#45;&gt;Node3 -->
<g id="edge2" class="edge"><title>Node1&#45;&gt;Node3</title>
<path fill="none" stroke="midnightblue" d="M418.242,-282.316C358.618,-271.433 272.226,-255.666 215.837,-245.374"/>
<polygon fill="midnightblue" stroke="midnightblue" points="216.136,-241.87 205.67,-243.518 214.879,-248.757 216.136,-241.87"/>
</g>
<!-- Node4 -->
<g id="node4" class="node"><title>Node4</title>
<polygon fill="none" stroke="#bfbfbf" points="226,-224.5 226,-243.5 390,-243.5 390,-224.5 226,-224.5"/>
<text text-anchor="middle" x="308" y="-231.5" font-family="Helvetica,sans-Serif" font-size="10.00">Framework/DataProcessorSpec.h</text>
</g>
<!-- Node1&#45;&gt;Node4 -->
<g id="edge3" class="edge"><title>Node1&#45;&gt;Node4</title>
<path fill="none" stroke="midnightblue" d="M443.053,-280.399C412.602,-270.163 371.87,-256.47 343.127,-246.808"/>
<polygon fill="midnightblue" stroke="midnightblue" points="344.091,-243.44 333.497,-243.571 341.86,-250.075 344.091,-243.44"/>
</g>
<!-- Node5 -->
<g id="node5" class="node"><title>Node5</title>
<polygon fill="none" stroke="#bfbfbf" points="408.5,-224.5 408.5,-243.5 561.5,-243.5 561.5,-224.5 408.5,-224.5"/>
<text text-anchor="middle" x="485" y="-231.5" font-family="Helvetica,sans-Serif" font-size="10.00">Framework/CompletionPolicy.h</text>
</g>
<!-- Node1&#45;&gt;Node5 -->
<g id="edge4" class="edge"><title>Node1&#45;&gt;Node5</title>
<path fill="none" stroke="midnightblue" d="M485,-280.399C485,-272.466 485,-262.458 485,-253.858"/>
<polygon fill="midnightblue" stroke="midnightblue" points="488.5,-253.658 485,-243.658 481.5,-253.658 488.5,-253.658"/>
</g>
<!-- Node6 -->
<g id="node6" class="node"><title>Node6</title>
<polygon fill="none" stroke="#bfbfbf" points="579.5,-224.5 579.5,-243.5 696.5,-243.5 696.5,-224.5 579.5,-224.5"/>
<text text-anchor="middle" x="638" y="-231.5" font-family="Helvetica,sans-Serif" font-size="10.00">Headers/DataHeader.h</text>
</g>
<!-- Node1&#45;&gt;Node6 -->
<g id="edge5" class="edge"><title>Node1&#45;&gt;Node6</title>
<path fill="none" stroke="midnightblue" d="M521.259,-280.399C547.044,-270.372 581.357,-257.028 606.101,-247.405"/>
<polygon fill="midnightblue" stroke="midnightblue" points="607.686,-250.544 615.737,-243.658 605.149,-244.02 607.686,-250.544"/>
</g>
<!-- Node7 -->
<g id="node7" class="node"><title>Node7</title>
<g id="a_node7"><a xlink:href="TaskConfig_8h.html" target="_top" xlink:title="QualityControl/TaskConfig.h">
<polygon fill="none" stroke="black" points="823,-112.5 823,-131.5 963,-131.5 963,-112.5 823,-112.5"/>
<text text-anchor="middle" x="893" y="-119.5" font-family="Helvetica,sans-Serif" font-size="10.00">QualityControl/TaskConfig.h</text>
</a>
</g>
</g>
<!-- Node1&#45;&gt;Node7 -->
<g id="edge6" class="edge"><title>Node1&#45;&gt;Node7</title>
<path fill="none" stroke="midnightblue" d="M551.724,-294.963C710.28,-294.479 1102.34,-283.45 1182,-188 1187.7,-181.176 1187.78,-174.752 1182,-168 1155.57,-137.133 1049.21,-127.273 973.204,-124.218"/>
<polygon fill="midnightblue" stroke="midnightblue" points="973.283,-120.718 963.16,-123.846 973.024,-127.713 973.283,-120.718"/>
</g>
<!-- Node10 -->
<g id="node10" class="node"><title>Node10</title>
<g id="a_node10"><a xlink:href="TaskInterface_8h.html" target="_top" xlink:title="QualityControl/TaskInterface.h">
<polygon fill="none" stroke="black" points="715,-224.5 715,-243.5 865,-243.5 865,-224.5 715,-224.5"/>
<text text-anchor="middle" x="790" y="-231.5" font-family="Helvetica,sans-Serif" font-size="10.00">QualityControl/TaskInterface.h</text>
</a>
</g>
</g>
<!-- Node1&#45;&gt;Node10 -->
<g id="edge9" class="edge"><title>Node1&#45;&gt;Node10</title>
<path fill="none" stroke="midnightblue" d="M551.557,-281.516C606.934,-270.713 684.76,-255.53 736.245,-245.487"/>
<polygon fill="midnightblue" stroke="midnightblue" points="737.031,-248.899 746.176,-243.549 735.691,-242.029 737.031,-248.899"/>
</g>
<!-- Node8 -->
<g id="node8" class="node"><title>Node8</title>
<polygon fill="none" stroke="#bfbfbf" points="767.5,-0.5 767.5,-19.5 808.5,-19.5 808.5,-0.5 767.5,-0.5"/>
<text text-anchor="middle" x="788" y="-7.5" font-family="Helvetica,sans-Serif" font-size="10.00">string</text>
</g>
<!-- Node7&#45;&gt;Node8 -->
<g id="edge7" class="edge"><title>Node7&#45;&gt;Node8</title>
<path fill="none" stroke="midnightblue" d="M899.264,-112.2C907.892,-98.8942 921.071,-73.3684 909,-56 888.811,-26.9516 847.521,-16.6168 818.824,-12.9621"/>
<polygon fill="midnightblue" stroke="midnightblue" points="818.827,-9.44266 808.513,-11.8634 818.086,-16.4033 818.827,-9.44266"/>
</g>
<!-- Node9 -->
<g id="node9" class="node"><title>Node9</title>
<polygon fill="none" stroke="#bfbfbf" points="816.5,-56.5 816.5,-75.5 899.5,-75.5 899.5,-56.5 816.5,-56.5"/>
<text text-anchor="middle" x="858" y="-63.5" font-family="Helvetica,sans-Serif" font-size="10.00">unordered_map</text>
</g>
<!-- Node7&#45;&gt;Node9 -->
<g id="edge8" class="edge"><title>Node7&#45;&gt;Node9</title>
<path fill="none" stroke="midnightblue" d="M887.22,-112.083C882.328,-104.534 875.173,-93.4948 869.167,-84.2298"/>
<polygon fill="midnightblue" stroke="midnightblue" points="872.048,-82.239 863.672,-75.7511 866.174,-86.0463 872.048,-82.239"/>
</g>
<!-- Node10&#45;&gt;Node8 -->
<g id="edge12" class="edge"><title>Node10&#45;&gt;Node8</title>
<path fill="none" stroke="midnightblue" d="M865.017,-229.679C972.917,-224.122 1161.31,-211.198 1182,-188 1290.8,-65.9977 928.618,-23.4295 818.672,-13.4785"/>
<polygon fill="midnightblue" stroke="midnightblue" points="818.822,-9.97831 808.554,-12.5912 818.21,-16.9515 818.822,-9.97831"/>
</g>
<!-- Node10&#45;&gt;Node9 -->
<g id="edge13" class="edge"><title>Node10&#45;&gt;Node9</title>
<path fill="none" stroke="midnightblue" d="M766.979,-224.492C741.644,-213.671 706.103,-193.314 719,-168 741.309,-124.214 792.466,-94.9572 826.105,-79.6618"/>
<polygon fill="midnightblue" stroke="midnightblue" points="827.756,-82.7597 835.51,-75.5399 824.946,-76.3483 827.756,-82.7597"/>
</g>
<!-- Node11 -->
<g id="node11" class="node"><title>Node11</title>
<polygon fill="none" stroke="#bfbfbf" points="297.5,-56.5 297.5,-75.5 332.5,-75.5 332.5,-56.5 297.5,-56.5"/>
<text text-anchor="middle" x="315" y="-63.5" font-family="Helvetica,sans-Serif" font-size="10.00">map</text>
</g>
<!-- Node10&#45;&gt;Node11 -->
<g id="edge10" class="edge"><title>Node10&#45;&gt;Node11</title>
<path fill="none" stroke="midnightblue" d="M714.662,-224.511C626.938,-214.302 491.157,-197.372 469,-188 410.254,-163.152 354.91,-109.746 329.528,-82.979"/>
<polygon fill="midnightblue" stroke="midnightblue" points="332.019,-80.5189 322.642,-75.5884 326.898,-85.2908 332.019,-80.5189"/>
</g>
<!-- Node12 -->
<g id="node12" class="node"><title>Node12</title>
<polygon fill="none" stroke="#bfbfbf" points="406,-112.5 406,-131.5 458,-131.5 458,-112.5 406,-112.5"/>
<text text-anchor="middle" x="432" y="-119.5" font-family="Helvetica,sans-Serif" font-size="10.00">memory</text>
</g>
<!-- Node10&#45;&gt;Node12 -->
<g id="edge11" class="edge"><title>Node10&#45;&gt;Node12</title>
<path fill="none" stroke="midnightblue" d="M721.329,-224.477C642.18,-214.315 520.442,-197.512 501,-188 478.015,-176.754 457.497,-155.191 444.928,-139.992"/>
<polygon fill="midnightblue" stroke="midnightblue" points="447.455,-137.547 438.488,-131.905 441.98,-141.908 447.455,-137.547"/>
</g>
<!-- Node13 -->
<g id="node13" class="node"><title>Node13</title>
<polygon fill="none" stroke="#bfbfbf" points="727.5,-168.5 727.5,-187.5 852.5,-187.5 852.5,-168.5 727.5,-168.5"/>
<text text-anchor="middle" x="790" y="-175.5" font-family="Helvetica,sans-Serif" font-size="10.00">Framework/InitContext.h</text>
</g>
<!-- Node10&#45;&gt;Node13 -->
<g id="edge14" class="edge"><title>Node10&#45;&gt;Node13</title>
<path fill="none" stroke="midnightblue" d="M790,-224.083C790,-217.006 790,-206.861 790,-197.986"/>
<polygon fill="midnightblue" stroke="midnightblue" points="793.5,-197.751 790,-187.751 786.5,-197.751 793.5,-197.751"/>
</g>
<!-- Node14 -->
<g id="node14" class="node"><title>Node14</title>
<polygon fill="none" stroke="#bfbfbf" points="871,-168.5 871,-187.5 1031,-187.5 1031,-168.5 871,-168.5"/>
<text text-anchor="middle" x="951" y="-175.5" font-family="Helvetica,sans-Serif" font-size="10.00">Framework/ProcessingContext.h</text>
</g>
<!-- Node10&#45;&gt;Node14 -->
<g id="edge15" class="edge"><title>Node10&#45;&gt;Node14</title>
<path fill="none" stroke="midnightblue" d="M815.511,-224.444C842.596,-215.359 885.59,-200.939 915.869,-190.783"/>
<polygon fill="midnightblue" stroke="midnightblue" points="917.24,-194.015 925.608,-187.516 915.014,-187.378 917.24,-194.015"/>
</g>
<!-- Node15 -->
<g id="node15" class="node"><title>Node15</title>
<g id="a_node15"><a xlink:href="Activity_8h.html" target="_top" xlink:title="QualityControl/Activity.h">
<polygon fill="none" stroke="black" points="1049.5,-168.5 1049.5,-187.5 1172.5,-187.5 1172.5,-168.5 1049.5,-168.5"/>
<text text-anchor="middle" x="1111" y="-175.5" font-family="Helvetica,sans-Serif" font-size="10.00">QualityControl/Activity.h</text>
</a>
</g>
</g>
<!-- Node10&#45;&gt;Node15 -->
<g id="edge16" class="edge"><title>Node10&#45;&gt;Node15</title>
<path fill="none" stroke="midnightblue" d="M840.863,-224.444C897.683,-214.885 989.617,-199.419 1050.19,-189.23"/>
<polygon fill="midnightblue" stroke="midnightblue" points="1051.09,-192.627 1060.37,-187.516 1049.93,-185.724 1051.09,-192.627"/>
</g>
<!-- Node16 -->
<g id="node16" class="node"><title>Node16</title>
<g id="a_node16"><a xlink:href="ObjectsManager_8h.html" target="_top" xlink:title="QualityControl/ObjectsManager.h">
<polygon fill="none" stroke="black" points="509.5,-168.5 509.5,-187.5 670.5,-187.5 670.5,-168.5 509.5,-168.5"/>
<text text-anchor="middle" x="590" y="-175.5" font-family="Helvetica,sans-Serif" font-size="10.00">QualityControl/ObjectsManager.h</text>
</a>
</g>
</g>
<!-- Node10&#45;&gt;Node16 -->
<g id="edge17" class="edge"><title>Node10&#45;&gt;Node16</title>
<path fill="none" stroke="midnightblue" d="M758.309,-224.444C723.932,-215.162 668.923,-200.309 631.211,-190.127"/>
<polygon fill="midnightblue" stroke="midnightblue" points="632.109,-186.744 621.542,-187.516 630.284,-193.502 632.109,-186.744"/>
</g>
<!-- Node16&#45;&gt;Node7 -->
<g id="edge28" class="edge"><title>Node16&#45;&gt;Node7</title>
<path fill="none" stroke="midnightblue" d="M638.011,-168.444C691.534,-158.905 778.065,-143.483 835.245,-133.293"/>
<polygon fill="midnightblue" stroke="midnightblue" points="835.983,-136.717 845.213,-131.516 834.754,-129.825 835.983,-136.717"/>
</g>
<!-- Node16&#45;&gt;Node8 -->
<g id="edge29" class="edge"><title>Node16&#45;&gt;Node8</title>
<path fill="none" stroke="midnightblue" d="M612.961,-168.45C648.179,-154.273 715.681,-122.749 756,-76 767.914,-62.1859 776.599,-43.1619 781.89,-29.2648"/>
<polygon fill="midnightblue" stroke="midnightblue" points="785.201,-30.4028 785.272,-19.8082 778.609,-28.0457 785.201,-30.4028"/>
</g>
<!-- Node16&#45;&gt;Node12 -->
<g id="edge30" class="edge"><title>Node16&#45;&gt;Node12</title>
<path fill="none" stroke="midnightblue" d="M564.964,-168.444C538.384,-159.359 496.191,-144.939 466.477,-134.783"/>
<polygon fill="midnightblue" stroke="midnightblue" points="467.513,-131.439 456.918,-131.516 465.249,-138.062 467.513,-131.439"/>
</g>
<!-- Node17 -->
<g id="node17" class="node"><title>Node17</title>
<g id="a_node17"><a xlink:href="MonitorObject_8h.html" target="_top" xlink:title="QualityControl/MonitorObject.h">
<polygon fill="none" stroke="black" points="514.5,-112.5 514.5,-131.5 665.5,-131.5 665.5,-112.5 514.5,-112.5"/>
<text text-anchor="middle" x="590" y="-119.5" font-family="Helvetica,sans-Serif" font-size="10.00">QualityControl/MonitorObject.h</text>
</a>
</g>
</g>
<!-- Node16&#45;&gt;Node17 -->
<g id="edge18" class="edge"><title>Node16&#45;&gt;Node17</title>
<path fill="none" stroke="midnightblue" d="M590,-168.083C590,-161.006 590,-150.861 590,-141.986"/>
<polygon fill="midnightblue" stroke="midnightblue" points="593.5,-141.751 590,-131.751 586.5,-141.751 593.5,-141.751"/>
</g>
<!-- Node21 -->
<g id="node21" class="node"><title>Node21</title>
<g id="a_node21"><a xlink:href="Quality_8h.html" target="_top" xlink:title="QualityControl/Quality.h">
<polygon fill="none" stroke="black" points="389.5,-56.5 389.5,-75.5 510.5,-75.5 510.5,-56.5 389.5,-56.5"/>
<text text-anchor="middle" x="450" y="-63.5" font-family="Helvetica,sans-Serif" font-size="10.00">QualityControl/Quality.h</text>
</a>
</g>
</g>
<!-- Node16&#45;&gt;Node21 -->
<g id="edge27" class="edge"><title>Node16&#45;&gt;Node21</title>
<path fill="none" stroke="midnightblue" d="M569.036,-168.385C551.214,-160.474 525.492,-147.625 506,-132 488.649,-118.091 472.489,-98.2979 462.033,-84.2145"/>
<polygon fill="midnightblue" stroke="midnightblue" points="464.723,-81.9606 456.03,-75.9034 459.048,-86.0593 464.723,-81.9606"/>
</g>
<!-- Node17&#45;&gt;Node8 -->
<g id="edge19" class="edge"><title>Node17&#45;&gt;Node8</title>
<path fill="none" stroke="midnightblue" d="M637.882,-112.483C666.58,-105.796 702.842,-94.4445 731,-76 749.951,-63.5867 766.37,-43.2153 776.654,-28.5853"/>
<polygon fill="midnightblue" stroke="midnightblue" points="779.796,-30.1876 782.492,-19.9417 773.995,-26.2698 779.796,-30.1876"/>
</g>
<!-- Node17&#45;&gt;Node11 -->
<g id="edge20" class="edge"><title>Node17&#45;&gt;Node11</title>
<path fill="none" stroke="midnightblue" d="M536.14,-112.473C486.704,-104.304 411.563,-91.0243 347,-76 345.525,-75.6566 344.015,-75.2891 342.494,-74.9059"/>
<polygon fill="midnightblue" stroke="midnightblue" points="343.096,-71.4437 332.531,-72.2409 341.287,-78.206 343.096,-71.4437"/>
</g>
<!-- Node18 -->
<g id="node18" class="node"><title>Node18</title>
<polygon fill="none" stroke="#bfbfbf" points="378,-0.5 378,-19.5 434,-19.5 434,-0.5 378,-0.5"/>
<text text-anchor="middle" x="406" y="-7.5" font-family="Helvetica,sans-Serif" font-size="10.00">Rtypes.h</text>
</g>
<!-- Node17&#45;&gt;Node18 -->
<g id="edge21" class="edge"><title>Node17&#45;&gt;Node18</title>
<path fill="none" stroke="midnightblue" d="M514.276,-114.685C461.213,-108.506 396.877,-96.8772 380,-76 368.484,-61.7544 379.54,-41.7525 390.581,-27.7101"/>
<polygon fill="midnightblue" stroke="midnightblue" points="393.455,-29.7326 397.253,-19.8416 388.116,-25.2058 393.455,-29.7326"/>
</g>
<!-- Node19 -->
<g id="node19" class="node"><title>Node19</title>
<polygon fill="none" stroke="#bfbfbf" points="528.5,-56.5 528.5,-75.5 587.5,-75.5 587.5,-56.5 528.5,-56.5"/>
<text text-anchor="middle" x="558" y="-63.5" font-family="Helvetica,sans-Serif" font-size="10.00">TObject.h</text>
</g>
<!-- Node17&#45;&gt;Node19 -->
<g id="edge22" class="edge"><title>Node17&#45;&gt;Node19</title>
<path fill="none" stroke="midnightblue" d="M584.716,-112.083C580.289,-104.613 573.837,-93.7244 568.382,-84.5199"/>
<polygon fill="midnightblue" stroke="midnightblue" points="571.295,-82.5697 563.186,-75.7511 565.273,-86.1383 571.295,-82.5697"/>
</g>
<!-- Node20 -->
<g id="node20" class="node"><title>Node20</title>
<polygon fill="none" stroke="#bfbfbf" points="606,-56.5 606,-75.5 722,-75.5 722,-56.5 606,-56.5"/>
<text text-anchor="middle" x="664" y="-63.5" font-family="Helvetica,sans-Serif" font-size="10.00">Common/Exceptions.h</text>
</g>
<!-- Node17&#45;&gt;Node20 -->
<g id="edge23" class="edge"><title>Node17&#45;&gt;Node20</title>
<path fill="none" stroke="midnightblue" d="M601.889,-112.324C613.15,-104.107 630.287,-91.6017 643.709,-81.8069"/>
<polygon fill="midnightblue" stroke="midnightblue" points="645.88,-84.5559 651.894,-75.8339 641.753,-78.9014 645.88,-84.5559"/>
</g>
<!-- Node17&#45;&gt;Node21 -->
<g id="edge24" class="edge"><title>Node17&#45;&gt;Node21</title>
<path fill="none" stroke="midnightblue" d="M567.817,-112.444C544.572,-103.478 507.851,-89.314 481.585,-79.1827"/>
<polygon fill="midnightblue" stroke="midnightblue" points="482.669,-75.8497 472.08,-75.5164 480.15,-82.3807 482.669,-75.8497"/>
</g>
<!-- Node21&#45;&gt;Node8 -->
<g id="edge26" class="edge"><title>Node21&#45;&gt;Node8</title>
<path fill="none" stroke="midnightblue" d="M503.557,-56.4435C575.23,-44.9929 699.967,-25.0645 757.423,-15.8851"/>
<polygon fill="midnightblue" stroke="midnightblue" points="758.018,-19.3345 767.341,-14.3006 756.914,-12.4221 758.018,-19.3345"/>
</g>
<!-- Node21&#45;&gt;Node18 -->
<g id="edge25" class="edge"><title>Node21&#45;&gt;Node18</title>
<path fill="none" stroke="midnightblue" d="M442.734,-56.083C436.455,-48.3768 427.212,-37.0333 419.569,-27.6531"/>
<polygon fill="midnightblue" stroke="midnightblue" points="422.161,-25.2926 413.131,-19.7511 416.734,-29.7143 422.161,-25.2926"/>
</g>
</g>
</svg>
