<?xml version="1.0" encoding="UTF-8" standalone="no"?>
<!DOCTYPE svg PUBLIC "-//W3C//DTD SVG 1.1//EN"
 "http://www.w3.org/Graphics/SVG/1.1/DTD/svg11.dtd">
<!-- Generated by graphviz version 2.38.0 (20140413.2041)
 -->
<!-- Title: Framework/include/QualityControl/TaskFactory.h Pages: 1 -->
<svg width="364pt" height="151pt"
 viewBox="0.00 0.00 363.50 151.00" xmlns="http://www.w3.org/2000/svg" xmlns:xlink="http://www.w3.org/1999/xlink">
<g id="graph0" class="graph" transform="scale(1 1) rotate(0) translate(4 147)">
<title>Framework/include/QualityControl/TaskFactory.h</title>
<!-- Node1 -->
<g id="node1" class="node"><title>Node1</title>
<polygon fill="#bfbfbf" stroke="black" points="61.5,-112.5 61.5,-142.5 194.5,-142.5 194.5,-112.5 61.5,-112.5"/>
<text text-anchor="start" x="69.5" y="-130.5" font-family="Helvetica,sans-Serif" font-size="10.00">Framework/include/Quality</text>
<text text-anchor="middle" x="128" y="-119.5" font-family="Helvetica,sans-Serif" font-size="10.00">Control/TaskFactory.h</text>
</g>
<!-- Node2 -->
<g id="node2" class="node"><title>Node2</title>
<polygon fill="none" stroke="#bfbfbf" points="0,-56.5 0,-75.5 52,-75.5 52,-56.5 0,-56.5"/>
<text text-anchor="middle" x="26" y="-63.5" font-family="Helvetica,sans-Serif" font-size="10.00">memory</text>
</g>
<!-- Node1&#45;&gt;Node2 -->
<g id="edge1" class="edge"><title>Node1&#45;&gt;Node2</title>
<path fill="none" stroke="midnightblue" d="M103.827,-112.399C87.4776,-102.862 65.9853,-90.3248 49.7295,-80.8422"/>
<polygon fill="midnightblue" stroke="midnightblue" points="51.2433,-77.6733 40.8419,-75.6578 47.7161,-83.7198 51.2433,-77.6733"/>
</g>
<!-- Node3 -->
<g id="node3" class="node"><title>Node3</title>
<polygon fill="none" stroke="#bfbfbf" points="70,-56.5 70,-75.5 186,-75.5 186,-56.5 70,-56.5"/>
<text text-anchor="middle" x="128" y="-63.5" font-family="Helvetica,sans-Serif" font-size="10.00">Common/Exceptions.h</text>
</g>
<!-- Node1&#45;&gt;Node3 -->
<g id="edge2" class="edge"><title>Node1&#45;&gt;Node3</title>
<path fill="none" stroke="midnightblue" d="M128,-112.399C128,-104.466 128,-94.458 128,-85.8583"/>
<polygon fill="midnightblue" stroke="midnightblue" points="131.5,-85.6577 128,-75.6578 124.5,-85.6578 131.5,-85.6577"/>
</g>
<!-- Node4 -->
<g id="node4" class="node"><title>Node4</title>
<g id="a_node4"><a xlink:href="TaskConfig_8h.html" target="_top" xlink:title="QualityControl/TaskConfig.h">
<polygon fill="none" stroke="black" points="204,-56.5 204,-75.5 344,-75.5 344,-56.5 204,-56.5"/>
<text text-anchor="middle" x="274" y="-63.5" font-family="Helvetica,sans-Serif" font-size="10.00">QualityControl/TaskConfig.h</text>
</a>
</g>
</g>
<!-- Node1&#45;&gt;Node4 -->
<g id="edge3" class="edge"><title>Node1&#45;&gt;Node4</title>
<path fill="none" stroke="midnightblue" d="M162.6,-112.399C187.096,-102.416 219.657,-89.1465 243.245,-79.5335"/>
<polygon fill="midnightblue" stroke="midnightblue" points="244.816,-82.673 252.756,-75.6578 242.174,-76.1906 244.816,-82.673"/>
</g>
<!-- Node5 -->
<g id="node5" class="node"><title>Node5</title>
<polygon fill="none" stroke="#bfbfbf" points="213.5,-0.5 213.5,-19.5 254.5,-19.5 254.5,-0.5 213.5,-0.5"/>
<text text-anchor="middle" x="234" y="-7.5" font-family="Helvetica,sans-Serif" font-size="10.00">string</text>
</g>
<!-- Node4&#45;&gt;Node5 -->
<g id="edge4" class="edge"><title>Node4&#45;&gt;Node5</title>
<path fill="none" stroke="midnightblue" d="M267.395,-56.083C261.745,-48.4554 253.455,-37.2645 246.549,-27.9408"/>
<polygon fill="midnightblue" stroke="midnightblue" points="249.247,-25.7034 240.482,-19.7511 243.622,-29.87 249.247,-25.7034"/>
</g>
<!-- Node6 -->
<g id="node6" class="node"><title>Node6</title>
<polygon fill="none" stroke="#bfbfbf" points="272.5,-0.5 272.5,-19.5 355.5,-19.5 355.5,-0.5 272.5,-0.5"/>
<text text-anchor="middle" x="314" y="-7.5" font-family="Helvetica,sans-Serif" font-size="10.00">unordered_map</text>
</g>
<!-- Node4&#45;&gt;Node6 -->
<g id="edge5" class="edge"><title>Node4&#45;&gt;Node6</title>
<path fill="none" stroke="midnightblue" d="M280.605,-56.083C286.255,-48.4554 294.545,-37.2645 301.451,-27.9408"/>
<polygon fill="midnightblue" stroke="midnightblue" points="304.378,-29.87 307.518,-19.7511 298.753,-25.7034 304.378,-29.87"/>
</g>
</g>
</svg>
