<?xml version="1.0" encoding="UTF-8" standalone="no"?>
<!DOCTYPE svg PUBLIC "-//W3C//DTD SVG 1.1//EN"
 "http://www.w3.org/Graphics/SVG/1.1/DTD/svg11.dtd">
<!-- Generated by graphviz version 2.38.0 (20140413.2041)
 -->
<!-- Title: Framework/include/QualityControl/TaskFactory.h Pages: 1 -->
<!--zoomable 106 -->
<svg id="main" version="1.1" xmlns="http://www.w3.org/2000/svg" xmlns:xlink="http://www.w3.org/1999/xlink" xml:space="preserve" onload="init(evt)">
<style type="text/css"><![CDATA[
.edge:hover path { stroke: red; }
.edge:hover polygon { stroke: red; fill: red; }
]]></style>
<script type="text/javascript"><![CDATA[
var edges = document.getElementsByTagName('g');
if (edges && edges.length) {
  for (var i=0;i<edges.length;i++) {
    if (edges[i].id.substr(0,4)=='edge') {
      edges[i].setAttribute('class','edge');
    }
  }
}
]]></script>
        <defs>
                <circle id="rim" cx="0" cy="0" r="7"/>
                <circle id="rim2" cx="0" cy="0" r="3.5"/>
                <g id="zoomPlus">
                        <use xlink:href="#rim" fill="#404040">
                                <set attributeName="fill" to="#808080" begin="zoomplus.mouseover" end="zoomplus.mouseout"/>
                        </use>
                        <path d="M-4,0h8M0,-4v8" fill="none" stroke="white" stroke-width="1.5" pointer-events="none"/>
                </g>
                <g id="zoomMin">
                        <use xlink:href="#rim" fill="#404040">
                                <set attributeName="fill" to="#808080" begin="zoomminus.mouseover" end="zoomminus.mouseout"/>
                        </use>
                        <path d="M-4,0h8" fill="none" stroke="white" stroke-width="1.5" pointer-events="none"/>
                </g>
                <g id="dirArrow">
                        <path fill="none" stroke="white" stroke-width="1.5" d="M0,-3.0v7 M-2.5,-0.5L0,-3.0L2.5,-0.5"/>
                </g>
               <g id="resetDef">
                       <use xlink:href="#rim2" fill="#404040">
                               <set attributeName="fill" to="#808080" begin="reset.mouseover" end="reset.mouseout"/>
                       </use>
               </g>
        </defs>

<script type="text/javascript">
var viewWidth = 1371;
var viewHeight = 106;
var sectionId = 'dynsection-1';
</script>
<script xlink:href="svgpan.js"/>
<svg id="graph" class="graph">
<g id="viewport">
<title>Framework/include/QualityControl/TaskFactory.h</title>
<!-- Node1 -->
<g id="node1" class="node"><title>Node1</title>
<polygon fill="#bfbfbf" stroke="black" points="671.5,-67.5 671.5,-97.5 804.5,-97.5 804.5,-67.5 671.5,-67.5"/>
<text text-anchor="start" x="679.5" y="-85.5" font-family="Helvetica,sans-Serif" font-size="10.00">Framework/include/Quality</text>
<text text-anchor="middle" x="738" y="-74.5" font-family="Helvetica,sans-Serif" font-size="10.00">Control/TaskFactory.h</text>
</g>
<!-- Node2 -->
<g id="node2" class="node"><title>Node2</title>
<g id="a_node2"><a xlink:href="TaskFactory_8cxx.html" target="_top" xlink:title="Framework/src/TaskFactory.cxx">
<polygon fill="none" stroke="black" points="0,-6 0,-25 158,-25 158,-6 0,-6"/>
<text text-anchor="middle" x="79" y="-13" font-family="Helvetica,sans-Serif" font-size="10.00">Framework/src/TaskFactory.cxx</text>
</a>
</g>
</g>
<!-- Node1&#45;&gt;Node2 -->
<g id="edge1" class="edge"><title>Node1&#45;&gt;Node2</title>
<path fill="none" stroke="midnightblue" d="M661.465,-76.5653C551.717,-69.0729 343.408,-53.3026 167,-31 153.943,-29.3492 139.855,-27.1961 126.86,-25.0562"/>
<polygon fill="midnightblue" stroke="midnightblue" points="661.237,-80.0578 671.451,-77.2427 661.711,-73.0739 661.237,-80.0578"/>
</g>
<!-- Node3 -->
<g id="node3" class="node"><title>Node3</title>
<g id="a_node3"><a xlink:href="TaskRunner_8cxx.html" target="_top" xlink:title="Framework/src/TaskRunner.cxx">
<polygon fill="none" stroke="black" points="176.5,-6 176.5,-25 333.5,-25 333.5,-6 176.5,-6"/>
<text text-anchor="middle" x="255" y="-13" font-family="Helvetica,sans-Serif" font-size="10.00">Framework/src/TaskRunner.cxx</text>
</a>
</g>
</g>
<!-- Node1&#45;&gt;Node3 -->
<g id="edge2" class="edge"><title>Node1&#45;&gt;Node3</title>
<path fill="none" stroke="midnightblue" d="M661.357,-72.6084C581.5,-63.1372 452.801,-47.2922 342,-31 329.729,-29.1956 316.513,-27.0815 304.179,-25.0342"/>
<polygon fill="midnightblue" stroke="midnightblue" points="660.988,-76.0891 671.33,-73.7882 661.811,-69.1376 660.988,-76.0891"/>
</g>
<!-- Node4 -->
<g id="node4" class="node"><title>Node4</title>
<g id="a_node4"><a xlink:href="testTaskInterface_8cxx.html" target="_top" xlink:title="Framework/test/testTaskInterface.cxx">
<polygon fill="none" stroke="black" points="351.5,-6 351.5,-25 534.5,-25 534.5,-6 351.5,-6"/>
<text text-anchor="middle" x="443" y="-13" font-family="Helvetica,sans-Serif" font-size="10.00">Framework/test/testTaskInterface.cxx</text>
</a>
</g>
</g>
<!-- Node1&#45;&gt;Node4 -->
<g id="edge3" class="edge"><title>Node1&#45;&gt;Node4</title>
<path fill="none" stroke="midnightblue" d="M664.511,-65.3074C606.553,-52.5371 528.018,-35.2327 481.707,-25.0287"/>
<polygon fill="midnightblue" stroke="midnightblue" points="663.834,-68.7422 674.353,-67.476 665.34,-61.9061 663.834,-68.7422"/>
</g>
<!-- Node5 -->
<g id="node5" class="node"><title>Node5</title>
<g id="a_node5"><a xlink:href="testEMCAL_8cxx.html" target="_top" xlink:title="Modules/EMCAL/test\l/testEMCAL.cxx">
<polygon fill="none" stroke="black" points="553,-0.5 553,-30.5 663,-30.5 663,-0.5 553,-0.5"/>
<text text-anchor="start" x="561" y="-18.5" font-family="Helvetica,sans-Serif" font-size="10.00">Modules/EMCAL/test</text>
<text text-anchor="middle" x="608" y="-7.5" font-family="Helvetica,sans-Serif" font-size="10.00">/testEMCAL.cxx</text>
</a>
</g>
</g>
<!-- Node1&#45;&gt;Node5 -->
<g id="edge4" class="edge"><title>Node1&#45;&gt;Node5</title>
<path fill="none" stroke="midnightblue" d="M700.707,-62.8533C680.152,-52.5761 655.05,-40.0252 636.153,-30.5765"/>
<polygon fill="midnightblue" stroke="midnightblue" points="699.282,-66.0543 709.792,-67.396 702.413,-59.7933 699.282,-66.0543"/>
</g>
<!-- Node6 -->
<g id="node6" class="node"><title>Node6</title>
<polygon fill="none" stroke="#bfbfbf" points="681,-0.5 681,-30.5 795,-30.5 795,-0.5 681,-0.5"/>
<text text-anchor="start" x="689" y="-18.5" font-family="Helvetica,sans-Serif" font-size="10.00">Modules/Example/test</text>
<text text-anchor="middle" x="738" y="-7.5" font-family="Helvetica,sans-Serif" font-size="10.00">/testFactory.cxx</text>
</g>
<!-- Node1&#45;&gt;Node6 -->
<g id="edge5" class="edge"><title>Node1&#45;&gt;Node6</title>
<path fill="none" stroke="midnightblue" d="M738,-57.1081C738,-48.1539 738,-38.3227 738,-30.5765"/>
<polygon fill="midnightblue" stroke="midnightblue" points="734.5,-57.3959 738,-67.396 741.5,-57.396 734.5,-57.3959"/>
</g>
<!-- Node7 -->
<g id="node7" class="node"><title>Node7</title>
<g id="a_node7"><a xlink:href="testQcExample_8cxx.html" target="_top" xlink:title="Modules/Example/test\l/testQcExample.cxx">
<polygon fill="none" stroke="black" points="813,-0.5 813,-30.5 927,-30.5 927,-0.5 813,-0.5"/>
<text text-anchor="start" x="821" y="-18.5" font-family="Helvetica,sans-Serif" font-size="10.00">Modules/Example/test</text>
<text text-anchor="middle" x="870" y="-7.5" font-family="Helvetica,sans-Serif" font-size="10.00">/testQcExample.cxx</text>
</a>
</g>
</g>
<!-- Node1&#45;&gt;Node7 -->
<g id="edge6" class="edge"><title>Node1&#45;&gt;Node7</title>
<path fill="none" stroke="midnightblue" d="M775.867,-62.8533C796.738,-52.5761 822.226,-40.0252 841.414,-30.5765"/>
<polygon fill="midnightblue" stroke="midnightblue" points="774.067,-59.8383 766.642,-67.396 777.16,-66.1182 774.067,-59.8383"/>
</g>
<!-- Node8 -->
<g id="node8" class="node"><title>Node8</title>
<polygon fill="none" stroke="#bfbfbf" points="945,-0.5 945,-30.5 1059,-30.5 1059,-0.5 945,-0.5"/>
<text text-anchor="start" x="953" y="-18.5" font-family="Helvetica,sans-Serif" font-size="10.00">Modules/Skeleton/test</text>
<text text-anchor="middle" x="1002" y="-7.5" font-family="Helvetica,sans-Serif" font-size="10.00">/.testEmpty.cxx</text>
</g>
<!-- Node1&#45;&gt;Node8 -->
<g id="edge7" class="edge"><title>Node1&#45;&gt;Node8</title>
<path fill="none" stroke="midnightblue" d="M804.806,-65.0515C847.966,-54.425 903.542,-40.7414 944.688,-30.6109"/>
<polygon fill="midnightblue" stroke="midnightblue" points="803.832,-61.6867 794.959,-67.476 805.506,-68.4837 803.832,-61.6867"/>
</g>
<!-- Node9 -->
<g id="node9" class="node"><title>Node9</title>
<g id="a_node9"><a xlink:href="testQcSkeleton_8cxx.html" target="_top" xlink:title="Modules/Skeleton/test\l/testQcSkeleton.cxx">
<polygon fill="none" stroke="black" points="1077,-0.5 1077,-30.5 1191,-30.5 1191,-0.5 1077,-0.5"/>
<text text-anchor="start" x="1085" y="-18.5" font-family="Helvetica,sans-Serif" font-size="10.00">Modules/Skeleton/test</text>
<text text-anchor="middle" x="1134" y="-7.5" font-family="Helvetica,sans-Serif" font-size="10.00">/testQcSkeleton.cxx</text>
</a>
</g>
</g>
<!-- Node1&#45;&gt;Node9 -->
<g id="edge8" class="edge"><title>Node1&#45;&gt;Node9</title>
<path fill="none" stroke="midnightblue" d="M814.637,-71.1981C881.672,-61.8475 981.555,-47.0929 1068,-31 1070.88,-30.4632 1073.83,-29.893 1076.81,-29.301"/>
<polygon fill="midnightblue" stroke="midnightblue" points="814.003,-67.7525 804.58,-72.5949 814.966,-74.686 814.003,-67.7525"/>
</g>
<!-- Node10 -->
<g id="node10" class="node"><title>Node10</title>
<g id="a_node10"><a xlink:href="testTOF_8cxx.html" target="_top" xlink:title="Modules/TOF/test/testTOF.cxx">
<polygon fill="none" stroke="black" points="1209.5,-6 1209.5,-25 1362.5,-25 1362.5,-6 1209.5,-6"/>
<text text-anchor="middle" x="1286" y="-13" font-family="Helvetica,sans-Serif" font-size="10.00">Modules/TOF/test/testTOF.cxx</text>
</a>
</g>
</g>
<!-- Node1&#45;&gt;Node10 -->
<g id="edge9" class="edge"><title>Node1&#45;&gt;Node10</title>
<path fill="none" stroke="midnightblue" d="M814.752,-74.4886C906.559,-65.7836 1064.81,-49.7694 1200,-31 1212.45,-29.2718 1225.86,-27.14 1238.31,-25.048"/>
<polygon fill="midnightblue" stroke="midnightblue" points="814.339,-71.012 804.712,-75.4365 814.997,-77.981 814.339,-71.012"/>
</g>
</g>
</svg>
        <g id="navigator" transform="translate(0 0)" fill="#404254">
                <rect fill="#f2f5e9" fill-opacity="0.5" stroke="#606060" stroke-width=".5" x="0" y="0" width="60" height="60"/>
                <use id="zoomplus" xlink:href="#zoomPlus" x="17" y="9" onmousedown="handleZoom(evt,'in')"/>
                <use id="zoomminus" xlink:href="#zoomMin" x="42" y="9" onmousedown="handleZoom(evt,'out')"/>
                <use id="reset" xlink:href="#resetDef" x="30" y="36" onmousedown="handleReset()"/>
                <g id="arrowUp" xlink:href="#dirArrow" transform="translate(30 24)" onmousedown="handlePan(0,-1)">
                  <use xlink:href="#rim" fill="#404040">
                        <set attributeName="fill" to="#808080" begin="arrowUp.mouseover" end="arrowUp.mouseout"/>
                  </use>
                  <path fill="none" stroke="white" stroke-width="1.5" d="M0,-3.0v7 M-2.5,-0.5L0,-3.0L2.5,-0.5"/>
                </g>
                <g id="arrowRight" xlink:href="#dirArrow" transform="rotate(90) translate(36 -43)" onmousedown="handlePan(1,0)">
                  <use xlink:href="#rim" fill="#404040">
                        <set attributeName="fill" to="#808080" begin="arrowRight.mouseover" end="arrowRight.mouseout"/>
                  </use>
                  <path fill="none" stroke="white" stroke-width="1.5" d="M0,-3.0v7 M-2.5,-0.5L0,-3.0L2.5,-0.5"/>
                </g>
                <g id="arrowDown" xlink:href="#dirArrow" transform="rotate(180) translate(-30 -48)" onmousedown="handlePan(0,1)">
                  <use xlink:href="#rim" fill="#404040">
                        <set attributeName="fill" to="#808080" begin="arrowDown.mouseover" end="arrowDown.mouseout"/>
                  </use>
                  <path fill="none" stroke="white" stroke-width="1.5" d="M0,-3.0v7 M-2.5,-0.5L0,-3.0L2.5,-0.5"/>
                </g>
                <g id="arrowLeft" xlink:href="#dirArrow" transform="rotate(270) translate(-36 17)" onmousedown="handlePan(-1,0)">
                  <use xlink:href="#rim" fill="#404040">
                        <set attributeName="fill" to="#808080" begin="arrowLeft.mouseover" end="arrowLeft.mouseout"/>
                  </use>
                  <path fill="none" stroke="white" stroke-width="1.5" d="M0,-3.0v7 M-2.5,-0.5L0,-3.0L2.5,-0.5"/>
                </g>
        </g>
        <svg viewBox="0 0 15 15" width="100%" height="30px" preserveAspectRatio="xMaxYMin meet">
         <g id="arrow_out" transform="scale(0.3 0.3)">
          <a xlink:href="TaskFactory_8h__dep__incl_org.svg" target="_base">
           <rect id="button" ry="5" rx="5" y="6" x="6" height="38" width="38"
                fill="#f2f5e9" fill-opacity="0.5" stroke="#606060" stroke-width="1.0"/>
           <path id="arrow"
             d="M 11.500037,31.436501 C 11.940474,20.09759 22.043105,11.32322 32.158766,21.979434 L 37.068811,17.246167 C 37.068811,17.246167 37.088388,32 37.088388,32 L 22.160133,31.978069 C 22.160133,31.978069 26.997745,27.140456 26.997745,27.140456 C 18.528582,18.264221 13.291696,25.230495 11.500037,31.436501 z"
             style="fill:#404040;"/>
          </a>
         </g>
        </svg>
</svg>
