<?xml version="1.0" encoding="UTF-8" standalone="no"?>
<!DOCTYPE svg PUBLIC "-//W3C//DTD SVG 1.1//EN"
 "http://www.w3.org/Graphics/SVG/1.1/DTD/svg11.dtd">
<!-- Generated by graphviz version 2.38.0 (20140413.2041)
 -->
<!-- Title: Framework/src/TaskFactory.cxx Pages: 1 -->
<!--zoomable 364 -->
<svg id="main" version="1.1" xmlns="http://www.w3.org/2000/svg" xmlns:xlink="http://www.w3.org/1999/xlink" xml:space="preserve" onload="init(evt)">
<style type="text/css"><![CDATA[
.edge:hover path { stroke: red; }
.edge:hover polygon { stroke: red; fill: red; }
]]></style>
<script type="text/javascript"><![CDATA[
var edges = document.getElementsByTagName('g');
if (edges && edges.length) {
  for (var i=0;i<edges.length;i++) {
    if (edges[i].id.substr(0,4)=='edge') {
      edges[i].setAttribute('class','edge');
    }
  }
}
]]></script>
        <defs>
                <circle id="rim" cx="0" cy="0" r="7"/>
                <circle id="rim2" cx="0" cy="0" r="3.5"/>
                <g id="zoomPlus">
                        <use xlink:href="#rim" fill="#404040">
                                <set attributeName="fill" to="#808080" begin="zoomplus.mouseover" end="zoomplus.mouseout"/>
                        </use>
                        <path d="M-4,0h8M0,-4v8" fill="none" stroke="white" stroke-width="1.5" pointer-events="none"/>
                </g>
                <g id="zoomMin">
                        <use xlink:href="#rim" fill="#404040">
                                <set attributeName="fill" to="#808080" begin="zoomminus.mouseover" end="zoomminus.mouseout"/>
                        </use>
                        <path d="M-4,0h8" fill="none" stroke="white" stroke-width="1.5" pointer-events="none"/>
                </g>
                <g id="dirArrow">
                        <path fill="none" stroke="white" stroke-width="1.5" d="M0,-3.0v7 M-2.5,-0.5L0,-3.0L2.5,-0.5"/>
                </g>
               <g id="resetDef">
                       <use xlink:href="#rim2" fill="#404040">
                               <set attributeName="fill" to="#808080" begin="reset.mouseover" end="reset.mouseout"/>
                       </use>
               </g>
        </defs>

<script type="text/javascript">
var viewWidth = 899;
var viewHeight = 364;
var sectionId = 'dynsection-0';
</script>
<script xlink:href="svgpan.js"/>
<svg id="graph" class="graph">
<g id="viewport">
<title>Framework/src/TaskFactory.cxx</title>
<!-- Node1 -->
<g id="node1" class="node"><title>Node1</title>
<polygon fill="#bfbfbf" stroke="black" points="261.157,-336.5 261.157,-355.5 419.157,-355.5 419.157,-336.5 261.157,-336.5"/>
<text text-anchor="middle" x="340.157" y="-343.5" font-family="Helvetica,sans-Serif" font-size="10.00">Framework/src/TaskFactory.cxx</text>
</g>
<!-- Node2 -->
<g id="node2" class="node"><title>Node2</title>
<g id="a_node2"><a xlink:href="TaskFactory_8h.html" target="_top" xlink:title="QualityControl/TaskFactory.h">
<polygon fill="none" stroke="black" points="45.6568,-168.5 45.6568,-187.5 190.657,-187.5 190.657,-168.5 45.6568,-168.5"/>
<text text-anchor="middle" x="118.157" y="-175.5" font-family="Helvetica,sans-Serif" font-size="10.00">QualityControl/TaskFactory.h</text>
</a>
</g>
</g>
<!-- Node1&#45;&gt;Node2 -->
<g id="edge1" class="edge"><title>Node1&#45;&gt;Node2</title>
<path fill="none" stroke="midnightblue" d="M260.966,-336.795C211.174,-329.946 153.227,-318.299 136.157,-300 110.286,-272.268 111.749,-224.348 115.001,-197.899"/>
<polygon fill="midnightblue" stroke="midnightblue" points="118.508,-198.102 116.479,-187.703 111.581,-197.097 118.508,-198.102"/>
</g>
<!-- Node8 -->
<g id="node8" class="node"><title>Node8</title>
<g id="a_node8"><a xlink:href="QcInfoLogger_8h.html" target="_top" xlink:title="QualityControl/QcInfoLogger.h">
<polygon fill="none" stroke="black" points="145.657,-280.5 145.657,-299.5 294.657,-299.5 294.657,-280.5 145.657,-280.5"/>
<text text-anchor="middle" x="220.157" y="-287.5" font-family="Helvetica,sans-Serif" font-size="10.00">QualityControl/QcInfoLogger.h</text>
</a>
</g>
</g>
<!-- Node1&#45;&gt;Node8 -->
<g id="edge7" class="edge"><title>Node1&#45;&gt;Node8</title>
<path fill="none" stroke="midnightblue" d="M321.142,-336.444C301.569,-327.636 270.849,-313.812 248.428,-303.722"/>
<polygon fill="midnightblue" stroke="midnightblue" points="249.638,-300.428 239.082,-299.516 246.765,-306.812 249.638,-300.428"/>
</g>
<!-- Node20 -->
<g id="node20" class="node"><title>Node20</title>
<polygon fill="none" stroke="#bfbfbf" points="312.157,-280.5 312.157,-299.5 368.157,-299.5 368.157,-280.5 312.157,-280.5"/>
<text text-anchor="middle" x="340.157" y="-287.5" font-family="Helvetica,sans-Serif" font-size="10.00">TClass.h</text>
</g>
<!-- Node1&#45;&gt;Node20 -->
<g id="edge31" class="edge"><title>Node1&#45;&gt;Node20</title>
<path fill="none" stroke="midnightblue" d="M340.157,-336.083C340.157,-329.006 340.157,-318.861 340.157,-309.986"/>
<polygon fill="midnightblue" stroke="midnightblue" points="343.657,-309.751 340.157,-299.751 336.657,-309.751 343.657,-309.751"/>
</g>
<!-- Node21 -->
<g id="node21" class="node"><title>Node21</title>
<polygon fill="none" stroke="#bfbfbf" points="386.657,-280.5 386.657,-299.5 445.657,-299.5 445.657,-280.5 386.657,-280.5"/>
<text text-anchor="middle" x="416.157" y="-287.5" font-family="Helvetica,sans-Serif" font-size="10.00">TROOT.h</text>
</g>
<!-- Node1&#45;&gt;Node21 -->
<g id="edge32" class="edge"><title>Node1&#45;&gt;Node21</title>
<path fill="none" stroke="midnightblue" d="M352.367,-336.324C363.933,-328.107 381.532,-315.602 395.317,-305.807"/>
<polygon fill="midnightblue" stroke="midnightblue" points="397.599,-308.479 403.724,-299.834 393.545,-302.773 397.599,-308.479"/>
</g>
<!-- Node22 -->
<g id="node22" class="node"><title>Node22</title>
<polygon fill="none" stroke="#bfbfbf" points="463.657,-280.5 463.657,-299.5 528.657,-299.5 528.657,-280.5 463.657,-280.5"/>
<text text-anchor="middle" x="496.157" y="-287.5" font-family="Helvetica,sans-Serif" font-size="10.00">TSystem.h</text>
</g>
<!-- Node1&#45;&gt;Node22 -->
<g id="edge33" class="edge"><title>Node1&#45;&gt;Node22</title>
<path fill="none" stroke="midnightblue" d="M364.875,-336.444C391.005,-327.399 432.416,-313.064 461.733,-302.916"/>
<polygon fill="midnightblue" stroke="midnightblue" points="463.249,-306.095 471.554,-299.516 460.959,-299.48 463.249,-306.095"/>
</g>
<!-- Node3 -->
<g id="node3" class="node"><title>Node3</title>
<polygon fill="none" stroke="#bfbfbf" points="241.157,-112.5 241.157,-131.5 293.157,-131.5 293.157,-112.5 241.157,-112.5"/>
<text text-anchor="middle" x="267.157" y="-119.5" font-family="Helvetica,sans-Serif" font-size="10.00">memory</text>
</g>
<!-- Node2&#45;&gt;Node3 -->
<g id="edge2" class="edge"><title>Node2&#45;&gt;Node3</title>
<path fill="none" stroke="midnightblue" d="M141.766,-168.444C166.615,-159.438 205.931,-145.189 233.91,-135.049"/>
<polygon fill="midnightblue" stroke="midnightblue" points="235.449,-138.214 243.658,-131.516 233.064,-131.633 235.449,-138.214"/>
</g>
<!-- Node4 -->
<g id="node4" class="node"><title>Node4</title>
<polygon fill="none" stroke="#bfbfbf" points="322.157,-56.5 322.157,-75.5 438.157,-75.5 438.157,-56.5 322.157,-56.5"/>
<text text-anchor="middle" x="380.157" y="-63.5" font-family="Helvetica,sans-Serif" font-size="10.00">Common/Exceptions.h</text>
</g>
<!-- Node2&#45;&gt;Node4 -->
<g id="edge3" class="edge"><title>Node2&#45;&gt;Node4</title>
<path fill="none" stroke="midnightblue" d="M132.203,-168.466C157.988,-152.888 212.069,-120.652 232.157,-112 265.397,-97.6834 304.655,-85.9694 334.383,-78.0854"/>
<polygon fill="midnightblue" stroke="midnightblue" points="335.282,-81.4681 344.077,-75.5603 333.517,-74.6941 335.282,-81.4681"/>
</g>
<!-- Node5 -->
<g id="node5" class="node"><title>Node5</title>
<g id="a_node5"><a xlink:href="TaskConfig_8h.html" target="_top" xlink:title="QualityControl/TaskConfig.h">
<polygon fill="none" stroke="black" points="45.1568,-112.5 45.1568,-131.5 185.157,-131.5 185.157,-112.5 45.1568,-112.5"/>
<text text-anchor="middle" x="115.157" y="-119.5" font-family="Helvetica,sans-Serif" font-size="10.00">QualityControl/TaskConfig.h</text>
</a>
</g>
</g>
<!-- Node2&#45;&gt;Node5 -->
<g id="edge4" class="edge"><title>Node2&#45;&gt;Node5</title>
<path fill="none" stroke="midnightblue" d="M117.661,-168.083C117.268,-161.006 116.705,-150.861 116.212,-141.986"/>
<polygon fill="midnightblue" stroke="midnightblue" points="119.692,-141.542 115.643,-131.751 112.703,-141.93 119.692,-141.542"/>
</g>
<!-- Node6 -->
<g id="node6" class="node"><title>Node6</title>
<polygon fill="none" stroke="#bfbfbf" points="273.657,-0.5 273.657,-19.5 314.657,-19.5 314.657,-0.5 273.657,-0.5"/>
<text text-anchor="middle" x="294.157" y="-7.5" font-family="Helvetica,sans-Serif" font-size="10.00">string</text>
</g>
<!-- Node5&#45;&gt;Node6 -->
<g id="edge5" class="edge"><title>Node5&#45;&gt;Node6</title>
<path fill="none" stroke="midnightblue" d="M129.203,-112.368C160.05,-93.4121 233.947,-48.0006 271.469,-24.9424"/>
<polygon fill="midnightblue" stroke="midnightblue" points="273.489,-27.8091 280.176,-19.5914 269.824,-21.8452 273.489,-27.8091"/>
</g>
<!-- Node7 -->
<g id="node7" class="node"><title>Node7</title>
<polygon fill="none" stroke="#bfbfbf" points="63.6568,-56.5 63.6568,-75.5 146.657,-75.5 146.657,-56.5 63.6568,-56.5"/>
<text text-anchor="middle" x="105.157" y="-63.5" font-family="Helvetica,sans-Serif" font-size="10.00">unordered_map</text>
</g>
<!-- Node5&#45;&gt;Node7 -->
<g id="edge6" class="edge"><title>Node5&#45;&gt;Node7</title>
<path fill="none" stroke="midnightblue" d="M113.505,-112.083C112.18,-104.927 110.274,-94.6353 108.618,-85.6911"/>
<polygon fill="midnightblue" stroke="midnightblue" points="112.04,-84.9466 106.777,-75.7511 105.157,-86.2212 112.04,-84.9466"/>
</g>
<!-- Node9 -->
<g id="node9" class="node"><title>Node9</title>
<polygon fill="none" stroke="#bfbfbf" points="150.157,-224.5 150.157,-243.5 280.157,-243.5 280.157,-224.5 150.157,-224.5"/>
<text text-anchor="middle" x="215.157" y="-231.5" font-family="Helvetica,sans-Serif" font-size="10.00">InfoLogger/InfoLogger.hxx</text>
</g>
<!-- Node8&#45;&gt;Node9 -->
<g id="edge8" class="edge"><title>Node8&#45;&gt;Node9</title>
<path fill="none" stroke="midnightblue" d="M219.331,-280.083C218.676,-273.006 217.736,-262.861 216.915,-253.986"/>
<polygon fill="midnightblue" stroke="midnightblue" points="220.374,-253.386 215.967,-243.751 213.404,-254.031 220.374,-253.386"/>
</g>
<!-- Node10 -->
<g id="node10" class="node"><title>Node10</title>
<g id="a_node10"><a xlink:href="TaskInterface_8h.html" target="_top" xlink:title="QualityControl/TaskInterface.h">
<polygon fill="none" stroke="black" points="298.157,-224.5 298.157,-243.5 448.157,-243.5 448.157,-224.5 298.157,-224.5"/>
<text text-anchor="middle" x="373.157" y="-231.5" font-family="Helvetica,sans-Serif" font-size="10.00">QualityControl/TaskInterface.h</text>
</a>
</g>
</g>
<!-- Node8&#45;&gt;Node10 -->
<g id="edge9" class="edge"><title>Node8&#45;&gt;Node10</title>
<path fill="none" stroke="midnightblue" d="M244.4,-280.444C270.027,-271.399 310.642,-257.064 339.395,-246.916"/>
<polygon fill="midnightblue" stroke="midnightblue" points="340.762,-250.145 349.027,-243.516 338.432,-243.544 340.762,-250.145"/>
</g>
<!-- Node10&#45;&gt;Node3 -->
<g id="edge11" class="edge"><title>Node10&#45;&gt;Node3</title>
<path fill="none" stroke="midnightblue" d="M297.83,-224.984C274.944,-218.61 252.169,-207.441 238.157,-188 227.267,-172.891 239.252,-153.043 250.951,-139.272"/>
<polygon fill="midnightblue" stroke="midnightblue" points="253.822,-141.32 257.992,-131.58 248.658,-136.594 253.822,-141.32"/>
</g>
<!-- Node10&#45;&gt;Node6 -->
<g id="edge12" class="edge"><title>Node10&#45;&gt;Node6</title>
<path fill="none" stroke="midnightblue" d="M297.801,-224.644C195.489,-213.121 24.7246,-193.187 20.1568,-188 -19.8808,-142.534 5.03734,-91.4599 54.1568,-56 87.2549,-32.106 206.382,-18.695 263.367,-13.5172"/>
<polygon fill="midnightblue" stroke="midnightblue" points="263.917,-16.9824 273.571,-12.618 263.303,-10.0094 263.917,-16.9824"/>
</g>
<!-- Node10&#45;&gt;Node7 -->
<g id="edge13" class="edge"><title>Node10&#45;&gt;Node7</title>
<path fill="none" stroke="midnightblue" d="M300.393,-224.487C202.625,-212.878 40.4941,-192.955 36.1568,-188 13.909,-162.584 20.0682,-141.7 36.1568,-112 43.9053,-97.6958 58.3909,-87.2188 72.0967,-79.992"/>
<polygon fill="midnightblue" stroke="midnightblue" points="73.8943,-83.0103 81.3684,-75.501 70.8428,-76.7104 73.8943,-83.0103"/>
</g>
<!-- Node11 -->
<g id="node11" class="node"><title>Node11</title>
<polygon fill="none" stroke="#bfbfbf" points="815.657,-56.5 815.657,-75.5 850.657,-75.5 850.657,-56.5 815.657,-56.5"/>
<text text-anchor="middle" x="833.157" y="-63.5" font-family="Helvetica,sans-Serif" font-size="10.00">map</text>
</g>
<!-- Node10&#45;&gt;Node11 -->
<g id="edge10" class="edge"><title>Node10&#45;&gt;Node11</title>
<path fill="none" stroke="midnightblue" d="M448.2,-231.824C582.471,-228.937 852.537,-219.268 881.157,-188 909.245,-157.314 872.121,-108.196 849.045,-83.019"/>
<polygon fill="midnightblue" stroke="midnightblue" points="851.566,-80.5907 842.147,-75.7397 846.485,-85.4057 851.566,-80.5907"/>
</g>
<!-- Node12 -->
<g id="node12" class="node"><title>Node12</title>
<polygon fill="none" stroke="#bfbfbf" points="426.657,-168.5 426.657,-187.5 551.657,-187.5 551.657,-168.5 426.657,-168.5"/>
<text text-anchor="middle" x="489.157" y="-175.5" font-family="Helvetica,sans-Serif" font-size="10.00">Framework/InitContext.h</text>
</g>
<!-- Node10&#45;&gt;Node12 -->
<g id="edge14" class="edge"><title>Node10&#45;&gt;Node12</title>
<path fill="none" stroke="midnightblue" d="M391.537,-224.444C410.373,-215.675 439.888,-201.935 461.536,-191.858"/>
<polygon fill="midnightblue" stroke="midnightblue" points="463.273,-194.91 470.862,-187.516 460.319,-188.564 463.273,-194.91"/>
</g>
<!-- Node13 -->
<g id="node13" class="node"><title>Node13</title>
<polygon fill="none" stroke="#bfbfbf" points="570.157,-168.5 570.157,-187.5 730.157,-187.5 730.157,-168.5 570.157,-168.5"/>
<text text-anchor="middle" x="650.157" y="-175.5" font-family="Helvetica,sans-Serif" font-size="10.00">Framework/ProcessingContext.h</text>
</g>
<!-- Node10&#45;&gt;Node13 -->
<g id="edge15" class="edge"><title>Node10&#45;&gt;Node13</title>
<path fill="none" stroke="midnightblue" d="M417.048,-224.444C465.674,-214.964 544.103,-199.675 596.38,-189.483"/>
<polygon fill="midnightblue" stroke="midnightblue" points="597.325,-192.865 606.471,-187.516 595.986,-185.995 597.325,-192.865"/>
</g>
<!-- Node14 -->
<g id="node14" class="node"><title>Node14</title>
<g id="a_node14"><a xlink:href="Activity_8h.html" target="_top" xlink:title="QualityControl/Activity.h">
<polygon fill="none" stroke="black" points="748.657,-168.5 748.657,-187.5 871.657,-187.5 871.657,-168.5 748.657,-168.5"/>
<text text-anchor="middle" x="810.157" y="-175.5" font-family="Helvetica,sans-Serif" font-size="10.00">QualityControl/Activity.h</text>
</a>
</g>
</g>
<!-- Node10&#45;&gt;Node14 -->
<g id="edge16" class="edge"><title>Node10&#45;&gt;Node14</title>
<path fill="none" stroke="midnightblue" d="M442.99,-224.493C514.416,-215.774 628.895,-201.75 738.35,-188.097"/>
<polygon fill="midnightblue" stroke="midnightblue" points="739.095,-191.531 748.585,-186.819 738.228,-184.585 739.095,-191.531"/>
</g>
<!-- Node15 -->
<g id="node15" class="node"><title>Node15</title>
<g id="a_node15"><a xlink:href="ObjectsManager_8h.html" target="_top" xlink:title="QualityControl/ObjectsManager.h">
<polygon fill="none" stroke="black" points="247.657,-168.5 247.657,-187.5 408.657,-187.5 408.657,-168.5 247.657,-168.5"/>
<text text-anchor="middle" x="328.157" y="-175.5" font-family="Helvetica,sans-Serif" font-size="10.00">QualityControl/ObjectsManager.h</text>
</a>
</g>
</g>
<!-- Node10&#45;&gt;Node15 -->
<g id="edge17" class="edge"><title>Node10&#45;&gt;Node15</title>
<path fill="none" stroke="midnightblue" d="M365.726,-224.083C359.304,-216.377 349.851,-205.033 342.034,-195.653"/>
<polygon fill="midnightblue" stroke="midnightblue" points="344.54,-193.193 335.449,-187.751 339.162,-197.674 344.54,-193.193"/>
</g>
<!-- Node15&#45;&gt;Node3 -->
<g id="edge30" class="edge"><title>Node15&#45;&gt;Node3</title>
<path fill="none" stroke="midnightblue" d="M318.356,-168.324C309.339,-160.341 295.751,-148.313 284.839,-138.653"/>
<polygon fill="midnightblue" stroke="midnightblue" points="286.943,-135.842 277.136,-131.834 282.303,-141.083 286.943,-135.842"/>
</g>
<!-- Node15&#45;&gt;Node5 -->
<g id="edge28" class="edge"><title>Node15&#45;&gt;Node5</title>
<path fill="none" stroke="midnightblue" d="M294.406,-168.444C257.638,-159.122 198.711,-144.183 158.535,-133.997"/>
<polygon fill="midnightblue" stroke="midnightblue" points="159.303,-130.581 148.749,-131.516 157.583,-137.367 159.303,-130.581"/>
</g>
<!-- Node15&#45;&gt;Node6 -->
<g id="edge29" class="edge"><title>Node15&#45;&gt;Node6</title>
<path fill="none" stroke="midnightblue" d="M326.329,-168.075C320.977,-141.945 305.26,-65.2106 297.962,-29.577"/>
<polygon fill="midnightblue" stroke="midnightblue" points="301.347,-28.6624 295.912,-19.5681 294.489,-30.067 301.347,-28.6624"/>
</g>
<!-- Node16 -->
<g id="node16" class="node"><title>Node16</title>
<g id="a_node16"><a xlink:href="MonitorObject_8h.html" target="_top" xlink:title="QualityControl/MonitorObject.h">
<polygon fill="none" stroke="black" points="479.657,-112.5 479.657,-131.5 630.657,-131.5 630.657,-112.5 479.657,-112.5"/>
<text text-anchor="middle" x="555.157" y="-119.5" font-family="Helvetica,sans-Serif" font-size="10.00">QualityControl/MonitorObject.h</text>
</a>
</g>
</g>
<!-- Node15&#45;&gt;Node16 -->
<g id="edge18" class="edge"><title>Node15&#45;&gt;Node16</title>
<path fill="none" stroke="midnightblue" d="M364.126,-168.444C403.476,-159.083 466.643,-144.056 509.471,-133.868"/>
<polygon fill="midnightblue" stroke="midnightblue" points="510.438,-137.236 519.356,-131.516 508.818,-130.426 510.438,-137.236"/>
</g>
<!-- Node19 -->
<g id="node19" class="node"><title>Node19</title>
<g id="a_node19"><a xlink:href="Quality_8h.html" target="_top" xlink:title="QualityControl/Quality.h">
<polygon fill="none" stroke="black" points="494.657,-56.5 494.657,-75.5 615.657,-75.5 615.657,-56.5 494.657,-56.5"/>
<text text-anchor="middle" x="555.157" y="-63.5" font-family="Helvetica,sans-Serif" font-size="10.00">QualityControl/Quality.h</text>
</a>
</g>
</g>
<!-- Node15&#45;&gt;Node19 -->
<g id="edge27" class="edge"><title>Node15&#45;&gt;Node19</title>
<path fill="none" stroke="midnightblue" d="M345.969,-168.368C385.585,-149.171 481.192,-102.842 528.177,-80.074"/>
<polygon fill="midnightblue" stroke="midnightblue" points="529.954,-83.1019 537.427,-75.5914 526.902,-76.8026 529.954,-83.1019"/>
</g>
<!-- Node16&#45;&gt;Node4 -->
<g id="edge23" class="edge"><title>Node16&#45;&gt;Node4</title>
<path fill="none" stroke="midnightblue" d="M527.427,-112.444C497.731,-103.28 450.441,-88.6876 417.487,-78.5192"/>
<polygon fill="midnightblue" stroke="midnightblue" points="418.344,-75.1206 407.756,-75.5164 416.28,-81.8094 418.344,-75.1206"/>
</g>
<!-- Node16&#45;&gt;Node6 -->
<g id="edge19" class="edge"><title>Node16&#45;&gt;Node6</title>
<path fill="none" stroke="midnightblue" d="M541.888,-112.428C517.524,-96.7873 466.391,-64.4496 447.157,-56 406.276,-38.0412 356.184,-24.8509 324.709,-17.548"/>
<polygon fill="midnightblue" stroke="midnightblue" points="325.316,-14.0967 314.789,-15.2987 323.768,-20.9234 325.316,-14.0967"/>
</g>
<!-- Node16&#45;&gt;Node11 -->
<g id="edge20" class="edge"><title>Node16&#45;&gt;Node11</title>
<path fill="none" stroke="midnightblue" d="M599.207,-112.444C657.138,-101.191 757.219,-81.7506 805.509,-72.3704"/>
<polygon fill="midnightblue" stroke="midnightblue" points="806.388,-75.7653 815.537,-70.4226 805.053,-68.8937 806.388,-75.7653"/>
</g>
<!-- Node17 -->
<g id="node17" class="node"><title>Node17</title>
<polygon fill="none" stroke="#bfbfbf" points="610.157,-0.5 610.157,-19.5 666.157,-19.5 666.157,-0.5 610.157,-0.5"/>
<text text-anchor="middle" x="638.157" y="-7.5" font-family="Helvetica,sans-Serif" font-size="10.00">Rtypes.h</text>
</g>
<!-- Node16&#45;&gt;Node17 -->
<g id="edge21" class="edge"><title>Node16&#45;&gt;Node17</title>
<path fill="none" stroke="midnightblue" d="M630.86,-116.017C657.767,-110.149 685.491,-98.5305 702.157,-76 716.79,-56.2174 690.085,-36.5043 666.83,-24.0636"/>
<polygon fill="midnightblue" stroke="midnightblue" points="668.358,-20.9142 657.857,-19.5107 665.191,-27.1567 668.358,-20.9142"/>
</g>
<!-- Node18 -->
<g id="node18" class="node"><title>Node18</title>
<polygon fill="none" stroke="#bfbfbf" points="633.657,-56.5 633.657,-75.5 692.657,-75.5 692.657,-56.5 633.657,-56.5"/>
<text text-anchor="middle" x="663.157" y="-63.5" font-family="Helvetica,sans-Serif" font-size="10.00">TObject.h</text>
</g>
<!-- Node16&#45;&gt;Node18 -->
<g id="edge22" class="edge"><title>Node16&#45;&gt;Node18</title>
<path fill="none" stroke="midnightblue" d="M572.509,-112.324C589.829,-103.664 616.672,-90.2424 636.659,-80.249"/>
<polygon fill="midnightblue" stroke="midnightblue" points="638.469,-83.2572 645.848,-75.6545 635.338,-76.9962 638.469,-83.2572"/>
</g>
<!-- Node16&#45;&gt;Node19 -->
<g id="edge24" class="edge"><title>Node16&#45;&gt;Node19</title>
<path fill="none" stroke="midnightblue" d="M555.157,-112.083C555.157,-105.006 555.157,-94.8611 555.157,-85.9865"/>
<polygon fill="midnightblue" stroke="midnightblue" points="558.657,-85.751 555.157,-75.7511 551.657,-85.7511 558.657,-85.751"/>
</g>
<!-- Node19&#45;&gt;Node6 -->
<g id="edge26" class="edge"><title>Node19&#45;&gt;Node6</title>
<path fill="none" stroke="midnightblue" d="M513.801,-56.4435C461.149,-45.5501 371.413,-26.9841 324.604,-17.2994"/>
<polygon fill="midnightblue" stroke="midnightblue" points="325.256,-13.8603 314.754,-15.2616 323.838,-20.7151 325.256,-13.8603"/>
</g>
<!-- Node19&#45;&gt;Node17 -->
<g id="edge25" class="edge"><title>Node19&#45;&gt;Node17</title>
<path fill="none" stroke="midnightblue" d="M568.492,-56.324C581.319,-47.979 600.942,-35.2122 616.097,-25.3524"/>
<polygon fill="midnightblue" stroke="midnightblue" points="618.381,-28.0417 624.854,-19.6545 614.564,-22.1742 618.381,-28.0417"/>
</g>
</g>
</svg>
        <g id="navigator" transform="translate(0 0)" fill="#404254">
                <rect fill="#f2f5e9" fill-opacity="0.5" stroke="#606060" stroke-width=".5" x="0" y="0" width="60" height="60"/>
                <use id="zoomplus" xlink:href="#zoomPlus" x="17" y="9" onmousedown="handleZoom(evt,'in')"/>
                <use id="zoomminus" xlink:href="#zoomMin" x="42" y="9" onmousedown="handleZoom(evt,'out')"/>
                <use id="reset" xlink:href="#resetDef" x="30" y="36" onmousedown="handleReset()"/>
                <g id="arrowUp" xlink:href="#dirArrow" transform="translate(30 24)" onmousedown="handlePan(0,-1)">
                  <use xlink:href="#rim" fill="#404040">
                        <set attributeName="fill" to="#808080" begin="arrowUp.mouseover" end="arrowUp.mouseout"/>
                  </use>
                  <path fill="none" stroke="white" stroke-width="1.5" d="M0,-3.0v7 M-2.5,-0.5L0,-3.0L2.5,-0.5"/>
                </g>
                <g id="arrowRight" xlink:href="#dirArrow" transform="rotate(90) translate(36 -43)" onmousedown="handlePan(1,0)">
                  <use xlink:href="#rim" fill="#404040">
                        <set attributeName="fill" to="#808080" begin="arrowRight.mouseover" end="arrowRight.mouseout"/>
                  </use>
                  <path fill="none" stroke="white" stroke-width="1.5" d="M0,-3.0v7 M-2.5,-0.5L0,-3.0L2.5,-0.5"/>
                </g>
                <g id="arrowDown" xlink:href="#dirArrow" transform="rotate(180) translate(-30 -48)" onmousedown="handlePan(0,1)">
                  <use xlink:href="#rim" fill="#404040">
                        <set attributeName="fill" to="#808080" begin="arrowDown.mouseover" end="arrowDown.mouseout"/>
                  </use>
                  <path fill="none" stroke="white" stroke-width="1.5" d="M0,-3.0v7 M-2.5,-0.5L0,-3.0L2.5,-0.5"/>
                </g>
                <g id="arrowLeft" xlink:href="#dirArrow" transform="rotate(270) translate(-36 17)" onmousedown="handlePan(-1,0)">
                  <use xlink:href="#rim" fill="#404040">
                        <set attributeName="fill" to="#808080" begin="arrowLeft.mouseover" end="arrowLeft.mouseout"/>
                  </use>
                  <path fill="none" stroke="white" stroke-width="1.5" d="M0,-3.0v7 M-2.5,-0.5L0,-3.0L2.5,-0.5"/>
                </g>
        </g>
        <svg viewBox="0 0 15 15" width="100%" height="30px" preserveAspectRatio="xMaxYMin meet">
         <g id="arrow_out" transform="scale(0.3 0.3)">
          <a xlink:href="TaskFactory_8cxx__incl_org.svg" target="_base">
           <rect id="button" ry="5" rx="5" y="6" x="6" height="38" width="38"
                fill="#f2f5e9" fill-opacity="0.5" stroke="#606060" stroke-width="1.0"/>
           <path id="arrow"
             d="M 11.500037,31.436501 C 11.940474,20.09759 22.043105,11.32322 32.158766,21.979434 L 37.068811,17.246167 C 37.068811,17.246167 37.088388,32 37.088388,32 L 22.160133,31.978069 C 22.160133,31.978069 26.997745,27.140456 26.997745,27.140456 C 18.528582,18.264221 13.291696,25.230495 11.500037,31.436501 z"
             style="fill:#404040;"/>
          </a>
         </g>
        </svg>
</svg>
