<?xml version="1.0" encoding="UTF-8" standalone="no"?>
<!DOCTYPE svg PUBLIC "-//W3C//DTD SVG 1.1//EN"
 "http://www.w3.org/Graphics/SVG/1.1/DTD/svg11.dtd">
<!-- Generated by graphviz version 2.38.0 (20140413.2041)
 -->
<!-- Title: Modules/TOF/test/testTOF.cxx Pages: 1 -->
<svg width="364pt" height="196pt"
 viewBox="0.00 0.00 363.50 196.00" xmlns="http://www.w3.org/2000/svg" xmlns:xlink="http://www.w3.org/1999/xlink">
<g id="graph0" class="graph" transform="scale(1 1) rotate(0) translate(4 192)">
<title>Modules/TOF/test/testTOF.cxx</title>
<!-- Node1 -->
<g id="node1" class="node"><title>Node1</title>
<polygon fill="#bfbfbf" stroke="black" points="126.5,-168.5 126.5,-187.5 279.5,-187.5 279.5,-168.5 126.5,-168.5"/>
<text text-anchor="middle" x="203" y="-175.5" font-family="Helvetica,sans-Serif" font-size="10.00">Modules/TOF/test/testTOF.cxx</text>
</g>
<!-- Node2 -->
<g id="node2" class="node"><title>Node2</title>
<g id="a_node2"><a xlink:href="TaskFactory_8h.html" target="_top" xlink:title="QualityControl/TaskFactory.h">
<polygon fill="none" stroke="black" points="55.5,-112.5 55.5,-131.5 200.5,-131.5 200.5,-112.5 55.5,-112.5"/>
<text text-anchor="middle" x="128" y="-119.5" font-family="Helvetica,sans-Serif" font-size="10.00">QualityControl/TaskFactory.h</text>
</a>
</g>
</g>
<!-- Node1&#45;&gt;Node2 -->
<g id="edge1" class="edge"><title>Node1&#45;&gt;Node2</title>
<path fill="none" stroke="midnightblue" d="M190.95,-168.324C179.537,-160.107 162.169,-147.602 148.565,-137.807"/>
<polygon fill="midnightblue" stroke="midnightblue" points="150.43,-134.837 140.269,-131.834 146.34,-140.517 150.43,-134.837"/>
</g>
<!-- Node8 -->
<g id="node8" class="node"><title>Node8</title>
<polygon fill="none" stroke="#bfbfbf" points="218.5,-112.5 218.5,-131.5 337.5,-131.5 337.5,-112.5 218.5,-112.5"/>
<text text-anchor="middle" x="278" y="-119.5" font-family="Helvetica,sans-Serif" font-size="10.00">boost/test/unit_test.hpp</text>
</g>
<!-- Node1&#45;&gt;Node8 -->
<g id="edge7" class="edge"><title>Node1&#45;&gt;Node8</title>
<path fill="none" stroke="midnightblue" d="M215.05,-168.324C226.463,-160.107 243.831,-147.602 257.435,-137.807"/>
<polygon fill="midnightblue" stroke="midnightblue" points="259.66,-140.517 265.731,-131.834 255.57,-134.837 259.66,-140.517"/>
</g>
<!-- Node3 -->
<g id="node3" class="node"><title>Node3</title>
<polygon fill="none" stroke="#bfbfbf" points="0,-56.5 0,-75.5 52,-75.5 52,-56.5 0,-56.5"/>
<text text-anchor="middle" x="26" y="-63.5" font-family="Helvetica,sans-Serif" font-size="10.00">memory</text>
</g>
<!-- Node2&#45;&gt;Node3 -->
<g id="edge2" class="edge"><title>Node2&#45;&gt;Node3</title>
<path fill="none" stroke="midnightblue" d="M111.612,-112.324C95.3287,-103.703 70.1325,-90.3643 51.2837,-80.3855"/>
<polygon fill="midnightblue" stroke="midnightblue" points="52.8229,-77.2402 42.3474,-75.6545 49.5477,-83.4267 52.8229,-77.2402"/>
</g>
<!-- Node4 -->
<g id="node4" class="node"><title>Node4</title>
<polygon fill="none" stroke="#bfbfbf" points="70,-56.5 70,-75.5 186,-75.5 186,-56.5 70,-56.5"/>
<text text-anchor="middle" x="128" y="-63.5" font-family="Helvetica,sans-Serif" font-size="10.00">Common/Exceptions.h</text>
</g>
<!-- Node2&#45;&gt;Node4 -->
<g id="edge3" class="edge"><title>Node2&#45;&gt;Node4</title>
<path fill="none" stroke="midnightblue" d="M128,-112.083C128,-105.006 128,-94.8611 128,-85.9865"/>
<polygon fill="midnightblue" stroke="midnightblue" points="131.5,-85.751 128,-75.7511 124.5,-85.7511 131.5,-85.751"/>
</g>
<!-- Node5 -->
<g id="node5" class="node"><title>Node5</title>
<g id="a_node5"><a xlink:href="TaskConfig_8h.html" target="_top" xlink:title="QualityControl/TaskConfig.h">
<polygon fill="none" stroke="black" points="204,-56.5 204,-75.5 344,-75.5 344,-56.5 204,-56.5"/>
<text text-anchor="middle" x="274" y="-63.5" font-family="Helvetica,sans-Serif" font-size="10.00">QualityControl/TaskConfig.h</text>
</a>
</g>
</g>
<!-- Node2&#45;&gt;Node5 -->
<g id="edge4" class="edge"><title>Node2&#45;&gt;Node5</title>
<path fill="none" stroke="midnightblue" d="M151.134,-112.444C175.482,-103.438 214.007,-89.1891 241.423,-79.049"/>
<polygon fill="midnightblue" stroke="midnightblue" points="242.809,-82.2681 250.974,-75.5164 240.381,-75.7028 242.809,-82.2681"/>
</g>
<!-- Node6 -->
<g id="node6" class="node"><title>Node6</title>
<polygon fill="none" stroke="#bfbfbf" points="213.5,-0.5 213.5,-19.5 254.5,-19.5 254.5,-0.5 213.5,-0.5"/>
<text text-anchor="middle" x="234" y="-7.5" font-family="Helvetica,sans-Serif" font-size="10.00">string</text>
</g>
<!-- Node5&#45;&gt;Node6 -->
<g id="edge5" class="edge"><title>Node5&#45;&gt;Node6</title>
<path fill="none" stroke="midnightblue" d="M267.395,-56.083C261.745,-48.4554 253.455,-37.2645 246.549,-27.9408"/>
<polygon fill="midnightblue" stroke="midnightblue" points="249.247,-25.7034 240.482,-19.7511 243.622,-29.87 249.247,-25.7034"/>
</g>
<!-- Node7 -->
<g id="node7" class="node"><title>Node7</title>
<polygon fill="none" stroke="#bfbfbf" points="272.5,-0.5 272.5,-19.5 355.5,-19.5 355.5,-0.5 272.5,-0.5"/>
<text text-anchor="middle" x="314" y="-7.5" font-family="Helvetica,sans-Serif" font-size="10.00">unordered_map</text>
</g>
<!-- Node5&#45;&gt;Node7 -->
<g id="edge6" class="edge"><title>Node5&#45;&gt;Node7</title>
<path fill="none" stroke="midnightblue" d="M280.605,-56.083C286.255,-48.4554 294.545,-37.2645 301.451,-27.9408"/>
<polygon fill="midnightblue" stroke="midnightblue" points="304.378,-29.87 307.518,-19.7511 298.753,-25.7034 304.378,-29.87"/>
</g>
</g>
</svg>
