<?xml version="1.0" encoding="UTF-8" standalone="no"?>
<!DOCTYPE svg PUBLIC "-//W3C//DTD SVG 1.1//EN"
 "http://www.w3.org/Graphics/SVG/1.1/DTD/svg11.dtd">
<!-- Generated by graphviz version 2.38.0 (20140413.2041)
 -->
<!-- Title: Framework/test/testMonitorObject.cxx Pages: 1 -->
<svg width="756pt" height="207pt"
 viewBox="0.00 0.00 755.96 207.00" xmlns="http://www.w3.org/2000/svg" xmlns:xlink="http://www.w3.org/1999/xlink">
<g id="graph0" class="graph" transform="scale(1 1) rotate(0) translate(4 203)">
<title>Framework/test/testMonitorObject.cxx</title>
<!-- Node1 -->
<g id="node1" class="node"><title>Node1</title>
<polygon fill="#bfbfbf" stroke="black" points="435.964,-168.5 435.964,-198.5 572.964,-198.5 572.964,-168.5 435.964,-168.5"/>
<text text-anchor="start" x="443.964" y="-186.5" font-family="Helvetica,sans-Serif" font-size="10.00">Framework/test/testMonitor</text>
<text text-anchor="middle" x="504.464" y="-175.5" font-family="Helvetica,sans-Serif" font-size="10.00">Object.cxx</text>
</g>
<!-- Node2 -->
<g id="node2" class="node"><title>Node2</title>
<g id="a_node2"><a xlink:href="MonitorObject_8h.html" target="_top" xlink:title="QualityControl/MonitorObject.h">
<polygon fill="none" stroke="black" points="106.964,-112.5 106.964,-131.5 257.964,-131.5 257.964,-112.5 106.964,-112.5"/>
<text text-anchor="middle" x="182.464" y="-119.5" font-family="Helvetica,sans-Serif" font-size="10.00">QualityControl/MonitorObject.h</text>
</a>
</g>
</g>
<!-- Node1&#45;&gt;Node2 -->
<g id="edge1" class="edge"><title>Node1&#45;&gt;Node2</title>
<path fill="none" stroke="midnightblue" d="M435.782,-169.809C377.01,-158.949 293.45,-143.508 238.611,-133.375"/>
<polygon fill="midnightblue" stroke="midnightblue" points="239.187,-129.922 228.718,-131.547 237.915,-136.806 239.187,-129.922"/>
</g>
<!-- Node9 -->
<g id="node9" class="node"><title>Node9</title>
<polygon fill="none" stroke="#bfbfbf" points="275.964,-112.5 275.964,-131.5 394.964,-131.5 394.964,-112.5 275.964,-112.5"/>
<text text-anchor="middle" x="335.464" y="-119.5" font-family="Helvetica,sans-Serif" font-size="10.00">boost/test/unit_test.hpp</text>
</g>
<!-- Node1&#45;&gt;Node9 -->
<g id="edge10" class="edge"><title>Node1&#45;&gt;Node9</title>
<path fill="none" stroke="midnightblue" d="M464.413,-168.399C435.552,-158.238 397.019,-144.672 369.611,-135.022"/>
<polygon fill="midnightblue" stroke="midnightblue" points="370.65,-131.677 360.055,-131.658 368.325,-138.28 370.65,-131.677"/>
</g>
<!-- Node10 -->
<g id="node10" class="node"><title>Node10</title>
<polygon fill="none" stroke="#bfbfbf" points="413.464,-112.5 413.464,-131.5 459.464,-131.5 459.464,-112.5 413.464,-112.5"/>
<text text-anchor="middle" x="436.464" y="-119.5" font-family="Helvetica,sans-Serif" font-size="10.00">chrono</text>
</g>
<!-- Node1&#45;&gt;Node10 -->
<g id="edge11" class="edge"><title>Node1&#45;&gt;Node10</title>
<path fill="none" stroke="midnightblue" d="M488.349,-168.399C478.06,-159.397 464.717,-147.721 454.139,-138.465"/>
<polygon fill="midnightblue" stroke="midnightblue" points="456.189,-135.609 446.359,-131.658 451.58,-140.877 456.189,-135.609"/>
</g>
<!-- Node11 -->
<g id="node11" class="node"><title>Node11</title>
<polygon fill="none" stroke="#bfbfbf" points="477.464,-112.5 477.464,-131.5 531.464,-131.5 531.464,-112.5 477.464,-112.5"/>
<text text-anchor="middle" x="504.464" y="-119.5" font-family="Helvetica,sans-Serif" font-size="10.00">iostream</text>
</g>
<!-- Node1&#45;&gt;Node11 -->
<g id="edge12" class="edge"><title>Node1&#45;&gt;Node11</title>
<path fill="none" stroke="midnightblue" d="M504.464,-168.399C504.464,-160.466 504.464,-150.458 504.464,-141.858"/>
<polygon fill="midnightblue" stroke="midnightblue" points="507.964,-141.658 504.464,-131.658 500.964,-141.658 507.964,-141.658"/>
</g>
<!-- Node12 -->
<g id="node12" class="node"><title>Node12</title>
<polygon fill="none" stroke="#bfbfbf" points="549.464,-112.5 549.464,-131.5 599.464,-131.5 599.464,-112.5 549.464,-112.5"/>
<text text-anchor="middle" x="574.464" y="-119.5" font-family="Helvetica,sans-Serif" font-size="10.00">TH1F.h</text>
</g>
<!-- Node1&#45;&gt;Node12 -->
<g id="edge13" class="edge"><title>Node1&#45;&gt;Node12</title>
<path fill="none" stroke="midnightblue" d="M521.053,-168.399C531.749,-159.308 545.652,-147.49 556.592,-138.191"/>
<polygon fill="midnightblue" stroke="midnightblue" points="558.926,-140.801 564.278,-131.658 554.392,-135.468 558.926,-140.801"/>
</g>
<!-- Node13 -->
<g id="node13" class="node"><title>Node13</title>
<polygon fill="none" stroke="#bfbfbf" points="617.964,-112.5 617.964,-131.5 664.964,-131.5 664.964,-112.5 617.964,-112.5"/>
<text text-anchor="middle" x="641.464" y="-119.5" font-family="Helvetica,sans-Serif" font-size="10.00">TFile.h</text>
</g>
<!-- Node1&#45;&gt;Node13 -->
<g id="edge14" class="edge"><title>Node1&#45;&gt;Node13</title>
<path fill="none" stroke="midnightblue" d="M536.931,-168.399C559.815,-158.461 590.199,-145.265 612.308,-135.662"/>
<polygon fill="midnightblue" stroke="midnightblue" points="613.751,-138.852 621.529,-131.658 610.963,-132.431 613.751,-138.852"/>
</g>
<!-- Node14 -->
<g id="node14" class="node"><title>Node14</title>
<polygon fill="none" stroke="#bfbfbf" points="682.964,-112.5 682.964,-131.5 747.964,-131.5 747.964,-112.5 682.964,-112.5"/>
<text text-anchor="middle" x="715.464" y="-119.5" font-family="Helvetica,sans-Serif" font-size="10.00">TSystem.h</text>
</g>
<!-- Node1&#45;&gt;Node14 -->
<g id="edge15" class="edge"><title>Node1&#45;&gt;Node14</title>
<path fill="none" stroke="midnightblue" d="M554.201,-168.475C591.239,-158.03 641.144,-143.958 675.58,-134.247"/>
<polygon fill="midnightblue" stroke="midnightblue" points="676.624,-137.589 685.299,-131.506 674.724,-130.852 676.624,-137.589"/>
</g>
<!-- Node3 -->
<g id="node3" class="node"><title>Node3</title>
<polygon fill="none" stroke="#bfbfbf" points="2.96404,-0.5 2.96404,-19.5 43.964,-19.5 43.964,-0.5 2.96404,-0.5"/>
<text text-anchor="middle" x="23.464" y="-7.5" font-family="Helvetica,sans-Serif" font-size="10.00">string</text>
</g>
<!-- Node2&#45;&gt;Node3 -->
<g id="edge2" class="edge"><title>Node2&#45;&gt;Node3</title>
<path fill="none" stroke="midnightblue" d="M114.765,-112.447C70.7466,-105.337 19.0881,-93.5212 5.46404,-76 -5.16481,-62.3308 2.49152,-42.7651 10.8551,-28.6759"/>
<polygon fill="midnightblue" stroke="midnightblue" points="14.0215,-30.2271 16.5423,-19.9365 8.15437,-26.4091 14.0215,-30.2271"/>
</g>
<!-- Node4 -->
<g id="node4" class="node"><title>Node4</title>
<polygon fill="none" stroke="#bfbfbf" points="14.964,-56.5 14.964,-75.5 49.964,-75.5 49.964,-56.5 14.964,-56.5"/>
<text text-anchor="middle" x="32.464" y="-63.5" font-family="Helvetica,sans-Serif" font-size="10.00">map</text>
</g>
<!-- Node2&#45;&gt;Node4 -->
<g id="edge3" class="edge"><title>Node2&#45;&gt;Node4</title>
<path fill="none" stroke="midnightblue" d="M158.696,-112.444C131.768,-102.749 87.9619,-86.9792 59.6836,-76.799"/>
<polygon fill="midnightblue" stroke="midnightblue" points="60.6223,-73.4171 50.0278,-73.323 58.2512,-80.0033 60.6223,-73.4171"/>
</g>
<!-- Node5 -->
<g id="node5" class="node"><title>Node5</title>
<polygon fill="none" stroke="#bfbfbf" points="250.464,-0.5 250.464,-19.5 306.464,-19.5 306.464,-0.5 250.464,-0.5"/>
<text text-anchor="middle" x="278.464" y="-7.5" font-family="Helvetica,sans-Serif" font-size="10.00">Rtypes.h</text>
</g>
<!-- Node2&#45;&gt;Node5 -->
<g id="edge4" class="edge"><title>Node2&#45;&gt;Node5</title>
<path fill="none" stroke="midnightblue" d="M246.75,-112.466C310.16,-103.391 399.09,-88.6329 409.464,-76 437.911,-41.3607 364.819,-23.5846 316.709,-15.8871"/>
<polygon fill="midnightblue" stroke="midnightblue" points="316.983,-12.3889 306.572,-14.3528 315.935,-19.31 316.983,-12.3889"/>
</g>
<!-- Node6 -->
<g id="node6" class="node"><title>Node6</title>
<polygon fill="none" stroke="#bfbfbf" points="206.964,-56.5 206.964,-75.5 265.964,-75.5 265.964,-56.5 206.964,-56.5"/>
<text text-anchor="middle" x="236.464" y="-63.5" font-family="Helvetica,sans-Serif" font-size="10.00">TObject.h</text>
</g>
<!-- Node2&#45;&gt;Node6 -->
<g id="edge5" class="edge"><title>Node2&#45;&gt;Node6</title>
<path fill="none" stroke="midnightblue" d="M191.381,-112.083C199.245,-104.22 210.895,-92.5688 220.383,-83.0813"/>
<polygon fill="midnightblue" stroke="midnightblue" points="223.117,-85.2971 227.713,-75.7511 218.167,-80.3473 223.117,-85.2971"/>
</g>
<!-- Node7 -->
<g id="node7" class="node"><title>Node7</title>
<polygon fill="none" stroke="#bfbfbf" points="284.464,-56.5 284.464,-75.5 400.464,-75.5 400.464,-56.5 284.464,-56.5"/>
<text text-anchor="middle" x="342.464" y="-63.5" font-family="Helvetica,sans-Serif" font-size="10.00">Common/Exceptions.h</text>
</g>
<!-- Node2&#45;&gt;Node7 -->
<g id="edge6" class="edge"><title>Node2&#45;&gt;Node7</title>
<path fill="none" stroke="midnightblue" d="M207.817,-112.444C234.733,-103.359 277.46,-88.9388 307.551,-78.7831"/>
<polygon fill="midnightblue" stroke="midnightblue" points="308.874,-82.0305 317.23,-75.5164 306.636,-75.3981 308.874,-82.0305"/>
</g>
<!-- Node8 -->
<g id="node8" class="node"><title>Node8</title>
<g id="a_node8"><a xlink:href="Quality_8h.html" target="_top" xlink:title="QualityControl/Quality.h">
<polygon fill="none" stroke="black" points="67.964,-56.5 67.964,-75.5 188.964,-75.5 188.964,-56.5 67.964,-56.5"/>
<text text-anchor="middle" x="128.464" y="-63.5" font-family="Helvetica,sans-Serif" font-size="10.00">QualityControl/Quality.h</text>
</a>
</g>
</g>
<!-- Node2&#45;&gt;Node8 -->
<g id="edge7" class="edge"><title>Node2&#45;&gt;Node8</title>
<path fill="none" stroke="midnightblue" d="M173.547,-112.083C165.684,-104.22 154.033,-92.5688 144.545,-83.0813"/>
<polygon fill="midnightblue" stroke="midnightblue" points="146.761,-80.3473 137.215,-75.7511 141.811,-85.2971 146.761,-80.3473"/>
</g>
<!-- Node8&#45;&gt;Node3 -->
<g id="edge9" class="edge"><title>Node8&#45;&gt;Node3</title>
<path fill="none" stroke="midnightblue" d="M111.594,-56.324C94.7553,-47.6641 68.6575,-34.2424 49.226,-24.249"/>
<polygon fill="midnightblue" stroke="midnightblue" points="50.7859,-21.1155 40.2922,-19.6545 47.5844,-27.3405 50.7859,-21.1155"/>
</g>
<!-- Node8&#45;&gt;Node5 -->
<g id="edge8" class="edge"><title>Node8&#45;&gt;Node5</title>
<path fill="none" stroke="midnightblue" d="M152.232,-56.4435C177.357,-47.3986 217.175,-33.064 245.364,-22.9158"/>
<polygon fill="midnightblue" stroke="midnightblue" points="246.584,-26.1968 254.807,-19.5164 244.213,-19.6106 246.584,-26.1968"/>
</g>
</g>
</svg>
