<?xml version="1.0" encoding="UTF-8" standalone="no"?>
<!DOCTYPE svg PUBLIC "-//W3C//DTD SVG 1.1//EN"
 "http://www.w3.org/Graphics/SVG/1.1/DTD/svg11.dtd">
<!-- Generated by graphviz version 2.38.0 (20140413.2041)
 -->
<!-- Title: Framework/test/testWorkflow.cxx Pages: 1 -->
<!--zoomable 442 -->
<svg id="main" version="1.1" xmlns="http://www.w3.org/2000/svg" xmlns:xlink="http://www.w3.org/1999/xlink" xml:space="preserve" onload="init(evt)">
<style type="text/css"><![CDATA[
.edge:hover path { stroke: red; }
.edge:hover polygon { stroke: red; fill: red; }
]]></style>
<script type="text/javascript"><![CDATA[
var edges = document.getElementsByTagName('g');
if (edges && edges.length) {
  for (var i=0;i<edges.length;i++) {
    if (edges[i].id.substr(0,4)=='edge') {
      edges[i].setAttribute('class','edge');
    }
  }
}
]]></script>
        <defs>
                <circle id="rim" cx="0" cy="0" r="7"/>
                <circle id="rim2" cx="0" cy="0" r="3.5"/>
                <g id="zoomPlus">
                        <use xlink:href="#rim" fill="#404040">
                                <set attributeName="fill" to="#808080" begin="zoomplus.mouseover" end="zoomplus.mouseout"/>
                        </use>
                        <path d="M-4,0h8M0,-4v8" fill="none" stroke="white" stroke-width="1.5" pointer-events="none"/>
                </g>
                <g id="zoomMin">
                        <use xlink:href="#rim" fill="#404040">
                                <set attributeName="fill" to="#808080" begin="zoomminus.mouseover" end="zoomminus.mouseout"/>
                        </use>
                        <path d="M-4,0h8" fill="none" stroke="white" stroke-width="1.5" pointer-events="none"/>
                </g>
                <g id="dirArrow">
                        <path fill="none" stroke="white" stroke-width="1.5" d="M0,-3.0v7 M-2.5,-0.5L0,-3.0L2.5,-0.5"/>
                </g>
               <g id="resetDef">
                       <use xlink:href="#rim2" fill="#404040">
                               <set attributeName="fill" to="#808080" begin="reset.mouseover" end="reset.mouseout"/>
                       </use>
               </g>
        </defs>

<script type="text/javascript">
var viewWidth = 2300;
var viewHeight = 442;
var sectionId = 'dynsection-0';
</script>
<script xlink:href="svgpan.js"/>
<svg id="graph" class="graph">
<g id="viewport">
<title>Framework/test/testWorkflow.cxx</title>
<!-- Node1 -->
<g id="node1" class="node"><title>Node1</title>
<polygon fill="#bfbfbf" stroke="black" points="1661.68,-414.5 1661.68,-433.5 1825.68,-433.5 1825.68,-414.5 1661.68,-414.5"/>
<text text-anchor="middle" x="1743.68" y="-421.5" font-family="Helvetica,sans-Serif" font-size="10.00">Framework/test/testWorkflow.cxx</text>
</g>
<!-- Node2 -->
<g id="node2" class="node"><title>Node2</title>
<polygon fill="none" stroke="#bfbfbf" points="676.176,-358.5 676.176,-377.5 795.176,-377.5 795.176,-358.5 676.176,-358.5"/>
<text text-anchor="middle" x="735.676" y="-365.5" font-family="Helvetica,sans-Serif" font-size="10.00">getTestDataDirectory.h</text>
</g>
<!-- Node1&#45;&gt;Node2 -->
<g id="edge1" class="edge"><title>Node1&#45;&gt;Node2</title>
<path fill="none" stroke="midnightblue" d="M1661.47,-421.379C1499.54,-417.679 1127.7,-406.681 805.351,-378.08"/>
<polygon fill="midnightblue" stroke="midnightblue" points="805.621,-374.59 795.349,-377.185 804.997,-381.562 805.621,-374.59"/>
</g>
<!-- Node3 -->
<g id="node3" class="node"><title>Node3</title>
<g id="a_node3"><a xlink:href="Checker_8h.html" target="_top" xlink:title="QualityControl/Checker.h">
<polygon fill="none" stroke="black" points="813.176,-358.5 813.176,-377.5 940.176,-377.5 940.176,-358.5 813.176,-358.5"/>
<text text-anchor="middle" x="876.676" y="-365.5" font-family="Helvetica,sans-Serif" font-size="10.00">QualityControl/Checker.h</text>
</a>
</g>
</g>
<!-- Node1&#45;&gt;Node3 -->
<g id="edge2" class="edge"><title>Node1&#45;&gt;Node3</title>
<path fill="none" stroke="midnightblue" d="M1661.33,-417.871C1492.99,-407.386 1111.79,-383.644 950.722,-373.612"/>
<polygon fill="midnightblue" stroke="midnightblue" points="950.634,-370.1 940.436,-372.971 950.199,-377.086 950.634,-370.1"/>
</g>
<!-- Node28 -->
<g id="node28" class="node"><title>Node28</title>
<g id="a_node28"><a xlink:href="InfrastructureGenerator_8h.html" target="_top" xlink:title="QualityControl/Infrastructure\lGenerator.h">
<polygon fill="none" stroke="black" points="1493.68,-168.5 1493.68,-198.5 1633.68,-198.5 1633.68,-168.5 1493.68,-168.5"/>
<text text-anchor="start" x="1501.68" y="-186.5" font-family="Helvetica,sans-Serif" font-size="10.00">QualityControl/Infrastructure</text>
<text text-anchor="middle" x="1563.68" y="-175.5" font-family="Helvetica,sans-Serif" font-size="10.00">Generator.h</text>
</a>
</g>
</g>
<!-- Node1&#45;&gt;Node28 -->
<g id="edge49" class="edge"><title>Node1&#45;&gt;Node28</title>
<path fill="none" stroke="midnightblue" d="M1661.47,-418.44C1632.75,-412.574 1602.91,-400.846 1583.68,-378 1543.03,-329.723 1551.07,-248.824 1558.37,-208.65"/>
<polygon fill="midnightblue" stroke="midnightblue" points="1561.84,-209.171 1560.32,-198.684 1554.97,-207.825 1561.84,-209.171"/>
</g>
<!-- Node30 -->
<g id="node30" class="node"><title>Node30</title>
<g id="a_node30"><a xlink:href="runnerUtils_8h.html" target="_top" xlink:title="QualityControl/runnerUtils.h">
<polygon fill="none" stroke="black" points="1592.18,-358.5 1592.18,-377.5 1729.18,-377.5 1729.18,-358.5 1592.18,-358.5"/>
<text text-anchor="middle" x="1660.68" y="-365.5" font-family="Helvetica,sans-Serif" font-size="10.00">QualityControl/runnerUtils.h</text>
</a>
</g>
</g>
<!-- Node1&#45;&gt;Node30 -->
<g id="edge53" class="edge"><title>Node1&#45;&gt;Node30</title>
<path fill="none" stroke="midnightblue" d="M1730.34,-414.324C1717.51,-405.979 1697.89,-393.212 1682.74,-383.352"/>
<polygon fill="midnightblue" stroke="midnightblue" points="1684.27,-380.174 1673.98,-377.655 1680.45,-386.042 1684.27,-380.174"/>
</g>
<!-- Node32 -->
<g id="node32" class="node"><title>Node32</title>
<polygon fill="none" stroke="#bfbfbf" points="1747.68,-358.5 1747.68,-377.5 1907.68,-377.5 1907.68,-358.5 1747.68,-358.5"/>
<text text-anchor="middle" x="1827.68" y="-365.5" font-family="Helvetica,sans-Serif" font-size="10.00">Framework/runDataProcessing.h</text>
</g>
<!-- Node1&#45;&gt;Node32 -->
<g id="edge56" class="edge"><title>Node1&#45;&gt;Node32</title>
<path fill="none" stroke="midnightblue" d="M1757.17,-414.324C1770.28,-405.9 1790.39,-392.971 1805.78,-383.074"/>
<polygon fill="midnightblue" stroke="midnightblue" points="1807.69,-386.006 1814.21,-377.655 1803.91,-380.118 1807.69,-386.006"/>
</g>
<!-- Node33 -->
<g id="node33" class="node"><title>Node33</title>
<polygon fill="none" stroke="#bfbfbf" points="1926.18,-358.5 1926.18,-377.5 2067.18,-377.5 2067.18,-358.5 1926.18,-358.5"/>
<text text-anchor="middle" x="1996.68" y="-365.5" font-family="Helvetica,sans-Serif" font-size="10.00">Framework/ControlService.h</text>
</g>
<!-- Node1&#45;&gt;Node33 -->
<g id="edge57" class="edge"><title>Node1&#45;&gt;Node33</title>
<path fill="none" stroke="midnightblue" d="M1783.76,-414.444C1827.99,-405.004 1899.21,-389.802 1946.96,-379.611"/>
<polygon fill="midnightblue" stroke="midnightblue" points="1947.73,-383.027 1956.78,-377.516 1946.26,-376.181 1947.73,-383.027"/>
</g>
<!-- Node34 -->
<g id="node34" class="node"><title>Node34</title>
<polygon fill="none" stroke="#bfbfbf" points="2085.68,-358.5 2085.68,-377.5 2223.68,-377.5 2223.68,-358.5 2085.68,-358.5"/>
<text text-anchor="middle" x="2154.68" y="-365.5" font-family="Helvetica,sans-Serif" font-size="10.00">Framework/DataSampling.h</text>
</g>
<!-- Node1&#45;&gt;Node34 -->
<g id="edge58" class="edge"><title>Node1&#45;&gt;Node34</title>
<path fill="none" stroke="midnightblue" d="M1808.8,-414.444C1882.45,-404.767 2002.19,-389.035 2079.68,-378.853"/>
<polygon fill="midnightblue" stroke="midnightblue" points="2080.4,-382.289 2089.86,-377.516 2079.49,-375.349 2080.4,-382.289"/>
</g>
<!-- Node35 -->
<g id="node35" class="node"><title>Node35</title>
<polygon fill="none" stroke="#bfbfbf" points="2241.68,-358.5 2241.68,-377.5 2291.68,-377.5 2291.68,-358.5 2241.68,-358.5"/>
<text text-anchor="middle" x="2266.68" y="-365.5" font-family="Helvetica,sans-Serif" font-size="10.00">TH1F.h</text>
</g>
<!-- Node1&#45;&gt;Node35 -->
<g id="edge59" class="edge"><title>Node1&#45;&gt;Node35</title>
<path fill="none" stroke="midnightblue" d="M1826,-419.624C1921.44,-414.765 2083.53,-403.603 2231.36,-377.949"/>
<polygon fill="midnightblue" stroke="midnightblue" points="2232.29,-381.34 2241.53,-376.157 2231.07,-374.446 2232.29,-381.34"/>
</g>
<!-- Node4 -->
<g id="node4" class="node"><title>Node4</title>
<polygon fill="none" stroke="#bfbfbf" points="910.676,-297 910.676,-316 956.676,-316 956.676,-297 910.676,-297"/>
<text text-anchor="middle" x="933.676" y="-304" font-family="Helvetica,sans-Serif" font-size="10.00">chrono</text>
</g>
<!-- Node3&#45;&gt;Node4 -->
<g id="edge3" class="edge"><title>Node3&#45;&gt;Node4</title>
<path fill="none" stroke="midnightblue" d="M884.843,-358.475C893.562,-349.373 907.58,-334.741 918.365,-323.483"/>
<polygon fill="midnightblue" stroke="midnightblue" points="921.134,-325.651 925.525,-316.009 916.079,-320.809 921.134,-325.651"/>
</g>
<!-- Node5 -->
<g id="node5" class="node"><title>Node5</title>
<polygon fill="none" stroke="#bfbfbf" points="946.676,-112.5 946.676,-131.5 998.676,-131.5 998.676,-112.5 946.676,-112.5"/>
<text text-anchor="middle" x="972.676" y="-119.5" font-family="Helvetica,sans-Serif" font-size="10.00">memory</text>
</g>
<!-- Node3&#45;&gt;Node5 -->
<g id="edge4" class="edge"><title>Node3&#45;&gt;Node5</title>
<path fill="none" stroke="midnightblue" d="M908.307,-358.491C967.755,-340.558 1094.58,-292.605 1143.68,-199 1150.08,-186.799 1152.12,-178.888 1143.68,-168 1106.31,-119.806 1069.57,-145.948 1008.69,-133.044"/>
<polygon fill="midnightblue" stroke="midnightblue" points="1009.25,-129.579 998.707,-130.621 1007.6,-136.381 1009.25,-129.579"/>
</g>
<!-- Node6 -->
<g id="node6" class="node"><title>Node6</title>
<polygon fill="none" stroke="#bfbfbf" points="934.176,-0.5 934.176,-19.5 975.176,-19.5 975.176,-0.5 934.176,-0.5"/>
<text text-anchor="middle" x="954.676" y="-7.5" font-family="Helvetica,sans-Serif" font-size="10.00">string</text>
</g>
<!-- Node3&#45;&gt;Node6 -->
<g id="edge5" class="edge"><title>Node3&#45;&gt;Node6</title>
<path fill="none" stroke="midnightblue" d="M940.269,-367.227C1092.57,-366.06 1465.68,-352.35 1465.68,-246 1465.68,-246 1465.68,-246 1465.68,-121 1465.68,-22.1991 1095.97,-11.8909 985.492,-11.0162"/>
<polygon fill="midnightblue" stroke="midnightblue" points="985.361,-7.51547 975.341,-10.9573 985.32,-14.5154 985.361,-7.51547"/>
</g>
<!-- Node7 -->
<g id="node7" class="node"><title>Node7</title>
<polygon fill="none" stroke="#bfbfbf" points="484.176,-56.5 484.176,-75.5 519.176,-75.5 519.176,-56.5 484.176,-56.5"/>
<text text-anchor="middle" x="501.676" y="-63.5" font-family="Helvetica,sans-Serif" font-size="10.00">map</text>
</g>
<!-- Node3&#45;&gt;Node7 -->
<g id="edge6" class="edge"><title>Node3&#45;&gt;Node7</title>
<path fill="none" stroke="midnightblue" d="M840.669,-358.438C811.352,-350.8 769.302,-338.308 734.676,-322 711.701,-311.179 709.564,-302.004 686.676,-291 570.522,-235.157 486.977,-303.594 411.676,-199 397.108,-178.764 427.842,-113.083 428.676,-112 440.567,-96.5698 459.372,-85.1571 474.918,-77.6861"/>
<polygon fill="midnightblue" stroke="midnightblue" points="476.414,-80.8509 484.086,-73.5431 473.532,-74.472 476.414,-80.8509"/>
</g>
<!-- Node8 -->
<g id="node8" class="node"><title>Node8</title>
<polygon fill="none" stroke="#bfbfbf" points="1393.68,-112.5 1393.68,-131.5 1437.68,-131.5 1437.68,-112.5 1393.68,-112.5"/>
<text text-anchor="middle" x="1415.68" y="-119.5" font-family="Helvetica,sans-Serif" font-size="10.00">vector</text>
</g>
<!-- Node3&#45;&gt;Node8 -->
<g id="edge7" class="edge"><title>Node3&#45;&gt;Node8</title>
<path fill="none" stroke="midnightblue" d="M940.201,-367.084C1008.86,-365.218 1120.41,-356.435 1209.68,-322 1299.73,-287.258 1329.87,-275.548 1388.68,-199 1401.71,-182.038 1408.8,-158.26 1412.4,-141.839"/>
<polygon fill="midnightblue" stroke="midnightblue" points="1415.88,-142.306 1414.37,-131.819 1409.01,-140.958 1415.88,-142.306"/>
</g>
<!-- Node9 -->
<g id="node9" class="node"><title>Node9</title>
<polygon fill="none" stroke="#bfbfbf" points="334.676,-297 334.676,-316 426.676,-316 426.676,-297 334.676,-297"/>
<text text-anchor="middle" x="380.676" y="-304" font-family="Helvetica,sans-Serif" font-size="10.00">Common/Timer.h</text>
</g>
<!-- Node3&#45;&gt;Node9 -->
<g id="edge8" class="edge"><title>Node3&#45;&gt;Node9</title>
<path fill="none" stroke="midnightblue" d="M812.986,-359.052C809.839,-358.689 806.722,-358.337 803.676,-358 640.335,-339.944 597.426,-351.04 435.676,-322 430.464,-321.064 425.022,-319.884 419.676,-318.603"/>
<polygon fill="midnightblue" stroke="midnightblue" points="420.15,-315.113 409.597,-316.054 418.433,-321.899 420.15,-315.113"/>
</g>
<!-- Node10 -->
<g id="node10" class="node"><title>Node10</title>
<polygon fill="none" stroke="#bfbfbf" points="444.676,-297 444.676,-316 542.676,-316 542.676,-297 444.676,-297"/>
<text text-anchor="middle" x="493.676" y="-304" font-family="Helvetica,sans-Serif" font-size="10.00">Framework/Task.h</text>
</g>
<!-- Node3&#45;&gt;Node10 -->
<g id="edge9" class="edge"><title>Node3&#45;&gt;Node10</title>
<path fill="none" stroke="midnightblue" d="M812.978,-359.007C732.986,-348.825 600.329,-331.422 551.676,-322 546.263,-320.952 540.598,-319.714 535.02,-318.411"/>
<polygon fill="midnightblue" stroke="midnightblue" points="535.689,-314.972 525.146,-316.021 534.042,-321.775 535.689,-314.972"/>
</g>
<!-- Node11 -->
<g id="node11" class="node"><title>Node11</title>
<polygon fill="none" stroke="#bfbfbf" points="561.176,-297 561.176,-316 678.176,-316 678.176,-297 561.176,-297"/>
<text text-anchor="middle" x="619.676" y="-304" font-family="Helvetica,sans-Serif" font-size="10.00">Headers/DataHeader.h</text>
</g>
<!-- Node3&#45;&gt;Node11 -->
<g id="edge10" class="edge"><title>Node3&#45;&gt;Node11</title>
<path fill="none" stroke="midnightblue" d="M839.854,-358.475C794.147,-347.893 716.151,-329.836 666.31,-318.297"/>
<polygon fill="midnightblue" stroke="midnightblue" points="666.961,-314.855 656.43,-316.009 665.382,-321.674 666.961,-314.855"/>
</g>
<!-- Node12 -->
<g id="node12" class="node"><title>Node12</title>
<g id="a_node12"><a xlink:href="CheckInterface_8h.html" target="_top" xlink:title="QualityControl/CheckInterface.h">
<polygon fill="none" stroke="black" points="38.1761,-174 38.1761,-193 195.176,-193 195.176,-174 38.1761,-174"/>
<text text-anchor="middle" x="116.676" y="-181" font-family="Helvetica,sans-Serif" font-size="10.00">QualityControl/CheckInterface.h</text>
</a>
</g>
</g>
<!-- Node3&#45;&gt;Node12 -->
<g id="edge11" class="edge"><title>Node3&#45;&gt;Node12</title>
<path fill="none" stroke="midnightblue" d="M812.997,-358.945C809.847,-358.611 806.727,-358.293 803.676,-358 688.155,-346.896 390.435,-365.088 282.676,-322 215.946,-295.318 155.917,-231.29 130.087,-200.962"/>
<polygon fill="midnightblue" stroke="midnightblue" points="132.562,-198.465 123.464,-193.035 127.19,-202.953 132.562,-198.465"/>
</g>
<!-- Node14 -->
<g id="node14" class="node"><title>Node14</title>
<g id="a_node14"><a xlink:href="MonitorObject_8h.html" target="_top" xlink:title="QualityControl/MonitorObject.h">
<polygon fill="none" stroke="black" points="188.176,-112.5 188.176,-131.5 339.176,-131.5 339.176,-112.5 188.176,-112.5"/>
<text text-anchor="middle" x="263.676" y="-119.5" font-family="Helvetica,sans-Serif" font-size="10.00">QualityControl/MonitorObject.h</text>
</a>
</g>
</g>
<!-- Node3&#45;&gt;Node14 -->
<g id="edge30" class="edge"><title>Node3&#45;&gt;Node14</title>
<path fill="none" stroke="midnightblue" d="M812.995,-358.968C809.845,-358.628 806.726,-358.303 803.676,-358 750.675,-352.74 367.358,-355.157 325.676,-322 269.366,-277.207 263.126,-181.942 263.147,-141.633"/>
<polygon fill="midnightblue" stroke="midnightblue" points="266.647,-141.655 263.288,-131.606 259.647,-141.556 266.647,-141.655"/>
</g>
<!-- Node18 -->
<g id="node18" class="node"><title>Node18</title>
<g id="a_node18"><a xlink:href="DatabaseInterface_8h.html" target="_top" xlink:title="QualityControl/DatabaseInterface.h">
<polygon fill="none" stroke="black" points="1191.68,-174 1191.68,-193 1361.68,-193 1361.68,-174 1191.68,-174"/>
<text text-anchor="middle" x="1276.68" y="-181" font-family="Helvetica,sans-Serif" font-size="10.00">QualityControl/DatabaseInterface.h</text>
</a>
</g>
</g>
<!-- Node3&#45;&gt;Node18 -->
<g id="edge24" class="edge"><title>Node3&#45;&gt;Node18</title>
<path fill="none" stroke="midnightblue" d="M940.433,-363.262C1016.7,-357.804 1138.94,-345.623 1177.68,-322 1224.85,-293.232 1256.1,-232.646 1269.39,-202.428"/>
<polygon fill="midnightblue" stroke="midnightblue" points="1272.66,-203.681 1273.34,-193.108 1266.22,-200.95 1272.66,-203.681"/>
</g>
<!-- Node20 -->
<g id="node20" class="node"><title>Node20</title>
<g id="a_node20"><a xlink:href="QcInfoLogger_8h.html" target="_top" xlink:title="QualityControl/QcInfoLogger.h">
<polygon fill="none" stroke="black" points="744.176,-297 744.176,-316 893.176,-316 893.176,-297 744.176,-297"/>
<text text-anchor="middle" x="818.676" y="-304" font-family="Helvetica,sans-Serif" font-size="10.00">QualityControl/QcInfoLogger.h</text>
</a>
</g>
</g>
<!-- Node3&#45;&gt;Node20 -->
<g id="edge31" class="edge"><title>Node3&#45;&gt;Node20</title>
<path fill="none" stroke="midnightblue" d="M868.366,-358.475C859.494,-349.373 845.23,-334.741 834.256,-323.483"/>
<polygon fill="midnightblue" stroke="midnightblue" points="836.457,-320.727 826.971,-316.009 831.445,-325.613 836.457,-320.727"/>
</g>
<!-- Node12&#45;&gt;Node6 -->
<g id="edge12" class="edge"><title>Node12&#45;&gt;Node6</title>
<path fill="none" stroke="midnightblue" d="M105.225,-173.877C77.4301,-151.969 11.2038,-93.2738 46.6761,-56 77.557,-23.5507 767.913,-13.2631 923.653,-11.3513"/>
<polygon fill="midnightblue" stroke="midnightblue" points="923.969,-14.8479 933.926,-11.228 923.885,-7.8484 923.969,-14.8479"/>
</g>
<!-- Node13 -->
<g id="node13" class="node"><title>Node13</title>
<polygon fill="none" stroke="#bfbfbf" points="88.6761,-0.5 88.6761,-19.5 144.676,-19.5 144.676,-0.5 88.6761,-0.5"/>
<text text-anchor="middle" x="116.676" y="-7.5" font-family="Helvetica,sans-Serif" font-size="10.00">Rtypes.h</text>
</g>
<!-- Node12&#45;&gt;Node13 -->
<g id="edge13" class="edge"><title>Node12&#45;&gt;Node13</title>
<path fill="none" stroke="midnightblue" d="M76.8586,-173.973C54.1262,-166.844 27.4785,-154.139 13.6761,-132 -4.19382,-103.336 -4.81933,-84.2641 13.6761,-56 28.0101,-34.0953 55.6047,-22.7908 78.6264,-16.9919"/>
<polygon fill="midnightblue" stroke="midnightblue" points="79.5063,-20.3814 88.4886,-14.7628 77.963,-13.5537 79.5063,-20.3814"/>
</g>
<!-- Node12&#45;&gt;Node14 -->
<g id="edge14" class="edge"><title>Node12&#45;&gt;Node14</title>
<path fill="none" stroke="midnightblue" d="M137.738,-173.975C162.735,-163.857 204.618,-146.905 233.163,-135.351"/>
<polygon fill="midnightblue" stroke="midnightblue" points="234.697,-138.505 242.654,-131.509 232.071,-132.017 234.697,-138.505"/>
</g>
<!-- Node17 -->
<g id="node17" class="node"><title>Node17</title>
<g id="a_node17"><a xlink:href="Quality_8h.html" target="_top" xlink:title="QualityControl/Quality.h">
<polygon fill="none" stroke="black" points="56.1761,-56.5 56.1761,-75.5 177.176,-75.5 177.176,-56.5 56.1761,-56.5"/>
<text text-anchor="middle" x="116.676" y="-63.5" font-family="Helvetica,sans-Serif" font-size="10.00">QualityControl/Quality.h</text>
</a>
</g>
</g>
<!-- Node12&#45;&gt;Node17 -->
<g id="edge23" class="edge"><title>Node12&#45;&gt;Node17</title>
<path fill="none" stroke="midnightblue" d="M116.676,-173.819C116.676,-155.257 116.676,-111.339 116.676,-85.9734"/>
<polygon fill="midnightblue" stroke="midnightblue" points="120.176,-85.782 116.676,-75.782 113.176,-85.782 120.176,-85.782"/>
</g>
<!-- Node14&#45;&gt;Node6 -->
<g id="edge15" class="edge"><title>Node14&#45;&gt;Node6</title>
<path fill="none" stroke="midnightblue" d="M307.921,-112.433C343.406,-104.867 394.134,-92.4747 436.676,-76 454.473,-69.1078 456.382,-61.4388 474.676,-56 559.566,-30.7623 832.112,-16.4994 924.056,-12.3128"/>
<polygon fill="midnightblue" stroke="midnightblue" points="924.271,-15.8068 934.105,-11.8629 923.958,-8.81377 924.271,-15.8068"/>
</g>
<!-- Node14&#45;&gt;Node7 -->
<g id="edge16" class="edge"><title>Node14&#45;&gt;Node7</title>
<path fill="none" stroke="midnightblue" d="M306.457,-112.424C348.241,-103.866 413.559,-90.0079 469.676,-76 471.146,-75.6331 472.651,-75.2468 474.168,-74.849"/>
<polygon fill="midnightblue" stroke="midnightblue" points="475.391,-78.1434 484.121,-72.139 473.552,-71.3893 475.391,-78.1434"/>
</g>
<!-- Node14&#45;&gt;Node13 -->
<g id="edge17" class="edge"><title>Node14&#45;&gt;Node13</title>
<path fill="none" stroke="midnightblue" d="M253.882,-112.2C239.39,-99.33 211.195,-74.8547 185.676,-56 170.723,-44.9519 153.163,-33.5202 139.5,-24.9435"/>
<polygon fill="midnightblue" stroke="midnightblue" points="141.085,-21.8074 130.744,-19.5017 137.39,-27.7529 141.085,-21.8074"/>
</g>
<!-- Node15 -->
<g id="node15" class="node"><title>Node15</title>
<polygon fill="none" stroke="#bfbfbf" points="234.176,-56.5 234.176,-75.5 293.176,-75.5 293.176,-56.5 234.176,-56.5"/>
<text text-anchor="middle" x="263.676" y="-63.5" font-family="Helvetica,sans-Serif" font-size="10.00">TObject.h</text>
</g>
<!-- Node14&#45;&gt;Node15 -->
<g id="edge18" class="edge"><title>Node14&#45;&gt;Node15</title>
<path fill="none" stroke="midnightblue" d="M263.676,-112.083C263.676,-105.006 263.676,-94.8611 263.676,-85.9865"/>
<polygon fill="midnightblue" stroke="midnightblue" points="267.176,-85.751 263.676,-75.7511 260.176,-85.7511 267.176,-85.751"/>
</g>
<!-- Node16 -->
<g id="node16" class="node"><title>Node16</title>
<polygon fill="none" stroke="#bfbfbf" points="311.676,-56.5 311.676,-75.5 427.676,-75.5 427.676,-56.5 311.676,-56.5"/>
<text text-anchor="middle" x="369.676" y="-63.5" font-family="Helvetica,sans-Serif" font-size="10.00">Common/Exceptions.h</text>
</g>
<!-- Node14&#45;&gt;Node16 -->
<g id="edge19" class="edge"><title>Node14&#45;&gt;Node16</title>
<path fill="none" stroke="midnightblue" d="M280.707,-112.324C297.706,-103.664 324.052,-90.2424 343.669,-80.249"/>
<polygon fill="midnightblue" stroke="midnightblue" points="345.366,-83.3125 352.688,-75.6545 342.188,-77.0752 345.366,-83.3125"/>
</g>
<!-- Node14&#45;&gt;Node17 -->
<g id="edge20" class="edge"><title>Node14&#45;&gt;Node17</title>
<path fill="none" stroke="midnightblue" d="M240.384,-112.444C215.869,-103.438 177.08,-89.1891 149.476,-79.049"/>
<polygon fill="midnightblue" stroke="midnightblue" points="150.453,-75.6793 139.86,-75.5164 148.04,-82.25 150.453,-75.6793"/>
</g>
<!-- Node17&#45;&gt;Node6 -->
<g id="edge22" class="edge"><title>Node17&#45;&gt;Node6</title>
<path fill="none" stroke="midnightblue" d="M177.206,-59.7244C192.677,-58.4395 209.288,-57.1153 224.676,-56 495.637,-36.3607 823.581,-18.1167 923.996,-12.6536"/>
<polygon fill="midnightblue" stroke="midnightblue" points="924.257,-16.1447 934.053,-12.1079 923.878,-9.15497 924.257,-16.1447"/>
</g>
<!-- Node17&#45;&gt;Node13 -->
<g id="edge21" class="edge"><title>Node17&#45;&gt;Node13</title>
<path fill="none" stroke="midnightblue" d="M116.676,-56.083C116.676,-49.0059 116.676,-38.8611 116.676,-29.9865"/>
<polygon fill="midnightblue" stroke="midnightblue" points="120.176,-29.751 116.676,-19.7511 113.176,-29.7511 120.176,-29.751"/>
</g>
<!-- Node18&#45;&gt;Node5 -->
<g id="edge26" class="edge"><title>Node18&#45;&gt;Node5</title>
<path fill="none" stroke="midnightblue" d="M1233.12,-173.975C1172.69,-162.147 1064.54,-140.979 1008.51,-130.014"/>
<polygon fill="midnightblue" stroke="midnightblue" points="1009.17,-126.576 998.683,-128.09 1007.82,-133.446 1009.17,-126.576"/>
</g>
<!-- Node18&#45;&gt;Node6 -->
<g id="edge25" class="edge"><title>Node18&#45;&gt;Node6</title>
<path fill="none" stroke="midnightblue" d="M1260.71,-173.995C1208.56,-146.223 1043,-58.0446 979.659,-24.306"/>
<polygon fill="midnightblue" stroke="midnightblue" points="981.212,-21.1678 970.741,-19.556 977.921,-27.3462 981.212,-21.1678"/>
</g>
<!-- Node18&#45;&gt;Node8 -->
<g id="edge27" class="edge"><title>Node18&#45;&gt;Node8</title>
<path fill="none" stroke="midnightblue" d="M1296.59,-173.975C1320.13,-163.901 1359.49,-147.053 1386.47,-135.502"/>
<polygon fill="midnightblue" stroke="midnightblue" points="1387.98,-138.662 1395.8,-131.509 1385.23,-132.227 1387.98,-138.662"/>
</g>
<!-- Node18&#45;&gt;Node14 -->
<g id="edge29" class="edge"><title>Node18&#45;&gt;Node14</title>
<path fill="none" stroke="midnightblue" d="M1205.65,-173.993C1185.63,-171.803 1163.82,-169.612 1143.68,-168 852.896,-144.734 507.047,-131.161 349.504,-125.749"/>
<polygon fill="midnightblue" stroke="midnightblue" points="349.516,-122.248 339.402,-125.405 349.277,-129.244 349.516,-122.248"/>
</g>
<!-- Node19 -->
<g id="node19" class="node"><title>Node19</title>
<polygon fill="none" stroke="#bfbfbf" points="685.176,-56.5 685.176,-75.5 768.176,-75.5 768.176,-56.5 685.176,-56.5"/>
<text text-anchor="middle" x="726.676" y="-63.5" font-family="Helvetica,sans-Serif" font-size="10.00">unordered_map</text>
</g>
<!-- Node18&#45;&gt;Node19 -->
<g id="edge28" class="edge"><title>Node18&#45;&gt;Node19</title>
<path fill="none" stroke="midnightblue" d="M1247.84,-173.951C1198.83,-159.646 1096.02,-130.604 1007.68,-112 928.256,-95.275 835.053,-81.4848 778.461,-73.7499"/>
<polygon fill="midnightblue" stroke="midnightblue" points="778.711,-70.2518 768.331,-72.3767 777.77,-77.1884 778.711,-70.2518"/>
</g>
<!-- Node21 -->
<g id="node21" class="node"><title>Node21</title>
<polygon fill="none" stroke="#bfbfbf" points="825.676,-235.5 825.676,-254.5 955.676,-254.5 955.676,-235.5 825.676,-235.5"/>
<text text-anchor="middle" x="890.676" y="-242.5" font-family="Helvetica,sans-Serif" font-size="10.00">InfoLogger/InfoLogger.hxx</text>
</g>
<!-- Node20&#45;&gt;Node21 -->
<g id="edge32" class="edge"><title>Node20&#45;&gt;Node21</title>
<path fill="none" stroke="midnightblue" d="M828.992,-296.975C840.327,-287.608 858.749,-272.384 872.515,-261.008"/>
<polygon fill="midnightblue" stroke="midnightblue" points="874.9,-263.577 880.379,-254.509 870.441,-258.181 874.9,-263.577"/>
</g>
<!-- Node22 -->
<g id="node22" class="node"><title>Node22</title>
<g id="a_node22"><a xlink:href="TaskInterface_8h.html" target="_top" xlink:title="QualityControl/TaskInterface.h">
<polygon fill="none" stroke="black" points="657.676,-235.5 657.676,-254.5 807.676,-254.5 807.676,-235.5 657.676,-235.5"/>
<text text-anchor="middle" x="732.676" y="-242.5" font-family="Helvetica,sans-Serif" font-size="10.00">QualityControl/TaskInterface.h</text>
</a>
</g>
</g>
<!-- Node20&#45;&gt;Node22 -->
<g id="edge33" class="edge"><title>Node20&#45;&gt;Node22</title>
<path fill="none" stroke="midnightblue" d="M806.354,-296.975C792.56,-287.431 769.977,-271.807 753.444,-260.368"/>
<polygon fill="midnightblue" stroke="midnightblue" points="755.19,-257.32 744.975,-254.509 751.207,-263.077 755.19,-257.32"/>
</g>
<!-- Node22&#45;&gt;Node5 -->
<g id="edge35" class="edge"><title>Node22&#45;&gt;Node5</title>
<path fill="none" stroke="midnightblue" d="M719.138,-235.358C697.93,-220.785 661.213,-190.693 680.676,-168 713.233,-130.041 865.6,-123.8 936.375,-122.982"/>
<polygon fill="midnightblue" stroke="midnightblue" points="936.632,-126.48 946.602,-122.895 936.573,-119.48 936.632,-126.48"/>
</g>
<!-- Node22&#45;&gt;Node6 -->
<g id="edge36" class="edge"><title>Node22&#45;&gt;Node6</title>
<path fill="none" stroke="midnightblue" d="M807.767,-235.797C810.775,-235.518 813.754,-235.251 816.676,-235 878.134,-229.713 1328.5,-244.01 1370.68,-199 1429.42,-136.317 1090.37,-44.9845 985.111,-18.4716"/>
<polygon fill="midnightblue" stroke="midnightblue" points="985.947,-15.0729 975.396,-16.042 984.248,-21.8638 985.947,-15.0729"/>
</g>
<!-- Node22&#45;&gt;Node7 -->
<g id="edge34" class="edge"><title>Node22&#45;&gt;Node7</title>
<path fill="none" stroke="midnightblue" d="M657.581,-243.842C576.265,-241.885 454.187,-233.136 424.676,-199 392.024,-161.231 448.984,-107.662 481.454,-81.9305"/>
<polygon fill="midnightblue" stroke="midnightblue" points="483.711,-84.6099 489.491,-75.7303 479.435,-79.0676 483.711,-84.6099"/>
</g>
<!-- Node22&#45;&gt;Node19 -->
<g id="edge37" class="edge"><title>Node22&#45;&gt;Node19</title>
<path fill="none" stroke="midnightblue" d="M712.77,-235.41C698.451,-228.04 680.218,-215.916 671.676,-199 665.466,-186.701 666.404,-180.729 671.676,-168 680.335,-147.095 696.142,-151.467 707.676,-132 716.197,-117.618 721.114,-99.1602 723.802,-85.5908"/>
<polygon fill="midnightblue" stroke="midnightblue" points="727.285,-85.9935 725.565,-75.5391 720.39,-84.7839 727.285,-85.9935"/>
</g>
<!-- Node23 -->
<g id="node23" class="node"><title>Node23</title>
<polygon fill="none" stroke="#bfbfbf" points="690.176,-174 690.176,-193 815.176,-193 815.176,-174 690.176,-174"/>
<text text-anchor="middle" x="752.676" y="-181" font-family="Helvetica,sans-Serif" font-size="10.00">Framework/InitContext.h</text>
</g>
<!-- Node22&#45;&gt;Node23 -->
<g id="edge38" class="edge"><title>Node22&#45;&gt;Node23</title>
<path fill="none" stroke="midnightblue" d="M735.542,-235.475C738.393,-226.992 742.86,-213.704 746.517,-202.822"/>
<polygon fill="midnightblue" stroke="midnightblue" points="749.947,-203.603 749.816,-193.009 743.312,-201.373 749.947,-203.603"/>
</g>
<!-- Node24 -->
<g id="node24" class="node"><title>Node24</title>
<polygon fill="none" stroke="#bfbfbf" points="833.676,-174 833.676,-193 993.676,-193 993.676,-174 833.676,-174"/>
<text text-anchor="middle" x="913.676" y="-181" font-family="Helvetica,sans-Serif" font-size="10.00">Framework/ProcessingContext.h</text>
</g>
<!-- Node22&#45;&gt;Node24 -->
<g id="edge39" class="edge"><title>Node22&#45;&gt;Node24</title>
<path fill="none" stroke="midnightblue" d="M758.609,-235.475C789.926,-225.18 842.766,-207.81 877.932,-196.25"/>
<polygon fill="midnightblue" stroke="midnightblue" points="879.384,-199.457 887.791,-193.009 877.198,-192.807 879.384,-199.457"/>
</g>
<!-- Node25 -->
<g id="node25" class="node"><title>Node25</title>
<g id="a_node25"><a xlink:href="Activity_8h.html" target="_top" xlink:title="QualityControl/Activity.h">
<polygon fill="none" stroke="black" points="1012.18,-174 1012.18,-193 1135.18,-193 1135.18,-174 1012.18,-174"/>
<text text-anchor="middle" x="1073.68" y="-181" font-family="Helvetica,sans-Serif" font-size="10.00">QualityControl/Activity.h</text>
</a>
</g>
</g>
<!-- Node22&#45;&gt;Node25 -->
<g id="edge40" class="edge"><title>Node22&#45;&gt;Node25</title>
<path fill="none" stroke="midnightblue" d="M787.336,-235.487C841.95,-226.84 928.266,-212.794 1002.68,-199 1009.32,-197.767 1016.31,-196.413 1023.2,-195.043"/>
<polygon fill="midnightblue" stroke="midnightblue" points="1024.06,-198.44 1033.18,-193.036 1022.68,-191.577 1024.06,-198.44"/>
</g>
<!-- Node26 -->
<g id="node26" class="node"><title>Node26</title>
<g id="a_node26"><a xlink:href="ObjectsManager_8h.html" target="_top" xlink:title="QualityControl/ObjectsManager.h">
<polygon fill="none" stroke="black" points="434.176,-174 434.176,-193 595.176,-193 595.176,-174 434.176,-174"/>
<text text-anchor="middle" x="514.676" y="-181" font-family="Helvetica,sans-Serif" font-size="10.00">QualityControl/ObjectsManager.h</text>
</a>
</g>
</g>
<!-- Node22&#45;&gt;Node26 -->
<g id="edge41" class="edge"><title>Node22&#45;&gt;Node26</title>
<path fill="none" stroke="midnightblue" d="M701.442,-235.475C663.076,-225.004 597.889,-207.212 555.565,-195.66"/>
<polygon fill="midnightblue" stroke="midnightblue" points="556.421,-192.266 545.852,-193.009 554.578,-199.019 556.421,-192.266"/>
</g>
<!-- Node26&#45;&gt;Node5 -->
<g id="edge48" class="edge"><title>Node26&#45;&gt;Node5</title>
<path fill="none" stroke="midnightblue" d="M580.296,-173.975C678.216,-161.254 859.293,-137.73 936.392,-127.714"/>
<polygon fill="midnightblue" stroke="midnightblue" points="937.096,-131.152 946.562,-126.393 936.194,-124.21 937.096,-131.152"/>
</g>
<!-- Node26&#45;&gt;Node6 -->
<g id="edge47" class="edge"><title>Node26&#45;&gt;Node6</title>
<path fill="none" stroke="midnightblue" d="M517.148,-173.683C521.576,-159.246 532.079,-130.339 549.676,-112 585.482,-74.6841 602.663,-72.5019 651.676,-56 747.36,-23.7849 867.76,-14.6026 923.599,-12.0082"/>
<polygon fill="midnightblue" stroke="midnightblue" points="924.037,-15.4929 933.88,-11.5723 923.74,-8.49914 924.037,-15.4929"/>
</g>
<!-- Node26&#45;&gt;Node14 -->
<g id="edge42" class="edge"><title>Node26&#45;&gt;Node14</title>
<path fill="none" stroke="midnightblue" d="M478.714,-173.975C434.167,-163.415 358.217,-145.411 309.527,-133.869"/>
<polygon fill="midnightblue" stroke="midnightblue" points="310.109,-130.41 299.572,-131.509 308.495,-137.221 310.109,-130.41"/>
</g>
<!-- Node26&#45;&gt;Node17 -->
<g id="edge43" class="edge"><title>Node26&#45;&gt;Node17</title>
<path fill="none" stroke="midnightblue" d="M433.862,-176.397C348.96,-168.928 221.862,-154.434 178.676,-132 157.359,-120.927 139.249,-99.6471 128.204,-84.4519"/>
<polygon fill="midnightblue" stroke="midnightblue" points="130.856,-82.1355 122.274,-75.9227 125.109,-86.1313 130.856,-82.1355"/>
</g>
<!-- Node27 -->
<g id="node27" class="node"><title>Node27</title>
<g id="a_node27"><a xlink:href="TaskConfig_8h.html" target="_top" xlink:title="QualityControl/TaskConfig.h">
<polygon fill="none" stroke="black" points="558.676,-112.5 558.676,-131.5 698.676,-131.5 698.676,-112.5 558.676,-112.5"/>
<text text-anchor="middle" x="628.676" y="-119.5" font-family="Helvetica,sans-Serif" font-size="10.00">QualityControl/TaskConfig.h</text>
</a>
</g>
</g>
<!-- Node26&#45;&gt;Node27 -->
<g id="edge44" class="edge"><title>Node26&#45;&gt;Node27</title>
<path fill="none" stroke="midnightblue" d="M531.01,-173.975C549.887,-164.122 581.183,-147.788 603.252,-136.27"/>
<polygon fill="midnightblue" stroke="midnightblue" points="605.127,-139.239 612.373,-131.509 601.888,-133.033 605.127,-139.239"/>
</g>
<!-- Node27&#45;&gt;Node6 -->
<g id="edge45" class="edge"><title>Node27&#45;&gt;Node6</title>
<path fill="none" stroke="midnightblue" d="M632.351,-112.126C638.806,-97.7451 653.626,-69.59 675.676,-56 716.838,-30.6313 859.999,-17.6515 923.699,-13.0216"/>
<polygon fill="midnightblue" stroke="midnightblue" points="924.193,-16.4956 933.922,-12.3011 923.701,-9.5129 924.193,-16.4956"/>
</g>
<!-- Node27&#45;&gt;Node19 -->
<g id="edge46" class="edge"><title>Node27&#45;&gt;Node19</title>
<path fill="none" stroke="midnightblue" d="M644.421,-112.324C659.995,-103.743 684.053,-90.486 702.135,-80.5224"/>
<polygon fill="midnightblue" stroke="midnightblue" points="703.901,-83.546 710.97,-75.6545 700.522,-77.4152 703.901,-83.546"/>
</g>
<!-- Node28&#45;&gt;Node6 -->
<g id="edge51" class="edge"><title>Node28&#45;&gt;Node6</title>
<path fill="none" stroke="midnightblue" d="M1551.17,-168.41C1542.68,-158.545 1531.46,-144.876 1522.68,-132 1500.81,-99.9345 1512.33,-76.966 1479.68,-56 1438,-29.2436 1091.13,-15.553 985.248,-11.9698"/>
<polygon fill="midnightblue" stroke="midnightblue" points="985.325,-8.47055 975.214,-11.6363 985.092,-15.4667 985.325,-8.47055"/>
</g>
<!-- Node28&#45;&gt;Node8 -->
<g id="edge50" class="edge"><title>Node28&#45;&gt;Node8</title>
<path fill="none" stroke="midnightblue" d="M1528.6,-168.399C1503.66,-158.372 1470.47,-145.028 1446.53,-135.405"/>
<polygon fill="midnightblue" stroke="midnightblue" points="1447.8,-132.141 1437.21,-131.658 1445.18,-138.635 1447.8,-132.141"/>
</g>
<!-- Node29 -->
<g id="node29" class="node"><title>Node29</title>
<polygon fill="none" stroke="#bfbfbf" points="1531.68,-112.5 1531.68,-131.5 1671.68,-131.5 1671.68,-112.5 1531.68,-112.5"/>
<text text-anchor="middle" x="1601.68" y="-119.5" font-family="Helvetica,sans-Serif" font-size="10.00">Framework/WorkflowSpec.h</text>
</g>
<!-- Node28&#45;&gt;Node29 -->
<g id="edge52" class="edge"><title>Node28&#45;&gt;Node29</title>
<path fill="none" stroke="midnightblue" d="M1572.68,-168.399C1578.09,-159.932 1585.01,-149.099 1590.73,-140.139"/>
<polygon fill="midnightblue" stroke="midnightblue" points="1593.71,-141.97 1596.15,-131.658 1587.81,-138.202 1593.71,-141.97"/>
</g>
<!-- Node30&#45;&gt;Node6 -->
<g id="edge54" class="edge"><title>Node30&#45;&gt;Node6</title>
<path fill="none" stroke="midnightblue" d="M1665.46,-358.5C1675.87,-339.165 1699.68,-290.142 1699.68,-246 1699.68,-246 1699.68,-246 1699.68,-121 1699.68,-47.5726 1125.98,-18.3082 985.462,-12.2415"/>
<polygon fill="midnightblue" stroke="midnightblue" points="985.518,-8.74088 975.379,-11.8142 985.222,-15.7346 985.518,-8.74088"/>
</g>
<!-- Node31 -->
<g id="node31" class="node"><title>Node31</title>
<polygon fill="none" stroke="#bfbfbf" points="1728.18,-291.5 1728.18,-321.5 1863.18,-321.5 1863.18,-291.5 1728.18,-291.5"/>
<text text-anchor="start" x="1736.18" y="-309.5" font-family="Helvetica,sans-Serif" font-size="10.00">Configuration/Configuration</text>
<text text-anchor="middle" x="1795.68" y="-298.5" font-family="Helvetica,sans-Serif" font-size="10.00">Factory.h</text>
</g>
<!-- Node30&#45;&gt;Node31 -->
<g id="edge55" class="edge"><title>Node30&#45;&gt;Node31</title>
<path fill="none" stroke="midnightblue" d="M1680.02,-358.475C1699.41,-349.927 1729.88,-336.501 1754.67,-325.573"/>
<polygon fill="midnightblue" stroke="midnightblue" points="1756.12,-328.759 1763.86,-321.523 1753.3,-322.353 1756.12,-328.759"/>
</g>
</g>
</svg>
        <g id="navigator" transform="translate(0 0)" fill="#404254">
                <rect fill="#f2f5e9" fill-opacity="0.5" stroke="#606060" stroke-width=".5" x="0" y="0" width="60" height="60"/>
                <use id="zoomplus" xlink:href="#zoomPlus" x="17" y="9" onmousedown="handleZoom(evt,'in')"/>
                <use id="zoomminus" xlink:href="#zoomMin" x="42" y="9" onmousedown="handleZoom(evt,'out')"/>
                <use id="reset" xlink:href="#resetDef" x="30" y="36" onmousedown="handleReset()"/>
                <g id="arrowUp" xlink:href="#dirArrow" transform="translate(30 24)" onmousedown="handlePan(0,-1)">
                  <use xlink:href="#rim" fill="#404040">
                        <set attributeName="fill" to="#808080" begin="arrowUp.mouseover" end="arrowUp.mouseout"/>
                  </use>
                  <path fill="none" stroke="white" stroke-width="1.5" d="M0,-3.0v7 M-2.5,-0.5L0,-3.0L2.5,-0.5"/>
                </g>
                <g id="arrowRight" xlink:href="#dirArrow" transform="rotate(90) translate(36 -43)" onmousedown="handlePan(1,0)">
                  <use xlink:href="#rim" fill="#404040">
                        <set attributeName="fill" to="#808080" begin="arrowRight.mouseover" end="arrowRight.mouseout"/>
                  </use>
                  <path fill="none" stroke="white" stroke-width="1.5" d="M0,-3.0v7 M-2.5,-0.5L0,-3.0L2.5,-0.5"/>
                </g>
                <g id="arrowDown" xlink:href="#dirArrow" transform="rotate(180) translate(-30 -48)" onmousedown="handlePan(0,1)">
                  <use xlink:href="#rim" fill="#404040">
                        <set attributeName="fill" to="#808080" begin="arrowDown.mouseover" end="arrowDown.mouseout"/>
                  </use>
                  <path fill="none" stroke="white" stroke-width="1.5" d="M0,-3.0v7 M-2.5,-0.5L0,-3.0L2.5,-0.5"/>
                </g>
                <g id="arrowLeft" xlink:href="#dirArrow" transform="rotate(270) translate(-36 17)" onmousedown="handlePan(-1,0)">
                  <use xlink:href="#rim" fill="#404040">
                        <set attributeName="fill" to="#808080" begin="arrowLeft.mouseover" end="arrowLeft.mouseout"/>
                  </use>
                  <path fill="none" stroke="white" stroke-width="1.5" d="M0,-3.0v7 M-2.5,-0.5L0,-3.0L2.5,-0.5"/>
                </g>
        </g>
        <svg viewBox="0 0 15 15" width="100%" height="30px" preserveAspectRatio="xMaxYMin meet">
         <g id="arrow_out" transform="scale(0.3 0.3)">
          <a xlink:href="testWorkflow_8cxx__incl_org.svg" target="_base">
           <rect id="button" ry="5" rx="5" y="6" x="6" height="38" width="38"
                fill="#f2f5e9" fill-opacity="0.5" stroke="#606060" stroke-width="1.0"/>
           <path id="arrow"
             d="M 11.500037,31.436501 C 11.940474,20.09759 22.043105,11.32322 32.158766,21.979434 L 37.068811,17.246167 C 37.068811,17.246167 37.088388,32 37.088388,32 L 22.160133,31.978069 C 22.160133,31.978069 26.997745,27.140456 26.997745,27.140456 C 18.528582,18.264221 13.291696,25.230495 11.500037,31.436501 z"
             style="fill:#404040;"/>
          </a>
         </g>
        </svg>
</svg>
