<?xml version="1.0" encoding="UTF-8" standalone="no"?>
<!DOCTYPE svg PUBLIC "-//W3C//DTD SVG 1.1//EN"
 "http://www.w3.org/Graphics/SVG/1.1/DTD/svg11.dtd">
<!-- Generated by graphviz version 2.38.0 (20140413.2041)
 -->
<!-- Title: Framework/test/testTaskInterface.cxx Pages: 1 -->
<svg width="990pt" height="308pt"
 viewBox="0.00 0.00 990.00 308.00" xmlns="http://www.w3.org/2000/svg" xmlns:xlink="http://www.w3.org/1999/xlink">
<g id="graph0" class="graph" transform="scale(1 1) rotate(0) translate(4 304)">
<title>Framework/test/testTaskInterface.cxx</title>
<!-- Node1 -->
<g id="node1" class="node"><title>Node1</title>
<polygon fill="#bfbfbf" stroke="black" points="550,-280.5 550,-299.5 733,-299.5 733,-280.5 550,-280.5"/>
<text text-anchor="middle" x="641.5" y="-287.5" font-family="Helvetica,sans-Serif" font-size="10.00">Framework/test/testTaskInterface.cxx</text>
</g>
<!-- Node2 -->
<g id="node2" class="node"><title>Node2</title>
<g id="a_node2"><a xlink:href="TaskFactory_8h.html" target="_top" xlink:title="QualityControl/TaskFactory.h">
<polygon fill="none" stroke="black" points="61,-168.5 61,-187.5 206,-187.5 206,-168.5 61,-168.5"/>
<text text-anchor="middle" x="133.5" y="-175.5" font-family="Helvetica,sans-Serif" font-size="10.00">QualityControl/TaskFactory.h</text>
</a>
</g>
</g>
<!-- Node1&#45;&gt;Node2 -->
<g id="edge1" class="edge"><title>Node1&#45;&gt;Node2</title>
<path fill="none" stroke="midnightblue" d="M602.061,-280.46C510.444,-260.622 283.406,-211.46 182.819,-189.679"/>
<polygon fill="midnightblue" stroke="midnightblue" points="183.428,-186.23 172.914,-187.535 181.947,-193.072 183.428,-186.23"/>
</g>
<!-- Node8 -->
<g id="node8" class="node"><title>Node8</title>
<g id="a_node8"><a xlink:href="TaskInterface_8h.html" target="_top" xlink:title="QualityControl/TaskInterface.h">
<polygon fill="none" stroke="black" points="463.5,-224.5 463.5,-243.5 613.5,-243.5 613.5,-224.5 463.5,-224.5"/>
<text text-anchor="middle" x="538.5" y="-231.5" font-family="Helvetica,sans-Serif" font-size="10.00">QualityControl/TaskInterface.h</text>
</a>
</g>
</g>
<!-- Node1&#45;&gt;Node8 -->
<g id="edge7" class="edge"><title>Node1&#45;&gt;Node8</title>
<path fill="none" stroke="midnightblue" d="M624.951,-280.324C608.508,-271.703 583.065,-258.364 564.032,-248.386"/>
<polygon fill="midnightblue" stroke="midnightblue" points="565.489,-245.198 555.008,-243.655 562.239,-251.398 565.489,-245.198"/>
</g>
<!-- Node10 -->
<g id="node10" class="node"><title>Node10</title>
<polygon fill="none" stroke="#bfbfbf" points="857,-168.5 857,-187.5 982,-187.5 982,-168.5 857,-168.5"/>
<text text-anchor="middle" x="919.5" y="-175.5" font-family="Helvetica,sans-Serif" font-size="10.00">Framework/InitContext.h</text>
</g>
<!-- Node1&#45;&gt;Node10 -->
<g id="edge29" class="edge"><title>Node1&#45;&gt;Node10</title>
<path fill="none" stroke="midnightblue" d="M641.327,-280.346C641.552,-266.281 644.193,-238.57 660.5,-224 667.641,-217.62 776.767,-200.26 851.068,-189.062"/>
<polygon fill="midnightblue" stroke="midnightblue" points="851.938,-192.471 861.307,-187.524 850.898,-185.548 851.938,-192.471"/>
</g>
<!-- Node18 -->
<g id="node18" class="node"><title>Node18</title>
<polygon fill="none" stroke="#bfbfbf" points="670,-224.5 670,-243.5 789,-243.5 789,-224.5 670,-224.5"/>
<text text-anchor="middle" x="729.5" y="-231.5" font-family="Helvetica,sans-Serif" font-size="10.00">boost/test/unit_test.hpp</text>
</g>
<!-- Node1&#45;&gt;Node18 -->
<g id="edge30" class="edge"><title>Node1&#45;&gt;Node18</title>
<path fill="none" stroke="midnightblue" d="M655.639,-280.324C669.366,-271.9 690.436,-258.971 706.564,-249.074"/>
<polygon fill="midnightblue" stroke="midnightblue" points="708.704,-251.868 715.396,-243.655 705.043,-245.902 708.704,-251.868"/>
</g>
<!-- Node19 -->
<g id="node19" class="node"><title>Node19</title>
<polygon fill="none" stroke="#bfbfbf" points="807.5,-224.5 807.5,-243.5 861.5,-243.5 861.5,-224.5 807.5,-224.5"/>
<text text-anchor="middle" x="834.5" y="-231.5" font-family="Helvetica,sans-Serif" font-size="10.00">iostream</text>
</g>
<!-- Node1&#45;&gt;Node19 -->
<g id="edge31" class="edge"><title>Node1&#45;&gt;Node19</title>
<path fill="none" stroke="midnightblue" d="M672.081,-280.444C706.183,-270.902 761.323,-255.474 797.744,-245.284"/>
<polygon fill="midnightblue" stroke="midnightblue" points="798.8,-248.623 807.487,-242.558 796.914,-241.882 798.8,-248.623"/>
</g>
<!-- Node3 -->
<g id="node3" class="node"><title>Node3</title>
<polygon fill="none" stroke="#bfbfbf" points="143.5,-112.5 143.5,-131.5 195.5,-131.5 195.5,-112.5 143.5,-112.5"/>
<text text-anchor="middle" x="169.5" y="-119.5" font-family="Helvetica,sans-Serif" font-size="10.00">memory</text>
</g>
<!-- Node2&#45;&gt;Node3 -->
<g id="edge2" class="edge"><title>Node2&#45;&gt;Node3</title>
<path fill="none" stroke="midnightblue" d="M139.445,-168.083C144.477,-160.534 151.837,-149.495 158.013,-140.23"/>
<polygon fill="midnightblue" stroke="midnightblue" points="161.031,-142.013 163.666,-131.751 155.207,-138.13 161.031,-142.013"/>
</g>
<!-- Node4 -->
<g id="node4" class="node"><title>Node4</title>
<polygon fill="none" stroke="#bfbfbf" points="53.5,-56.5 53.5,-75.5 169.5,-75.5 169.5,-56.5 53.5,-56.5"/>
<text text-anchor="middle" x="111.5" y="-63.5" font-family="Helvetica,sans-Serif" font-size="10.00">Common/Exceptions.h</text>
</g>
<!-- Node2&#45;&gt;Node4 -->
<g id="edge3" class="edge"><title>Node2&#45;&gt;Node4</title>
<path fill="none" stroke="midnightblue" d="M131.774,-168.368C128.223,-150.617 120.033,-109.666 115.219,-85.5974"/>
<polygon fill="midnightblue" stroke="midnightblue" points="118.612,-84.7108 113.218,-75.5914 111.747,-86.0837 118.612,-84.7108"/>
</g>
<!-- Node5 -->
<g id="node5" class="node"><title>Node5</title>
<g id="a_node5"><a xlink:href="TaskConfig_8h.html" target="_top" xlink:title="QualityControl/TaskConfig.h">
<polygon fill="none" stroke="black" points="423.5,-112.5 423.5,-131.5 563.5,-131.5 563.5,-112.5 423.5,-112.5"/>
<text text-anchor="middle" x="493.5" y="-119.5" font-family="Helvetica,sans-Serif" font-size="10.00">QualityControl/TaskConfig.h</text>
</a>
</g>
</g>
<!-- Node2&#45;&gt;Node5 -->
<g id="edge4" class="edge"><title>Node2&#45;&gt;Node5</title>
<path fill="none" stroke="midnightblue" d="M190.543,-168.444C254.661,-158.826 358.65,-143.228 426.561,-133.041"/>
<polygon fill="midnightblue" stroke="midnightblue" points="427.354,-136.461 436.724,-131.516 426.315,-129.539 427.354,-136.461"/>
</g>
<!-- Node6 -->
<g id="node6" class="node"><title>Node6</title>
<polygon fill="none" stroke="#bfbfbf" points="471,-0.5 471,-19.5 512,-19.5 512,-0.5 471,-0.5"/>
<text text-anchor="middle" x="491.5" y="-7.5" font-family="Helvetica,sans-Serif" font-size="10.00">string</text>
</g>
<!-- Node5&#45;&gt;Node6 -->
<g id="edge5" class="edge"><title>Node5&#45;&gt;Node6</title>
<path fill="none" stroke="midnightblue" d="M493.343,-112.368C493.02,-94.617 492.276,-53.6664 491.838,-29.5974"/>
<polygon fill="midnightblue" stroke="midnightblue" points="495.338,-29.5261 491.656,-19.5914 488.339,-29.6534 495.338,-29.5261"/>
</g>
<!-- Node7 -->
<g id="node7" class="node"><title>Node7</title>
<polygon fill="none" stroke="#bfbfbf" points="520,-56.5 520,-75.5 603,-75.5 603,-56.5 520,-56.5"/>
<text text-anchor="middle" x="561.5" y="-63.5" font-family="Helvetica,sans-Serif" font-size="10.00">unordered_map</text>
</g>
<!-- Node5&#45;&gt;Node7 -->
<g id="edge6" class="edge"><title>Node5&#45;&gt;Node7</title>
<path fill="none" stroke="midnightblue" d="M504.425,-112.324C514.675,-104.185 530.221,-91.8395 542.501,-82.0874"/>
<polygon fill="midnightblue" stroke="midnightblue" points="544.721,-84.7937 550.376,-75.8339 540.368,-79.3119 544.721,-84.7937"/>
</g>
<!-- Node8&#45;&gt;Node3 -->
<g id="edge9" class="edge"><title>Node8&#45;&gt;Node3</title>
<path fill="none" stroke="midnightblue" d="M505.627,-224.457C476.07,-216.371 431.711,-203.225 394.5,-188 376.471,-180.623 373.772,-174.752 355.5,-168 293.692,-145.161 273.294,-148.244 205.718,-132.224"/>
<polygon fill="midnightblue" stroke="midnightblue" points="206.404,-128.788 195.861,-129.832 204.753,-135.591 206.404,-128.788"/>
</g>
<!-- Node8&#45;&gt;Node6 -->
<g id="edge10" class="edge"><title>Node8&#45;&gt;Node6</title>
<path fill="none" stroke="midnightblue" d="M552.287,-224.229C563.986,-216.13 580.43,-203.097 590.5,-188 624.309,-137.313 663.18,-105.388 627.5,-56 603.62,-22.9454 554.539,-13.7728 522.335,-11.4498"/>
<polygon fill="midnightblue" stroke="midnightblue" points="522.296,-7.94267 512.122,-10.9 521.919,-14.9326 522.296,-7.94267"/>
</g>
<!-- Node8&#45;&gt;Node7 -->
<g id="edge11" class="edge"><title>Node8&#45;&gt;Node7</title>
<path fill="none" stroke="midnightblue" d="M548.056,-224.45C556.588,-216.12 568.489,-202.604 573.5,-188 585.442,-153.196 575.558,-109.692 568.035,-85.4695"/>
<polygon fill="midnightblue" stroke="midnightblue" points="571.298,-84.1899 564.831,-75.7979 564.653,-86.3912 571.298,-84.1899"/>
</g>
<!-- Node9 -->
<g id="node9" class="node"><title>Node9</title>
<polygon fill="none" stroke="#bfbfbf" points="0,-56.5 0,-75.5 35,-75.5 35,-56.5 0,-56.5"/>
<text text-anchor="middle" x="17.5" y="-63.5" font-family="Helvetica,sans-Serif" font-size="10.00">map</text>
</g>
<!-- Node8&#45;&gt;Node9 -->
<g id="edge8" class="edge"><title>Node8&#45;&gt;Node9</title>
<path fill="none" stroke="midnightblue" d="M463.499,-230.689C334.74,-226.049 82.4285,-213.762 51.5,-188 21.2788,-162.828 16.7594,-113.116 16.7309,-85.9012"/>
<polygon fill="midnightblue" stroke="midnightblue" points="20.2331,-85.8194 16.9317,-75.752 13.2344,-85.6808 20.2331,-85.8194"/>
</g>
<!-- Node8&#45;&gt;Node10 -->
<g id="edge12" class="edge"><title>Node8&#45;&gt;Node10</title>
<path fill="none" stroke="midnightblue" d="M598.871,-224.444C666.868,-214.806 777.236,-199.163 849.098,-188.978"/>
<polygon fill="midnightblue" stroke="midnightblue" points="850.002,-192.385 859.412,-187.516 849.02,-185.454 850.002,-192.385"/>
</g>
<!-- Node11 -->
<g id="node11" class="node"><title>Node11</title>
<polygon fill="none" stroke="#bfbfbf" points="678.5,-168.5 678.5,-187.5 838.5,-187.5 838.5,-168.5 678.5,-168.5"/>
<text text-anchor="middle" x="758.5" y="-175.5" font-family="Helvetica,sans-Serif" font-size="10.00">Framework/ProcessingContext.h</text>
</g>
<!-- Node8&#45;&gt;Node11 -->
<g id="edge13" class="edge"><title>Node8&#45;&gt;Node11</title>
<path fill="none" stroke="midnightblue" d="M573.36,-224.444C611.416,-215.102 672.458,-200.119 713.96,-189.933"/>
<polygon fill="midnightblue" stroke="midnightblue" points="714.926,-193.299 723.803,-187.516 713.257,-186.501 714.926,-193.299"/>
</g>
<!-- Node12 -->
<g id="node12" class="node"><title>Node12</title>
<g id="a_node12"><a xlink:href="Activity_8h.html" target="_top" xlink:title="QualityControl/Activity.h">
<polygon fill="none" stroke="black" points="224,-168.5 224,-187.5 347,-187.5 347,-168.5 224,-168.5"/>
<text text-anchor="middle" x="285.5" y="-175.5" font-family="Helvetica,sans-Serif" font-size="10.00">QualityControl/Activity.h</text>
</a>
</g>
</g>
<!-- Node8&#45;&gt;Node12 -->
<g id="edge14" class="edge"><title>Node8&#45;&gt;Node12</title>
<path fill="none" stroke="midnightblue" d="M498.411,-224.444C454.184,-215.004 382.961,-199.802 335.215,-189.611"/>
<polygon fill="midnightblue" stroke="midnightblue" points="335.911,-186.181 325.401,-187.516 334.45,-193.027 335.911,-186.181"/>
</g>
<!-- Node13 -->
<g id="node13" class="node"><title>Node13</title>
<g id="a_node13"><a xlink:href="ObjectsManager_8h.html" target="_top" xlink:title="QualityControl/ObjectsManager.h">
<polygon fill="none" stroke="black" points="404,-168.5 404,-187.5 565,-187.5 565,-168.5 404,-168.5"/>
<text text-anchor="middle" x="484.5" y="-175.5" font-family="Helvetica,sans-Serif" font-size="10.00">QualityControl/ObjectsManager.h</text>
</a>
</g>
</g>
<!-- Node8&#45;&gt;Node13 -->
<g id="edge15" class="edge"><title>Node8&#45;&gt;Node13</title>
<path fill="none" stroke="midnightblue" d="M529.583,-224.083C521.72,-216.22 510.069,-204.569 500.581,-195.081"/>
<polygon fill="midnightblue" stroke="midnightblue" points="502.797,-192.347 493.251,-187.751 497.847,-197.297 502.797,-192.347"/>
</g>
<!-- Node13&#45;&gt;Node3 -->
<g id="edge28" class="edge"><title>Node13&#45;&gt;Node3</title>
<path fill="none" stroke="midnightblue" d="M420.807,-168.474C366.191,-160.773 285.219,-148.437 205.969,-132.154"/>
<polygon fill="midnightblue" stroke="midnightblue" points="206.315,-128.652 195.812,-130.044 204.891,-135.505 206.315,-128.652"/>
</g>
<!-- Node13&#45;&gt;Node5 -->
<g id="edge26" class="edge"><title>Node13&#45;&gt;Node5</title>
<path fill="none" stroke="midnightblue" d="M485.986,-168.083C487.179,-160.927 488.894,-150.635 490.385,-141.691"/>
<polygon fill="midnightblue" stroke="midnightblue" points="493.85,-142.19 492.041,-131.751 486.945,-141.04 493.85,-142.19"/>
</g>
<!-- Node13&#45;&gt;Node6 -->
<g id="edge27" class="edge"><title>Node13&#45;&gt;Node6</title>
<path fill="none" stroke="midnightblue" d="M508.439,-168.494C527.301,-160.962 553.496,-148.587 572.5,-132 595.35,-112.056 602.416,-104.938 611.5,-76 614.162,-67.5191 616.563,-63.306 611.5,-56 591.609,-27.2974 551.003,-16.8747 522.559,-13.1063"/>
<polygon fill="midnightblue" stroke="midnightblue" points="522.648,-9.59456 512.321,-11.9635 521.871,-16.5514 522.648,-9.59456"/>
</g>
<!-- Node14 -->
<g id="node14" class="node"><title>Node14</title>
<g id="a_node14"><a xlink:href="MonitorObject_8h.html" target="_top" xlink:title="QualityControl/MonitorObject.h">
<polygon fill="none" stroke="black" points="214,-112.5 214,-131.5 365,-131.5 365,-112.5 214,-112.5"/>
<text text-anchor="middle" x="289.5" y="-119.5" font-family="Helvetica,sans-Serif" font-size="10.00">QualityControl/MonitorObject.h</text>
</a>
</g>
</g>
<!-- Node13&#45;&gt;Node14 -->
<g id="edge16" class="edge"><title>Node13&#45;&gt;Node14</title>
<path fill="none" stroke="midnightblue" d="M453.602,-168.444C420.226,-159.201 366.906,-144.436 330.151,-134.257"/>
<polygon fill="midnightblue" stroke="midnightblue" points="330.825,-130.812 320.254,-131.516 328.957,-137.558 330.825,-130.812"/>
</g>
<!-- Node17 -->
<g id="node17" class="node"><title>Node17</title>
<g id="a_node17"><a xlink:href="Quality_8h.html" target="_top" xlink:title="QualityControl/Quality.h">
<polygon fill="none" stroke="black" points="342,-56.5 342,-75.5 463,-75.5 463,-56.5 342,-56.5"/>
<text text-anchor="middle" x="402.5" y="-63.5" font-family="Helvetica,sans-Serif" font-size="10.00">QualityControl/Quality.h</text>
</a>
</g>
</g>
<!-- Node13&#45;&gt;Node17 -->
<g id="edge25" class="edge"><title>Node13&#45;&gt;Node17</title>
<path fill="none" stroke="midnightblue" d="M462.353,-168.465C446.504,-161.186 426.012,-149.155 414.5,-132 405.408,-118.451 402.714,-99.9009 402.116,-86.0848"/>
<polygon fill="midnightblue" stroke="midnightblue" points="405.613,-85.7703 402.011,-75.8064 398.613,-85.8415 405.613,-85.7703"/>
</g>
<!-- Node14&#45;&gt;Node4 -->
<g id="edge21" class="edge"><title>Node14&#45;&gt;Node4</title>
<path fill="none" stroke="midnightblue" d="M261.295,-112.444C231.09,-103.28 182.989,-88.6876 149.471,-78.5192"/>
<polygon fill="midnightblue" stroke="midnightblue" points="150.158,-75.0703 139.573,-75.5164 148.126,-81.7688 150.158,-75.0703"/>
</g>
<!-- Node14&#45;&gt;Node6 -->
<g id="edge17" class="edge"><title>Node14&#45;&gt;Node6</title>
<path fill="none" stroke="midnightblue" d="M292.829,-112.409C298.688,-98.4335 312.181,-70.8488 332.5,-56 370.957,-27.8965 426.411,-17.3183 460.639,-13.3541"/>
<polygon fill="midnightblue" stroke="midnightblue" points="461.371,-16.7971 470.957,-12.2856 460.65,-9.8343 461.371,-16.7971"/>
</g>
<!-- Node14&#45;&gt;Node9 -->
<g id="edge18" class="edge"><title>Node14&#45;&gt;Node9</title>
<path fill="none" stroke="midnightblue" d="M230.085,-112.476C182.396,-105.091 113.631,-93.2278 44.8206,-75.7659"/>
<polygon fill="midnightblue" stroke="midnightblue" points="45.6701,-72.3706 35.1131,-73.2647 43.9235,-79.1492 45.6701,-72.3706"/>
</g>
<!-- Node15 -->
<g id="node15" class="node"><title>Node15</title>
<polygon fill="none" stroke="#bfbfbf" points="272.5,-0.5 272.5,-19.5 328.5,-19.5 328.5,-0.5 272.5,-0.5"/>
<text text-anchor="middle" x="300.5" y="-7.5" font-family="Helvetica,sans-Serif" font-size="10.00">Rtypes.h</text>
</g>
<!-- Node14&#45;&gt;Node15 -->
<g id="edge19" class="edge"><title>Node14&#45;&gt;Node15</title>
<path fill="none" stroke="midnightblue" d="M265.771,-112.495C239.172,-101.535 201.593,-80.8965 216.5,-56 226.517,-39.2695 245.117,-28.4057 262.273,-21.553"/>
<polygon fill="midnightblue" stroke="midnightblue" points="263.929,-24.6748 272.131,-17.9677 261.537,-18.0963 263.929,-24.6748"/>
</g>
<!-- Node16 -->
<g id="node16" class="node"><title>Node16</title>
<polygon fill="none" stroke="#bfbfbf" points="226,-56.5 226,-75.5 285,-75.5 285,-56.5 226,-56.5"/>
<text text-anchor="middle" x="255.5" y="-63.5" font-family="Helvetica,sans-Serif" font-size="10.00">TObject.h</text>
</g>
<!-- Node14&#45;&gt;Node16 -->
<g id="edge20" class="edge"><title>Node14&#45;&gt;Node16</title>
<path fill="none" stroke="midnightblue" d="M283.886,-112.083C279.133,-104.534 272.182,-93.4948 266.348,-84.2298"/>
<polygon fill="midnightblue" stroke="midnightblue" points="269.3,-82.3486 261.01,-75.7511 263.376,-86.0783 269.3,-82.3486"/>
</g>
<!-- Node14&#45;&gt;Node17 -->
<g id="edge22" class="edge"><title>Node14&#45;&gt;Node17</title>
<path fill="none" stroke="midnightblue" d="M307.405,-112.444C325.754,-103.675 354.505,-89.9355 375.594,-79.8579"/>
<polygon fill="midnightblue" stroke="midnightblue" points="377.165,-82.9862 384.679,-75.5164 374.147,-76.6703 377.165,-82.9862"/>
</g>
<!-- Node17&#45;&gt;Node6 -->
<g id="edge24" class="edge"><title>Node17&#45;&gt;Node6</title>
<path fill="none" stroke="midnightblue" d="M416.799,-56.324C430.683,-47.9002 451.992,-34.9709 468.304,-25.0741"/>
<polygon fill="midnightblue" stroke="midnightblue" points="470.502,-27.8341 477.236,-19.6545 466.871,-21.8495 470.502,-27.8341"/>
</g>
<!-- Node17&#45;&gt;Node15 -->
<g id="edge23" class="edge"><title>Node17&#45;&gt;Node15</title>
<path fill="none" stroke="midnightblue" d="M386.112,-56.324C369.829,-47.7034 344.633,-34.3643 325.784,-24.3855"/>
<polygon fill="midnightblue" stroke="midnightblue" points="327.323,-21.2402 316.847,-19.6545 324.048,-27.4267 327.323,-21.2402"/>
</g>
</g>
</svg>
