<?xml version="1.0" encoding="UTF-8" standalone="no"?>
<!DOCTYPE svg PUBLIC "-//W3C//DTD SVG 1.1//EN"
 "http://www.w3.org/Graphics/SVG/1.1/DTD/svg11.dtd">
<!-- Generated by graphviz version 2.38.0 (20140413.2041)
 -->
<!-- Title: Framework/test/testTaskRunner.cxx Pages: 1 -->
<svg width="1139pt" height="375pt"
 viewBox="0.00 0.00 1138.50 375.00" xmlns="http://www.w3.org/2000/svg" xmlns:xlink="http://www.w3.org/1999/xlink">
<g id="graph0" class="graph" transform="scale(1 1) rotate(0) translate(4 371)">
<title>Framework/test/testTaskRunner.cxx</title>
<!-- Node1 -->
<g id="node1" class="node"><title>Node1</title>
<polygon fill="#bfbfbf" stroke="black" points="554,-347.5 554,-366.5 730,-366.5 730,-347.5 554,-347.5"/>
<text text-anchor="middle" x="642" y="-354.5" font-family="Helvetica,sans-Serif" font-size="10.00">Framework/test/testTaskRunner.cxx</text>
</g>
<!-- Node2 -->
<g id="node2" class="node"><title>Node2</title>
<polygon fill="none" stroke="#bfbfbf" points="47.5,-286 47.5,-305 166.5,-305 166.5,-286 47.5,-286"/>
<text text-anchor="middle" x="107" y="-293" font-family="Helvetica,sans-Serif" font-size="10.00">getTestDataDirectory.h</text>
</g>
<!-- Node1&#45;&gt;Node2 -->
<g id="edge1" class="edge"><title>Node1&#45;&gt;Node2</title>
<path fill="none" stroke="midnightblue" d="M553.835,-350.514C459.662,-343.952 306.214,-331.244 175,-311 167.864,-309.899 160.351,-308.521 153.026,-307.056"/>
<polygon fill="midnightblue" stroke="midnightblue" points="153.71,-303.623 143.208,-305.021 152.289,-310.477 153.71,-303.623"/>
</g>
<!-- Node3 -->
<g id="node3" class="node"><title>Node3</title>
<g id="a_node3"><a xlink:href="TaskRunnerFactory_8h.html" target="_top" xlink:title="QualityControl/TaskRunner\lFactory.h">
<polygon fill="none" stroke="black" points="184.5,-280.5 184.5,-310.5 319.5,-310.5 319.5,-280.5 184.5,-280.5"/>
<text text-anchor="start" x="192.5" y="-298.5" font-family="Helvetica,sans-Serif" font-size="10.00">QualityControl/TaskRunner</text>
<text text-anchor="middle" x="252" y="-287.5" font-family="Helvetica,sans-Serif" font-size="10.00">Factory.h</text>
</a>
</g>
</g>
<!-- Node1&#45;&gt;Node3 -->
<g id="edge2" class="edge"><title>Node1&#45;&gt;Node3</title>
<path fill="none" stroke="midnightblue" d="M586.123,-347.475C518.798,-337.204 405.306,-319.889 329.534,-308.329"/>
<polygon fill="midnightblue" stroke="midnightblue" points="329.978,-304.856 319.564,-306.808 328.922,-311.776 329.978,-304.856"/>
</g>
<!-- Node7 -->
<g id="node7" class="node"><title>Node7</title>
<g id="a_node7"><a xlink:href="TaskRunner_8h.html" target="_top" xlink:title="QualityControl/TaskRunner.h">
<polygon fill="none" stroke="black" points="491.5,-286 491.5,-305 634.5,-305 634.5,-286 491.5,-286"/>
<text text-anchor="middle" x="563" y="-293" font-family="Helvetica,sans-Serif" font-size="10.00">QualityControl/TaskRunner.h</text>
</a>
</g>
</g>
<!-- Node1&#45;&gt;Node7 -->
<g id="edge6" class="edge"><title>Node1&#45;&gt;Node7</title>
<path fill="none" stroke="midnightblue" d="M630.681,-347.475C618.127,-338.02 597.649,-322.596 582.501,-311.187"/>
<polygon fill="midnightblue" stroke="midnightblue" points="584.391,-308.23 574.298,-305.009 580.18,-313.821 584.391,-308.23"/>
</g>
<!-- Node26 -->
<g id="node26" class="node"><title>Node26</title>
<polygon fill="none" stroke="#bfbfbf" points="653,-286 653,-305 791,-305 791,-286 653,-286"/>
<text text-anchor="middle" x="722" y="-293" font-family="Helvetica,sans-Serif" font-size="10.00">Framework/DataSampling.h</text>
</g>
<!-- Node1&#45;&gt;Node26 -->
<g id="edge37" class="edge"><title>Node1&#45;&gt;Node26</title>
<path fill="none" stroke="midnightblue" d="M653.462,-347.475C666.175,-338.02 686.913,-322.596 702.253,-311.187"/>
<polygon fill="midnightblue" stroke="midnightblue" points="704.624,-313.785 710.559,-305.009 700.446,-308.169 704.624,-313.785"/>
</g>
<!-- Node27 -->
<g id="node27" class="node"><title>Node27</title>
<polygon fill="none" stroke="#bfbfbf" points="809,-286 809,-305 949,-305 949,-286 809,-286"/>
<text text-anchor="middle" x="879" y="-293" font-family="Helvetica,sans-Serif" font-size="10.00">Framework/DataSpecUtils.h</text>
</g>
<!-- Node1&#45;&gt;Node27 -->
<g id="edge38" class="edge"><title>Node1&#45;&gt;Node27</title>
<path fill="none" stroke="midnightblue" d="M675.956,-347.475C717.842,-336.959 789.133,-319.062 835.128,-307.514"/>
<polygon fill="midnightblue" stroke="midnightblue" points="836.26,-310.839 845.107,-305.009 834.555,-304.049 836.26,-310.839"/>
</g>
<!-- Node28 -->
<g id="node28" class="node"><title>Node28</title>
<polygon fill="none" stroke="#bfbfbf" points="967.5,-286 967.5,-305 1086.5,-305 1086.5,-286 967.5,-286"/>
<text text-anchor="middle" x="1027" y="-293" font-family="Helvetica,sans-Serif" font-size="10.00">boost/test/unit_test.hpp</text>
</g>
<!-- Node1&#45;&gt;Node28 -->
<g id="edge39" class="edge"><title>Node1&#45;&gt;Node28</title>
<path fill="none" stroke="midnightblue" d="M711.248,-347.469C775.409,-339.25 873.409,-325.895 958,-311 964.723,-309.816 971.791,-308.46 978.735,-307.063"/>
<polygon fill="midnightblue" stroke="midnightblue" points="979.674,-310.443 988.765,-305.002 978.265,-303.587 979.674,-310.443"/>
</g>
<!-- Node4 -->
<g id="node4" class="node"><title>Node4</title>
<polygon fill="none" stroke="#bfbfbf" points="139.5,-0.5 139.5,-19.5 180.5,-19.5 180.5,-0.5 139.5,-0.5"/>
<text text-anchor="middle" x="160" y="-7.5" font-family="Helvetica,sans-Serif" font-size="10.00">string</text>
</g>
<!-- Node3&#45;&gt;Node4 -->
<g id="edge3" class="edge"><title>Node3&#45;&gt;Node4</title>
<path fill="none" stroke="midnightblue" d="M194.817,-280.459C120.467,-260.501 0,-221.592 0,-179 0,-179 0,-179 0,-121 0,-58.7921 83.1448,-29.1099 129.561,-17.3864"/>
<polygon fill="midnightblue" stroke="midnightblue" points="130.5,-20.7605 139.41,-15.0283 128.87,-13.9529 130.5,-20.7605"/>
</g>
<!-- Node5 -->
<g id="node5" class="node"><title>Node5</title>
<polygon fill="none" stroke="#bfbfbf" points="108,-224.5 108,-243.5 152,-243.5 152,-224.5 108,-224.5"/>
<text text-anchor="middle" x="130" y="-231.5" font-family="Helvetica,sans-Serif" font-size="10.00">vector</text>
</g>
<!-- Node3&#45;&gt;Node5 -->
<g id="edge4" class="edge"><title>Node3&#45;&gt;Node5</title>
<path fill="none" stroke="midnightblue" d="M223.088,-280.399C202.984,-270.595 176.379,-257.619 156.762,-248.052"/>
<polygon fill="midnightblue" stroke="midnightblue" points="158.274,-244.896 147.752,-243.658 155.206,-251.187 158.274,-244.896"/>
</g>
<!-- Node6 -->
<g id="node6" class="node"><title>Node6</title>
<polygon fill="none" stroke="#bfbfbf" points="170,-224.5 170,-243.5 334,-243.5 334,-224.5 170,-224.5"/>
<text text-anchor="middle" x="252" y="-231.5" font-family="Helvetica,sans-Serif" font-size="10.00">Framework/DataProcessorSpec.h</text>
</g>
<!-- Node3&#45;&gt;Node6 -->
<g id="edge5" class="edge"><title>Node3&#45;&gt;Node6</title>
<path fill="none" stroke="midnightblue" d="M252,-280.399C252,-272.466 252,-262.458 252,-253.858"/>
<polygon fill="midnightblue" stroke="midnightblue" points="255.5,-253.658 252,-243.658 248.5,-253.658 255.5,-253.658"/>
</g>
<!-- Node7&#45;&gt;Node6 -->
<g id="edge9" class="edge"><title>Node7&#45;&gt;Node6</title>
<path fill="none" stroke="midnightblue" d="M518.441,-285.975C462.553,-275.283 366.771,-256.958 306.555,-245.437"/>
<polygon fill="midnightblue" stroke="midnightblue" points="306.956,-241.951 296.476,-243.509 305.64,-248.826 306.956,-241.951"/>
</g>
<!-- Node8 -->
<g id="node8" class="node"><title>Node8</title>
<polygon fill="none" stroke="#bfbfbf" points="656,-224.5 656,-243.5 748,-243.5 748,-224.5 656,-224.5"/>
<text text-anchor="middle" x="702" y="-231.5" font-family="Helvetica,sans-Serif" font-size="10.00">Common/Timer.h</text>
</g>
<!-- Node7&#45;&gt;Node8 -->
<g id="edge7" class="edge"><title>Node7&#45;&gt;Node8</title>
<path fill="none" stroke="midnightblue" d="M582.915,-285.975C606.449,-275.901 645.81,-259.053 672.793,-247.502"/>
<polygon fill="midnightblue" stroke="midnightblue" points="674.306,-250.662 682.122,-243.509 671.551,-244.227 674.306,-250.662"/>
</g>
<!-- Node9 -->
<g id="node9" class="node"><title>Node9</title>
<polygon fill="none" stroke="#bfbfbf" points="861,-224.5 861,-243.5 959,-243.5 959,-224.5 861,-224.5"/>
<text text-anchor="middle" x="910" y="-231.5" font-family="Helvetica,sans-Serif" font-size="10.00">Framework/Task.h</text>
</g>
<!-- Node7&#45;&gt;Node9 -->
<g id="edge8" class="edge"><title>Node7&#45;&gt;Node9</title>
<path fill="none" stroke="midnightblue" d="M610.101,-285.99C621.214,-284.004 633.022,-281.911 644,-280 715.092,-267.624 796.96,-253.845 850.883,-244.835"/>
<polygon fill="midnightblue" stroke="midnightblue" points="851.663,-248.253 860.95,-243.154 850.51,-241.349 851.663,-248.253"/>
</g>
<!-- Node10 -->
<g id="node10" class="node"><title>Node10</title>
<polygon fill="none" stroke="#bfbfbf" points="977.5,-224.5 977.5,-243.5 1130.5,-243.5 1130.5,-224.5 977.5,-224.5"/>
<text text-anchor="middle" x="1054" y="-231.5" font-family="Helvetica,sans-Serif" font-size="10.00">Framework/CompletionPolicy.h</text>
</g>
<!-- Node7&#45;&gt;Node10 -->
<g id="edge10" class="edge"><title>Node7&#45;&gt;Node10</title>
<path fill="none" stroke="midnightblue" d="M607.475,-285.979C619.319,-283.863 632.123,-281.713 644,-280 675.1,-275.515 856.289,-256.026 967.137,-244.216"/>
<polygon fill="midnightblue" stroke="midnightblue" points="967.733,-247.672 977.306,-243.133 966.991,-240.712 967.733,-247.672"/>
</g>
<!-- Node11 -->
<g id="node11" class="node"><title>Node11</title>
<polygon fill="none" stroke="#bfbfbf" points="352.5,-224.5 352.5,-243.5 469.5,-243.5 469.5,-224.5 352.5,-224.5"/>
<text text-anchor="middle" x="411" y="-231.5" font-family="Helvetica,sans-Serif" font-size="10.00">Headers/DataHeader.h</text>
</g>
<!-- Node7&#45;&gt;Node11 -->
<g id="edge11" class="edge"><title>Node7&#45;&gt;Node11</title>
<path fill="none" stroke="midnightblue" d="M541.222,-285.975C515.262,-275.813 471.689,-258.756 442.165,-247.2"/>
<polygon fill="midnightblue" stroke="midnightblue" points="443.325,-243.895 432.737,-243.509 440.774,-250.413 443.325,-243.895"/>
</g>
<!-- Node12 -->
<g id="node12" class="node"><title>Node12</title>
<g id="a_node12"><a xlink:href="TaskConfig_8h.html" target="_top" xlink:title="QualityControl/TaskConfig.h">
<polygon fill="none" stroke="black" points="637,-112.5 637,-131.5 777,-131.5 777,-112.5 637,-112.5"/>
<text text-anchor="middle" x="707" y="-119.5" font-family="Helvetica,sans-Serif" font-size="10.00">QualityControl/TaskConfig.h</text>
</a>
</g>
</g>
<!-- Node7&#45;&gt;Node12 -->
<g id="edge12" class="edge"><title>Node7&#45;&gt;Node12</title>
<path fill="none" stroke="midnightblue" d="M607.112,-285.962C661.445,-275.003 747.741,-255.978 757,-244 764.662,-234.088 768.541,-201.545 753,-168 747.479,-156.083 737.328,-145.621 727.963,-137.791"/>
<polygon fill="midnightblue" stroke="midnightblue" points="730.105,-135.023 720.073,-131.617 725.792,-140.536 730.105,-135.023"/>
</g>
<!-- Node14 -->
<g id="node14" class="node"><title>Node14</title>
<g id="a_node14"><a xlink:href="TaskInterface_8h.html" target="_top" xlink:title="QualityControl/TaskInterface.h">
<polygon fill="none" stroke="black" points="488,-224.5 488,-243.5 638,-243.5 638,-224.5 488,-224.5"/>
<text text-anchor="middle" x="563" y="-231.5" font-family="Helvetica,sans-Serif" font-size="10.00">QualityControl/TaskInterface.h</text>
</a>
</g>
</g>
<!-- Node7&#45;&gt;Node14 -->
<g id="edge15" class="edge"><title>Node7&#45;&gt;Node14</title>
<path fill="none" stroke="midnightblue" d="M563,-285.975C563,-277.58 563,-264.481 563,-253.663"/>
<polygon fill="midnightblue" stroke="midnightblue" points="566.5,-253.509 563,-243.509 559.5,-253.509 566.5,-253.509"/>
</g>
<!-- Node12&#45;&gt;Node4 -->
<g id="edge13" class="edge"><title>Node12&#45;&gt;Node4</title>
<path fill="none" stroke="midnightblue" d="M701.187,-112.377C690.834,-97.8298 667.671,-68.7528 640,-56 559.478,-18.8891 283.483,-12.3827 190.706,-11.2423"/>
<polygon fill="midnightblue" stroke="midnightblue" points="190.609,-7.74108 180.57,-11.1305 190.531,-14.7407 190.609,-7.74108"/>
</g>
<!-- Node13 -->
<g id="node13" class="node"><title>Node13</title>
<polygon fill="none" stroke="#bfbfbf" points="726.5,-56.5 726.5,-75.5 809.5,-75.5 809.5,-56.5 726.5,-56.5"/>
<text text-anchor="middle" x="768" y="-63.5" font-family="Helvetica,sans-Serif" font-size="10.00">unordered_map</text>
</g>
<!-- Node12&#45;&gt;Node13 -->
<g id="edge14" class="edge"><title>Node12&#45;&gt;Node13</title>
<path fill="none" stroke="midnightblue" d="M716.801,-112.324C725.818,-104.341 739.406,-92.3128 750.318,-82.6529"/>
<polygon fill="midnightblue" stroke="midnightblue" points="752.853,-85.083 758.021,-75.8339 748.213,-79.8416 752.853,-85.083"/>
</g>
<!-- Node14&#45;&gt;Node4 -->
<g id="edge18" class="edge"><title>Node14&#45;&gt;Node4</title>
<path fill="none" stroke="midnightblue" d="M487.919,-224.989C484.567,-224.651 481.249,-224.32 478,-224 390.062,-215.348 153.876,-239.399 82,-188 53.0761,-167.317 43.2315,-144.785 57,-112 73.1508,-73.5428 111.881,-42.3762 136.976,-25.291"/>
<polygon fill="midnightblue" stroke="midnightblue" points="139.116,-28.0727 145.538,-19.6461 135.263,-22.2286 139.116,-28.0727"/>
</g>
<!-- Node14&#45;&gt;Node13 -->
<g id="edge19" class="edge"><title>Node14&#45;&gt;Node13</title>
<path fill="none" stroke="midnightblue" d="M620.386,-224.483C668.339,-216.459 732.129,-203.391 753,-188 782.637,-166.144 792.964,-148.16 786,-112 784.21,-102.705 780.517,-92.8887 776.939,-84.8048"/>
<polygon fill="midnightblue" stroke="midnightblue" points="780.056,-83.2089 772.621,-75.6611 773.727,-86.1981 780.056,-83.2089"/>
</g>
<!-- Node15 -->
<g id="node15" class="node"><title>Node15</title>
<polygon fill="none" stroke="#bfbfbf" points="596.5,-56.5 596.5,-75.5 631.5,-75.5 631.5,-56.5 596.5,-56.5"/>
<text text-anchor="middle" x="614" y="-63.5" font-family="Helvetica,sans-Serif" font-size="10.00">map</text>
</g>
<!-- Node14&#45;&gt;Node15 -->
<g id="edge16" class="edge"><title>Node14&#45;&gt;Node15</title>
<path fill="none" stroke="midnightblue" d="M628.639,-224.446C672.116,-217.278 723.533,-205.393 737,-188 742.442,-180.972 742.207,-175.204 737,-168 707.112,-126.653 662.097,-169.95 628,-132 616.799,-119.533 613.8,-100.3 613.302,-85.9856"/>
<polygon fill="midnightblue" stroke="midnightblue" points="616.803,-85.7931 613.331,-75.7833 609.803,-85.7735 616.803,-85.7931"/>
</g>
<!-- Node16 -->
<g id="node16" class="node"><title>Node16</title>
<polygon fill="none" stroke="#bfbfbf" points="66,-112.5 66,-131.5 118,-131.5 118,-112.5 66,-112.5"/>
<text text-anchor="middle" x="92" y="-119.5" font-family="Helvetica,sans-Serif" font-size="10.00">memory</text>
</g>
<!-- Node14&#45;&gt;Node16 -->
<g id="edge17" class="edge"><title>Node14&#45;&gt;Node16</title>
<path fill="none" stroke="midnightblue" d="M487.918,-225.002C484.566,-224.66 481.248,-224.325 478,-224 435.469,-219.75 124.496,-218.935 95,-188 83.4454,-175.882 84.2649,-156.007 87.0031,-141.419"/>
<polygon fill="midnightblue" stroke="midnightblue" points="90.4513,-142.043 89.2979,-131.511 83.6318,-140.463 90.4513,-142.043"/>
</g>
<!-- Node17 -->
<g id="node17" class="node"><title>Node17</title>
<polygon fill="none" stroke="#bfbfbf" points="283.5,-168.5 283.5,-187.5 408.5,-187.5 408.5,-168.5 283.5,-168.5"/>
<text text-anchor="middle" x="346" y="-175.5" font-family="Helvetica,sans-Serif" font-size="10.00">Framework/InitContext.h</text>
</g>
<!-- Node14&#45;&gt;Node17 -->
<g id="edge20" class="edge"><title>Node14&#45;&gt;Node17</title>
<path fill="none" stroke="midnightblue" d="M528.616,-224.444C491.078,-215.102 430.869,-200.119 389.933,-189.933"/>
<polygon fill="midnightblue" stroke="midnightblue" points="390.773,-186.535 380.223,-187.516 389.082,-193.328 390.773,-186.535"/>
</g>
<!-- Node18 -->
<g id="node18" class="node"><title>Node18</title>
<polygon fill="none" stroke="#bfbfbf" points="427,-168.5 427,-187.5 587,-187.5 587,-168.5 427,-168.5"/>
<text text-anchor="middle" x="507" y="-175.5" font-family="Helvetica,sans-Serif" font-size="10.00">Framework/ProcessingContext.h</text>
</g>
<!-- Node14&#45;&gt;Node18 -->
<g id="edge21" class="edge"><title>Node14&#45;&gt;Node18</title>
<path fill="none" stroke="midnightblue" d="M554.003,-224.324C545.806,-216.42 533.494,-204.548 523.528,-194.938"/>
<polygon fill="midnightblue" stroke="midnightblue" points="525.789,-192.256 516.161,-187.834 520.93,-197.295 525.789,-192.256"/>
</g>
<!-- Node19 -->
<g id="node19" class="node"><title>Node19</title>
<g id="a_node19"><a xlink:href="Activity_8h.html" target="_top" xlink:title="QualityControl/Activity.h">
<polygon fill="none" stroke="black" points="605.5,-168.5 605.5,-187.5 728.5,-187.5 728.5,-168.5 605.5,-168.5"/>
<text text-anchor="middle" x="667" y="-175.5" font-family="Helvetica,sans-Serif" font-size="10.00">QualityControl/Activity.h</text>
</a>
</g>
</g>
<!-- Node14&#45;&gt;Node19 -->
<g id="edge22" class="edge"><title>Node14&#45;&gt;Node19</title>
<path fill="none" stroke="midnightblue" d="M579.709,-224.324C596.312,-215.703 622.002,-202.364 641.22,-192.386"/>
<polygon fill="midnightblue" stroke="midnightblue" points="643.07,-195.369 650.332,-187.655 639.844,-189.156 643.07,-195.369"/>
</g>
<!-- Node20 -->
<g id="node20" class="node"><title>Node20</title>
<g id="a_node20"><a xlink:href="ObjectsManager_8h.html" target="_top" xlink:title="QualityControl/ObjectsManager.h">
<polygon fill="none" stroke="black" points="104.5,-168.5 104.5,-187.5 265.5,-187.5 265.5,-168.5 104.5,-168.5"/>
<text text-anchor="middle" x="185" y="-175.5" font-family="Helvetica,sans-Serif" font-size="10.00">QualityControl/ObjectsManager.h</text>
</a>
</g>
</g>
<!-- Node14&#45;&gt;Node20 -->
<g id="edge23" class="edge"><title>Node14&#45;&gt;Node20</title>
<path fill="none" stroke="midnightblue" d="M503.105,-224.444C435.643,-214.806 326.144,-199.163 254.847,-188.978"/>
<polygon fill="midnightblue" stroke="midnightblue" points="255.009,-185.466 244.615,-187.516 254.019,-192.396 255.009,-185.466"/>
</g>
<!-- Node20&#45;&gt;Node4 -->
<g id="edge35" class="edge"><title>Node20&#45;&gt;Node4</title>
<path fill="none" stroke="midnightblue" d="M183.656,-168.075C179.721,-141.945 168.164,-65.2106 162.798,-29.577"/>
<polygon fill="midnightblue" stroke="midnightblue" points="166.241,-28.9353 161.29,-19.5681 159.319,-29.9779 166.241,-28.9353"/>
</g>
<!-- Node20&#45;&gt;Node12 -->
<g id="edge34" class="edge"><title>Node20&#45;&gt;Node12</title>
<path fill="none" stroke="midnightblue" d="M265.704,-168.651C363.825,-158.501 528.427,-141.473 626.47,-131.331"/>
<polygon fill="midnightblue" stroke="midnightblue" points="627.036,-134.791 636.622,-130.28 626.315,-127.828 627.036,-134.791"/>
</g>
<!-- Node20&#45;&gt;Node16 -->
<g id="edge36" class="edge"><title>Node20&#45;&gt;Node16</title>
<path fill="none" stroke="midnightblue" d="M170.058,-168.324C155.415,-159.822 132.866,-146.729 115.762,-136.797"/>
<polygon fill="midnightblue" stroke="midnightblue" points="117.31,-133.649 106.905,-131.655 113.795,-139.703 117.31,-133.649"/>
</g>
<!-- Node21 -->
<g id="node21" class="node"><title>Node21</title>
<g id="a_node21"><a xlink:href="MonitorObject_8h.html" target="_top" xlink:title="QualityControl/MonitorObject.h">
<polygon fill="none" stroke="black" points="295.5,-112.5 295.5,-131.5 446.5,-131.5 446.5,-112.5 295.5,-112.5"/>
<text text-anchor="middle" x="371" y="-119.5" font-family="Helvetica,sans-Serif" font-size="10.00">QualityControl/MonitorObject.h</text>
</a>
</g>
</g>
<!-- Node20&#45;&gt;Node21 -->
<g id="edge24" class="edge"><title>Node20&#45;&gt;Node21</title>
<path fill="none" stroke="midnightblue" d="M214.472,-168.444C246.171,-159.241 296.732,-144.562 331.775,-134.388"/>
<polygon fill="midnightblue" stroke="midnightblue" points="333.038,-137.666 341.666,-131.516 331.086,-130.943 333.038,-137.666"/>
</g>
<!-- Node25 -->
<g id="node25" class="node"><title>Node25</title>
<g id="a_node25"><a xlink:href="Quality_8h.html" target="_top" xlink:title="QualityControl/Quality.h">
<polygon fill="none" stroke="black" points="457.5,-56.5 457.5,-75.5 578.5,-75.5 578.5,-56.5 457.5,-56.5"/>
<text text-anchor="middle" x="518" y="-63.5" font-family="Helvetica,sans-Serif" font-size="10.00">QualityControl/Quality.h</text>
</a>
</g>
</g>
<!-- Node20&#45;&gt;Node25 -->
<g id="edge33" class="edge"><title>Node20&#45;&gt;Node25</title>
<path fill="none" stroke="midnightblue" d="M248.906,-168.488C322.918,-158.295 437.036,-141.423 455,-132 476.437,-120.756 494.885,-99.5109 506.18,-84.3705"/>
<polygon fill="midnightblue" stroke="midnightblue" points="509.284,-86.0472 512.251,-75.8764 503.589,-81.9767 509.284,-86.0472"/>
</g>
<!-- Node21&#45;&gt;Node4 -->
<g id="edge25" class="edge"><title>Node21&#45;&gt;Node4</title>
<path fill="none" stroke="midnightblue" d="M295.102,-114.301C262.614,-108.32 225.834,-97.0769 198,-76 182.403,-64.1891 172.054,-43.9703 166.149,-29.2124"/>
<polygon fill="midnightblue" stroke="midnightblue" points="169.36,-27.8056 162.622,-19.6297 162.791,-30.2232 169.36,-27.8056"/>
</g>
<!-- Node21&#45;&gt;Node15 -->
<g id="edge26" class="edge"><title>Node21&#45;&gt;Node15</title>
<path fill="none" stroke="midnightblue" d="M420.283,-112.423C462.165,-104.754 524.014,-92.5354 586.711,-75.8142"/>
<polygon fill="midnightblue" stroke="midnightblue" points="587.63,-79.1914 596.371,-73.2035 585.804,-72.4339 587.63,-79.1914"/>
</g>
<!-- Node22 -->
<g id="node22" class="node"><title>Node22</title>
<polygon fill="none" stroke="#bfbfbf" points="445,-0.5 445,-19.5 501,-19.5 501,-0.5 445,-0.5"/>
<text text-anchor="middle" x="473" y="-7.5" font-family="Helvetica,sans-Serif" font-size="10.00">Rtypes.h</text>
</g>
<!-- Node21&#45;&gt;Node22 -->
<g id="edge27" class="edge"><title>Node21&#45;&gt;Node22</title>
<path fill="none" stroke="midnightblue" d="M379.004,-112.368C396.06,-93.9744 436.214,-50.6712 458.116,-27.0519"/>
<polygon fill="midnightblue" stroke="midnightblue" points="460.8,-29.3039 465.033,-19.5914 455.668,-24.5443 460.8,-29.3039"/>
</g>
<!-- Node23 -->
<g id="node23" class="node"><title>Node23</title>
<polygon fill="none" stroke="#bfbfbf" points="341.5,-56.5 341.5,-75.5 400.5,-75.5 400.5,-56.5 341.5,-56.5"/>
<text text-anchor="middle" x="371" y="-63.5" font-family="Helvetica,sans-Serif" font-size="10.00">TObject.h</text>
</g>
<!-- Node21&#45;&gt;Node23 -->
<g id="edge28" class="edge"><title>Node21&#45;&gt;Node23</title>
<path fill="none" stroke="midnightblue" d="M371,-112.083C371,-105.006 371,-94.8611 371,-85.9865"/>
<polygon fill="midnightblue" stroke="midnightblue" points="374.5,-85.751 371,-75.7511 367.5,-85.7511 374.5,-85.751"/>
</g>
<!-- Node24 -->
<g id="node24" class="node"><title>Node24</title>
<polygon fill="none" stroke="#bfbfbf" points="207,-56.5 207,-75.5 323,-75.5 323,-56.5 207,-56.5"/>
<text text-anchor="middle" x="265" y="-63.5" font-family="Helvetica,sans-Serif" font-size="10.00">Common/Exceptions.h</text>
</g>
<!-- Node21&#45;&gt;Node24 -->
<g id="edge29" class="edge"><title>Node21&#45;&gt;Node24</title>
<path fill="none" stroke="midnightblue" d="M353.969,-112.324C336.97,-103.664 310.624,-90.2424 291.007,-80.249"/>
<polygon fill="midnightblue" stroke="midnightblue" points="292.488,-77.0752 281.988,-75.6545 289.31,-83.3125 292.488,-77.0752"/>
</g>
<!-- Node21&#45;&gt;Node25 -->
<g id="edge30" class="edge"><title>Node21&#45;&gt;Node25</title>
<path fill="none" stroke="midnightblue" d="M394.293,-112.444C418.807,-103.438 457.596,-89.1891 485.2,-79.049"/>
<polygon fill="midnightblue" stroke="midnightblue" points="486.637,-82.25 494.816,-75.5164 484.223,-75.6793 486.637,-82.25"/>
</g>
<!-- Node25&#45;&gt;Node4 -->
<g id="edge32" class="edge"><title>Node25&#45;&gt;Node4</title>
<path fill="none" stroke="midnightblue" d="M461.274,-56.4435C384.645,-44.8849 250.747,-24.6881 190.684,-15.6284"/>
<polygon fill="midnightblue" stroke="midnightblue" points="191.103,-12.152 180.693,-14.1212 190.059,-19.0737 191.103,-12.152"/>
</g>
<!-- Node25&#45;&gt;Node22 -->
<g id="edge31" class="edge"><title>Node25&#45;&gt;Node22</title>
<path fill="none" stroke="midnightblue" d="M510.569,-56.083C504.147,-48.3768 494.694,-37.0333 486.878,-27.6531"/>
<polygon fill="midnightblue" stroke="midnightblue" points="489.383,-25.1927 480.293,-19.7511 484.006,-29.674 489.383,-25.1927"/>
</g>
</g>
</svg>
