<?xml version="1.0" encoding="UTF-8" standalone="no"?>
<!DOCTYPE svg PUBLIC "-//W3C//DTD SVG 1.1//EN"
 "http://www.w3.org/Graphics/SVG/1.1/DTD/svg11.dtd">
<!-- Generated by graphviz version 2.38.0 (20140413.2041)
 -->
<!-- Title: Framework/test/testCheckInterface.cxx Pages: 1 -->
<!--zoomable 263 -->
<svg id="main" version="1.1" xmlns="http://www.w3.org/2000/svg" xmlns:xlink="http://www.w3.org/1999/xlink" xml:space="preserve" onload="init(evt)">
<style type="text/css"><![CDATA[
.edge:hover path { stroke: red; }
.edge:hover polygon { stroke: red; fill: red; }
]]></style>
<script type="text/javascript"><![CDATA[
var edges = document.getElementsByTagName('g');
if (edges && edges.length) {
  for (var i=0;i<edges.length;i++) {
    if (edges[i].id.substr(0,4)=='edge') {
      edges[i].setAttribute('class','edge');
    }
  }
}
]]></script>
        <defs>
                <circle id="rim" cx="0" cy="0" r="7"/>
                <circle id="rim2" cx="0" cy="0" r="3.5"/>
                <g id="zoomPlus">
                        <use xlink:href="#rim" fill="#404040">
                                <set attributeName="fill" to="#808080" begin="zoomplus.mouseover" end="zoomplus.mouseout"/>
                        </use>
                        <path d="M-4,0h8M0,-4v8" fill="none" stroke="white" stroke-width="1.5" pointer-events="none"/>
                </g>
                <g id="zoomMin">
                        <use xlink:href="#rim" fill="#404040">
                                <set attributeName="fill" to="#808080" begin="zoomminus.mouseover" end="zoomminus.mouseout"/>
                        </use>
                        <path d="M-4,0h8" fill="none" stroke="white" stroke-width="1.5" pointer-events="none"/>
                </g>
                <g id="dirArrow">
                        <path fill="none" stroke="white" stroke-width="1.5" d="M0,-3.0v7 M-2.5,-0.5L0,-3.0L2.5,-0.5"/>
                </g>
               <g id="resetDef">
                       <use xlink:href="#rim2" fill="#404040">
                               <set attributeName="fill" to="#808080" begin="reset.mouseover" end="reset.mouseout"/>
                       </use>
               </g>
        </defs>

<script type="text/javascript">
var viewWidth = 787;
var viewHeight = 263;
var sectionId = 'dynsection-0';
</script>
<script xlink:href="svgpan.js"/>
<svg id="graph" class="graph">
<g id="viewport">
<title>Framework/test/testCheckInterface.cxx</title>
<!-- Node1 -->
<g id="node1" class="node"><title>Node1</title>
<polygon fill="#bfbfbf" stroke="black" points="519.713,-224.5 519.713,-254.5 652.713,-254.5 652.713,-224.5 519.713,-224.5"/>
<text text-anchor="start" x="527.713" y="-242.5" font-family="Helvetica,sans-Serif" font-size="10.00">Framework/test/testCheck</text>
<text text-anchor="middle" x="586.213" y="-231.5" font-family="Helvetica,sans-Serif" font-size="10.00">Interface.cxx</text>
</g>
<!-- Node2 -->
<g id="node2" class="node"><title>Node2</title>
<g id="a_node2"><a xlink:href="CheckInterface_8h.html" target="_top" xlink:title="QualityControl/CheckInterface.h">
<polygon fill="none" stroke="black" points="223.713,-168.5 223.713,-187.5 380.713,-187.5 380.713,-168.5 223.713,-168.5"/>
<text text-anchor="middle" x="302.213" y="-175.5" font-family="Helvetica,sans-Serif" font-size="10.00">QualityControl/CheckInterface.h</text>
</a>
</g>
</g>
<!-- Node1&#45;&gt;Node2 -->
<g id="edge1" class="edge"><title>Node1&#45;&gt;Node2</title>
<path fill="none" stroke="midnightblue" d="M519.627,-224.55C468.612,-213.862 399.301,-199.341 352.776,-189.593"/>
<polygon fill="midnightblue" stroke="midnightblue" points="353.425,-186.153 342.919,-187.528 351.989,-193.005 353.425,-186.153"/>
</g>
<!-- Node3 -->
<g id="node3" class="node"><title>Node3</title>
<polygon fill="none" stroke="#bfbfbf" points="464.713,-0.5 464.713,-19.5 505.713,-19.5 505.713,-0.5 464.713,-0.5"/>
<text text-anchor="middle" x="485.213" y="-7.5" font-family="Helvetica,sans-Serif" font-size="10.00">string</text>
</g>
<!-- Node1&#45;&gt;Node3 -->
<g id="edge16" class="edge"><title>Node1&#45;&gt;Node3</title>
<path fill="none" stroke="midnightblue" d="M579.362,-224.41C574.491,-214.313 567.841,-200.37 562.213,-188 535.904,-130.177 506.336,-60.9322 492.762,-28.8891"/>
<polygon fill="midnightblue" stroke="midnightblue" points="495.918,-27.3659 488.799,-19.5187 489.471,-30.0923 495.918,-27.3659"/>
</g>
<!-- Node10 -->
<g id="node10" class="node"><title>Node10</title>
<polygon fill="none" stroke="#bfbfbf" points="570.713,-168.5 570.713,-187.5 689.713,-187.5 689.713,-168.5 570.713,-168.5"/>
<text text-anchor="middle" x="630.213" y="-175.5" font-family="Helvetica,sans-Serif" font-size="10.00">boost/test/unit_test.hpp</text>
</g>
<!-- Node1&#45;&gt;Node10 -->
<g id="edge14" class="edge"><title>Node1&#45;&gt;Node10</title>
<path fill="none" stroke="midnightblue" d="M596.64,-224.399C602.968,-215.842 611.081,-204.871 617.747,-195.857"/>
<polygon fill="midnightblue" stroke="midnightblue" points="620.678,-197.779 623.81,-187.658 615.05,-193.617 620.678,-197.779"/>
</g>
<!-- Node11 -->
<g id="node11" class="node"><title>Node11</title>
<polygon fill="none" stroke="#bfbfbf" points="707.713,-168.5 707.713,-187.5 778.713,-187.5 778.713,-168.5 707.713,-168.5"/>
<text text-anchor="middle" x="743.213" y="-175.5" font-family="Helvetica,sans-Serif" font-size="10.00">TObjString.h</text>
</g>
<!-- Node1&#45;&gt;Node11 -->
<g id="edge15" class="edge"><title>Node1&#45;&gt;Node11</title>
<path fill="none" stroke="midnightblue" d="M623.419,-224.399C649.997,-214.327 685.401,-200.909 710.818,-191.277"/>
<polygon fill="midnightblue" stroke="midnightblue" points="712.257,-194.475 720.368,-187.658 709.776,-187.929 712.257,-194.475"/>
</g>
<!-- Node2&#45;&gt;Node3 -->
<g id="edge2" class="edge"><title>Node2&#45;&gt;Node3</title>
<path fill="none" stroke="midnightblue" d="M329.383,-168.498C367.148,-155.193 434.739,-125.695 469.213,-76 478.631,-62.4226 482.523,-43.8756 484.122,-30.0679"/>
<polygon fill="midnightblue" stroke="midnightblue" points="487.635,-30.0583 484.997,-19.7973 480.661,-29.4642 487.635,-30.0583"/>
</g>
<!-- Node4 -->
<g id="node4" class="node"><title>Node4</title>
<polygon fill="none" stroke="#bfbfbf" points="46.2126,-0.5 46.2126,-19.5 102.213,-19.5 102.213,-0.5 46.2126,-0.5"/>
<text text-anchor="middle" x="74.2126" y="-7.5" font-family="Helvetica,sans-Serif" font-size="10.00">Rtypes.h</text>
</g>
<!-- Node2&#45;&gt;Node4 -->
<g id="edge3" class="edge"><title>Node2&#45;&gt;Node4</title>
<path fill="none" stroke="midnightblue" d="M223.557,-174.589C153.075,-167.732 53.4441,-145.391 4.2126,-76 -10.5083,-55.2512 17.5483,-36.0291 42.4014,-23.9544"/>
<polygon fill="midnightblue" stroke="midnightblue" points="44.0521,-27.0476 51.6739,-19.6883 41.1263,-20.6884 44.0521,-27.0476"/>
</g>
<!-- Node5 -->
<g id="node5" class="node"><title>Node5</title>
<g id="a_node5"><a xlink:href="MonitorObject_8h.html" target="_top" xlink:title="QualityControl/MonitorObject.h">
<polygon fill="none" stroke="black" points="226.713,-112.5 226.713,-131.5 377.713,-131.5 377.713,-112.5 226.713,-112.5"/>
<text text-anchor="middle" x="302.213" y="-119.5" font-family="Helvetica,sans-Serif" font-size="10.00">QualityControl/MonitorObject.h</text>
</a>
</g>
</g>
<!-- Node2&#45;&gt;Node5 -->
<g id="edge4" class="edge"><title>Node2&#45;&gt;Node5</title>
<path fill="none" stroke="midnightblue" d="M302.213,-168.083C302.213,-161.006 302.213,-150.861 302.213,-141.986"/>
<polygon fill="midnightblue" stroke="midnightblue" points="305.713,-141.751 302.213,-131.751 298.713,-141.751 305.713,-141.751"/>
</g>
<!-- Node9 -->
<g id="node9" class="node"><title>Node9</title>
<g id="a_node9"><a xlink:href="Quality_8h.html" target="_top" xlink:title="QualityControl/Quality.h">
<polygon fill="none" stroke="black" points="13.7126,-56.5 13.7126,-75.5 134.713,-75.5 134.713,-56.5 13.7126,-56.5"/>
<text text-anchor="middle" x="74.2126" y="-63.5" font-family="Helvetica,sans-Serif" font-size="10.00">QualityControl/Quality.h</text>
</a>
</g>
</g>
<!-- Node2&#45;&gt;Node9 -->
<g id="edge13" class="edge"><title>Node2&#45;&gt;Node9</title>
<path fill="none" stroke="midnightblue" d="M284.322,-168.368C244.531,-149.171 148.503,-102.842 101.311,-80.074"/>
<polygon fill="midnightblue" stroke="midnightblue" points="102.548,-76.7844 92.0203,-75.5914 99.506,-83.0891 102.548,-76.7844"/>
</g>
<!-- Node5&#45;&gt;Node3 -->
<g id="edge5" class="edge"><title>Node5&#45;&gt;Node3</title>
<path fill="none" stroke="midnightblue" d="M363.039,-112.491C390.98,-106.136 423.169,-95.101 447.213,-76 462.531,-63.8301 472.927,-43.6721 478.92,-29.0266"/>
<polygon fill="midnightblue" stroke="midnightblue" points="482.248,-30.1212 482.513,-19.5297 475.701,-27.6441 482.248,-30.1212"/>
</g>
<!-- Node5&#45;&gt;Node4 -->
<g id="edge7" class="edge"><title>Node5&#45;&gt;Node4</title>
<path fill="none" stroke="midnightblue" d="M274.935,-112.363C250.221,-104.168 213.062,-90.9126 182.213,-76 150.804,-60.8175 116.635,-39.3394 95.3212,-25.2932"/>
<polygon fill="midnightblue" stroke="midnightblue" points="97.0181,-22.2182 86.7544,-19.5902 93.139,-28.0452 97.0181,-22.2182"/>
</g>
<!-- Node6 -->
<g id="node6" class="node"><title>Node6</title>
<polygon fill="none" stroke="#bfbfbf" points="325.713,-56.5 325.713,-75.5 360.713,-75.5 360.713,-56.5 325.713,-56.5"/>
<text text-anchor="middle" x="343.213" y="-63.5" font-family="Helvetica,sans-Serif" font-size="10.00">map</text>
</g>
<!-- Node5&#45;&gt;Node6 -->
<g id="edge6" class="edge"><title>Node5&#45;&gt;Node6</title>
<path fill="none" stroke="midnightblue" d="M308.983,-112.083C314.774,-104.455 323.271,-93.2645 330.35,-83.9408"/>
<polygon fill="midnightblue" stroke="midnightblue" points="333.309,-85.8321 336.568,-75.7511 327.734,-81.5991 333.309,-85.8321"/>
</g>
<!-- Node7 -->
<g id="node7" class="node"><title>Node7</title>
<polygon fill="none" stroke="#bfbfbf" points="378.713,-56.5 378.713,-75.5 437.713,-75.5 437.713,-56.5 378.713,-56.5"/>
<text text-anchor="middle" x="408.213" y="-63.5" font-family="Helvetica,sans-Serif" font-size="10.00">TObject.h</text>
</g>
<!-- Node5&#45;&gt;Node7 -->
<g id="edge8" class="edge"><title>Node5&#45;&gt;Node7</title>
<path fill="none" stroke="midnightblue" d="M319.243,-112.324C336.242,-103.664 362.589,-90.2424 382.205,-80.249"/>
<polygon fill="midnightblue" stroke="midnightblue" points="383.902,-83.3125 391.224,-75.6545 380.725,-77.0752 383.902,-83.3125"/>
</g>
<!-- Node8 -->
<g id="node8" class="node"><title>Node8</title>
<polygon fill="none" stroke="#bfbfbf" points="191.213,-56.5 191.213,-75.5 307.213,-75.5 307.213,-56.5 191.213,-56.5"/>
<text text-anchor="middle" x="249.213" y="-63.5" font-family="Helvetica,sans-Serif" font-size="10.00">Common/Exceptions.h</text>
</g>
<!-- Node5&#45;&gt;Node8 -->
<g id="edge9" class="edge"><title>Node5&#45;&gt;Node8</title>
<path fill="none" stroke="midnightblue" d="M293.461,-112.083C285.743,-104.22 274.308,-92.5688 264.996,-83.0813"/>
<polygon fill="midnightblue" stroke="midnightblue" points="267.304,-80.4363 257.802,-75.7511 262.308,-85.3396 267.304,-80.4363"/>
</g>
<!-- Node5&#45;&gt;Node9 -->
<g id="edge10" class="edge"><title>Node5&#45;&gt;Node9</title>
<path fill="none" stroke="midnightblue" d="M266.085,-112.444C226.561,-103.083 163.116,-88.0561 120.1,-77.868"/>
<polygon fill="midnightblue" stroke="midnightblue" points="120.708,-74.4154 110.171,-75.5164 119.095,-81.2269 120.708,-74.4154"/>
</g>
<!-- Node9&#45;&gt;Node3 -->
<g id="edge12" class="edge"><title>Node9&#45;&gt;Node3</title>
<path fill="none" stroke="midnightblue" d="M134.857,-57.0321C223.878,-45.3359 386.688,-23.9448 454.401,-15.0483"/>
<polygon fill="midnightblue" stroke="midnightblue" points="454.967,-18.5041 464.426,-13.7311 454.055,-11.5637 454.967,-18.5041"/>
</g>
<!-- Node9&#45;&gt;Node4 -->
<g id="edge11" class="edge"><title>Node9&#45;&gt;Node4</title>
<path fill="none" stroke="midnightblue" d="M74.2126,-56.083C74.2126,-49.0059 74.2126,-38.8611 74.2126,-29.9865"/>
<polygon fill="midnightblue" stroke="midnightblue" points="77.7127,-29.751 74.2126,-19.7511 70.7127,-29.7511 77.7127,-29.751"/>
</g>
</g>
</svg>
        <g id="navigator" transform="translate(0 0)" fill="#404254">
                <rect fill="#f2f5e9" fill-opacity="0.5" stroke="#606060" stroke-width=".5" x="0" y="0" width="60" height="60"/>
                <use id="zoomplus" xlink:href="#zoomPlus" x="17" y="9" onmousedown="handleZoom(evt,'in')"/>
                <use id="zoomminus" xlink:href="#zoomMin" x="42" y="9" onmousedown="handleZoom(evt,'out')"/>
                <use id="reset" xlink:href="#resetDef" x="30" y="36" onmousedown="handleReset()"/>
                <g id="arrowUp" xlink:href="#dirArrow" transform="translate(30 24)" onmousedown="handlePan(0,-1)">
                  <use xlink:href="#rim" fill="#404040">
                        <set attributeName="fill" to="#808080" begin="arrowUp.mouseover" end="arrowUp.mouseout"/>
                  </use>
                  <path fill="none" stroke="white" stroke-width="1.5" d="M0,-3.0v7 M-2.5,-0.5L0,-3.0L2.5,-0.5"/>
                </g>
                <g id="arrowRight" xlink:href="#dirArrow" transform="rotate(90) translate(36 -43)" onmousedown="handlePan(1,0)">
                  <use xlink:href="#rim" fill="#404040">
                        <set attributeName="fill" to="#808080" begin="arrowRight.mouseover" end="arrowRight.mouseout"/>
                  </use>
                  <path fill="none" stroke="white" stroke-width="1.5" d="M0,-3.0v7 M-2.5,-0.5L0,-3.0L2.5,-0.5"/>
                </g>
                <g id="arrowDown" xlink:href="#dirArrow" transform="rotate(180) translate(-30 -48)" onmousedown="handlePan(0,1)">
                  <use xlink:href="#rim" fill="#404040">
                        <set attributeName="fill" to="#808080" begin="arrowDown.mouseover" end="arrowDown.mouseout"/>
                  </use>
                  <path fill="none" stroke="white" stroke-width="1.5" d="M0,-3.0v7 M-2.5,-0.5L0,-3.0L2.5,-0.5"/>
                </g>
                <g id="arrowLeft" xlink:href="#dirArrow" transform="rotate(270) translate(-36 17)" onmousedown="handlePan(-1,0)">
                  <use xlink:href="#rim" fill="#404040">
                        <set attributeName="fill" to="#808080" begin="arrowLeft.mouseover" end="arrowLeft.mouseout"/>
                  </use>
                  <path fill="none" stroke="white" stroke-width="1.5" d="M0,-3.0v7 M-2.5,-0.5L0,-3.0L2.5,-0.5"/>
                </g>
        </g>
        <svg viewBox="0 0 15 15" width="100%" height="30px" preserveAspectRatio="xMaxYMin meet">
         <g id="arrow_out" transform="scale(0.3 0.3)">
          <a xlink:href="testCheckInterface_8cxx__incl_org.svg" target="_base">
           <rect id="button" ry="5" rx="5" y="6" x="6" height="38" width="38"
                fill="#f2f5e9" fill-opacity="0.5" stroke="#606060" stroke-width="1.0"/>
           <path id="arrow"
             d="M 11.500037,31.436501 C 11.940474,20.09759 22.043105,11.32322 32.158766,21.979434 L 37.068811,17.246167 C 37.068811,17.246167 37.088388,32 37.088388,32 L 22.160133,31.978069 C 22.160133,31.978069 26.997745,27.140456 26.997745,27.140456 C 18.528582,18.264221 13.291696,25.230495 11.500037,31.436501 z"
             style="fill:#404040;"/>
          </a>
         </g>
        </svg>
</svg>
