<?xml version="1.0" encoding="UTF-8" standalone="no"?>
<!DOCTYPE svg PUBLIC "-//W3C//DTD SVG 1.1//EN"
 "http://www.w3.org/Graphics/SVG/1.1/DTD/svg11.dtd">
<!-- Generated by graphviz version 2.38.0 (20140413.2041)
 -->
<!-- Title: Framework/test/testCcdbDatabase.cxx Pages: 1 -->
<svg width="822pt" height="308pt"
 viewBox="0.00 0.00 821.92 308.00" xmlns="http://www.w3.org/2000/svg" xmlns:xlink="http://www.w3.org/1999/xlink">
<g id="graph0" class="graph" transform="scale(1 1) rotate(0) translate(4 304)">
<title>Framework/test/testCcdbDatabase.cxx</title>
<!-- Node1 -->
<g id="node1" class="node"><title>Node1</title>
<polygon fill="#bfbfbf" stroke="black" points="503.922,-280.5 503.922,-299.5 691.922,-299.5 691.922,-280.5 503.922,-280.5"/>
<text text-anchor="middle" x="597.922" y="-287.5" font-family="Helvetica,sans-Serif" font-size="10.00">Framework/test/testCcdbDatabase.cxx</text>
</g>
<!-- Node2 -->
<g id="node2" class="node"><title>Node2</title>
<g id="a_node2"><a xlink:href="DatabaseFactory_8h.html" target="_top" xlink:title="QualityControl/DatabaseFactory.h">
<polygon fill="none" stroke="black" points="231.422,-224.5 231.422,-243.5 396.422,-243.5 396.422,-224.5 231.422,-224.5"/>
<text text-anchor="middle" x="313.922" y="-231.5" font-family="Helvetica,sans-Serif" font-size="10.00">QualityControl/DatabaseFactory.h</text>
</a>
</g>
</g>
<!-- Node1&#45;&gt;Node2 -->
<g id="edge1" class="edge"><title>Node1&#45;&gt;Node2</title>
<path fill="none" stroke="midnightblue" d="M552.921,-280.444C502.963,-270.944 422.321,-255.611 368.723,-245.42"/>
<polygon fill="midnightblue" stroke="midnightblue" points="369.19,-241.946 358.712,-243.516 367.882,-248.823 369.19,-241.946"/>
</g>
<!-- Node7 -->
<g id="node7" class="node"><title>Node7</title>
<polygon fill="none" stroke="#bfbfbf" points="556.422,-112.5 556.422,-131.5 639.422,-131.5 639.422,-112.5 556.422,-112.5"/>
<text text-anchor="middle" x="597.922" y="-119.5" font-family="Helvetica,sans-Serif" font-size="10.00">unordered_map</text>
</g>
<!-- Node1&#45;&gt;Node7 -->
<g id="edge17" class="edge"><title>Node1&#45;&gt;Node7</title>
<path fill="none" stroke="midnightblue" d="M597.922,-280.075C597.922,-253.945 597.922,-177.211 597.922,-141.577"/>
<polygon fill="midnightblue" stroke="midnightblue" points="601.422,-141.568 597.922,-131.568 594.422,-141.568 601.422,-141.568"/>
</g>
<!-- Node14 -->
<g id="node14" class="node"><title>Node14</title>
<g id="a_node14"><a xlink:href="CcdbDatabase_8h.html" target="_top" xlink:title="QualityControl/CcdbDatabase.h">
<polygon fill="none" stroke="black" points="414.422,-224.5 414.422,-243.5 569.422,-243.5 569.422,-224.5 414.422,-224.5"/>
<text text-anchor="middle" x="491.922" y="-231.5" font-family="Helvetica,sans-Serif" font-size="10.00">QualityControl/CcdbDatabase.h</text>
</a>
</g>
</g>
<!-- Node1&#45;&gt;Node14 -->
<g id="edge18" class="edge"><title>Node1&#45;&gt;Node14</title>
<path fill="none" stroke="midnightblue" d="M580.891,-280.324C563.892,-271.664 537.546,-258.242 517.929,-248.249"/>
<polygon fill="midnightblue" stroke="midnightblue" points="519.41,-245.075 508.911,-243.655 516.232,-251.312 519.41,-245.075"/>
</g>
<!-- Node16 -->
<g id="node16" class="node"><title>Node16</title>
<polygon fill="none" stroke="#bfbfbf" points="626.422,-224.5 626.422,-243.5 745.422,-243.5 745.422,-224.5 626.422,-224.5"/>
<text text-anchor="middle" x="685.922" y="-231.5" font-family="Helvetica,sans-Serif" font-size="10.00">boost/test/unit_test.hpp</text>
</g>
<!-- Node1&#45;&gt;Node16 -->
<g id="edge21" class="edge"><title>Node1&#45;&gt;Node16</title>
<path fill="none" stroke="midnightblue" d="M612.061,-280.324C625.788,-271.9 646.858,-258.971 662.986,-249.074"/>
<polygon fill="midnightblue" stroke="midnightblue" points="665.126,-251.868 671.819,-243.655 661.465,-245.902 665.126,-251.868"/>
</g>
<!-- Node17 -->
<g id="node17" class="node"><title>Node17</title>
<polygon fill="none" stroke="#bfbfbf" points="763.922,-224.5 763.922,-243.5 813.922,-243.5 813.922,-224.5 763.922,-224.5"/>
<text text-anchor="middle" x="788.922" y="-231.5" font-family="Helvetica,sans-Serif" font-size="10.00">TH1F.h</text>
</g>
<!-- Node1&#45;&gt;Node17 -->
<g id="edge22" class="edge"><title>Node1&#45;&gt;Node17</title>
<path fill="none" stroke="midnightblue" d="M628.187,-280.444C662.27,-270.808 717.587,-255.168 753.613,-244.983"/>
<polygon fill="midnightblue" stroke="midnightblue" points="755.008,-248.225 763.679,-242.137 753.104,-241.489 755.008,-248.225"/>
</g>
<!-- Node3 -->
<g id="node3" class="node"><title>Node3</title>
<polygon fill="none" stroke="#bfbfbf" points="195.922,-112.5 195.922,-131.5 247.922,-131.5 247.922,-112.5 195.922,-112.5"/>
<text text-anchor="middle" x="221.922" y="-119.5" font-family="Helvetica,sans-Serif" font-size="10.00">memory</text>
</g>
<!-- Node2&#45;&gt;Node3 -->
<g id="edge2" class="edge"><title>Node2&#45;&gt;Node3</title>
<path fill="none" stroke="midnightblue" d="M301.839,-224.261C290.656,-215.796 273.985,-202.19 261.922,-188 249.475,-173.358 238.293,-154.445 230.938,-140.798"/>
<polygon fill="midnightblue" stroke="midnightblue" points="233.836,-138.788 226.101,-131.548 227.633,-142.031 233.836,-138.788"/>
</g>
<!-- Node4 -->
<g id="node4" class="node"><title>Node4</title>
<g id="a_node4"><a xlink:href="DatabaseInterface_8h.html" target="_top" xlink:title="QualityControl/DatabaseInterface.h">
<polygon fill="none" stroke="black" points="270.922,-168.5 270.922,-187.5 440.922,-187.5 440.922,-168.5 270.922,-168.5"/>
<text text-anchor="middle" x="355.922" y="-175.5" font-family="Helvetica,sans-Serif" font-size="10.00">QualityControl/DatabaseInterface.h</text>
</a>
</g>
</g>
<!-- Node2&#45;&gt;Node4 -->
<g id="edge3" class="edge"><title>Node2&#45;&gt;Node4</title>
<path fill="none" stroke="midnightblue" d="M320.858,-224.083C326.851,-216.377 335.674,-205.033 342.97,-195.653"/>
<polygon fill="midnightblue" stroke="midnightblue" points="345.739,-197.793 349.116,-187.751 340.214,-193.496 345.739,-197.793"/>
</g>
<!-- Node4&#45;&gt;Node3 -->
<g id="edge5" class="edge"><title>Node4&#45;&gt;Node3</title>
<path fill="none" stroke="midnightblue" d="M334.689,-168.444C312.539,-159.517 277.603,-145.439 252.486,-135.317"/>
<polygon fill="midnightblue" stroke="midnightblue" points="253.639,-132.008 243.055,-131.516 251.022,-138.501 253.639,-132.008"/>
</g>
<!-- Node5 -->
<g id="node5" class="node"><title>Node5</title>
<polygon fill="none" stroke="#bfbfbf" points="407.422,-0.5 407.422,-19.5 448.422,-19.5 448.422,-0.5 407.422,-0.5"/>
<text text-anchor="middle" x="427.922" y="-7.5" font-family="Helvetica,sans-Serif" font-size="10.00">string</text>
</g>
<!-- Node4&#45;&gt;Node5 -->
<g id="edge4" class="edge"><title>Node4&#45;&gt;Node5</title>
<path fill="none" stroke="midnightblue" d="M379.754,-168.426C395.776,-161.306 415.758,-149.487 425.922,-132 444.507,-100.023 438.478,-54.8075 432.898,-29.6811"/>
<polygon fill="midnightblue" stroke="midnightblue" points="436.226,-28.5557 430.456,-19.6699 429.426,-30.2145 436.226,-28.5557"/>
</g>
<!-- Node6 -->
<g id="node6" class="node"><title>Node6</title>
<polygon fill="none" stroke="#bfbfbf" points="493.922,-112.5 493.922,-131.5 537.922,-131.5 537.922,-112.5 493.922,-112.5"/>
<text text-anchor="middle" x="515.922" y="-119.5" font-family="Helvetica,sans-Serif" font-size="10.00">vector</text>
</g>
<!-- Node4&#45;&gt;Node6 -->
<g id="edge6" class="edge"><title>Node4&#45;&gt;Node6</title>
<path fill="none" stroke="midnightblue" d="M381.275,-168.444C409.141,-159.038 453.954,-143.914 484.147,-133.724"/>
<polygon fill="midnightblue" stroke="midnightblue" points="485.424,-136.987 493.78,-130.473 483.186,-130.355 485.424,-136.987"/>
</g>
<!-- Node4&#45;&gt;Node7 -->
<g id="edge7" class="edge"><title>Node4&#45;&gt;Node7</title>
<path fill="none" stroke="midnightblue" d="M394.268,-168.444C436.396,-159.043 504.129,-143.929 549.794,-133.739"/>
<polygon fill="midnightblue" stroke="midnightblue" points="550.758,-137.11 559.756,-131.516 549.234,-130.278 550.758,-137.11"/>
</g>
<!-- Node8 -->
<g id="node8" class="node"><title>Node8</title>
<g id="a_node8"><a xlink:href="MonitorObject_8h.html" target="_top" xlink:title="QualityControl/MonitorObject.h">
<polygon fill="none" stroke="black" points="266.422,-112.5 266.422,-131.5 417.422,-131.5 417.422,-112.5 266.422,-112.5"/>
<text text-anchor="middle" x="341.922" y="-119.5" font-family="Helvetica,sans-Serif" font-size="10.00">QualityControl/MonitorObject.h</text>
</a>
</g>
</g>
<!-- Node4&#45;&gt;Node8 -->
<g id="edge8" class="edge"><title>Node4&#45;&gt;Node8</title>
<path fill="none" stroke="midnightblue" d="M353.61,-168.083C351.755,-160.927 349.087,-150.635 346.768,-141.691"/>
<polygon fill="midnightblue" stroke="midnightblue" points="350.089,-140.553 344.191,-131.751 343.313,-142.309 350.089,-140.553"/>
</g>
<!-- Node8&#45;&gt;Node5 -->
<g id="edge9" class="edge"><title>Node8&#45;&gt;Node5</title>
<path fill="none" stroke="midnightblue" d="M361.709,-112.358C376.746,-104.823 396.839,-92.5077 408.922,-76 418.796,-62.5107 423.563,-43.9539 425.85,-30.1202"/>
<polygon fill="midnightblue" stroke="midnightblue" points="429.37,-30.2051 427.245,-19.8256 422.434,-29.2648 429.37,-30.2051"/>
</g>
<!-- Node9 -->
<g id="node9" class="node"><title>Node9</title>
<polygon fill="none" stroke="#bfbfbf" points="14.4221,-56.5 14.4221,-75.5 49.4221,-75.5 49.4221,-56.5 14.4221,-56.5"/>
<text text-anchor="middle" x="31.9221" y="-63.5" font-family="Helvetica,sans-Serif" font-size="10.00">map</text>
</g>
<!-- Node8&#45;&gt;Node9 -->
<g id="edge10" class="edge"><title>Node8&#45;&gt;Node9</title>
<path fill="none" stroke="midnightblue" d="M266.152,-112.679C210.995,-105.775 134.453,-94.4458 59.7488,-76.1265"/>
<polygon fill="midnightblue" stroke="midnightblue" points="60.25,-72.6442 49.6999,-73.6165 58.5536,-79.4356 60.25,-72.6442"/>
</g>
<!-- Node10 -->
<g id="node10" class="node"><title>Node10</title>
<polygon fill="none" stroke="#bfbfbf" points="28.9221,-0.5 28.9221,-19.5 84.9221,-19.5 84.9221,-0.5 28.9221,-0.5"/>
<text text-anchor="middle" x="56.9221" y="-7.5" font-family="Helvetica,sans-Serif" font-size="10.00">Rtypes.h</text>
</g>
<!-- Node8&#45;&gt;Node10 -->
<g id="edge11" class="edge"><title>Node8&#45;&gt;Node10</title>
<path fill="none" stroke="midnightblue" d="M269.159,-112.487C171.391,-100.878 9.25943,-80.955 4.92214,-76 -10.0026,-58.9499 12.8625,-38.4016 32.8246,-25.0365"/>
<polygon fill="midnightblue" stroke="midnightblue" points="34.8015,-27.9272 41.3642,-19.6096 31.047,-22.0192 34.8015,-27.9272"/>
</g>
<!-- Node11 -->
<g id="node11" class="node"><title>Node11</title>
<polygon fill="none" stroke="#bfbfbf" points="206.422,-56.5 206.422,-75.5 265.422,-75.5 265.422,-56.5 206.422,-56.5"/>
<text text-anchor="middle" x="235.922" y="-63.5" font-family="Helvetica,sans-Serif" font-size="10.00">TObject.h</text>
</g>
<!-- Node8&#45;&gt;Node11 -->
<g id="edge12" class="edge"><title>Node8&#45;&gt;Node11</title>
<path fill="none" stroke="midnightblue" d="M324.891,-112.324C307.892,-103.664 281.546,-90.2424 261.929,-80.249"/>
<polygon fill="midnightblue" stroke="midnightblue" points="263.41,-77.0752 252.911,-75.6545 260.232,-83.3125 263.41,-77.0752"/>
</g>
<!-- Node12 -->
<g id="node12" class="node"><title>Node12</title>
<polygon fill="none" stroke="#bfbfbf" points="283.922,-56.5 283.922,-75.5 399.922,-75.5 399.922,-56.5 283.922,-56.5"/>
<text text-anchor="middle" x="341.922" y="-63.5" font-family="Helvetica,sans-Serif" font-size="10.00">Common/Exceptions.h</text>
</g>
<!-- Node8&#45;&gt;Node12 -->
<g id="edge13" class="edge"><title>Node8&#45;&gt;Node12</title>
<path fill="none" stroke="midnightblue" d="M341.922,-112.083C341.922,-105.006 341.922,-94.8611 341.922,-85.9865"/>
<polygon fill="midnightblue" stroke="midnightblue" points="345.422,-85.751 341.922,-75.7511 338.422,-85.7511 345.422,-85.751"/>
</g>
<!-- Node13 -->
<g id="node13" class="node"><title>Node13</title>
<g id="a_node13"><a xlink:href="Quality_8h.html" target="_top" xlink:title="QualityControl/Quality.h">
<polygon fill="none" stroke="black" points="67.4221,-56.5 67.4221,-75.5 188.422,-75.5 188.422,-56.5 67.4221,-56.5"/>
<text text-anchor="middle" x="127.922" y="-63.5" font-family="Helvetica,sans-Serif" font-size="10.00">QualityControl/Quality.h</text>
</a>
</g>
</g>
<!-- Node8&#45;&gt;Node13 -->
<g id="edge14" class="edge"><title>Node8&#45;&gt;Node13</title>
<path fill="none" stroke="midnightblue" d="M308.013,-112.444C271.073,-103.122 211.869,-88.1828 171.504,-77.9972"/>
<polygon fill="midnightblue" stroke="midnightblue" points="172.225,-74.5695 161.672,-75.5164 170.512,-81.3568 172.225,-74.5695"/>
</g>
<!-- Node13&#45;&gt;Node5 -->
<g id="edge16" class="edge"><title>Node13&#45;&gt;Node5</title>
<path fill="none" stroke="midnightblue" d="M175.458,-56.4435C237.595,-45.2589 344.667,-25.9859 397.133,-16.542"/>
<polygon fill="midnightblue" stroke="midnightblue" points="397.945,-19.9522 407.167,-14.7359 396.705,-13.0629 397.945,-19.9522"/>
</g>
<!-- Node13&#45;&gt;Node10 -->
<g id="edge15" class="edge"><title>Node13&#45;&gt;Node10</title>
<path fill="none" stroke="midnightblue" d="M116.515,-56.324C105.813,-48.1849 89.5815,-35.8395 76.7593,-26.0874"/>
<polygon fill="midnightblue" stroke="midnightblue" points="78.6154,-23.1018 68.5371,-19.8339 74.3778,-28.6734 78.6154,-23.1018"/>
</g>
<!-- Node14&#45;&gt;Node4 -->
<g id="edge20" class="edge"><title>Node14&#45;&gt;Node4</title>
<path fill="none" stroke="midnightblue" d="M470.373,-224.444C447.891,-215.517 412.434,-201.439 386.942,-191.317"/>
<polygon fill="midnightblue" stroke="midnightblue" points="387.957,-187.954 377.371,-187.516 385.373,-194.46 387.957,-187.954"/>
</g>
<!-- Node15 -->
<g id="node15" class="node"><title>Node15</title>
<polygon fill="none" stroke="#bfbfbf" points="459.422,-168.5 459.422,-187.5 554.422,-187.5 554.422,-168.5 459.422,-168.5"/>
<text text-anchor="middle" x="506.922" y="-175.5" font-family="Helvetica,sans-Serif" font-size="10.00">CCDB/CcdbApi.h</text>
</g>
<!-- Node14&#45;&gt;Node15 -->
<g id="edge19" class="edge"><title>Node14&#45;&gt;Node15</title>
<path fill="none" stroke="midnightblue" d="M494.399,-224.083C496.409,-216.849 499.309,-206.409 501.812,-197.397"/>
<polygon fill="midnightblue" stroke="midnightblue" points="505.187,-198.323 504.491,-187.751 498.442,-196.449 505.187,-198.323"/>
</g>
</g>
</svg>
