<?xml version="1.0" encoding="UTF-8" standalone="no"?>
<!DOCTYPE svg PUBLIC "-//W3C//DTD SVG 1.1//EN"
 "http://www.w3.org/Graphics/SVG/1.1/DTD/svg11.dtd">
<!-- Generated by graphviz version 2.38.0 (20140413.2041)
 -->
<!-- Title: Framework/test/testInfrastructureGenerator.cxx Pages: 1 -->
<svg width="582pt" height="162pt"
 viewBox="0.00 0.00 581.50 162.00" xmlns="http://www.w3.org/2000/svg" xmlns:xlink="http://www.w3.org/1999/xlink">
<g id="graph0" class="graph" transform="scale(1 1) rotate(0) translate(4 158)">
<title>Framework/test/testInfrastructureGenerator.cxx</title>
<!-- Node1 -->
<g id="node1" class="node"><title>Node1</title>
<polygon fill="#bfbfbf" stroke="black" points="200.5,-123.5 200.5,-153.5 362.5,-153.5 362.5,-123.5 200.5,-123.5"/>
<text text-anchor="start" x="208.5" y="-141.5" font-family="Helvetica,sans-Serif" font-size="10.00">Framework/test/testInfrastructure</text>
<text text-anchor="middle" x="281.5" y="-130.5" font-family="Helvetica,sans-Serif" font-size="10.00">Generator.cxx</text>
</g>
<!-- Node2 -->
<g id="node2" class="node"><title>Node2</title>
<polygon fill="none" stroke="#bfbfbf" points="0,-62 0,-81 119,-81 119,-62 0,-62"/>
<text text-anchor="middle" x="59.5" y="-69" font-family="Helvetica,sans-Serif" font-size="10.00">boost/test/unit_test.hpp</text>
</g>
<!-- Node1&#45;&gt;Node2 -->
<g id="edge1" class="edge"><title>Node1&#45;&gt;Node2</title>
<path fill="none" stroke="midnightblue" d="M233.603,-123.476C193.29,-111.673 136.349,-95.0009 98.7048,-83.9789"/>
<polygon fill="midnightblue" stroke="midnightblue" points="99.2093,-80.4797 88.6287,-81.0287 97.2422,-87.1977 99.2093,-80.4797"/>
</g>
<!-- Node3 -->
<g id="node3" class="node"><title>Node3</title>
<g id="a_node3"><a xlink:href="InfrastructureGenerator_8h.html" target="_top" xlink:title="QualityControl/Infrastructure\lGenerator.h">
<polygon fill="none" stroke="black" points="137.5,-56.5 137.5,-86.5 277.5,-86.5 277.5,-56.5 137.5,-56.5"/>
<text text-anchor="start" x="145.5" y="-74.5" font-family="Helvetica,sans-Serif" font-size="10.00">QualityControl/Infrastructure</text>
<text text-anchor="middle" x="207.5" y="-63.5" font-family="Helvetica,sans-Serif" font-size="10.00">Generator.h</text>
</a>
</g>
</g>
<!-- Node1&#45;&gt;Node3 -->
<g id="edge2" class="edge"><title>Node1&#45;&gt;Node3</title>
<path fill="none" stroke="midnightblue" d="M265.443,-123.396C255.455,-114.623 242.431,-103.183 231.261,-93.3714"/>
<polygon fill="midnightblue" stroke="midnightblue" points="233.349,-90.5463 223.526,-86.5765 228.729,-95.8056 233.349,-90.5463"/>
</g>
<!-- Node7 -->
<g id="node7" class="node"><title>Node7</title>
<polygon fill="none" stroke="#bfbfbf" points="296,-62 296,-81 415,-81 415,-62 296,-62"/>
<text text-anchor="middle" x="355.5" y="-69" font-family="Helvetica,sans-Serif" font-size="10.00">getTestDataDirectory.h</text>
</g>
<!-- Node1&#45;&gt;Node7 -->
<g id="edge6" class="edge"><title>Node1&#45;&gt;Node7</title>
<path fill="none" stroke="midnightblue" d="M297.557,-123.396C309.438,-112.96 325.615,-98.7507 337.856,-87.9978"/>
<polygon fill="midnightblue" stroke="midnightblue" points="340.398,-90.4236 345.602,-81.1945 335.779,-85.1644 340.398,-90.4236"/>
</g>
<!-- Node8 -->
<g id="node8" class="node"><title>Node8</title>
<polygon fill="none" stroke="#bfbfbf" points="433.5,-62 433.5,-81 573.5,-81 573.5,-62 433.5,-62"/>
<text text-anchor="middle" x="503.5" y="-69" font-family="Helvetica,sans-Serif" font-size="10.00">Framework/DataSpecUtils.h</text>
</g>
<!-- Node1&#45;&gt;Node8 -->
<g id="edge7" class="edge"><title>Node1&#45;&gt;Node8</title>
<path fill="none" stroke="midnightblue" d="M329.397,-123.476C369.71,-111.673 426.651,-95.0009 464.295,-83.9789"/>
<polygon fill="midnightblue" stroke="midnightblue" points="465.758,-87.1977 474.371,-81.0287 463.791,-80.4797 465.758,-87.1977"/>
</g>
<!-- Node4 -->
<g id="node4" class="node"><title>Node4</title>
<polygon fill="none" stroke="#bfbfbf" points="124.5,-0.5 124.5,-19.5 168.5,-19.5 168.5,-0.5 124.5,-0.5"/>
<text text-anchor="middle" x="146.5" y="-7.5" font-family="Helvetica,sans-Serif" font-size="10.00">vector</text>
</g>
<!-- Node3&#45;&gt;Node4 -->
<g id="edge3" class="edge"><title>Node3&#45;&gt;Node4</title>
<path fill="none" stroke="midnightblue" d="M193.044,-56.3993C183.906,-47.4859 172.081,-35.9523 162.638,-26.7408"/>
<polygon fill="midnightblue" stroke="midnightblue" points="164.978,-24.1348 155.376,-19.6578 160.091,-29.1458 164.978,-24.1348"/>
</g>
<!-- Node5 -->
<g id="node5" class="node"><title>Node5</title>
<polygon fill="none" stroke="#bfbfbf" points="187,-0.5 187,-19.5 228,-19.5 228,-0.5 187,-0.5"/>
<text text-anchor="middle" x="207.5" y="-7.5" font-family="Helvetica,sans-Serif" font-size="10.00">string</text>
</g>
<!-- Node3&#45;&gt;Node5 -->
<g id="edge4" class="edge"><title>Node3&#45;&gt;Node5</title>
<path fill="none" stroke="midnightblue" d="M207.5,-56.3993C207.5,-48.4664 207.5,-38.458 207.5,-29.8583"/>
<polygon fill="midnightblue" stroke="midnightblue" points="211,-29.6577 207.5,-19.6578 204,-29.6578 211,-29.6577"/>
</g>
<!-- Node6 -->
<g id="node6" class="node"><title>Node6</title>
<polygon fill="none" stroke="#bfbfbf" points="246.5,-0.5 246.5,-19.5 386.5,-19.5 386.5,-0.5 246.5,-0.5"/>
<text text-anchor="middle" x="316.5" y="-7.5" font-family="Helvetica,sans-Serif" font-size="10.00">Framework/WorkflowSpec.h</text>
</g>
<!-- Node3&#45;&gt;Node6 -->
<g id="edge5" class="edge"><title>Node3&#45;&gt;Node6</title>
<path fill="none" stroke="midnightblue" d="M233.331,-56.3993C250.967,-46.7728 274.2,-34.0902 291.628,-24.5772"/>
<polygon fill="midnightblue" stroke="midnightblue" points="293.539,-27.5213 300.64,-19.6578 290.185,-21.3771 293.539,-27.5213"/>
</g>
</g>
</svg>
