<?xml version="1.0" encoding="UTF-8" standalone="no"?>
<!DOCTYPE svg PUBLIC "-//W3C//DTD SVG 1.1//EN"
 "http://www.w3.org/Graphics/SVG/1.1/DTD/svg11.dtd">
<!-- Generated by graphviz version 2.38.0 (20140413.2041)
 -->
<!-- Title: Modules/Skeleton/test/testQcSkeleton.cxx Pages: 1 -->
<!--zoomable 375 -->
<svg id="main" version="1.1" xmlns="http://www.w3.org/2000/svg" xmlns:xlink="http://www.w3.org/1999/xlink" xml:space="preserve" onload="init(evt)">
<style type="text/css"><![CDATA[
.edge:hover path { stroke: red; }
.edge:hover polygon { stroke: red; fill: red; }
]]></style>
<script type="text/javascript"><![CDATA[
var edges = document.getElementsByTagName('g');
if (edges && edges.length) {
  for (var i=0;i<edges.length;i++) {
    if (edges[i].id.substr(0,4)=='edge') {
      edges[i].setAttribute('class','edge');
    }
  }
}
]]></script>
        <defs>
                <circle id="rim" cx="0" cy="0" r="7"/>
                <circle id="rim2" cx="0" cy="0" r="3.5"/>
                <g id="zoomPlus">
                        <use xlink:href="#rim" fill="#404040">
                                <set attributeName="fill" to="#808080" begin="zoomplus.mouseover" end="zoomplus.mouseout"/>
                        </use>
                        <path d="M-4,0h8M0,-4v8" fill="none" stroke="white" stroke-width="1.5" pointer-events="none"/>
                </g>
                <g id="zoomMin">
                        <use xlink:href="#rim" fill="#404040">
                                <set attributeName="fill" to="#808080" begin="zoomminus.mouseover" end="zoomminus.mouseout"/>
                        </use>
                        <path d="M-4,0h8" fill="none" stroke="white" stroke-width="1.5" pointer-events="none"/>
                </g>
                <g id="dirArrow">
                        <path fill="none" stroke="white" stroke-width="1.5" d="M0,-3.0v7 M-2.5,-0.5L0,-3.0L2.5,-0.5"/>
                </g>
               <g id="resetDef">
                       <use xlink:href="#rim2" fill="#404040">
                               <set attributeName="fill" to="#808080" begin="reset.mouseover" end="reset.mouseout"/>
                       </use>
               </g>
        </defs>

<script type="text/javascript">
var viewWidth = 902;
var viewHeight = 375;
var sectionId = 'dynsection-0';
</script>
<script xlink:href="svgpan.js"/>
<svg id="graph" class="graph">
<g id="viewport">
<title>Modules/Skeleton/test/testQcSkeleton.cxx</title>
<!-- Node1 -->
<g id="node1" class="node"><title>Node1</title>
<polygon fill="#bfbfbf" stroke="black" points="242.022,-336.5 242.022,-366.5 356.022,-366.5 356.022,-336.5 242.022,-336.5"/>
<text text-anchor="start" x="250.022" y="-354.5" font-family="Helvetica,sans-Serif" font-size="10.00">Modules/Skeleton/test</text>
<text text-anchor="middle" x="299.022" y="-343.5" font-family="Helvetica,sans-Serif" font-size="10.00">/testQcSkeleton.cxx</text>
</g>
<!-- Node2 -->
<g id="node2" class="node"><title>Node2</title>
<g id="a_node2"><a xlink:href="SkeletonTask_8h.html" target="_top" xlink:title="Skeleton/SkeletonTask.h">
<polygon fill="none" stroke="black" points="236.022,-280.5 236.022,-299.5 362.022,-299.5 362.022,-280.5 236.022,-280.5"/>
<text text-anchor="middle" x="299.022" y="-287.5" font-family="Helvetica,sans-Serif" font-size="10.00">Skeleton/SkeletonTask.h</text>
</a>
</g>
</g>
<!-- Node1&#45;&gt;Node2 -->
<g id="edge1" class="edge"><title>Node1&#45;&gt;Node2</title>
<path fill="none" stroke="midnightblue" d="M299.022,-336.399C299.022,-328.466 299.022,-318.458 299.022,-309.858"/>
<polygon fill="midnightblue" stroke="midnightblue" points="302.522,-309.658 299.022,-299.658 295.522,-309.658 302.522,-309.658"/>
</g>
<!-- Node18 -->
<g id="node18" class="node"><title>Node18</title>
<g id="a_node18"><a xlink:href="TaskFactory_8h.html" target="_top" xlink:title="QualityControl/TaskFactory.h">
<polygon fill="none" stroke="black" points="49.5216,-168.5 49.5216,-187.5 194.522,-187.5 194.522,-168.5 49.5216,-168.5"/>
<text text-anchor="middle" x="122.022" y="-175.5" font-family="Helvetica,sans-Serif" font-size="10.00">QualityControl/TaskFactory.h</text>
</a>
</g>
</g>
<!-- Node1&#45;&gt;Node18 -->
<g id="edge26" class="edge"><title>Node1&#45;&gt;Node18</title>
<path fill="none" stroke="midnightblue" d="M275.902,-336.36C261.229,-326.897 242.214,-313.703 227.022,-300 189.843,-266.469 153.036,-220.269 134.458,-195.794"/>
<polygon fill="midnightblue" stroke="midnightblue" points="137.071,-193.445 128.268,-187.549 131.473,-197.647 137.071,-193.445"/>
</g>
<!-- Node19 -->
<g id="node19" class="node"><title>Node19</title>
<polygon fill="none" stroke="#bfbfbf" points="380.522,-280.5 380.522,-299.5 499.522,-299.5 499.522,-280.5 380.522,-280.5"/>
<text text-anchor="middle" x="440.022" y="-287.5" font-family="Helvetica,sans-Serif" font-size="10.00">boost/test/unit_test.hpp</text>
</g>
<!-- Node1&#45;&gt;Node19 -->
<g id="edge30" class="edge"><title>Node1&#45;&gt;Node19</title>
<path fill="none" stroke="midnightblue" d="M332.437,-336.399C355.988,-326.461 387.259,-313.265 410.015,-303.662"/>
<polygon fill="midnightblue" stroke="midnightblue" points="411.652,-306.77 419.505,-299.658 408.931,-300.321 411.652,-306.77"/>
</g>
<!-- Node3 -->
<g id="node3" class="node"><title>Node3</title>
<g id="a_node3"><a xlink:href="TaskInterface_8h.html" target="_top" xlink:title="QualityControl/TaskInterface.h">
<polygon fill="none" stroke="black" points="257.022,-224.5 257.022,-243.5 407.022,-243.5 407.022,-224.5 257.022,-224.5"/>
<text text-anchor="middle" x="332.022" y="-231.5" font-family="Helvetica,sans-Serif" font-size="10.00">QualityControl/TaskInterface.h</text>
</a>
</g>
</g>
<!-- Node2&#45;&gt;Node3 -->
<g id="edge2" class="edge"><title>Node2&#45;&gt;Node3</title>
<path fill="none" stroke="midnightblue" d="M304.471,-280.083C309.036,-272.613 315.69,-261.724 321.315,-252.52"/>
<polygon fill="midnightblue" stroke="midnightblue" points="324.446,-254.109 326.674,-243.751 318.473,-250.459 324.446,-254.109"/>
</g>
<!-- Node4 -->
<g id="node4" class="node"><title>Node4</title>
<polygon fill="none" stroke="#bfbfbf" points="801.522,-56.5 801.522,-75.5 836.522,-75.5 836.522,-56.5 801.522,-56.5"/>
<text text-anchor="middle" x="819.022" y="-63.5" font-family="Helvetica,sans-Serif" font-size="10.00">map</text>
</g>
<!-- Node3&#45;&gt;Node4 -->
<g id="edge3" class="edge"><title>Node3&#45;&gt;Node4</title>
<path fill="none" stroke="midnightblue" d="M407.077,-232.405C550.546,-230.482 852.354,-222.355 884.022,-188 914.03,-155.445 866.317,-106.463 837.837,-82.0077"/>
<polygon fill="midnightblue" stroke="midnightblue" points="839.981,-79.2377 830.059,-75.5218 835.498,-84.614 839.981,-79.2377"/>
</g>
<!-- Node5 -->
<g id="node5" class="node"><title>Node5</title>
<polygon fill="none" stroke="#bfbfbf" points="245.022,-112.5 245.022,-131.5 297.022,-131.5 297.022,-112.5 245.022,-112.5"/>
<text text-anchor="middle" x="271.022" y="-119.5" font-family="Helvetica,sans-Serif" font-size="10.00">memory</text>
</g>
<!-- Node3&#45;&gt;Node5 -->
<g id="edge4" class="edge"><title>Node3&#45;&gt;Node5</title>
<path fill="none" stroke="midnightblue" d="M294.919,-224.458C275.577,-217.918 253.594,-206.724 242.022,-188 232.338,-172.331 243.764,-152.872 254.999,-139.348"/>
<polygon fill="midnightblue" stroke="midnightblue" points="257.712,-141.565 261.78,-131.782 252.499,-136.893 257.712,-141.565"/>
</g>
<!-- Node6 -->
<g id="node6" class="node"><title>Node6</title>
<polygon fill="none" stroke="#bfbfbf" points="239.522,-0.5 239.522,-19.5 280.522,-19.5 280.522,-0.5 239.522,-0.5"/>
<text text-anchor="middle" x="260.022" y="-7.5" font-family="Helvetica,sans-Serif" font-size="10.00">string</text>
</g>
<!-- Node3&#45;&gt;Node6 -->
<g id="edge5" class="edge"><title>Node3&#45;&gt;Node6</title>
<path fill="none" stroke="midnightblue" d="M256.804,-232.797C175.75,-230.788 54.3865,-221.983 25.0216,-188 -13.4459,-143.483 -5.03413,-99.0937 35.0216,-56 60.9562,-28.0985 173.716,-16.7706 229.098,-12.8253"/>
<polygon fill="midnightblue" stroke="midnightblue" points="229.625,-16.2977 239.367,-12.1319 229.154,-9.31365 229.625,-16.2977"/>
</g>
<!-- Node7 -->
<g id="node7" class="node"><title>Node7</title>
<polygon fill="none" stroke="#bfbfbf" points="44.5216,-56.5 44.5216,-75.5 127.522,-75.5 127.522,-56.5 44.5216,-56.5"/>
<text text-anchor="middle" x="86.0216" y="-63.5" font-family="Helvetica,sans-Serif" font-size="10.00">unordered_map</text>
</g>
<!-- Node3&#45;&gt;Node7 -->
<g id="edge6" class="edge"><title>Node3&#45;&gt;Node7</title>
<path fill="none" stroke="midnightblue" d="M256.953,-232.124C179.882,-229.444 67.4459,-219.974 40.0216,-188 18.0311,-162.361 26.9241,-143.135 40.0216,-112 45.0474,-100.053 54.9653,-89.6922 64.3091,-81.9339"/>
<polygon fill="midnightblue" stroke="midnightblue" points="66.4608,-84.6944 72.2351,-75.8113 62.1816,-79.1547 66.4608,-84.6944"/>
</g>
<!-- Node8 -->
<g id="node8" class="node"><title>Node8</title>
<polygon fill="none" stroke="#bfbfbf" points="430.522,-168.5 430.522,-187.5 555.522,-187.5 555.522,-168.5 430.522,-168.5"/>
<text text-anchor="middle" x="493.022" y="-175.5" font-family="Helvetica,sans-Serif" font-size="10.00">Framework/InitContext.h</text>
</g>
<!-- Node3&#45;&gt;Node8 -->
<g id="edge7" class="edge"><title>Node3&#45;&gt;Node8</title>
<path fill="none" stroke="midnightblue" d="M357.533,-224.444C384.618,-215.359 427.612,-200.939 457.89,-190.783"/>
<polygon fill="midnightblue" stroke="midnightblue" points="459.262,-194.015 467.63,-187.516 457.036,-187.378 459.262,-194.015"/>
</g>
<!-- Node9 -->
<g id="node9" class="node"><title>Node9</title>
<polygon fill="none" stroke="#bfbfbf" points="574.022,-168.5 574.022,-187.5 734.022,-187.5 734.022,-168.5 574.022,-168.5"/>
<text text-anchor="middle" x="654.022" y="-175.5" font-family="Helvetica,sans-Serif" font-size="10.00">Framework/ProcessingContext.h</text>
</g>
<!-- Node3&#45;&gt;Node9 -->
<g id="edge8" class="edge"><title>Node3&#45;&gt;Node9</title>
<path fill="none" stroke="midnightblue" d="M383.043,-224.444C440.04,-214.885 532.261,-199.419 593.022,-189.23"/>
<polygon fill="midnightblue" stroke="midnightblue" points="593.955,-192.622 603.238,-187.516 592.797,-185.719 593.955,-192.622"/>
</g>
<!-- Node10 -->
<g id="node10" class="node"><title>Node10</title>
<g id="a_node10"><a xlink:href="Activity_8h.html" target="_top" xlink:title="QualityControl/Activity.h">
<polygon fill="none" stroke="black" points="752.522,-168.5 752.522,-187.5 875.522,-187.5 875.522,-168.5 752.522,-168.5"/>
<text text-anchor="middle" x="814.022" y="-175.5" font-family="Helvetica,sans-Serif" font-size="10.00">QualityControl/Activity.h</text>
</a>
</g>
</g>
<!-- Node3&#45;&gt;Node10 -->
<g id="edge9" class="edge"><title>Node3&#45;&gt;Node10</title>
<path fill="none" stroke="midnightblue" d="M407.063,-225.171C487.318,-216.711 618.609,-202.618 742.415,-188.053"/>
<polygon fill="midnightblue" stroke="midnightblue" points="742.935,-191.517 752.456,-186.869 742.115,-184.565 742.935,-191.517"/>
</g>
<!-- Node11 -->
<g id="node11" class="node"><title>Node11</title>
<g id="a_node11"><a xlink:href="ObjectsManager_8h.html" target="_top" xlink:title="QualityControl/ObjectsManager.h">
<polygon fill="none" stroke="black" points="251.522,-168.5 251.522,-187.5 412.522,-187.5 412.522,-168.5 251.522,-168.5"/>
<text text-anchor="middle" x="332.022" y="-175.5" font-family="Helvetica,sans-Serif" font-size="10.00">QualityControl/ObjectsManager.h</text>
</a>
</g>
</g>
<!-- Node3&#45;&gt;Node11 -->
<g id="edge10" class="edge"><title>Node3&#45;&gt;Node11</title>
<path fill="none" stroke="midnightblue" d="M332.022,-224.083C332.022,-217.006 332.022,-206.861 332.022,-197.986"/>
<polygon fill="midnightblue" stroke="midnightblue" points="335.522,-197.751 332.022,-187.751 328.522,-197.751 335.522,-197.751"/>
</g>
<!-- Node11&#45;&gt;Node5 -->
<g id="edge25" class="edge"><title>Node11&#45;&gt;Node5</title>
<path fill="none" stroke="midnightblue" d="M322.221,-168.324C313.204,-160.341 299.616,-148.313 288.704,-138.653"/>
<polygon fill="midnightblue" stroke="midnightblue" points="290.808,-135.842 281.001,-131.834 286.168,-141.083 290.808,-135.842"/>
</g>
<!-- Node11&#45;&gt;Node6 -->
<g id="edge24" class="edge"><title>Node11&#45;&gt;Node6</title>
<path fill="none" stroke="midnightblue" d="M329.342,-168.258C325.24,-155.459 316.74,-131.072 306.022,-112 296.223,-94.5647 287.971,-93.8859 279.022,-76 271.623,-61.2144 266.62,-43.0591 263.613,-29.6977"/>
<polygon fill="midnightblue" stroke="midnightblue" points="267.013,-28.8571 261.547,-19.7808 260.16,-30.2844 267.013,-28.8571"/>
</g>
<!-- Node12 -->
<g id="node12" class="node"><title>Node12</title>
<g id="a_node12"><a xlink:href="MonitorObject_8h.html" target="_top" xlink:title="QualityControl/MonitorObject.h">
<polygon fill="none" stroke="black" points="496.522,-112.5 496.522,-131.5 647.522,-131.5 647.522,-112.5 496.522,-112.5"/>
<text text-anchor="middle" x="572.022" y="-119.5" font-family="Helvetica,sans-Serif" font-size="10.00">QualityControl/MonitorObject.h</text>
</a>
</g>
</g>
<!-- Node11&#45;&gt;Node12 -->
<g id="edge11" class="edge"><title>Node11&#45;&gt;Node12</title>
<path fill="none" stroke="midnightblue" d="M370.05,-168.444C411.83,-159.043 479.003,-143.929 524.291,-133.739"/>
<polygon fill="midnightblue" stroke="midnightblue" points="525.183,-137.126 534.171,-131.516 523.646,-130.297 525.183,-137.126"/>
</g>
<!-- Node16 -->
<g id="node16" class="node"><title>Node16</title>
<g id="a_node16"><a xlink:href="Quality_8h.html" target="_top" xlink:title="QualityControl/Quality.h">
<polygon fill="none" stroke="black" points="422.522,-56.5 422.522,-75.5 543.522,-75.5 543.522,-56.5 422.522,-56.5"/>
<text text-anchor="middle" x="483.022" y="-63.5" font-family="Helvetica,sans-Serif" font-size="10.00">QualityControl/Quality.h</text>
</a>
</g>
</g>
<!-- Node11&#45;&gt;Node16 -->
<g id="edge20" class="edge"><title>Node11&#45;&gt;Node16</title>
<path fill="none" stroke="midnightblue" d="M343.87,-168.368C369.672,-149.573 431.176,-104.768 463.071,-81.5334"/>
<polygon fill="midnightblue" stroke="midnightblue" points="465.206,-84.3085 471.228,-75.5914 461.084,-78.6506 465.206,-84.3085"/>
</g>
<!-- Node17 -->
<g id="node17" class="node"><title>Node17</title>
<g id="a_node17"><a xlink:href="TaskConfig_8h.html" target="_top" xlink:title="QualityControl/TaskConfig.h">
<polygon fill="none" stroke="black" points="49.0216,-112.5 49.0216,-131.5 189.022,-131.5 189.022,-112.5 49.0216,-112.5"/>
<text text-anchor="middle" x="119.022" y="-119.5" font-family="Helvetica,sans-Serif" font-size="10.00">QualityControl/TaskConfig.h</text>
</a>
</g>
</g>
<!-- Node11&#45;&gt;Node17 -->
<g id="edge21" class="edge"><title>Node11&#45;&gt;Node17</title>
<path fill="none" stroke="midnightblue" d="M298.271,-168.444C261.503,-159.122 202.576,-144.183 162.4,-133.997"/>
<polygon fill="midnightblue" stroke="midnightblue" points="163.168,-130.581 152.614,-131.516 161.447,-137.367 163.168,-130.581"/>
</g>
<!-- Node12&#45;&gt;Node4 -->
<g id="edge13" class="edge"><title>Node12&#45;&gt;Node4</title>
<path fill="none" stroke="midnightblue" d="M611.159,-112.444C661.427,-101.454 747.412,-82.6556 791.372,-73.0449"/>
<polygon fill="midnightblue" stroke="midnightblue" points="792.323,-76.4197 801.345,-70.8646 790.828,-69.5812 792.323,-76.4197"/>
</g>
<!-- Node12&#45;&gt;Node6 -->
<g id="edge12" class="edge"><title>Node12&#45;&gt;Node6</title>
<path fill="none" stroke="midnightblue" d="M572.081,-112.299C571.667,-98.1651 568.638,-70.358 552.022,-56 513.327,-22.5652 357.757,-13.9143 290.857,-11.7233"/>
<polygon fill="midnightblue" stroke="midnightblue" points="290.644,-8.21547 280.544,-11.4143 290.435,-15.2123 290.644,-8.21547"/>
</g>
<!-- Node13 -->
<g id="node13" class="node"><title>Node13</title>
<polygon fill="none" stroke="#bfbfbf" points="518.022,-0.5 518.022,-19.5 574.022,-19.5 574.022,-0.5 518.022,-0.5"/>
<text text-anchor="middle" x="546.022" y="-7.5" font-family="Helvetica,sans-Serif" font-size="10.00">Rtypes.h</text>
</g>
<!-- Node12&#45;&gt;Node13 -->
<g id="edge14" class="edge"><title>Node12&#45;&gt;Node13</title>
<path fill="none" stroke="midnightblue" d="M576.943,-112.35C583.485,-99.6668 593.406,-75.4219 586.022,-56 581.686,-44.5976 572.991,-34.2394 564.812,-26.343"/>
<polygon fill="midnightblue" stroke="midnightblue" points="567.062,-23.6595 557.287,-19.5728 562.38,-28.8633 567.062,-23.6595"/>
</g>
<!-- Node14 -->
<g id="node14" class="node"><title>Node14</title>
<polygon fill="none" stroke="#bfbfbf" points="638.522,-56.5 638.522,-75.5 697.522,-75.5 697.522,-56.5 638.522,-56.5"/>
<text text-anchor="middle" x="668.022" y="-63.5" font-family="Helvetica,sans-Serif" font-size="10.00">TObject.h</text>
</g>
<!-- Node12&#45;&gt;Node14 -->
<g id="edge15" class="edge"><title>Node12&#45;&gt;Node14</title>
<path fill="none" stroke="midnightblue" d="M587.446,-112.324C602.561,-103.822 625.837,-90.7288 643.493,-80.7975"/>
<polygon fill="midnightblue" stroke="midnightblue" points="645.636,-83.6077 652.636,-75.6545 642.204,-77.5066 645.636,-83.6077"/>
</g>
<!-- Node15 -->
<g id="node15" class="node"><title>Node15</title>
<polygon fill="none" stroke="#bfbfbf" points="288.022,-56.5 288.022,-75.5 404.022,-75.5 404.022,-56.5 288.022,-56.5"/>
<text text-anchor="middle" x="346.022" y="-63.5" font-family="Helvetica,sans-Serif" font-size="10.00">Common/Exceptions.h</text>
</g>
<!-- Node12&#45;&gt;Node15 -->
<g id="edge16" class="edge"><title>Node12&#45;&gt;Node15</title>
<path fill="none" stroke="midnightblue" d="M536.211,-112.444C497.034,-103.083 434.145,-88.0561 391.506,-77.868"/>
<polygon fill="midnightblue" stroke="midnightblue" points="392.204,-74.4363 381.664,-75.5164 390.577,-81.2446 392.204,-74.4363"/>
</g>
<!-- Node12&#45;&gt;Node16 -->
<g id="edge17" class="edge"><title>Node12&#45;&gt;Node16</title>
<path fill="none" stroke="midnightblue" d="M557.722,-112.324C543.839,-103.9 522.529,-90.9709 506.218,-81.0741"/>
<polygon fill="midnightblue" stroke="midnightblue" points="507.65,-77.8495 497.286,-75.6545 504.019,-83.8341 507.65,-77.8495"/>
</g>
<!-- Node16&#45;&gt;Node6 -->
<g id="edge19" class="edge"><title>Node16&#45;&gt;Node6</title>
<path fill="none" stroke="midnightblue" d="M447.687,-56.4435C404.416,-45.9655 331.831,-28.3888 290.767,-18.445"/>
<polygon fill="midnightblue" stroke="midnightblue" points="291.343,-14.9834 280.8,-16.0315 289.695,-21.7868 291.343,-14.9834"/>
</g>
<!-- Node16&#45;&gt;Node13 -->
<g id="edge18" class="edge"><title>Node16&#45;&gt;Node13</title>
<path fill="none" stroke="midnightblue" d="M493.144,-56.324C502.548,-48.2631 516.766,-36.0765 528.091,-26.3695"/>
<polygon fill="midnightblue" stroke="midnightblue" points="530.401,-28.9993 535.715,-19.8339 525.845,-23.6844 530.401,-28.9993"/>
</g>
<!-- Node17&#45;&gt;Node6 -->
<g id="edge22" class="edge"><title>Node17&#45;&gt;Node6</title>
<path fill="none" stroke="midnightblue" d="M130.086,-112.368C154.075,-93.6531 211.119,-49.1509 241.009,-25.8324"/>
<polygon fill="midnightblue" stroke="midnightblue" points="243.277,-28.502 249.009,-19.5914 238.972,-22.9829 243.277,-28.502"/>
</g>
<!-- Node17&#45;&gt;Node7 -->
<g id="edge23" class="edge"><title>Node17&#45;&gt;Node7</title>
<path fill="none" stroke="midnightblue" d="M113.572,-112.083C109.007,-104.613 102.353,-93.7244 96.7282,-84.5199"/>
<polygon fill="midnightblue" stroke="midnightblue" points="99.5705,-82.4588 91.3695,-75.7511 93.5975,-86.109 99.5705,-82.4588"/>
</g>
<!-- Node18&#45;&gt;Node5 -->
<g id="edge27" class="edge"><title>Node18&#45;&gt;Node5</title>
<path fill="none" stroke="midnightblue" d="M145.631,-168.444C170.479,-159.438 209.796,-145.189 237.775,-135.049"/>
<polygon fill="midnightblue" stroke="midnightblue" points="239.314,-138.214 247.523,-131.516 236.928,-131.633 239.314,-138.214"/>
</g>
<!-- Node18&#45;&gt;Node15 -->
<g id="edge28" class="edge"><title>Node18&#45;&gt;Node15</title>
<path fill="none" stroke="midnightblue" d="M136.555,-168.399C162.63,-153.021 216.461,-121.528 236.022,-112 261.277,-99.6985 290.782,-87.7537 312.873,-79.2655"/>
<polygon fill="midnightblue" stroke="midnightblue" points="314.357,-82.446 322.46,-75.62 311.868,-75.9031 314.357,-82.446"/>
</g>
<!-- Node18&#45;&gt;Node17 -->
<g id="edge29" class="edge"><title>Node18&#45;&gt;Node17</title>
<path fill="none" stroke="midnightblue" d="M121.526,-168.083C121.133,-161.006 120.569,-150.861 120.076,-141.986"/>
<polygon fill="midnightblue" stroke="midnightblue" points="123.557,-141.542 119.508,-131.751 116.568,-141.93 123.557,-141.542"/>
</g>
</g>
</svg>
        <g id="navigator" transform="translate(0 0)" fill="#404254">
                <rect fill="#f2f5e9" fill-opacity="0.5" stroke="#606060" stroke-width=".5" x="0" y="0" width="60" height="60"/>
                <use id="zoomplus" xlink:href="#zoomPlus" x="17" y="9" onmousedown="handleZoom(evt,'in')"/>
                <use id="zoomminus" xlink:href="#zoomMin" x="42" y="9" onmousedown="handleZoom(evt,'out')"/>
                <use id="reset" xlink:href="#resetDef" x="30" y="36" onmousedown="handleReset()"/>
                <g id="arrowUp" xlink:href="#dirArrow" transform="translate(30 24)" onmousedown="handlePan(0,-1)">
                  <use xlink:href="#rim" fill="#404040">
                        <set attributeName="fill" to="#808080" begin="arrowUp.mouseover" end="arrowUp.mouseout"/>
                  </use>
                  <path fill="none" stroke="white" stroke-width="1.5" d="M0,-3.0v7 M-2.5,-0.5L0,-3.0L2.5,-0.5"/>
                </g>
                <g id="arrowRight" xlink:href="#dirArrow" transform="rotate(90) translate(36 -43)" onmousedown="handlePan(1,0)">
                  <use xlink:href="#rim" fill="#404040">
                        <set attributeName="fill" to="#808080" begin="arrowRight.mouseover" end="arrowRight.mouseout"/>
                  </use>
                  <path fill="none" stroke="white" stroke-width="1.5" d="M0,-3.0v7 M-2.5,-0.5L0,-3.0L2.5,-0.5"/>
                </g>
                <g id="arrowDown" xlink:href="#dirArrow" transform="rotate(180) translate(-30 -48)" onmousedown="handlePan(0,1)">
                  <use xlink:href="#rim" fill="#404040">
                        <set attributeName="fill" to="#808080" begin="arrowDown.mouseover" end="arrowDown.mouseout"/>
                  </use>
                  <path fill="none" stroke="white" stroke-width="1.5" d="M0,-3.0v7 M-2.5,-0.5L0,-3.0L2.5,-0.5"/>
                </g>
                <g id="arrowLeft" xlink:href="#dirArrow" transform="rotate(270) translate(-36 17)" onmousedown="handlePan(-1,0)">
                  <use xlink:href="#rim" fill="#404040">
                        <set attributeName="fill" to="#808080" begin="arrowLeft.mouseover" end="arrowLeft.mouseout"/>
                  </use>
                  <path fill="none" stroke="white" stroke-width="1.5" d="M0,-3.0v7 M-2.5,-0.5L0,-3.0L2.5,-0.5"/>
                </g>
        </g>
        <svg viewBox="0 0 15 15" width="100%" height="30px" preserveAspectRatio="xMaxYMin meet">
         <g id="arrow_out" transform="scale(0.3 0.3)">
          <a xlink:href="testQcSkeleton_8cxx__incl_org.svg" target="_base">
           <rect id="button" ry="5" rx="5" y="6" x="6" height="38" width="38"
                fill="#f2f5e9" fill-opacity="0.5" stroke="#606060" stroke-width="1.0"/>
           <path id="arrow"
             d="M 11.500037,31.436501 C 11.940474,20.09759 22.043105,11.32322 32.158766,21.979434 L 37.068811,17.246167 C 37.068811,17.246167 37.088388,32 37.088388,32 L 22.160133,31.978069 C 22.160133,31.978069 26.997745,27.140456 26.997745,27.140456 C 18.528582,18.264221 13.291696,25.230495 11.500037,31.436501 z"
             style="fill:#404040;"/>
          </a>
         </g>
        </svg>
</svg>
