<?xml version="1.0" encoding="UTF-8" standalone="no"?>
<!DOCTYPE svg PUBLIC "-//W3C//DTD SVG 1.1//EN"
 "http://www.w3.org/Graphics/SVG/1.1/DTD/svg11.dtd">
<!-- Generated by graphviz version 2.38.0 (20140413.2041)
 -->
<!-- Title: Framework/test/testDbFactory.cxx Pages: 1 -->
<svg width="591pt" height="308pt"
 viewBox="0.00 0.00 590.50 308.00" xmlns="http://www.w3.org/2000/svg" xmlns:xlink="http://www.w3.org/1999/xlink">
<g id="graph0" class="graph" transform="scale(1 1) rotate(0) translate(4 304)">
<title>Framework/test/testDbFactory.cxx</title>
<!-- Node1 -->
<g id="node1" class="node"><title>Node1</title>
<polygon fill="#bfbfbf" stroke="black" points="282,-280.5 282,-299.5 451,-299.5 451,-280.5 282,-280.5"/>
<text text-anchor="middle" x="366.5" y="-287.5" font-family="Helvetica,sans-Serif" font-size="10.00">Framework/test/testDbFactory.cxx</text>
</g>
<!-- Node2 -->
<g id="node2" class="node"><title>Node2</title>
<g id="a_node2"><a xlink:href="DatabaseFactory_8h.html" target="_top" xlink:title="QualityControl/DatabaseFactory.h">
<polygon fill="none" stroke="black" points="0,-224.5 0,-243.5 165,-243.5 165,-224.5 0,-224.5"/>
<text text-anchor="middle" x="82.5" y="-231.5" font-family="Helvetica,sans-Serif" font-size="10.00">QualityControl/DatabaseFactory.h</text>
</a>
</g>
</g>
<!-- Node1&#45;&gt;Node2 -->
<g id="edge1" class="edge"><title>Node1&#45;&gt;Node2</title>
<path fill="none" stroke="midnightblue" d="M321.499,-280.444C271.541,-270.944 190.899,-255.611 137.301,-245.42"/>
<polygon fill="midnightblue" stroke="midnightblue" points="137.768,-241.946 127.29,-243.516 136.46,-248.823 137.768,-241.946"/>
</g>
<!-- Node8 -->
<g id="node8" class="node"><title>Node8</title>
<g id="a_node8"><a xlink:href="MonitorObject_8h.html" target="_top" xlink:title="QualityControl/MonitorObject.h">
<polygon fill="none" stroke="black" points="282,-112.5 282,-131.5 433,-131.5 433,-112.5 282,-112.5"/>
<text text-anchor="middle" x="357.5" y="-119.5" font-family="Helvetica,sans-Serif" font-size="10.00">QualityControl/MonitorObject.h</text>
</a>
</g>
</g>
<!-- Node1&#45;&gt;Node8 -->
<g id="edge21" class="edge"><title>Node1&#45;&gt;Node8</title>
<path fill="none" stroke="midnightblue" d="M366.016,-280.075C364.599,-253.945 360.439,-177.211 358.507,-141.577"/>
<polygon fill="midnightblue" stroke="midnightblue" points="362.001,-141.364 357.965,-131.568 355.011,-141.743 362.001,-141.364"/>
</g>
<!-- Node14 -->
<g id="node14" class="node"><title>Node14</title>
<polygon fill="none" stroke="#bfbfbf" points="395,-224.5 395,-243.5 514,-243.5 514,-224.5 395,-224.5"/>
<text text-anchor="middle" x="454.5" y="-231.5" font-family="Helvetica,sans-Serif" font-size="10.00">boost/test/unit_test.hpp</text>
</g>
<!-- Node1&#45;&gt;Node14 -->
<g id="edge17" class="edge"><title>Node1&#45;&gt;Node14</title>
<path fill="none" stroke="midnightblue" d="M380.639,-280.324C394.366,-271.9 415.436,-258.971 431.564,-249.074"/>
<polygon fill="midnightblue" stroke="midnightblue" points="433.704,-251.868 440.396,-243.655 430.043,-245.902 433.704,-251.868"/>
</g>
<!-- Node15 -->
<g id="node15" class="node"><title>Node15</title>
<g id="a_node15"><a xlink:href="CcdbDatabase_8h.html" target="_top" xlink:title="QualityControl/CcdbDatabase.h">
<polygon fill="none" stroke="black" points="183,-224.5 183,-243.5 338,-243.5 338,-224.5 183,-224.5"/>
<text text-anchor="middle" x="260.5" y="-231.5" font-family="Helvetica,sans-Serif" font-size="10.00">QualityControl/CcdbDatabase.h</text>
</a>
</g>
</g>
<!-- Node1&#45;&gt;Node15 -->
<g id="edge18" class="edge"><title>Node1&#45;&gt;Node15</title>
<path fill="none" stroke="midnightblue" d="M349.469,-280.324C332.47,-271.664 306.124,-258.242 286.507,-248.249"/>
<polygon fill="midnightblue" stroke="midnightblue" points="287.988,-245.075 277.488,-243.655 284.81,-251.312 287.988,-245.075"/>
</g>
<!-- Node17 -->
<g id="node17" class="node"><title>Node17</title>
<polygon fill="none" stroke="#bfbfbf" points="532.5,-224.5 532.5,-243.5 582.5,-243.5 582.5,-224.5 532.5,-224.5"/>
<text text-anchor="middle" x="557.5" y="-231.5" font-family="Helvetica,sans-Serif" font-size="10.00">TH1F.h</text>
</g>
<!-- Node1&#45;&gt;Node17 -->
<g id="edge22" class="edge"><title>Node1&#45;&gt;Node17</title>
<path fill="none" stroke="midnightblue" d="M396.765,-280.444C430.847,-270.808 486.165,-255.168 522.191,-244.983"/>
<polygon fill="midnightblue" stroke="midnightblue" points="523.586,-248.225 532.257,-242.137 521.682,-241.489 523.586,-248.225"/>
</g>
<!-- Node3 -->
<g id="node3" class="node"><title>Node3</title>
<polygon fill="none" stroke="#bfbfbf" points="5.5,-112.5 5.5,-131.5 57.5,-131.5 57.5,-112.5 5.5,-112.5"/>
<text text-anchor="middle" x="31.5" y="-119.5" font-family="Helvetica,sans-Serif" font-size="10.00">memory</text>
</g>
<!-- Node2&#45;&gt;Node3 -->
<g id="edge2" class="edge"><title>Node2&#45;&gt;Node3</title>
<path fill="none" stroke="midnightblue" d="M73.1161,-224.268C64.6028,-215.809 52.365,-202.206 45.5,-188 38.4371,-173.384 34.9092,-155.212 33.1639,-141.801"/>
<polygon fill="midnightblue" stroke="midnightblue" points="36.6411,-141.4 32.0787,-131.838 29.6823,-142.158 36.6411,-141.4"/>
</g>
<!-- Node4 -->
<g id="node4" class="node"><title>Node4</title>
<g id="a_node4"><a xlink:href="DatabaseInterface_8h.html" target="_top" xlink:title="QualityControl/DatabaseInterface.h">
<polygon fill="none" stroke="black" points="54.5,-168.5 54.5,-187.5 224.5,-187.5 224.5,-168.5 54.5,-168.5"/>
<text text-anchor="middle" x="139.5" y="-175.5" font-family="Helvetica,sans-Serif" font-size="10.00">QualityControl/DatabaseInterface.h</text>
</a>
</g>
</g>
<!-- Node2&#45;&gt;Node4 -->
<g id="edge3" class="edge"><title>Node2&#45;&gt;Node4</title>
<path fill="none" stroke="midnightblue" d="M91.658,-224.324C100.001,-216.42 112.532,-204.548 122.677,-194.938"/>
<polygon fill="midnightblue" stroke="midnightblue" points="125.323,-197.252 130.175,-187.834 120.509,-192.171 125.323,-197.252"/>
</g>
<!-- Node4&#45;&gt;Node3 -->
<g id="edge5" class="edge"><title>Node4&#45;&gt;Node3</title>
<path fill="none" stroke="midnightblue" d="M122.148,-168.324C104.828,-159.664 77.9847,-146.242 57.9981,-136.249"/>
<polygon fill="midnightblue" stroke="midnightblue" points="59.3186,-132.996 48.809,-131.655 56.188,-139.257 59.3186,-132.996"/>
</g>
<!-- Node5 -->
<g id="node5" class="node"><title>Node5</title>
<polygon fill="none" stroke="#bfbfbf" points="107,-0.5 107,-19.5 148,-19.5 148,-0.5 107,-0.5"/>
<text text-anchor="middle" x="127.5" y="-7.5" font-family="Helvetica,sans-Serif" font-size="10.00">string</text>
</g>
<!-- Node4&#45;&gt;Node5 -->
<g id="edge4" class="edge"><title>Node4&#45;&gt;Node5</title>
<path fill="none" stroke="midnightblue" d="M131.017,-168.234C123.446,-159.75 112.896,-146.131 108.5,-132 97.4398,-96.449 110.397,-52.9264 119.691,-28.9665"/>
<polygon fill="midnightblue" stroke="midnightblue" points="122.934,-30.2844 123.488,-19.7041 116.457,-27.6298 122.934,-30.2844"/>
</g>
<!-- Node6 -->
<g id="node6" class="node"><title>Node6</title>
<polygon fill="none" stroke="#bfbfbf" points="117.5,-112.5 117.5,-131.5 161.5,-131.5 161.5,-112.5 117.5,-112.5"/>
<text text-anchor="middle" x="139.5" y="-119.5" font-family="Helvetica,sans-Serif" font-size="10.00">vector</text>
</g>
<!-- Node4&#45;&gt;Node6 -->
<g id="edge6" class="edge"><title>Node4&#45;&gt;Node6</title>
<path fill="none" stroke="midnightblue" d="M139.5,-168.083C139.5,-161.006 139.5,-150.861 139.5,-141.986"/>
<polygon fill="midnightblue" stroke="midnightblue" points="143,-141.751 139.5,-131.751 136,-141.751 143,-141.751"/>
</g>
<!-- Node7 -->
<g id="node7" class="node"><title>Node7</title>
<polygon fill="none" stroke="#bfbfbf" points="180,-112.5 180,-131.5 263,-131.5 263,-112.5 180,-112.5"/>
<text text-anchor="middle" x="221.5" y="-119.5" font-family="Helvetica,sans-Serif" font-size="10.00">unordered_map</text>
</g>
<!-- Node4&#45;&gt;Node7 -->
<g id="edge7" class="edge"><title>Node4&#45;&gt;Node7</title>
<path fill="none" stroke="midnightblue" d="M152.675,-168.324C165.347,-159.979 184.733,-147.212 199.706,-137.352"/>
<polygon fill="midnightblue" stroke="midnightblue" points="201.931,-140.078 208.358,-131.655 198.081,-134.231 201.931,-140.078"/>
</g>
<!-- Node4&#45;&gt;Node8 -->
<g id="edge8" class="edge"><title>Node4&#45;&gt;Node8</title>
<path fill="none" stroke="midnightblue" d="M174.043,-168.444C211.753,-159.102 272.24,-144.119 313.365,-133.933"/>
<polygon fill="midnightblue" stroke="midnightblue" points="314.254,-137.318 323.119,-131.516 312.571,-130.524 314.254,-137.318"/>
</g>
<!-- Node8&#45;&gt;Node5 -->
<g id="edge9" class="edge"><title>Node8&#45;&gt;Node5</title>
<path fill="none" stroke="midnightblue" d="M281.932,-113.087C229.665,-106.127 166.127,-94.2209 146.5,-76 133.854,-64.2601 129.463,-44.6173 128.019,-29.9917"/>
<polygon fill="midnightblue" stroke="midnightblue" points="131.487,-29.3556 127.39,-19.5847 124.499,-29.7776 131.487,-29.3556"/>
</g>
<!-- Node9 -->
<g id="node9" class="node"><title>Node9</title>
<polygon fill="none" stroke="#bfbfbf" points="295,-56.5 295,-75.5 330,-75.5 330,-56.5 295,-56.5"/>
<text text-anchor="middle" x="312.5" y="-63.5" font-family="Helvetica,sans-Serif" font-size="10.00">map</text>
</g>
<!-- Node8&#45;&gt;Node9 -->
<g id="edge10" class="edge"><title>Node8&#45;&gt;Node9</title>
<path fill="none" stroke="midnightblue" d="M350.069,-112.083C343.647,-104.377 334.194,-93.0333 326.378,-83.6531"/>
<polygon fill="midnightblue" stroke="midnightblue" points="328.883,-81.1927 319.793,-75.7511 323.506,-85.674 328.883,-81.1927"/>
</g>
<!-- Node10 -->
<g id="node10" class="node"><title>Node10</title>
<polygon fill="none" stroke="#bfbfbf" points="259.5,-0.5 259.5,-19.5 315.5,-19.5 315.5,-0.5 259.5,-0.5"/>
<text text-anchor="middle" x="287.5" y="-7.5" font-family="Helvetica,sans-Serif" font-size="10.00">Rtypes.h</text>
</g>
<!-- Node8&#45;&gt;Node10 -->
<g id="edge11" class="edge"><title>Node8&#45;&gt;Node10</title>
<path fill="none" stroke="midnightblue" d="M356.532,-112.373C354.738,-99.2938 349.977,-74.0596 338.5,-56 330.979,-44.1653 319.462,-33.6273 309.274,-25.7295"/>
<polygon fill="midnightblue" stroke="midnightblue" points="311.274,-22.8557 301.146,-19.7458 307.124,-28.4929 311.274,-22.8557"/>
</g>
<!-- Node11 -->
<g id="node11" class="node"><title>Node11</title>
<polygon fill="none" stroke="#bfbfbf" points="387,-56.5 387,-75.5 446,-75.5 446,-56.5 387,-56.5"/>
<text text-anchor="middle" x="416.5" y="-63.5" font-family="Helvetica,sans-Serif" font-size="10.00">TObject.h</text>
</g>
<!-- Node8&#45;&gt;Node11 -->
<g id="edge12" class="edge"><title>Node8&#45;&gt;Node11</title>
<path fill="none" stroke="midnightblue" d="M366.979,-112.324C375.701,-104.341 388.843,-92.3128 399.398,-82.6529"/>
<polygon fill="midnightblue" stroke="midnightblue" points="401.834,-85.1674 406.848,-75.8339 397.108,-80.0036 401.834,-85.1674"/>
</g>
<!-- Node12 -->
<g id="node12" class="node"><title>Node12</title>
<polygon fill="none" stroke="#bfbfbf" points="464.5,-56.5 464.5,-75.5 580.5,-75.5 580.5,-56.5 464.5,-56.5"/>
<text text-anchor="middle" x="522.5" y="-63.5" font-family="Helvetica,sans-Serif" font-size="10.00">Common/Exceptions.h</text>
</g>
<!-- Node8&#45;&gt;Node12 -->
<g id="edge13" class="edge"><title>Node8&#45;&gt;Node12</title>
<path fill="none" stroke="midnightblue" d="M383.645,-112.444C411.523,-103.32 455.848,-88.8133 486.9,-78.6509"/>
<polygon fill="midnightblue" stroke="midnightblue" points="488.062,-81.9533 496.478,-75.5164 485.885,-75.3005 488.062,-81.9533"/>
</g>
<!-- Node13 -->
<g id="node13" class="node"><title>Node13</title>
<g id="a_node13"><a xlink:href="Quality_8h.html" target="_top" xlink:title="QualityControl/Quality.h">
<polygon fill="none" stroke="black" points="156,-56.5 156,-75.5 277,-75.5 277,-56.5 156,-56.5"/>
<text text-anchor="middle" x="216.5" y="-63.5" font-family="Helvetica,sans-Serif" font-size="10.00">QualityControl/Quality.h</text>
</a>
</g>
</g>
<!-- Node8&#45;&gt;Node13 -->
<g id="edge14" class="edge"><title>Node8&#45;&gt;Node13</title>
<path fill="none" stroke="midnightblue" d="M335.158,-112.444C311.747,-103.478 274.764,-89.314 248.31,-79.1827"/>
<polygon fill="midnightblue" stroke="midnightblue" points="249.328,-75.8245 238.737,-75.5164 246.824,-82.3615 249.328,-75.8245"/>
</g>
<!-- Node13&#45;&gt;Node5 -->
<g id="edge16" class="edge"><title>Node13&#45;&gt;Node5</title>
<path fill="none" stroke="midnightblue" d="M202.201,-56.324C188.317,-47.9002 167.008,-34.9709 150.696,-25.0741"/>
<polygon fill="midnightblue" stroke="midnightblue" points="152.129,-21.8495 141.764,-19.6545 148.498,-27.8341 152.129,-21.8495"/>
</g>
<!-- Node13&#45;&gt;Node10 -->
<g id="edge15" class="edge"><title>Node13&#45;&gt;Node10</title>
<path fill="none" stroke="midnightblue" d="M227.907,-56.324C238.609,-48.1849 254.841,-35.8395 267.663,-26.0874"/>
<polygon fill="midnightblue" stroke="midnightblue" points="270.044,-28.6734 275.885,-19.8339 265.807,-23.1018 270.044,-28.6734"/>
</g>
<!-- Node15&#45;&gt;Node4 -->
<g id="edge20" class="edge"><title>Node15&#45;&gt;Node4</title>
<path fill="none" stroke="midnightblue" d="M241.327,-224.444C221.591,-215.636 190.615,-201.812 168.007,-191.722"/>
<polygon fill="midnightblue" stroke="midnightblue" points="169.141,-188.396 158.583,-187.516 166.289,-194.788 169.141,-188.396"/>
</g>
<!-- Node16 -->
<g id="node16" class="node"><title>Node16</title>
<polygon fill="none" stroke="#bfbfbf" points="243,-168.5 243,-187.5 338,-187.5 338,-168.5 243,-168.5"/>
<text text-anchor="middle" x="290.5" y="-175.5" font-family="Helvetica,sans-Serif" font-size="10.00">CCDB/CcdbApi.h</text>
</g>
<!-- Node15&#45;&gt;Node16 -->
<g id="edge19" class="edge"><title>Node15&#45;&gt;Node16</title>
<path fill="none" stroke="midnightblue" d="M265.454,-224.083C269.604,-216.613 275.653,-205.724 280.767,-196.52"/>
<polygon fill="midnightblue" stroke="midnightblue" points="283.841,-198.192 285.638,-187.751 277.722,-194.793 283.841,-198.192"/>
</g>
</g>
</svg>
