<?xml version="1.0" encoding="UTF-8" standalone="no"?>
<!DOCTYPE svg PUBLIC "-//W3C//DTD SVG 1.1//EN"
 "http://www.w3.org/Graphics/SVG/1.1/DTD/svg11.dtd">
<!-- Generated by graphviz version 2.38.0 (20140413.2041)
 -->
<!-- Title: Modules/TOF/src/TOFCheckRawsTime.cxx Pages: 1 -->
<svg width="618pt" height="319pt"
 viewBox="0.00 0.00 618.28 319.00" xmlns="http://www.w3.org/2000/svg" xmlns:xlink="http://www.w3.org/1999/xlink">
<g id="graph0" class="graph" transform="scale(1 1) rotate(0) translate(4 315)">
<title>Modules/TOF/src/TOFCheckRawsTime.cxx</title>
<!-- Node1 -->
<g id="node1" class="node"><title>Node1</title>
<polygon fill="#bfbfbf" stroke="black" points="321.276,-280.5 321.276,-310.5 464.276,-310.5 464.276,-280.5 321.276,-280.5"/>
<text text-anchor="start" x="329.276" y="-298.5" font-family="Helvetica,sans-Serif" font-size="10.00">Modules/TOF/src/TOFCheck</text>
<text text-anchor="middle" x="392.776" y="-287.5" font-family="Helvetica,sans-Serif" font-size="10.00">RawsTime.cxx</text>
</g>
<!-- Node2 -->
<g id="node2" class="node"><title>Node2</title>
<g id="a_node2"><a xlink:href="TOFCheckRawsTime_8h.html" target="_top" xlink:title="TOF/TOFCheckRawsTime.h">
<polygon fill="none" stroke="black" points="63.2762,-224.5 63.2762,-243.5 206.276,-243.5 206.276,-224.5 63.2762,-224.5"/>
<text text-anchor="middle" x="134.776" y="-231.5" font-family="Helvetica,sans-Serif" font-size="10.00">TOF/TOFCheckRawsTime.h</text>
</a>
</g>
</g>
<!-- Node1&#45;&gt;Node2 -->
<g id="edge1" class="edge"><title>Node1&#45;&gt;Node2</title>
<path fill="none" stroke="midnightblue" d="M331.96,-280.475C285.992,-269.874 223.814,-255.534 181.66,-245.812"/>
<polygon fill="midnightblue" stroke="midnightblue" points="182.192,-242.343 171.661,-243.506 180.619,-249.164 182.192,-242.343"/>
</g>
<!-- Node11 -->
<g id="node11" class="node"><title>Node11</title>
<polygon fill="none" stroke="#bfbfbf" points="224.276,-224.5 224.276,-243.5 321.276,-243.5 321.276,-224.5 224.276,-224.5"/>
<text text-anchor="middle" x="272.776" y="-231.5" font-family="Helvetica,sans-Serif" font-size="10.00">fairlogger/Logger.h</text>
</g>
<!-- Node1&#45;&gt;Node11 -->
<g id="edge17" class="edge"><title>Node1&#45;&gt;Node11</title>
<path fill="none" stroke="midnightblue" d="M364.338,-280.399C344.653,-270.639 318.633,-257.737 299.363,-248.183"/>
<polygon fill="midnightblue" stroke="midnightblue" points="300.751,-244.964 290.237,-243.658 297.642,-251.236 300.751,-244.964"/>
</g>
<!-- Node12 -->
<g id="node12" class="node"><title>Node12</title>
<polygon fill="none" stroke="#bfbfbf" points="338.776,-224.5 338.776,-243.5 382.776,-243.5 382.776,-224.5 338.776,-224.5"/>
<text text-anchor="middle" x="360.776" y="-231.5" font-family="Helvetica,sans-Serif" font-size="10.00">TH1.h</text>
</g>
<!-- Node1&#45;&gt;Node12 -->
<g id="edge18" class="edge"><title>Node1&#45;&gt;Node12</title>
<path fill="none" stroke="midnightblue" d="M385.193,-280.399C380.734,-272.11 375.057,-261.554 370.3,-252.708"/>
<polygon fill="midnightblue" stroke="midnightblue" points="373.252,-250.807 365.432,-243.658 367.087,-254.123 373.252,-250.807"/>
</g>
<!-- Node13 -->
<g id="node13" class="node"><title>Node13</title>
<polygon fill="none" stroke="#bfbfbf" points="401.276,-224.5 401.276,-243.5 448.276,-243.5 448.276,-224.5 401.276,-224.5"/>
<text text-anchor="middle" x="424.776" y="-231.5" font-family="Helvetica,sans-Serif" font-size="10.00">TList.h</text>
</g>
<!-- Node1&#45;&gt;Node13 -->
<g id="edge19" class="edge"><title>Node1&#45;&gt;Node13</title>
<path fill="none" stroke="midnightblue" d="M400.36,-280.399C404.818,-272.11 410.495,-261.554 415.253,-252.708"/>
<polygon fill="midnightblue" stroke="midnightblue" points="418.466,-254.123 420.12,-243.658 412.301,-250.807 418.466,-254.123"/>
</g>
<!-- Node14 -->
<g id="node14" class="node"><title>Node14</title>
<polygon fill="none" stroke="#bfbfbf" points="466.276,-224.5 466.276,-243.5 519.276,-243.5 519.276,-224.5 466.276,-224.5"/>
<text text-anchor="middle" x="492.776" y="-231.5" font-family="Helvetica,sans-Serif" font-size="10.00">TMath.h</text>
</g>
<!-- Node1&#45;&gt;Node14 -->
<g id="edge20" class="edge"><title>Node1&#45;&gt;Node14</title>
<path fill="none" stroke="midnightblue" d="M416.475,-280.399C432.504,-270.862 453.575,-258.325 469.512,-248.842"/>
<polygon fill="midnightblue" stroke="midnightblue" points="471.421,-251.779 478.225,-243.658 467.842,-245.763 471.421,-251.779"/>
</g>
<!-- Node15 -->
<g id="node15" class="node"><title>Node15</title>
<polygon fill="none" stroke="#bfbfbf" points="537.276,-224.5 537.276,-243.5 610.276,-243.5 610.276,-224.5 537.276,-224.5"/>
<text text-anchor="middle" x="573.776" y="-231.5" font-family="Helvetica,sans-Serif" font-size="10.00">TPaveText.h</text>
</g>
<!-- Node1&#45;&gt;Node15 -->
<g id="edge21" class="edge"><title>Node1&#45;&gt;Node15</title>
<path fill="none" stroke="midnightblue" d="M435.671,-280.399C466.811,-270.163 508.463,-256.47 537.855,-246.808"/>
<polygon fill="midnightblue" stroke="midnightblue" points="539.296,-250.019 547.703,-243.571 537.11,-243.369 539.296,-250.019"/>
</g>
<!-- Node3 -->
<g id="node3" class="node"><title>Node3</title>
<g id="a_node3"><a xlink:href="CheckInterface_8h.html" target="_top" xlink:title="QualityControl/CheckInterface.h">
<polygon fill="none" stroke="black" points="56.2762,-168.5 56.2762,-187.5 213.276,-187.5 213.276,-168.5 56.2762,-168.5"/>
<text text-anchor="middle" x="134.776" y="-175.5" font-family="Helvetica,sans-Serif" font-size="10.00">QualityControl/CheckInterface.h</text>
</a>
</g>
</g>
<!-- Node2&#45;&gt;Node3 -->
<g id="edge2" class="edge"><title>Node2&#45;&gt;Node3</title>
<path fill="none" stroke="midnightblue" d="M134.776,-224.083C134.776,-217.006 134.776,-206.861 134.776,-197.986"/>
<polygon fill="midnightblue" stroke="midnightblue" points="138.276,-197.751 134.776,-187.751 131.276,-197.751 138.276,-197.751"/>
</g>
<!-- Node6 -->
<g id="node6" class="node"><title>Node6</title>
<g id="a_node6"><a xlink:href="MonitorObject_8h.html" target="_top" xlink:title="QualityControl/MonitorObject.h">
<polygon fill="none" stroke="black" points="149.276,-112.5 149.276,-131.5 300.276,-131.5 300.276,-112.5 149.276,-112.5"/>
<text text-anchor="middle" x="224.776" y="-119.5" font-family="Helvetica,sans-Serif" font-size="10.00">QualityControl/MonitorObject.h</text>
</a>
</g>
</g>
<!-- Node2&#45;&gt;Node6 -->
<g id="edge15" class="edge"><title>Node2&#45;&gt;Node6</title>
<path fill="none" stroke="midnightblue" d="M169.029,-224.401C187.944,-217.753 209.942,-206.471 221.776,-188 230.528,-174.34 230.405,-155.551 228.61,-141.686"/>
<polygon fill="midnightblue" stroke="midnightblue" points="232.06,-141.095 226.949,-131.814 225.156,-142.256 232.06,-141.095"/>
</g>
<!-- Node10 -->
<g id="node10" class="node"><title>Node10</title>
<g id="a_node10"><a xlink:href="Quality_8h.html" target="_top" xlink:title="QualityControl/Quality.h">
<polygon fill="none" stroke="black" points="12.2762,-56.5 12.2762,-75.5 133.276,-75.5 133.276,-56.5 12.2762,-56.5"/>
<text text-anchor="middle" x="72.7762" y="-63.5" font-family="Helvetica,sans-Serif" font-size="10.00">QualityControl/Quality.h</text>
</a>
</g>
</g>
<!-- Node2&#45;&gt;Node10 -->
<g id="edge16" class="edge"><title>Node2&#45;&gt;Node10</title>
<path fill="none" stroke="midnightblue" d="M98.9241,-224.397C79.8956,-217.81 58.1491,-206.589 46.7762,-188 26.6808,-155.154 47.4622,-108.998 61.7373,-84.2635"/>
<polygon fill="midnightblue" stroke="midnightblue" points="64.7811,-85.994 66.9674,-75.6272 58.7934,-82.3679 64.7811,-85.994"/>
</g>
<!-- Node4 -->
<g id="node4" class="node"><title>Node4</title>
<polygon fill="none" stroke="#bfbfbf" points="444.276,-0.5 444.276,-19.5 485.276,-19.5 485.276,-0.5 444.276,-0.5"/>
<text text-anchor="middle" x="464.776" y="-7.5" font-family="Helvetica,sans-Serif" font-size="10.00">string</text>
</g>
<!-- Node3&#45;&gt;Node4 -->
<g id="edge3" class="edge"><title>Node3&#45;&gt;Node4</title>
<path fill="none" stroke="midnightblue" d="M189.645,-168.484C275.155,-153.94 433.753,-121.421 465.776,-76 475.218,-62.6078 473.628,-43.499 470.483,-29.4655"/>
<polygon fill="midnightblue" stroke="midnightblue" points="473.782,-28.2551 467.809,-19.505 467.022,-30.0706 473.782,-28.2551"/>
</g>
<!-- Node5 -->
<g id="node5" class="node"><title>Node5</title>
<polygon fill="none" stroke="#bfbfbf" points="44.7762,-0.5 44.7762,-19.5 100.776,-19.5 100.776,-0.5 44.7762,-0.5"/>
<text text-anchor="middle" x="72.7762" y="-7.5" font-family="Helvetica,sans-Serif" font-size="10.00">Rtypes.h</text>
</g>
<!-- Node3&#45;&gt;Node5 -->
<g id="edge4" class="edge"><title>Node3&#45;&gt;Node5</title>
<path fill="none" stroke="midnightblue" d="M114.149,-168.48C83.2533,-154.441 26.1,-123.215 2.77616,-76 -8.19858,-53.7838 17.4827,-35.3586 40.77,-23.8669"/>
<polygon fill="midnightblue" stroke="midnightblue" points="42.5533,-26.8982 50.1569,-19.5201 39.6119,-20.5462 42.5533,-26.8982"/>
</g>
<!-- Node3&#45;&gt;Node6 -->
<g id="edge5" class="edge"><title>Node3&#45;&gt;Node6</title>
<path fill="none" stroke="midnightblue" d="M149.236,-168.324C163.276,-159.9 184.825,-146.971 201.319,-137.074"/>
<polygon fill="midnightblue" stroke="midnightblue" points="203.578,-139.801 210.352,-131.655 199.976,-133.798 203.578,-139.801"/>
</g>
<!-- Node3&#45;&gt;Node10 -->
<g id="edge14" class="edge"><title>Node3&#45;&gt;Node10</title>
<path fill="none" stroke="midnightblue" d="M129.911,-168.368C119.725,-150.296 95.9847,-108.176 82.5312,-84.3074"/>
<polygon fill="midnightblue" stroke="midnightblue" points="85.5778,-82.5844 77.6186,-75.5914 79.4797,-86.0215 85.5778,-82.5844"/>
</g>
<!-- Node6&#45;&gt;Node4 -->
<g id="edge6" class="edge"><title>Node6&#45;&gt;Node4</title>
<path fill="none" stroke="midnightblue" d="M300.469,-113.933C355.815,-107.266 424.739,-95.3502 445.776,-76 458.602,-64.2031 462.945,-44.2774 464.329,-29.5902"/>
<polygon fill="midnightblue" stroke="midnightblue" points="467.823,-29.7854 464.901,-19.6014 460.835,-29.3846 467.823,-29.7854"/>
</g>
<!-- Node6&#45;&gt;Node5 -->
<g id="edge8" class="edge"><title>Node6&#45;&gt;Node5</title>
<path fill="none" stroke="midnightblue" d="M214.515,-112.496C199.052,-99.7893 168.716,-75.279 141.776,-56 126.657,-45.1802 109.1,-33.7449 95.4797,-25.1094"/>
<polygon fill="midnightblue" stroke="midnightblue" points="97.0854,-21.9846 86.7577,-19.6203 93.3569,-27.909 97.0854,-21.9846"/>
</g>
<!-- Node7 -->
<g id="node7" class="node"><title>Node7</title>
<polygon fill="none" stroke="#bfbfbf" points="190.276,-56.5 190.276,-75.5 225.276,-75.5 225.276,-56.5 190.276,-56.5"/>
<text text-anchor="middle" x="207.776" y="-63.5" font-family="Helvetica,sans-Serif" font-size="10.00">map</text>
</g>
<!-- Node6&#45;&gt;Node7 -->
<g id="edge7" class="edge"><title>Node6&#45;&gt;Node7</title>
<path fill="none" stroke="midnightblue" d="M221.969,-112.083C219.691,-104.849 216.405,-94.4087 213.568,-85.3968"/>
<polygon fill="midnightblue" stroke="midnightblue" points="216.873,-84.2385 210.531,-75.7511 210.196,-86.3406 216.873,-84.2385"/>
</g>
<!-- Node8 -->
<g id="node8" class="node"><title>Node8</title>
<polygon fill="none" stroke="#bfbfbf" points="243.276,-56.5 243.276,-75.5 302.276,-75.5 302.276,-56.5 243.276,-56.5"/>
<text text-anchor="middle" x="272.776" y="-63.5" font-family="Helvetica,sans-Serif" font-size="10.00">TObject.h</text>
</g>
<!-- Node6&#45;&gt;Node8 -->
<g id="edge9" class="edge"><title>Node6&#45;&gt;Node8</title>
<path fill="none" stroke="midnightblue" d="M232.702,-112.083C239.622,-104.298 249.842,-92.8015 258.228,-83.3665"/>
<polygon fill="midnightblue" stroke="midnightblue" points="260.97,-85.5505 264.997,-75.7511 255.738,-80.8999 260.97,-85.5505"/>
</g>
<!-- Node9 -->
<g id="node9" class="node"><title>Node9</title>
<polygon fill="none" stroke="#bfbfbf" points="320.776,-56.5 320.776,-75.5 436.776,-75.5 436.776,-56.5 320.776,-56.5"/>
<text text-anchor="middle" x="378.776" y="-63.5" font-family="Helvetica,sans-Serif" font-size="10.00">Common/Exceptions.h</text>
</g>
<!-- Node6&#45;&gt;Node9 -->
<g id="edge10" class="edge"><title>Node6&#45;&gt;Node9</title>
<path fill="none" stroke="midnightblue" d="M249.178,-112.444C274.973,-103.399 315.853,-89.064 344.794,-78.9158"/>
<polygon fill="midnightblue" stroke="midnightblue" points="346.21,-82.1283 354.489,-75.5164 343.894,-75.5226 346.21,-82.1283"/>
</g>
<!-- Node6&#45;&gt;Node10 -->
<g id="edge11" class="edge"><title>Node6&#45;&gt;Node10</title>
<path fill="none" stroke="midnightblue" d="M200.691,-112.444C175.231,-103.399 134.882,-89.064 106.317,-78.9158"/>
<polygon fill="midnightblue" stroke="midnightblue" points="107.343,-75.5661 96.7483,-75.5164 105,-82.1622 107.343,-75.5661"/>
</g>
<!-- Node10&#45;&gt;Node4 -->
<g id="edge13" class="edge"><title>Node10&#45;&gt;Node4</title>
<path fill="none" stroke="midnightblue" d="M133.596,-56.6217C218.543,-44.9199 369.54,-24.1192 434.11,-15.2244"/>
<polygon fill="midnightblue" stroke="midnightblue" points="434.635,-18.6852 444.064,-13.8532 433.68,-11.7507 434.635,-18.6852"/>
</g>
<!-- Node10&#45;&gt;Node5 -->
<g id="edge12" class="edge"><title>Node10&#45;&gt;Node5</title>
<path fill="none" stroke="midnightblue" d="M72.7762,-56.083C72.7762,-49.0059 72.7762,-38.8611 72.7762,-29.9865"/>
<polygon fill="midnightblue" stroke="midnightblue" points="76.2763,-29.751 72.7762,-19.7511 69.2763,-29.7511 76.2763,-29.751"/>
</g>
</g>
</svg>
