<?xml version="1.0" encoding="UTF-8" standalone="no"?>
<!DOCTYPE svg PUBLIC "-//W3C//DTD SVG 1.1//EN"
 "http://www.w3.org/Graphics/SVG/1.1/DTD/svg11.dtd">
<!-- Generated by graphviz version 2.38.0 (20140413.2041)
 -->
<!-- Title: Modules/TOF/include/TOF/TOFCheckRawsMulti.h Pages: 1 -->
<svg width="493pt" height="263pt"
 viewBox="0.00 0.00 493.28 263.00" xmlns="http://www.w3.org/2000/svg" xmlns:xlink="http://www.w3.org/1999/xlink">
<g id="graph0" class="graph" transform="scale(1 1) rotate(0) translate(4 259)">
<title>Modules/TOF/include/TOF/TOFCheckRawsMulti.h</title>
<!-- Node1 -->
<g id="node1" class="node"><title>Node1</title>
<polygon fill="#bfbfbf" stroke="black" points="62.2762,-224.5 62.2762,-254.5 207.276,-254.5 207.276,-224.5 62.2762,-224.5"/>
<text text-anchor="start" x="70.2762" y="-242.5" font-family="Helvetica,sans-Serif" font-size="10.00">Modules/TOF/include</text>
<text text-anchor="middle" x="134.776" y="-231.5" font-family="Helvetica,sans-Serif" font-size="10.00">/TOF/TOFCheckRawsMulti.h</text>
</g>
<!-- Node2 -->
<g id="node2" class="node"><title>Node2</title>
<g id="a_node2"><a xlink:href="CheckInterface_8h.html" target="_top" xlink:title="QualityControl/CheckInterface.h">
<polygon fill="none" stroke="black" points="56.2762,-168.5 56.2762,-187.5 213.276,-187.5 213.276,-168.5 56.2762,-168.5"/>
<text text-anchor="middle" x="134.776" y="-175.5" font-family="Helvetica,sans-Serif" font-size="10.00">QualityControl/CheckInterface.h</text>
</a>
</g>
</g>
<!-- Node1&#45;&gt;Node2 -->
<g id="edge1" class="edge"><title>Node1&#45;&gt;Node2</title>
<path fill="none" stroke="midnightblue" d="M134.776,-224.399C134.776,-216.466 134.776,-206.458 134.776,-197.858"/>
<polygon fill="midnightblue" stroke="midnightblue" points="138.276,-197.658 134.776,-187.658 131.276,-197.658 138.276,-197.658"/>
</g>
<!-- Node5 -->
<g id="node5" class="node"><title>Node5</title>
<g id="a_node5"><a xlink:href="MonitorObject_8h.html" target="_top" xlink:title="QualityControl/MonitorObject.h">
<polygon fill="none" stroke="black" points="149.276,-112.5 149.276,-131.5 300.276,-131.5 300.276,-112.5 149.276,-112.5"/>
<text text-anchor="middle" x="224.776" y="-119.5" font-family="Helvetica,sans-Serif" font-size="10.00">QualityControl/MonitorObject.h</text>
</a>
</g>
</g>
<!-- Node1&#45;&gt;Node5 -->
<g id="edge14" class="edge"><title>Node1&#45;&gt;Node5</title>
<path fill="none" stroke="midnightblue" d="M176.757,-224.412C193.707,-216.477 211.628,-204.721 221.776,-188 230.11,-174.269 230.112,-155.739 228.466,-141.977"/>
<polygon fill="midnightblue" stroke="midnightblue" points="231.867,-141.076 226.843,-131.748 224.954,-142.173 231.867,-141.076"/>
</g>
<!-- Node9 -->
<g id="node9" class="node"><title>Node9</title>
<g id="a_node9"><a xlink:href="Quality_8h.html" target="_top" xlink:title="QualityControl/Quality.h">
<polygon fill="none" stroke="black" points="12.2762,-56.5 12.2762,-75.5 133.276,-75.5 133.276,-56.5 12.2762,-56.5"/>
<text text-anchor="middle" x="72.7762" y="-63.5" font-family="Helvetica,sans-Serif" font-size="10.00">QualityControl/Quality.h</text>
</a>
</g>
</g>
<!-- Node1&#45;&gt;Node9 -->
<g id="edge15" class="edge"><title>Node1&#45;&gt;Node9</title>
<path fill="none" stroke="midnightblue" d="M91.0308,-224.32C74.0992,-216.449 56.4862,-204.768 46.7762,-188 27.5649,-154.825 47.7611,-109.119 61.7666,-84.4626"/>
<polygon fill="midnightblue" stroke="midnightblue" points="64.962,-85.9382 67.0837,-75.5579 58.9519,-82.3494 64.962,-85.9382"/>
</g>
<!-- Node3 -->
<g id="node3" class="node"><title>Node3</title>
<polygon fill="none" stroke="#bfbfbf" points="444.276,-0.5 444.276,-19.5 485.276,-19.5 485.276,-0.5 444.276,-0.5"/>
<text text-anchor="middle" x="464.776" y="-7.5" font-family="Helvetica,sans-Serif" font-size="10.00">string</text>
</g>
<!-- Node2&#45;&gt;Node3 -->
<g id="edge2" class="edge"><title>Node2&#45;&gt;Node3</title>
<path fill="none" stroke="midnightblue" d="M189.645,-168.484C275.155,-153.94 433.753,-121.421 465.776,-76 475.218,-62.6078 473.628,-43.499 470.483,-29.4655"/>
<polygon fill="midnightblue" stroke="midnightblue" points="473.782,-28.2551 467.809,-19.505 467.022,-30.0706 473.782,-28.2551"/>
</g>
<!-- Node4 -->
<g id="node4" class="node"><title>Node4</title>
<polygon fill="none" stroke="#bfbfbf" points="44.7762,-0.5 44.7762,-19.5 100.776,-19.5 100.776,-0.5 44.7762,-0.5"/>
<text text-anchor="middle" x="72.7762" y="-7.5" font-family="Helvetica,sans-Serif" font-size="10.00">Rtypes.h</text>
</g>
<!-- Node2&#45;&gt;Node4 -->
<g id="edge3" class="edge"><title>Node2&#45;&gt;Node4</title>
<path fill="none" stroke="midnightblue" d="M114.149,-168.48C83.2533,-154.441 26.1,-123.215 2.77616,-76 -8.19858,-53.7838 17.4827,-35.3586 40.77,-23.8669"/>
<polygon fill="midnightblue" stroke="midnightblue" points="42.5533,-26.8982 50.1569,-19.5201 39.6119,-20.5462 42.5533,-26.8982"/>
</g>
<!-- Node2&#45;&gt;Node5 -->
<g id="edge4" class="edge"><title>Node2&#45;&gt;Node5</title>
<path fill="none" stroke="midnightblue" d="M149.236,-168.324C163.276,-159.9 184.825,-146.971 201.319,-137.074"/>
<polygon fill="midnightblue" stroke="midnightblue" points="203.578,-139.801 210.352,-131.655 199.976,-133.798 203.578,-139.801"/>
</g>
<!-- Node2&#45;&gt;Node9 -->
<g id="edge13" class="edge"><title>Node2&#45;&gt;Node9</title>
<path fill="none" stroke="midnightblue" d="M129.911,-168.368C119.725,-150.296 95.9847,-108.176 82.5312,-84.3074"/>
<polygon fill="midnightblue" stroke="midnightblue" points="85.5778,-82.5844 77.6186,-75.5914 79.4797,-86.0215 85.5778,-82.5844"/>
</g>
<!-- Node5&#45;&gt;Node3 -->
<g id="edge5" class="edge"><title>Node5&#45;&gt;Node3</title>
<path fill="none" stroke="midnightblue" d="M300.469,-113.933C355.815,-107.266 424.739,-95.3502 445.776,-76 458.602,-64.2031 462.945,-44.2774 464.329,-29.5902"/>
<polygon fill="midnightblue" stroke="midnightblue" points="467.823,-29.7854 464.901,-19.6014 460.835,-29.3846 467.823,-29.7854"/>
</g>
<!-- Node5&#45;&gt;Node4 -->
<g id="edge7" class="edge"><title>Node5&#45;&gt;Node4</title>
<path fill="none" stroke="midnightblue" d="M214.515,-112.496C199.052,-99.7893 168.716,-75.279 141.776,-56 126.657,-45.1802 109.1,-33.7449 95.4797,-25.1094"/>
<polygon fill="midnightblue" stroke="midnightblue" points="97.0854,-21.9846 86.7577,-19.6203 93.3569,-27.909 97.0854,-21.9846"/>
</g>
<!-- Node6 -->
<g id="node6" class="node"><title>Node6</title>
<polygon fill="none" stroke="#bfbfbf" points="190.276,-56.5 190.276,-75.5 225.276,-75.5 225.276,-56.5 190.276,-56.5"/>
<text text-anchor="middle" x="207.776" y="-63.5" font-family="Helvetica,sans-Serif" font-size="10.00">map</text>
</g>
<!-- Node5&#45;&gt;Node6 -->
<g id="edge6" class="edge"><title>Node5&#45;&gt;Node6</title>
<path fill="none" stroke="midnightblue" d="M221.969,-112.083C219.691,-104.849 216.405,-94.4087 213.568,-85.3968"/>
<polygon fill="midnightblue" stroke="midnightblue" points="216.873,-84.2385 210.531,-75.7511 210.196,-86.3406 216.873,-84.2385"/>
</g>
<!-- Node7 -->
<g id="node7" class="node"><title>Node7</title>
<polygon fill="none" stroke="#bfbfbf" points="243.276,-56.5 243.276,-75.5 302.276,-75.5 302.276,-56.5 243.276,-56.5"/>
<text text-anchor="middle" x="272.776" y="-63.5" font-family="Helvetica,sans-Serif" font-size="10.00">TObject.h</text>
</g>
<!-- Node5&#45;&gt;Node7 -->
<g id="edge8" class="edge"><title>Node5&#45;&gt;Node7</title>
<path fill="none" stroke="midnightblue" d="M232.702,-112.083C239.622,-104.298 249.842,-92.8015 258.228,-83.3665"/>
<polygon fill="midnightblue" stroke="midnightblue" points="260.97,-85.5505 264.997,-75.7511 255.738,-80.8999 260.97,-85.5505"/>
</g>
<!-- Node8 -->
<g id="node8" class="node"><title>Node8</title>
<polygon fill="none" stroke="#bfbfbf" points="320.776,-56.5 320.776,-75.5 436.776,-75.5 436.776,-56.5 320.776,-56.5"/>
<text text-anchor="middle" x="378.776" y="-63.5" font-family="Helvetica,sans-Serif" font-size="10.00">Common/Exceptions.h</text>
</g>
<!-- Node5&#45;&gt;Node8 -->
<g id="edge9" class="edge"><title>Node5&#45;&gt;Node8</title>
<path fill="none" stroke="midnightblue" d="M249.178,-112.444C274.973,-103.399 315.853,-89.064 344.794,-78.9158"/>
<polygon fill="midnightblue" stroke="midnightblue" points="346.21,-82.1283 354.489,-75.5164 343.894,-75.5226 346.21,-82.1283"/>
</g>
<!-- Node5&#45;&gt;Node9 -->
<g id="edge10" class="edge"><title>Node5&#45;&gt;Node9</title>
<path fill="none" stroke="midnightblue" d="M200.691,-112.444C175.231,-103.399 134.882,-89.064 106.317,-78.9158"/>
<polygon fill="midnightblue" stroke="midnightblue" points="107.343,-75.5661 96.7483,-75.5164 105,-82.1622 107.343,-75.5661"/>
</g>
<!-- Node9&#45;&gt;Node3 -->
<g id="edge12" class="edge"><title>Node9&#45;&gt;Node3</title>
<path fill="none" stroke="midnightblue" d="M133.596,-56.6217C218.543,-44.9199 369.54,-24.1192 434.11,-15.2244"/>
<polygon fill="midnightblue" stroke="midnightblue" points="434.635,-18.6852 444.064,-13.8532 433.68,-11.7507 434.635,-18.6852"/>
</g>
<!-- Node9&#45;&gt;Node4 -->
<g id="edge11" class="edge"><title>Node9&#45;&gt;Node4</title>
<path fill="none" stroke="midnightblue" d="M72.7762,-56.083C72.7762,-49.0059 72.7762,-38.8611 72.7762,-29.9865"/>
<polygon fill="midnightblue" stroke="midnightblue" points="76.2763,-29.751 72.7762,-19.7511 69.2763,-29.7511 76.2763,-29.751"/>
</g>
</g>
</svg>
