<?xml version="1.0" encoding="UTF-8" standalone="no"?>
<!DOCTYPE svg PUBLIC "-//W3C//DTD SVG 1.1//EN"
 "http://www.w3.org/Graphics/SVG/1.1/DTD/svg11.dtd">
<!-- Generated by graphviz version 2.38.0 (20140413.2041)
 -->
<!-- Title: Modules/TOF/include/TOF/TOFTask.h Pages: 1 -->
<svg width="1058pt" height="319pt"
 viewBox="0.00 0.00 1058.46 319.00" xmlns="http://www.w3.org/2000/svg" xmlns:xlink="http://www.w3.org/1999/xlink">
<g id="graph0" class="graph" transform="scale(1 1) rotate(0) translate(4 315)">
<title>Modules/TOF/include/TOF/TOFTask.h</title>
<!-- Node1 -->
<g id="node1" class="node"><title>Node1</title>
<polygon fill="#bfbfbf" stroke="black" points="498.962,-280.5 498.962,-310.5 608.962,-310.5 608.962,-280.5 498.962,-280.5"/>
<text text-anchor="start" x="506.962" y="-298.5" font-family="Helvetica,sans-Serif" font-size="10.00">Modules/TOF/include</text>
<text text-anchor="middle" x="553.962" y="-287.5" font-family="Helvetica,sans-Serif" font-size="10.00">/TOF/TOFTask.h</text>
</g>
<!-- Node2 -->
<g id="node2" class="node"><title>Node2</title>
<g id="a_node2"><a xlink:href="TaskInterface_8h.html" target="_top" xlink:title="QualityControl/TaskInterface.h">
<polygon fill="none" stroke="black" points="478.962,-224.5 478.962,-243.5 628.962,-243.5 628.962,-224.5 478.962,-224.5"/>
<text text-anchor="middle" x="553.962" y="-231.5" font-family="Helvetica,sans-Serif" font-size="10.00">QualityControl/TaskInterface.h</text>
</a>
</g>
</g>
<!-- Node1&#45;&gt;Node2 -->
<g id="edge1" class="edge"><title>Node1&#45;&gt;Node2</title>
<path fill="none" stroke="midnightblue" d="M553.962,-280.399C553.962,-272.466 553.962,-262.458 553.962,-253.858"/>
<polygon fill="midnightblue" stroke="midnightblue" points="557.462,-253.658 553.962,-243.658 550.462,-253.658 557.462,-253.658"/>
</g>
<!-- Node3 -->
<g id="node3" class="node"><title>Node3</title>
<polygon fill="none" stroke="#bfbfbf" points="20.462,-56.5 20.462,-75.5 55.462,-75.5 55.462,-56.5 20.462,-56.5"/>
<text text-anchor="middle" x="37.962" y="-63.5" font-family="Helvetica,sans-Serif" font-size="10.00">map</text>
</g>
<!-- Node2&#45;&gt;Node3 -->
<g id="edge2" class="edge"><title>Node2&#45;&gt;Node3</title>
<path fill="none" stroke="midnightblue" d="M478.915,-227.367C389.937,-218.052 239.424,-193.832 125.962,-132 99.8298,-117.759 72.7202,-96.6007 55.6192,-82.3275"/>
<polygon fill="midnightblue" stroke="midnightblue" points="57.5368,-79.3645 47.647,-75.5642 53.0084,-84.7024 57.5368,-79.3645"/>
</g>
<!-- Node4 -->
<g id="node4" class="node"><title>Node4</title>
<polygon fill="none" stroke="#bfbfbf" points="500.962,-112.5 500.962,-131.5 552.962,-131.5 552.962,-112.5 500.962,-112.5"/>
<text text-anchor="middle" x="526.962" y="-119.5" font-family="Helvetica,sans-Serif" font-size="10.00">memory</text>
</g>
<!-- Node2&#45;&gt;Node4 -->
<g id="edge3" class="edge"><title>Node2&#45;&gt;Node4</title>
<path fill="none" stroke="midnightblue" d="M551.843,-224.368C547.486,-206.617 537.435,-165.666 531.527,-141.597"/>
<polygon fill="midnightblue" stroke="midnightblue" points="534.854,-140.469 529.071,-131.591 528.056,-142.137 534.854,-140.469"/>
</g>
<!-- Node5 -->
<g id="node5" class="node"><title>Node5</title>
<polygon fill="none" stroke="#bfbfbf" points="274.462,-0.5 274.462,-19.5 315.462,-19.5 315.462,-0.5 274.462,-0.5"/>
<text text-anchor="middle" x="294.962" y="-7.5" font-family="Helvetica,sans-Serif" font-size="10.00">string</text>
</g>
<!-- Node2&#45;&gt;Node5 -->
<g id="edge4" class="edge"><title>Node2&#45;&gt;Node5</title>
<path fill="none" stroke="midnightblue" d="M478.961,-230.157C407.895,-225.858 298.816,-215.067 207.962,-188 153.096,-171.654 141.975,-159.86 91.962,-132 51.4629,-109.44 26.2702,-116.638 3.96196,-76 -0.315453,-68.2079 -1.82325,-62.7486 3.96196,-56 37.281,-17.1325 196.584,-11.5378 264.346,-10.9436"/>
<polygon fill="midnightblue" stroke="midnightblue" points="264.422,-14.4434 274.402,-10.8869 264.382,-7.44348 264.422,-14.4434"/>
</g>
<!-- Node6 -->
<g id="node6" class="node"><title>Node6</title>
<polygon fill="none" stroke="#bfbfbf" points="539.462,-56.5 539.462,-75.5 622.462,-75.5 622.462,-56.5 539.462,-56.5"/>
<text text-anchor="middle" x="580.962" y="-63.5" font-family="Helvetica,sans-Serif" font-size="10.00">unordered_map</text>
</g>
<!-- Node2&#45;&gt;Node6 -->
<g id="edge5" class="edge"><title>Node2&#45;&gt;Node6</title>
<path fill="none" stroke="midnightblue" d="M555.414,-224.075C559.664,-197.945 572.145,-121.211 577.94,-85.577"/>
<polygon fill="midnightblue" stroke="midnightblue" points="581.417,-86.0003 579.568,-75.5681 574.508,-84.8765 581.417,-86.0003"/>
</g>
<!-- Node7 -->
<g id="node7" class="node"><title>Node7</title>
<polygon fill="none" stroke="#bfbfbf" points="605.462,-168.5 605.462,-187.5 730.462,-187.5 730.462,-168.5 605.462,-168.5"/>
<text text-anchor="middle" x="667.962" y="-175.5" font-family="Helvetica,sans-Serif" font-size="10.00">Framework/InitContext.h</text>
</g>
<!-- Node2&#45;&gt;Node7 -->
<g id="edge6" class="edge"><title>Node2&#45;&gt;Node7</title>
<path fill="none" stroke="midnightblue" d="M572.026,-224.444C590.537,-215.675 619.543,-201.935 640.817,-191.858"/>
<polygon fill="midnightblue" stroke="midnightblue" points="642.444,-194.96 649.983,-187.516 639.447,-188.634 642.444,-194.96"/>
</g>
<!-- Node8 -->
<g id="node8" class="node"><title>Node8</title>
<polygon fill="none" stroke="#bfbfbf" points="748.962,-168.5 748.962,-187.5 908.962,-187.5 908.962,-168.5 748.962,-168.5"/>
<text text-anchor="middle" x="828.962" y="-175.5" font-family="Helvetica,sans-Serif" font-size="10.00">Framework/ProcessingContext.h</text>
</g>
<!-- Node2&#45;&gt;Node8 -->
<g id="edge7" class="edge"><title>Node2&#45;&gt;Node8</title>
<path fill="none" stroke="midnightblue" d="M597.537,-224.444C645.811,-214.964 723.674,-199.675 775.574,-189.483"/>
<polygon fill="midnightblue" stroke="midnightblue" points="776.453,-192.878 785.591,-187.516 775.104,-186.009 776.453,-192.878"/>
</g>
<!-- Node9 -->
<g id="node9" class="node"><title>Node9</title>
<g id="a_node9"><a xlink:href="Activity_8h.html" target="_top" xlink:title="QualityControl/Activity.h">
<polygon fill="none" stroke="black" points="927.462,-168.5 927.462,-187.5 1050.46,-187.5 1050.46,-168.5 927.462,-168.5"/>
<text text-anchor="middle" x="988.962" y="-175.5" font-family="Helvetica,sans-Serif" font-size="10.00">QualityControl/Activity.h</text>
</a>
</g>
</g>
<!-- Node2&#45;&gt;Node9 -->
<g id="edge8" class="edge"><title>Node2&#45;&gt;Node9</title>
<path fill="none" stroke="midnightblue" d="M623.412,-224.479C694.447,-215.748 808.298,-201.715 917.206,-188.091"/>
<polygon fill="midnightblue" stroke="midnightblue" points="917.902,-191.532 927.39,-186.817 917.033,-184.586 917.902,-191.532"/>
</g>
<!-- Node10 -->
<g id="node10" class="node"><title>Node10</title>
<g id="a_node10"><a xlink:href="ObjectsManager_8h.html" target="_top" xlink:title="QualityControl/ObjectsManager.h">
<polygon fill="none" stroke="black" points="283.462,-168.5 283.462,-187.5 444.462,-187.5 444.462,-168.5 283.462,-168.5"/>
<text text-anchor="middle" x="363.962" y="-175.5" font-family="Helvetica,sans-Serif" font-size="10.00">QualityControl/ObjectsManager.h</text>
</a>
</g>
</g>
<!-- Node2&#45;&gt;Node10 -->
<g id="edge9" class="edge"><title>Node2&#45;&gt;Node10</title>
<path fill="none" stroke="midnightblue" d="M523.856,-224.444C491.336,-215.201 439.383,-200.436 403.571,-190.257"/>
<polygon fill="midnightblue" stroke="midnightblue" points="404.503,-186.884 393.927,-187.516 402.589,-193.617 404.503,-186.884"/>
</g>
<!-- Node10&#45;&gt;Node4 -->
<g id="edge24" class="edge"><title>Node10&#45;&gt;Node4</title>
<path fill="none" stroke="midnightblue" d="M389.79,-168.444C417.211,-159.359 460.739,-144.939 491.394,-134.783"/>
<polygon fill="midnightblue" stroke="midnightblue" points="492.863,-137.984 501.255,-131.516 490.662,-131.339 492.863,-137.984"/>
</g>
<!-- Node10&#45;&gt;Node5 -->
<g id="edge23" class="edge"><title>Node10&#45;&gt;Node5</title>
<path fill="none" stroke="midnightblue" d="M297.532,-168.498C203.99,-154.898 41.4207,-124.71 10.962,-76 6.24921,-68.4633 5.18931,-62.7594 10.962,-56 43.2075,-18.2429 196.823,-11.9928 263.716,-11.0827"/>
<polygon fill="midnightblue" stroke="midnightblue" points="264.082,-14.5792 274.046,-10.9758 264.01,-7.57955 264.082,-14.5792"/>
</g>
<!-- Node11 -->
<g id="node11" class="node"><title>Node11</title>
<g id="a_node11"><a xlink:href="MonitorObject_8h.html" target="_top" xlink:title="QualityControl/MonitorObject.h">
<polygon fill="none" stroke="black" points="135.462,-112.5 135.462,-131.5 286.462,-131.5 286.462,-112.5 135.462,-112.5"/>
<text text-anchor="middle" x="210.962" y="-119.5" font-family="Helvetica,sans-Serif" font-size="10.00">QualityControl/MonitorObject.h</text>
</a>
</g>
</g>
<!-- Node10&#45;&gt;Node11 -->
<g id="edge10" class="edge"><title>Node10&#45;&gt;Node11</title>
<path fill="none" stroke="midnightblue" d="M339.719,-168.444C314.091,-159.399 273.477,-145.064 244.724,-134.916"/>
<polygon fill="midnightblue" stroke="midnightblue" points="245.687,-131.544 235.092,-131.516 243.357,-138.145 245.687,-131.544"/>
</g>
<!-- Node15 -->
<g id="node15" class="node"><title>Node15</title>
<g id="a_node15"><a xlink:href="Quality_8h.html" target="_top" xlink:title="QualityControl/Quality.h">
<polygon fill="none" stroke="black" points="323.462,-56.5 323.462,-75.5 444.462,-75.5 444.462,-56.5 323.462,-56.5"/>
<text text-anchor="middle" x="383.962" y="-63.5" font-family="Helvetica,sans-Serif" font-size="10.00">QualityControl/Quality.h</text>
</a>
</g>
</g>
<!-- Node10&#45;&gt;Node15 -->
<g id="edge19" class="edge"><title>Node10&#45;&gt;Node15</title>
<path fill="none" stroke="midnightblue" d="M354.797,-168.203C342.981,-155.74 324.961,-132.209 333.962,-112 339.53,-99.4981 350.478,-89.0124 360.713,-81.3167"/>
<polygon fill="midnightblue" stroke="midnightblue" points="362.813,-84.1193 369.009,-75.5256 358.806,-78.3794 362.813,-84.1193"/>
</g>
<!-- Node16 -->
<g id="node16" class="node"><title>Node16</title>
<g id="a_node16"><a xlink:href="TaskConfig_8h.html" target="_top" xlink:title="QualityControl/TaskConfig.h">
<polygon fill="none" stroke="black" points="342.962,-112.5 342.962,-131.5 482.962,-131.5 482.962,-112.5 342.962,-112.5"/>
<text text-anchor="middle" x="412.962" y="-119.5" font-family="Helvetica,sans-Serif" font-size="10.00">QualityControl/TaskConfig.h</text>
</a>
</g>
</g>
<!-- Node10&#45;&gt;Node16 -->
<g id="edge20" class="edge"><title>Node10&#45;&gt;Node16</title>
<path fill="none" stroke="midnightblue" d="M372.053,-168.083C379.117,-160.298 389.55,-148.801 398.111,-139.367"/>
<polygon fill="midnightblue" stroke="midnightblue" points="400.893,-141.509 405.021,-131.751 395.709,-136.805 400.893,-141.509"/>
</g>
<!-- Node11&#45;&gt;Node3 -->
<g id="edge12" class="edge"><title>Node11&#45;&gt;Node3</title>
<path fill="none" stroke="midnightblue" d="M181.857,-112.429C154.104,-104.181 110.912,-91.1552 65.3164,-76.3676"/>
<polygon fill="midnightblue" stroke="midnightblue" points="66.1474,-72.9572 55.555,-73.1864 63.9783,-79.6127 66.1474,-72.9572"/>
</g>
<!-- Node11&#45;&gt;Node5 -->
<g id="edge11" class="edge"><title>Node11&#45;&gt;Node5</title>
<path fill="none" stroke="midnightblue" d="M229.86,-112.373C244.48,-104.773 264.16,-92.3641 275.962,-76 285.741,-62.4414 290.518,-43.8923 292.833,-30.0791"/>
<polygon fill="midnightblue" stroke="midnightblue" points="296.351,-30.1886 294.255,-19.8033 289.417,-29.2294 296.351,-30.1886"/>
</g>
<!-- Node12 -->
<g id="node12" class="node"><title>Node12</title>
<polygon fill="none" stroke="#bfbfbf" points="418.962,-0.5 418.962,-19.5 474.962,-19.5 474.962,-0.5 418.962,-0.5"/>
<text text-anchor="middle" x="446.962" y="-7.5" font-family="Helvetica,sans-Serif" font-size="10.00">Rtypes.h</text>
</g>
<!-- Node11&#45;&gt;Node12 -->
<g id="edge13" class="edge"><title>Node11&#45;&gt;Node12</title>
<path fill="none" stroke="midnightblue" d="M281.663,-112.473C349.085,-103.616 441.967,-89.2277 452.962,-76 463.688,-63.0961 459.999,-43.3754 454.983,-29.0397"/>
<polygon fill="midnightblue" stroke="midnightblue" points="458.228,-27.7277 451.282,-19.7272 451.722,-30.3129 458.228,-27.7277"/>
</g>
<!-- Node13 -->
<g id="node13" class="node"><title>Node13</title>
<polygon fill="none" stroke="#bfbfbf" points="73.462,-56.5 73.462,-75.5 132.462,-75.5 132.462,-56.5 73.462,-56.5"/>
<text text-anchor="middle" x="102.962" y="-63.5" font-family="Helvetica,sans-Serif" font-size="10.00">TObject.h</text>
</g>
<!-- Node11&#45;&gt;Node13 -->
<g id="edge14" class="edge"><title>Node11&#45;&gt;Node13</title>
<path fill="none" stroke="midnightblue" d="M193.61,-112.324C176.29,-103.664 149.447,-90.2424 129.46,-80.249"/>
<polygon fill="midnightblue" stroke="midnightblue" points="130.781,-76.9962 120.271,-75.6545 127.65,-83.2572 130.781,-76.9962"/>
</g>
<!-- Node14 -->
<g id="node14" class="node"><title>Node14</title>
<polygon fill="none" stroke="#bfbfbf" points="150.962,-56.5 150.962,-75.5 266.962,-75.5 266.962,-56.5 150.962,-56.5"/>
<text text-anchor="middle" x="208.962" y="-63.5" font-family="Helvetica,sans-Serif" font-size="10.00">Common/Exceptions.h</text>
</g>
<!-- Node11&#45;&gt;Node14 -->
<g id="edge15" class="edge"><title>Node11&#45;&gt;Node14</title>
<path fill="none" stroke="midnightblue" d="M210.632,-112.083C210.37,-105.006 209.994,-94.8611 209.665,-85.9865"/>
<polygon fill="midnightblue" stroke="midnightblue" points="213.154,-85.6147 209.286,-75.7511 206.159,-85.8738 213.154,-85.6147"/>
</g>
<!-- Node11&#45;&gt;Node15 -->
<g id="edge16" class="edge"><title>Node11&#45;&gt;Node15</title>
<path fill="none" stroke="midnightblue" d="M238.374,-112.444C267.731,-103.28 314.481,-88.6876 347.058,-78.5192"/>
<polygon fill="midnightblue" stroke="midnightblue" points="348.175,-81.8371 356.678,-75.5164 346.089,-75.1551 348.175,-81.8371"/>
</g>
<!-- Node15&#45;&gt;Node5 -->
<g id="edge18" class="edge"><title>Node15&#45;&gt;Node5</title>
<path fill="none" stroke="midnightblue" d="M369.663,-56.324C355.779,-47.9002 334.47,-34.9709 318.158,-25.0741"/>
<polygon fill="midnightblue" stroke="midnightblue" points="319.591,-21.8495 309.226,-19.6545 315.96,-27.8341 319.591,-21.8495"/>
</g>
<!-- Node15&#45;&gt;Node12 -->
<g id="edge17" class="edge"><title>Node15&#45;&gt;Node12</title>
<path fill="none" stroke="midnightblue" d="M394.084,-56.324C403.488,-48.2631 417.706,-36.0765 429.031,-26.3695"/>
<polygon fill="midnightblue" stroke="midnightblue" points="431.341,-28.9993 436.656,-19.8339 426.785,-23.6844 431.341,-28.9993"/>
</g>
<!-- Node16&#45;&gt;Node5 -->
<g id="edge21" class="edge"><title>Node16&#45;&gt;Node5</title>
<path fill="none" stroke="midnightblue" d="M424.971,-112.461C441.433,-99.7084 467.412,-75.1408 452.962,-56 437.667,-35.7405 367.251,-21.8983 325.764,-15.3442"/>
<polygon fill="midnightblue" stroke="midnightblue" points="326.057,-11.8484 315.643,-13.7989 325,-18.7682 326.057,-11.8484"/>
</g>
<!-- Node16&#45;&gt;Node6 -->
<g id="edge22" class="edge"><title>Node16&#45;&gt;Node6</title>
<path fill="none" stroke="midnightblue" d="M439.582,-112.444C467.968,-103.32 513.098,-88.8133 544.715,-78.6509"/>
<polygon fill="midnightblue" stroke="midnightblue" points="546.017,-81.9087 554.466,-75.5164 543.875,-75.2445 546.017,-81.9087"/>
</g>
</g>
</svg>
