<?xml version="1.0" encoding="UTF-8" standalone="no"?>
<!DOCTYPE svg PUBLIC "-//W3C//DTD SVG 1.1//EN"
 "http://www.w3.org/Graphics/SVG/1.1/DTD/svg11.dtd">
<!-- Generated by graphviz version 2.38.0 (20140413.2041)
 -->
<!-- Title: Modules/TOF/src/TOFTask.cxx Pages: 1 -->
<!--zoomable 364 -->
<svg id="main" version="1.1" xmlns="http://www.w3.org/2000/svg" xmlns:xlink="http://www.w3.org/1999/xlink" xml:space="preserve" onload="init(evt)">
<style type="text/css"><![CDATA[
.edge:hover path { stroke: red; }
.edge:hover polygon { stroke: red; fill: red; }
]]></style>
<script type="text/javascript"><![CDATA[
var edges = document.getElementsByTagName('g');
if (edges && edges.length) {
  for (var i=0;i<edges.length;i++) {
    if (edges[i].id.substr(0,4)=='edge') {
      edges[i].setAttribute('class','edge');
    }
  }
}
]]></script>
        <defs>
                <circle id="rim" cx="0" cy="0" r="7"/>
                <circle id="rim2" cx="0" cy="0" r="3.5"/>
                <g id="zoomPlus">
                        <use xlink:href="#rim" fill="#404040">
                                <set attributeName="fill" to="#808080" begin="zoomplus.mouseover" end="zoomplus.mouseout"/>
                        </use>
                        <path d="M-4,0h8M0,-4v8" fill="none" stroke="white" stroke-width="1.5" pointer-events="none"/>
                </g>
                <g id="zoomMin">
                        <use xlink:href="#rim" fill="#404040">
                                <set attributeName="fill" to="#808080" begin="zoomminus.mouseover" end="zoomminus.mouseout"/>
                        </use>
                        <path d="M-4,0h8" fill="none" stroke="white" stroke-width="1.5" pointer-events="none"/>
                </g>
                <g id="dirArrow">
                        <path fill="none" stroke="white" stroke-width="1.5" d="M0,-3.0v7 M-2.5,-0.5L0,-3.0L2.5,-0.5"/>
                </g>
               <g id="resetDef">
                       <use xlink:href="#rim2" fill="#404040">
                               <set attributeName="fill" to="#808080" begin="reset.mouseover" end="reset.mouseout"/>
                       </use>
               </g>
        </defs>

<script type="text/javascript">
var viewWidth = 1128;
var viewHeight = 364;
var sectionId = 'dynsection-0';
</script>
<script xlink:href="svgpan.js"/>
<svg id="graph" class="graph">
<g id="viewport">
<title>Modules/TOF/src/TOFTask.cxx</title>
<!-- Node1 -->
<g id="node1" class="node"><title>Node1</title>
<polygon fill="#bfbfbf" stroke="black" points="194,-336.5 194,-355.5 349,-355.5 349,-336.5 194,-336.5"/>
<text text-anchor="middle" x="271.5" y="-343.5" font-family="Helvetica,sans-Serif" font-size="10.00">Modules/TOF/src/TOFTask.cxx</text>
</g>
<!-- Node2 -->
<g id="node2" class="node"><title>Node2</title>
<polygon fill="none" stroke="#bfbfbf" points="0,-280.5 0,-299.5 65,-299.5 65,-280.5 0,-280.5"/>
<text text-anchor="middle" x="32.5" y="-287.5" font-family="Helvetica,sans-Serif" font-size="10.00">TCanvas.h</text>
</g>
<!-- Node1&#45;&gt;Node2 -->
<g id="edge1" class="edge"><title>Node1&#45;&gt;Node2</title>
<path fill="none" stroke="midnightblue" d="M233.63,-336.444C190.433,-326.684 119.978,-310.765 74.9564,-300.593"/>
<polygon fill="midnightblue" stroke="midnightblue" points="75.7261,-297.178 65.2006,-298.388 74.1833,-304.006 75.7261,-297.178"/>
</g>
<!-- Node3 -->
<g id="node3" class="node"><title>Node3</title>
<polygon fill="none" stroke="#bfbfbf" points="83.5,-280.5 83.5,-299.5 127.5,-299.5 127.5,-280.5 83.5,-280.5"/>
<text text-anchor="middle" x="105.5" y="-287.5" font-family="Helvetica,sans-Serif" font-size="10.00">TH1.h</text>
</g>
<!-- Node1&#45;&gt;Node3 -->
<g id="edge2" class="edge"><title>Node1&#45;&gt;Node3</title>
<path fill="none" stroke="midnightblue" d="M245.197,-336.444C215.912,-326.917 168.589,-311.523 137.262,-301.332"/>
<polygon fill="midnightblue" stroke="midnightblue" points="138.288,-297.986 127.696,-298.22 136.123,-304.642 138.288,-297.986"/>
</g>
<!-- Node4 -->
<g id="node4" class="node"><title>Node4</title>
<polygon fill="none" stroke="#bfbfbf" points="145.5,-280.5 145.5,-299.5 195.5,-299.5 195.5,-280.5 145.5,-280.5"/>
<text text-anchor="middle" x="170.5" y="-287.5" font-family="Helvetica,sans-Serif" font-size="10.00">TH1F.h</text>
</g>
<!-- Node1&#45;&gt;Node4 -->
<g id="edge3" class="edge"><title>Node1&#45;&gt;Node4</title>
<path fill="none" stroke="midnightblue" d="M255.273,-336.324C239.149,-327.703 214.2,-314.364 195.536,-304.386"/>
<polygon fill="midnightblue" stroke="midnightblue" points="197.156,-301.283 186.687,-299.655 193.856,-307.456 197.156,-301.283"/>
</g>
<!-- Node5 -->
<g id="node5" class="node"><title>Node5</title>
<polygon fill="none" stroke="#bfbfbf" points="213.5,-280.5 213.5,-299.5 263.5,-299.5 263.5,-280.5 213.5,-280.5"/>
<text text-anchor="middle" x="238.5" y="-287.5" font-family="Helvetica,sans-Serif" font-size="10.00">TH2F.h</text>
</g>
<!-- Node1&#45;&gt;Node5 -->
<g id="edge4" class="edge"><title>Node1&#45;&gt;Node5</title>
<path fill="none" stroke="midnightblue" d="M266.051,-336.083C261.486,-328.613 254.832,-317.724 249.207,-308.52"/>
<polygon fill="midnightblue" stroke="midnightblue" points="252.049,-306.459 243.848,-299.751 246.076,-310.109 252.049,-306.459"/>
</g>
<!-- Node6 -->
<g id="node6" class="node"><title>Node6</title>
<polygon fill="none" stroke="#bfbfbf" points="282,-280.5 282,-299.5 329,-299.5 329,-280.5 282,-280.5"/>
<text text-anchor="middle" x="305.5" y="-287.5" font-family="Helvetica,sans-Serif" font-size="10.00">TH1I.h</text>
</g>
<!-- Node1&#45;&gt;Node6 -->
<g id="edge5" class="edge"><title>Node1&#45;&gt;Node6</title>
<path fill="none" stroke="midnightblue" d="M277.114,-336.083C281.867,-328.534 288.818,-317.495 294.652,-308.23"/>
<polygon fill="midnightblue" stroke="midnightblue" points="297.624,-310.078 299.99,-299.751 291.7,-306.349 297.624,-310.078"/>
</g>
<!-- Node7 -->
<g id="node7" class="node"><title>Node7</title>
<polygon fill="none" stroke="#bfbfbf" points="347,-280.5 347,-299.5 394,-299.5 394,-280.5 347,-280.5"/>
<text text-anchor="middle" x="370.5" y="-287.5" font-family="Helvetica,sans-Serif" font-size="10.00">TH2I.h</text>
</g>
<!-- Node1&#45;&gt;Node7 -->
<g id="edge6" class="edge"><title>Node1&#45;&gt;Node7</title>
<path fill="none" stroke="midnightblue" d="M287.406,-336.324C303.138,-327.743 327.442,-314.486 345.709,-304.522"/>
<polygon fill="midnightblue" stroke="midnightblue" points="347.53,-307.516 354.633,-299.655 344.178,-301.37 347.53,-307.516"/>
</g>
<!-- Node8 -->
<g id="node8" class="node"><title>Node8</title>
<g id="a_node8"><a xlink:href="QcInfoLogger_8h.html" target="_top" xlink:title="QualityControl/QcInfoLogger.h">
<polygon fill="none" stroke="black" points="412,-280.5 412,-299.5 561,-299.5 561,-280.5 412,-280.5"/>
<text text-anchor="middle" x="486.5" y="-287.5" font-family="Helvetica,sans-Serif" font-size="10.00">QualityControl/QcInfoLogger.h</text>
</a>
</g>
</g>
<!-- Node1&#45;&gt;Node8 -->
<g id="edge7" class="edge"><title>Node1&#45;&gt;Node8</title>
<path fill="none" stroke="midnightblue" d="M305.567,-336.444C342.68,-327.122 402.161,-312.183 442.715,-301.997"/>
<polygon fill="midnightblue" stroke="midnightblue" points="443.746,-305.347 452.592,-299.516 442.041,-298.558 443.746,-305.347"/>
</g>
<!-- Node25 -->
<g id="node25" class="node"><title>Node25</title>
<g id="a_node25"><a xlink:href="TOFTask_8h.html" target="_top" xlink:title="TOF/TOFTask.h">
<polygon fill="none" stroke="black" points="579,-280.5 579,-299.5 668,-299.5 668,-280.5 579,-280.5"/>
<text text-anchor="middle" x="623.5" y="-287.5" font-family="Helvetica,sans-Serif" font-size="10.00">TOF/TOFTask.h</text>
</a>
</g>
</g>
<!-- Node1&#45;&gt;Node25 -->
<g id="edge33" class="edge"><title>Node1&#45;&gt;Node25</title>
<path fill="none" stroke="midnightblue" d="M330.271,-336.488C388.422,-327.991 480.245,-314.372 569.009,-300.217"/>
<polygon fill="midnightblue" stroke="midnightblue" points="569.655,-303.658 578.977,-298.623 568.55,-296.746 569.655,-303.658"/>
</g>
<!-- Node9 -->
<g id="node9" class="node"><title>Node9</title>
<polygon fill="none" stroke="#bfbfbf" points="400.5,-224.5 400.5,-243.5 530.5,-243.5 530.5,-224.5 400.5,-224.5"/>
<text text-anchor="middle" x="465.5" y="-231.5" font-family="Helvetica,sans-Serif" font-size="10.00">InfoLogger/InfoLogger.hxx</text>
</g>
<!-- Node8&#45;&gt;Node9 -->
<g id="edge8" class="edge"><title>Node8&#45;&gt;Node9</title>
<path fill="none" stroke="midnightblue" d="M483.032,-280.083C480.188,-272.77 476.071,-262.181 472.54,-253.103"/>
<polygon fill="midnightblue" stroke="midnightblue" points="475.79,-251.803 468.903,-243.751 469.266,-254.34 475.79,-251.803"/>
</g>
<!-- Node10 -->
<g id="node10" class="node"><title>Node10</title>
<g id="a_node10"><a xlink:href="TaskInterface_8h.html" target="_top" xlink:title="QualityControl/TaskInterface.h">
<polygon fill="none" stroke="black" points="548.5,-224.5 548.5,-243.5 698.5,-243.5 698.5,-224.5 548.5,-224.5"/>
<text text-anchor="middle" x="623.5" y="-231.5" font-family="Helvetica,sans-Serif" font-size="10.00">QualityControl/TaskInterface.h</text>
</a>
</g>
</g>
<!-- Node8&#45;&gt;Node10 -->
<g id="edge9" class="edge"><title>Node8&#45;&gt;Node10</title>
<path fill="none" stroke="midnightblue" d="M508.208,-280.444C530.855,-271.517 566.572,-257.439 592.252,-247.317"/>
<polygon fill="midnightblue" stroke="midnightblue" points="593.874,-250.44 601.894,-243.516 591.307,-243.927 593.874,-250.44"/>
</g>
<!-- Node11 -->
<g id="node11" class="node"><title>Node11</title>
<polygon fill="none" stroke="#bfbfbf" points="90,-56.5 90,-75.5 125,-75.5 125,-56.5 90,-56.5"/>
<text text-anchor="middle" x="107.5" y="-63.5" font-family="Helvetica,sans-Serif" font-size="10.00">map</text>
</g>
<!-- Node10&#45;&gt;Node11 -->
<g id="edge10" class="edge"><title>Node10&#45;&gt;Node11</title>
<path fill="none" stroke="midnightblue" d="M548.329,-225.049C491.676,-218.055 412.406,-206.124 344.5,-188 276.55,-169.864 258.345,-165.487 196.5,-132 170.137,-117.725 142.704,-96.5744 125.388,-82.3121"/>
<polygon fill="midnightblue" stroke="midnightblue" points="127.228,-79.2888 117.313,-75.5547 122.736,-84.6569 127.228,-79.2888"/>
</g>
<!-- Node12 -->
<g id="node12" class="node"><title>Node12</title>
<polygon fill="none" stroke="#bfbfbf" points="570.5,-112.5 570.5,-131.5 622.5,-131.5 622.5,-112.5 570.5,-112.5"/>
<text text-anchor="middle" x="596.5" y="-119.5" font-family="Helvetica,sans-Serif" font-size="10.00">memory</text>
</g>
<!-- Node10&#45;&gt;Node12 -->
<g id="edge11" class="edge"><title>Node10&#45;&gt;Node12</title>
<path fill="none" stroke="midnightblue" d="M621.381,-224.368C617.024,-206.617 606.973,-165.666 601.065,-141.597"/>
<polygon fill="midnightblue" stroke="midnightblue" points="604.392,-140.469 598.609,-131.591 597.594,-142.137 604.392,-140.469"/>
</g>
<!-- Node13 -->
<g id="node13" class="node"><title>Node13</title>
<polygon fill="none" stroke="#bfbfbf" points="344,-0.5 344,-19.5 385,-19.5 385,-0.5 344,-0.5"/>
<text text-anchor="middle" x="364.5" y="-7.5" font-family="Helvetica,sans-Serif" font-size="10.00">string</text>
</g>
<!-- Node10&#45;&gt;Node13 -->
<g id="edge12" class="edge"><title>Node10&#45;&gt;Node13</title>
<path fill="none" stroke="midnightblue" d="M548.417,-224.831C452.683,-214.198 296.39,-196.028 270.5,-188 218.48,-171.869 208.747,-159.093 161.5,-132 121.284,-108.939 95.8083,-116.638 73.5,-76 69.2226,-68.2079 67.7148,-62.7486 73.5,-56 106.819,-17.1325 266.122,-11.5378 333.884,-10.9436"/>
<polygon fill="midnightblue" stroke="midnightblue" points="333.96,-14.4434 343.94,-10.8869 333.92,-7.44348 333.96,-14.4434"/>
</g>
<!-- Node14 -->
<g id="node14" class="node"><title>Node14</title>
<polygon fill="none" stroke="#bfbfbf" points="609,-56.5 609,-75.5 692,-75.5 692,-56.5 609,-56.5"/>
<text text-anchor="middle" x="650.5" y="-63.5" font-family="Helvetica,sans-Serif" font-size="10.00">unordered_map</text>
</g>
<!-- Node10&#45;&gt;Node14 -->
<g id="edge13" class="edge"><title>Node10&#45;&gt;Node14</title>
<path fill="none" stroke="midnightblue" d="M624.952,-224.075C629.202,-197.945 641.683,-121.211 647.478,-85.577"/>
<polygon fill="midnightblue" stroke="midnightblue" points="650.956,-86.0003 649.106,-75.5681 644.046,-84.8765 650.956,-86.0003"/>
</g>
<!-- Node15 -->
<g id="node15" class="node"><title>Node15</title>
<polygon fill="none" stroke="#bfbfbf" points="675,-168.5 675,-187.5 800,-187.5 800,-168.5 675,-168.5"/>
<text text-anchor="middle" x="737.5" y="-175.5" font-family="Helvetica,sans-Serif" font-size="10.00">Framework/InitContext.h</text>
</g>
<!-- Node10&#45;&gt;Node15 -->
<g id="edge14" class="edge"><title>Node10&#45;&gt;Node15</title>
<path fill="none" stroke="midnightblue" d="M641.564,-224.444C660.075,-215.675 689.081,-201.935 710.355,-191.858"/>
<polygon fill="midnightblue" stroke="midnightblue" points="711.982,-194.96 719.521,-187.516 708.985,-188.634 711.982,-194.96"/>
</g>
<!-- Node16 -->
<g id="node16" class="node"><title>Node16</title>
<polygon fill="none" stroke="#bfbfbf" points="818.5,-168.5 818.5,-187.5 978.5,-187.5 978.5,-168.5 818.5,-168.5"/>
<text text-anchor="middle" x="898.5" y="-175.5" font-family="Helvetica,sans-Serif" font-size="10.00">Framework/ProcessingContext.h</text>
</g>
<!-- Node10&#45;&gt;Node16 -->
<g id="edge15" class="edge"><title>Node10&#45;&gt;Node16</title>
<path fill="none" stroke="midnightblue" d="M667.075,-224.444C715.349,-214.964 793.212,-199.675 845.112,-189.483"/>
<polygon fill="midnightblue" stroke="midnightblue" points="845.991,-192.878 855.129,-187.516 844.642,-186.009 845.991,-192.878"/>
</g>
<!-- Node17 -->
<g id="node17" class="node"><title>Node17</title>
<g id="a_node17"><a xlink:href="Activity_8h.html" target="_top" xlink:title="QualityControl/Activity.h">
<polygon fill="none" stroke="black" points="997,-168.5 997,-187.5 1120,-187.5 1120,-168.5 997,-168.5"/>
<text text-anchor="middle" x="1058.5" y="-175.5" font-family="Helvetica,sans-Serif" font-size="10.00">QualityControl/Activity.h</text>
</a>
</g>
</g>
<!-- Node10&#45;&gt;Node17 -->
<g id="edge16" class="edge"><title>Node10&#45;&gt;Node17</title>
<path fill="none" stroke="midnightblue" d="M692.95,-224.479C763.985,-215.748 877.836,-201.715 986.744,-188.091"/>
<polygon fill="midnightblue" stroke="midnightblue" points="987.44,-191.532 996.928,-186.817 986.571,-184.586 987.44,-191.532"/>
</g>
<!-- Node18 -->
<g id="node18" class="node"><title>Node18</title>
<g id="a_node18"><a xlink:href="ObjectsManager_8h.html" target="_top" xlink:title="QualityControl/ObjectsManager.h">
<polygon fill="none" stroke="black" points="353,-168.5 353,-187.5 514,-187.5 514,-168.5 353,-168.5"/>
<text text-anchor="middle" x="433.5" y="-175.5" font-family="Helvetica,sans-Serif" font-size="10.00">QualityControl/ObjectsManager.h</text>
</a>
</g>
</g>
<!-- Node10&#45;&gt;Node18 -->
<g id="edge17" class="edge"><title>Node10&#45;&gt;Node18</title>
<path fill="none" stroke="midnightblue" d="M593.394,-224.444C560.874,-215.201 508.921,-200.436 473.109,-190.257"/>
<polygon fill="midnightblue" stroke="midnightblue" points="474.041,-186.884 463.465,-187.516 472.127,-193.617 474.041,-186.884"/>
</g>
<!-- Node18&#45;&gt;Node12 -->
<g id="edge32" class="edge"><title>Node18&#45;&gt;Node12</title>
<path fill="none" stroke="midnightblue" d="M459.328,-168.444C486.749,-159.359 530.277,-144.939 560.932,-134.783"/>
<polygon fill="midnightblue" stroke="midnightblue" points="562.401,-137.984 570.793,-131.516 560.2,-131.339 562.401,-137.984"/>
</g>
<!-- Node18&#45;&gt;Node13 -->
<g id="edge31" class="edge"><title>Node18&#45;&gt;Node13</title>
<path fill="none" stroke="midnightblue" d="M367.091,-168.485C273.577,-154.867 111.041,-124.658 80.5,-76 75.7744,-68.4713 74.7273,-62.7594 80.5,-56 112.746,-18.2429 266.361,-11.9928 333.254,-11.0827"/>
<polygon fill="midnightblue" stroke="midnightblue" points="333.62,-14.5792 343.584,-10.9758 333.548,-7.57955 333.62,-14.5792"/>
</g>
<!-- Node19 -->
<g id="node19" class="node"><title>Node19</title>
<g id="a_node19"><a xlink:href="MonitorObject_8h.html" target="_top" xlink:title="QualityControl/MonitorObject.h">
<polygon fill="none" stroke="black" points="205,-112.5 205,-131.5 356,-131.5 356,-112.5 205,-112.5"/>
<text text-anchor="middle" x="280.5" y="-119.5" font-family="Helvetica,sans-Serif" font-size="10.00">QualityControl/MonitorObject.h</text>
</a>
</g>
</g>
<!-- Node18&#45;&gt;Node19 -->
<g id="edge18" class="edge"><title>Node18&#45;&gt;Node19</title>
<path fill="none" stroke="midnightblue" d="M409.257,-168.444C383.629,-159.399 343.015,-145.064 314.262,-134.916"/>
<polygon fill="midnightblue" stroke="midnightblue" points="315.225,-131.544 304.63,-131.516 312.895,-138.145 315.225,-131.544"/>
</g>
<!-- Node23 -->
<g id="node23" class="node"><title>Node23</title>
<g id="a_node23"><a xlink:href="Quality_8h.html" target="_top" xlink:title="QualityControl/Quality.h">
<polygon fill="none" stroke="black" points="393,-56.5 393,-75.5 514,-75.5 514,-56.5 393,-56.5"/>
<text text-anchor="middle" x="453.5" y="-63.5" font-family="Helvetica,sans-Serif" font-size="10.00">QualityControl/Quality.h</text>
</a>
</g>
</g>
<!-- Node18&#45;&gt;Node23 -->
<g id="edge27" class="edge"><title>Node18&#45;&gt;Node23</title>
<path fill="none" stroke="midnightblue" d="M424.335,-168.203C412.519,-155.74 394.5,-132.209 403.5,-112 409.068,-99.4981 420.016,-89.0124 430.251,-81.3167"/>
<polygon fill="midnightblue" stroke="midnightblue" points="432.351,-84.1193 438.548,-75.5256 428.344,-78.3794 432.351,-84.1193"/>
</g>
<!-- Node24 -->
<g id="node24" class="node"><title>Node24</title>
<g id="a_node24"><a xlink:href="TaskConfig_8h.html" target="_top" xlink:title="QualityControl/TaskConfig.h">
<polygon fill="none" stroke="black" points="412.5,-112.5 412.5,-131.5 552.5,-131.5 552.5,-112.5 412.5,-112.5"/>
<text text-anchor="middle" x="482.5" y="-119.5" font-family="Helvetica,sans-Serif" font-size="10.00">QualityControl/TaskConfig.h</text>
</a>
</g>
</g>
<!-- Node18&#45;&gt;Node24 -->
<g id="edge28" class="edge"><title>Node18&#45;&gt;Node24</title>
<path fill="none" stroke="midnightblue" d="M441.591,-168.083C448.655,-160.298 459.088,-148.801 467.649,-139.367"/>
<polygon fill="midnightblue" stroke="midnightblue" points="470.431,-141.509 474.559,-131.751 465.247,-136.805 470.431,-141.509"/>
</g>
<!-- Node19&#45;&gt;Node11 -->
<g id="edge20" class="edge"><title>Node19&#45;&gt;Node11</title>
<path fill="none" stroke="midnightblue" d="M251.395,-112.429C223.642,-104.181 180.45,-91.1552 134.854,-76.3676"/>
<polygon fill="midnightblue" stroke="midnightblue" points="135.685,-72.9572 125.093,-73.1864 133.516,-79.6127 135.685,-72.9572"/>
</g>
<!-- Node19&#45;&gt;Node13 -->
<g id="edge19" class="edge"><title>Node19&#45;&gt;Node13</title>
<path fill="none" stroke="midnightblue" d="M299.398,-112.373C314.018,-104.773 333.698,-92.3641 345.5,-76 355.279,-62.4414 360.056,-43.8923 362.371,-30.0791"/>
<polygon fill="midnightblue" stroke="midnightblue" points="365.889,-30.1886 363.793,-19.8033 358.955,-29.2294 365.889,-30.1886"/>
</g>
<!-- Node20 -->
<g id="node20" class="node"><title>Node20</title>
<polygon fill="none" stroke="#bfbfbf" points="488.5,-0.5 488.5,-19.5 544.5,-19.5 544.5,-0.5 488.5,-0.5"/>
<text text-anchor="middle" x="516.5" y="-7.5" font-family="Helvetica,sans-Serif" font-size="10.00">Rtypes.h</text>
</g>
<!-- Node19&#45;&gt;Node20 -->
<g id="edge21" class="edge"><title>Node19&#45;&gt;Node20</title>
<path fill="none" stroke="midnightblue" d="M351.492,-112.493C419.191,-103.652 512.456,-89.2764 523.5,-76 534.247,-63.0804 530.221,-43.3622 524.915,-29.0313"/>
<polygon fill="midnightblue" stroke="midnightblue" points="528.109,-27.5957 521.019,-19.7226 521.652,-30.2986 528.109,-27.5957"/>
</g>
<!-- Node21 -->
<g id="node21" class="node"><title>Node21</title>
<polygon fill="none" stroke="#bfbfbf" points="143,-56.5 143,-75.5 202,-75.5 202,-56.5 143,-56.5"/>
<text text-anchor="middle" x="172.5" y="-63.5" font-family="Helvetica,sans-Serif" font-size="10.00">TObject.h</text>
</g>
<!-- Node19&#45;&gt;Node21 -->
<g id="edge22" class="edge"><title>Node19&#45;&gt;Node21</title>
<path fill="none" stroke="midnightblue" d="M263.148,-112.324C245.828,-103.664 218.985,-90.2424 198.998,-80.249"/>
<polygon fill="midnightblue" stroke="midnightblue" points="200.319,-76.9962 189.809,-75.6545 197.188,-83.2572 200.319,-76.9962"/>
</g>
<!-- Node22 -->
<g id="node22" class="node"><title>Node22</title>
<polygon fill="none" stroke="#bfbfbf" points="220.5,-56.5 220.5,-75.5 336.5,-75.5 336.5,-56.5 220.5,-56.5"/>
<text text-anchor="middle" x="278.5" y="-63.5" font-family="Helvetica,sans-Serif" font-size="10.00">Common/Exceptions.h</text>
</g>
<!-- Node19&#45;&gt;Node22 -->
<g id="edge23" class="edge"><title>Node19&#45;&gt;Node22</title>
<path fill="none" stroke="midnightblue" d="M280.17,-112.083C279.908,-105.006 279.532,-94.8611 279.203,-85.9865"/>
<polygon fill="midnightblue" stroke="midnightblue" points="282.692,-85.6147 278.824,-75.7511 275.697,-85.8738 282.692,-85.6147"/>
</g>
<!-- Node19&#45;&gt;Node23 -->
<g id="edge24" class="edge"><title>Node19&#45;&gt;Node23</title>
<path fill="none" stroke="midnightblue" d="M307.912,-112.444C337.269,-103.28 384.019,-88.6876 416.596,-78.5192"/>
<polygon fill="midnightblue" stroke="midnightblue" points="417.713,-81.8371 426.216,-75.5164 415.627,-75.1551 417.713,-81.8371"/>
</g>
<!-- Node23&#45;&gt;Node13 -->
<g id="edge26" class="edge"><title>Node23&#45;&gt;Node13</title>
<path fill="none" stroke="midnightblue" d="M439.201,-56.324C425.317,-47.9002 404.008,-34.9709 387.696,-25.0741"/>
<polygon fill="midnightblue" stroke="midnightblue" points="389.129,-21.8495 378.764,-19.6545 385.498,-27.8341 389.129,-21.8495"/>
</g>
<!-- Node23&#45;&gt;Node20 -->
<g id="edge25" class="edge"><title>Node23&#45;&gt;Node20</title>
<path fill="none" stroke="midnightblue" d="M463.622,-56.324C473.026,-48.2631 487.244,-36.0765 498.569,-26.3695"/>
<polygon fill="midnightblue" stroke="midnightblue" points="500.879,-28.9993 506.194,-19.8339 496.323,-23.6844 500.879,-28.9993"/>
</g>
<!-- Node24&#45;&gt;Node13 -->
<g id="edge29" class="edge"><title>Node24&#45;&gt;Node13</title>
<path fill="none" stroke="midnightblue" d="M494.746,-112.492C511.539,-99.779 538.067,-75.2613 523.5,-56 508.026,-35.5387 436.572,-21.7038 394.906,-15.2231"/>
<polygon fill="midnightblue" stroke="midnightblue" points="395.417,-11.7606 385.007,-13.7343 394.376,-18.6827 395.417,-11.7606"/>
</g>
<!-- Node24&#45;&gt;Node14 -->
<g id="edge30" class="edge"><title>Node24&#45;&gt;Node14</title>
<path fill="none" stroke="midnightblue" d="M509.12,-112.444C537.506,-103.32 582.637,-88.8133 614.253,-78.6509"/>
<polygon fill="midnightblue" stroke="midnightblue" points="615.555,-81.9087 624.004,-75.5164 613.413,-75.2445 615.555,-81.9087"/>
</g>
<!-- Node25&#45;&gt;Node10 -->
<g id="edge34" class="edge"><title>Node25&#45;&gt;Node10</title>
<path fill="none" stroke="midnightblue" d="M623.5,-280.083C623.5,-273.006 623.5,-262.861 623.5,-253.986"/>
<polygon fill="midnightblue" stroke="midnightblue" points="627,-253.751 623.5,-243.751 620,-253.751 627,-253.751"/>
</g>
</g>
</svg>
        <g id="navigator" transform="translate(0 0)" fill="#404254">
                <rect fill="#f2f5e9" fill-opacity="0.5" stroke="#606060" stroke-width=".5" x="0" y="0" width="60" height="60"/>
                <use id="zoomplus" xlink:href="#zoomPlus" x="17" y="9" onmousedown="handleZoom(evt,'in')"/>
                <use id="zoomminus" xlink:href="#zoomMin" x="42" y="9" onmousedown="handleZoom(evt,'out')"/>
                <use id="reset" xlink:href="#resetDef" x="30" y="36" onmousedown="handleReset()"/>
                <g id="arrowUp" xlink:href="#dirArrow" transform="translate(30 24)" onmousedown="handlePan(0,-1)">
                  <use xlink:href="#rim" fill="#404040">
                        <set attributeName="fill" to="#808080" begin="arrowUp.mouseover" end="arrowUp.mouseout"/>
                  </use>
                  <path fill="none" stroke="white" stroke-width="1.5" d="M0,-3.0v7 M-2.5,-0.5L0,-3.0L2.5,-0.5"/>
                </g>
                <g id="arrowRight" xlink:href="#dirArrow" transform="rotate(90) translate(36 -43)" onmousedown="handlePan(1,0)">
                  <use xlink:href="#rim" fill="#404040">
                        <set attributeName="fill" to="#808080" begin="arrowRight.mouseover" end="arrowRight.mouseout"/>
                  </use>
                  <path fill="none" stroke="white" stroke-width="1.5" d="M0,-3.0v7 M-2.5,-0.5L0,-3.0L2.5,-0.5"/>
                </g>
                <g id="arrowDown" xlink:href="#dirArrow" transform="rotate(180) translate(-30 -48)" onmousedown="handlePan(0,1)">
                  <use xlink:href="#rim" fill="#404040">
                        <set attributeName="fill" to="#808080" begin="arrowDown.mouseover" end="arrowDown.mouseout"/>
                  </use>
                  <path fill="none" stroke="white" stroke-width="1.5" d="M0,-3.0v7 M-2.5,-0.5L0,-3.0L2.5,-0.5"/>
                </g>
                <g id="arrowLeft" xlink:href="#dirArrow" transform="rotate(270) translate(-36 17)" onmousedown="handlePan(-1,0)">
                  <use xlink:href="#rim" fill="#404040">
                        <set attributeName="fill" to="#808080" begin="arrowLeft.mouseover" end="arrowLeft.mouseout"/>
                  </use>
                  <path fill="none" stroke="white" stroke-width="1.5" d="M0,-3.0v7 M-2.5,-0.5L0,-3.0L2.5,-0.5"/>
                </g>
        </g>
        <svg viewBox="0 0 15 15" width="100%" height="30px" preserveAspectRatio="xMaxYMin meet">
         <g id="arrow_out" transform="scale(0.3 0.3)">
          <a xlink:href="TOFTask_8cxx__incl_org.svg" target="_base">
           <rect id="button" ry="5" rx="5" y="6" x="6" height="38" width="38"
                fill="#f2f5e9" fill-opacity="0.5" stroke="#606060" stroke-width="1.0"/>
           <path id="arrow"
             d="M 11.500037,31.436501 C 11.940474,20.09759 22.043105,11.32322 32.158766,21.979434 L 37.068811,17.246167 C 37.068811,17.246167 37.088388,32 37.088388,32 L 22.160133,31.978069 C 22.160133,31.978069 26.997745,27.140456 26.997745,27.140456 C 18.528582,18.264221 13.291696,25.230495 11.500037,31.436501 z"
             style="fill:#404040;"/>
          </a>
         </g>
        </svg>
</svg>
